<?xml version="1.0" encoding="UTF-8" standalone="no"?>
<svg width="48px" height="48px" viewBox="0 0 48 48" version="1.1" xmlns="http://www.w3.org/2000/svg" xmlns:xlink="http://www.w3.org/1999/xlink">
    <!-- Generator: sketchtool 3.6.1 (26313) - http://www.bohemiancoding.com/sketch -->
    <title>ic_archtic</title>
    <desc>Created with sketchtool.</desc>
    <defs></defs>
    <g id="-Stylesheet-+-Mobile" stroke="none" stroke-width="1" fill="none" fill-rule="evenodd" stroke-linecap="round" stroke-linejoin="round">
        <g id="Assets" transform="translate(-43.000000, -477.000000)" stroke="#169BD7" stroke-width="2">
            <g id="ic_archtic" transform="translate(43.000000, 477.000000)">
                <g transform="translate(6.000000, 5.000000)">
                    <path d="M36,7.5 C36,11.6421402 27.9412695,15 18.0005809,15 C8.05873052,15 0,11.6421402 0,7.5 C0,3.35785976 8.05873052,0 18.0005809,0 C27.9412695,0 36,3.35785976 36,7.5 L36,7.5 Z" id="Stroke-1"></path>
                    <path d="M36,17 C36,21.4182829 27.9412695,25 18.0005809,25 C8.05873052,25 0,21.4182829 0,17" id="Stroke-3"></path>
                    <path d="M36,8 L36,29.5918605 C36,34.3267442 27.9371613,38 18,38 C8.06283871,38 0,33.9965116 0,29.2616279 L0,8" id="Stroke-5"></path>
                </g>
            </g>
        </g>
    </g>
</svg>