<?xml version="1.0" encoding="UTF-8" standalone="no"?>
<svg width="21px" height="17px" viewBox="0 0 21 17" version="1.1" xmlns="http://www.w3.org/2000/svg" xmlns:xlink="http://www.w3.org/1999/xlink" xmlns:sketch="http://www.bohemiancoding.com/sketch/ns">
    <!-- Generator: sketchtool 3.4.4 (395) - http://www.bohemiancoding.com/sketch -->
    <title>ic_console</title>
    <desc>Created with sketchtool.</desc>
    <defs></defs>
    <g id="2.x-API-Products-(Slate)---Responsive" stroke="none" stroke-width="1" fill="none" fill-rule="evenodd" sketch:type="MSPage">
        <g id="2.1.3-API-Doc-Icons-Desktop" sketch:type="MSArtboardGroup" transform="translate(-871.000000, -693.000000)">
            <g id="ic_console" sketch:type="MSLayerGroup" transform="translate(866.000000, 685.000000)">
                <rect id="Rectangle-519" sketch:type="MSShapeGroup" x="0" y="0" width="32" height="32"></rect>
                <path d="M11.8861607,21.4709821 L11.328125,22.0290179 C11.2537199,22.103423 11.1681552,22.140625 11.0714286,22.140625 C10.9747019,22.140625 10.8891373,22.103423 10.8147321,22.0290179 L5.61383929,16.828125 C5.53943415,16.7537199 5.50223214,16.6681552 5.50223214,16.5714286 C5.50223214,16.4747019 5.53943415,16.3891373 5.61383929,16.3147321 L10.8147321,11.1138393 C10.8891373,11.0394342 10.9747019,11.0022321 11.0714286,11.0022321 C11.1681552,11.0022321 11.2537199,11.0394342 11.328125,11.1138393 L11.8861607,11.671875 C11.9605658,11.7462801 11.9977679,11.8318448 11.9977679,11.9285714 C11.9977679,12.0252981 11.9605658,12.1108627 11.8861607,12.1852679 L7.5,16.5714286 L11.8861607,20.9575893 C11.9605658,21.0319944 11.9977679,21.117559 11.9977679,21.2142857 C11.9977679,21.3110124 11.9605658,21.396577 11.8861607,21.4709821 L11.8861607,21.4709821 Z M18.4821429,9.5625 L14.3191964,23.9709821 C14.2894344,24.0677088 14.2317713,24.1402527 14.1462054,24.1886161 C14.0606395,24.2369794 13.9732147,24.2462799 13.8839286,24.2165179 L13.1919643,24.0267857 C13.0952376,23.9970237 13.0226937,23.9393605 12.9743304,23.8537946 C12.925967,23.7682287 12.9166665,23.6770838 12.9464286,23.5803571 L17.109375,9.171875 C17.1391371,9.07514833 17.1968002,9.00260441 17.2823661,8.95424107 C17.367932,8.90587773 17.4553567,8.89657723 17.5446429,8.92633929 L18.2366071,9.11607143 C18.3333338,9.14583348 18.4058777,9.2034966 18.4542411,9.2890625 C18.5026044,9.3746284 18.5119049,9.46577333 18.4821429,9.5625 L18.4821429,9.5625 Z M25.8147321,16.828125 L20.6138393,22.0290179 C20.5394342,22.103423 20.4538695,22.140625 20.3571429,22.140625 C20.2604162,22.140625 20.1748516,22.103423 20.1004464,22.0290179 L19.5424107,21.4709821 C19.4680056,21.396577 19.4308036,21.3110124 19.4308036,21.2142857 C19.4308036,21.117559 19.4680056,21.0319944 19.5424107,20.9575893 L23.9285714,16.5714286 L19.5424107,12.1852679 C19.4680056,12.1108627 19.4308036,12.0252981 19.4308036,11.9285714 C19.4308036,11.8318448 19.4680056,11.7462801 19.5424107,11.671875 L20.1004464,11.1138393 C20.1748516,11.0394342 20.2604162,11.0022321 20.3571429,11.0022321 C20.4538695,11.0022321 20.5394342,11.0394342 20.6138393,11.1138393 L25.8147321,16.3147321 C25.8891373,16.3891373 25.9263393,16.4747019 25.9263393,16.5714286 C25.9263393,16.6681552 25.8891373,16.7537199 25.8147321,16.828125 L25.8147321,16.828125 Z" id="code---fontawesome" fill="#B7C9D3" sketch:type="MSShapeGroup"></path>
            </g>
        </g>
    </g>
</svg>