<?xml version="1.0" encoding="UTF-8" standalone="no"?>
<svg width="28px" height="28px" viewBox="0 0 28 28" version="1.1" xmlns="http://www.w3.org/2000/svg" xmlns:xlink="http://www.w3.org/1999/xlink">
    <!-- Generator: sketchtool 3.8.2 (29753) - http://www.bohemiancoding.com/sketch -->
    <title>879B6122-804C-4FBF-8B67-EE7D561A2885</title>
    <desc>Created with sketchtool.</desc>
    <defs></defs>
    <g id="-Stylesheet-+-Mobile" stroke="none" stroke-width="1" fill="none" fill-rule="evenodd">
        <g id="Assets" transform="translate(-348.000000, -397.000000)" fill="#B7C9D3">
            <g id="ic_copy" transform="translate(348.000000, 397.000000)">
                <path d="M21,21 L21,11 L17,11 L17,14.571 C17,14.809 17.131,14.797 16.964,14.964 C16.797,15.131 16.809,15 16.571,15 L13,15 L13,21 L21,21 Z M15,11.143 L15,7 L12,7 L12,11 C12,11.429 11.412,12 11,12 L7,12 L7,18 L12,18 L12,15 C12,14.565 12.154,14.131 12.321,13.965 L15,11.143 Z M11,8 L8,11 L11,11 L11,8 Z M16,11.616 L13.616,14 L16,14 L16,11.616 Z M21,10 C21.518,10 22,10.576 22,11 L22,21 C22,21.437 21.578,22 21,22 L13,22 C12.516,22 12,21.578 12,21 L12,19 L7,19 C6.516,19 6,18.406 6,18 L6,12 C6,11.453 6.224,10.925 6.607,10.536 L10.25,6.893 C10.416,6.727 11,6 12,6 L15,6 C15.424,6 16,6.506 16,7 L16,10 L21,10 Z"></path>
            </g>
        </g>
    </g>
</svg>