<?xml version="1.0" encoding="UTF-8" standalone="no"?>
<svg width="28px" height="28px" viewBox="0 0 28 28" version="1.1" xmlns="http://www.w3.org/2000/svg" xmlns:xlink="http://www.w3.org/1999/xlink" xmlns:sketch="http://www.bohemiancoding.com/sketch/ns">
    <!-- Generator: sketchtool 3.4.4 (395) - http://www.bohemiancoding.com/sketch -->
    <title>ic_copied</title>
    <desc>Created with sketchtool.</desc>
    <defs></defs>
    <g id="2.x-API-Products-(Slate)---Responsive" stroke="none" stroke-width="1" fill="none" fill-rule="evenodd" sketch:type="MSPage">
        <g id="2.1.3-API-Doc-Icons-Desktop" sketch:type="MSArtboardGroup" transform="translate(-1257.000000, -611.000000)" fill="#7ED321">
            <g id="ic_copied" sketch:type="MSLayerGroup" transform="translate(1257.000000, 611.000000)">
                <g id="ic_chekmark" sketch:type="MSShapeGroup">
                    <path d="M21.2109091,11.9425 C21.2109091,12.16625 21.132,12.35625 20.9729091,12.5125 L14.8027273,18.5725 L13.642,19.71 C13.4829091,19.86625 13.2907273,19.945 13.0629091,19.945 C12.8363636,19.945 12.6429091,19.86625 12.4838182,19.71 L11.3243636,18.5725 L8.23927273,15.54125 C8.08018182,15.385 8,15.19625 8,14.9725 C8,14.75 8.08018182,14.56 8.23927273,14.40375 L9.39872727,13.265 C9.55781818,13.10875 9.75127273,13.03125 9.97781818,13.03125 C10.2043636,13.03125 10.3978182,13.10875 10.5569091,13.265 L13.0629091,15.735 L18.6527273,10.235 C18.8118182,10.07875 19.0065455,10 19.2318182,10 C19.4609091,10 19.6543636,10.07875 19.8134545,10.235 L20.9729091,11.37375 C21.132,11.53 21.2109091,11.72 21.2109091,11.9425"></path>
                </g>
            </g>
        </g>
    </g>
</svg>