<?xml version="1.0" encoding="UTF-8" standalone="no"?>
<svg width="24px" height="24px" viewBox="0 0 24 24" version="1.1" xmlns="http://www.w3.org/2000/svg" xmlns:xlink="http://www.w3.org/1999/xlink" xmlns:sketch="http://www.bohemiancoding.com/sketch/ns">
    <!-- Generator: sketchtool 3.4.4 (395) - http://www.bohemiancoding.com/sketch -->
    <title></title>
    <desc>Created with sketchtool.</desc>
    <defs></defs>
    <g id="-Stylesheet-+-Mobile" stroke="none" stroke-width="1" fill="none" fill-rule="evenodd" sketch:type="MSPage">
        <g id="Assets" sketch:type="MSArtboardGroup" transform="translate(-277.000000, -556.000000)" fill="#B7C9D3">
            <g id="ic_copy" sketch:type="MSLayerGroup" transform="translate(277.000000, 556.000000)">
                <path d="M20.0357143,6.85714286 C20.3035728,6.85714286 20.5312491,6.95089192 20.71875,7.13839286 C20.9062509,7.32589379 21,7.55357009 21,7.82142857 L21,20.0357143 C21,20.3035728 20.9062509,20.5312491 20.71875,20.71875 C20.5312491,20.9062509 20.3035728,21 20.0357143,21 L10.3928571,21 C10.1249987,21 9.89732237,20.9062509 9.70982143,20.71875 C9.52232049,20.5312491 9.42857143,20.3035728 9.42857143,20.0357143 L9.42857143,17.1428571 L3.96428571,17.1428571 C3.69642723,17.1428571 3.46875094,17.0491081 3.28125,16.8616071 C3.09374906,16.6741062 3,16.4464299 3,16.1785714 L3,9.42857143 C3,9.16071295 3.06696362,8.86607304 3.20089286,8.54464286 C3.3348221,8.22321268 3.49553478,7.96875094 3.68303571,7.78125 L7.78125,3.68303571 C7.96875094,3.49553478 8.22321268,3.3348221 8.54464286,3.20089286 C8.86607304,3.06696362 9.16071295,3 9.42857143,3 L13.6071429,3 C13.8750013,3 14.1026776,3.09374906 14.2901786,3.28125 C14.4776795,3.46875094 14.5714286,3.69642723 14.5714286,3.96428571 L14.5714286,7.25892857 C15.026788,6.99107009 15.4553551,6.85714286 15.8571429,6.85714286 L20.0357143,6.85714286 Z M14.5714286,8.99665179 L11.5680804,12 L14.5714286,12 L14.5714286,8.99665179 Z M8.14285714,5.13950893 L5.13950893,8.14285714 L8.14285714,8.14285714 L8.14285714,5.13950893 Z M10.1116071,11.6383929 L13.2857143,8.46428571 L13.2857143,4.28571429 L9.42857143,4.28571429 L9.42857143,8.46428571 C9.42857143,8.7321442 9.33482237,8.95982049 9.14732143,9.14732143 C8.95982049,9.33482237 8.7321442,9.42857143 8.46428571,9.42857143 L4.28571429,9.42857143 L4.28571429,15.8571429 L9.42857143,15.8571429 L9.42857143,13.2857143 C9.42857143,13.0178558 9.49553504,12.7232159 9.62946429,12.4017857 C9.76339353,12.0803555 9.92410621,11.8258938 10.1116071,11.6383929 L10.1116071,11.6383929 Z M19.7142857,19.7142857 L19.7142857,8.14285714 L15.8571429,8.14285714 L15.8571429,12.3214286 C15.8571429,12.5892871 15.7633938,12.8169633 15.5758929,13.0044643 C15.3883919,13.1919652 15.1607156,13.2857143 14.8928571,13.2857143 L10.7142857,13.2857143 L10.7142857,19.7142857 L19.7142857,19.7142857 Z" id="" sketch:type="MSShapeGroup"></path>
            </g>
        </g>
    </g>
</svg>