<?xml version="1.0" encoding="UTF-8" standalone="no"?>
<svg width="68px" height="68px" viewBox="0 0 68 68" version="1.1" xmlns="http://www.w3.org/2000/svg" xmlns:xlink="http://www.w3.org/1999/xlink">
    <!-- Generator: sketchtool 39.1 (31720) - http://www.bohemiancoding.com/sketch -->
    <title>9DD6BBE1-B433-4A94-99F3-F53AD768B28B</title>
    <desc>Created with sketchtool.</desc>
    <defs></defs>
    <g id="2.x-Products-Landing" stroke="none" stroke-width="1" fill="none" fill-rule="evenodd">
        <g id="2.1.1-Products-Landing-Desktop" transform="translate(-882.000000, -1679.000000)" fill="#009CDE">
            <g id="ic_cart" transform="translate(882.000000, 1679.000000)">
                <path d="M45.3333333,55.4 C45.3333333,53.8558 44.0625833,52.6 42.5,52.6 C40.9374167,52.6 39.6666667,53.8558 39.6666667,55.4 C39.6666667,56.9442 40.9374167,58.2 42.5,58.2 C44.0625833,58.2 45.3333333,56.9442 45.3333333,55.4 M48.1666667,55.4 C48.1666667,58.4884 45.6251667,61 42.5,61 C39.3748333,61 36.8333333,58.4884 36.8333333,55.4 C36.8333333,52.3116 39.3748333,49.8 42.5,49.8 C45.6251667,49.8 48.1666667,52.3116 48.1666667,55.4 M19.8333333,55.4 C19.8333333,53.8558 18.5625833,52.6 17,52.6 C15.4374167,52.6 14.1666667,53.8558 14.1666667,55.4 C14.1666667,56.9442 15.4374167,58.2 17,58.2 C18.5625833,58.2 19.8333333,56.9442 19.8333333,55.4 M22.6666667,55.4 C22.6666667,58.4884 20.1251667,61 17,61 C13.8748333,61 11.3333333,58.4884 11.3333333,55.4 C11.3333333,52.3116 13.8748333,49.8 17,49.8 C20.1251667,49.8 22.6666667,52.3116 22.6666667,55.4 M66.5833333,7.8 L59.3101667,7.8 L53.992,44.5948 C53.7965,45.9654 52.5895,47 51.187,47 L9.91666667,47 C7.5735,47 5.66666667,45.1156 5.66666667,42.8 C5.66666667,40.4844 7.57350127,38.0799248 9.91666794,38.0799248 L43.9166679,38.0799248 C44.6986679,38.0799248 45.3333333,37.9714 45.3333333,37.2 C45.3333333,36.4286 44.6986667,35.8 43.9166667,35.8 L7.08333333,35.8 C4.74016667,35.8 2.83333333,33.9156 2.83333333,31.6 C2.83333333,29.2844 4.7401654,27.0698853 7.08333206,27.0698853 L45.3333321,27.0698853 C46.1153321,27.0698853 46.75,26.7714 46.75,26 C46.75,25.2286 46.1153333,24.810498 45.3333333,24.810498 L4.25,24.810498 C2.22454261,24.810498 0.525115743,23.1919666 0.101503323,21.3145098 C0.0350563079,21.0200156 0,20.7139715 0,20.4 C0,18.0844 1.90683206,16.0357695 4.24999873,16.0357695 L49.5833321,16.0357695 C50.3667487,16.0357695 50.9999987,16.8469771 50.9999987,17.6197771 C50.9999987,18.3925771 50.3667487,19.0197771 49.5833321,19.0197771 L4.24999873,19.0197771 C3.46799873,19.0197771 2.83333333,19.6286 2.83333333,20.4 C2.83333333,21.1714 3.468,22.010498 4.25,22.010498 L45.3333333,22.010498 C47.6765,22.010498 49.5833333,23.6844 49.5833333,26 C49.5833333,28.3156 47.6764987,29.8698853 45.3333321,29.8698853 L7.08333206,29.8698853 C6.30133206,29.8698853 5.66666667,30.8286 5.66666667,31.6 C5.66666667,32.3714 6.30133333,33 7.08333333,33 L43.9166667,33 C46.2598333,33 48.1666667,34.8844 48.1666667,37.2 C48.1666667,39.5156 46.2598346,40.8799248 43.9166679,40.8799248 L9.91666794,40.8799248 C9.13466794,40.8799248 8.5,42.0286 8.5,42.8 C8.5,43.5714 9.13466667,44.2 9.91666667,44.2 L51.187,44.2 L56.5051667,7.4052 C56.70775,6.0318 57.91475,5 59.3101667,5 L66.5833333,5 C67.36675,5 68,5.6272 68,6.4 C68,7.1728 67.36675,7.8 66.5833333,7.8 Z"></path>
            </g>
        </g>
    </g>
</svg>