<?xml version="1.0" encoding="UTF-8" standalone="no"?>
<svg width="16px" height="13px" viewBox="0 0 16 13" version="1.1" xmlns="http://www.w3.org/2000/svg" xmlns:xlink="http://www.w3.org/1999/xlink" xmlns:sketch="http://www.bohemiancoding.com/sketch/ns">
    <!-- Generator: sketchtool 3.4.4 (395) - http://www.bohemiancoding.com/sketch -->
    <title>ic_console_v2</title>
    <desc>Created with sketchtool.</desc>
    <defs></defs>
    <g id="2.x-API-Products-(Slate)---Responsive" stroke="none" stroke-width="1" fill="none" fill-rule="evenodd" sketch:type="MSPage">
        <g id="2.1.3-API-Doc-Icons-Desktop" sketch:type="MSArtboardGroup" transform="translate(-877.000000, -695.000000)">
            <g id="ic_console_v2" sketch:type="MSLayerGroup" transform="translate(868.000000, 685.000000)">
                <rect id="Rectangle-519" sketch:type="MSShapeGroup" x="0" y="0" width="32" height="32"></rect>
                <path d="M16.3891578,16.3501065 L10.7202888,22.0189755 C10.6391887,22.1000756 10.545925,22.140625 10.4404948,22.140625 C10.3350647,22.140625 10.241801,22.1000756 10.1607009,22.0189755 L9.55245312,21.4107277 C9.47135302,21.3296276 9.43080357,21.2363639 9.43080357,21.1309337 C9.43080357,21.0255036 9.47135302,20.9322399 9.55245312,20.8511398 L14.3332804,16.0703125 L9.55245312,11.2894852 C9.47135302,11.2083851 9.43080357,11.1151214 9.43080357,11.0096913 C9.43080357,10.9042611 9.47135302,10.8109974 9.55245312,10.7298973 L10.1607009,10.1216495 C10.241801,10.0405494 10.3350647,10 10.4404948,10 C10.545925,10 10.6391887,10.0405494 10.7202888,10.1216495 L16.3891578,15.7905185 C16.4702579,15.8716186 16.5108073,15.9648824 16.5108073,16.0703125 C16.5108073,16.1757426 16.4702579,16.2690064 16.3891578,16.3501065 L16.3891578,16.3501065 Z" id="Path" fill="#B7C9D3" sketch:type="MSShapeGroup"></path>
                <rect id="Rectangle-532" fill="#B7C9D3" sketch:type="MSShapeGroup" x="17" y="20" width="8" height="1.70000005"></rect>
            </g>
        </g>
    </g>
</svg>