<?xml version="1.0" encoding="UTF-8"?>
<svg width="15" height="10" xmlns="http://www.w3.org/2000/svg">
 <!-- Generator: sketchtool 3.4.4 (395) - http://www.bohemiancoding.com/sketch -->
 <title>Chevron</title>
 <desc>Created with sketchtool.</desc>
 <g>
  <title>Layer 1</title>
  <g transform="rotate(180, 7.19727, 4.62109)" fill-rule="evenodd" fill="none" id="2.x-API-Products-(Slate)---Responsive">
   <g fill="#B7C9D3" id="2.1.3-API-Doc-Icons-Desktop">
    <g id="Drop-down">
     <g id="shevron">
      <path id="Chevron" d="m14.223267,2.455383l-6.625,6.616028c-0.113159,0.113098 -0.24707,0.169678 -0.401855,0.169678c-0.154785,0 -0.288696,-0.05658 -0.401733,-0.169678l-6.625,-6.616028c-0.113159,-0.113098 -0.169678,-0.248535 -0.169678,-0.40625c0,-0.157776 0.056519,-0.293213 0.169678,-0.40625l1.482056,-1.473267c0.113159,-0.113037 0.24707,-0.169617 0.401855,-0.169617c0.154785,0 0.288696,0.05658 0.401733,0.169617l4.741089,4.741089l4.741089,-4.741089c0.113159,-0.113037 0.24707,-0.169617 0.401733,-0.169617c0.154785,0 0.288696,0.05658 0.401855,0.169617l1.482178,1.473267c0.113037,0.113037 0.169556,0.248474 0.169556,0.40625c0,0.157715 -0.056519,0.293152 -0.169556,0.40625l0,0z"/>
     </g>
    </g>
   </g>
  </g>
 </g>
</svg>