<?xml version="1.0" encoding="UTF-8" standalone="no"?>
<svg width="68px" height="68px" viewBox="0 0 68 68" version="1.1" xmlns="http://www.w3.org/2000/svg" xmlns:xlink="http://www.w3.org/1999/xlink">
    <!-- Generator: sketchtool 39.1 (31720) - http://www.bohemiancoding.com/sketch -->
    <title>F82F39BA-754E-4A91-8F5E-241B8ED7C088</title>
    <desc>Created with sketchtool.</desc>
    <defs></defs>
    <g id="2.x-Products-Landing" stroke="none" stroke-width="1" fill="none" fill-rule="evenodd">
        <g id="2.1.1-Products-Landing-Desktop" transform="translate(-686.000000, -1679.000000)" fill="#009CDE">
            <g id="ic_flag" transform="translate(686.000000, 1679.000000)">
                <path d="M11.0371833,66.710879 C11.0371833,67.492879 10.3666833,68.1275457 9.53718328,68.1275457 C8.70768328,68.1275457 8.03718328,67.492879 8.03718328,66.710879 L8.03718328,1.54421234 C8.03718328,0.762212341 8.70768328,0.127545675 9.53718328,0.127545675 C10.3666833,0.127545675 11.0371833,0.762212341 11.0371833,1.54421234 L11.0371833,66.710879 Z M17,39.4075833 L17,6.40758333 L55.0371833,22.9075833 L17,39.4075833 Z M15.9692219,2.9420514 C15.5375031,2.75062106 15.0368781,2.7934786 14.6389094,3.05776676 C14.2437531,3.32205493 14.0046906,3.77063052 14.0046906,4.25206356 L14.0046906,41.3952655 C14.0046906,41.8766985 14.2437531,42.3252741 14.6389094,42.5895623 C14.8723469,42.745278 15.1409406,42.8238502 15.4109406,42.8238502 C15.6007844,42.8238502 15.7920344,42.7852784 15.9692219,42.7052777 L58.3186979,24.1435281 C58.8347917,23.9178117 59.1666667,23.4020926 59.1666667,22.8335159 C59.1666667,22.2649392 58.8347917,21.7492201 58.3186979,21.5235037 L15.9692219,2.9420514 Z"></path>
            </g>
        </g>
    </g>
</svg>