<?xml version="1.0" encoding="UTF-8" standalone="no"?>
<svg width="68px" height="68px" viewBox="0 0 68 68" version="1.1" xmlns="http://www.w3.org/2000/svg" xmlns:xlink="http://www.w3.org/1999/xlink">
    <!-- Generator: sketchtool 39.1 (31720) - http://www.bohemiancoding.com/sketch -->
    <title>246D0042-0E7F-4A59-B259-D1392AA3063A</title>
    <desc>Created with sketchtool.</desc>
    <defs></defs>
    <g id="2.x-Products-Landing" stroke="none" stroke-width="1" fill="none" fill-rule="evenodd">
        <g id="2.1.1-Products-Landing-Desktop" transform="translate(-786.000000, -1875.000000)" fill="#009CDE">
            <g id="ic_inventory_status" transform="translate(786.000000, 1875.000000)">
                <path d="M38.8531464,41.8436803 L40.991302,43.9818359 L31.3680896,53.6050483 L24.9536227,47.1905815 L27.0917783,45.0509137 L31.3680896,49.3287371 L38.8531464,41.8436803 Z M49.3276895,40.0472666 C46.4017128,33.9442991 40.1807989,29.7088154 32.9724623,29.7088154 C25.0791297,29.7088154 18.3667727,34.7820206 15.874778,41.8330953 C14.0526581,41.966163 12.3137055,42.8825154 10.837864,43.960666 L7.65028831,41.0921503 L39.7286712,9.01527956 L42.9132227,12.2028553 C41.7125893,13.8435192 41.0669086,15.8017311 41.0744693,17.8461345 C41.0850542,20.3789567 42.0875982,22.7711506 43.9006453,24.5841977 C47.3316744,28.0137147 52.5167774,28.3433596 56.285012,25.5746447 L60.0426618,29.3307823 L49.3276895,40.0472666 Z M32.9724623,62.9757346 C24.6345627,62.9757346 17.8511354,56.1923074 17.8511354,47.8544077 C17.8511354,39.5165081 24.6345627,32.7330808 32.9724623,32.7330808 C41.310362,32.7330808 48.0937893,39.5165081 48.0937893,47.8544077 C48.0937893,56.1923074 41.310362,62.9757346 32.9724623,62.9757346 L32.9724623,62.9757346 Z M20.4535158,5.45723134 L24.2746751,6.87863607 C23.5140724,10.6030189 25.0413264,14.3621808 28.0353491,16.4307783 L9.36807105,35.0980563 L20.4535158,5.45723134 Z M63.2498952,28.2617044 L57.435745,22.4460421 C56.8445011,21.8563104 55.8873211,21.8563104 55.2975894,22.4460421 C52.7012576,25.0423739 48.6351328,25.0393497 46.0403131,22.4460421 C43.4454934,19.8512224 43.4454934,15.7850976 46.0403131,13.1902779 C46.6300448,12.599034 46.6300448,11.6433662 46.0403131,11.0521223 L40.797749,5.80804612 C40.5134681,5.52527731 40.1293864,5.36499125 39.7286712,5.36499125 C39.3264439,5.36499125 38.9423622,5.52527731 38.6595934,5.80804612 L30.2234051,14.2442344 C27.5711244,12.7895628 26.3795638,9.5581352 27.5272725,6.47640877 C27.6663887,6.10139987 27.6512674,5.68405124 27.4849328,5.31962727 C27.3185982,4.95520329 27.0131474,4.67092234 26.6366264,4.53180613 L20.0921161,2.09576037 C19.3133678,1.80391876 18.4423793,2.20160966 18.1490256,2.98338226 L4.09526436,40.5629039 C4.06502171,40.6430469 4.07258237,40.7231899 4.05746104,40.8048451 C4.03780332,40.9016216 4,40.9923496 4,41.0921503 C4,41.1027353 4.00604853,41.1133202 4.00604853,41.1239051 C4.00756066,41.2312665 4.04233972,41.3295552 4.06804597,41.4338923 C4.0877037,41.521596 4.09375223,41.612324 4.13004341,41.6939791 C4.17389526,41.7937799 4.24647763,41.8754351 4.3099872,41.9646509 C4.35686331,42.0281605 4.38559384,42.1037671 4.44305488,42.1612281 L9.68561892,47.4053043 C9.98199692,47.7001702 10.3691029,47.8483592 10.7562089,47.8483592 C11.1418027,47.8483592 11.5289087,47.6215393 11.8252867,47.3251613 C12.717445,46.433003 13.8152533,45.7933709 14.9977411,45.4969929 C14.8964282,46.2712048 14.8268701,47.0529774 14.8268701,47.8544077 C14.8268701,57.8601897 22.9666803,66 32.9724623,66 C42.9782444,66 51.1180546,57.8601897 51.1180546,47.8544077 C51.1180546,46.2318893 50.8836741,44.666832 50.4829589,43.1698206 L63.2498952,30.3998601 C63.8411391,29.8086162 63.8411391,28.8529483 63.2498952,28.2617044 L63.2498952,28.2617044 Z"></path>
            </g>
        </g>
    </g>
</svg>