<?xml version="1.0" encoding="UTF-8" standalone="no"?>
<svg width="68px" height="68px" viewBox="0 0 68 68" version="1.1" xmlns="http://www.w3.org/2000/svg" xmlns:xlink="http://www.w3.org/1999/xlink">
    <!-- Generator: sketchtool 39.1 (31720) - http://www.bohemiancoding.com/sketch -->
    <title>11B7A8A8-3E87-4A03-B50D-92D6D5957B4A</title>
    <desc>Created with sketchtool.</desc>
    <defs></defs>
    <g id="2.x-Products-Landing" stroke="none" stroke-width="1" fill="none" fill-rule="evenodd">
        <g id="2.1.1-Products-Landing-Desktop" transform="translate(-882.000000, -1269.000000)" fill="#009CDE">
            <g id="ic_oauth" transform="translate(882.000000, 1269.000000)">
                <path d="M56.6666667,50.9756735 C56.6666667,50.192442 56.032,49.556776 55.25,49.556776 L46.75,49.556776 C45.968,49.556776 45.3333333,50.192442 45.3333333,50.9756735 L45.3333333,56.6512634 C45.3333333,57.4344948 45.968,58.0701609 46.75,58.0701609 L55.25,58.0701609 C56.032,58.0701609 56.6666667,57.4344948 56.6666667,56.6512634 L56.6666667,50.9756735 Z M48.1666667,44.3309765 L48.1666667,46.718981 L53.8333333,46.718981 L53.8333333,44.3309765 C53.8333333,42.9745105 52.5668333,42.4793153 51,42.4622885 C48.8594167,42.483572 48.1666667,43.2526144 48.1666667,44.3309765 L48.1666667,44.3309765 Z M59.5,50.9756735 L59.5,56.6512634 C59.5,58.9981199 57.5931667,60.9079559 55.25,60.9079559 L46.75,60.9079559 C44.4068333,60.9079559 42.5,58.9981199 42.5,56.6512634 L42.5,50.9756735 C42.5,49.1282689 43.6885833,47.5674817 45.3333333,46.9800581 L45.3333333,44.3309765 C45.3333333,42.6098539 46.42275,39.742262 50.7294167,39.6259124 C50.762,39.6244935 50.7945833,39.6244935 50.83,39.6244935 L51,39.6244935 C51.0311667,39.6244935 51.06375,39.6230746 51.0949167,39.6244935 C54.7003333,39.7138841 56.6666667,41.583991 56.6666667,44.3309765 L56.6666667,46.9800581 C58.3114167,47.5674817 59.5,49.1282689 59.5,50.9756735 L59.5,50.9756735 Z M61.41675,11.5033642 L42.4036667,4.32516182 C37.0968333,2.33586754 31.2559167,2.33728644 25.9561667,4.32374292 L6.59175,11.5005264 C6.03641667,11.7048477 5.66666667,12.2369342 5.66666667,12.8300334 L5.66666667,29.1885025 C5.66666667,41.1923753 11.9410833,52.4229489 22.46125,59.2322379 L33.7138333,66.3636167 C33.9461667,66.5097632 34.20825,66.5835458 34.47175,66.5835458 C34.7380833,66.5835458 35.00725,66.5069254 35.241,66.3565222 L39.4116667,63.6577792 C40.069,63.23211 40.2574167,62.3538124 39.8324167,61.695444 C39.4074167,61.0384944 38.5305,60.8483622 37.8731667,61.2740314 L34.46325,63.480417 L23.9898333,56.8428146 C14.2899167,50.5641932 8.5,40.2261061 8.5,29.1885025 L8.5,13.8190049 L26.945,6.98275682 C31.67525,5.21055385 36.6760833,5.20913495 41.40775,6.98133792 L59.5,13.8119104 L59.5,29.1885025 C59.5,32.9727021 59.1373333,35.9353601 58.3595833,38.5163346 C58.1329167,39.2655125 58.5579167,40.0586762 59.3059167,40.2842809 C60.0595833,40.5155612 60.8458333,40.0870541 61.0710833,39.3364574 C61.9324167,36.4816356 62.3333333,33.2579005 62.3333333,29.1885025 L62.3333333,12.8300334 C62.3333333,12.239772 61.9678333,11.7105232 61.41675,11.5033642 L61.41675,11.5033642 Z M41.3695,41.0646745 C40.409,40.7099501 39.0079167,40.3325234 37.8944167,40.0430683 C37.2710833,39.881314 36.8333333,39.3165928 36.8333333,38.6695755 L36.8333333,34.2028862 C36.8333333,33.582828 37.23425,33.0337147 37.825,32.849258 C37.8689167,32.8308124 39.6666667,32.1270392 39.6666667,28.8422915 C39.6666667,28.1981121 40.0959167,27.6546743 40.6824167,27.4815688 C40.74475,27.244613 40.74475,26.8657673 40.6824167,26.6288114 C40.0959167,26.455706 39.6666667,25.9122682 39.6666667,25.2680888 C39.6666667,24.8821486 39.7955833,24.5657345 40.0505833,23.9300684 C40.4628333,22.9070433 41.3213333,21.0695711 40.9685833,19.6520925 C40.77025,18.8631855 39.1354167,18.3410312 36.7384167,18.3410312 L36.7355833,18.3410312 C34.3385833,18.3410312 32.70375,18.8631855 32.50825,19.6520925 C32.3240833,20.3856625 31.5959167,20.7077522 30.855,20.5530924 C30.4243333,20.4651208 30.2033333,20.4268105 30.1565833,20.448094 C30.073,20.6211995 29.9738333,21.3561884 30.8606667,24.0421613 C31.07175,24.6778274 31.1666667,24.9502557 31.1666667,25.2865344 C31.1666667,25.9307139 30.7374167,26.4642193 30.1509167,26.6373248 C30.0885833,26.8742807 30.0885833,27.2502885 30.1509167,27.4872444 C30.7374167,27.6603499 31.1666667,28.2009499 31.1666667,28.8451293 C31.1666667,32.1284581 32.9644167,32.8322313 33.0395,32.8606092 C33.5948333,33.0663494 34,33.6097871 34,34.2028862 L34,38.6695755 C34,39.2711881 33.6203333,39.8075313 33.0550833,40.0090148 C32.25325,40.2913754 31.4301667,40.5751549 30.60425,40.8575155 C27.1971667,42.026687 23.6753333,43.2370066 21.9115833,44.4600962 C21.6650833,44.6303639 21.3845833,44.7126599 21.1055,44.7126599 C20.6564167,44.7126599 20.2158333,44.4998253 19.9395833,44.1011151 C19.49475,43.4569357 19.6548333,42.5729625 20.298,42.1274287 C22.38475,40.6787344 25.9306667,39.4627392 29.6848333,38.1743803 C30.1820833,38.0026937 30.6765,37.832426 31.1666667,37.6621583 L31.1666667,35.049968 C30.1339167,34.3632217 28.6308333,32.8506769 28.3715833,29.7830206 C27.68875,29.2395828 27.2708333,28.2633814 27.2708333,27.0558996 C27.2708333,26.3592209 27.4224167,25.6880824 27.7015,25.1630903 C27.8091667,24.9573502 27.9366667,24.7743124 28.0769167,24.6153959 C27.4875833,22.814815 26.673,20.0493838 28.07975,18.4587997 C28.475,18.0132659 29.15075,17.8387415 30.26425,17.8089447 C31.5095,15.9132976 34.37825,15.5032362 36.7355833,15.5032362 L36.7384167,15.5032362 C39.525,15.5032362 43.0255833,16.1914015 43.7155,18.9639272 C44.251,21.1064624 43.3868333,23.3582527 42.8088333,24.8140416 C43.2834167,25.3830195 43.5625,26.1407107 43.5625,27.1282634 C43.5625,28.337164 43.1445833,29.2764742 42.46175,29.8199119 C42.2025,32.8861494 40.6994167,34.3632217 39.6666667,35.049968 L39.6666667,37.5770245 C40.8495833,37.8976953 41.684,38.1559346 42.3526667,38.4042417 C43.0865,38.6752511 43.4619167,39.4911172 43.1885,40.2261061 C42.9179167,40.961095 42.1033333,41.3413595 41.3695,41.0646745 L41.3695,41.0646745 Z"></path>
            </g>
        </g>
    </g>
</svg>