<?xml version="1.0" encoding="UTF-8" standalone="no"?>
<svg width="68px" height="68px" viewBox="0 0 68 68" version="1.1" xmlns="http://www.w3.org/2000/svg" xmlns:xlink="http://www.w3.org/1999/xlink">
    <!-- Generator: sketchtool 39.1 (31720) - http://www.bohemiancoding.com/sketch -->
    <title>9EFD844D-406F-4259-984F-0EED50643702</title>
    <desc>Created with sketchtool.</desc>
    <defs>
        <polygon id="path-1" points="0.000425 45.3201583 64.9045833 45.3201583 64.9045833 0 0.000425 0"></polygon>
    </defs>
    <g id="2.x-Products-Landing" stroke="none" stroke-width="1" fill="none" fill-rule="evenodd">
        <g id="2.1.1-Products-Landing-Desktop" transform="translate(-686.000000, -1269.000000)">
            <g id="ic_publish" transform="translate(686.000000, 1269.000000)">
                <g transform="translate(1.416667, 9.916667)">
                    <mask id="mask-2" fill="white">
                        <use xlink:href="#path-1"></use>
                    </mask>
                    <g id="Clip-2"></g>
                    <path d="M44.251425,33.5835 C44.7968417,34.1430833 45.696425,34.1544167 46.2545917,33.6061667 C46.814175,33.0593333 46.8240917,32.1625833 46.2772583,31.603 L35.1195917,20.1903333 C34.5883417,19.6463333 33.6250083,19.6463333 33.0937583,20.1903333 L21.9375083,31.603 C21.3892583,32.1625833 21.4005917,33.0593333 21.960175,33.6061667 C22.2350083,33.8753333 22.593425,34.0099167 22.950425,34.0099167 C23.3187583,34.0099167 23.723925,33.8668333 24.000175,33.5835 L28.3337583,29.189 L28.3337583,43.8996667 C28.3337583,44.6816667 28.9670083,45.3163333 29.750425,45.3163333 C30.532425,45.3163333 31.1670917,44.6816667 31.1670917,43.8996667 L31.1670917,26.2919167 L34.1435083,23.2078333 L36.8337583,25.99725 L36.8337583,43.9039167 C36.8337583,44.6859167 37.4670083,45.3205833 38.250425,45.3205833 C39.032425,45.3205833 39.6670917,44.6859167 39.6670917,43.9039167 L39.6670917,28.8943333 L44.251425,33.5835 Z M64.9050083,30.2061667 C64.9050083,36.19725 60.1620083,41.0705833 54.3338417,41.0705833 L43.9170917,41.0705833 C43.133675,41.0705833 42.500425,40.4359167 42.500425,39.6539167 C42.500425,38.8705 43.133675,38.23725 43.9170917,38.23725 L54.3338417,38.23725 C58.6008417,38.23725 62.071675,34.6346667 62.071675,30.2061667 C62.071675,26.1885 59.1972583,22.7573333 55.3835917,22.2246667 C54.672425,22.1269167 54.1482583,21.5106667 54.162425,20.7938333 L54.1765917,20.5430833 C54.1822583,10.73125 46.469925,2.83333333 36.992425,2.83333333 C30.761925,2.83333333 25.0017583,6.31125 21.9630083,11.9085 C21.628675,12.5219167 20.8962583,12.8024167 20.2445917,12.5686667 C19.418675,12.2754167 18.5672583,12.1266667 17.7172583,12.1266667 C13.4488417,12.1266667 9.97800833,15.6924167 9.97800833,20.0741667 C9.97800833,20.33625 9.992175,20.5955 10.0162583,20.8519167 C10.081425,21.56025 9.609675,22.2090833 8.91550833,22.3649167 C5.39084167,23.1525833 2.83375833,26.4505833 2.83375833,30.2075833 C2.83375833,34.6346667 6.30459167,38.23725 10.5715917,38.23725 L24.0837583,38.23725 C24.8657583,38.23725 25.500425,38.8705 25.500425,39.6539167 C25.500425,40.4359167 24.8657583,41.0705833 24.0837583,41.0705833 L10.5715917,41.0705833 C4.74200833,41.0705833 0.000425,36.19725 0.000425,30.2075833 C0.000425,25.551 2.94284167,21.40725 7.14609167,19.92825 C7.221175,14.0505 11.934425,9.29333333 17.7172583,9.29333333 C18.4992583,9.29333333 19.2798417,9.384 20.047675,9.5625 C23.706925,3.63658333 30.098925,0 36.992425,0 C47.7803417,0 56.6033417,8.75358333 57.001425,19.6675833 C61.5843417,20.8944167 64.9050083,25.2180833 64.9050083,30.2061667 L64.9050083,30.2061667 Z" id="Fill-1" fill="#169BD7" mask="url(#mask-2)"></path>
                </g>
            </g>
        </g>
    </g>
</svg>