<?xml version="1.0" encoding="UTF-8" standalone="no"?>
<svg width="68px" height="68px" viewBox="0 0 68 68" version="1.1" xmlns="http://www.w3.org/2000/svg" xmlns:xlink="http://www.w3.org/1999/xlink">
    <!-- Generator: sketchtool 39.1 (31720) - http://www.bohemiancoding.com/sketch -->
    <title>7390DD97-DBA1-4081-940D-F63786973B95</title>
    <desc>Created with sketchtool.</desc>
    <defs></defs>
    <g id="2.x-Products-Landing" stroke="none" stroke-width="1" fill="none" fill-rule="evenodd">
        <g id="2.1.1-Products-Landing-Desktop" transform="translate(-686.000000, -1483.000000)" fill="#009CDE">
            <g id="ic_partners" transform="translate(686.000000, 1483.000000)">
                <path d="M59.4501115,42.5081103 L57.3532076,44.6190791 L51.9549157,39.1859999 C51.4042137,38.6301826 50.510382,38.6301826 49.9582679,39.1859999 C49.4075659,39.7418173 49.4075659,40.6416444 49.9582679,41.1960402 L55.3565598,46.6291194 L52.1003576,49.9071625 L46.8588039,44.6304513 C46.3066899,44.0760555 45.4142702,44.0760555 44.8621561,44.6304513 C44.310042,45.1862687 44.310042,46.0860958 44.8621561,46.6404916 L50.1037097,51.9172027 L46.8220905,55.2222548 L41.4237986,49.7877541 C40.8730966,49.2319368 39.9792648,49.2319368 39.4271508,49.7877541 C38.8764487,50.3435715 38.8764487,51.2433986 39.4271508,51.7977944 L44.8254426,57.2322951 L42.2554999,59.8180542 C41.2995376,60.78185 39.6276628,60.78185 38.6702885,59.8180542 L35.6710805,56.7987291 C36.6439875,54.5072264 36.2147223,51.7523055 34.3606921,49.8858395 L18.4129264,33.8311048 C17.2352713,32.6455506 15.6678886,31.9916478 14.003074,31.9916478 C13.0711168,31.9916478 12.1786971,32.2162492 11.3582923,32.6057478 L7.2958058,28.2331284 C7.1531881,28.0881325 7.07411294,27.8962263 7.07411294,27.6929478 C7.07411294,27.4896693 7.1531881,27.2977631 7.2958058,27.1527672 L27.0024659,7.31534704 C27.2891133,7.0267769 27.7875693,7.02535537 28.0742167,7.31392551 L32.0039699,11.2700373 L23.2944056,20.0380207 C20.9179146,22.4304519 20.9179146,26.3240165 23.2944056,28.7164478 C25.6708966,31.1088791 29.5371072,31.1088791 31.9150103,28.7164478 L40.0879932,20.488645 C40.3746406,20.2000749 40.8745086,20.2000749 41.1611561,20.488645 L59.4501115,38.9002728 C59.9287986,39.3821708 60.1928532,40.0218583 60.1928532,40.7041916 C60.1928532,41.3851034 59.9287986,42.0262124 59.4501115,42.5081103 L59.4501115,42.5081103 Z M28.7477677,60.4008805 C28.4244067,60.7264104 27.9951416,60.9069444 27.5362232,60.9069444 C27.0787169,60.9069444 26.6494518,60.7278319 26.3260908,60.4023021 L24.3139104,58.376625 L31.4617402,50.9889451 L32.3640443,51.8958798 C33.6942015,53.234959 33.6942015,55.4127396 32.3654564,56.7518187 L28.7477677,60.4008805 Z M16.6704487,50.6818951 L12.8084743,46.7925951 L19.9563041,39.4049152 L23.8196906,43.2942152 L16.6704487,50.6818951 Z M18.6670965,52.6919354 L25.8149264,45.3042555 L29.4650924,48.9774833 L22.3158505,56.3651632 L18.6670965,52.6919354 Z M7.96935674,39.4859423 L11.5898695,35.841145 C12.8790771,34.5432902 15.1256589,34.5418687 16.4148665,35.841145 L17.9582442,37.3948749 L10.8104144,44.7825548 L7.96935674,41.9224409 C7.30286609,41.2500583 7.30286609,40.1583249 7.96935674,39.4859423 L7.96935674,39.4859423 Z M39.9270187,7.31534704 C40.2221385,7.0168262 40.7050619,7.0168262 41.0001817,7.31392551 L60.7068417,27.1527672 C61.0019615,27.4512881 61.0019615,27.9360291 60.7068417,28.2331284 L56.7756765,32.1878186 L43.1578039,18.4786047 C42.4814289,17.7976929 41.583361,17.4224096 40.6245746,17.4224096 C39.6672004,17.4224096 38.7691324,17.7962714 38.0913453,18.4786047 L29.9183625,26.7064075 C28.6418634,27.9914686 26.5675525,27.9914686 25.2910534,26.7064075 C24.0145544,25.4227679 24.0145544,23.3331221 25.2910534,22.048061 L34.9989417,12.2750575 L35.0003537,12.2750575 C35.0003537,12.2750575 35.0003537,12.2750575 35.0003537,12.2736359 L39.9270187,7.31534704 Z M58.7737364,34.1978589 L62.7049016,30.2431686 C64.0986014,28.8358561 64.0986014,26.5486179 62.7034896,25.142727 L42.9968295,5.30388523 C41.5974815,3.89799425 39.3254827,3.89941578 37.9303709,5.30388523 L34.0006177,9.25999705 L30.0708646,5.30388523 C28.7209386,3.94490467 26.3599802,3.94064008 25.004406,5.30388523 L5.29915796,25.142727 C4.62278291,25.8236388 4.25,26.729152 4.25,27.6929478 C4.25,28.6553221 4.62278291,29.5622568 5.26668066,30.209052 L9.0961778,34.3314825 L5.97270889,37.475902 C4.20481419,39.2556548 4.20481419,42.1527284 5.97270889,43.9324812 L24.329443,62.4123424 C25.1851492,63.2752097 26.3246788,63.75 27.5362232,63.75 L27.5376353,63.75 C28.7520038,63.7485785 29.8901214,63.2737882 30.7472396,62.4094993 L33.9963816,59.1328778 L36.6736406,61.8280944 C37.6860851,62.8473299 39.0317749,63.4088333 40.4636002,63.4088333 C41.8940134,63.4088333 43.2411153,62.8473299 44.2521477,61.8280944 L61.4467593,44.5181506 C62.4592038,43.5003367 63.0169661,42.1456208 63.0169661,40.7041916 C63.0169661,39.2627624 62.4592038,37.9080464 61.4467593,36.8902326 L58.7737364,34.1978589 Z"></path>
            </g>
        </g>
    </g>
</svg>