<?xml version="1.0" encoding="UTF-8" standalone="no"?>
<svg width="48px" height="48px" viewBox="0 0 48 48" version="1.1" xmlns="http://www.w3.org/2000/svg" xmlns:xlink="http://www.w3.org/1999/xlink">
    <!-- Generator: sketchtool 3.6.1 (26313) - http://www.bohemiancoding.com/sketch -->
    <title>ic_publish</title>
    <desc>Created with sketchtool.</desc>
    <defs></defs>
    <g id="-Stylesheet-+-Mobile" stroke="none" stroke-width="1" fill="none" fill-rule="evenodd" stroke-linecap="round" stroke-linejoin="round">
        <g id="Assets" transform="translate(-149.000000, -477.000000)" stroke="#169BD7" stroke-width="2">
            <g id="ic_publish" transform="translate(149.000000, 477.000000)">
                <g transform="translate(2.000000, 9.000000)">
                    <path d="M30.4521067,26.8485 L37.3532622,26.8485 C40.9221511,26.8485 43.8153956,23.9055 43.8153956,20.2555 C43.8153956,16.9115 41.3836622,14.1085 38.2322844,13.6695 C38.23424,13.5745 38.2459733,13.5125 38.2459733,13.4175 C38.2459733,5.9985 32.3656178,-0.0005 25.1124622,-0.0005 C20.16784,-0.0005 15.8656178,2.8055 13.6245511,6.9335 C12.9596622,6.6975 12.2488178,6.5665 11.5057067,6.5665 C7.93681778,6.5665 5.04357333,9.5275 5.04357333,13.1775 C5.04357333,13.3935 5.05530667,13.6075 5.07486222,13.8185 C2.17379556,14.4675 0.000195555556,17.0925 0.000195555556,20.2555 C0.000195555556,23.9055 2.89344,26.8485 6.46232889,26.8485 L15.78544,26.8485" id="Stroke-1"></path>
                    <path d="M19.9476444,29.9968 L19.9476444,17.3168" id="Stroke-3"></path>
                    <path d="M26.1468533,17.3165 L26.1468533,29.9965" id="Stroke-5"></path>
                    <path d="M15.2004356,22.0154 L23.0754578,13.9604 L30.9514578,22.0154" id="Stroke-7"></path>
                </g>
            </g>
        </g>
    </g>
</svg>