<?xml version="1.0" encoding="UTF-8" standalone="no"?>
<svg width="24px" height="24px" viewBox="0 0 24 24" version="1.1" xmlns="http://www.w3.org/2000/svg" xmlns:xlink="http://www.w3.org/1999/xlink" xmlns:sketch="http://www.bohemiancoding.com/sketch/ns">
    <!-- Generator: sketchtool 3.4.4 (395) - http://www.bohemiancoding.com/sketch -->
    <title>share-square-o - fontawesome</title>
    <desc>Created with sketchtool.</desc>
    <defs></defs>
    <g id="-Stylesheet-+-Mobile" stroke="none" stroke-width="1" fill="none" fill-rule="evenodd" sketch:type="MSPage">
        <g id="Assets" sketch:type="MSArtboardGroup" transform="translate(-311.000000, -556.000000)" fill="#B7C9D3">
            <g id="ic_view_in_raw" sketch:type="MSLayerGroup" transform="translate(311.000000, 556.000000)">
                <path d="M18.1428571,13.9341518 L18.1428571,16.5357143 C18.1428571,17.3325933 17.8599359,18.0139481 17.2940848,18.5797991 C16.7282338,19.1456502 16.046879,19.4285714 15.25,19.4285714 L6.89285714,19.4285714 C6.09597816,19.4285714 5.41462336,19.1456502 4.84877232,18.5797991 C4.28292128,18.0139481 4,17.3325933 4,16.5357143 L4,8.17857143 C4,7.38169244 4.28292128,6.70033765 4.84877232,6.13448661 C5.41462336,5.56863556 6.09597816,5.28571429 6.89285714,5.28571429 L9.45424107,5.28571429 C9.54129508,5.28571429 9.61662915,5.317522 9.68024554,5.38113839 C9.74386193,5.44475478 9.77566964,5.52008885 9.77566964,5.60714286 C9.77566964,5.78794733 9.68861694,5.89508912 9.51450893,5.92857143 C8.99888135,6.10267944 8.5535733,6.30357029 8.17857143,6.53125 C8.11160681,6.55803585 8.05803592,6.57142857 8.01785714,6.57142857 L6.89285714,6.57142857 C6.45089065,6.57142857 6.07254622,6.72879307 5.7578125,7.04352679 C5.44307878,7.3582605 5.28571429,7.73660493 5.28571429,8.17857143 L5.28571429,16.5357143 C5.28571429,16.9776808 5.44307878,17.3560252 5.7578125,17.6707589 C6.07254622,17.9854926 6.45089065,18.1428571 6.89285714,18.1428571 L15.25,18.1428571 C15.6919665,18.1428571 16.0703109,17.9854926 16.3850446,17.6707589 C16.6997784,17.3560252 16.8571429,16.9776808 16.8571429,16.5357143 L16.8571429,14.3861607 C16.8571429,14.2589279 16.9174101,14.1618307 17.0379464,14.0948661 C17.2254474,14.0078121 17.4062491,13.8839294 17.5803571,13.7232143 C17.6875005,13.6160709 17.8046869,13.5892854 17.9319196,13.6428571 C18.0725453,13.7031253 18.1428571,13.8002225 18.1428571,13.9341518 L18.1428571,13.9341518 Z M20.5234375,8.95200893 L16.6662946,12.8091518 C16.5457583,12.9363846 16.3950902,13 16.2142857,13 C16.1339282,13 16.0502236,12.9832591 15.9631696,12.9497768 C15.7020076,12.8359369 15.5714286,12.6383943 15.5714286,12.3571429 L15.5714286,10.4285714 L13.9642857,10.4285714 C11.8013285,10.4285714 10.3348253,10.8671831 9.56473214,11.7444196 C8.76785316,12.6618349 8.52008778,14.2455245 8.82142857,16.4955357 C8.84151796,16.6495543 8.77455434,16.7633925 8.62053571,16.8370536 C8.56696402,16.8504465 8.52678585,16.8571429 8.5,16.8571429 C8.39285661,16.8571429 8.30580391,16.8136165 8.23883929,16.7265625 C8.17187467,16.632812 8.10156287,16.5290184 8.02790179,16.4151786 C7.9542407,16.3013387 7.82198756,16.0719883 7.63113839,15.7271205 C7.44028922,15.3822527 7.27455427,15.0491087 7.13392857,14.7276786 C6.99330287,14.4062484 6.86439791,14.0245558 6.74720982,13.5825893 C6.63002174,13.1406228 6.57142857,12.7321447 6.57142857,12.3571429 C6.57142857,12.0290162 6.5831472,11.7243318 6.60658482,11.4430804 C6.63002244,11.161829 6.67689697,10.8604927 6.74720982,10.5390625 C6.81752267,10.2176323 6.91127174,9.92299241 7.02845982,9.65513393 C7.14564791,9.38727545 7.30301241,9.11439871 7.50055804,8.83649554 C7.69810367,8.55859236 7.92745405,8.31082698 8.18861607,8.09319196 C8.44977809,7.87555695 8.76618118,7.66964383 9.13783482,7.47544643 C9.50948847,7.28124903 9.92633698,7.11886226 10.3883929,6.98828125 C10.8504487,6.85770024 11.3844836,6.75558073 11.9905134,6.68191964 C12.5965432,6.60825856 13.2544607,6.57142857 13.9642857,6.57142857 L15.5714286,6.57142857 L15.5714286,4.64285714 C15.5714286,4.36160574 15.7020076,4.16406307 15.9631696,4.05022321 C16.0502236,4.0167409 16.1339282,4 16.2142857,4 C16.3883937,4 16.5390619,4.06361544 16.6662946,4.19084821 L20.5234375,8.04799107 C20.6506703,8.17522385 20.7142857,8.32589199 20.7142857,8.5 C20.7142857,8.67410801 20.6506703,8.82477615 20.5234375,8.95200893 L20.5234375,8.95200893 Z" id="share-square-o---fontawesome" sketch:type="MSShapeGroup"></path>
            </g>
        </g>
    </g>
</svg>