<?xml version="1.0" encoding="UTF-8" standalone="no"?>
<svg width="68px" height="68px" viewBox="0 0 68 68" version="1.1" xmlns="http://www.w3.org/2000/svg" xmlns:xlink="http://www.w3.org/1999/xlink">
    <!-- Generator: sketchtool 39.1 (31720) - http://www.bohemiancoding.com/sketch -->
    <title>E95E9CBF-0BFE-46E6-AFE1-73426C72EB55</title>
    <desc>Created with sketchtool.</desc>
    <defs></defs>
    <g id="2.x-Products-Landing" stroke="none" stroke-width="1" fill="none" fill-rule="evenodd">
        <g id="2.1.1-Products-Landing-Desktop" transform="translate(-686.000000, -1073.000000)" fill="#009CDE">
            <g id="ic_search_big" transform="translate(686.000000, 1073.000000)">
                <path d="M6.83333333,28.0833333 C6.83333333,16.3660833 16.3660833,6.83333333 28.0833333,6.83333333 C39.8005833,6.83333333 49.3333333,16.3660833 49.3333333,28.0833333 C49.3333333,39.8005833 39.8005833,49.3333333 28.0833333,49.3333333 C16.3660833,49.3333333 6.83333333,39.8005833 6.83333333,28.0833333 M46.058,44.05625 C49.84475,39.8005833 52.1666667,34.2146667 52.1666667,28.0833333 C52.1666667,14.8035 41.3631667,4 28.0833333,4 C14.8035,4 4,14.8035 4,28.0833333 C4,41.3631667 14.8035,52.1666667 28.0833333,52.1666667 C34.21325,52.1666667 39.7991667,49.84475 44.0548333,46.0594167 L61.58175,63.5863333 C61.858,63.8625833 62.2206667,64 62.5833333,64 C62.946,64 63.3086667,63.8625833 63.5849167,63.5863333 C64.1388333,63.0324167 64.1388333,62.1356667 63.5849167,61.58175 L46.058,44.05625 Z"></path>
            </g>
        </g>
    </g>
</svg>