<?xml version="1.0" encoding="UTF-8" standalone="no"?>
<svg width="15px" height="10px" viewBox="0 0 15 10" version="1.1" xmlns="http://www.w3.org/2000/svg" xmlns:xlink="http://www.w3.org/1999/xlink" xmlns:sketch="http://www.bohemiancoding.com/sketch/ns">
    <!-- Generator: sketchtool 3.5.2 (25235) - http://www.bohemiancoding.com/sketch -->
    <title>ic_shevron_down</title>
    <desc>Created with sketchtool.</desc>
    <defs></defs>
    <g id="-Stylesheet-+-Mobile" stroke="none" stroke-width="1" fill="none" fill-rule="evenodd" sketch:type="MSPage">
        <g id="Assets" sketch:type="MSArtboardGroup" transform="translate(-105.000000, -607.000000)" fill="#009CDE">
            <g id="ic_shevron_down" sketch:type="MSLayerGroup" transform="translate(105.000000, 607.000000)">
                <path d="M14.2232143,2.45535714 L7.59821429,9.07142857 C7.48511848,9.18452438 7.35119125,9.24107143 7.19642857,9.24107143 C7.04166589,9.24107143 6.90773866,9.18452438 6.79464286,9.07142857 L0.169642857,2.45535714 C0.0565470536,2.34226134 0,2.20684603 0,2.04910714 C0,1.89136826 0.0565470536,1.75595295 0.169642857,1.64285714 L1.65178571,0.169642857 C1.76488152,0.0565470536 1.89880875,0 2.05357143,0 C2.20833411,0 2.34226134,0.0565470536 2.45535714,0.169642857 L7.19642857,4.91071429 L11.9375,0.169642857 C12.0505958,0.0565470536 12.184523,0 12.3392857,0 C12.4940484,0 12.6279756,0.0565470536 12.7410714,0.169642857 L14.2232143,1.64285714 C14.3363101,1.75595295 14.3928571,1.89136826 14.3928571,2.04910714 C14.3928571,2.20684603 14.3363101,2.34226134 14.2232143,2.45535714 L14.2232143,2.45535714 Z" sketch:type="MSShapeGroup"></path>
            </g>
        </g>
    </g>
</svg>