<?xml version="1.0" encoding="UTF-8" standalone="no"?>
<svg width="68px" height="68px" viewBox="0 0 68 68" version="1.1" xmlns="http://www.w3.org/2000/svg" xmlns:xlink="http://www.w3.org/1999/xlink">
    <!-- Generator: sketchtool 39.1 (31720) - http://www.bohemiancoding.com/sketch -->
    <title>2CDACFE3-BAD8-42BE-8474-DED09E384FA3</title>
    <desc>Created with sketchtool.</desc>
    <defs></defs>
    <g id="2.x-Products-Landing" stroke="none" stroke-width="1" fill="none" fill-rule="evenodd">
        <g id="2.1.1-Products-Landing-Desktop" transform="translate(-686.000000, -1875.000000)" fill="#009CDE">
            <g id="ic_seasons" transform="translate(686.000000, 1875.000000)">
                <path d="M32,52 L36,52 L36,48 L32,48 L32,52 Z M36.6666667,46 L31.3333333,46 C30.596,46 30,46.596 30,47.3333333 L30,52.6666667 C30,53.404 30.596,54 31.3333333,54 L36.6666667,54 C37.404,54 38,53.404 38,52.6666667 L38,47.3333333 C38,46.596 37.404,46 36.6666667,46 L36.6666667,46 Z M19,52 L23,52 L23,48 L19,48 L19,52 Z M23.6666667,46 L18.3333333,46 C17.596,46 17,46.596 17,47.3333333 L17,52.6666667 C17,53.404 17.596,54 18.3333333,54 L23.6666667,54 C24.404,54 25,53.404 25,52.6666667 L25,47.3333333 C25,46.596 24.404,46 23.6666667,46 L23.6666667,46 Z M45,39 L49,39 L49,35 L45,35 L45,39 Z M49.6666667,33 L44.3333333,33 C43.596,33 43,33.596 43,34.3333333 L43,39.6666667 C43,40.404 43.596,41 44.3333333,41 L49.6666667,41 C50.404,41 51,40.404 51,39.6666667 L51,34.3333333 C51,33.596 50.404,33 49.6666667,33 L49.6666667,33 Z M32,39 L36,39 L36,35 L32,35 L32,39 Z M36.6666667,33 L31.3333333,33 C30.596,33 30,33.596 30,34.3333333 L30,39.6666667 C30,40.404 30.596,41 31.3333333,41 L36.6666667,41 C37.404,41 38,40.404 38,39.6666667 L38,34.3333333 C38,33.596 37.404,33 36.6666667,33 L36.6666667,33 Z M19,39 L23,39 L23,35 L19,35 L19,39 Z M23.6666667,33 L18.3333333,33 C17.596,33 17,33.596 17,34.3333333 L17,39.6666667 C17,40.404 17.596,41 18.3333333,41 L23.6666667,41 C24.404,41 25,40.404 25,39.6666667 L25,34.3333333 C25,33.596 24.404,33 23.6666667,33 L23.6666667,33 Z M45,26 L49,26 L49,22 L45,22 L45,26 Z M49.6666667,20 L44.3333333,20 C43.596,20 43,20.596 43,21.3333333 L43,26.6666667 C43,27.404 43.596,28 44.3333333,28 L49.6666667,28 C50.404,28 51,27.404 51,26.6666667 L51,21.3333333 C51,20.596 50.404,20 49.6666667,20 L49.6666667,20 Z M32,26 L36,26 L36,22 L32,22 L32,26 Z M36.6666667,20 L31.3333333,20 C30.596,20 30,20.596 30,21.3333333 L30,26.6666667 C30,27.404 30.596,28 31.3333333,28 L36.6666667,28 C37.404,28 38,27.404 38,26.6666667 L38,21.3333333 C38,20.596 37.404,20 36.6666667,20 L36.6666667,20 Z M19,26 L23,26 L23,22 L19,22 L19,26 Z M23.6666667,20 L18.3333333,20 C17.596,20 17,20.596 17,21.3333333 L17,26.6666667 C17,27.404 17.596,28 18.3333333,28 L23.6666667,28 C24.404,28 25,27.404 25,26.6666667 L25,21.3333333 C25,20.596 24.404,20 23.6666667,20 L23.6666667,20 Z M58,58.5625 C58,59.356 57.3675294,60 56.5882353,60 L11.4117647,60 C10.6324706,60 10,59.356 10,58.5625 L10,15.4375 C10,14.644 10.6324706,14 11.4117647,14 L56.5882353,14 C57.3675294,14 58,14.644 58,15.4375 L58,58.5625 Z M51.9781494,11.1064014 L51.9781495,6.45 C51.9781495,5.64815 51.3429389,5 50.5570968,5 C49.7712547,5 49.1360442,5.64815 49.1360442,6.45 L49.1360442,11.1064014 L43.9473684,11.1064014 L43.9473684,6.45 C43.9473684,5.64815 43.3121579,5 42.5263158,5 C41.7404737,5 41.1052632,5.64815 41.1052632,6.45 L41.1052631,11.1064014 L35.4210526,11.1064014 L35.4210526,6.45 C35.4210526,5.64815 34.7858421,5 34,5 C33.2141579,5 32.5789474,5.64815 32.5789474,6.45 L32.5789473,11.1064014 L26.8947368,11.1064014 L26.8947368,6.45 C26.8947368,5.64815 26.2595263,5 25.4736842,5 C24.6878421,5 24.0526316,5.64815 24.0526316,6.45 L24.0526315,11.1064014 L18.8106441,11.1064014 L18.8106442,6.45 C18.8106442,5.64815 18.1754337,5 17.3895916,5 C16.6037495,5 15.9685389,5.64815 15.9685389,6.45 L15.9685389,11.1064014 L11.2631578,11.1064014 C8.91273679,11.1064014 7,12.7517 7,15.15 L7,58.65 C7,61.0483 8.91273684,63 11.2631579,63 L56.7368421,63 C59.0872632,63 61,61.0483 61,58.65 L61,15.15 C61,12.7517 59.0872631,11.1064014 56.7368421,11.1064014 L51.9781494,11.1064014 Z"></path>
            </g>
        </g>
    </g>
</svg>