<?xml version="1.0" encoding="UTF-8" standalone="no"?>
<svg width="109px" height="102px" viewBox="0 0 109 102" version="1.1" xmlns="http://www.w3.org/2000/svg" xmlns:xlink="http://www.w3.org/1999/xlink">
    <!-- Generator: sketchtool 39.1 (31720) - http://www.bohemiancoding.com/sketch -->
    <title>87D02DC7-CF0A-4075-B691-7AF9A71E58DA</title>
    <desc>Created with sketchtool.</desc>
    <defs></defs>
    <g id="2.x-Products-Landing" stroke="none" stroke-width="1" fill="none" fill-rule="evenodd">
        <g id="2.6.2-Products+SDKs-Desktop" transform="translate(-426.000000, -478.000000)">
            <g id="sdk_java_img" transform="translate(343.000000, 400.000000)">
                <g id="ic_sdk_java" transform="translate(64.243346, 71.269962)">
                    <path d="M61.0138754,66.9055604 C61.0138754,63.1477363 59.6844764,59.9394534 57.0256386,57.2806156 C54.3668007,54.6217777 51.1585179,53.2923787 47.4006937,53.2923787 C43.6428696,53.2923787 40.4345867,54.6217777 37.7757489,57.2806156 C35.116911,59.9394534 33.7875121,63.1477363 33.7875121,66.9055604 C33.7875121,70.6633845 35.116911,73.8716674 37.7757489,76.5305052 C40.4345867,79.1893431 43.6428696,80.518742 47.4006937,80.518742 C51.1585179,80.518742 54.3668007,79.1893431 57.0256386,76.5305052 C59.6844764,73.8716674 61.0138754,70.6633845 61.0138754,66.9055604 L61.0138754,66.9055604 Z M101.85342,39.6791971 C101.85342,37.8357362 101.179858,36.2404574 99.8327137,34.8933129 C98.4855692,33.5461684 96.8902904,32.8726063 95.0468295,32.8726063 C93.2033686,32.8726063 91.6080899,33.5461684 90.2609453,34.8933129 C88.9138008,36.2404574 88.2402387,37.8357362 88.2402387,39.6791971 C88.2402387,41.5581092 88.9049382,43.1622506 90.2343571,44.4916695 C91.563776,45.8210884 93.1679175,46.4857879 95.0468295,46.4857879 C96.9257416,46.4857879 98.529883,45.8210884 99.8593019,44.4916695 C101.188721,43.1622506 101.85342,41.5581092 101.85342,39.6791971 L101.85342,39.6791971 Z M81.4336479,62.0664997 L81.4336479,71.9041505 C81.4336479,72.2586622 81.3095706,72.604306 81.0614124,72.9410921 C80.8132542,73.2778782 80.5296491,73.4639941 80.2105886,73.4994453 L71.9682325,74.775681 C71.5782696,76.016472 71.0110594,77.3635963 70.2665848,78.8170943 C71.4719246,80.5187506 73.0672034,82.5571623 75.052469,84.9323908 C75.3006272,85.2869025 75.4247044,85.6414089 75.4247044,85.9959206 C75.4247044,86.4213347 75.3006272,86.7581157 75.052469,87.0062739 C74.237092,88.0698091 72.7747532,89.6562252 70.6654085,91.7655699 C68.5560638,93.8749145 67.1646262,94.9295711 66.4910539,94.9295711 C66.1010911,94.9295711 65.7288593,94.8054938 65.3743476,94.5573356 L59.2590512,89.7714515 C57.9473579,90.4450237 56.5825082,90.9945086 55.1644614,91.4199227 C54.7744985,95.2486492 54.3668162,97.9960737 53.9414021,99.6622788 C53.6932439,100.513107 53.1614843,100.938515 52.3461074,100.938515 L42.4552801,100.938515 C42.0653172,100.938515 41.7108108,100.805575 41.3917503,100.539691 C41.0726897,100.273807 40.8954365,99.963614 40.8599854,99.6091023 L39.6369261,91.4730992 C38.4315862,91.1185875 37.1021873,90.5691025 35.6486893,89.8246279 L29.3738633,94.5573356 C29.1257051,94.8054938 28.7711987,94.9295711 28.3103335,94.9295711 C27.9203706,94.9295711 27.5481389,94.7877685 27.1936272,94.5041591 C22.0886586,89.7891534 19.5362125,86.9531022 19.5362125,85.9959206 C19.5362125,85.6768601 19.6602898,85.340079 19.908448,84.9855673 C20.2629597,84.4892509 20.9896978,83.5498089 22.0886841,82.1672133 C23.1876704,80.7846176 24.0207604,79.7033731 24.5879792,78.9234473 C23.7726022,77.3635958 23.152216,75.9101196 22.726802,74.5629751 L14.6439754,73.2867393 C14.2894637,73.2512881 13.9881332,73.0828976 13.739975,72.7815626 C13.4918168,72.4802277 13.3677396,72.1345839 13.3677396,71.7446211 L13.3677396,61.9069703 C13.3677396,61.5524585 13.4918168,61.2068148 13.739975,60.8700287 C13.9881332,60.5332426 14.2717383,60.3471267 14.5907989,60.3116755 L22.833155,59.0354397 C23.2231178,57.7946488 23.7903281,56.4475245 24.5348027,54.9940264 C23.3294628,53.2923702 21.7341841,51.2539585 19.7489185,48.87873 C19.5007603,48.4887671 19.3766831,48.1342607 19.3766831,47.8152002 C19.3766831,47.3897861 19.5007603,47.0352797 19.7489185,46.7516704 C20.5288443,45.6881352 21.9823205,44.1105818 24.1093907,42.0189627 C26.236461,39.9273436 27.6367613,38.8815497 28.3103335,38.8815497 C28.7002964,38.8815497 29.0725281,39.005627 29.4270398,39.2537852 L35.5423363,44.0396693 C36.7476761,43.4015482 38.1125257,42.834338 39.6369261,42.3380216 C40.0268889,38.5092951 40.4345713,35.7795959 40.8599854,34.148842 C41.1081436,33.2980139 41.6399031,32.8726063 42.4552801,32.8726063 L52.3461074,32.8726063 C52.7360703,32.8726063 53.0905767,33.0055462 53.4096372,33.2714299 C53.7286977,33.5373137 53.9059509,33.8475068 53.9414021,34.2020185 L55.1644614,42.3380216 C56.3698012,42.6925333 57.6992002,43.2420182 59.1526982,43.9864928 L65.4275241,39.2537852 C65.7111335,39.005627 66.0656399,38.8815497 66.4910539,38.8815497 C66.8810168,38.8815497 67.2532485,39.0233523 67.6077602,39.3069616 C72.7127289,44.0219674 75.2651749,46.8580186 75.2651749,47.8152002 C75.2651749,48.1342607 75.1410977,48.4710418 74.8929395,48.8255535 C74.4675254,49.3927722 73.723062,50.3499395 72.6595269,51.697084 C71.5959917,53.0442285 70.7983524,54.1077477 70.2665848,54.8876735 C71.0819617,56.5893297 71.6846226,58.0428059 72.0745855,59.2481457 L80.1574121,60.471205 C80.5119238,60.5421073 80.8132542,60.7282232 81.0614124,61.0295582 C81.3095706,61.3308931 81.4336479,61.6765368 81.4336479,62.0664997 L81.4336479,62.0664997 Z M115.466602,35.9568427 L115.466602,43.4015514 C115.466602,43.9687702 112.825529,44.5182551 107.543305,45.0500227 C107.117891,46.0072043 106.586131,46.9289209 105.94801,47.8152002 C107.75602,51.8211825 108.660011,54.2672766 108.660011,55.1535559 C108.660011,55.2953606 108.58911,55.4194378 108.447305,55.5257914 C104.122262,58.0428245 101.924323,59.3013222 101.85342,59.3013222 C101.569811,59.3013222 100.754446,58.4682322 99.4073018,56.8020271 C98.0601573,55.1358221 97.1384406,53.9305003 96.6421243,53.1860258 C95.9331008,53.2569281 95.4013412,53.2923787 95.0468295,53.2923787 C94.6923178,53.2923787 94.1605582,53.2569281 93.4515348,53.1860258 C92.9552184,53.9305003 92.0335018,55.1358221 90.6863573,56.8020271 C89.3392128,58.4682322 88.5238481,59.3013222 88.2402387,59.3013222 C88.1693364,59.3013222 85.9713967,58.0428245 81.6463538,55.5257914 C81.5045491,55.4194378 81.4336479,55.2953606 81.4336479,55.1535559 C81.4336479,54.2672766 82.3376392,51.8211825 84.1456489,47.8152002 C83.5075278,46.9289209 82.9757682,46.0072043 82.5503542,45.0500227 C77.2681297,44.5182551 74.627057,43.9687702 74.627057,43.4015514 L74.627057,35.9568427 C74.627057,35.389624 77.2681297,34.8401391 82.5503542,34.3083715 C83.0112194,33.2802875 83.542979,32.3585709 84.1456489,31.543194 C82.3376392,27.5372116 81.4336479,25.0911175 81.4336479,24.2048382 C81.4336479,24.0630336 81.5045491,23.9389563 81.6463538,23.8326028 C81.7881585,23.7617005 82.4085447,23.4071941 83.507531,22.769073 C84.6065173,22.1309519 85.6523112,21.528291 86.644944,20.9610723 C87.6375768,20.3938536 88.1693364,20.1102484 88.2402387,20.1102484 C88.5238481,20.1102484 89.3392128,20.9344758 90.6863573,22.5829553 C92.0335018,24.2314347 92.9552184,25.4278938 93.4515348,26.1723684 C94.1605582,26.1014661 94.6923178,26.0660154 95.0468295,26.0660154 C95.4013412,26.0660154 95.9331008,26.1014661 96.6421243,26.1723684 C98.450134,23.6553353 100.080863,21.6700994 101.534361,20.2166014 L101.85342,20.1102484 C101.995225,20.1102484 104.193165,21.3510208 108.447305,23.8326028 C108.58911,23.9389563 108.660011,24.0630336 108.660011,24.2048382 C108.660011,25.0911175 107.75602,27.5372116 105.94801,31.543194 C106.55068,32.3585709 107.08244,33.2802875 107.543305,34.3083715 C112.825529,34.8401391 115.466602,35.389624 115.466602,35.9568427 L115.466602,35.9568427 Z" id="" fill="#5F8AA5" transform="translate(64.417171, 60.524381) rotate(-30.000000) translate(-64.417171, -60.524381) "></path>
                    <path d="M114.566889,74.3109753 C114.566889,72.4675144 113.893327,70.8722356 112.546183,69.5250911 C111.199038,68.1779466 109.603759,67.5043845 107.760299,67.5043845 C105.916838,67.5043845 104.321559,68.1779466 102.974414,69.5250911 C101.62727,70.8722356 100.953708,72.4675144 100.953708,74.3109753 C100.953708,76.1898874 101.618407,77.7940288 102.947826,79.1234477 C104.277245,80.4528666 105.881387,81.1175661 107.760299,81.1175661 C109.639211,81.1175661 111.243352,80.4528666 112.572771,79.1234477 C113.90219,77.7940288 114.566889,76.1898874 114.566889,74.3109753 L114.566889,74.3109753 Z M128.180071,70.5886209 L128.180071,78.0333297 C128.180071,78.6005484 125.538998,79.1500333 120.256774,79.6818009 C119.83136,80.6389825 119.2996,81.5606991 118.661479,82.4469784 C120.469489,86.4529607 121.37348,88.8990549 121.37348,89.7853341 C121.37348,89.9271388 121.302579,90.0512161 121.160774,90.1575696 C116.835731,92.6746027 114.637792,93.9331004 114.566889,93.9331004 C114.28328,93.9331004 113.467915,93.1000104 112.120771,91.4338053 C110.773626,89.7676003 109.85191,88.5622786 109.355593,87.817804 C108.64657,87.8887063 108.11481,87.924157 107.760299,87.924157 C107.405787,87.924157 106.874027,87.8887063 106.165004,87.817804 C105.668687,88.5622786 104.746971,89.7676003 103.399826,91.4338053 C102.052682,93.1000104 101.237317,93.9331004 100.953708,93.9331004 C100.882805,93.9331004 98.6848658,92.6746027 94.3598229,90.1575696 C94.2180182,90.0512161 94.1471169,89.9271388 94.1471169,89.7853341 C94.1471169,88.8990549 95.0511082,86.4529607 96.859118,82.4469784 C96.2209969,81.5606991 95.6892373,80.6389825 95.2638232,79.6818009 C89.9815987,79.1500333 87.3405261,78.6005484 87.3405261,78.0333297 L87.3405261,70.5886209 C87.3405261,70.0214022 89.9815987,69.4719173 95.2638232,68.9401497 C95.7246885,67.9120658 96.2564481,66.9903491 96.859118,66.1749722 C95.0511082,62.1689899 94.1471169,59.7228957 94.1471169,58.8366165 C94.1471169,58.6948118 94.2180182,58.5707345 94.3598229,58.464381 C94.5016276,58.3934787 95.1220138,58.0389723 96.2210001,57.4008512 C97.3199864,56.7627301 98.3657802,56.1600693 99.358413,55.5928505 C100.351046,55.0256318 100.882805,54.7420267 100.953708,54.7420267 C101.237317,54.7420267 102.052682,55.566254 103.399826,57.2147335 C104.746971,58.8632129 105.668687,60.059672 106.165004,60.8041466 C106.874027,60.7332443 107.405787,60.6977936 107.760299,60.6977936 C108.11481,60.6977936 108.64657,60.7332443 109.355593,60.8041466 C111.163603,58.2871135 112.794332,56.3018777 114.24783,54.8483796 L114.566889,54.7420267 C114.708694,54.7420267 116.906634,55.982799 121.160774,58.464381 C121.302579,58.5707345 121.37348,58.6948118 121.37348,58.8366165 C121.37348,59.7228957 120.469489,62.1689899 118.661479,66.1749722 C119.264149,66.9903491 119.795909,67.9120658 120.256774,68.9401497 C125.538998,69.4719173 128.180071,70.0214022 128.180071,70.5886209 L128.180071,70.5886209 Z" id="" fill="#EA9428" transform="translate(107.760299, 74.337564) rotate(-30.000000) translate(-107.760299, -74.337564) "></path>
                </g>
            </g>
        </g>
    </g>
</svg>