<?xml version="1.0" encoding="UTF-8" standalone="no"?>
<svg width="68px" height="68px" viewBox="0 0 68 68" version="1.1" xmlns="http://www.w3.org/2000/svg" xmlns:xlink="http://www.w3.org/1999/xlink">
    <!-- Generator: sketchtool 39.1 (31720) - http://www.bohemiancoding.com/sketch -->
    <title>11E0AADE-9508-40C5-84CF-FEC99E35103B</title>
    <desc>Created with sketchtool.</desc>
    <defs></defs>
    <g id="2.x-Products-Landing" stroke="none" stroke-width="1" fill="none" fill-rule="evenodd">
        <g id="2.1.1-Products-Landing-Desktop" transform="translate(-882.000000, -1483.000000)" fill="#009CDE">
            <g id="ic_top_picks" transform="translate(882.000000, 1483.000000)">
                <path d="M65.1666667,41.0757576 L65.1666667,48.1212121 C65.1666667,50.6110758 63.612583,51.9909684 61.3884163,51.9909684 L7.55508296,51.9909684 C5.08441629,51.9909684 2.83333333,50.3334848 2.83333333,48.1212121 L2.83333333,41.0757576 C2.83333333,40.2965303 2.20008333,39.6666667 1.41666667,39.6666667 C0.63325,39.6666667 0,40.2965303 0,41.0757576 L0,48.1212121 C0,51.8736212 3.5303328,55.0385911 7.5550828,55.0385911 L61.3884161,55.0385911 C65.1567495,55.0385911 68,52.1385303 68,48.1212121 L68,41.0757576 C68,40.2965303 67.36675,39.6666667 66.5833333,39.6666667 C65.7999167,39.6666667 65.1666667,40.2965303 65.1666667,41.0757576 Z M18.4919853,23.9065612 L18.4166667,20.5416667 C18.4166667,18.241 20.8065833,17 23.0548333,17 L28.6435833,17 C30.8904167,17 32.5833333,18.8275 32.5833333,21.25 L32.658652,23.9065612 C32.658652,24.6899779 33.291902,25.3232279 34.0753187,25.3232279 C34.8587353,25.3232279 35.4919853,24.6899779 35.4919853,23.9065612 L35.4166667,20.5416667 C35.4166667,18.241 37.8490833,17 40.1384167,17 L45.8050833,17 C47.2160833,17 49.5833333,17.4604167 49.5833333,20.5416667 L49.658652,23.9065612 C49.658652,24.6899779 50.291902,25.3232279 51.0753187,25.3232279 C51.8587353,25.3232279 52.4919853,24.6899779 52.4919853,23.9065612 L52.4166667,20.5416667 C52.4166667,16.6699167 49.8213336,14.003068 45.8050836,14.003068 L40.1384169,14.003068 C37.8023336,14.003068 35.3755833,15.0804167 33.9220833,16.8144167 C32.691,15.2036667 30.8125003,14.003068 28.6435836,14.003068 L23.0548336,14.003068 C19.4338336,14.003068 15.5833333,16.40075 15.5833333,20.5416667 L15.658652,23.9065612 C15.658652,24.6899779 16.291902,25.3232279 17.0753187,25.3232279 C17.8587353,25.3232279 18.4919853,24.6899779 18.4919853,23.9065612 Z M7.08333333,44.75 L7.08333333,35.5416667 C7.08333333,31.40075 10.9457544,29.1666667 14.5779649,29.1666667 L20.1840175,29.1666667 C22.4264386,29.1666667 24.3647544,30.2631667 25.5939649,31.96175 C26.973807,30.2759167 29.1949123,29.1666667 31.7144386,29.1666667 L37.3986491,29.1666667 C39.7476491,29.1666667 41.6930702,30.2603333 42.8583333,32.0184167 C44.2495439,30.3014167 46.4365439,29.1666667 48.8509123,29.1666667 L54.6147018,29.1666667 C58.6050175,29.1666667 61.0833333,31.6104167 61.0833333,35.5416667 L61.0833333,44.75 C61.0833333,45.5334167 60.4481228,46.1666667 59.6622807,46.1666667 C58.8764386,46.1666667 58.2412281,45.5334167 58.2412281,44.75 L58.2412281,35.5416667 C58.2412281,33.1914167 57.0219649,32 54.6147018,32 L48.8509123,32 C46.3455965,32 44.1486491,33.9861667 44.1486491,36.25 C44.1486491,36.44975 44.1060175,36.6381667 44.0307018,36.811 L44.0307018,44.75 C44.0307018,45.5334167 43.3954912,46.1666667 42.6096491,46.1666667 C41.823807,46.1666667 41.1885965,45.5334167 41.1885965,44.75 L41.1885965,36.0729167 C41.1885965,33.63625 39.6652281,32 37.3986491,32 L31.7144386,32 C29.4364912,32 26.9780702,33.4903333 26.9780702,35.8958333 L26.9780702,44.75 C26.9780702,45.5334167 26.3428596,46.1666667 25.5570175,46.1666667 C24.7711754,46.1666667 24.1359649,45.5334167 24.1359649,44.75 L24.1359649,36.25 C24.1359649,33.8275 22.437807,32 20.1840175,32 L14.5779649,32 C12.3227544,32 9.9254386,33.241 9.9254386,35.5416667 L9.9254386,44.75 C9.9254386,45.5334167 9.29022807,46.1666667 8.50438596,46.1666667 C7.71854386,46.1666667 7.08333333,45.5334167 7.08333333,44.75"></path>
            </g>
        </g>
    </g>
</svg>