<svg width="28" height="28" xmlns="http://www.w3.org/2000/svg">
 <!-- Generator: sketchtool 3.8.2 (29753) - http://www.bohemiancoding.com/sketch -->
 <title>879B6122-804C-4FBF-8B67-EE7D561A2885</title>
 <desc>Created with sketchtool.</desc>

 <g>
  <title>background</title>
  <rect fill="none" id="canvas_background" height="402" width="582" y="-1" x="-1"/>
 </g>
 <g>
  <title>Layer 1</title>
  <g fill-rule="evenodd" fill="none" id="-Stylesheet-+-Mobile">
   <g fill="#B7C9D3" id="Assets">
    <g id="ic_copy">
     <path fill="#ffffff" id="svg_1" d="m21,21l0,-10l-4,0l0,3.571c0,0.238 0.131,0.226 -0.036,0.393c-0.167,0.167 -0.155,0.036 -0.393,0.036l-3.571,0l0,6l8,0zm-6,-9.857l0,-4.143l-3,0l0,4c0,0.429 -0.588,1 -1,1l-4,0l0,6l5,0l0,-3c0,-0.435 0.154,-0.869 0.321,-1.035l2.679,-2.822zm-4,-3.143l-3,3l3,0l0,-3zm5,3.616l-2.384,2.384l2.384,0l0,-2.384zm5,-1.616c0.518,0 1,0.576 1,1l0,10c0,0.437 -0.422,1 -1,1l-8,0c-0.484,0 -1,-0.422 -1,-1l0,-2l-5,0c-0.484,0 -1,-0.594 -1,-1l0,-6c0,-0.547 0.224,-1.075 0.607,-1.464l3.643,-3.643c0.166,-0.166 0.75,-0.893 1.75,-0.893l3,0c0.424,0 1,0.506 1,1l0,3l5,0z"/>
    </g>
   </g>
  </g>
 </g>
</svg>