<svg width="13" height="13" xmlns="http://www.w3.org/2000/svg">
 <!-- Generator: sketchtool 3.8.2 (29753) - http://www.bohemiancoding.com/sketch -->
 <title>C86BFA53-4578-45D7-A59B-6A126231DC6A</title>
 <desc>Created with sketchtool.</desc>

 <g>
  <title>background</title>
  <rect fill="none" id="canvas_background" height="402" width="582" y="-1" x="-1"/>
 </g>
 <g>
  <title>Layer 1</title>
  <g fill-rule="evenodd" fill="none" id="-Stylesheet-+-Mobile">
   <g fill="#B7C9D3" id="Assets">
    <g id="ic_view_in_raw">
     <path fill="#ffffff" id="svg_1" d="m10.2061,6.499l-2.853,-2.853l-0.707,0.707l1.647,1.647l-8.293,0l0,1l8.293,0l-1.647,1.646l0.707,0.707l2.853,-2.854zm1.794,-5.499l0,11l-11,0l0,-2l-1,0l0,2c0,0.552 0.447,1 0.999,1l11.001,0c0.552,0 1,-0.448 1,-1l0,-11c0,-0.552 -0.448,-1 -1,-1l-11.001,0c-0.552,0 -0.999,0.447 -0.999,0.999l0,2.001l1,0l0,-2l11,0l0,0z"/>
    </g>
   </g>
  </g>
 </g>
</svg>