<?xml version="1.0" encoding="UTF-8" standalone="no"?>
<svg width="296px" height="23px" viewBox="0 0 296 23" version="1.1" xmlns="http://www.w3.org/2000/svg" xmlns:xlink="http://www.w3.org/1999/xlink" xmlns:sketch="http://www.bohemiancoding.com/sketch/ns">
    <!-- Generator: Sketch 3.5.2 (25235) - http://www.bohemiancoding.com/sketch -->
    <title>+- SWG</title>
    <desc>Created with Sketch.</desc>
    <defs></defs>
    <g id="-Stylesheet-+-Mobile" stroke="none" stroke-width="1" fill="none" fill-rule="evenodd" sketch:type="MSPage">
        <g id="Assets" sketch:type="MSArtboardGroup" transform="translate(-49.000000, -768.000000)">
            <g id="+--SWG" sketch:type="MSLayerGroup" transform="translate(49.000000, 768.000000)">
                <g id="+-hover" transform="translate(0.000000, 8.000000)" sketch:type="MSShapeGroup">
                    <rect id="Rectangle-537" fill="#2A7CC7" x="0" y="0" width="13" height="13" rx="2"></rect>
                    <path d="M3,6.5 L10,6.5 L3,6.5 Z" id="Line-Copy-7" stroke="#FFFFFF"></path>
                </g>
                <g id="+-hover" transform="translate(34.000000, 8.000000)" sketch:type="MSShapeGroup">
                    <rect id="Rectangle-537" fill="#2A7CC7" x="0" y="0" width="13" height="13" rx="2"></rect>
                    <path d="M7,3.31818182 L7,3 L6,3 L6,3.31818182 L6,9.68181818 L6,10 L7,10 L7,9.68181818 L7,3.31818182 Z" id="Shape" fill="#FFFFFF"></path>
                    <path d="M3,6.5 L10,6.5 L3,6.5 Z" id="Line-Copy-7" stroke="#FFFFFF"></path>
                </g>
                <rect id="Rectangle-94" fill="#DBE4E9" sketch:type="MSShapeGroup" x="71" y="0" width="1" height="23"></rect>
                <rect id="Rectangle-94-Copy" fill="#DBE4E9" sketch:type="MSShapeGroup" x="295" y="0" width="1" height="23"></rect>
                <g id="+" transform="translate(100.000000, 11.000000)" sketch:type="MSShapeGroup">
                    <path d="M4,6.68181818 L4,0.318181818 L4,0 L3,0 L3,0.318181818 L3,6.68181818 L3,7 L4,7 L4,6.68181818 L4,6.68181818 Z" id="Shape" fill="#414141"></path>
                    <path d="M0,3.5 L7,3.5 L0,3.5 Z" id="Line-Copy-7" stroke="#414141"></path>
                </g>
                <g id="-" transform="translate(132.000000, 13.000000)" stroke="#414141" sketch:type="MSShapeGroup">
                    <path d="M0,1.5 L7,1.5 L0,1.5 Z" id="Line-Copy-7"></path>
                </g>
            </g>
        </g>
    </g>
</svg>