<?xml version="1.0" encoding="UTF-8"?>
<svg width="166px" height="30px" viewBox="0 0 166 30" version="1.1" xmlns="http://www.w3.org/2000/svg" xmlns:xlink="http://www.w3.org/1999/xlink">
    <!-- Generator: sketchtool 40.3 (33839) - http://www.bohemiancoding.com/sketch -->
    <title>48524D2A-9880-4E74-8594-9FF3E77533CF</title>
    <desc>Created with sketchtool.</desc>
    <defs>
        <rect id="path-1" x="0" y="0" width="30" height="30" rx="4"></rect>
        <mask id="mask-2" maskContentUnits="userSpaceOnUse" maskUnits="objectBoundingBox" x="0" y="0" width="30" height="30" fill="white">
            <use xlink:href="#path-1"></use>
        </mask>
        <rect id="path-3" x="0" y="0" width="30" height="30" rx="4"></rect>
        <mask id="mask-4" maskContentUnits="userSpaceOnUse" maskUnits="objectBoundingBox" x="0" y="0" width="30" height="30" fill="white">
            <use xlink:href="#path-3"></use>
        </mask>
        <rect id="path-5" x="0" y="0" width="30" height="30" rx="4"></rect>
        <mask id="mask-6" maskContentUnits="userSpaceOnUse" maskUnits="objectBoundingBox" x="0" y="0" width="30" height="30" fill="white">
            <use xlink:href="#path-5"></use>
        </mask>
        <rect id="path-7" x="0" y="0" width="30" height="30" rx="4"></rect>
        <mask id="mask-8" maskContentUnits="userSpaceOnUse" maskUnits="objectBoundingBox" x="0" y="0" width="30" height="30" fill="white">
            <use xlink:href="#path-7"></use>
        </mask>
    </defs>
    <g id="Stylesheet-+-Mobile" stroke="none" stroke-width="1" fill="none" fill-rule="evenodd">
        <g id="Assets" transform="translate(-418.000000, -730.000000)">
            <g id="btn_chevron_sprite" transform="translate(418.000000, 730.000000)">
                <g id="btn_chevron_active_hover" transform="translate(90.000000, 0.000000)">
                    <use id="shape" stroke="#2A7CC7" mask="url(#mask-2)" stroke-width="4" xlink:href="#path-1"></use>
                    <path d="M15.3908189,19.8347826 C15.28081,19.9449281 15.1505384,20 15,20 C14.8494616,20 14.71919,19.9449281 14.6091811,19.8347826 L8.16501241,13.3913043 C8.05500359,13.2811589 8,13.1492761 8,12.9956522 C8,12.8420282 8.05500359,12.7101455 8.16501241,12.6 L9.60669975,11.1652174 C9.71670857,11.0550719 9.84698022,11 9.99751861,11 C10.148057,11 10.2783286,11.0550719 10.3883375,11.1652174 L15,15.7826087 L19.6116625,11.1652174 C19.7216714,11.0550719 19.851943,11 20.0024814,11 C20.1530198,11 20.2832914,11.0550719 20.3933002,11.1652174 L21.8349876,12.6 C21.9449964,12.7101455 22,12.8420282 22,12.9956522 C22,13.1492761 21.9449964,13.2811589 21.8349876,13.3913043 L15.3908189,19.8347826 Z" fill="#2A7CC7" transform="translate(15.000000, 15.500000) scale(1, -1) translate(-15.000000, -15.500000) "></path>
                </g>
                <g id="btn_chevron_active" transform="translate(60.000000, 0.000000)">
                    <use id="shape" stroke="#B7C9D3" mask="url(#mask-4)" stroke-width="4" xlink:href="#path-3"></use>
                    <path d="M15.3908189,19.8347826 C15.28081,19.9449281 15.1505384,20 15,20 C14.8494616,20 14.71919,19.9449281 14.6091811,19.8347826 L8.16501241,13.3913043 C8.05500359,13.2811589 8,13.1492761 8,12.9956522 C8,12.8420282 8.05500359,12.7101455 8.16501241,12.6 L9.60669975,11.1652174 C9.71670857,11.0550719 9.84698022,11 9.99751861,11 C10.148057,11 10.2783286,11.0550719 10.3883375,11.1652174 L15,15.7826087 L19.6116625,11.1652174 C19.7216714,11.0550719 19.851943,11 20.0024814,11 C20.1530198,11 20.2832914,11.0550719 20.3933002,11.1652174 L21.8349876,12.6 C21.9449964,12.7101455 22,12.8420282 22,12.9956522 C22,13.1492761 21.9449964,13.2811589 21.8349876,13.3913043 L15.3908189,19.8347826 Z" fill="#B7C9D3" transform="translate(15.000000, 15.500000) scale(1, -1) translate(-15.000000, -15.500000) "></path>
                </g>
                <g id="btn_chevron_normal_hover" transform="translate(30.000000, 0.000000)">
                    <use id="Shape" stroke="#2A7CC7" mask="url(#mask-6)" stroke-width="4" xlink:href="#path-5"></use>
                    <path d="M15.3908189,19.8347826 C15.28081,19.9449281 15.1505384,20 15,20 C14.8494616,20 14.71919,19.9449281 14.6091811,19.8347826 L8.16501241,13.3913043 C8.05500359,13.2811589 8,13.1492761 8,12.9956522 C8,12.8420282 8.05500359,12.7101455 8.16501241,12.6 L9.60669975,11.1652174 C9.71670857,11.0550719 9.84698022,11 9.99751861,11 C10.148057,11 10.2783286,11.0550719 10.3883375,11.1652174 L15,15.7826087 L19.6116625,11.1652174 C19.7216714,11.0550719 19.851943,11 20.0024814,11 C20.1530198,11 20.2832914,11.0550719 20.3933002,11.1652174 L21.8349876,12.6 C21.9449964,12.7101455 22,12.8420282 22,12.9956522 C22,13.1492761 21.9449964,13.2811589 21.8349876,13.3913043 L15.3908189,19.8347826 Z" fill="#2A7CC7"></path>
                </g>
                <g id="btn_chevron_normal">
                    <use id="Shape" stroke="#B7C9D3" mask="url(#mask-8)" stroke-width="4" xlink:href="#path-7"></use>
                    <path d="M15.3908189,19.8347826 C15.28081,19.9449281 15.1505384,20 15,20 C14.8494616,20 14.71919,19.9449281 14.6091811,19.8347826 L8.16501241,13.3913043 C8.05500359,13.2811589 8,13.1492761 8,12.9956522 C8,12.8420282 8.05500359,12.7101455 8.16501241,12.6 L9.60669975,11.1652174 C9.71670857,11.0550719 9.84698022,11 9.99751861,11 C10.148057,11 10.2783286,11.0550719 10.3883375,11.1652174 L15,15.7826087 L19.6116625,11.1652174 C19.7216714,11.0550719 19.851943,11 20.0024814,11 C20.1530198,11 20.2832914,11.0550719 20.3933002,11.1652174 L21.8349876,12.6 C21.9449964,12.7101455 22,12.8420282 22,12.9956522 C22,13.1492761 21.9449964,13.2811589 21.8349876,13.3913043 L15.3908189,19.8347826 Z" fill="#B7C9D3"></path>
                </g>
                <rect id="vertical_divider" fill="#B7C9D3" opacity="0.2" x="164" y="3" width="2" height="24"></rect>
            </g>
        </g>
    </g>
</svg>