<?xml version="1.0" encoding="UTF-8" standalone="no"?>
<svg width="13px" height="10px" viewBox="0 0 13 10" version="1.1" xmlns="http://www.w3.org/2000/svg" xmlns:xlink="http://www.w3.org/1999/xlink">
    <!-- Generator: sketchtool 40.3 (33839) - http://www.bohemiancoding.com/sketch -->
    <title>D828B8A8-9EAB-475C-99FD-C3FFA677D52D</title>
    <desc>Created with sketchtool.</desc>
    <defs></defs>
    <g id="Stylesheet-+-Mobile" stroke="none" stroke-width="1" fill="none" fill-rule="evenodd">
        <g id="UI-Elements" transform="translate(-624.000000, -1268.000000)" fill="#009CDE">
            <g id="CHEKBOX" transform="translate(618.000000, 1165.000000)">
                <g id="ic_chekmark_blue-copy" transform="translate(6.000000, 103.000000)">
                    <path d="M13,1.95324284 C13,2.17823027 12.9223507,2.36928105 12.7657996,2.52639517 L6.69412331,8.6199095 L5.55192678,9.76370035 C5.39537572,9.92081448 5.20626204,10 4.98208092,10 C4.75915222,10 4.56878613,9.92081448 4.41223507,9.76370035 L3.27129094,8.6199095 L0.235452794,5.57189542 C0.0789017341,5.4147813 0,5.22498743 0,5 C0,4.77626948 0.0789017341,4.5852187 0.235452794,4.42810458 L1.37639692,3.28305681 C1.53294798,3.12594268 1.72331407,3.04801408 1.94624277,3.04801408 C2.16917148,3.04801408 2.35953757,3.12594268 2.51608863,3.28305681 L4.98208092,5.76671694 L10.482659,0.236299648 C10.63921,0.0791855204 10.8308285,0 11.0525048,0 C11.2779383,0 11.4683044,0.0791855204 11.6248555,0.236299648 L12.7657996,1.38134741 C12.9223507,1.53846154 13,1.72951232 13,1.95324284" id="ic_chekmark_blue"></path>
                </g>
            </g>
        </g>
    </g>
</svg>