<?xml version="1.0" encoding="UTF-8" standalone="no"?>
<svg
   xmlns:dc="http://purl.org/dc/elements/1.1/"
   xmlns:cc="http://creativecommons.org/ns#"
   xmlns:rdf="http://www.w3.org/1999/02/22-rdf-syntax-ns#"
   xmlns:svg="http://www.w3.org/2000/svg"
   xmlns="http://www.w3.org/2000/svg"
   xmlns:sodipodi="http://sodipodi.sourceforge.net/DTD/sodipodi-0.dtd"
   xmlns:inkscape="http://www.inkscape.org/namespaces/inkscape"
   width="56"
   height="56"
   id="svg3336"
   version="1.1"
   inkscape:version="0.91 r13725"
   sodipodi:docname="ic-input-controls.svg">
  <metadata
     id="metadata3366">
    <rdf:RDF>
      <cc:Work
         rdf:about="">
        <dc:format>image/svg+xml</dc:format>
        <dc:type
           rdf:resource="http://purl.org/dc/dcmitype/StillImage" />
      </cc:Work>
    </rdf:RDF>
  </metadata>
  <defs
     id="defs3364" />
  <sodipodi:namedview
     pagecolor="#ffffff"
     bordercolor="#666666"
     borderopacity="1"
     objecttolerance="10"
     gridtolerance="10"
     guidetolerance="10"
     inkscape:pageopacity="0"
     inkscape:pageshadow="2"
     inkscape:window-width="1920"
     inkscape:window-height="1017"
     id="namedview3362"
     showgrid="false"
     inkscape:zoom="1"
     inkscape:cx="28"
     inkscape:cy="28"
     inkscape:window-x="-8"
     inkscape:window-y="-8"
     inkscape:window-maximized="1"
     inkscape:current-layer="svg3336" />
  <!-- Generator: sketchtool 39.1 (31720) - http://www.bohemiancoding.com/sketch -->
  <title
     id="title3338">C6094AEE-3BEC-44DC-986A-CDF711C14284</title>
  <desc
     id="desc3340">Created with sketchtool.</desc>
  <g
     id="g3342">
    <title
       id="title3344">background</title>
    <rect
       fill="none"
       id="canvas_background"
       height="58"
       width="58"
       y="-1"
       x="-1" />
  </g>
  <g
     id="g3347">
    <title
       id="title3349">Layer 1</title>
    <g
       fill-rule="evenodd"
       fill="none"
       id="Stylesheet-+-Mobile">
      <g
         fill="#B7C9D3"
         id="Assets">
        <g
           id="ic_id">
          <path
             id="svg_1"
             d="m9.215515,17l1,0l0,-7l-1,0l0,7zm3,-1l1,0l0,1l-2,0l0,-7l3,0c1.625,0 3,1.5 3,3l-1,0c0,-0.667 -0.812,-2 -2,-2l-2,0l0,5zm0,4l1,1l-6.001,0c-0.552,0 -0.999,-0.448 -0.999,-1l0,-13c0,-0.552 0.447,-1 0.999,-1l13.001,0c0.552,0 1,0.448 1,1l0,6l-1,-1l0,-5l-13,0l0,13l5,0zm6,1c-1.654,0 -3,-1.346 -3,-3c0,-1.654 1.346,-3 3,-3c1.654,0 3,1.346 3,3c0,1.654 -1.346,3 -3,3l0,0zm6,2.293l-2.852,-2.852c0.526,-0.677 0.852,-1.517 0.852,-2.441c0,-2.209 -1.791,-4 -4,-4c-2.209,0 -4,1.791 -4,4c0,2.209 1.791,4 4,4c0.924,0 1.764,-0.326 2.441,-0.852l2.852,2.852l0.707,-0.707z" />
        </g>
      </g>
    </g>
    <rect
       id="svg_5"
       height="28.016939"
       width="28.016939"
       y="-0.008471"
       x="27.892237"
       stroke-width="1.5"
       fill="#2f7dc5" />
    <g
       fill-rule="evenodd"
       fill="none"
       id="g3356">
      <g
         fill="#B7C9D3"
         id="svg_8">
        <g
           id="svg_7">
          <path
             fill="#ffffff"
             id="svg_6"
             d="m37.232452,17l1,0l0,-7l-1,0l0,7zm3,-1l1,0l0,1l-2,0l0,-7l3,0c1.625,0 3,1.5 3,3l-1,0c0,-0.667 -0.812,-2 -2,-2l-2,0l0,5zm0,4l1,1l-6.001,0c-0.552,0 -0.999,-0.448 -0.999,-1l0,-13c0,-0.552 0.447,-1 0.999,-1l13.001,0c0.552,0 1,0.448 1,1l0,6l-1,-1l0,-5l-13,0l0,13l5,0zm6,1c-1.654,0 -3,-1.346 -3,-3c0,-1.654 1.346,-3 3,-3c1.654,0 3,1.346 3,3c0,1.654 -1.346,3 -3,3l0,0zm6,2.293l-2.852,-2.852c0.526,-0.677 0.852,-1.517 0.852,-2.441c0,-2.209 -1.791,-4 -4,-4c-2.209,0 -4,1.791 -4,4c0,2.209 1.791,4 4,4c0.924,0 1.764,-0.326 2.441,-0.852l2.852,2.852l0.707,-0.707z" />
        </g>
      </g>
    </g>
    <rect
       id="svg_10"
       height="28.016939"
       width="28.016939"
       y="28.008466"
       x="27.892237"
       stroke-width="1.5"
       fill="#2f7dc5" />
  </g>
  <g
     transform="translate(27.866667,27.8)"
     style="fill:#ffffff;fill-rule:evenodd;stroke:none;stroke-width:1"
     id="12.2.x-API-Eplorer-V2.0">
    <g
       style="fill:#ffffff"
       id="12.3.3-API-Explorer-V2.0-Parameters-more-Request-Desktop"
       transform="translate(-962,-1034)">
      <g
         id="Parameters-Opened"
         transform="translate(442,901)"
         style="fill:#ffffff">
        <g
           id="ic_calendar"
           transform="translate(520,133)"
           style="fill:#ffffff">
          <path
             inkscape:connector-curvature="0"
             d="m 11,17 4,0 0,-1 -4,0 0,1 z m 0,-2 6,0 0,-1 -6,0 0,1 z m 0,-2 6,0 0,-1 -6,0 0,1 z m 6,-4 0,-1 1,0 0,1 1,0 0,-1.236 C 19,7.342 18.658,7 18.236,7 L 16.764,7 C 16.342,7 16,7.342 16,7.564 L 16,9 17,9 Z m -7,0 0,-1 1,0 0,1 1,0 0,-1.236 C 12,7.342 11.658,7 11.236,7 L 9.764,7 C 9.342,7 9,7.342 9,7.564 L 9,9 10,9 Z m -0.236,11 8.472,0 C 18.658,20 19,19.658 19,19.236 l 0,-8.472 C 19,10.342 18.658,10 18.236,10 L 9.764,10 C 9.342,10 9,10.342 9,10.764 l 0,8.472 C 9,19.658 9.342,20 9.764,20 l 0,0 z m 9.472,1 -10.472,0 C 8.342,21 8,20.658 8,20.236 L 8,9.764 C 8,9.342 8.342,9 8.764,9 L 19.236,9 C 19.658,9 20,9.342 20,9.764 l 0,10.472 C 20,20.658 19.658,21 19.236,21 l 0,0 z"
             id="path3380"
             style="fill:#ffffff" />
        </g>
      </g>
    </g>
  </g>
  <g
     transform="translate(-0.12901167,27.724866)"
     style="fill:none;fill-rule:evenodd;stroke:none;stroke-width:1"
     id="12.2.x-API-Eplorer-V2.0-1">
    <g
       style="fill:#b7c9d3"
       id="12.3.3-API-Explorer-V2.0-Parameters-more-Request-Desktop-8"
       transform="translate(-962,-1034)">
      <g
         id="Parameters-Opened-8"
         transform="translate(442,901)">
        <g
           id="ic_calendar-9"
           transform="translate(520,133)">
          <path
             inkscape:connector-curvature="0"
             d="m 11,17 4,0 0,-1 -4,0 0,1 z m 0,-2 6,0 0,-1 -6,0 0,1 z m 0,-2 6,0 0,-1 -6,0 0,1 z m 6,-4 0,-1 1,0 0,1 1,0 0,-1.236 C 19,7.342 18.658,7 18.236,7 L 16.764,7 C 16.342,7 16,7.342 16,7.564 L 16,9 17,9 Z m -7,0 0,-1 1,0 0,1 1,0 0,-1.236 C 12,7.342 11.658,7 11.236,7 L 9.764,7 C 9.342,7 9,7.342 9,7.564 L 9,9 10,9 Z m -0.236,11 8.472,0 C 18.658,20 19,19.658 19,19.236 l 0,-8.472 C 19,10.342 18.658,10 18.236,10 L 9.764,10 C 9.342,10 9,10.342 9,10.764 l 0,8.472 C 9,19.658 9.342,20 9.764,20 l 0,0 z m 9.472,1 -10.472,0 C 8.342,21 8,20.658 8,20.236 L 8,9.764 C 8,9.342 8.342,9 8.764,9 L 19.236,9 C 19.658,9 20,9.342 20,9.764 l 0,10.472 C 20,20.658 19.658,21 19.236,21 l 0,0 z"
             id="path3380-2" />
        </g>
      </g>
    </g>
  </g>
</svg>
