<?xml version="1.0" encoding="UTF-8" standalone="no"?>
<svg width="28px" height="28px" viewBox="0 0 28 28" version="1.1" xmlns="http://www.w3.org/2000/svg" xmlns:xlink="http://www.w3.org/1999/xlink">
    <!-- Generator: sketchtool 39.1 (31720) - http://www.bohemiancoding.com/sketch -->
    <title>C6094AEE-3BEC-44DC-986A-CDF711C14284</title>
    <desc>Created with sketchtool.</desc>
    <defs></defs>
    <g id="Stylesheet-+-Mobile" stroke="none" stroke-width="1" fill="none" fill-rule="evenodd">
        <g id="Assets" transform="translate(-236.000000, -397.000000)" fill="#B7C9D3">
            <g id="ic_id" transform="translate(236.000000, 397.000000)">
                <path d="M9,17 L10,17 L10,10 L9,10 L9,17 Z M12,16 L13,16 L13,17 L11,17 L11,10 L14,10 C15.625,10 17,11.5 17,13 L16,13 C16,12.333 15.188,11 14,11 L12,11 L12,16 Z M12,20 L13,21 L6.999,21 C6.447,21 6,20.552 6,20 L6,7 C6,6.448 6.447,6 6.999,6 L20,6 C20.552,6 21,6.448 21,7 L21,13 L20,12 L20,7 L7,7 L7,20 L12,20 Z M18,21 C16.346,21 15,19.654 15,18 C15,16.346 16.346,15 18,15 C19.654,15 21,16.346 21,18 C21,19.654 19.654,21 18,21 L18,21 Z M24,23.293 L21.148,20.441 C21.674,19.764 22,18.924 22,18 C22,15.791 20.209,14 18,14 C15.791,14 14,15.791 14,18 C14,20.209 15.791,22 18,22 C18.924,22 19.764,21.674 20.441,21.148 L23.293,24 L24,23.293 Z"></path>
            </g>
        </g>
    </g>
</svg>