<svg width="418" height="56" viewBox="0 0 418 56" xmlns="http://www.w3.org/2000/svg"><title>1BE103D7-D6FD-4CEC-9E74-D83A8CB38D54</title><g fill="none" fill-rule="evenodd"><path d="M327 21V11h-4v3.571c0 .238.131.226-.036.393s-.155.036-.393.036H319v6h8zm-6-9.857V7h-3v4c0 .429-.588 1-1 1h-4v6h5v-3c0-.435.154-.869.321-1.035L321 11.143zM317 8l-3 3h3V8zm5 3.616L319.616 14H322v-2.384zM327 10c.518 0 1 .576 1 1v10c0 .437-.422 1-1 1h-8c-.484 0-1-.422-1-1v-2h-5c-.484 0-1-.594-1-1v-6c0-.547.224-1.075.607-1.464l3.643-3.643C316.416 6.727 317 6 318 6h3c.424 0 1 .506 1 1v3h5zM235 21h8v-1h-8v1zm-5.31-14l-.69.689 5.507 5.508L229 18.705l.69.69 6.197-6.198L229.69 7zM268.513 9a14.02 14.02 0 0 0-5.56 7.956l.967.252A13.018 13.018 0 0 1 269 9.88V13h1V8h-5v1h3.513zM270 20h-12V8h4v1h-3v10h10v-3h1v4z" fill="#B7C9D3"/><rect fill="#2A7CC7" x="250" y="28" width="28" height="28" rx="2"/><path d="M268.513 37a14.02 14.02 0 0 0-5.56 7.956l.967.252A13.018 13.018 0 0 1 269 37.88V41h1v-5h-5v1h3.513zM270 48h-12V36h4v1h-3v10h10v-3h1v4z" fill="#FFF"/><rect fill="#2A7CC7" x="222" y="28" width="28" height="28" rx="2"/><path d="M235 49h8v-1h-8v1zm-5.31-14l-.69.689 5.507 5.508L229 46.705l.69.69 6.197-6.198L229.69 35z" fill="#FFF"/><path d="M378 8v1h2.293l-3.647 3.646.708.707L381 9.706V12h1V8h-4zm-7 10.292V16h-1v4h3.999v-1h-2.292l3.646-3.647-.706-.707L371 18.292zM399 16v1h2.293l-3.647 3.646.708.707L402 17.706V20h1v-4h-4zm7-4.708V9h-1v4h3.999v-1h-2.292l3.646-3.647-.706-.707L406 11.292zM352.206 14.499l-2.853-2.853-.707.707L350.293 14H342v1h8.293l-1.647 1.646.707.707 2.853-2.854zM354 9v11h-11v-2h-1v2a1 1 0 0 0 1 1h11a1 1 0 0 0 1-1V9a1 1 0 0 0-1-1h-11a.999.999 0 0 0-1 .999V11h1V9h11zM297.469 9.969c.146.146.53.667.53 1.03v9c0 .46-.54 1-1 1h-10c-.516 0-1-.387-1-1V8c0-.481.578-1 1-1h6.75c.45 0 1.137.387 1.282.532l2.438 2.438zm-3.47-1.97v3h3c-.051-.15-.171-.257-.233-.32l-2.445-2.444c-.063-.063-.17-.183-.321-.235zm3 12v-8h-3c-.422 0-1-.434-1-1V8h-6v12h10zm-8-6.75a.24.24 0 0 1 .072-.178.24.24 0 0 1 .179-.071h5.5a.24.24 0 0 1 .25.25v.5a.243.243 0 0 1-.07.18.243.243 0 0 1-.18.07h-5.5a.24.24 0 0 1-.25-.25v-.5zm5.75 1.75c.074 0 .134.025.18.072a.24.24 0 0 1 .07.179v.5a.243.243 0 0 1-.07.18.243.243 0 0 1-.18.07h-5.5a.24.24 0 0 1-.25-.25v-.5a.24.24 0 0 1 .072-.18.24.24 0 0 1 .179-.07h5.5zm0 2c.074 0 .134.025.18.072a.24.24 0 0 1 .07.179v.5a.243.243 0 0 1-.07.18.243.243 0 0 1-.18.07h-5.5a.24.24 0 0 1-.25-.25v-.5a.24.24 0 0 1 .072-.18.24.24 0 0 1 .179-.07h5.5zM203 17h1v-7h-1v7zm3-1h1v1h-2v-7h3c1.625 0 3 1.5 3 3h-1c0-.667-.812-2-2-2h-2v5zm0 4l1 1h-6.001a1 1 0 0 1-.999-1V7a1 1 0 0 1 .999-1H214a1 1 0 0 1 1 1v6l-1-1V7h-13v13h5zm6 1c-1.654 0-3-1.346-3-3s1.346-3 3-3 3 1.346 3 3-1.346 3-3 3zm6 2.293l-2.852-2.852A3.962 3.962 0 0 0 216 18a4 4 0 1 0-4 4c.924 0 1.764-.326 2.441-.852L217.293 24l.707-.707zM34 9V6.999c0-.552.449-.999 1.007-.999h13.986A1 1 0 0 1 50 6.999V9h-.958V6.975H35.007V9H34zM34 19v2.001c0 .552.449.999 1.007.999h13.986A1 1 0 0 0 50 21.001V19h-.958v2.025H35.007V19H34zM31 11h2l1.51 2.153L36 11h2l-2 3.036L38 17h-2l-1.532-2.257L33 17h-2l2-2.964L31 11zm8.046 0h1.922l1.526 2.9h-.026l1.5-2.9h2v6h-2v-3.426l-1 1.716h-1l-1-1.716V17h-1.922v-6zM48 11h2v5.02h3V17h-5v-6z" fill="#B7C9D3"/><rect fill="#2A7CC7" y="28" width="28" height="28" rx="2"/><path d="M17 39a2.89 2.89 0 0 0-.879-2.121A2.89 2.89 0 0 0 14 36a2.89 2.89 0 0 0-2.121.879A2.89 2.89 0 0 0 11 39c0 .828.293 1.535.879 2.121A2.89 2.89 0 0 0 14 42a2.89 2.89 0 0 0 2.121-.879A2.89 2.89 0 0 0 17 39zm3 0c0 .852-.129 1.55-.387 2.098l-4.265 9.07A1.505 1.505 0 0 1 14 51c-.281 0-.545-.074-.791-.223a1.35 1.35 0 0 1-.545-.609l-4.277-9.07C8.129 40.55 8 39.852 8 39c0-1.656.586-3.07 1.758-4.242C10.93 33.586 12.344 33 14 33c1.656 0 3.07.586 4.242 1.758C19.414 35.93 20 37.344 20 39z" stroke="#FFF"/><path fill="#FFF" d="M19 49h4v1h-4zM5 49h4v1H5z"/><path d="M17 11a2.89 2.89 0 0 0-.879-2.121A2.89 2.89 0 0 0 14 8a2.89 2.89 0 0 0-2.121.879A2.89 2.89 0 0 0 11 11c0 .828.293 1.535.879 2.121A2.89 2.89 0 0 0 14 14a2.89 2.89 0 0 0 2.121-.879A2.89 2.89 0 0 0 17 11zm3 0c0 .852-.129 1.55-.387 2.098l-4.265 9.07A1.505 1.505 0 0 1 14 23c-.281 0-.545-.074-.791-.223a1.35 1.35 0 0 1-.545-.609l-4.277-9.07C8.129 12.55 8 11.852 8 11c0-1.656.586-3.07 1.758-4.242C10.93 5.586 12.344 5 14 5c1.656 0 3.07.586 4.242 1.758C19.414 7.93 20 9.344 20 11z" stroke="#B7C9D3"/><path fill="#B7C9D3" d="M19 21h4v1h-4zM5 21h4v1H5z"/><rect fill="#2A7CC7" x="28" y="28" width="28" height="28" rx="2"/><path d="M34 37v-2.001c0-.552.449-.999 1.007-.999h13.986a1 1 0 0 1 1.007.999V37h-.958v-2.025H35.007V37H34zM31 39h2l1.51 2.153L36 39h2l-2 3.036L38 45h-2l-1.532-2.257L33 45h-2l2-2.964L31 39zm8.046 0h1.922l1.526 2.9h-.026l1.5-2.9h2v6h-2v-3.426l-1 1.716h-1l-1-1.716V45h-1.922v-6zM48 39h2v5.02h3V45h-5v-6zM34 47v2.001c0 .552.449.999 1.007.999h13.986A1 1 0 0 0 50 49.001V47h-.958v2.025H35.007V47H34z" fill="#FFF"/><path d="M62 9V6.999c0-.552.449-.999 1.007-.999h13.986A1 1 0 0 1 78 6.999V9h-.958V6.975H63.007V9H62zM78.995 17l2.037-6h-1.951l-1.598 4.23L75.931 11h-1.997l2.076 6h2.985zm-5.963-4.022c-.011-.316-.754-1.942-2.992-1.977-1.85-.03-2.992.631-2.992 1.525 0 2.215 3.98 1.66 3.989 2.704.004.464-.22.795-.997.795-1.293 0-1.246-.8-1.265-1.024h-1.727c-.002.742.65 2.02 2.992 2 2.215-.02 3.023-.76 2.992-1.647-.06-1.778-3.936-1.359-4.02-2.655-.026-.409.39-.71 1.028-.702.87.011 1.171.568 1.216.98h1.776zm-8.003 0c-.045-.8-.697-1.977-2.973-1.977-1.739 0-3.044 1.041-3.056 3.02-.012 1.978 1.658 2.986 3.056 2.98 1.987-.009 2.89-.936 2.973-2.016h-1.95c-.02.235 0 1.02-1.023 1.04-1.173.023-1.073-1.006-1.101-2.004-.028-.999-.04-2.032 1.1-2.024.91.007.921.574 1.023.98h1.95zM62 19v2.001c0 .552.449.999 1.007.999h13.986A1 1 0 0 0 78 21.001V19h-.958v2.025H63.007V19H62z" fill="#B7C9D3"/><rect fill="#2A7CC7" x="56" y="28" width="28" height="28" rx="2"/><path d="M62 37v-2.001c0-.552.449-.999 1.007-.999h13.986a1 1 0 0 1 1.007.999V37h-.958v-2.025H63.007V37H62zM78.995 45l2.037-6h-1.951l-1.598 4.23L75.931 39h-1.997l2.076 6h2.985zm-5.963-4.022c-.011-.316-.754-1.942-2.992-1.977-1.85-.03-2.992.631-2.992 1.525 0 2.215 3.98 1.66 3.989 2.704.004.464-.22.795-.997.795-1.293 0-1.246-.8-1.265-1.024h-1.727c-.002.742.65 2.02 2.992 2 2.215-.02 3.023-.76 2.992-1.647-.06-1.778-3.936-1.359-4.02-2.655-.026-.409.39-.71 1.028-.702.87.011 1.171.568 1.216.98h1.776zm-8.003 0c-.045-.8-.697-1.977-2.973-1.977-1.739 0-3.044 1.041-3.056 3.02-.012 1.978 1.658 2.986 3.056 2.98 1.987-.009 2.89-.936 2.973-2.016h-1.95c-.02.235 0 1.02-1.023 1.04-1.173.023-1.073-1.006-1.101-2.004-.028-.999-.04-2.032 1.1-2.024.91.007.921.574 1.023.98h1.95zM62 47v2.001c0 .552.449.999 1.007.999h13.986A1 1 0 0 0 78 49.001V47h-.958v2.025H63.007V47H62z" fill="#FFF"/><rect fill="#2A7CC7" x="194" y="28" width="28" height="28" rx="2"/><path d="M203 45h1v-7h-1v7zm3-1h1v1h-2v-7h3c1.625 0 3 1.5 3 3h-1c0-.667-.812-2-2-2h-2v5zm0 4l1 1h-6.001a1 1 0 0 1-.999-1V35a1 1 0 0 1 .999-1H214a1 1 0 0 1 1 1v6l-1-1v-5h-13v13h5zm6 1c-1.654 0-3-1.346-3-3s1.346-3 3-3 3 1.346 3 3-1.346 3-3 3zm6 2.293l-2.852-2.852A3.962 3.962 0 0 0 216 46a4 4 0 1 0-4 4c.924 0 1.764-.326 2.441-.852L217.293 52l.707-.707z" fill="#FFF"/><rect fill="#2A7CC7" x="278" y="28" width="28" height="28" rx="2"/><path d="M297.469 37.969c.146.146.53.667.53 1.03v9c0 .46-.54 1-1 1h-10c-.516 0-1-.387-1-1V36c0-.481.578-1 1-1h6.75c.45 0 1.137.387 1.282.532l2.438 2.438zm-3.47-1.97v3h3c-.051-.15-.171-.257-.233-.32l-2.445-2.444c-.063-.063-.17-.183-.321-.235zm3 12v-8h-3c-.422 0-1-.434-1-1v-3h-6v12h10zm-8-6.75a.24.24 0 0 1 .072-.178.24.24 0 0 1 .179-.071h5.5a.24.24 0 0 1 .25.25v.5a.243.243 0 0 1-.07.18.243.243 0 0 1-.18.07h-5.5a.24.24 0 0 1-.25-.25v-.5zm5.75 1.75c.074 0 .134.025.18.072a.24.24 0 0 1 .07.179v.5a.243.243 0 0 1-.07.18.243.243 0 0 1-.18.07h-5.5a.24.24 0 0 1-.25-.25v-.5a.24.24 0 0 1 .072-.18.24.24 0 0 1 .179-.07h5.5zm0 2c.074 0 .134.025.18.072a.24.24 0 0 1 .07.179v.5a.243.243 0 0 1-.07.18.243.243 0 0 1-.18.07h-5.5a.24.24 0 0 1-.25-.25v-.5a.24.24 0 0 1 .072-.18.24.24 0 0 1 .179-.07h5.5z" fill="#FFF"/><rect fill="#2A7CC7" x="390" y="28" width="28" height="28" rx="2"/><path d="M399 44v1h2.293l-3.647 3.646.708.707L402 45.706V48h1v-4h-4zm7-4.708V37h-1v4h3.999v-1h-2.292l3.646-3.647-.706-.707L406 39.292z" fill="#FFF"/><rect fill="#2A7CC7" x="362" y="28" width="28" height="28" rx="2"/><path d="M378 36v1h2.293l-3.647 3.646.708.707L381 37.706V40h1v-4h-4zm-7 10.292V44h-1v4h3.999v-1h-2.292l3.646-3.647-.706-.707L371 46.292z" fill="#FFF"/><rect fill="#2A7CC7" x="334" y="28" width="28" height="28" rx="2"/><path d="M352.206 41.499l-2.853-2.853-.707.707L350.293 41H342v1h8.293l-1.647 1.646.707.707 2.853-2.854zM354 36v11h-11v-2h-1v2a1 1 0 0 0 .999 1H354a1 1 0 0 0 1-1V36a1 1 0 0 0-1-1h-11.001a.999.999 0 0 0-.999.999V38h1v-2h11z" fill="#FFF"/><rect fill="#2A7CC7" x="306" y="28" width="28" height="28" rx="2"/><path d="M327 49V39h-4v3.571c0 .238.131.226-.036.393s-.155.036-.393.036H319v6h8zm-6-9.857V35h-3v4c0 .429-.588 1-1 1h-4v6h5v-3c0-.435.154-.869.321-1.035L321 39.143zM317 36l-3 3h3v-3zm5 3.616L319.616 42H322v-2.384zM327 38c.518 0 1 .576 1 1v10c0 .437-.422 1-1 1h-8c-.484 0-1-.422-1-1v-2h-5c-.484 0-1-.594-1-1v-6c0-.547.224-1.075.607-1.464l3.643-3.643c.166-.166.75-.893 1.75-.893h3c.424 0 1 .506 1 1v3h5z" fill="#FFF"/><rect fill="#2A7CC7" x="138" y="28" width="28" height="28" rx="2"/><path d="M149 45h3v-1h-3v1zm0-2h6v-1h-6v1zm0-2h6v-1h-6v1zm6-4v-1h1v1h1v-1.236a.764.764 0 0 0-.764-.764h-1.472c-.422 0-.764.342-.764.564V37h1zm-7 0v-1h1v1h1v-1.236a.764.764 0 0 0-.764-.764h-1.472c-.422 0-.764.342-.764.564V37h1zm-.236 11h8.472a.764.764 0 0 0 .764-.764v-8.472a.764.764 0 0 0-.764-.764h-8.472a.764.764 0 0 0-.764.764v8.472c0 .422.342.764.764.764zm-1 1a.764.764 0 0 1-.764-.764V37.764c0-.422.342-.764.764-.764h10.472c.422 0 .764.342.764.764v10.472a.764.764 0 0 1-.764.764h-10.472z" fill="#FFF"/><path d="M149 17h3v-1h-3v1zm0-2h6v-1h-6v1zm0-2h6v-1h-6v1zm6-4V8h1v1h1V7.764a.764.764 0 0 0-.764-.764h-1.472c-.422 0-.764.342-.764.564V9h1zm-7 0V8h1v1h1V7.764a.764.764 0 0 0-.764-.764h-1.472c-.422 0-.764.342-.764.564V9h1zm-.236 11h8.472a.764.764 0 0 0 .764-.764v-8.472a.764.764 0 0 0-.764-.764h-8.472a.764.764 0 0 0-.764.764v8.472c0 .422.342.764.764.764zm-1 1a.764.764 0 0 1-.764-.764V9.764c0-.422.342-.764.764-.764h10.472c.422 0 .764.342.764.764v10.472a.764.764 0 0 1-.764.764h-10.472zM94 20.004V21c-.869-.088-1.587-.343-2.156-.765-.569-.422-.853-1.116-.853-2.082 0 0 0-2.155-.249-2.766-.272-.67-.883-.888-1.742-.98v-.835a2.62 2.62 0 0 0 1.742-.959c.37-.448.25-2.473.25-2.473 0-.918.198-1.645.596-2.181C91.986 7.422 92.79 7.102 94 7v1c-.786.105-2.004.245-2.004 2.011s.055 2.493-.152 2.866c-.347.628-.853 1.053-1.427 1.123.574.088 1.12.382 1.427 1.2.188.499.152 1.286.152 2.814 0 1.529 1.55 1.936 2.004 1.99zm6 0V21c.869-.088 1.587-.343 2.156-.765.569-.422.853-1.116.853-2.082 0 0 0-2.155.249-2.766.272-.67.883-.888 1.742-.98v-.835a2.62 2.62 0 0 1-1.742-.959c-.37-.448-.25-2.473-.25-2.473 0-.918-.198-1.645-.596-2.181-.398-.537-1.202-.857-2.412-.959v1c.786.105 2.004.245 2.004 2.011s-.055 2.493.152 2.866c.347.628.853 1.053 1.427 1.123-.574.088-1.12.382-1.427 1.2-.188.499-.152 1.286-.152 2.814 0 1.529-1.55 1.936-2.004 1.99zM126 5h-4v2.294a6.963 6.963 0 0 0-2.273 1.17L117.459 7 115 10.964l2.196 1.418A6.959 6.959 0 0 0 117 14c0 .558.072 1.098.196 1.618L115 17.036 117.459 21l2.268-1.464a6.963 6.963 0 0 0 2.273 1.17V23h4v-2.294a6.963 6.963 0 0 0 2.273-1.17L130.541 21 133 17.036l-2.196-1.418c.124-.52.196-1.06.196-1.618s-.072-1.098-.196-1.618L133 10.964 130.541 7l-2.268 1.464A6.963 6.963 0 0 0 126 7.294V5zm-1 1v2.039l.715.213c.7.209 1.355.546 1.947 1.003l.559.433.595-.384 1.412-.912 1.405 2.264-1.371.886-.594.383.163.687c.112.472.169.939.169 1.388 0 .449-.057.916-.169 1.388l-.163.687.594.383 1.371.886-1.405 2.264-1.412-.912-.595-.384-.559.433a5.964 5.964 0 0 1-1.947 1.003l-.715.213V22h-2v-2.039l-.715-.213a5.964 5.964 0 0 1-1.947-1.003l-.559-.433-.595.384-1.412.912-1.405-2.264 1.371-.886.594-.383-.163-.687A6.03 6.03 0 0 1 118 14c0-.449.057-.916.169-1.388l.163-.687-.594-.383-1.371-.886 1.405-2.264 1.412.912.595.384.559-.433a5.974 5.974 0 0 1 1.947-1.003l.715-.213V6h2z" fill="#B7C9D3"/><path stroke="#B7C9D3" d="M121 14l2 2 4-4"/><rect fill="#2A7CC7" x="110" y="28" width="28" height="28" rx="2"/><path d="M126 33h-4v2.294a6.963 6.963 0 0 0-2.273 1.17L117.459 35 115 38.964l2.196 1.418A6.959 6.959 0 0 0 117 42c0 .558.072 1.098.196 1.618L115 45.036 117.459 49l2.268-1.464a6.963 6.963 0 0 0 2.273 1.17V51h4v-2.294a6.963 6.963 0 0 0 2.273-1.17L130.541 49 133 45.036l-2.196-1.418c.124-.52.196-1.06.196-1.618s-.072-1.098-.196-1.618L133 38.964 130.541 35l-2.268 1.464a6.963 6.963 0 0 0-2.273-1.17V33zm-1 1v2.039l.715.213c.7.209 1.355.546 1.947 1.003l.559.433.595-.384 1.412-.912 1.405 2.264-1.371.886-.594.383.163.687c.112.472.169.939.169 1.388 0 .449-.057.916-.169 1.388l-.163.687.594.383 1.371.886-1.405 2.264-1.412-.912-.595-.384-.559.433a5.964 5.964 0 0 1-1.947 1.003l-.715.213V50h-2v-2.039l-.715-.213a5.964 5.964 0 0 1-1.947-1.003l-.559-.433-.595.384-1.412.912-1.405-2.264 1.371-.886.594-.383-.163-.687A6.03 6.03 0 0 1 118 42c0-.449.057-.916.169-1.388l.163-.687-.594-.383-1.371-.886 1.405-2.264 1.412.912.595.384.559-.433a5.974 5.974 0 0 1 1.947-1.003l.715-.213V34h2z" fill="#FFF"/><path stroke="#FFF" d="M121 42l2 2 4-4"/><path d="M182 21l1 1h-10.001a1 1 0 0 1-.999-1V7a1 1 0 0 1 .999-1H187a1 1 0 0 1 1 1v10l-1-1V7h-14v14h9zm-5-7c0-1.654 1.346-3 3-3s3 1.346 3 3-1.346 3-3 3-3-1.346-3-3zm9.647 6.646a.498.498 0 0 0-.002-.708l-3.497-3.497A3.962 3.962 0 0 0 184 14a4 4 0 1 0-4 4c.924 0 1.764-.326 2.441-.852l3.497 3.497c.196.196.519.191.709.002z" fill="#B7C9D3"/><rect fill="#2A7CC7" x="166" y="28" width="28" height="28" rx="2"/><path d="M182 49l1 1h-10.001a1 1 0 0 1-.999-1V35a1 1 0 0 1 .999-1H187a1 1 0 0 1 1 1v10l-1-1v-9h-14v14h9zm-5-7c0-1.654 1.346-3 3-3s3 1.346 3 3-1.346 3-3 3-3-1.346-3-3zm9.647 6.647a.498.498 0 0 0-.002-.71l-3.497-3.496A3.962 3.962 0 0 0 184 42a4 4 0 1 0-4 4c.924 0 1.764-.326 2.441-.852l3.497 3.497c.196.196.519.191.709.002z" fill="#FFF"/><rect fill="#2A7CC7" x="83" y="28" width="28" height="28" rx="2"/><path d="M94 48.004V49c-.869-.088-1.587-.343-2.156-.765-.569-.422-.853-1.116-.853-2.082 0 0 0-2.155-.249-2.766-.272-.67-.883-.888-1.742-.98v-.835a2.62 2.62 0 0 0 1.742-.959c.37-.448.25-2.473.25-2.473 0-.918.198-1.645.596-2.181.398-.537 1.202-.857 2.412-.959v1c-.786.105-2.004.245-2.004 2.011s.055 2.493-.152 2.866c-.347.628-.853 1.053-1.427 1.123.574.088 1.12.382 1.427 1.2.188.499.152 1.286.152 2.814 0 1.529 1.55 1.936 2.004 1.99zm6 0V49c.869-.088 1.587-.343 2.156-.765.569-.422.853-1.116.853-2.082 0 0 0-2.155.249-2.766.272-.67.883-.888 1.742-.98v-.835a2.62 2.62 0 0 1-1.742-.959c-.37-.448-.25-2.473-.25-2.473 0-.918-.198-1.645-.596-2.181-.398-.537-1.202-.857-2.412-.959v1c.786.105 2.004.245 2.004 2.011s-.055 2.493.152 2.866c.347.628.853 1.053 1.427 1.123-.574.088-1.12.382-1.427 1.2-.188.499-.152 1.286-.152 2.814 0 1.529-1.55 1.936-2.004 1.99z" fill="#FFF"/></g></svg>