<?xml version="1.0" encoding="utf-8" ?><svg version="1.1" xmlns = 'http://www.w3.org/2000/svg'><defs><font id='web' horiz-adv-x="1000">
<font-face font-family="web" descent="-410" cap-height="1434" units-per-em="2048" bbox="-109,-492,2662,2181" x-height="1075" ascent="1638" />
<missing-glyph horiz-adv-x="1024" d="M 102 -410 L 922 -410 L 922 1638 L 102 1638 L 102 -410 Z M 204 -308 L 204 1536 L 820 1536 L 820 -308 L 204 -308 Z" /><glyph horiz-adv-x="532" d="" unicode=" " />
<glyph horiz-adv-x="539" d="M 348 760 L 311 385 L 225 385 L 190 760 L 190 1434 L 348 1434 L 348 760 Z M 393 102 C 393 68 380 39 355 14 C 329 -10 300 -23 268 -23 C 234 -23 205 -10 180 14 C 155 39 143 68 143 102 C 143 136 155 166 180 192 C 205 218 234 231 268 231 C 300 231 329 218 355 192 C 380 166 393 136 393 102 Z" unicode="!" />
<glyph horiz-adv-x="942" d="M 362 1434 L 328 764 L 207 764 L 172 1434 L 362 1434 Z M 770 1434 L 735 764 L 614 764 L 580 1434 L 770 1434 Z" unicode="&#x22;" />
<glyph horiz-adv-x="1376" d="M 870 504 L 870 930 L 506 930 L 506 504 L 870 504 Z M 1270 360 L 1024 360 L 1024 0 L 870 0 L 870 360 L 506 360 L 506 0 L 352 0 L 352 360 L 106 360 L 106 504 L 352 504 L 352 930 L 106 930 L 106 1073 L 352 1073 L 352 1434 L 506 1434 L 506 1073 L 870 1073 L 870 1434 L 1024 1434 L 1024 1073 L 1270 1073 L 1270 930 L 1024 930 L 1024 504 L 1270 504 L 1270 360 Z" unicode="#" />
<glyph horiz-adv-x="1192" d="M 1059 387 C 1059 285 1024 198 954 128 C 884 57 786 15 662 2 L 662 -205 L 508 -205 L 508 2 C 426 10 351 32 281 68 C 211 104 151 147 102 197 L 209 315 C 263 263 321 221 385 190 C 448 158 516 143 590 143 C 684 143 759 163 815 204 C 871 245 899 303 899 379 C 899 445 874 498 826 540 C 777 581 687 625 557 672 C 480 699 415 726 362 753 C 309 779 266 808 234 839 C 202 869 178 904 164 943 C 150 982 143 1027 143 1079 C 143 1181 176 1262 243 1322 C 309 1382 398 1419 508 1432 L 508 1638 L 662 1638 L 662 1434 C 738 1427 804 1410 862 1384 C 920 1358 975 1324 1028 1282 L 926 1157 C 874 1199 821 1232 768 1255 C 715 1278 653 1290 582 1290 C 484 1290 413 1270 369 1232 C 325 1193 303 1146 303 1090 C 303 1060 307 1034 316 1011 C 324 987 341 965 365 944 C 389 923 424 902 469 881 C 513 859 571 836 643 811 C 722 782 788 754 842 726 C 895 698 938 667 970 635 C 1002 603 1024 566 1038 526 C 1052 486 1059 439 1059 387 Z" unicode="$" />
<glyph horiz-adv-x="1972" d="M 788 1012 C 788 946 779 886 763 831 C 747 776 724 729 695 690 C 666 650 631 620 590 598 C 548 576 503 565 453 565 C 403 565 357 575 316 597 C 275 619 240 649 212 688 C 184 726 162 773 146 828 C 130 882 123 942 123 1008 C 123 1074 130 1134 146 1190 C 162 1245 184 1292 213 1332 C 241 1371 276 1401 318 1423 C 360 1445 406 1456 457 1456 C 509 1456 555 1445 597 1423 C 638 1401 673 1371 701 1332 C 729 1293 750 1246 765 1192 C 780 1137 788 1077 788 1012 Z M 1505 1434 L 614 0 L 465 0 L 1356 1434 L 1505 1434 Z M 647 1008 C 647 1101 629 1178 595 1240 C 560 1302 513 1333 455 1333 C 395 1333 349 1302 315 1242 C 281 1182 264 1105 264 1012 C 264 918 281 840 316 779 C 350 718 397 688 457 688 C 486 688 512 696 536 714 C 560 731 580 754 596 783 C 612 812 625 846 634 885 C 642 924 647 965 647 1008 Z M 1849 424 C 1849 358 1840 298 1824 243 C 1808 188 1785 141 1756 102 C 1726 62 1691 32 1650 10 C 1608 -12 1563 -23 1513 -23 C 1463 -23 1417 -12 1377 9 C 1336 31 1301 61 1273 100 C 1245 138 1223 185 1207 240 C 1191 294 1184 354 1184 420 C 1184 486 1191 546 1207 602 C 1223 657 1245 704 1274 744 C 1302 783 1337 813 1379 835 C 1421 857 1467 868 1518 868 C 1570 868 1616 857 1657 835 C 1698 813 1733 783 1761 744 C 1789 705 1811 658 1826 604 C 1841 549 1849 489 1849 424 Z M 1708 420 C 1708 513 1690 590 1656 652 C 1621 714 1574 745 1516 745 C 1456 745 1410 714 1376 654 C 1342 594 1325 517 1325 424 C 1325 330 1342 253 1377 192 C 1411 130 1458 100 1518 100 C 1547 100 1573 108 1597 126 C 1621 143 1641 166 1657 195 C 1673 224 1686 258 1695 297 C 1703 336 1708 377 1708 420 Z" unicode="%" />
<glyph horiz-adv-x="1319" d="M 528 690 C 439 649 375 602 337 550 C 298 497 279 436 279 367 C 279 297 303 238 351 190 C 399 141 469 117 561 117 C 622 117 677 129 727 153 C 777 177 821 212 860 256 L 528 690 Z M 1247 0 L 1059 0 L 944 150 C 892 96 833 54 769 23 C 704 -7 633 -23 557 -23 C 478 -23 411 -12 356 8 C 301 28 257 56 223 91 C 189 126 164 167 148 214 C 132 260 125 310 125 362 C 125 468 153 553 210 619 C 266 685 345 743 446 795 L 397 860 C 361 906 331 952 307 997 C 282 1041 270 1091 270 1147 C 270 1236 302 1310 368 1368 C 434 1426 523 1456 635 1456 C 714 1456 784 1444 846 1422 C 908 1399 964 1367 1016 1327 L 934 1200 C 880 1242 831 1272 785 1290 C 739 1308 689 1317 633 1317 C 569 1317 519 1302 483 1272 C 446 1242 428 1203 428 1155 C 428 1117 435 1083 450 1053 C 465 1023 486 990 514 954 L 950 387 C 969 423 987 462 1003 505 C 1019 547 1034 592 1049 639 L 1184 598 C 1167 538 1146 481 1122 425 C 1098 369 1070 318 1040 270 L 1247 0 Z" unicode="&#x26;" />
<glyph horiz-adv-x="526" d="M 360 1434 L 326 764 L 201 764 L 166 1434 L 360 1434 Z" unicode="'" />
<glyph horiz-adv-x="713" d="M 545 -225 C 493 -178 443 -125 393 -67 C 343 -8 298 55 259 125 C 220 194 189 269 165 351 C 141 433 129 520 129 614 C 129 711 141 802 165 886 C 189 970 220 1046 259 1116 C 298 1186 343 1250 393 1308 C 443 1366 493 1419 545 1466 L 612 1403 C 515 1303 437 1189 377 1063 C 317 937 287 791 287 625 C 287 453 317 303 377 177 C 437 51 515 -62 612 -162 L 545 -225 Z" unicode="(" />
<glyph horiz-adv-x="713" d="M 584 627 C 584 529 572 439 548 355 C 524 271 492 195 453 125 C 414 55 370 -9 320 -67 C 270 -125 219 -178 168 -225 L 100 -162 C 197 -62 276 51 336 177 C 396 303 426 450 426 616 C 426 788 396 938 336 1064 C 276 1190 197 1303 100 1403 L 168 1466 C 219 1419 270 1366 320 1308 C 370 1249 414 1185 453 1116 C 492 1046 524 971 548 889 C 572 807 584 720 584 627 Z" unicode=")" />
<glyph horiz-adv-x="1024" d="M 877 911 L 813 801 L 541 1004 L 575 664 L 449 664 L 483 1004 L 211 801 L 147 911 L 451 1049 L 147 1186 L 211 1296 L 483 1094 L 449 1434 L 575 1434 L 541 1094 L 813 1296 L 877 1186 L 573 1049 L 877 911 Z" unicode="*" />
<glyph horiz-adv-x="1182" d="M 1069 635 L 666 635 L 666 219 L 516 219 L 516 635 L 113 635 L 113 774 L 516 774 L 516 1190 L 666 1190 L 666 774 L 1069 774 L 1069 635 Z" unicode="+" />
<glyph horiz-adv-x="492" d="M 362 236 L 229 -242 L 123 -242 L 154 236 L 362 236 Z" unicode="," />
<glyph horiz-adv-x="659" d="M 555 674 L 104 674 L 104 823 L 555 823 L 555 674 Z" unicode="-" />
<glyph horiz-adv-x="492" d="M 377 109 C 377 73 363 42 337 16 C 310 -10 280 -23 246 -23 C 210 -23 179 -10 153 16 C 127 42 115 73 115 109 C 115 144 127 175 153 203 C 179 230 210 244 246 244 C 280 244 310 230 337 203 C 363 175 377 144 377 109 Z" unicode="." />
<glyph horiz-adv-x="870" d="M 817 1618 L 205 -184 L 53 -184 L 666 1618 L 817 1618 Z" unicode="/" />
<glyph horiz-adv-x="1315" d="M 1194 717 C 1194 599 1181 493 1155 401 C 1129 309 1092 231 1045 169 C 998 106 941 58 875 26 C 809 -6 736 -23 657 -23 C 577 -23 505 -6 439 26 C 373 58 316 106 269 169 C 222 231 186 309 160 401 C 134 493 121 599 121 717 C 121 835 134 940 160 1032 C 186 1124 222 1202 269 1264 C 316 1326 373 1374 439 1407 C 505 1439 577 1456 657 1456 C 736 1456 809 1439 875 1407 C 941 1374 998 1326 1045 1264 C 1092 1202 1129 1124 1155 1032 C 1181 940 1194 835 1194 717 Z M 1036 717 C 1036 809 1027 892 1011 966 C 995 1040 971 1102 939 1153 C 907 1204 868 1243 821 1271 C 773 1299 719 1313 657 1313 C 595 1313 541 1299 494 1271 C 446 1243 407 1204 375 1153 C 343 1102 319 1040 303 966 C 287 892 279 809 279 717 C 279 625 287 541 303 467 C 319 393 343 330 375 279 C 407 228 446 189 494 162 C 541 134 595 121 657 121 C 719 121 773 134 821 162 C 868 189 907 228 939 279 C 971 330 995 393 1011 467 C 1027 541 1036 625 1036 717 Z" unicode="0" />
<glyph horiz-adv-x="639" d="M 449 0 L 291 0 L 291 1147 L 31 1147 L 31 1247 C 109 1251 174 1267 228 1294 C 282 1320 315 1367 328 1434 L 449 1434 L 449 0 Z" unicode="1" />
<glyph horiz-adv-x="1165" d="M 1022 0 L 80 0 C 84 90 98 168 121 236 C 144 303 175 363 215 416 C 254 468 301 517 356 563 C 411 608 473 654 541 700 C 604 742 656 780 696 812 C 736 844 768 874 791 902 C 813 929 829 956 837 983 C 845 1010 850 1040 850 1073 C 850 1146 824 1204 773 1248 C 722 1291 650 1313 557 1313 C 475 1313 408 1300 355 1275 C 302 1249 253 1218 209 1180 L 117 1296 C 175 1343 238 1381 306 1411 C 374 1441 460 1456 563 1456 C 626 1456 685 1448 739 1433 C 793 1418 840 1395 880 1364 C 920 1333 951 1294 974 1247 C 996 1200 1008 1145 1008 1081 C 1008 1028 1001 982 988 942 C 975 902 954 864 926 829 C 897 794 860 759 814 723 C 768 687 713 648 649 604 C 576 554 516 510 469 471 C 422 432 384 395 356 361 C 328 327 307 293 293 259 C 279 225 268 190 262 152 L 1022 152 L 1022 0 Z" unicode="2" />
<glyph horiz-adv-x="1153" d="M 1020 412 C 1020 276 974 169 882 92 C 790 15 666 -23 510 -23 C 419 -23 334 -2 254 37 C 174 77 112 124 66 176 L 172 283 C 216 235 268 196 326 166 C 384 136 448 121 518 121 C 634 121 721 145 777 195 C 833 245 862 316 862 408 C 862 496 830 563 767 609 C 704 655 622 678 522 678 L 428 678 L 428 815 L 526 815 C 619 815 688 838 734 885 C 780 932 803 993 803 1069 C 803 1137 781 1194 737 1242 C 693 1289 616 1313 508 1313 C 448 1313 393 1300 345 1275 C 297 1250 255 1219 219 1182 L 119 1284 C 159 1326 214 1366 282 1402 C 350 1438 426 1456 512 1456 C 574 1456 633 1448 688 1433 C 743 1417 791 1394 831 1364 C 871 1334 902 1296 926 1250 C 949 1204 961 1150 961 1090 C 961 1002 942 932 905 880 C 868 827 819 785 758 754 C 792 746 825 733 857 717 C 889 700 917 678 941 650 C 965 622 984 589 998 550 C 1012 510 1020 464 1020 412 Z" unicode="3" />
<glyph horiz-adv-x="1280" d="M 1190 340 L 993 340 L 993 0 L 846 0 L 846 340 L 80 340 L 80 473 L 821 1434 L 993 1434 L 993 477 L 1190 477 L 1190 340 Z M 254 477 L 846 477 L 846 1243 C 823 1211 792 1170 754 1119 C 716 1067 679 1019 643 973 L 449 721 C 420 684 387 642 349 594 C 311 546 279 507 254 477 Z" unicode="4" />
<glyph horiz-adv-x="1239" d="M 1110 477 C 1110 391 1096 316 1070 253 C 1043 189 1006 137 959 97 C 911 56 854 26 788 6 C 722 -13 649 -23 571 -23 C 483 -23 401 -11 325 13 C 249 37 180 69 119 109 L 197 236 C 249 202 309 174 376 153 C 443 131 512 121 584 121 C 706 121 797 153 859 217 C 921 281 952 365 952 467 C 952 559 923 633 865 687 C 807 741 722 768 610 768 C 544 768 487 759 441 742 C 394 725 351 703 311 676 L 154 737 L 203 1434 L 1024 1434 L 1024 1282 L 340 1282 L 305 821 C 341 845 385 866 439 884 C 493 902 553 911 621 911 C 702 911 773 900 835 879 C 896 858 947 829 988 791 C 1028 753 1059 707 1079 653 C 1099 599 1110 541 1110 477 Z" unicode="5" />
<glyph horiz-adv-x="1257" d="M 1167 442 C 1167 365 1153 297 1126 239 C 1099 181 1062 132 1015 94 C 968 55 912 26 848 6 C 783 -13 713 -23 639 -23 C 568 -23 501 -12 438 8 C 375 28 321 61 275 106 C 229 151 192 210 165 282 C 138 354 125 441 125 543 C 125 635 138 733 166 837 C 194 941 240 1037 304 1125 C 368 1213 453 1287 560 1349 C 666 1411 798 1446 954 1456 L 954 1315 C 766 1298 616 1238 503 1136 C 389 1034 315 893 279 713 C 325 761 380 801 444 833 C 508 865 591 881 692 881 C 757 881 819 872 877 854 C 935 836 985 809 1028 773 C 1070 737 1104 691 1129 636 C 1154 580 1167 516 1167 442 Z M 1010 434 C 1010 530 978 604 915 657 C 851 710 763 737 651 737 C 538 737 448 709 382 653 C 316 597 283 524 283 434 C 283 390 291 348 309 310 C 326 272 350 239 382 211 C 414 183 452 161 497 145 C 541 129 591 121 645 121 C 763 121 854 150 916 209 C 978 267 1010 342 1010 434 Z" unicode="6" />
<glyph horiz-adv-x="1139" d="M 975 1284 C 912 1206 852 1122 795 1031 C 738 939 688 841 645 736 C 602 630 567 516 541 393 C 515 270 500 139 498 0 L 336 0 C 339 128 353 251 377 369 C 401 487 434 599 475 705 C 516 811 564 912 620 1008 C 675 1104 735 1196 801 1282 L 33 1282 L 33 1434 L 975 1434 L 975 1284 Z" unicode="7" />
<glyph horiz-adv-x="1303" d="M 1184 401 C 1184 331 1171 270 1146 217 C 1120 164 1084 120 1038 85 C 992 49 936 22 870 4 C 804 -13 730 -23 649 -23 C 568 -23 495 -14 429 3 C 363 21 308 47 262 82 C 216 117 181 161 156 214 C 131 266 119 327 119 397 C 119 491 144 569 194 631 C 244 693 313 738 403 768 C 337 793 284 830 242 879 C 200 928 180 992 180 1071 C 180 1126 190 1177 211 1225 C 231 1272 262 1313 302 1347 C 342 1381 391 1407 450 1427 C 509 1446 577 1456 653 1456 C 729 1456 796 1446 855 1427 C 913 1408 962 1382 1002 1349 C 1041 1315 1071 1275 1091 1228 C 1111 1181 1122 1130 1122 1075 C 1122 999 1101 936 1061 888 C 1020 839 966 800 899 772 C 988 742 1058 697 1108 635 C 1158 573 1184 495 1184 401 Z M 965 1071 C 965 1101 959 1130 948 1160 C 936 1189 918 1215 893 1237 C 868 1259 835 1278 795 1292 C 755 1306 706 1313 649 1313 C 592 1313 544 1306 504 1292 C 464 1278 431 1261 407 1239 C 383 1217 365 1191 354 1163 C 343 1134 338 1105 338 1075 C 338 1005 366 947 422 901 C 478 854 555 831 653 831 C 748 831 824 854 880 901 C 936 948 965 1005 965 1071 Z M 1026 397 C 1026 480 993 549 927 605 C 861 660 768 688 649 688 C 530 688 438 661 373 607 C 308 553 276 484 276 401 C 276 317 307 250 370 198 C 433 146 527 121 653 121 C 778 121 871 146 933 196 C 995 246 1026 313 1026 397 Z" unicode="8" />
<glyph horiz-adv-x="1257" d="M 1133 891 C 1133 798 1119 700 1091 596 C 1063 492 1018 396 954 308 C 890 220 804 145 698 83 C 591 21 459 -13 303 -23 L 303 119 C 490 135 640 195 754 297 C 867 399 942 540 979 721 C 933 672 877 632 813 600 C 748 568 665 553 565 553 C 499 553 438 562 380 580 C 322 598 271 625 229 661 C 186 697 152 742 127 797 C 102 852 90 917 90 991 C 90 1067 103 1135 130 1193 C 157 1251 194 1300 241 1339 C 288 1377 344 1406 409 1426 C 473 1446 543 1456 618 1456 C 688 1456 755 1445 818 1425 C 881 1404 936 1371 982 1327 C 1028 1282 1065 1224 1092 1152 C 1119 1080 1133 993 1133 891 Z M 975 999 C 975 1043 966 1085 948 1123 C 930 1161 906 1195 874 1223 C 842 1251 804 1273 760 1289 C 715 1305 666 1313 612 1313 C 494 1313 403 1283 341 1225 C 279 1166 248 1091 248 999 C 248 903 279 829 343 776 C 406 722 494 696 606 696 C 719 696 809 723 875 779 C 941 835 975 908 975 999 Z" unicode="9" />
<glyph horiz-adv-x="492" d="M 377 963 C 377 927 363 896 337 870 C 310 844 280 831 246 831 C 210 831 179 844 153 870 C 127 896 115 927 115 963 C 115 998 127 1029 153 1057 C 179 1084 210 1098 246 1098 C 280 1098 310 1084 337 1057 C 363 1029 377 998 377 963 Z M 377 109 C 377 73 363 42 337 16 C 310 -10 280 -23 246 -23 C 210 -23 179 -10 153 16 C 127 42 115 73 115 109 C 115 144 127 175 153 203 C 179 230 210 244 246 244 C 280 244 310 230 337 203 C 363 175 377 144 377 109 Z" unicode=":" />
<glyph horiz-adv-x="492" d="M 377 963 C 377 927 363 896 337 870 C 310 844 280 831 246 831 C 210 831 179 844 153 870 C 127 896 115 927 115 963 C 115 998 127 1029 153 1057 C 179 1084 210 1098 246 1098 C 280 1098 310 1084 337 1057 C 363 1029 377 998 377 963 Z M 348 236 L 215 -242 L 109 -242 L 139 236 L 348 236 Z" unicode=";" />
<glyph horiz-adv-x="788" d="M 647 127 L 117 635 L 117 774 L 647 1282 L 647 1092 L 238 707 L 647 322 L 647 127 Z" unicode="&#x3C;" />
<glyph horiz-adv-x="1182" d="M 1018 856 L 164 856 L 164 999 L 1018 999 L 1018 856 Z M 1018 410 L 164 410 L 164 553 L 1018 553 L 1018 410 Z" unicode="=" />
<glyph horiz-adv-x="788" d="M 672 635 L 141 127 L 141 317 L 551 702 L 141 1087 L 141 1282 L 672 774 L 672 635 Z" unicode="&#x3E;" />
<glyph horiz-adv-x="1149" d="M 1012 1104 C 1012 1054 1006 1012 994 976 C 982 940 966 908 945 880 C 923 852 897 827 865 804 C 833 781 798 757 758 733 C 724 712 696 692 676 673 C 655 654 639 632 628 608 C 617 583 610 553 607 518 C 603 482 602 438 602 385 L 444 385 C 444 453 446 509 451 555 C 456 600 467 639 484 672 C 500 705 525 735 557 763 C 589 790 632 820 686 854 C 739 886 780 920 809 954 C 837 988 852 1034 852 1092 C 852 1157 825 1210 771 1250 C 717 1290 648 1311 563 1311 C 487 1311 420 1296 361 1268 C 301 1240 245 1201 193 1153 L 90 1266 C 144 1318 211 1363 293 1400 C 374 1437 466 1456 569 1456 C 633 1456 693 1448 748 1433 C 802 1418 849 1396 888 1367 C 926 1337 957 1301 979 1257 C 1001 1213 1012 1162 1012 1104 Z M 645 102 C 645 68 632 39 607 14 C 581 -10 552 -23 520 -23 C 486 -23 457 -10 432 14 C 407 39 395 68 395 102 C 395 136 407 166 432 192 C 457 218 486 231 520 231 C 552 231 581 218 607 192 C 632 166 645 136 645 102 Z" unicode="?" />
<glyph horiz-adv-x="1712" d="M 1595 737 C 1595 583 1567 473 1512 408 C 1456 343 1383 311 1292 311 C 1241 311 1196 323 1158 349 C 1120 374 1091 404 1073 440 C 1042 401 1004 370 959 346 C 913 322 863 311 807 311 C 763 311 721 316 683 328 C 645 339 612 356 584 379 C 556 402 534 431 518 467 C 502 503 494 544 494 592 C 494 635 502 673 519 707 C 536 740 559 768 589 791 C 619 813 654 830 695 842 C 735 854 779 860 825 860 C 878 860 923 854 959 844 C 995 833 1027 820 1053 805 L 1053 926 C 1053 970 1036 1002 1003 1024 C 969 1046 916 1057 842 1057 C 805 1057 769 1052 733 1043 C 697 1034 664 1022 633 1008 L 588 1096 C 628 1116 671 1132 715 1143 C 759 1153 806 1159 856 1159 C 946 1159 1019 1142 1075 1108 C 1131 1074 1159 1015 1159 932 L 1159 537 C 1159 500 1170 468 1193 442 C 1216 416 1253 403 1305 403 C 1359 403 1404 428 1440 478 C 1475 528 1493 614 1493 735 C 1493 827 1477 912 1445 990 C 1413 1067 1368 1133 1312 1187 C 1256 1241 1188 1284 1110 1314 C 1032 1344 947 1360 856 1360 C 764 1360 679 1344 601 1314 C 523 1283 455 1240 399 1185 C 343 1129 299 1062 267 983 C 235 904 219 817 219 721 C 219 624 235 536 267 456 C 299 376 343 307 399 251 C 455 195 523 151 601 120 C 679 89 764 74 856 74 C 910 74 959 79 1004 89 C 1048 99 1092 115 1135 137 L 1171 47 C 1113 20 1060 2 1013 -8 C 966 -18 914 -23 856 -23 C 749 -23 650 -4 560 32 C 469 69 391 120 326 186 C 260 252 209 330 172 421 C 135 511 117 610 117 717 C 117 823 135 922 172 1013 C 209 1103 260 1181 326 1247 C 391 1312 469 1363 560 1400 C 650 1437 749 1456 856 1456 C 964 1456 1064 1436 1155 1398 C 1246 1359 1324 1307 1389 1242 C 1453 1177 1504 1101 1540 1013 C 1576 925 1595 833 1595 737 Z M 1053 702 C 1027 717 994 731 954 743 C 914 755 868 762 815 762 C 753 762 703 746 665 716 C 627 685 608 646 608 598 C 608 538 624 493 658 461 C 692 429 745 414 817 414 C 865 414 910 425 953 448 C 996 471 1029 501 1053 537 L 1053 702 Z" unicode="@" />
<glyph horiz-adv-x="1389" d="M 940 510 L 782 981 C 774 1004 766 1029 758 1056 C 749 1083 740 1109 732 1135 C 724 1161 716 1185 710 1208 C 703 1230 698 1249 694 1264 C 690 1249 685 1230 679 1208 C 672 1186 665 1162 657 1136 C 649 1110 640 1083 631 1055 C 621 1027 612 1001 604 977 L 446 510 L 940 510 Z M 1280 0 L 1112 0 L 989 365 L 397 365 L 272 0 L 109 0 L 606 1434 L 782 1434 L 1280 0 Z" unicode="A" />
<glyph horiz-adv-x="1282" d="M 1169 424 C 1169 283 1128 177 1048 106 C 967 35 852 0 702 0 L 188 0 L 188 1434 L 713 1434 C 769 1434 821 1426 869 1412 C 917 1398 958 1376 992 1347 C 1026 1317 1053 1280 1073 1235 C 1092 1189 1102 1136 1102 1075 C 1102 997 1082 934 1043 886 C 1004 838 955 803 895 782 C 927 773 960 760 993 744 C 1025 727 1055 705 1081 677 C 1107 649 1128 614 1144 572 C 1160 530 1169 481 1169 424 Z M 942 1069 C 942 1134 922 1187 884 1227 C 845 1267 786 1288 707 1288 L 348 1288 L 348 842 L 694 842 C 782 842 846 864 884 909 C 922 953 942 1007 942 1069 Z M 1010 416 C 1010 505 982 574 927 624 C 871 673 797 698 705 698 L 348 698 L 348 145 L 713 145 C 819 145 895 169 941 219 C 987 269 1010 334 1010 416 Z" unicode="B" />
<glyph horiz-adv-x="1286" d="M 1176 215 C 1124 145 1058 87 980 43 C 901 0 810 -23 707 -23 C 619 -23 540 -4 468 33 C 396 71 335 122 285 188 C 235 254 196 332 168 422 C 140 512 127 610 127 715 C 127 821 141 919 170 1010 C 198 1101 238 1179 290 1245 C 341 1311 403 1362 475 1400 C 547 1437 627 1456 713 1456 C 810 1456 896 1437 972 1399 C 1047 1361 1113 1304 1169 1227 L 1042 1130 C 996 1192 948 1237 899 1267 C 849 1296 786 1311 709 1311 C 647 1311 591 1296 539 1267 C 487 1237 443 1197 406 1145 C 368 1093 339 1031 318 958 C 297 885 287 805 287 719 C 287 631 297 551 319 478 C 341 404 370 341 408 289 C 446 237 491 196 543 167 C 595 137 651 123 711 123 C 788 123 855 139 911 173 C 967 206 1019 252 1065 311 L 1176 215 Z" unicode="C" />
<glyph horiz-adv-x="1348" d="M 1221 727 C 1221 597 1203 486 1168 394 C 1132 302 1084 226 1023 168 C 962 110 890 67 807 40 C 723 13 634 0 539 0 L 188 0 L 188 1434 L 567 1434 C 661 1434 748 1420 828 1392 C 908 1364 977 1322 1035 1265 C 1093 1207 1138 1134 1171 1045 C 1204 955 1221 849 1221 727 Z M 1061 721 C 1061 903 1017 1043 931 1141 C 844 1239 719 1288 555 1288 L 348 1288 L 348 145 L 559 145 C 713 145 835 189 925 279 C 1015 369 1061 516 1061 721 Z" unicode="D" />
<glyph horiz-adv-x="1202" d="M 1085 0 L 188 0 L 188 1434 L 1055 1434 L 1055 1288 L 348 1288 L 348 838 L 758 838 L 758 692 L 348 692 L 348 145 L 1085 145 L 1085 0 Z" unicode="E" />
<glyph horiz-adv-x="1122" d="M 1030 1288 L 348 1288 L 348 813 L 741 813 L 741 668 L 348 668 L 348 0 L 188 0 L 188 1434 L 1030 1434 L 1030 1288 Z" unicode="F" />
<glyph horiz-adv-x="1350" d="M 1237 571 C 1237 473 1223 386 1196 312 C 1169 237 1132 175 1085 126 C 1038 76 982 39 917 14 C 852 -10 782 -23 707 -23 C 619 -23 540 -4 468 33 C 396 71 335 122 285 188 C 235 254 196 332 168 422 C 140 512 127 610 127 715 C 127 821 141 919 170 1010 C 198 1101 238 1179 290 1245 C 341 1311 403 1362 475 1400 C 547 1437 627 1456 713 1456 C 810 1456 896 1437 972 1399 C 1047 1361 1113 1304 1169 1227 L 1042 1130 C 996 1192 948 1237 899 1267 C 849 1296 786 1311 709 1311 C 647 1311 591 1296 539 1267 C 487 1237 443 1197 406 1145 C 368 1093 339 1031 318 958 C 297 885 287 805 287 719 C 287 631 297 551 319 478 C 341 404 371 341 409 289 C 447 237 491 196 543 167 C 595 137 651 123 711 123 C 829 123 921 159 985 232 C 1049 304 1081 411 1081 551 L 1081 563 L 823 563 L 823 711 L 1237 711 L 1237 571 Z" unicode="G" />
<glyph horiz-adv-x="1409" d="M 188 1434 L 348 1434 L 348 821 L 1061 821 L 1061 1434 L 1221 1434 L 1221 0 L 1061 0 L 1061 676 L 348 676 L 348 0 L 188 0 L 188 1434 Z" unicode="H" />
<glyph horiz-adv-x="557" d="M 358 0 L 199 0 L 199 1434 L 358 1434 L 358 0 Z" unicode="I" />
<glyph horiz-adv-x="1184" d="M 1006 549 C 1006 358 965 215 884 120 C 802 24 680 -23 516 -23 C 395 -23 298 7 226 67 C 154 127 99 212 61 324 L 213 375 C 241 297 279 236 325 191 C 371 145 437 123 522 123 C 636 123 719 157 770 226 C 820 295 846 405 846 555 L 846 1434 L 1006 1434 L 1006 549 Z" unicode="J" />
<glyph horiz-adv-x="1315" d="M 348 412 L 348 0 L 188 0 L 188 1434 L 348 1434 L 348 616 C 357 629 370 648 388 672 C 406 696 425 722 445 749 C 465 775 485 802 505 829 C 525 855 543 878 557 897 L 973 1434 L 1147 1434 L 727 895 L 1227 0 L 1044 0 L 621 764 L 348 412 Z" unicode="K" />
<glyph horiz-adv-x="1178" d="M 1057 0 L 188 0 L 188 1434 L 348 1434 L 348 145 L 1057 145 L 1057 0 Z" unicode="L" />
<glyph horiz-adv-x="1614" d="M 1186 887 L 803 -37 L 426 887 C 410 923 394 965 377 1012 C 360 1059 348 1096 342 1124 L 342 0 L 188 0 L 188 1434 L 367 1434 L 705 575 C 713 553 723 529 733 503 C 743 477 752 451 762 426 C 772 400 781 376 789 353 C 797 330 803 311 807 297 C 811 312 818 331 826 354 C 834 377 842 401 852 427 C 862 453 872 479 882 505 C 892 531 901 554 909 575 L 1251 1434 L 1425 1434 L 1425 0 L 1272 0 L 1272 1124 C 1264 1096 1252 1059 1235 1013 C 1217 967 1201 925 1186 887 Z" unicode="M" />
<glyph horiz-adv-x="1409" d="M 342 1161 L 342 0 L 188 0 L 188 1434 L 344 1434 L 965 434 C 972 422 981 407 991 390 C 1001 373 1010 356 1020 339 C 1030 322 1039 306 1047 291 C 1055 275 1062 263 1067 254 L 1067 1434 L 1221 1434 L 1221 0 L 1071 0 L 444 981 C 436 993 428 1007 418 1024 C 408 1041 398 1058 388 1075 C 378 1092 369 1108 361 1124 C 353 1139 346 1151 342 1161 Z" unicode="N" />
<glyph horiz-adv-x="1444" d="M 127 715 C 127 822 141 921 170 1013 C 199 1104 239 1182 291 1247 C 343 1312 405 1363 479 1400 C 553 1437 634 1456 723 1456 C 811 1456 892 1437 966 1401 C 1039 1365 1101 1314 1153 1249 C 1205 1184 1245 1106 1274 1016 C 1302 925 1317 826 1317 719 C 1317 611 1302 512 1273 421 C 1244 329 1203 251 1151 186 C 1099 120 1036 69 962 32 C 888 -4 807 -23 719 -23 C 630 -23 549 -4 476 32 C 402 68 340 119 289 184 C 237 248 197 326 169 417 C 141 508 127 607 127 715 Z M 1157 715 C 1157 804 1145 885 1123 959 C 1101 1033 1070 1096 1031 1148 C 991 1200 945 1240 891 1268 C 837 1296 779 1311 717 1311 C 655 1311 597 1297 545 1269 C 492 1241 447 1201 409 1150 C 371 1098 341 1036 319 963 C 297 889 287 808 287 719 C 287 629 298 547 320 473 C 342 399 373 337 412 285 C 451 233 497 193 551 165 C 605 137 663 123 725 123 C 787 123 844 137 897 165 C 950 193 996 232 1034 283 C 1072 334 1102 396 1124 470 C 1146 543 1157 625 1157 715 Z" unicode="O" />
<glyph horiz-adv-x="1266" d="M 1182 1006 C 1182 935 1170 872 1146 817 C 1122 761 1089 715 1047 678 C 1004 640 953 612 893 592 C 833 572 767 563 696 563 L 348 563 L 348 0 L 188 0 L 188 1434 L 725 1434 C 789 1434 850 1425 906 1408 C 962 1390 1010 1364 1051 1329 C 1091 1293 1123 1249 1147 1195 C 1170 1141 1182 1078 1182 1006 Z M 1022 999 C 1022 1091 995 1162 943 1212 C 891 1262 816 1288 719 1288 L 348 1288 L 348 709 L 698 709 C 807 709 888 733 942 783 C 995 832 1022 904 1022 999 Z" unicode="P" />
<glyph horiz-adv-x="1444" d="M 1065 102 L 1157 -47 L 1026 -125 L 936 23 C 903 8 868 -3 832 -11 C 795 -19 757 -23 719 -23 C 630 -23 549 -4 476 32 C 402 68 340 119 289 184 C 237 248 197 326 169 417 C 141 508 127 607 127 715 C 127 822 141 921 170 1013 C 199 1104 239 1182 291 1247 C 343 1312 405 1363 479 1400 C 553 1437 634 1456 723 1456 C 811 1456 892 1437 966 1401 C 1039 1365 1101 1314 1153 1249 C 1205 1184 1245 1106 1274 1016 C 1302 925 1317 826 1317 719 C 1317 586 1294 466 1249 359 C 1203 251 1142 166 1065 102 Z M 717 1311 C 655 1311 597 1297 545 1269 C 492 1241 447 1201 409 1150 C 371 1098 341 1036 319 963 C 297 889 287 808 287 719 C 287 629 298 547 320 473 C 342 399 373 337 412 285 C 451 233 497 193 551 165 C 605 137 663 123 725 123 C 748 123 771 125 794 129 C 817 133 839 139 860 147 L 743 338 L 874 416 L 989 227 C 1040 276 1081 342 1111 425 C 1141 507 1157 604 1157 715 C 1157 804 1145 885 1123 959 C 1101 1033 1070 1096 1031 1148 C 991 1200 945 1240 891 1268 C 837 1296 779 1311 717 1311 Z" unicode="Q" />
<glyph horiz-adv-x="1331" d="M 750 1288 L 348 1288 L 348 754 L 729 754 C 835 754 913 776 965 821 C 1016 865 1042 932 1042 1022 C 1042 1109 1017 1175 967 1220 C 917 1265 844 1288 750 1288 Z M 864 623 L 1180 0 L 995 0 L 688 610 L 348 610 L 348 0 L 188 0 L 188 1434 L 756 1434 C 818 1434 877 1425 932 1409 C 986 1393 1033 1368 1073 1335 C 1113 1301 1144 1259 1167 1208 C 1190 1156 1202 1096 1202 1028 C 1202 917 1171 827 1109 758 C 1047 689 966 644 864 623 Z" unicode="R" />
<glyph horiz-adv-x="1212" d="M 1069 377 C 1069 321 1058 268 1036 219 C 1014 170 983 128 943 92 C 903 56 853 28 794 8 C 735 -12 668 -23 594 -23 C 496 -23 406 -4 322 33 C 238 71 169 118 113 176 L 219 295 C 273 243 331 201 395 170 C 458 138 526 123 600 123 C 695 123 770 145 826 189 C 881 233 909 293 909 369 C 909 435 884 490 836 535 C 787 579 697 625 567 672 C 413 726 305 784 245 845 C 184 905 154 987 154 1090 C 154 1146 164 1197 186 1243 C 208 1289 238 1327 277 1359 C 316 1390 363 1414 419 1431 C 474 1447 535 1456 602 1456 C 698 1456 779 1442 847 1415 C 914 1388 978 1351 1038 1303 L 936 1178 C 884 1220 831 1253 778 1276 C 725 1299 663 1311 592 1311 C 494 1311 423 1289 379 1247 C 335 1205 313 1156 313 1100 C 313 1070 317 1043 326 1019 C 334 994 351 971 376 949 C 400 927 435 904 479 882 C 523 860 581 836 653 811 C 732 782 798 753 852 724 C 905 695 948 664 980 630 C 1012 596 1034 559 1048 518 C 1062 476 1069 429 1069 377 Z" unicode="S" />
<glyph horiz-adv-x="1204" d="M 1104 1288 L 682 1288 L 682 0 L 522 0 L 522 1288 L 100 1288 L 100 1434 L 1104 1434 L 1104 1288 Z" unicode="T" />
<glyph horiz-adv-x="1389" d="M 1210 586 C 1210 388 1167 237 1081 133 C 995 29 867 -23 696 -23 C 526 -23 397 28 309 131 C 221 233 178 384 178 582 L 178 1434 L 338 1434 L 338 586 C 338 432 368 316 429 239 C 489 161 581 123 705 123 C 827 123 916 161 970 237 C 1024 313 1051 428 1051 582 L 1051 1434 L 1210 1434 L 1210 586 Z" unicode="U" />
<glyph horiz-adv-x="1368" d="M 1260 1434 L 772 0 L 596 0 L 109 1434 L 276 1434 L 596 453 C 603 431 611 407 620 379 C 628 351 637 324 645 298 C 653 271 661 246 668 223 C 675 200 680 182 684 170 C 687 182 692 200 700 224 C 707 248 715 273 724 301 C 733 328 742 356 751 384 C 759 412 767 436 774 457 L 1096 1434 L 1260 1434 Z" unicode="V" />
<glyph horiz-adv-x="1753" d="M 1636 1434 L 1350 0 L 1169 0 L 944 918 C 938 941 932 967 926 995 C 920 1023 913 1052 907 1081 C 901 1110 895 1138 889 1166 C 883 1194 878 1219 874 1241 C 866 1197 855 1144 842 1083 C 829 1021 817 966 805 918 L 580 0 L 403 0 L 117 1434 L 276 1434 L 444 512 C 448 488 452 462 457 432 C 462 402 467 372 472 343 C 477 313 482 285 486 259 C 490 232 494 210 498 193 C 500 210 504 232 510 258 C 515 284 521 312 527 342 C 533 371 540 400 547 430 C 553 459 559 485 565 508 L 793 1434 L 965 1434 L 1192 508 C 1197 485 1203 459 1210 430 C 1216 400 1223 371 1229 342 C 1235 312 1241 284 1247 258 C 1252 232 1256 210 1260 193 C 1262 210 1266 232 1270 259 C 1274 285 1279 313 1284 343 C 1289 372 1294 402 1299 432 C 1304 462 1309 488 1313 512 L 1481 1434 L 1636 1434 Z" unicode="W" />
<glyph horiz-adv-x="1294" d="M 1178 0 L 997 0 L 778 375 C 751 421 727 463 705 501 C 683 539 664 576 647 612 C 627 576 607 538 587 500 C 566 461 542 419 516 375 L 293 0 L 117 0 L 563 745 L 154 1434 L 334 1434 L 518 1120 C 544 1075 568 1033 589 995 C 609 956 629 919 649 883 C 666 918 685 955 707 993 C 729 1031 753 1074 780 1120 L 965 1434 L 1141 1434 L 731 750 L 1178 0 Z" unicode="X" />
<glyph horiz-adv-x="1335" d="M 1239 1434 L 748 569 L 748 0 L 588 0 L 588 567 L 96 1434 L 279 1434 L 508 1022 C 536 970 565 916 595 861 C 624 805 649 757 670 715 C 690 757 715 806 744 862 C 773 918 802 971 831 1022 L 1061 1434 L 1239 1434 Z" unicode="Y" />
<glyph horiz-adv-x="1286" d="M 1149 0 L 125 0 L 125 139 L 803 1063 C 831 1101 861 1141 891 1182 C 921 1222 950 1260 977 1294 L 166 1294 L 166 1434 L 1149 1434 L 1149 1294 L 471 371 C 442 332 412 292 382 252 C 352 211 323 173 297 139 L 1149 139 L 1149 0 Z" unicode="Z" />
<glyph horiz-adv-x="721" d="M 592 -225 L 195 -225 L 195 1434 L 592 1434 L 592 1309 L 344 1309 L 344 -100 L 592 -100 L 592 -225 Z" unicode="[" />
<glyph horiz-adv-x="870" d="M 817 -184 L 666 -184 L 53 1618 L 205 1618 L 817 -184 Z" unicode="\" />
<glyph horiz-adv-x="721" d="M 526 -225 L 129 -225 L 129 -100 L 377 -100 L 377 1309 L 129 1309 L 129 1434 L 526 1434 L 526 -225 Z" unicode="]" />
<glyph horiz-adv-x="1143" d="M 1047 782 L 870 782 L 569 1266 L 268 782 L 96 782 L 514 1434 L 629 1434 L 1047 782 Z" unicode="^" />
<glyph horiz-adv-x="1024" d="M 1024 -313 L 0 -313 L 0 -184 L 1024 -184 L 1024 -313 Z" unicode="_" />
<glyph horiz-adv-x="1024" d="M 668 1219 L 547 1219 L 238 1546 L 457 1546 L 668 1219 Z" unicode="`" />
<glyph horiz-adv-x="1104" d="M 786 481 C 752 500 713 515 671 526 C 629 537 575 543 510 543 C 431 543 369 524 325 488 C 280 451 258 399 258 332 C 258 252 278 194 318 157 C 358 120 411 102 477 102 C 546 102 607 117 659 149 C 711 181 753 219 786 264 L 786 481 Z M 940 0 L 786 0 L 786 131 C 748 90 702 54 647 23 C 592 -7 527 -23 451 -23 C 409 -23 367 -17 326 -5 C 284 6 247 25 215 52 C 183 78 156 114 136 158 C 116 202 106 257 106 322 C 106 382 117 433 140 477 C 163 521 194 556 232 584 C 270 612 314 632 364 646 C 414 659 465 666 518 666 C 572 666 622 660 669 648 C 715 636 754 621 786 604 L 786 731 C 786 810 766 869 728 909 C 690 949 631 969 553 969 C 497 969 445 961 397 947 C 349 932 304 912 260 887 L 203 1012 C 249 1037 304 1058 366 1074 C 428 1090 493 1098 563 1098 C 678 1098 770 1071 838 1017 C 906 963 940 874 940 750 L 940 0 Z" unicode="a" />
<glyph horiz-adv-x="1145" d="M 1032 555 C 1032 460 1021 376 1000 304 C 978 231 949 171 913 123 C 877 75 834 38 785 14 C 735 -10 683 -23 627 -23 C 559 -23 501 -9 453 17 C 404 43 361 78 324 121 L 324 0 L 170 0 L 170 1407 L 324 1493 L 324 944 C 361 984 406 1020 459 1051 C 512 1082 575 1098 647 1098 C 700 1098 750 1087 797 1066 C 844 1045 885 1013 920 969 C 954 925 982 868 1002 799 C 1022 730 1032 649 1032 555 Z M 881 553 C 881 687 856 789 808 859 C 759 929 692 965 608 965 C 551 965 499 950 451 922 C 403 893 361 855 324 809 L 324 272 C 353 227 393 189 443 158 C 493 126 550 111 614 111 C 703 111 770 148 814 224 C 858 299 881 409 881 553 Z" unicode="b" />
<glyph horiz-adv-x="1014" d="M 911 127 C 866 81 816 44 761 17 C 705 -9 640 -23 565 -23 C 506 -23 449 -11 395 11 C 340 34 292 68 250 114 C 208 160 175 217 150 287 C 125 357 113 438 113 532 C 113 631 126 716 153 788 C 180 860 215 918 259 964 C 303 1010 352 1043 408 1065 C 463 1087 519 1098 575 1098 C 647 1098 712 1085 768 1061 C 824 1037 873 1007 915 971 L 823 856 C 784 890 745 917 705 936 C 665 955 619 965 565 965 C 481 965 411 928 354 855 C 296 781 268 678 268 545 C 268 413 294 308 348 229 C 402 150 476 111 571 111 C 623 111 668 121 706 141 C 744 161 782 189 819 225 L 911 127 Z" unicode="c" />
<glyph horiz-adv-x="1145" d="M 821 803 C 791 847 751 885 701 917 C 650 949 593 965 530 965 C 441 965 374 927 330 851 C 286 775 264 666 264 522 C 264 388 288 286 337 216 C 385 146 452 111 537 111 C 593 111 645 125 693 153 C 740 181 783 219 821 266 L 821 803 Z M 975 0 L 821 0 L 821 131 C 783 90 737 54 685 23 C 632 -7 570 -23 498 -23 C 444 -23 394 -12 347 8 C 300 29 259 62 225 106 C 190 150 163 206 143 275 C 123 344 113 426 113 520 C 113 614 123 698 145 771 C 166 843 195 904 231 952 C 267 1000 310 1036 360 1061 C 409 1085 462 1098 518 1098 C 585 1098 643 1084 691 1058 C 739 1031 783 996 821 954 L 821 1407 L 975 1493 L 975 0 Z" unicode="d" />
<glyph horiz-adv-x="1106" d="M 983 485 L 266 485 C 273 371 303 280 355 212 C 407 144 477 111 565 111 C 627 111 679 119 723 137 C 767 155 813 180 862 213 L 934 102 C 870 61 810 30 754 9 C 698 -12 629 -23 549 -23 C 499 -23 449 -13 397 6 C 345 26 299 58 257 102 C 215 146 180 204 153 277 C 126 349 113 438 113 543 C 113 628 124 705 146 774 C 168 842 199 900 239 948 C 278 996 325 1033 379 1059 C 433 1085 493 1098 557 1098 C 627 1098 689 1084 743 1058 C 797 1032 842 995 878 949 C 914 902 942 846 961 781 C 979 716 989 645 989 569 C 989 550 988 534 987 522 C 986 510 985 497 983 485 Z M 846 610 C 840 714 813 799 766 865 C 718 931 648 965 555 965 C 475 965 410 935 358 877 C 306 818 275 729 266 610 L 846 610 Z" unicode="e" />
<glyph horiz-adv-x="729" d="M 633 1323 C 615 1331 596 1337 576 1341 C 555 1345 532 1348 508 1348 C 476 1348 449 1340 428 1325 C 407 1309 397 1279 397 1235 L 397 1075 L 608 1075 L 608 946 L 397 946 L 397 0 L 244 0 L 244 946 L 96 946 L 96 1075 L 244 1075 L 244 1223 C 244 1318 267 1386 315 1426 C 362 1466 423 1487 498 1487 C 528 1487 554 1485 574 1482 C 594 1479 614 1474 633 1468 L 633 1323 Z" unicode="f" />
<glyph horiz-adv-x="1145" d="M 975 96 C 975 -64 933 -185 851 -265 C 769 -345 628 -389 430 -395 L 381 -279 C 470 -276 543 -268 601 -254 C 658 -240 703 -219 735 -191 C 767 -163 790 -127 802 -83 C 814 -39 821 14 821 76 L 821 131 C 783 90 737 54 685 23 C 632 -7 570 -23 498 -23 C 444 -23 394 -12 347 8 C 300 29 259 62 225 106 C 190 150 163 206 143 275 C 123 344 113 426 113 520 C 113 614 123 698 145 771 C 166 843 195 904 231 952 C 267 1000 310 1036 360 1061 C 409 1085 462 1098 518 1098 C 585 1098 643 1084 691 1058 C 739 1031 783 996 821 954 L 821 1075 L 975 1075 L 975 96 Z M 821 803 C 791 847 751 885 701 917 C 650 949 593 965 530 965 C 441 965 374 927 330 851 C 286 775 264 666 264 522 C 264 388 288 286 337 216 C 385 146 452 111 537 111 C 593 111 645 125 693 153 C 740 181 783 219 821 266 L 821 803 Z" unicode="g" />
<glyph horiz-adv-x="1161" d="M 997 0 L 844 0 L 844 629 C 844 743 823 828 781 883 C 739 937 675 965 590 965 C 515 965 452 938 401 884 C 349 830 324 745 324 629 L 324 0 L 170 0 L 170 1407 L 324 1493 L 324 944 C 354 988 395 1025 445 1054 C 495 1083 553 1098 621 1098 C 733 1098 824 1062 893 992 C 962 921 997 809 997 655 L 997 0 Z" unicode="h" />
<glyph horiz-adv-x="514" d="M 367 1376 C 367 1346 356 1321 335 1300 C 313 1278 288 1268 260 1268 C 228 1268 202 1278 180 1300 C 158 1321 147 1346 147 1376 C 147 1406 158 1432 180 1454 C 202 1476 228 1487 260 1487 C 288 1487 313 1476 335 1454 C 356 1432 367 1406 367 1376 Z M 334 0 L 180 0 L 180 1075 L 334 1075 L 334 0 Z" unicode="i" />
<glyph horiz-adv-x="514" d="M 367 1376 C 367 1346 356 1321 335 1300 C 313 1278 288 1268 260 1268 C 228 1268 202 1278 180 1300 C 158 1321 147 1346 147 1376 C 147 1406 158 1432 180 1454 C 202 1476 228 1487 260 1487 C 288 1487 313 1476 335 1454 C 356 1432 367 1406 367 1376 Z M 334 25 C 334 -36 330 -89 322 -135 C 314 -180 299 -219 277 -252 C 254 -284 222 -312 180 -335 C 138 -358 83 -378 16 -395 L -35 -281 C 13 -266 52 -251 81 -235 C 109 -219 131 -200 146 -178 C 160 -156 170 -128 174 -96 C 178 -63 180 -22 180 27 L 180 1075 L 334 1075 L 334 25 Z" unicode="j" />
<glyph horiz-adv-x="1034" d="M 324 309 L 324 0 L 170 0 L 170 1407 L 324 1493 L 324 510 L 367 575 L 719 1075 L 891 1075 L 608 694 L 948 0 L 782 0 L 510 565 L 324 309 Z" unicode="k" />
<glyph horiz-adv-x="514" d="M 334 0 L 180 0 L 180 1407 L 334 1493 L 334 0 Z" unicode="l" />
<glyph horiz-adv-x="1737" d="M 1573 0 L 1419 0 L 1419 629 C 1419 751 1399 837 1361 888 C 1323 939 1265 965 1188 965 C 1115 965 1057 938 1013 885 C 969 832 948 747 948 629 L 948 0 L 795 0 L 795 629 C 795 751 775 837 735 888 C 695 939 637 965 563 965 C 489 965 431 938 388 885 C 345 832 324 747 324 629 L 324 0 L 170 0 L 170 1075 L 324 1075 L 324 944 C 351 990 387 1027 433 1055 C 478 1083 532 1098 596 1098 C 671 1098 733 1080 781 1044 C 829 1008 865 964 891 913 C 922 964 962 1008 1012 1044 C 1061 1080 1129 1098 1217 1098 C 1325 1098 1412 1063 1476 993 C 1540 923 1573 811 1573 655 L 1573 0 Z" unicode="m" />
<glyph horiz-adv-x="1161" d="M 997 0 L 844 0 L 844 629 C 844 743 823 828 781 883 C 739 937 675 965 590 965 C 515 965 452 938 401 884 C 349 830 324 745 324 629 L 324 0 L 170 0 L 170 1075 L 324 1075 L 324 944 C 354 988 395 1025 445 1054 C 495 1083 553 1098 621 1098 C 733 1098 824 1062 893 992 C 962 921 997 809 997 655 L 997 0 Z" unicode="n" />
<glyph horiz-adv-x="1159" d="M 575 -23 C 509 -23 448 -10 392 13 C 336 37 287 73 246 120 C 204 167 172 226 148 296 C 124 366 113 446 113 537 C 113 627 125 708 150 778 C 174 848 208 906 250 954 C 292 1001 342 1037 400 1061 C 457 1085 518 1098 584 1098 C 649 1098 710 1086 767 1062 C 823 1038 872 1004 914 958 C 955 912 987 854 1011 785 C 1035 715 1047 635 1047 545 C 1047 454 1034 373 1010 302 C 985 231 951 172 909 124 C 867 76 817 39 759 14 C 701 -10 640 -23 575 -23 Z M 580 965 C 486 965 411 929 354 858 C 296 786 268 681 268 541 C 268 400 296 293 354 220 C 411 147 486 111 580 111 C 672 111 748 147 806 220 C 864 293 893 400 893 541 C 893 681 864 786 806 858 C 748 929 672 965 580 965 Z" unicode="o" />
<glyph horiz-adv-x="1145" d="M 608 965 C 551 965 499 950 451 922 C 403 893 361 855 324 809 L 324 272 C 353 227 393 189 443 158 C 493 126 550 111 614 111 C 703 111 770 148 814 224 C 858 299 881 409 881 553 C 881 687 856 789 808 859 C 759 929 692 965 608 965 Z M 627 -23 C 559 -23 501 -9 453 17 C 404 43 361 78 324 121 L 324 -309 L 170 -395 L 170 1075 L 324 1075 L 324 944 C 361 984 406 1020 459 1051 C 512 1082 575 1098 647 1098 C 700 1098 750 1087 797 1066 C 844 1045 885 1013 920 969 C 954 925 982 868 1002 799 C 1022 730 1032 649 1032 555 C 1032 460 1021 376 1000 304 C 978 231 949 171 913 123 C 877 75 834 38 785 14 C 735 -10 683 -23 627 -23 Z" unicode="p" />
<glyph horiz-adv-x="1145" d="M 975 -309 L 821 -395 L 821 131 C 783 90 737 54 685 23 C 632 -7 570 -23 498 -23 C 444 -23 394 -12 347 8 C 300 29 259 62 225 106 C 190 150 163 206 143 275 C 123 344 113 426 113 520 C 113 614 123 698 145 771 C 166 843 195 904 231 952 C 267 1000 310 1036 360 1061 C 409 1085 462 1098 518 1098 C 585 1098 643 1084 691 1058 C 739 1031 783 996 821 954 L 821 1075 L 975 1075 L 975 -309 Z M 821 266 L 821 803 C 791 847 751 885 701 917 C 650 949 593 965 530 965 C 441 965 374 927 330 851 C 286 775 264 666 264 522 C 264 388 288 286 337 216 C 385 146 452 111 537 111 C 593 111 645 125 693 153 C 740 181 783 219 821 266 Z" unicode="q" />
<glyph horiz-adv-x="834" d="M 719 915 C 697 927 674 937 649 945 C 623 952 593 956 557 956 C 483 956 425 927 385 870 C 344 812 324 733 324 631 L 324 0 L 170 0 L 170 1075 L 324 1075 L 324 942 C 348 984 384 1021 432 1052 C 480 1082 532 1098 590 1098 C 630 1098 663 1095 690 1090 C 716 1085 739 1079 758 1071 L 719 915 Z" unicode="r" />
<glyph horiz-adv-x="956" d="M 467 -23 C 393 -23 324 -10 260 15 C 196 41 138 74 88 115 L 178 227 C 220 189 267 160 317 140 C 367 119 418 109 471 109 C 544 109 598 123 634 152 C 670 181 688 222 688 274 C 688 318 669 355 632 386 C 595 417 529 453 434 494 C 380 516 334 538 296 560 C 257 581 225 604 201 628 C 176 652 158 680 146 712 C 134 743 129 780 129 823 C 129 904 160 970 224 1021 C 287 1072 367 1098 465 1098 C 538 1098 603 1087 661 1066 C 719 1044 768 1017 809 983 L 723 870 C 681 902 640 927 600 943 C 560 959 511 967 455 967 C 399 967 355 954 323 929 C 291 903 276 872 276 834 C 276 788 293 752 327 726 C 361 699 423 665 514 625 C 564 601 610 579 650 559 C 690 538 723 515 751 490 C 778 465 799 436 814 403 C 828 369 836 329 836 281 C 836 228 825 182 804 144 C 783 106 755 74 721 50 C 687 25 647 7 603 -5 C 558 -17 513 -23 467 -23 Z" unicode="s" />
<glyph horiz-adv-x="762" d="M 633 946 L 367 946 L 367 246 C 367 198 374 164 390 145 C 406 126 434 117 475 117 C 505 117 532 119 555 124 C 578 129 602 137 627 147 L 616 14 C 586 2 556 -7 525 -13 C 494 -19 458 -23 418 -23 C 352 -23 301 -4 266 32 C 230 69 213 132 213 221 L 213 946 L 80 946 L 80 1075 L 213 1075 L 213 1407 L 367 1493 L 367 1075 L 633 1075 L 633 946 Z" unicode="t" />
<glyph horiz-adv-x="1161" d="M 991 0 L 838 0 L 838 131 C 807 86 767 49 717 20 C 667 -8 608 -23 541 -23 C 427 -23 336 12 267 83 C 198 153 164 266 164 420 L 164 1075 L 317 1075 L 317 446 C 317 331 338 246 380 192 C 422 138 485 111 571 111 C 645 111 708 137 760 191 C 812 244 838 329 838 446 L 838 1075 L 991 1075 L 991 0 Z" unicode="u" />
<glyph horiz-adv-x="1069" d="M 987 1075 L 602 0 L 467 0 L 82 1075 L 246 1075 L 520 229 L 537 178 L 553 229 L 827 1075 L 987 1075 Z" unicode="v" />
<glyph horiz-adv-x="1495" d="M 1399 1075 L 1114 0 L 973 0 L 778 721 C 773 739 767 764 760 796 C 753 828 748 853 745 872 C 742 853 737 828 730 796 C 723 764 717 739 713 721 L 518 0 L 381 0 L 96 1075 L 254 1075 L 422 365 C 426 346 431 321 437 289 C 443 257 448 232 453 213 C 457 232 462 257 469 289 C 476 321 482 346 487 365 L 680 1075 L 819 1075 L 1012 365 C 1016 346 1022 321 1029 289 C 1036 257 1042 232 1047 213 C 1051 232 1056 257 1062 289 C 1068 321 1073 346 1077 365 L 1245 1075 L 1399 1075 Z" unicode="w" />
<glyph horiz-adv-x="1032" d="M 928 0 L 758 0 L 545 373 L 512 432 L 479 373 L 264 0 L 104 0 L 436 555 L 127 1075 L 297 1075 L 487 741 L 520 682 L 553 741 L 745 1075 L 905 1075 L 596 559 L 928 0 Z" unicode="x" />
<glyph horiz-adv-x="1087" d="M 1006 1075 L 471 -379 L 317 -379 L 465 12 L 82 1075 L 244 1075 L 506 295 L 543 184 L 580 293 L 844 1075 L 1006 1075 Z" unicode="y" />
<glyph horiz-adv-x="1008" d="M 872 0 L 111 0 L 111 113 L 698 946 L 158 946 L 158 1075 L 872 1075 L 872 963 L 285 129 L 872 129 L 872 0 Z" unicode="z" />
<glyph horiz-adv-x="813" d="M 705 -225 C 561 -221 455 -183 388 -112 C 320 -40 287 67 287 211 L 287 387 C 287 446 278 485 261 505 C 243 525 212 535 166 535 L 117 535 L 117 678 L 166 678 C 212 678 243 687 261 707 C 278 727 287 766 287 825 L 287 1008 C 287 1151 320 1258 388 1330 C 455 1402 561 1440 705 1444 L 705 1315 C 609 1304 541 1276 500 1232 C 458 1188 438 1119 438 1026 L 438 883 C 438 798 429 736 412 696 C 394 656 363 625 317 604 C 363 582 394 552 412 512 C 429 472 438 410 438 326 L 438 193 C 438 99 458 29 500 -14 C 541 -58 609 -86 705 -96 L 705 -225 Z" unicode="{" />
<glyph horiz-adv-x="623" d="M 385 -379 L 238 -379 L 238 1638 L 385 1638 L 385 -379 Z" unicode="|" />
<glyph horiz-adv-x="813" d="M 696 541 L 647 541 C 601 541 569 531 552 511 C 534 491 526 452 526 393 L 526 211 C 526 67 492 -40 425 -112 C 357 -183 252 -221 109 -225 L 109 -96 C 203 -86 271 -58 313 -14 C 354 29 375 99 375 193 L 375 336 C 375 420 383 482 401 522 C 418 562 450 592 496 614 C 450 635 418 666 401 706 C 383 746 375 808 375 893 L 375 1026 C 375 1119 354 1188 313 1232 C 271 1276 203 1304 109 1315 L 109 1444 C 252 1440 357 1402 425 1330 C 492 1258 526 1151 526 1008 L 526 831 C 526 772 534 733 552 713 C 569 693 601 684 647 684 L 696 684 L 696 541 Z" unicode="}" />
<glyph horiz-adv-x="1130" d="M 1042 864 C 1008 778 968 714 924 671 C 880 627 822 606 750 606 C 709 606 674 612 646 625 C 617 638 587 655 557 676 C 515 703 480 723 453 736 C 425 749 401 756 381 756 C 344 756 315 743 293 718 C 271 693 248 652 223 594 L 88 655 C 122 740 162 804 206 848 C 250 891 309 913 381 913 C 419 913 453 906 481 894 C 509 882 540 865 573 844 C 613 818 646 799 673 785 C 699 771 725 764 750 764 C 786 764 814 775 835 799 C 855 822 879 864 907 926 L 1042 864 Z" unicode="~" />
<glyph horiz-adv-x="532" d="" unicode=" " />
<glyph horiz-adv-x="539" d="M 395 1331 C 395 1297 382 1267 358 1241 C 333 1215 304 1202 270 1202 C 237 1202 208 1215 183 1241 C 157 1267 145 1297 145 1331 C 145 1365 157 1394 183 1419 C 208 1443 237 1456 270 1456 C 304 1456 333 1443 358 1419 C 382 1394 395 1365 395 1331 Z M 348 0 L 190 0 L 190 674 L 227 1049 L 313 1049 L 348 674 L 348 0 Z" unicode="¡" />
<glyph horiz-adv-x="1014" d="M 827 1053 C 783 1089 742 1115 705 1132 C 667 1148 621 1157 565 1157 C 481 1157 411 1120 354 1047 C 296 974 268 871 268 737 C 268 605 294 500 348 421 C 402 342 476 303 571 303 C 623 303 668 312 708 332 C 747 352 785 380 821 416 L 911 319 C 875 281 835 250 791 226 C 747 201 698 184 643 176 L 643 -23 L 485 -23 L 485 176 C 435 185 387 203 342 231 C 296 258 257 294 223 340 C 189 385 163 440 143 504 C 123 568 113 642 113 725 C 113 810 123 885 144 951 C 164 1016 192 1071 226 1117 C 260 1162 300 1198 345 1226 C 390 1253 437 1272 485 1282 L 485 1475 L 643 1475 L 643 1286 C 699 1279 749 1264 795 1242 C 841 1220 881 1193 915 1163 L 827 1053 Z" unicode="¢" />
<glyph horiz-adv-x="1251" d="M 1130 0 L 172 0 L 172 143 C 233 213 282 282 318 350 C 354 417 372 500 373 600 L 172 600 L 172 739 L 350 739 C 342 760 332 781 320 802 C 308 823 295 845 283 868 C 259 906 242 941 230 974 C 218 1007 213 1048 213 1098 C 213 1155 224 1206 248 1251 C 272 1295 304 1333 345 1363 C 386 1393 435 1416 491 1432 C 547 1448 608 1456 672 1456 C 760 1456 840 1440 912 1410 C 983 1379 1050 1335 1114 1278 L 1018 1161 C 966 1210 912 1248 854 1274 C 796 1300 734 1313 668 1313 C 568 1313 494 1291 445 1249 C 395 1206 371 1156 371 1100 C 371 1067 376 1036 387 1006 C 398 976 414 943 436 907 C 449 884 462 858 476 830 C 490 802 501 771 510 739 L 821 739 L 821 600 L 524 600 C 521 497 502 409 468 336 C 433 262 394 199 352 145 L 1130 145 L 1130 0 Z" unicode="£" />
<glyph horiz-adv-x="1219" d="M 1108 215 C 1054 143 993 86 926 42 C 859 -1 774 -23 670 -23 C 586 -23 510 -6 442 26 C 374 59 316 107 269 170 C 221 232 185 310 159 402 C 133 494 121 598 121 715 C 121 833 134 939 160 1032 C 186 1124 224 1202 272 1264 C 320 1326 378 1374 447 1407 C 515 1439 592 1456 676 1456 C 776 1456 858 1437 923 1401 C 988 1364 1048 1306 1102 1227 L 983 1135 C 939 1198 894 1244 850 1272 C 805 1300 746 1315 672 1315 C 570 1315 487 1282 424 1216 C 360 1150 317 1059 295 942 L 846 942 L 846 813 L 279 813 C 277 797 276 782 276 767 C 276 751 276 735 276 719 C 276 705 276 692 276 679 C 276 665 277 652 279 639 L 846 639 L 846 510 L 293 510 C 314 386 357 290 421 222 C 485 153 569 119 674 119 C 748 119 810 135 860 167 C 910 199 958 245 1006 305 L 1108 215 Z" unicode="¤" />
<glyph horiz-adv-x="1253" d="M 1178 1434 L 707 569 L 707 410 L 1024 410 L 1024 268 L 707 268 L 707 0 L 547 0 L 547 268 L 211 268 L 211 410 L 547 410 L 547 567 L 76 1434 L 258 1434 L 471 1022 C 498 968 526 912 556 854 C 585 796 609 746 629 705 C 648 746 672 796 702 856 C 731 916 759 971 786 1022 L 999 1434 L 1178 1434 Z" unicode="¥" />
<glyph horiz-adv-x="623" d="M 238 764 L 238 1638 L 385 1638 L 385 764 L 238 764 Z M 238 -379 L 238 496 L 385 496 L 385 -379 L 238 -379 Z" unicode="¦" />
<glyph horiz-adv-x="1286" d="M 1016 537 C 1016 565 1011 592 1003 616 C 995 640 979 663 956 684 C 932 704 899 724 857 742 C 815 760 760 778 692 795 C 656 803 622 812 589 822 C 556 832 525 843 496 856 C 425 823 370 783 330 736 C 290 689 270 638 270 584 C 270 554 274 527 282 503 C 290 479 306 456 330 436 C 353 415 386 396 429 378 C 471 360 526 342 594 326 C 630 316 664 307 697 297 C 729 287 761 276 791 264 C 861 296 916 336 956 383 C 996 430 1016 481 1016 537 Z M 1174 549 C 1174 466 1149 396 1100 338 C 1051 280 991 232 920 193 C 954 166 980 135 1000 99 C 1020 63 1030 22 1030 -25 C 1030 -72 1020 -115 1000 -153 C 980 -191 953 -224 919 -251 C 884 -278 842 -299 793 -314 C 744 -328 691 -336 633 -336 C 555 -336 485 -323 421 -297 C 357 -271 296 -235 238 -188 L 332 -74 C 386 -118 436 -149 484 -167 C 531 -184 589 -193 657 -193 C 719 -193 770 -178 811 -150 C 851 -121 872 -83 872 -37 C 872 9 851 48 811 82 C 771 116 694 147 580 176 C 490 198 416 222 356 247 C 296 271 248 299 212 330 C 176 361 150 396 135 436 C 120 475 113 520 113 571 C 113 653 137 723 186 781 C 235 839 295 888 367 928 C 332 954 305 985 285 1021 C 265 1057 256 1098 256 1145 C 256 1192 265 1235 285 1273 C 305 1311 332 1344 367 1371 C 401 1398 443 1419 492 1434 C 541 1448 595 1456 653 1456 C 730 1456 801 1443 865 1417 C 929 1391 991 1355 1049 1309 L 954 1194 C 900 1238 849 1269 802 1287 C 754 1304 697 1313 629 1313 C 567 1313 515 1298 475 1270 C 434 1241 414 1203 414 1157 C 414 1111 434 1071 474 1037 C 514 1003 592 972 707 944 C 796 921 871 897 931 873 C 991 848 1038 820 1074 789 C 1110 758 1135 723 1151 684 C 1166 644 1174 599 1174 549 Z" unicode="§" />
<glyph horiz-adv-x="1024" d="M 315 1235 C 283 1235 256 1246 234 1268 C 212 1290 201 1317 201 1348 C 201 1378 212 1405 234 1428 C 256 1450 283 1462 315 1462 C 345 1462 371 1450 393 1428 C 415 1405 426 1378 426 1348 C 426 1317 415 1290 393 1268 C 371 1246 345 1235 315 1235 Z M 711 1235 C 680 1235 653 1246 631 1268 C 609 1290 598 1317 598 1348 C 598 1378 609 1405 631 1428 C 653 1450 680 1462 711 1462 C 741 1462 768 1450 790 1428 C 812 1405 823 1378 823 1348 C 823 1317 812 1290 790 1268 C 768 1246 741 1235 711 1235 Z" unicode="¨" />
<glyph horiz-adv-x="1712" d="M 1595 717 C 1595 607 1576 506 1538 415 C 1500 324 1449 246 1383 182 C 1317 117 1238 67 1148 31 C 1058 -5 960 -23 856 -23 C 751 -23 653 -5 563 31 C 473 67 395 117 329 182 C 263 246 211 324 173 415 C 135 506 117 607 117 717 C 117 826 135 926 173 1018 C 211 1109 263 1187 329 1251 C 395 1315 473 1366 563 1402 C 653 1438 751 1456 856 1456 C 960 1456 1058 1438 1148 1402 C 1238 1366 1317 1315 1383 1251 C 1449 1187 1500 1109 1538 1018 C 1576 926 1595 826 1595 717 Z M 1495 717 C 1495 811 1478 898 1446 978 C 1413 1058 1368 1126 1311 1182 C 1254 1238 1186 1282 1108 1314 C 1030 1346 946 1362 856 1362 C 766 1362 681 1346 603 1314 C 525 1282 457 1238 400 1182 C 343 1126 298 1058 266 978 C 233 898 217 811 217 717 C 217 622 233 535 266 455 C 298 375 343 307 400 251 C 457 195 525 151 603 119 C 681 87 766 72 856 72 C 946 72 1030 87 1108 119 C 1186 151 1254 195 1311 251 C 1368 307 1413 375 1446 455 C 1478 535 1495 622 1495 717 Z M 1141 434 C 1107 389 1066 354 1019 329 C 971 303 917 291 856 291 C 805 291 758 301 716 323 C 674 345 638 375 609 413 C 579 451 556 495 540 547 C 524 599 516 655 516 715 C 516 776 524 833 541 885 C 558 937 582 983 612 1021 C 642 1059 678 1088 720 1110 C 762 1132 809 1143 860 1143 C 918 1143 969 1131 1014 1108 C 1058 1085 1099 1050 1135 1004 L 1049 936 C 1019 974 990 1000 962 1016 C 934 1032 900 1040 858 1040 C 790 1040 735 1009 692 949 C 648 889 627 812 627 719 C 627 623 649 545 693 484 C 737 423 792 393 858 393 C 900 393 937 402 969 421 C 1000 439 1031 467 1061 504 L 1141 434 Z" unicode="©" />
<glyph horiz-adv-x="932" d="M 639 958 C 612 971 582 982 549 991 C 515 999 474 1004 426 1004 C 366 1004 319 990 285 962 C 250 934 233 896 233 846 C 233 786 248 743 279 715 C 310 687 350 674 399 674 C 453 674 500 685 540 709 C 580 732 613 761 639 795 L 639 958 Z M 778 578 L 639 578 L 639 668 C 609 638 573 612 530 591 C 487 569 437 559 379 559 C 345 559 311 563 277 573 C 243 583 212 598 186 620 C 159 642 137 670 121 706 C 104 742 96 786 96 838 C 96 886 105 928 124 964 C 142 999 167 1028 198 1050 C 228 1072 264 1089 305 1100 C 345 1110 388 1116 432 1116 C 474 1116 512 1112 548 1104 C 583 1096 613 1085 639 1073 L 639 1161 C 639 1219 624 1263 595 1293 C 565 1323 521 1339 461 1339 C 417 1339 375 1333 337 1322 C 298 1311 261 1295 225 1274 L 170 1384 C 210 1405 256 1422 308 1436 C 359 1449 413 1456 469 1456 C 563 1456 638 1434 694 1391 C 750 1348 778 1276 778 1176 L 778 578 Z" unicode="ª" />
<glyph horiz-adv-x="1180" d="M 651 0 L 477 0 L 61 537 L 477 1075 L 651 1075 L 236 539 L 651 0 Z M 1087 0 L 913 0 L 498 537 L 913 1075 L 1087 1075 L 672 539 L 1087 0 Z" unicode="«" />
<glyph horiz-adv-x="1182" d="M 920 219 L 920 635 L 113 635 L 113 774 L 1069 774 L 1069 219 L 920 219 Z" unicode="¬" />
<glyph horiz-adv-x="659" d="M 555 674 L 104 674 L 104 823 L 555 823 L 555 674 Z" unicode="­" />
<glyph horiz-adv-x="1712" d="M 1595 717 C 1595 607 1576 506 1538 415 C 1500 324 1449 246 1383 182 C 1317 117 1238 67 1148 31 C 1058 -5 960 -23 856 -23 C 751 -23 653 -5 563 31 C 473 67 395 117 329 182 C 263 246 211 324 173 415 C 135 506 117 607 117 717 C 117 826 135 926 173 1018 C 211 1109 263 1187 329 1251 C 395 1315 473 1366 563 1402 C 653 1438 751 1456 856 1456 C 960 1456 1058 1438 1148 1402 C 1238 1366 1317 1315 1383 1251 C 1449 1187 1500 1109 1538 1018 C 1576 926 1595 826 1595 717 Z M 1495 717 C 1495 811 1478 898 1446 978 C 1413 1058 1368 1126 1311 1182 C 1254 1238 1186 1282 1108 1314 C 1030 1346 946 1362 856 1362 C 766 1362 681 1346 603 1314 C 525 1282 457 1238 400 1182 C 343 1126 298 1058 266 978 C 233 898 217 811 217 717 C 217 622 233 535 266 455 C 298 375 343 307 400 251 C 457 195 525 151 603 119 C 681 87 766 72 856 72 C 946 72 1030 87 1108 119 C 1186 151 1254 195 1311 251 C 1368 307 1413 375 1446 455 C 1478 535 1495 622 1495 717 Z M 1075 903 C 1075 949 1061 983 1033 1007 C 1005 1030 966 1042 915 1042 L 698 1042 L 698 766 L 903 766 C 961 766 1004 777 1032 799 C 1060 821 1075 856 1075 903 Z M 1184 903 C 1184 841 1166 791 1132 751 C 1098 711 1052 684 995 672 L 1178 322 L 1051 322 L 874 664 L 698 664 L 698 322 L 590 322 L 590 1139 L 922 1139 C 995 1139 1057 1119 1108 1081 C 1158 1043 1184 983 1184 903 Z" unicode="®" />
<glyph horiz-adv-x="1024" d="M 791 1266 L 233 1266 L 233 1409 L 791 1409 L 791 1266 Z" unicode="¯" />
<glyph horiz-adv-x="975" d="M 870 1065 C 870 1009 860 956 841 908 C 822 860 796 818 762 783 C 728 747 688 720 641 700 C 594 680 543 670 487 670 C 432 670 381 680 334 700 C 286 720 246 747 212 783 C 178 818 152 860 133 908 C 113 956 104 1009 104 1065 C 104 1119 113 1170 133 1218 C 152 1266 178 1307 212 1342 C 246 1377 286 1405 334 1425 C 381 1445 432 1456 487 1456 C 543 1456 594 1445 641 1425 C 688 1405 728 1377 762 1342 C 796 1307 822 1266 841 1218 C 860 1170 870 1119 870 1065 Z M 735 1065 C 735 1140 712 1203 667 1253 C 621 1303 561 1329 487 1329 C 413 1329 354 1303 308 1253 C 262 1203 240 1140 240 1065 C 240 985 262 921 308 871 C 354 821 413 797 487 797 C 561 797 621 821 667 871 C 712 921 735 985 735 1065 Z" unicode="°" />
<glyph horiz-adv-x="1270" d="M 1112 655 L 711 655 L 711 260 L 559 260 L 559 655 L 158 655 L 158 795 L 559 795 L 559 1190 L 711 1190 L 711 795 L 1112 795 L 1112 655 Z M 1112 59 L 158 59 L 158 199 L 1112 199 L 1112 59 Z" unicode="±" />
<glyph horiz-adv-x="885" d="M 752 532 L 135 532 C 137 596 146 650 160 696 C 174 741 194 781 219 816 C 244 851 274 883 309 911 C 343 939 382 969 424 999 C 493 1046 540 1082 564 1107 C 588 1132 600 1164 600 1202 C 600 1238 586 1267 560 1289 C 534 1310 497 1321 449 1321 C 405 1321 366 1313 334 1298 C 301 1282 269 1260 238 1231 L 152 1341 C 198 1377 243 1405 287 1425 C 330 1445 385 1456 453 1456 C 493 1456 531 1451 567 1441 C 602 1431 633 1415 659 1395 C 685 1374 705 1348 720 1316 C 735 1284 743 1248 743 1206 C 743 1140 726 1085 694 1043 C 661 1001 602 953 518 899 C 444 847 393 805 363 775 C 333 744 312 710 301 674 L 752 674 L 752 532 Z" unicode="²" />
<glyph horiz-adv-x="829" d="M 711 805 C 711 716 681 646 622 596 C 563 545 483 520 381 520 C 325 520 271 533 220 559 C 168 585 122 620 82 664 L 180 762 C 212 726 245 699 278 681 C 311 663 347 655 385 655 C 446 655 492 667 522 693 C 552 718 567 755 567 803 C 567 849 550 883 517 906 C 484 928 441 940 387 940 L 307 940 L 307 1071 L 391 1071 C 439 1071 474 1082 497 1105 C 520 1128 532 1160 532 1200 C 532 1238 519 1267 493 1289 C 467 1310 429 1321 379 1321 C 347 1321 317 1313 291 1299 C 265 1285 237 1263 209 1235 L 113 1331 C 146 1367 185 1396 230 1420 C 274 1444 325 1456 381 1456 C 422 1456 461 1450 497 1440 C 533 1430 564 1414 590 1394 C 616 1374 637 1348 653 1318 C 668 1287 676 1252 676 1212 C 676 1166 668 1127 652 1096 C 636 1065 614 1039 586 1018 C 620 1001 649 976 674 942 C 698 908 711 862 711 805 Z" unicode="³" />
<glyph horiz-adv-x="1024" d="M 786 1546 L 477 1219 L 356 1219 L 567 1546 L 786 1546 Z" unicode="´" />
<glyph horiz-adv-x="1167" d="M 997 0 L 844 0 L 844 131 C 813 86 773 49 723 20 C 673 -8 614 -23 547 -23 C 504 -23 461 -10 419 13 C 377 37 345 68 324 106 L 324 -309 L 170 -395 L 170 1075 L 324 1075 L 324 424 C 324 309 347 228 393 181 C 439 134 501 111 578 111 C 652 111 714 137 766 191 C 818 244 844 329 844 446 L 844 1075 L 997 1075 L 997 0 Z" unicode="µ" />
<glyph horiz-adv-x="1409" d="M 1219 -379 L 1061 -379 L 1061 1294 L 874 1294 L 874 -379 L 717 -379 L 717 535 L 561 535 C 498 535 438 545 382 565 C 325 585 276 614 234 652 C 192 690 158 737 133 793 C 108 849 96 913 96 985 C 96 1056 108 1120 133 1176 C 158 1232 192 1279 234 1317 C 276 1355 326 1384 383 1404 C 439 1424 499 1434 561 1434 L 1219 1434 L 1219 -379 Z" unicode="¶" />
<glyph horiz-adv-x="492" d="M 377 752 C 377 716 363 685 337 659 C 310 633 280 621 246 621 C 210 621 179 633 153 659 C 127 685 115 716 115 752 C 115 787 127 818 153 846 C 179 873 210 887 246 887 C 280 887 310 873 337 846 C 363 818 377 787 377 752 Z" unicode="·" />
<glyph horiz-adv-x="1024" d="M 520 -395 C 478 -395 436 -388 394 -376 C 352 -363 314 -345 279 -322 L 317 -256 C 345 -274 375 -288 407 -297 C 439 -306 472 -311 506 -311 C 558 -311 594 -302 614 -284 C 633 -266 643 -246 643 -223 C 643 -202 637 -186 626 -174 C 615 -162 599 -156 578 -156 C 558 -156 540 -159 524 -165 C 507 -171 492 -180 479 -193 L 406 -164 L 457 0 L 549 0 L 514 -104 C 528 -95 545 -88 563 -83 C 581 -78 602 -76 627 -76 C 641 -76 656 -78 672 -83 C 688 -88 702 -96 716 -107 C 730 -118 741 -133 750 -151 C 759 -169 764 -191 764 -217 C 764 -250 757 -278 744 -301 C 730 -323 713 -342 691 -356 C 669 -370 643 -380 613 -386 C 583 -392 552 -395 520 -395 Z" unicode="¸" />
<glyph horiz-adv-x="705" d="M 317 522 L 317 1210 L 162 1210 L 162 1317 C 214 1321 255 1331 286 1345 C 316 1359 336 1388 344 1432 L 461 1432 L 461 522 L 317 522 Z" unicode="¹" />
<glyph horiz-adv-x="983" d="M 872 1014 C 872 941 862 876 842 820 C 822 764 795 716 761 678 C 727 640 686 611 639 591 C 591 571 541 561 487 561 C 433 561 383 570 337 590 C 291 609 251 637 218 675 C 184 713 158 759 139 815 C 120 871 111 935 111 1008 C 111 1080 121 1145 141 1201 C 161 1257 188 1303 222 1341 C 256 1379 297 1407 344 1427 C 391 1446 442 1456 496 1456 C 549 1456 599 1446 645 1428 C 691 1409 731 1381 765 1345 C 798 1308 824 1262 843 1206 C 862 1150 872 1086 872 1014 Z M 733 1012 C 733 1120 710 1200 666 1253 C 622 1306 564 1333 492 1333 C 419 1333 360 1306 316 1253 C 272 1200 250 1120 250 1012 C 250 903 272 821 316 766 C 360 711 419 684 492 684 C 564 684 622 711 666 766 C 710 821 733 903 733 1012 Z" unicode="º" />
<glyph horiz-adv-x="1180" d="M 682 539 L 266 0 L 92 0 L 508 537 L 92 1075 L 266 1075 L 682 539 Z M 1118 539 L 702 0 L 528 0 L 944 537 L 528 1075 L 702 1075 L 1118 539 Z" unicode="»" />
<glyph horiz-adv-x="1905" d="M 1485 1434 L 508 0 L 340 0 L 1317 1434 L 1485 1434 Z M 352 522 L 352 1210 L 197 1210 L 197 1317 C 249 1321 290 1331 320 1345 C 350 1359 370 1388 379 1432 L 496 1432 L 496 522 L 352 522 Z M 1442 0 L 1442 203 L 983 203 L 983 315 L 1442 909 L 1579 909 L 1579 336 L 1698 336 L 1698 203 L 1579 203 L 1579 0 L 1442 0 Z M 1163 336 L 1442 336 L 1442 694 L 1163 336 Z" unicode="¼" />
<glyph horiz-adv-x="1905" d="M 346 522 L 346 1210 L 191 1210 L 191 1317 C 243 1321 284 1331 315 1345 C 345 1359 365 1388 373 1432 L 490 1432 L 490 522 L 346 522 Z M 1423 1434 L 446 0 L 279 0 L 1255 1434 L 1423 1434 Z M 1715 0 L 1098 0 C 1100 64 1109 118 1123 164 C 1137 209 1157 249 1182 284 C 1207 319 1237 351 1272 379 C 1306 407 1345 437 1387 467 C 1456 514 1503 550 1527 575 C 1551 600 1563 632 1563 670 C 1563 706 1549 735 1523 757 C 1497 778 1460 789 1412 789 C 1368 789 1329 781 1297 766 C 1264 750 1232 728 1201 699 L 1115 809 C 1161 845 1206 873 1250 893 C 1293 913 1348 924 1416 924 C 1456 924 1494 919 1530 909 C 1565 899 1596 883 1622 863 C 1648 842 1668 816 1683 784 C 1698 752 1706 716 1706 674 C 1706 608 1689 553 1657 511 C 1624 469 1565 421 1481 367 C 1407 315 1356 273 1326 243 C 1296 212 1275 178 1264 142 L 1715 142 L 1715 0 Z" unicode="½" />
<glyph horiz-adv-x="1905" d="M 1602 1434 L 625 0 L 457 0 L 1434 1434 L 1602 1434 Z M 1501 0 L 1501 203 L 1042 203 L 1042 315 L 1501 909 L 1638 909 L 1638 336 L 1757 336 L 1757 203 L 1638 203 L 1638 0 L 1501 0 Z M 774 805 C 774 716 744 646 685 596 C 626 545 546 520 444 520 C 388 520 334 533 283 559 C 231 585 185 620 145 664 L 244 762 C 276 726 309 699 342 681 C 375 663 411 655 449 655 C 509 655 555 667 585 693 C 615 718 631 755 631 803 C 631 849 614 883 581 906 C 548 928 505 940 451 940 L 371 940 L 371 1071 L 455 1071 C 503 1071 538 1082 561 1105 C 584 1128 596 1160 596 1200 C 596 1238 582 1267 556 1289 C 530 1310 492 1321 442 1321 C 410 1321 381 1313 355 1299 C 328 1285 300 1263 272 1235 L 176 1331 C 210 1367 249 1396 293 1420 C 337 1444 388 1456 444 1456 C 485 1456 524 1450 560 1440 C 596 1430 627 1414 653 1394 C 679 1374 700 1348 716 1318 C 731 1287 739 1252 739 1212 C 739 1166 731 1127 715 1096 C 699 1065 677 1039 649 1018 C 683 1001 713 976 737 942 C 761 908 774 862 774 805 Z M 1223 336 L 1501 336 L 1501 694 L 1223 336 Z" unicode="¾" />
<glyph horiz-adv-x="1149" d="M 754 1331 C 754 1297 741 1267 716 1241 C 691 1215 662 1202 629 1202 C 596 1202 567 1215 542 1241 C 516 1267 504 1297 504 1331 C 504 1365 516 1394 542 1419 C 567 1443 596 1456 629 1456 C 662 1456 691 1443 716 1419 C 741 1394 754 1365 754 1331 Z M 1059 168 C 1005 114 937 69 856 32 C 774 -4 682 -23 580 -23 C 515 -23 455 -15 401 0 C 346 14 299 36 260 66 C 221 95 191 132 169 176 C 147 220 137 272 137 330 C 137 379 142 421 154 457 C 166 493 182 524 204 552 C 225 580 251 605 283 628 C 315 651 351 675 391 700 C 425 720 452 740 473 759 C 493 778 509 800 520 825 C 531 850 538 880 542 916 C 545 951 547 995 547 1049 L 705 1049 C 705 980 702 923 697 878 C 692 833 681 794 665 761 C 648 728 623 698 591 671 C 559 643 516 613 463 580 C 409 547 368 514 340 480 C 311 446 297 400 297 342 C 297 276 323 223 377 183 C 431 143 500 123 586 123 C 661 123 728 137 788 165 C 847 193 903 231 956 281 L 1059 168 Z" unicode="¿" />
<glyph horiz-adv-x="1389" d="M 940 510 L 782 981 C 774 1004 766 1029 758 1056 C 749 1083 740 1109 732 1135 C 724 1161 716 1185 710 1208 C 703 1230 698 1249 694 1264 C 690 1249 685 1230 679 1208 C 672 1186 665 1162 657 1136 C 649 1110 640 1083 631 1055 C 621 1027 612 1001 604 977 L 446 510 L 940 510 Z M 1280 0 L 1112 0 L 989 365 L 397 365 L 272 0 L 109 0 L 606 1434 L 782 1434 L 1280 0 Z M 758 1526 L 637 1526 L 328 1853 L 547 1853 L 758 1526 Z" unicode="À" />
<glyph horiz-adv-x="1389" d="M 940 510 L 782 981 C 774 1004 766 1029 758 1056 C 749 1083 740 1109 732 1135 C 724 1161 716 1185 710 1208 C 703 1230 698 1249 694 1264 C 690 1249 685 1230 679 1208 C 672 1186 665 1162 657 1136 C 649 1110 640 1083 631 1055 C 621 1027 612 1001 604 977 L 446 510 L 940 510 Z M 1280 0 L 1112 0 L 989 365 L 397 365 L 272 0 L 109 0 L 606 1434 L 782 1434 L 1280 0 Z M 1058 1853 L 749 1526 L 628 1526 L 839 1853 L 1058 1853 Z" unicode="Á" />
<glyph horiz-adv-x="1389" d="M 940 510 L 782 981 C 774 1004 766 1029 758 1056 C 749 1083 740 1109 732 1135 C 724 1161 716 1185 710 1208 C 703 1230 698 1249 694 1264 C 690 1249 685 1230 679 1208 C 672 1186 665 1162 657 1136 C 649 1110 640 1083 631 1055 C 621 1027 612 1001 604 977 L 446 510 L 940 510 Z M 1280 0 L 1112 0 L 989 365 L 397 365 L 272 0 L 109 0 L 606 1434 L 782 1434 L 1280 0 Z M 1032 1485 L 899 1485 L 692 1696 L 485 1485 L 356 1485 L 608 1812 L 780 1812 L 1032 1485 Z" unicode="Â" />
<glyph horiz-adv-x="1389" d="M 940 510 L 782 981 C 774 1004 766 1029 758 1056 C 749 1083 740 1109 732 1135 C 724 1161 716 1185 710 1208 C 703 1230 698 1249 694 1264 C 690 1249 685 1230 679 1208 C 672 1186 665 1162 657 1136 C 649 1110 640 1083 631 1055 C 621 1027 612 1001 604 977 L 446 510 L 940 510 Z M 1280 0 L 1112 0 L 989 365 L 397 365 L 272 0 L 109 0 L 606 1434 L 782 1434 L 1280 0 Z M 1059 1798 C 1059 1707 1037 1640 995 1597 C 953 1553 904 1532 850 1532 C 823 1532 797 1536 773 1544 C 748 1552 723 1565 698 1585 C 648 1623 613 1647 595 1658 C 577 1669 557 1675 536 1675 C 516 1675 500 1665 486 1646 C 472 1626 462 1590 456 1538 L 329 1538 C 329 1628 350 1695 392 1739 C 434 1782 483 1804 538 1804 C 564 1804 590 1800 615 1792 C 639 1784 664 1770 690 1751 C 738 1713 773 1688 793 1677 C 813 1666 832 1661 852 1661 C 873 1661 890 1671 903 1693 C 915 1715 925 1750 932 1798 L 1059 1798 Z" unicode="Ã" />
<glyph horiz-adv-x="1389" d="M 940 510 L 782 981 C 774 1004 766 1029 758 1056 C 749 1083 740 1109 732 1135 C 724 1161 716 1185 710 1208 C 703 1230 698 1249 694 1264 C 690 1249 685 1230 679 1208 C 672 1186 665 1162 657 1136 C 649 1110 640 1083 631 1055 C 621 1027 612 1001 604 977 L 446 510 L 940 510 Z M 1280 0 L 1112 0 L 989 365 L 397 365 L 272 0 L 109 0 L 606 1434 L 782 1434 L 1280 0 Z M 499 1542 C 467 1542 440 1553 418 1575 C 396 1597 385 1624 385 1655 C 385 1685 396 1712 418 1735 C 440 1757 467 1769 499 1769 C 529 1769 555 1757 577 1735 C 599 1712 610 1685 610 1655 C 610 1624 599 1597 577 1575 C 555 1553 529 1542 499 1542 Z M 895 1542 C 864 1542 837 1553 815 1575 C 793 1597 782 1624 782 1655 C 782 1685 793 1712 815 1735 C 837 1757 864 1769 895 1769 C 925 1769 952 1757 974 1735 C 996 1712 1007 1685 1007 1655 C 1007 1624 996 1597 974 1575 C 952 1553 925 1542 895 1542 Z" unicode="Ä" />
<glyph horiz-adv-x="1389" d="M 692 1708 C 648 1708 613 1694 587 1667 C 561 1639 549 1605 549 1563 C 549 1520 561 1485 587 1457 C 613 1429 648 1415 692 1415 C 736 1415 771 1429 797 1457 C 823 1485 836 1520 836 1563 C 836 1605 823 1639 797 1667 C 771 1694 736 1708 692 1708 Z M 940 510 L 782 981 C 774 1004 766 1029 758 1056 C 749 1083 740 1109 732 1135 C 724 1161 716 1185 710 1208 C 703 1230 698 1249 694 1264 C 690 1249 685 1230 679 1208 C 672 1186 665 1162 657 1136 C 649 1110 640 1083 631 1055 C 621 1027 612 1001 604 977 L 446 510 L 940 510 Z M 1280 0 L 1112 0 L 989 365 L 397 365 L 272 0 L 109 0 L 580 1348 C 541 1368 510 1397 487 1435 C 464 1473 453 1515 453 1563 C 453 1629 475 1685 520 1731 C 565 1777 622 1800 692 1800 C 761 1800 818 1777 864 1731 C 909 1685 932 1629 932 1563 C 932 1517 920 1475 898 1437 C 875 1399 845 1370 807 1350 L 1280 0 Z" unicode="Å" />
<glyph horiz-adv-x="2044" d="M 1034 1229 C 1021 1206 1001 1174 974 1133 C 946 1091 922 1054 901 1022 L 565 510 L 1030 510 L 1030 965 C 1030 1009 1030 1056 1032 1108 C 1033 1160 1034 1200 1034 1229 Z M 1927 0 L 1030 0 L 1030 365 L 471 365 L 231 0 L 49 0 L 1012 1434 L 1896 1434 L 1896 1288 L 1182 1288 L 1182 838 L 1599 838 L 1599 692 L 1182 692 L 1182 145 L 1927 145 L 1927 0 Z" unicode="Æ" />
<glyph horiz-adv-x="1286" d="M 1176 215 C 1124 145 1058 87 980 43 C 901 0 810 -23 707 -23 C 619 -23 540 -4 468 33 C 396 71 335 122 285 188 C 235 254 196 332 168 422 C 140 512 127 610 127 715 C 127 821 141 919 170 1010 C 198 1101 238 1179 290 1245 C 341 1311 403 1362 475 1400 C 547 1437 627 1456 713 1456 C 810 1456 896 1437 972 1399 C 1047 1361 1113 1304 1169 1227 L 1042 1130 C 996 1192 948 1237 899 1267 C 849 1296 786 1311 709 1311 C 647 1311 591 1296 539 1267 C 487 1237 443 1197 406 1145 C 368 1093 339 1031 318 958 C 297 885 287 805 287 719 C 287 631 297 551 319 478 C 341 404 370 341 408 289 C 446 237 491 196 543 167 C 595 137 651 123 711 123 C 788 123 855 139 911 173 C 967 206 1019 252 1065 311 L 1176 215 Z M 704 -395 C 662 -395 620 -388 578 -376 C 536 -363 498 -345 463 -322 L 501 -256 C 529 -274 559 -288 591 -297 C 623 -306 656 -311 690 -311 C 742 -311 778 -302 798 -284 C 817 -266 827 -246 827 -223 C 827 -202 821 -186 810 -174 C 799 -162 783 -156 762 -156 C 742 -156 724 -159 708 -165 C 691 -171 676 -180 663 -193 L 590 -164 L 641 0 L 733 0 L 698 -104 C 712 -95 729 -88 747 -83 C 765 -78 786 -76 811 -76 C 825 -76 840 -78 856 -83 C 872 -88 886 -96 900 -107 C 914 -118 925 -133 934 -151 C 943 -169 948 -191 948 -217 C 948 -250 941 -278 928 -301 C 914 -323 897 -342 875 -356 C 853 -370 827 -380 797 -386 C 767 -392 736 -395 704 -395 Z" unicode="Ç" />
<glyph horiz-adv-x="1202" d="M 1085 0 L 188 0 L 188 1434 L 1055 1434 L 1055 1288 L 348 1288 L 348 838 L 758 838 L 758 692 L 348 692 L 348 145 L 1085 145 L 1085 0 Z M 731 1526 L 610 1526 L 301 1853 L 520 1853 L 731 1526 Z" unicode="È" />
<glyph horiz-adv-x="1202" d="M 1085 0 L 188 0 L 188 1434 L 1055 1434 L 1055 1288 L 348 1288 L 348 838 L 758 838 L 758 692 L 348 692 L 348 145 L 1085 145 L 1085 0 Z M 952 1853 L 643 1526 L 522 1526 L 733 1853 L 952 1853 Z" unicode="É" />
<glyph horiz-adv-x="1202" d="M 1085 0 L 188 0 L 188 1434 L 1055 1434 L 1055 1288 L 348 1288 L 348 838 L 758 838 L 758 692 L 348 692 L 348 145 L 1085 145 L 1085 0 Z M 959 1526 L 826 1526 L 619 1737 L 412 1526 L 283 1526 L 535 1853 L 707 1853 L 959 1526 Z" unicode="Ê" />
<glyph horiz-adv-x="1202" d="M 1085 0 L 188 0 L 188 1434 L 1055 1434 L 1055 1288 L 348 1288 L 348 838 L 758 838 L 758 692 L 348 692 L 348 145 L 1085 145 L 1085 0 Z M 426 1542 C 394 1542 367 1553 345 1575 C 323 1597 312 1624 312 1655 C 312 1685 323 1712 345 1735 C 367 1757 394 1769 426 1769 C 456 1769 482 1757 504 1735 C 526 1712 537 1685 537 1655 C 537 1624 526 1597 504 1575 C 482 1553 456 1542 426 1542 Z M 822 1542 C 791 1542 764 1553 742 1575 C 720 1597 709 1624 709 1655 C 709 1685 720 1712 742 1735 C 764 1757 791 1769 822 1769 C 852 1769 879 1757 901 1735 C 923 1712 934 1685 934 1655 C 934 1624 923 1597 901 1575 C 879 1553 852 1542 822 1542 Z" unicode="Ë" />
<glyph horiz-adv-x="557" d="M 358 0 L 199 0 L 199 1434 L 358 1434 L 358 0 Z M 353 1526 L 232 1526 L -77 1853 L 142 1853 L 353 1526 Z" unicode="Ì" />
<glyph horiz-adv-x="557" d="M 358 0 L 199 0 L 199 1434 L 358 1434 L 358 0 Z M 636 1853 L 327 1526 L 206 1526 L 417 1853 L 636 1853 Z" unicode="Í" />
<glyph horiz-adv-x="557" d="M 358 0 L 199 0 L 199 1434 L 358 1434 L 358 0 Z M 610 1516 L 477 1516 L 270 1727 L 63 1516 L -66 1516 L 186 1843 L 358 1843 L 610 1516 Z" unicode="Î" />
<glyph horiz-adv-x="557" d="M 358 0 L 199 0 L 199 1434 L 358 1434 L 358 0 Z M 79 1550 C 47 1550 20 1561 -1 1583 C -23 1605 -35 1632 -35 1663 C -35 1693 -23 1720 -1 1743 C 20 1765 47 1777 79 1777 C 109 1777 135 1765 157 1743 C 179 1720 190 1693 190 1663 C 190 1632 179 1605 157 1583 C 135 1561 109 1550 79 1550 Z M 475 1550 C 444 1550 417 1561 395 1583 C 373 1605 362 1632 362 1663 C 362 1693 373 1720 395 1743 C 417 1765 444 1777 475 1777 C 505 1777 532 1765 554 1743 C 576 1720 587 1693 587 1663 C 587 1632 576 1605 554 1583 C 532 1561 505 1550 475 1550 Z" unicode="Ï" />
<glyph horiz-adv-x="1397" d="M 1241 727 C 1241 597 1223 486 1188 394 C 1152 302 1104 226 1043 168 C 982 110 910 67 827 40 C 743 13 654 0 559 0 L 209 0 L 209 678 L 82 678 L 82 821 L 209 821 L 209 1434 L 588 1434 C 682 1434 769 1420 849 1392 C 929 1364 998 1322 1056 1265 C 1114 1207 1159 1134 1192 1045 C 1224 955 1241 849 1241 727 Z M 1081 721 C 1081 903 1037 1043 951 1141 C 864 1239 739 1288 575 1288 L 365 1288 L 365 821 L 655 821 L 655 678 L 365 678 L 365 145 L 580 145 C 734 145 856 189 946 279 C 1036 369 1081 516 1081 721 Z" unicode="Ð" />
<glyph horiz-adv-x="1409" d="M 342 1161 L 342 0 L 188 0 L 188 1434 L 344 1434 L 965 434 C 972 422 981 407 991 390 C 1001 373 1010 356 1020 339 C 1030 322 1039 306 1047 291 C 1055 275 1062 263 1067 254 L 1067 1434 L 1221 1434 L 1221 0 L 1071 0 L 444 981 C 436 993 428 1007 418 1024 C 408 1041 398 1058 388 1075 C 378 1092 369 1108 361 1124 C 353 1139 346 1151 342 1161 Z M 1080 1806 C 1080 1715 1058 1648 1016 1605 C 974 1561 925 1540 871 1540 C 844 1540 818 1544 794 1552 C 769 1560 744 1573 719 1593 C 669 1631 634 1655 616 1666 C 598 1677 578 1683 557 1683 C 537 1683 521 1673 507 1654 C 493 1634 483 1598 477 1546 L 350 1546 C 350 1636 371 1703 413 1747 C 455 1790 504 1812 559 1812 C 585 1812 611 1808 636 1800 C 660 1792 685 1778 711 1759 C 759 1721 794 1696 814 1685 C 834 1674 853 1669 873 1669 C 894 1669 911 1679 924 1701 C 936 1723 946 1758 953 1806 L 1080 1806 Z" unicode="Ñ" />
<glyph horiz-adv-x="1444" d="M 127 715 C 127 822 141 921 170 1013 C 199 1104 239 1182 291 1247 C 343 1312 405 1363 479 1400 C 553 1437 634 1456 723 1456 C 811 1456 892 1437 966 1401 C 1039 1365 1101 1314 1153 1249 C 1205 1184 1245 1106 1274 1016 C 1302 925 1317 826 1317 719 C 1317 611 1302 512 1273 421 C 1244 329 1203 251 1151 186 C 1099 120 1036 69 962 32 C 888 -4 807 -23 719 -23 C 630 -23 549 -4 476 32 C 402 68 340 119 289 184 C 237 248 197 326 169 417 C 141 508 127 607 127 715 Z M 1157 715 C 1157 804 1145 885 1123 959 C 1101 1033 1070 1096 1031 1148 C 991 1200 945 1240 891 1268 C 837 1296 779 1311 717 1311 C 655 1311 597 1297 545 1269 C 492 1241 447 1201 409 1150 C 371 1098 341 1036 319 963 C 297 889 287 808 287 719 C 287 629 298 547 320 473 C 342 399 373 337 412 285 C 451 233 497 193 551 165 C 605 137 663 123 725 123 C 787 123 844 137 897 165 C 950 193 996 232 1034 283 C 1072 334 1102 396 1124 470 C 1146 543 1157 625 1157 715 Z M 803 1526 L 682 1526 L 373 1853 L 592 1853 L 803 1526 Z" unicode="Ò" />
<glyph horiz-adv-x="1444" d="M 127 715 C 127 822 141 921 170 1013 C 199 1104 239 1182 291 1247 C 343 1312 405 1363 479 1400 C 553 1437 634 1456 723 1456 C 811 1456 892 1437 966 1401 C 1039 1365 1101 1314 1153 1249 C 1205 1184 1245 1106 1274 1016 C 1302 925 1317 826 1317 719 C 1317 611 1302 512 1273 421 C 1244 329 1203 251 1151 186 C 1099 120 1036 69 962 32 C 888 -4 807 -23 719 -23 C 630 -23 549 -4 476 32 C 402 68 340 119 289 184 C 237 248 197 326 169 417 C 141 508 127 607 127 715 Z M 1157 715 C 1157 804 1145 885 1123 959 C 1101 1033 1070 1096 1031 1148 C 991 1200 945 1240 891 1268 C 837 1296 779 1311 717 1311 C 655 1311 597 1297 545 1269 C 492 1241 447 1201 409 1150 C 371 1098 341 1036 319 963 C 297 889 287 808 287 719 C 287 629 298 547 320 473 C 342 399 373 337 412 285 C 451 233 497 193 551 165 C 605 137 663 123 725 123 C 787 123 844 137 897 165 C 950 193 996 232 1034 283 C 1072 334 1102 396 1124 470 C 1146 543 1157 625 1157 715 Z M 1065 1853 L 756 1526 L 635 1526 L 846 1853 L 1065 1853 Z" unicode="Ó" />
<glyph horiz-adv-x="1444" d="M 127 715 C 127 822 141 921 170 1013 C 199 1104 239 1182 291 1247 C 343 1312 405 1363 479 1400 C 553 1437 634 1456 723 1456 C 811 1456 892 1437 966 1401 C 1039 1365 1101 1314 1153 1249 C 1205 1184 1245 1106 1274 1016 C 1302 925 1317 826 1317 719 C 1317 611 1302 512 1273 421 C 1244 329 1203 251 1151 186 C 1099 120 1036 69 962 32 C 888 -4 807 -23 719 -23 C 630 -23 549 -4 476 32 C 402 68 340 119 289 184 C 237 248 197 326 169 417 C 141 508 127 607 127 715 Z M 1157 715 C 1157 804 1145 885 1123 959 C 1101 1033 1070 1096 1031 1148 C 991 1200 945 1240 891 1268 C 837 1296 779 1311 717 1311 C 655 1311 597 1297 545 1269 C 492 1241 447 1201 409 1150 C 371 1098 341 1036 319 963 C 297 889 287 808 287 719 C 287 629 298 547 320 473 C 342 399 373 337 412 285 C 451 233 497 193 551 165 C 605 137 663 123 725 123 C 787 123 844 137 897 165 C 950 193 996 232 1034 283 C 1072 334 1102 396 1124 470 C 1146 543 1157 625 1157 715 Z M 1057 1516 L 924 1516 L 717 1727 L 510 1516 L 381 1516 L 633 1843 L 805 1843 L 1057 1516 Z" unicode="Ô" />
<glyph horiz-adv-x="1444" d="M 127 715 C 127 822 141 921 170 1013 C 199 1104 239 1182 291 1247 C 343 1312 405 1363 479 1400 C 553 1437 634 1456 723 1456 C 811 1456 892 1437 966 1401 C 1039 1365 1101 1314 1153 1249 C 1205 1184 1245 1106 1274 1016 C 1302 925 1317 826 1317 719 C 1317 611 1302 512 1273 421 C 1244 329 1203 251 1151 186 C 1099 120 1036 69 962 32 C 888 -4 807 -23 719 -23 C 630 -23 549 -4 476 32 C 402 68 340 119 289 184 C 237 248 197 326 169 417 C 141 508 127 607 127 715 Z M 1157 715 C 1157 804 1145 885 1123 959 C 1101 1033 1070 1096 1031 1148 C 991 1200 945 1240 891 1268 C 837 1296 779 1311 717 1311 C 655 1311 597 1297 545 1269 C 492 1241 447 1201 409 1150 C 371 1098 341 1036 319 963 C 297 889 287 808 287 719 C 287 629 298 547 320 473 C 342 399 373 337 412 285 C 451 233 497 193 551 165 C 605 137 663 123 725 123 C 787 123 844 137 897 165 C 950 193 996 232 1034 283 C 1072 334 1102 396 1124 470 C 1146 543 1157 625 1157 715 Z M 1084 1798 C 1084 1707 1062 1640 1020 1597 C 978 1553 929 1532 875 1532 C 848 1532 822 1536 798 1544 C 773 1552 748 1565 723 1585 C 673 1623 638 1647 620 1658 C 602 1669 582 1675 561 1675 C 541 1675 525 1665 511 1646 C 497 1626 487 1590 481 1538 L 354 1538 C 354 1628 375 1695 417 1739 C 459 1782 508 1804 563 1804 C 589 1804 615 1800 640 1792 C 664 1784 689 1770 715 1751 C 763 1713 798 1688 818 1677 C 838 1666 857 1661 877 1661 C 898 1661 915 1671 928 1693 C 940 1715 950 1750 957 1798 L 1084 1798 Z" unicode="Õ" />
<glyph horiz-adv-x="1444" d="M 127 715 C 127 822 141 921 170 1013 C 199 1104 239 1182 291 1247 C 343 1312 405 1363 479 1400 C 553 1437 634 1456 723 1456 C 811 1456 892 1437 966 1401 C 1039 1365 1101 1314 1153 1249 C 1205 1184 1245 1106 1274 1016 C 1302 925 1317 826 1317 719 C 1317 611 1302 512 1273 421 C 1244 329 1203 251 1151 186 C 1099 120 1036 69 962 32 C 888 -4 807 -23 719 -23 C 630 -23 549 -4 476 32 C 402 68 340 119 289 184 C 237 248 197 326 169 417 C 141 508 127 607 127 715 Z M 1157 715 C 1157 804 1145 885 1123 959 C 1101 1033 1070 1096 1031 1148 C 991 1200 945 1240 891 1268 C 837 1296 779 1311 717 1311 C 655 1311 597 1297 545 1269 C 492 1241 447 1201 409 1150 C 371 1098 341 1036 319 963 C 297 889 287 808 287 719 C 287 629 298 547 320 473 C 342 399 373 337 412 285 C 451 233 497 193 551 165 C 605 137 663 123 725 123 C 787 123 844 137 897 165 C 950 193 996 232 1034 283 C 1072 334 1102 396 1124 470 C 1146 543 1157 625 1157 715 Z M 524 1542 C 492 1542 465 1553 443 1575 C 421 1597 410 1624 410 1655 C 410 1685 421 1712 443 1735 C 465 1757 492 1769 524 1769 C 554 1769 580 1757 602 1735 C 624 1712 635 1685 635 1655 C 635 1624 624 1597 602 1575 C 580 1553 554 1542 524 1542 Z M 920 1542 C 889 1542 862 1553 840 1575 C 818 1597 807 1624 807 1655 C 807 1685 818 1712 840 1735 C 862 1757 889 1769 920 1769 C 950 1769 977 1757 999 1735 C 1021 1712 1032 1685 1032 1655 C 1032 1624 1021 1597 999 1575 C 977 1553 950 1542 920 1542 Z" unicode="Ö" />
<glyph horiz-adv-x="1270" d="M 1114 322 L 1018 225 L 635 612 L 252 225 L 156 322 L 543 705 L 156 1087 L 252 1184 L 635 797 L 1018 1184 L 1114 1087 L 727 705 L 1114 322 Z" unicode="×" />
<glyph horiz-adv-x="1444" d="M 889 1276 C 862 1289 834 1299 806 1306 C 777 1313 747 1317 717 1317 C 655 1317 597 1302 543 1274 C 489 1246 443 1206 405 1154 C 366 1102 336 1040 314 966 C 292 892 281 809 281 719 C 281 621 294 533 320 455 C 346 377 381 312 426 260 L 889 1276 Z M 995 1198 L 526 172 C 556 153 587 139 621 130 C 654 121 689 117 725 117 C 787 117 844 131 898 159 C 952 187 998 227 1037 279 C 1076 331 1107 394 1129 468 C 1151 542 1163 624 1163 715 C 1163 819 1147 913 1117 996 C 1087 1078 1046 1146 995 1198 Z M 719 -23 C 672 -23 627 -17 584 -7 C 541 2 501 17 465 37 L 401 -102 L 260 -102 L 358 111 C 284 176 227 261 187 365 C 147 469 127 585 127 715 C 127 822 141 921 170 1013 C 199 1104 239 1182 291 1247 C 343 1312 405 1363 479 1400 C 553 1437 634 1456 723 1456 C 763 1456 803 1452 841 1444 C 879 1436 916 1424 950 1409 L 1008 1536 L 1149 1536 L 1061 1341 C 1140 1279 1202 1193 1248 1085 C 1294 977 1317 855 1317 719 C 1317 611 1302 512 1273 421 C 1244 329 1203 251 1151 186 C 1099 120 1036 69 962 32 C 888 -4 807 -23 719 -23 Z" unicode="Ø" />
<glyph horiz-adv-x="1389" d="M 1210 586 C 1210 388 1167 237 1081 133 C 995 29 867 -23 696 -23 C 526 -23 397 28 309 131 C 221 233 178 384 178 582 L 178 1434 L 338 1434 L 338 586 C 338 432 368 316 429 239 C 489 161 581 123 705 123 C 827 123 916 161 970 237 C 1024 313 1051 428 1051 582 L 1051 1434 L 1210 1434 L 1210 586 Z M 777 1495 L 656 1495 L 347 1822 L 566 1822 L 777 1495 Z" unicode="Ù" />
<glyph horiz-adv-x="1389" d="M 1210 586 C 1210 388 1167 237 1081 133 C 995 29 867 -23 696 -23 C 526 -23 397 28 309 131 C 221 233 178 384 178 582 L 178 1434 L 338 1434 L 338 586 C 338 432 368 316 429 239 C 489 161 581 123 705 123 C 827 123 916 161 970 237 C 1024 313 1051 428 1051 582 L 1051 1434 L 1210 1434 L 1210 586 Z M 1038 1822 L 729 1495 L 608 1495 L 819 1822 L 1038 1822 Z" unicode="Ú" />
<glyph horiz-adv-x="1389" d="M 1210 586 C 1210 388 1167 237 1081 133 C 995 29 867 -23 696 -23 C 526 -23 397 28 309 131 C 221 233 178 384 178 582 L 178 1434 L 338 1434 L 338 586 C 338 432 368 316 429 239 C 489 161 581 123 705 123 C 827 123 916 161 970 237 C 1024 313 1051 428 1051 582 L 1051 1434 L 1210 1434 L 1210 586 Z M 1032 1526 L 899 1526 L 692 1737 L 485 1526 L 356 1526 L 608 1853 L 780 1853 L 1032 1526 Z" unicode="Û" />
<glyph horiz-adv-x="1389" d="M 1210 586 C 1210 388 1167 237 1081 133 C 995 29 867 -23 696 -23 C 526 -23 397 28 309 131 C 221 233 178 384 178 582 L 178 1434 L 338 1434 L 338 586 C 338 432 368 316 429 239 C 489 161 581 123 705 123 C 827 123 916 161 970 237 C 1024 313 1051 428 1051 582 L 1051 1434 L 1210 1434 L 1210 586 Z M 497 1542 C 465 1542 438 1553 416 1575 C 394 1597 383 1624 383 1655 C 383 1685 394 1712 416 1735 C 438 1757 465 1769 497 1769 C 527 1769 553 1757 575 1735 C 597 1712 608 1685 608 1655 C 608 1624 597 1597 575 1575 C 553 1553 527 1542 497 1542 Z M 893 1542 C 862 1542 835 1553 813 1575 C 791 1597 780 1624 780 1655 C 780 1685 791 1712 813 1735 C 835 1757 862 1769 893 1769 C 923 1769 950 1757 972 1735 C 994 1712 1005 1685 1005 1655 C 1005 1624 994 1597 972 1575 C 950 1553 923 1542 893 1542 Z" unicode="Ü" />
<glyph horiz-adv-x="1335" d="M 1239 1434 L 748 569 L 748 0 L 588 0 L 588 567 L 96 1434 L 279 1434 L 508 1022 C 536 970 565 916 595 861 C 624 805 649 757 670 715 C 690 757 715 806 744 862 C 773 918 802 971 831 1022 L 1061 1434 L 1239 1434 Z M 1022 1814 L 713 1487 L 592 1487 L 803 1814 L 1022 1814 Z" unicode="Ý" />
<glyph horiz-adv-x="1266" d="M 1182 748 C 1182 677 1170 614 1146 559 C 1122 503 1089 457 1047 420 C 1004 382 953 354 893 334 C 833 314 767 305 696 305 L 348 305 L 348 0 L 188 0 L 188 1434 L 348 1434 L 348 1176 L 725 1176 C 789 1176 850 1167 906 1150 C 962 1132 1010 1106 1051 1071 C 1091 1035 1123 991 1147 937 C 1170 883 1182 820 1182 748 Z M 1022 741 C 1022 833 995 904 943 954 C 891 1004 816 1030 719 1030 L 348 1030 L 348 451 L 698 451 C 807 451 888 475 942 525 C 995 574 1022 646 1022 741 Z" unicode="Þ" />
<glyph horiz-adv-x="1171" d="M 1059 463 C 1059 378 1045 306 1017 247 C 989 188 951 140 903 104 C 855 67 798 40 734 24 C 669 8 600 0 528 0 L 498 0 L 498 135 L 535 135 C 651 135 742 160 807 210 C 872 260 905 339 905 449 C 905 501 894 547 874 585 C 854 623 827 654 794 678 C 760 702 721 719 677 731 C 633 742 587 748 539 748 L 498 748 L 498 881 L 545 881 C 623 881 684 901 728 941 C 772 981 795 1042 795 1122 C 795 1192 773 1249 729 1291 C 685 1333 628 1354 557 1354 C 489 1354 434 1330 390 1284 C 346 1238 324 1171 324 1083 L 324 -309 L 170 -395 L 170 1057 C 170 1195 206 1301 278 1375 C 350 1449 444 1487 561 1487 C 619 1487 673 1477 721 1459 C 769 1440 809 1414 843 1382 C 876 1350 902 1311 920 1267 C 938 1222 948 1174 948 1124 C 948 1040 929 975 891 929 C 853 882 810 848 762 827 C 797 818 832 805 868 788 C 904 770 936 747 964 718 C 992 689 1014 653 1032 611 C 1050 569 1059 519 1059 463 Z" unicode="ß" />
<glyph horiz-adv-x="1104" d="M 786 481 C 752 500 713 515 671 526 C 629 537 575 543 510 543 C 431 543 369 524 325 488 C 280 451 258 399 258 332 C 258 252 278 194 318 157 C 358 120 411 102 477 102 C 546 102 607 117 659 149 C 711 181 753 219 786 264 L 786 481 Z M 940 0 L 786 0 L 786 131 C 748 90 702 54 647 23 C 592 -7 527 -23 451 -23 C 409 -23 367 -17 326 -5 C 284 6 247 25 215 52 C 183 78 156 114 136 158 C 116 202 106 257 106 322 C 106 382 117 433 140 477 C 163 521 194 556 232 584 C 270 612 314 632 364 646 C 414 659 465 666 518 666 C 572 666 622 660 669 648 C 715 636 754 621 786 604 L 786 731 C 786 810 766 869 728 909 C 690 949 631 969 553 969 C 497 969 445 961 397 947 C 349 932 304 912 260 887 L 203 1012 C 249 1037 304 1058 366 1074 C 428 1090 493 1098 563 1098 C 678 1098 770 1071 838 1017 C 906 963 940 874 940 750 L 940 0 Z M 654 1219 L 533 1219 L 224 1546 L 443 1546 L 654 1219 Z" unicode="à" />
<glyph horiz-adv-x="1104" d="M 786 481 C 752 500 713 515 671 526 C 629 537 575 543 510 543 C 431 543 369 524 325 488 C 280 451 258 399 258 332 C 258 252 278 194 318 157 C 358 120 411 102 477 102 C 546 102 607 117 659 149 C 711 181 753 219 786 264 L 786 481 Z M 940 0 L 786 0 L 786 131 C 748 90 702 54 647 23 C 592 -7 527 -23 451 -23 C 409 -23 367 -17 326 -5 C 284 6 247 25 215 52 C 183 78 156 114 136 158 C 116 202 106 257 106 322 C 106 382 117 433 140 477 C 163 521 194 556 232 584 C 270 612 314 632 364 646 C 414 659 465 666 518 666 C 572 666 622 660 669 648 C 715 636 754 621 786 604 L 786 731 C 786 810 766 869 728 909 C 690 949 631 969 553 969 C 497 969 445 961 397 947 C 349 932 304 912 260 887 L 203 1012 C 249 1037 304 1058 366 1074 C 428 1090 493 1098 563 1098 C 678 1098 770 1071 838 1017 C 906 963 940 874 940 750 L 940 0 Z M 895 1546 L 586 1219 L 465 1219 L 676 1546 L 895 1546 Z" unicode="á" />
<glyph horiz-adv-x="1104" d="M 786 481 C 752 500 713 515 671 526 C 629 537 575 543 510 543 C 431 543 369 524 325 488 C 280 451 258 399 258 332 C 258 252 278 194 318 157 C 358 120 411 102 477 102 C 546 102 607 117 659 149 C 711 181 753 219 786 264 L 786 481 Z M 940 0 L 786 0 L 786 131 C 748 90 702 54 647 23 C 592 -7 527 -23 451 -23 C 409 -23 367 -17 326 -5 C 284 6 247 25 215 52 C 183 78 156 114 136 158 C 116 202 106 257 106 322 C 106 382 117 433 140 477 C 163 521 194 556 232 584 C 270 612 314 632 364 646 C 414 659 465 666 518 666 C 572 666 622 660 669 648 C 715 636 754 621 786 604 L 786 731 C 786 810 766 869 728 909 C 690 949 631 969 553 969 C 497 969 445 961 397 947 C 349 932 304 912 260 887 L 203 1012 C 249 1037 304 1058 366 1074 C 428 1090 493 1098 563 1098 C 678 1098 770 1071 838 1017 C 906 963 940 874 940 750 L 940 0 Z M 893 1209 L 760 1209 L 553 1420 L 346 1209 L 217 1209 L 469 1536 L 641 1536 L 893 1209 Z" unicode="â" />
<glyph horiz-adv-x="1104" d="M 786 481 C 752 500 713 515 671 526 C 629 537 575 543 510 543 C 431 543 369 524 325 488 C 280 451 258 399 258 332 C 258 252 278 194 318 157 C 358 120 411 102 477 102 C 546 102 607 117 659 149 C 711 181 753 219 786 264 L 786 481 Z M 940 0 L 786 0 L 786 131 C 748 90 702 54 647 23 C 592 -7 527 -23 451 -23 C 409 -23 367 -17 326 -5 C 284 6 247 25 215 52 C 183 78 156 114 136 158 C 116 202 106 257 106 322 C 106 382 117 433 140 477 C 163 521 194 556 232 584 C 270 612 314 632 364 646 C 414 659 465 666 518 666 C 572 666 622 660 669 648 C 715 636 754 621 786 604 L 786 731 C 786 810 766 869 728 909 C 690 949 631 969 553 969 C 497 969 445 961 397 947 C 349 932 304 912 260 887 L 203 1012 C 249 1037 304 1058 366 1074 C 428 1090 493 1098 563 1098 C 678 1098 770 1071 838 1017 C 906 963 940 874 940 750 L 940 0 Z M 918 1491 C 918 1400 896 1333 854 1290 C 812 1246 763 1225 709 1225 C 682 1225 656 1229 632 1237 C 607 1245 582 1258 557 1278 C 507 1316 472 1340 454 1351 C 436 1362 416 1368 395 1368 C 375 1368 359 1358 345 1339 C 331 1319 321 1283 315 1231 L 188 1231 C 188 1321 209 1388 251 1432 C 293 1475 342 1497 397 1497 C 423 1497 449 1493 474 1485 C 498 1477 523 1463 549 1444 C 597 1406 632 1381 652 1370 C 672 1359 691 1354 711 1354 C 732 1354 749 1364 762 1386 C 774 1408 784 1443 791 1491 L 918 1491 Z" unicode="ã" />
<glyph horiz-adv-x="1104" d="M 786 481 C 752 500 713 515 671 526 C 629 537 575 543 510 543 C 431 543 369 524 325 488 C 280 451 258 399 258 332 C 258 252 278 194 318 157 C 358 120 411 102 477 102 C 546 102 607 117 659 149 C 711 181 753 219 786 264 L 786 481 Z M 940 0 L 786 0 L 786 131 C 748 90 702 54 647 23 C 592 -7 527 -23 451 -23 C 409 -23 367 -17 326 -5 C 284 6 247 25 215 52 C 183 78 156 114 136 158 C 116 202 106 257 106 322 C 106 382 117 433 140 477 C 163 521 194 556 232 584 C 270 612 314 632 364 646 C 414 659 465 666 518 666 C 572 666 622 660 669 648 C 715 636 754 621 786 604 L 786 731 C 786 810 766 869 728 909 C 690 949 631 969 553 969 C 497 969 445 961 397 947 C 349 932 304 912 260 887 L 203 1012 C 249 1037 304 1058 366 1074 C 428 1090 493 1098 563 1098 C 678 1098 770 1071 838 1017 C 906 963 940 874 940 750 L 940 0 Z M 356 1225 C 324 1225 297 1236 275 1258 C 253 1280 242 1307 242 1338 C 242 1368 253 1395 275 1418 C 297 1440 324 1452 356 1452 C 386 1452 412 1440 434 1418 C 456 1395 467 1368 467 1338 C 467 1307 456 1280 434 1258 C 412 1236 386 1225 356 1225 Z M 752 1225 C 721 1225 694 1236 672 1258 C 650 1280 639 1307 639 1338 C 639 1368 650 1395 672 1418 C 694 1440 721 1452 752 1452 C 782 1452 809 1440 831 1418 C 853 1395 864 1368 864 1338 C 864 1307 853 1280 831 1258 C 809 1236 782 1225 752 1225 Z" unicode="ä" />
<glyph horiz-adv-x="1104" d="M 786 481 C 752 500 713 515 671 526 C 629 537 575 543 510 543 C 431 543 369 524 325 488 C 280 451 258 399 258 332 C 258 252 278 194 318 157 C 358 120 411 102 477 102 C 546 102 607 117 659 149 C 711 181 753 219 786 264 L 786 481 Z M 940 0 L 786 0 L 786 131 C 748 90 702 54 647 23 C 592 -7 527 -23 451 -23 C 409 -23 367 -17 326 -5 C 284 6 247 25 215 52 C 183 78 156 114 136 158 C 116 202 106 257 106 322 C 106 382 117 433 140 477 C 163 521 194 556 232 584 C 270 612 314 632 364 646 C 414 659 465 666 518 666 C 572 666 622 660 669 648 C 715 636 754 621 786 604 L 786 731 C 786 810 766 869 728 909 C 690 949 631 969 553 969 C 497 969 445 961 397 947 C 349 932 304 912 260 887 L 203 1012 C 249 1037 304 1058 366 1074 C 428 1090 493 1098 563 1098 C 678 1098 770 1071 838 1017 C 906 963 940 874 940 750 L 940 0 Z M 555 1227 C 485 1227 428 1250 383 1297 C 337 1343 315 1400 315 1466 C 315 1532 337 1588 383 1634 C 428 1680 485 1704 555 1704 C 624 1704 681 1680 727 1634 C 772 1588 795 1532 795 1466 C 795 1400 772 1343 727 1297 C 681 1250 624 1227 555 1227 Z M 555 1319 C 599 1319 633 1332 659 1360 C 685 1388 698 1423 698 1466 C 698 1508 685 1542 659 1570 C 633 1598 599 1612 555 1612 C 511 1612 476 1598 450 1570 C 424 1542 412 1508 412 1466 C 412 1423 424 1388 450 1360 C 476 1332 511 1319 555 1319 Z" unicode="å" />
<glyph horiz-adv-x="1716" d="M 1456 610 C 1450 714 1425 799 1383 865 C 1341 931 1273 965 1180 965 C 1100 965 1037 935 990 877 C 942 818 914 729 905 610 L 1456 610 Z M 1593 485 L 905 485 C 912 371 939 280 987 212 C 1035 144 1102 111 1190 111 C 1252 111 1302 119 1341 137 C 1379 155 1423 180 1473 213 L 1544 102 C 1512 81 1482 63 1454 47 C 1426 31 1399 18 1371 8 C 1343 -1 1313 -9 1281 -15 C 1249 -20 1214 -23 1174 -23 C 1114 -23 1055 -8 995 20 C 935 48 884 96 842 164 C 784 98 725 51 664 21 C 602 -8 526 -23 436 -23 C 394 -23 353 -17 313 -5 C 273 6 238 25 208 52 C 177 78 152 114 134 158 C 115 202 106 257 106 322 C 106 382 116 433 138 477 C 160 521 189 556 225 584 C 261 612 304 632 352 646 C 400 659 451 666 504 666 C 558 666 605 660 647 648 C 689 636 726 621 758 604 L 758 731 C 758 810 741 869 707 909 C 673 949 617 969 539 969 C 483 969 433 961 390 947 C 347 932 304 912 260 887 L 203 1012 C 249 1037 301 1058 359 1074 C 416 1090 479 1098 549 1098 C 643 1098 716 1080 767 1045 C 818 1010 850 963 862 903 C 894 964 937 1012 991 1046 C 1045 1080 1108 1098 1182 1098 C 1251 1098 1312 1084 1365 1058 C 1417 1032 1461 995 1495 949 C 1529 902 1555 846 1573 781 C 1590 716 1599 645 1599 569 C 1599 550 1598 534 1597 522 C 1596 510 1595 497 1593 485 Z M 754 483 C 720 501 684 516 647 527 C 610 537 560 543 496 543 C 417 543 358 524 318 488 C 278 451 258 399 258 332 C 258 252 275 194 311 157 C 347 120 397 102 463 102 C 511 102 564 115 622 142 C 679 168 734 216 786 285 C 777 313 770 344 765 377 C 759 410 756 445 754 483 Z" unicode="æ" />
<glyph horiz-adv-x="1014" d="M 911 127 C 866 81 816 44 761 17 C 705 -9 640 -23 565 -23 C 506 -23 449 -11 395 11 C 340 34 292 68 250 114 C 208 160 175 217 150 287 C 125 357 113 438 113 532 C 113 631 126 716 153 788 C 180 860 215 918 259 964 C 303 1010 352 1043 408 1065 C 463 1087 519 1098 575 1098 C 647 1098 712 1085 768 1061 C 824 1037 873 1007 915 971 L 823 856 C 784 890 745 917 705 936 C 665 955 619 965 565 965 C 481 965 411 928 354 855 C 296 781 268 678 268 545 C 268 413 294 308 348 229 C 402 150 476 111 571 111 C 623 111 668 121 706 141 C 744 161 782 189 819 225 L 911 127 Z M 547 -395 C 505 -395 463 -388 421 -376 C 379 -363 341 -345 306 -322 L 344 -256 C 372 -274 402 -288 434 -297 C 466 -306 499 -311 533 -311 C 585 -311 621 -302 641 -284 C 660 -266 670 -246 670 -223 C 670 -202 664 -186 653 -174 C 642 -162 626 -156 605 -156 C 585 -156 567 -159 551 -165 C 534 -171 519 -180 506 -193 L 433 -164 L 484 0 L 576 0 L 541 -104 C 555 -95 572 -88 590 -83 C 608 -78 629 -76 654 -76 C 668 -76 683 -78 699 -83 C 715 -88 729 -96 743 -107 C 757 -118 768 -133 777 -151 C 786 -169 791 -191 791 -217 C 791 -250 784 -278 771 -301 C 757 -323 740 -342 718 -356 C 696 -370 670 -380 640 -386 C 610 -392 579 -395 547 -395 Z" unicode="ç" />
<glyph horiz-adv-x="1106" d="M 983 485 L 266 485 C 273 371 303 280 355 212 C 407 144 477 111 565 111 C 627 111 679 119 723 137 C 767 155 813 180 862 213 L 934 102 C 870 61 810 30 754 9 C 698 -12 629 -23 549 -23 C 499 -23 449 -13 397 6 C 345 26 299 58 257 102 C 215 146 180 204 153 277 C 126 349 113 438 113 543 C 113 628 124 705 146 774 C 168 842 199 900 239 948 C 278 996 325 1033 379 1059 C 433 1085 493 1098 557 1098 C 627 1098 689 1084 743 1058 C 797 1032 842 995 878 949 C 914 902 942 846 961 781 C 979 716 989 645 989 569 C 989 550 988 534 987 522 C 986 510 985 497 983 485 Z M 846 610 C 840 714 813 799 766 865 C 718 931 648 965 555 965 C 475 965 410 935 358 877 C 306 818 275 729 266 610 L 846 610 Z M 654 1219 L 533 1219 L 224 1546 L 443 1546 L 654 1219 Z" unicode="è" />
<glyph horiz-adv-x="1106" d="M 983 485 L 266 485 C 273 371 303 280 355 212 C 407 144 477 111 565 111 C 627 111 679 119 723 137 C 767 155 813 180 862 213 L 934 102 C 870 61 810 30 754 9 C 698 -12 629 -23 549 -23 C 499 -23 449 -13 397 6 C 345 26 299 58 257 102 C 215 146 180 204 153 277 C 126 349 113 438 113 543 C 113 628 124 705 146 774 C 168 842 199 900 239 948 C 278 996 325 1033 379 1059 C 433 1085 493 1098 557 1098 C 627 1098 689 1084 743 1058 C 797 1032 842 995 878 949 C 914 902 942 846 961 781 C 979 716 989 645 989 569 C 989 550 988 534 987 522 C 986 510 985 497 983 485 Z M 846 610 C 840 714 813 799 766 865 C 718 931 648 965 555 965 C 475 965 410 935 358 877 C 306 818 275 729 266 610 L 846 610 Z M 895 1546 L 586 1219 L 465 1219 L 676 1546 L 895 1546 Z" unicode="é" />
<glyph horiz-adv-x="1106" d="M 983 485 L 266 485 C 273 371 303 280 355 212 C 407 144 477 111 565 111 C 627 111 679 119 723 137 C 767 155 813 180 862 213 L 934 102 C 870 61 810 30 754 9 C 698 -12 629 -23 549 -23 C 499 -23 449 -13 397 6 C 345 26 299 58 257 102 C 215 146 180 204 153 277 C 126 349 113 438 113 543 C 113 628 124 705 146 774 C 168 842 199 900 239 948 C 278 996 325 1033 379 1059 C 433 1085 493 1098 557 1098 C 627 1098 689 1084 743 1058 C 797 1032 842 995 878 949 C 914 902 942 846 961 781 C 979 716 989 645 989 569 C 989 550 988 534 987 522 C 986 510 985 497 983 485 Z M 846 610 C 840 714 813 799 766 865 C 718 931 648 965 555 965 C 475 965 410 935 358 877 C 306 818 275 729 266 610 L 846 610 Z M 893 1199 L 760 1199 L 553 1410 L 346 1199 L 217 1199 L 469 1526 L 641 1526 L 893 1199 Z" unicode="ê" />
<glyph horiz-adv-x="1106" d="M 983 485 L 266 485 C 273 371 303 280 355 212 C 407 144 477 111 565 111 C 627 111 679 119 723 137 C 767 155 813 180 862 213 L 934 102 C 870 61 810 30 754 9 C 698 -12 629 -23 549 -23 C 499 -23 449 -13 397 6 C 345 26 299 58 257 102 C 215 146 180 204 153 277 C 126 349 113 438 113 543 C 113 628 124 705 146 774 C 168 842 199 900 239 948 C 278 996 325 1033 379 1059 C 433 1085 493 1098 557 1098 C 627 1098 689 1084 743 1058 C 797 1032 842 995 878 949 C 914 902 942 846 961 781 C 979 716 989 645 989 569 C 989 550 988 534 987 522 C 986 510 985 497 983 485 Z M 846 610 C 840 714 813 799 766 865 C 718 931 648 965 555 965 C 475 965 410 935 358 877 C 306 818 275 729 266 610 L 846 610 Z M 358 1225 C 326 1225 299 1236 277 1258 C 255 1280 244 1307 244 1338 C 244 1368 255 1395 277 1418 C 299 1440 326 1452 358 1452 C 388 1452 414 1440 436 1418 C 458 1395 469 1368 469 1338 C 469 1307 458 1280 436 1258 C 414 1236 388 1225 358 1225 Z M 754 1225 C 723 1225 696 1236 674 1258 C 652 1280 641 1307 641 1338 C 641 1368 652 1395 674 1418 C 696 1440 723 1452 754 1452 C 784 1452 811 1440 833 1418 C 855 1395 866 1368 866 1338 C 866 1307 855 1280 833 1258 C 811 1236 784 1225 754 1225 Z" unicode="ë" />
<glyph horiz-adv-x="514" d="M 334 0 L 180 0 L 180 1075 L 334 1075 L 334 0 Z M 324 1219 L 203 1219 L -106 1546 L 113 1546 L 324 1219 Z" unicode="ì" />
<glyph horiz-adv-x="514" d="M 334 0 L 180 0 L 180 1075 L 334 1075 L 334 0 Z M 620 1546 L 311 1219 L 190 1219 L 401 1546 L 620 1546 Z" unicode="í" />
<glyph horiz-adv-x="514" d="M 334 0 L 180 0 L 180 1075 L 334 1075 L 334 0 Z M 594 1188 L 461 1188 L 254 1399 L 47 1188 L -82 1188 L 170 1515 L 342 1515 L 594 1188 Z" unicode="î" />
<glyph horiz-adv-x="514" d="M 334 0 L 180 0 L 180 1075 L 334 1075 L 334 0 Z M 59 1215 C 27 1215 0 1226 -21 1248 C -43 1270 -55 1297 -55 1328 C -55 1358 -43 1385 -21 1408 C 0 1430 27 1442 59 1442 C 89 1442 115 1430 137 1408 C 159 1385 170 1358 170 1328 C 170 1297 159 1270 137 1248 C 115 1226 89 1215 59 1215 Z M 455 1215 C 424 1215 397 1226 375 1248 C 353 1270 342 1297 342 1328 C 342 1358 353 1385 375 1408 C 397 1430 424 1442 455 1442 C 485 1442 512 1430 534 1408 C 556 1385 567 1358 567 1328 C 567 1297 556 1270 534 1248 C 512 1226 485 1215 455 1215 Z" unicode="ï" />
<glyph horiz-adv-x="1159" d="M 1047 610 C 1047 391 1004 231 920 129 C 836 27 721 -23 575 -23 C 513 -23 455 -12 399 10 C 343 32 293 64 251 106 C 209 148 175 201 150 264 C 125 327 113 399 113 481 C 113 563 125 635 149 699 C 173 762 205 815 245 857 C 285 899 331 932 383 954 C 435 976 488 987 543 987 C 635 987 710 970 767 937 C 824 903 871 859 907 805 C 886 894 857 972 820 1039 C 782 1106 736 1162 680 1206 L 565 1077 L 461 1165 L 559 1276 C 531 1286 502 1296 471 1304 C 440 1312 408 1318 375 1321 L 375 1456 C 423 1453 470 1445 517 1433 C 563 1420 608 1402 651 1380 L 721 1456 L 825 1368 L 766 1303 C 849 1234 917 1142 969 1026 C 1021 910 1047 771 1047 610 Z M 893 485 C 893 613 862 707 800 766 C 738 824 660 854 565 854 C 474 854 402 822 348 758 C 294 694 268 603 268 485 C 268 421 276 366 292 319 C 308 272 329 233 357 203 C 385 172 418 149 456 134 C 494 118 536 111 580 111 C 624 111 665 118 703 134 C 741 149 774 172 802 203 C 830 233 852 272 868 319 C 884 366 893 421 893 485 Z" unicode="ð" />
<glyph horiz-adv-x="1161" d="M 997 0 L 844 0 L 844 629 C 844 743 823 828 781 883 C 739 937 675 965 590 965 C 515 965 452 938 401 884 C 349 830 324 745 324 629 L 324 0 L 170 0 L 170 1075 L 324 1075 L 324 944 C 354 988 395 1025 445 1054 C 495 1083 553 1098 621 1098 C 733 1098 824 1062 893 992 C 962 921 997 809 997 655 L 997 0 Z M 938 1491 C 938 1400 916 1333 874 1290 C 832 1246 783 1225 729 1225 C 702 1225 676 1229 652 1237 C 627 1245 602 1258 577 1278 C 527 1316 492 1340 474 1351 C 456 1362 436 1368 415 1368 C 395 1368 379 1358 365 1339 C 351 1319 341 1283 335 1231 L 208 1231 C 208 1321 229 1388 271 1432 C 313 1475 362 1497 417 1497 C 443 1497 469 1493 494 1485 C 518 1477 543 1463 569 1444 C 617 1406 652 1381 672 1370 C 692 1359 711 1354 731 1354 C 752 1354 769 1364 782 1386 C 794 1408 804 1443 811 1491 L 938 1491 Z" unicode="ñ" />
<glyph horiz-adv-x="1159" d="M 575 -23 C 509 -23 448 -10 392 13 C 336 37 287 73 246 120 C 204 167 172 226 148 296 C 124 366 113 446 113 537 C 113 627 125 708 150 778 C 174 848 208 906 250 954 C 292 1001 342 1037 400 1061 C 457 1085 518 1098 584 1098 C 649 1098 710 1086 767 1062 C 823 1038 872 1004 914 958 C 955 912 987 854 1011 785 C 1035 715 1047 635 1047 545 C 1047 454 1034 373 1010 302 C 985 231 951 172 909 124 C 867 76 817 39 759 14 C 701 -10 640 -23 575 -23 Z M 580 965 C 486 965 411 929 354 858 C 296 786 268 681 268 541 C 268 400 296 293 354 220 C 411 147 486 111 580 111 C 672 111 748 147 806 220 C 864 293 893 400 893 541 C 893 681 864 786 806 858 C 748 929 672 965 580 965 Z M 670 1219 L 549 1219 L 240 1546 L 459 1546 L 670 1219 Z" unicode="ò" />
<glyph horiz-adv-x="1159" d="M 575 -23 C 509 -23 448 -10 392 13 C 336 37 287 73 246 120 C 204 167 172 226 148 296 C 124 366 113 446 113 537 C 113 627 125 708 150 778 C 174 848 208 906 250 954 C 292 1001 342 1037 400 1061 C 457 1085 518 1098 584 1098 C 649 1098 710 1086 767 1062 C 823 1038 872 1004 914 958 C 955 912 987 854 1011 785 C 1035 715 1047 635 1047 545 C 1047 454 1034 373 1010 302 C 985 231 951 172 909 124 C 867 76 817 39 759 14 C 701 -10 640 -23 575 -23 Z M 580 965 C 486 965 411 929 354 858 C 296 786 268 681 268 541 C 268 400 296 293 354 220 C 411 147 486 111 580 111 C 672 111 748 147 806 220 C 864 293 893 400 893 541 C 893 681 864 786 806 858 C 748 929 672 965 580 965 Z M 911 1546 L 602 1219 L 481 1219 L 692 1546 L 911 1546 Z" unicode="ó" />
<glyph horiz-adv-x="1159" d="M 575 -23 C 509 -23 448 -10 392 13 C 336 37 287 73 246 120 C 204 167 172 226 148 296 C 124 366 113 446 113 537 C 113 627 125 708 150 778 C 174 848 208 906 250 954 C 292 1001 342 1037 400 1061 C 457 1085 518 1098 584 1098 C 649 1098 710 1086 767 1062 C 823 1038 872 1004 914 958 C 955 912 987 854 1011 785 C 1035 715 1047 635 1047 545 C 1047 454 1034 373 1010 302 C 985 231 951 172 909 124 C 867 76 817 39 759 14 C 701 -10 640 -23 575 -23 Z M 580 965 C 486 965 411 929 354 858 C 296 786 268 681 268 541 C 268 400 296 293 354 220 C 411 147 486 111 580 111 C 672 111 748 147 806 220 C 864 293 893 400 893 541 C 893 681 864 786 806 858 C 748 929 672 965 580 965 Z M 916 1199 L 783 1199 L 576 1410 L 369 1199 L 240 1199 L 492 1526 L 664 1526 L 916 1199 Z" unicode="ô" />
<glyph horiz-adv-x="1159" d="M 575 -23 C 509 -23 448 -10 392 13 C 336 37 287 73 246 120 C 204 167 172 226 148 296 C 124 366 113 446 113 537 C 113 627 125 708 150 778 C 174 848 208 906 250 954 C 292 1001 342 1037 400 1061 C 457 1085 518 1098 584 1098 C 649 1098 710 1086 767 1062 C 823 1038 872 1004 914 958 C 955 912 987 854 1011 785 C 1035 715 1047 635 1047 545 C 1047 454 1034 373 1010 302 C 985 231 951 172 909 124 C 867 76 817 39 759 14 C 701 -10 640 -23 575 -23 Z M 580 965 C 486 965 411 929 354 858 C 296 786 268 681 268 541 C 268 400 296 293 354 220 C 411 147 486 111 580 111 C 672 111 748 147 806 220 C 864 293 893 400 893 541 C 893 681 864 786 806 858 C 748 929 672 965 580 965 Z M 943 1491 C 943 1400 921 1333 879 1290 C 837 1246 788 1225 734 1225 C 707 1225 681 1229 657 1237 C 632 1245 607 1258 582 1278 C 532 1316 497 1340 479 1351 C 461 1362 441 1368 420 1368 C 400 1368 384 1358 370 1339 C 356 1319 346 1283 340 1231 L 213 1231 C 213 1321 234 1388 276 1432 C 318 1475 367 1497 422 1497 C 448 1497 474 1493 499 1485 C 523 1477 548 1463 574 1444 C 622 1406 657 1381 677 1370 C 697 1359 716 1354 736 1354 C 757 1354 774 1364 787 1386 C 799 1408 809 1443 816 1491 L 943 1491 Z" unicode="õ" />
<glyph horiz-adv-x="1159" d="M 575 -23 C 509 -23 448 -10 392 13 C 336 37 287 73 246 120 C 204 167 172 226 148 296 C 124 366 113 446 113 537 C 113 627 125 708 150 778 C 174 848 208 906 250 954 C 292 1001 342 1037 400 1061 C 457 1085 518 1098 584 1098 C 649 1098 710 1086 767 1062 C 823 1038 872 1004 914 958 C 955 912 987 854 1011 785 C 1035 715 1047 635 1047 545 C 1047 454 1034 373 1010 302 C 985 231 951 172 909 124 C 867 76 817 39 759 14 C 701 -10 640 -23 575 -23 Z M 580 965 C 486 965 411 929 354 858 C 296 786 268 681 268 541 C 268 400 296 293 354 220 C 411 147 486 111 580 111 C 672 111 748 147 806 220 C 864 293 893 400 893 541 C 893 681 864 786 806 858 C 748 929 672 965 580 965 Z M 381 1215 C 349 1215 322 1226 300 1248 C 278 1270 267 1297 267 1328 C 267 1358 278 1385 300 1408 C 322 1430 349 1442 381 1442 C 411 1442 437 1430 459 1408 C 481 1385 492 1358 492 1328 C 492 1297 481 1270 459 1248 C 437 1226 411 1215 381 1215 Z M 777 1215 C 746 1215 719 1226 697 1248 C 675 1270 664 1297 664 1328 C 664 1358 675 1385 697 1408 C 719 1430 746 1442 777 1442 C 807 1442 834 1430 856 1408 C 878 1385 889 1358 889 1328 C 889 1297 878 1270 856 1248 C 834 1226 807 1215 777 1215 Z" unicode="ö" />
<glyph horiz-adv-x="1270" d="M 635 1262 C 671 1262 703 1248 729 1220 C 755 1192 768 1160 768 1124 C 768 1088 755 1056 729 1030 C 703 1004 671 991 635 991 C 598 991 567 1004 541 1030 C 515 1056 502 1088 502 1124 C 502 1160 515 1192 541 1220 C 567 1248 598 1262 635 1262 Z M 1133 635 L 137 635 L 137 774 L 1133 774 L 1133 635 Z M 635 418 C 671 418 703 404 729 376 C 755 348 768 317 768 281 C 768 244 755 212 729 186 C 703 160 671 147 635 147 C 598 147 567 160 541 186 C 515 212 502 244 502 281 C 502 317 515 348 541 376 C 567 404 598 418 635 418 Z" unicode="÷" />
<glyph horiz-adv-x="1159" d="M 709 942 C 689 951 669 958 647 962 C 625 966 603 969 580 969 C 486 969 409 933 351 861 C 293 789 264 682 264 541 C 264 466 272 401 289 345 C 305 289 328 243 358 207 L 709 942 Z M 897 541 C 897 612 889 675 873 729 C 857 783 835 828 807 864 L 457 131 C 475 123 495 116 515 112 C 535 108 557 106 580 106 C 673 106 749 143 808 217 C 867 291 897 399 897 541 Z M 1047 545 C 1047 454 1034 373 1010 302 C 985 231 951 172 909 124 C 867 76 817 39 759 14 C 701 -10 640 -23 575 -23 C 543 -23 513 -20 483 -14 C 453 -8 425 0 399 10 L 346 -102 L 211 -102 L 295 74 C 239 118 194 180 162 259 C 129 337 113 430 113 537 C 113 627 125 708 150 778 C 174 848 208 906 250 954 C 292 1001 342 1037 400 1061 C 457 1085 518 1098 584 1098 C 616 1098 648 1094 679 1088 C 709 1082 738 1073 766 1063 L 821 1178 L 956 1178 L 870 999 C 924 954 967 893 999 817 C 1031 740 1047 649 1047 545 Z" unicode="ø" />
<glyph horiz-adv-x="1161" d="M 991 0 L 838 0 L 838 131 C 807 86 767 49 717 20 C 667 -8 608 -23 541 -23 C 427 -23 336 12 267 83 C 198 153 164 266 164 420 L 164 1075 L 317 1075 L 317 446 C 317 331 338 246 380 192 C 422 138 485 111 571 111 C 645 111 708 137 760 191 C 812 244 838 329 838 446 L 838 1075 L 991 1075 L 991 0 Z M 652 1219 L 531 1219 L 222 1546 L 441 1546 L 652 1219 Z" unicode="ù" />
<glyph horiz-adv-x="1161" d="M 991 0 L 838 0 L 838 131 C 807 86 767 49 717 20 C 667 -8 608 -23 541 -23 C 427 -23 336 12 267 83 C 198 153 164 266 164 420 L 164 1075 L 317 1075 L 317 446 C 317 331 338 246 380 192 C 422 138 485 111 571 111 C 645 111 708 137 760 191 C 812 244 838 329 838 446 L 838 1075 L 991 1075 L 991 0 Z M 923 1546 L 614 1219 L 493 1219 L 704 1546 L 923 1546 Z" unicode="ú" />
<glyph horiz-adv-x="1161" d="M 991 0 L 838 0 L 838 131 C 807 86 767 49 717 20 C 667 -8 608 -23 541 -23 C 427 -23 336 12 267 83 C 198 153 164 266 164 420 L 164 1075 L 317 1075 L 317 446 C 317 331 338 246 380 192 C 422 138 485 111 571 111 C 645 111 708 137 760 191 C 812 244 838 329 838 446 L 838 1075 L 991 1075 L 991 0 Z M 918 1219 L 785 1219 L 578 1430 L 371 1219 L 242 1219 L 494 1546 L 666 1546 L 918 1219 Z" unicode="û" />
<glyph horiz-adv-x="1161" d="M 991 0 L 838 0 L 838 131 C 807 86 767 49 717 20 C 667 -8 608 -23 541 -23 C 427 -23 336 12 267 83 C 198 153 164 266 164 420 L 164 1075 L 317 1075 L 317 446 C 317 331 338 246 380 192 C 422 138 485 111 571 111 C 645 111 708 137 760 191 C 812 244 838 329 838 446 L 838 1075 L 991 1075 L 991 0 Z M 383 1235 C 351 1235 324 1246 302 1268 C 280 1290 269 1317 269 1348 C 269 1378 280 1405 302 1428 C 324 1450 351 1462 383 1462 C 413 1462 439 1450 461 1428 C 483 1405 494 1378 494 1348 C 494 1317 483 1290 461 1268 C 439 1246 413 1235 383 1235 Z M 779 1235 C 748 1235 721 1246 699 1268 C 677 1290 666 1317 666 1348 C 666 1378 677 1405 699 1428 C 721 1450 748 1462 779 1462 C 809 1462 836 1450 858 1428 C 880 1405 891 1378 891 1348 C 891 1317 880 1290 858 1268 C 836 1246 809 1235 779 1235 Z" unicode="ü" />
<glyph horiz-adv-x="1087" d="M 1006 1075 L 471 -379 L 317 -379 L 465 12 L 82 1075 L 244 1075 L 506 295 L 543 184 L 580 293 L 844 1075 L 1006 1075 Z M 890 1526 L 581 1199 L 460 1199 L 671 1526 L 890 1526 Z" unicode="ý" />
<glyph horiz-adv-x="1145" d="M 608 965 C 551 965 499 950 451 922 C 403 893 361 855 324 809 L 324 272 C 353 227 393 189 443 158 C 493 126 550 111 614 111 C 703 111 770 148 814 224 C 858 299 881 409 881 553 C 881 687 856 789 808 859 C 759 929 692 965 608 965 Z M 627 -23 C 559 -23 501 -9 453 17 C 404 43 361 78 324 121 L 324 -309 L 170 -395 L 170 1407 L 324 1493 L 324 944 C 361 984 406 1020 459 1051 C 512 1082 575 1098 647 1098 C 700 1098 750 1087 797 1066 C 844 1045 885 1013 920 969 C 954 925 982 868 1002 799 C 1022 730 1032 649 1032 555 C 1032 460 1021 376 1000 304 C 978 231 949 171 913 123 C 877 75 834 38 785 14 C 735 -10 683 -23 627 -23 Z" unicode="þ" />
<glyph horiz-adv-x="1087" d="M 1006 1075 L 471 -379 L 317 -379 L 465 12 L 82 1075 L 244 1075 L 506 295 L 543 184 L 580 293 L 844 1075 L 1006 1075 Z M 348 1215 C 316 1215 289 1226 267 1248 C 245 1270 234 1297 234 1328 C 234 1358 245 1385 267 1408 C 289 1430 316 1442 348 1442 C 378 1442 404 1430 426 1408 C 448 1385 459 1358 459 1328 C 459 1297 448 1270 426 1248 C 404 1226 378 1215 348 1215 Z M 744 1215 C 713 1215 686 1226 664 1248 C 642 1270 631 1297 631 1328 C 631 1358 642 1385 664 1408 C 686 1430 713 1442 744 1442 C 774 1442 801 1430 823 1408 C 845 1385 856 1358 856 1328 C 856 1297 845 1270 823 1248 C 801 1226 774 1215 744 1215 Z" unicode="ÿ" />
<glyph horiz-adv-x="1389" d="M 940 510 L 782 981 C 774 1004 766 1029 758 1056 C 749 1083 740 1109 732 1135 C 724 1161 716 1185 710 1208 C 703 1230 698 1249 694 1264 C 690 1249 685 1230 679 1208 C 672 1186 665 1162 657 1136 C 649 1110 640 1083 631 1055 C 621 1027 612 1001 604 977 L 446 510 L 940 510 Z M 1280 0 L 1112 0 L 989 365 L 397 365 L 272 0 L 109 0 L 606 1434 L 782 1434 L 1280 0 Z M 973 1573 L 415 1573 L 415 1716 L 973 1716 L 973 1573 Z" unicode="Ā" />
<glyph horiz-adv-x="1104" d="M 786 481 C 752 500 713 515 671 526 C 629 537 575 543 510 543 C 431 543 369 524 325 488 C 280 451 258 399 258 332 C 258 252 278 194 318 157 C 358 120 411 102 477 102 C 546 102 607 117 659 149 C 711 181 753 219 786 264 L 786 481 Z M 940 0 L 786 0 L 786 131 C 748 90 702 54 647 23 C 592 -7 527 -23 451 -23 C 409 -23 367 -17 326 -5 C 284 6 247 25 215 52 C 183 78 156 114 136 158 C 116 202 106 257 106 322 C 106 382 117 433 140 477 C 163 521 194 556 232 584 C 270 612 314 632 364 646 C 414 659 465 666 518 666 C 572 666 622 660 669 648 C 715 636 754 621 786 604 L 786 731 C 786 810 766 869 728 909 C 690 949 631 969 553 969 C 497 969 445 961 397 947 C 349 932 304 912 260 887 L 203 1012 C 249 1037 304 1058 366 1074 C 428 1090 493 1098 563 1098 C 678 1098 770 1071 838 1017 C 906 963 940 874 940 750 L 940 0 Z M 830 1266 L 272 1266 L 272 1409 L 830 1409 L 830 1266 Z" unicode="ā" />
<glyph horiz-adv-x="1389" d="M 940 510 L 782 981 C 774 1004 766 1029 758 1056 C 749 1083 740 1109 732 1135 C 724 1161 716 1185 710 1208 C 703 1230 698 1249 694 1264 C 690 1249 685 1230 679 1208 C 672 1186 665 1162 657 1136 C 649 1110 640 1083 631 1055 C 621 1027 612 1001 604 977 L 446 510 L 940 510 Z M 1280 0 L 1112 0 L 989 365 L 397 365 L 272 0 L 109 0 L 606 1434 L 782 1434 L 1280 0 Z M 1040 1853 C 1035 1751 1002 1671 942 1613 C 881 1555 798 1526 692 1526 C 592 1526 511 1555 449 1613 C 386 1671 352 1751 348 1853 L 475 1853 C 479 1781 500 1728 538 1693 C 575 1657 628 1640 696 1640 C 758 1640 808 1657 847 1691 C 886 1725 909 1779 915 1853 L 1040 1853 Z" unicode="Ă" />
<glyph horiz-adv-x="1104" d="M 786 481 C 752 500 713 515 671 526 C 629 537 575 543 510 543 C 431 543 369 524 325 488 C 280 451 258 399 258 332 C 258 252 278 194 318 157 C 358 120 411 102 477 102 C 546 102 607 117 659 149 C 711 181 753 219 786 264 L 786 481 Z M 940 0 L 786 0 L 786 131 C 748 90 702 54 647 23 C 592 -7 527 -23 451 -23 C 409 -23 367 -17 326 -5 C 284 6 247 25 215 52 C 183 78 156 114 136 158 C 116 202 106 257 106 322 C 106 382 117 433 140 477 C 163 521 194 556 232 584 C 270 612 314 632 364 646 C 414 659 465 666 518 666 C 572 666 622 660 669 648 C 715 636 754 621 786 604 L 786 731 C 786 810 766 869 728 909 C 690 949 631 969 553 969 C 497 969 445 961 397 947 C 349 932 304 912 260 887 L 203 1012 C 249 1037 304 1058 366 1074 C 428 1090 493 1098 563 1098 C 678 1098 770 1071 838 1017 C 906 963 940 874 940 750 L 940 0 Z M 897 1546 C 892 1444 859 1364 799 1306 C 738 1248 655 1219 549 1219 C 449 1219 368 1248 306 1306 C 243 1364 209 1444 205 1546 L 332 1546 C 336 1474 357 1421 395 1386 C 432 1350 485 1333 553 1333 C 615 1333 665 1350 704 1384 C 743 1418 766 1472 772 1546 L 897 1546 Z" unicode="ă" />
<glyph horiz-adv-x="1389" d="M 1108 10 L 989 365 L 397 365 L 272 0 L 109 0 L 606 1434 L 782 1434 L 1280 0 C 1280 0 1268 -5 1244 -16 C 1220 -27 1194 -42 1166 -61 C 1138 -79 1112 -102 1088 -128 C 1064 -154 1053 -181 1053 -211 C 1053 -233 1058 -249 1070 -258 C 1082 -267 1096 -272 1114 -272 C 1134 -272 1152 -267 1167 -257 C 1182 -247 1190 -242 1190 -242 L 1260 -344 C 1260 -344 1256 -347 1249 -354 C 1241 -361 1230 -369 1216 -377 C 1201 -385 1182 -392 1159 -399 C 1135 -406 1108 -410 1077 -410 C 1028 -410 984 -395 945 -366 C 906 -337 887 -298 887 -250 C 887 -216 896 -184 914 -156 C 932 -127 953 -102 977 -80 C 1001 -58 1026 -39 1051 -24 C 1075 -8 1094 2 1108 10 Z M 446 510 L 940 510 L 782 981 C 774 1004 765 1029 757 1056 C 748 1083 740 1109 732 1135 C 724 1161 716 1185 710 1208 C 703 1230 698 1249 694 1264 C 690 1249 685 1230 679 1208 C 672 1186 665 1162 657 1136 C 649 1110 640 1083 631 1055 C 621 1027 612 1001 604 977 L 446 510 Z" unicode="Ą" />
<glyph horiz-adv-x="1104" d="M 940 -344 C 940 -344 936 -347 929 -354 C 922 -361 911 -369 897 -377 C 882 -385 863 -392 840 -399 C 816 -406 789 -410 758 -410 C 708 -410 664 -395 625 -366 C 586 -337 567 -298 567 -250 C 567 -208 578 -172 601 -141 C 624 -109 649 -83 676 -63 C 703 -42 728 -26 751 -16 C 774 -5 786 0 786 0 L 786 131 C 748 90 702 54 647 23 C 592 -7 527 -23 451 -23 C 409 -23 367 -17 326 -5 C 284 6 247 25 215 52 C 183 78 156 114 136 158 C 116 202 106 257 106 322 C 106 382 117 433 140 477 C 163 521 194 556 232 584 C 270 612 314 632 364 646 C 414 659 465 666 518 666 C 572 666 622 660 669 648 C 715 636 754 621 786 604 L 786 731 C 786 810 766 869 728 909 C 690 949 631 969 553 969 C 497 969 445 961 397 947 C 349 932 304 912 260 887 L 203 1012 C 249 1037 304 1058 366 1074 C 428 1090 493 1098 563 1098 C 678 1098 770 1071 838 1017 C 906 963 940 874 940 750 L 940 -20 C 940 -20 929 -24 907 -33 C 885 -41 862 -54 836 -70 C 810 -86 787 -107 765 -131 C 743 -155 733 -181 733 -211 C 733 -233 739 -249 751 -258 C 763 -267 777 -272 795 -272 C 815 -272 833 -267 848 -257 C 862 -247 870 -242 870 -242 L 940 -344 Z M 477 102 C 546 102 607 117 659 149 C 711 181 753 219 786 264 L 786 481 C 752 500 713 515 671 526 C 629 537 575 543 510 543 C 431 543 369 524 325 488 C 280 451 258 399 258 332 C 258 252 278 194 318 157 C 358 120 411 102 477 102 Z" unicode="ą" />
<glyph horiz-adv-x="1286" d="M 1176 215 C 1124 145 1058 87 980 43 C 901 0 810 -23 707 -23 C 619 -23 540 -4 468 33 C 396 71 335 122 285 188 C 235 254 196 332 168 422 C 140 512 127 610 127 715 C 127 821 141 919 170 1010 C 198 1101 238 1179 290 1245 C 341 1311 403 1362 475 1400 C 547 1437 627 1456 713 1456 C 810 1456 896 1437 972 1399 C 1047 1361 1113 1304 1169 1227 L 1042 1130 C 996 1192 948 1237 899 1267 C 849 1296 786 1311 709 1311 C 647 1311 591 1296 539 1267 C 487 1237 443 1197 406 1145 C 368 1093 339 1031 318 958 C 297 885 287 805 287 719 C 287 631 297 551 319 478 C 341 404 370 341 408 289 C 446 237 491 196 543 167 C 595 137 651 123 711 123 C 788 123 855 139 911 173 C 967 206 1019 252 1065 311 L 1176 215 Z M 1065 1853 L 756 1526 L 635 1526 L 846 1853 L 1065 1853 Z" unicode="Ć" />
<glyph horiz-adv-x="1014" d="M 911 127 C 866 81 816 44 761 17 C 705 -9 640 -23 565 -23 C 506 -23 449 -11 395 11 C 340 34 292 68 250 114 C 208 160 175 217 150 287 C 125 357 113 438 113 532 C 113 631 126 716 153 788 C 180 860 215 918 259 964 C 303 1010 352 1043 408 1065 C 463 1087 519 1098 575 1098 C 647 1098 712 1085 768 1061 C 824 1037 873 1007 915 971 L 823 856 C 784 890 745 917 705 936 C 665 955 619 965 565 965 C 481 965 411 928 354 855 C 296 781 268 678 268 545 C 268 413 294 308 348 229 C 402 150 476 111 571 111 C 623 111 668 121 706 141 C 744 161 782 189 819 225 L 911 127 Z M 819 1546 L 510 1219 L 389 1219 L 600 1546 L 819 1546 Z" unicode="ć" />
<glyph horiz-adv-x="1286" d="M 1176 215 C 1124 145 1058 87 980 43 C 901 0 810 -23 707 -23 C 619 -23 540 -4 468 33 C 396 71 335 122 285 188 C 235 254 196 332 168 422 C 140 512 127 610 127 715 C 127 821 141 919 170 1010 C 198 1101 238 1179 290 1245 C 341 1311 403 1362 475 1400 C 547 1437 627 1456 713 1456 C 810 1456 896 1437 972 1399 C 1047 1361 1113 1304 1169 1227 L 1042 1130 C 996 1192 948 1237 899 1267 C 849 1296 786 1311 709 1311 C 647 1311 591 1296 539 1267 C 487 1237 443 1197 406 1145 C 368 1093 339 1031 318 958 C 297 885 287 805 287 719 C 287 631 297 551 319 478 C 341 404 370 341 408 289 C 446 237 491 196 543 167 C 595 137 651 123 711 123 C 788 123 855 139 911 173 C 967 206 1019 252 1065 311 L 1176 215 Z M 1057 1516 L 924 1516 L 717 1727 L 510 1516 L 381 1516 L 633 1843 L 805 1843 L 1057 1516 Z" unicode="Ĉ" />
<glyph horiz-adv-x="1014" d="M 911 127 C 866 81 816 44 761 17 C 705 -9 640 -23 565 -23 C 506 -23 449 -11 395 11 C 340 34 292 68 250 114 C 208 160 175 217 150 287 C 125 357 113 438 113 532 C 113 631 126 716 153 788 C 180 860 215 918 259 964 C 303 1010 352 1043 408 1065 C 463 1087 519 1098 575 1098 C 647 1098 712 1085 768 1061 C 824 1037 873 1007 915 971 L 823 856 C 784 890 745 917 705 936 C 665 955 619 965 565 965 C 481 965 411 928 354 855 C 296 781 268 678 268 545 C 268 413 294 308 348 229 C 402 150 476 111 571 111 C 623 111 668 121 706 141 C 744 161 782 189 819 225 L 911 127 Z M 916 1201 L 783 1201 L 576 1412 L 369 1201 L 240 1201 L 492 1528 L 664 1528 L 916 1201 Z" unicode="ĉ" />
<glyph horiz-adv-x="1286" d="M 1176 215 C 1124 145 1058 87 980 43 C 901 0 810 -23 707 -23 C 619 -23 540 -4 468 33 C 396 71 335 122 285 188 C 235 254 196 332 168 422 C 140 512 127 610 127 715 C 127 821 141 919 170 1010 C 198 1101 238 1179 290 1245 C 341 1311 403 1362 475 1400 C 547 1437 627 1456 713 1456 C 810 1456 896 1437 972 1399 C 1047 1361 1113 1304 1169 1227 L 1042 1130 C 996 1192 948 1237 899 1267 C 849 1296 786 1311 709 1311 C 647 1311 591 1296 539 1267 C 487 1237 443 1197 406 1145 C 368 1093 339 1031 318 958 C 297 885 287 805 287 719 C 287 631 297 551 319 478 C 341 404 370 341 408 289 C 446 237 491 196 543 167 C 595 137 651 123 711 123 C 788 123 855 139 911 173 C 967 206 1019 252 1065 311 L 1176 215 Z M 715 1542 C 684 1542 657 1553 635 1575 C 613 1597 602 1624 602 1655 C 602 1685 613 1712 635 1735 C 657 1757 684 1769 715 1769 C 745 1769 772 1757 794 1735 C 816 1712 828 1685 828 1655 C 828 1624 816 1597 794 1575 C 772 1553 745 1542 715 1542 Z" unicode="Ċ" />
<glyph horiz-adv-x="1014" d="M 911 127 C 866 81 816 44 761 17 C 705 -9 640 -23 565 -23 C 506 -23 449 -11 395 11 C 340 34 292 68 250 114 C 208 160 175 217 150 287 C 125 357 113 438 113 532 C 113 631 126 716 153 788 C 180 860 215 918 259 964 C 303 1010 352 1043 408 1065 C 463 1087 519 1098 575 1098 C 647 1098 712 1085 768 1061 C 824 1037 873 1007 915 971 L 823 856 C 784 890 745 917 705 936 C 665 955 619 965 565 965 C 481 965 411 928 354 855 C 296 781 268 678 268 545 C 268 413 294 308 348 229 C 402 150 476 111 571 111 C 623 111 668 121 706 141 C 744 161 782 189 819 225 L 911 127 Z M 578 1235 C 547 1235 520 1246 498 1268 C 476 1290 465 1317 465 1348 C 465 1378 476 1405 498 1428 C 520 1450 547 1462 578 1462 C 608 1462 635 1450 657 1428 C 679 1405 691 1378 691 1348 C 691 1317 679 1290 657 1268 C 635 1246 608 1235 578 1235 Z" unicode="ċ" />
<glyph horiz-adv-x="1286" d="M 1176 215 C 1124 145 1058 87 980 43 C 901 0 810 -23 707 -23 C 619 -23 540 -4 468 33 C 396 71 335 122 285 188 C 235 254 196 332 168 422 C 140 512 127 610 127 715 C 127 821 141 919 170 1010 C 198 1101 238 1179 290 1245 C 341 1311 403 1362 475 1400 C 547 1437 627 1456 713 1456 C 810 1456 896 1437 972 1399 C 1047 1361 1113 1304 1169 1227 L 1042 1130 C 996 1192 948 1237 899 1267 C 849 1296 786 1311 709 1311 C 647 1311 591 1296 539 1267 C 487 1237 443 1197 406 1145 C 368 1093 339 1031 318 958 C 297 885 287 805 287 719 C 287 631 297 551 319 478 C 341 404 370 341 408 289 C 446 237 491 196 543 167 C 595 137 651 123 711 123 C 788 123 855 139 911 173 C 967 206 1019 252 1065 311 L 1176 215 Z M 1055 1843 L 803 1516 L 631 1516 L 379 1843 L 512 1843 L 719 1632 L 926 1843 L 1055 1843 Z" unicode="Č" />
<glyph horiz-adv-x="1014" d="M 911 127 C 866 81 816 44 761 17 C 705 -9 640 -23 565 -23 C 506 -23 449 -11 395 11 C 340 34 292 68 250 114 C 208 160 175 217 150 287 C 125 357 113 438 113 532 C 113 631 126 716 153 788 C 180 860 215 918 259 964 C 303 1010 352 1043 408 1065 C 463 1087 519 1098 575 1098 C 647 1098 712 1085 768 1061 C 824 1037 873 1007 915 971 L 823 856 C 784 890 745 917 705 936 C 665 955 619 965 565 965 C 481 965 411 928 354 855 C 296 781 268 678 268 545 C 268 413 294 308 348 229 C 402 150 476 111 571 111 C 623 111 668 121 706 141 C 744 161 782 189 819 225 L 911 127 Z M 911 1546 L 659 1219 L 487 1219 L 235 1546 L 368 1546 L 575 1335 L 782 1546 L 911 1546 Z" unicode="č" />
<glyph horiz-adv-x="1348" d="M 1221 727 C 1221 597 1203 486 1168 394 C 1132 302 1084 226 1023 168 C 962 110 890 67 807 40 C 723 13 634 0 539 0 L 188 0 L 188 1434 L 567 1434 C 661 1434 748 1420 828 1392 C 908 1364 977 1322 1035 1265 C 1093 1207 1138 1134 1171 1045 C 1204 955 1221 849 1221 727 Z M 1061 721 C 1061 903 1017 1043 931 1141 C 844 1239 719 1288 555 1288 L 348 1288 L 348 145 L 559 145 C 713 145 835 189 925 279 C 1015 369 1061 516 1061 721 Z M 1012 1853 L 760 1526 L 588 1526 L 336 1853 L 469 1853 L 676 1642 L 883 1853 L 1012 1853 Z" unicode="Ď" />
<glyph horiz-adv-x="1233" d="M 821 803 C 791 847 751 885 701 917 C 650 949 593 965 530 965 C 441 965 374 927 330 851 C 286 775 264 666 264 522 C 264 388 288 286 337 216 C 385 146 452 111 537 111 C 593 111 645 125 693 153 C 740 181 783 219 821 266 L 821 803 Z M 975 0 L 821 0 L 821 131 C 783 90 737 54 685 23 C 632 -7 570 -23 498 -23 C 444 -23 394 -12 347 8 C 300 29 259 62 225 106 C 190 150 163 206 143 275 C 123 344 113 426 113 520 C 113 614 123 698 145 771 C 166 843 195 904 231 952 C 267 1000 310 1036 360 1061 C 409 1085 462 1098 518 1098 C 585 1098 643 1084 691 1058 C 739 1031 783 996 821 954 L 821 1407 L 975 1493 L 975 0 Z M 1341 1434 L 1208 977 L 1102 977 L 1132 1434 L 1341 1434 Z" unicode="ď" />
<glyph horiz-adv-x="1397" d="M 1241 727 C 1241 597 1223 486 1188 394 C 1152 302 1104 226 1043 168 C 982 110 910 67 827 40 C 743 13 654 0 559 0 L 209 0 L 209 678 L 82 678 L 82 821 L 209 821 L 209 1434 L 588 1434 C 682 1434 769 1420 849 1392 C 929 1364 998 1322 1056 1265 C 1114 1207 1159 1134 1192 1045 C 1224 955 1241 849 1241 727 Z M 1081 721 C 1081 903 1037 1043 951 1141 C 864 1239 739 1288 575 1288 L 365 1288 L 365 821 L 655 821 L 655 678 L 365 678 L 365 145 L 580 145 C 734 145 856 189 946 279 C 1036 369 1081 516 1081 721 Z" unicode="Đ" />
<glyph horiz-adv-x="1145" d="M 821 266 L 821 803 C 791 847 751 885 700 917 C 648 949 592 965 530 965 C 440 965 374 927 330 851 C 286 775 264 666 264 522 C 264 380 290 276 342 210 C 394 144 459 111 537 111 C 595 111 647 124 692 152 C 737 179 780 217 821 266 Z M 975 1288 L 1167 1288 L 1167 1145 L 975 1145 L 975 0 L 821 0 L 821 131 C 772 78 721 39 668 14 C 614 -10 558 -23 498 -23 C 444 -23 394 -12 347 8 C 300 29 259 62 225 106 C 190 150 163 206 143 275 C 123 344 113 426 113 520 C 113 614 123 698 145 771 C 166 843 195 904 232 952 C 268 1000 311 1036 361 1061 C 410 1085 462 1098 518 1098 C 586 1098 643 1084 691 1057 C 739 1030 782 996 821 954 L 821 1145 L 610 1145 L 610 1288 L 821 1288 L 821 1407 L 975 1493 L 975 1288 Z" unicode="đ" />
<glyph horiz-adv-x="1202" d="M 1085 0 L 188 0 L 188 1434 L 1055 1434 L 1055 1288 L 348 1288 L 348 838 L 758 838 L 758 692 L 348 692 L 348 145 L 1085 145 L 1085 0 Z M 914 1573 L 356 1573 L 356 1716 L 914 1716 L 914 1573 Z" unicode="Ē" />
<glyph horiz-adv-x="1106" d="M 983 485 L 266 485 C 273 371 303 280 355 212 C 407 144 477 111 565 111 C 627 111 679 119 723 137 C 767 155 813 180 862 213 L 934 102 C 870 61 810 30 754 9 C 698 -12 629 -23 549 -23 C 499 -23 449 -13 397 6 C 345 26 299 58 257 102 C 215 146 180 204 153 277 C 126 349 113 438 113 543 C 113 628 124 705 146 774 C 168 842 199 900 239 948 C 278 996 325 1033 379 1059 C 433 1085 493 1098 557 1098 C 627 1098 689 1084 743 1058 C 797 1032 842 995 878 949 C 914 902 942 846 961 781 C 979 716 989 645 989 569 C 989 550 988 534 987 522 C 986 510 985 497 983 485 Z M 846 610 C 840 714 813 799 766 865 C 718 931 648 965 555 965 C 475 965 410 935 358 877 C 306 818 275 729 266 610 L 846 610 Z M 832 1266 L 274 1266 L 274 1409 L 832 1409 L 832 1266 Z" unicode="ē" />
<glyph horiz-adv-x="1202" d="M 1085 0 L 188 0 L 188 1434 L 1055 1434 L 1055 1288 L 348 1288 L 348 838 L 758 838 L 758 692 L 348 692 L 348 145 L 1085 145 L 1085 0 Z M 967 1853 C 962 1751 929 1671 869 1613 C 808 1555 725 1526 619 1526 C 519 1526 438 1555 376 1613 C 313 1671 279 1751 275 1853 L 402 1853 C 406 1781 427 1728 465 1693 C 502 1657 555 1640 623 1640 C 685 1640 735 1657 774 1691 C 813 1725 836 1779 842 1853 L 967 1853 Z" unicode="Ĕ" />
<glyph horiz-adv-x="1106" d="M 983 485 L 266 485 C 273 371 303 280 355 212 C 407 144 477 111 565 111 C 627 111 679 119 723 137 C 767 155 813 180 862 213 L 934 102 C 870 61 810 30 754 9 C 698 -12 629 -23 549 -23 C 499 -23 449 -13 397 6 C 345 26 299 58 257 102 C 215 146 180 204 153 277 C 126 349 113 438 113 543 C 113 628 124 705 146 774 C 168 842 199 900 239 948 C 278 996 325 1033 379 1059 C 433 1085 493 1098 557 1098 C 627 1098 689 1084 743 1058 C 797 1032 842 995 878 949 C 914 902 942 846 961 781 C 979 716 989 645 989 569 C 989 550 988 534 987 522 C 986 510 985 497 983 485 Z M 846 610 C 840 714 813 799 766 865 C 718 931 648 965 555 965 C 475 965 410 935 358 877 C 306 818 275 729 266 610 L 846 610 Z M 901 1546 C 896 1444 863 1364 803 1306 C 742 1248 659 1219 553 1219 C 453 1219 372 1248 310 1306 C 247 1364 213 1444 209 1546 L 336 1546 C 340 1474 361 1421 399 1386 C 436 1350 489 1333 557 1333 C 619 1333 669 1350 708 1384 C 747 1418 770 1472 776 1546 L 901 1546 Z" unicode="ĕ" />
<glyph horiz-adv-x="1202" d="M 1085 0 L 188 0 L 188 1434 L 1055 1434 L 1055 1288 L 348 1288 L 348 838 L 758 838 L 758 692 L 348 692 L 348 145 L 1085 145 L 1085 0 Z M 600 1542 C 569 1542 542 1553 520 1575 C 498 1597 487 1624 487 1655 C 487 1685 498 1712 520 1735 C 542 1757 569 1769 600 1769 C 630 1769 657 1757 679 1735 C 701 1712 713 1685 713 1655 C 713 1624 701 1597 679 1575 C 657 1553 630 1542 600 1542 Z" unicode="Ė" />
<glyph horiz-adv-x="1106" d="M 983 485 L 266 485 C 273 371 303 280 355 212 C 407 144 477 111 565 111 C 627 111 679 119 723 137 C 767 155 813 180 862 213 L 934 102 C 870 61 810 30 754 9 C 698 -12 629 -23 549 -23 C 499 -23 449 -13 397 6 C 345 26 299 58 257 102 C 215 146 180 204 153 277 C 126 349 113 438 113 543 C 113 628 124 705 146 774 C 168 842 199 900 239 948 C 278 996 325 1033 379 1059 C 433 1085 493 1098 557 1098 C 627 1098 689 1084 743 1058 C 797 1032 842 995 878 949 C 914 902 942 846 961 781 C 979 716 989 645 989 569 C 989 550 988 534 987 522 C 986 510 985 497 983 485 Z M 846 610 C 840 714 813 799 766 865 C 718 931 648 965 555 965 C 475 965 410 935 358 877 C 306 818 275 729 266 610 L 846 610 Z M 553 1235 C 522 1235 495 1246 473 1268 C 451 1290 440 1317 440 1348 C 440 1378 451 1405 473 1428 C 495 1450 522 1462 553 1462 C 583 1462 610 1450 632 1428 C 654 1405 666 1378 666 1348 C 666 1317 654 1290 632 1268 C 610 1246 583 1235 553 1235 Z" unicode="ė" />
<glyph horiz-adv-x="1202" d="M 895 0 L 188 0 L 188 1434 L 1055 1434 L 1055 1288 L 348 1288 L 348 838 L 758 838 L 758 692 L 348 692 L 348 145 L 1085 145 L 1085 0 C 1085 0 1073 -5 1049 -16 C 1025 -27 999 -42 971 -61 C 943 -79 917 -102 893 -128 C 869 -154 858 -181 858 -211 C 858 -233 864 -249 876 -258 C 888 -267 902 -272 920 -272 C 940 -272 958 -267 973 -257 C 987 -247 995 -242 995 -242 L 1065 -344 C 1065 -344 1061 -347 1054 -354 C 1047 -361 1036 -369 1022 -377 C 1007 -385 988 -392 965 -399 C 941 -406 914 -410 883 -410 C 833 -410 789 -395 750 -366 C 711 -337 692 -298 692 -250 C 692 -218 699 -189 714 -163 C 729 -137 747 -113 768 -92 C 789 -71 811 -53 835 -38 C 858 -22 878 -10 895 0 Z" unicode="Ę" />
<glyph horiz-adv-x="1106" d="M 627 -410 C 573 -410 528 -395 494 -365 C 459 -335 442 -294 442 -240 C 442 -198 457 -158 487 -120 C 517 -82 554 -50 598 -23 C 528 -27 463 -18 403 4 C 343 26 292 62 250 110 C 207 158 173 218 149 292 C 125 365 113 449 113 543 C 113 628 124 705 147 774 C 169 843 200 901 240 949 C 279 997 326 1033 380 1059 C 434 1085 493 1098 557 1098 C 627 1098 689 1084 743 1058 C 797 1032 842 995 878 949 C 914 902 942 846 961 781 C 979 716 989 645 989 569 C 989 549 988 534 986 522 C 984 510 983 497 983 485 L 266 485 C 274 371 304 280 356 212 C 408 144 477 111 565 111 C 618 111 667 118 711 132 C 755 146 805 173 862 213 L 934 102 C 886 72 842 45 801 19 C 759 -6 723 -31 693 -56 C 663 -81 639 -107 622 -133 C 604 -159 596 -187 596 -217 C 596 -230 602 -243 614 -255 C 626 -267 642 -274 662 -274 C 674 -274 687 -271 699 -267 C 711 -262 722 -256 731 -250 L 797 -348 C 771 -367 743 -382 714 -393 C 685 -404 656 -410 627 -410 Z M 266 610 L 846 610 C 841 714 815 799 767 865 C 719 931 648 965 555 965 C 476 965 410 935 358 877 C 305 818 274 729 266 610 Z" unicode="ę" />
<glyph horiz-adv-x="1202" d="M 1085 0 L 188 0 L 188 1434 L 1055 1434 L 1055 1288 L 348 1288 L 348 838 L 758 838 L 758 692 L 348 692 L 348 145 L 1085 145 L 1085 0 Z M 956 1853 L 704 1526 L 532 1526 L 280 1853 L 413 1853 L 620 1642 L 827 1853 L 956 1853 Z" unicode="Ě" />
<glyph horiz-adv-x="1106" d="M 983 485 L 266 485 C 273 371 303 280 355 212 C 407 144 477 111 565 111 C 627 111 679 119 723 137 C 767 155 813 180 862 213 L 934 102 C 870 61 810 30 754 9 C 698 -12 629 -23 549 -23 C 499 -23 449 -13 397 6 C 345 26 299 58 257 102 C 215 146 180 204 153 277 C 126 349 113 438 113 543 C 113 628 124 705 146 774 C 168 842 199 900 239 948 C 278 996 325 1033 379 1059 C 433 1085 493 1098 557 1098 C 627 1098 689 1084 743 1058 C 797 1032 842 995 878 949 C 914 902 942 846 961 781 C 979 716 989 645 989 569 C 989 550 988 534 987 522 C 986 510 985 497 983 485 Z M 846 610 C 840 714 813 799 766 865 C 718 931 648 965 555 965 C 475 965 410 935 358 877 C 306 818 275 729 266 610 L 846 610 Z M 891 1546 L 639 1219 L 467 1219 L 215 1546 L 348 1546 L 555 1335 L 762 1546 L 891 1546 Z" unicode="ě" />
<glyph horiz-adv-x="1350" d="M 1237 571 C 1237 473 1223 386 1196 312 C 1169 237 1132 175 1085 126 C 1038 76 982 39 917 14 C 852 -10 782 -23 707 -23 C 619 -23 540 -4 468 33 C 396 71 335 122 285 188 C 235 254 196 332 168 422 C 140 512 127 610 127 715 C 127 821 141 919 170 1010 C 198 1101 238 1179 290 1245 C 341 1311 403 1362 475 1400 C 547 1437 627 1456 713 1456 C 810 1456 896 1437 972 1399 C 1047 1361 1113 1304 1169 1227 L 1042 1130 C 996 1192 948 1237 899 1267 C 849 1296 786 1311 709 1311 C 647 1311 591 1296 539 1267 C 487 1237 443 1197 406 1145 C 368 1093 339 1031 318 958 C 297 885 287 805 287 719 C 287 631 297 551 319 478 C 341 404 371 341 409 289 C 447 237 491 196 543 167 C 595 137 651 123 711 123 C 829 123 921 159 985 232 C 1049 304 1081 411 1081 551 L 1081 563 L 823 563 L 823 711 L 1237 711 L 1237 571 Z M 1057 1516 L 924 1516 L 717 1727 L 510 1516 L 381 1516 L 633 1843 L 805 1843 L 1057 1516 Z" unicode="Ĝ" />
<glyph horiz-adv-x="1145" d="M 975 96 C 975 -64 933 -185 851 -265 C 769 -345 628 -389 430 -395 L 381 -279 C 470 -276 543 -268 601 -254 C 658 -240 703 -219 735 -191 C 767 -163 790 -127 802 -83 C 814 -39 821 14 821 76 L 821 131 C 783 90 737 54 685 23 C 632 -7 570 -23 498 -23 C 444 -23 394 -12 347 8 C 300 29 259 62 225 106 C 190 150 163 206 143 275 C 123 344 113 426 113 520 C 113 614 123 698 145 771 C 166 843 195 904 231 952 C 267 1000 310 1036 360 1061 C 409 1085 462 1098 518 1098 C 585 1098 643 1084 691 1058 C 739 1031 783 996 821 954 L 821 1075 L 975 1075 L 975 96 Z M 821 803 C 791 847 751 885 701 917 C 650 949 593 965 530 965 C 441 965 374 927 330 851 C 286 775 264 666 264 522 C 264 388 288 286 337 216 C 385 146 452 111 537 111 C 593 111 645 125 693 153 C 740 181 783 219 821 266 L 821 803 Z M 916 1201 L 783 1201 L 576 1412 L 369 1201 L 240 1201 L 492 1528 L 664 1528 L 916 1201 Z" unicode="ĝ" />
<glyph horiz-adv-x="1350" d="M 1237 571 C 1237 473 1223 386 1196 312 C 1169 237 1132 175 1085 126 C 1038 76 982 39 917 14 C 852 -10 782 -23 707 -23 C 619 -23 540 -4 468 33 C 396 71 335 122 285 188 C 235 254 196 332 168 422 C 140 512 127 610 127 715 C 127 821 141 919 170 1010 C 198 1101 238 1179 290 1245 C 341 1311 403 1362 475 1400 C 547 1437 627 1456 713 1456 C 810 1456 896 1437 972 1399 C 1047 1361 1113 1304 1169 1227 L 1042 1130 C 996 1192 948 1237 899 1267 C 849 1296 786 1311 709 1311 C 647 1311 591 1296 539 1267 C 487 1237 443 1197 406 1145 C 368 1093 339 1031 318 958 C 297 885 287 805 287 719 C 287 631 297 551 319 478 C 341 404 371 341 409 289 C 447 237 491 196 543 167 C 595 137 651 123 711 123 C 829 123 921 159 985 232 C 1049 304 1081 411 1081 551 L 1081 563 L 823 563 L 823 711 L 1237 711 L 1237 571 Z M 1065 1843 C 1060 1741 1027 1661 967 1603 C 906 1545 823 1516 717 1516 C 617 1516 536 1545 474 1603 C 411 1661 377 1741 373 1843 L 500 1843 C 504 1771 525 1718 563 1683 C 600 1647 653 1630 721 1630 C 783 1630 833 1647 872 1681 C 911 1715 934 1769 940 1843 L 1065 1843 Z" unicode="Ğ" />
<glyph horiz-adv-x="1145" d="M 975 96 C 975 -64 933 -185 851 -265 C 769 -345 628 -389 430 -395 L 381 -279 C 470 -276 543 -268 601 -254 C 658 -240 703 -219 735 -191 C 767 -163 790 -127 802 -83 C 814 -39 821 14 821 76 L 821 131 C 783 90 737 54 685 23 C 632 -7 570 -23 498 -23 C 444 -23 394 -12 347 8 C 300 29 259 62 225 106 C 190 150 163 206 143 275 C 123 344 113 426 113 520 C 113 614 123 698 145 771 C 166 843 195 904 231 952 C 267 1000 310 1036 360 1061 C 409 1085 462 1098 518 1098 C 585 1098 643 1084 691 1058 C 739 1031 783 996 821 954 L 821 1075 L 975 1075 L 975 96 Z M 821 803 C 791 847 751 885 701 917 C 650 949 593 965 530 965 C 441 965 374 927 330 851 C 286 775 264 666 264 522 C 264 388 288 286 337 216 C 385 146 452 111 537 111 C 593 111 645 125 693 153 C 740 181 783 219 821 266 L 821 803 Z M 917 1546 C 912 1444 879 1364 819 1306 C 758 1248 675 1219 569 1219 C 469 1219 388 1248 326 1306 C 263 1364 229 1444 225 1546 L 352 1546 C 356 1474 377 1421 415 1386 C 452 1350 505 1333 573 1333 C 635 1333 685 1350 724 1384 C 763 1418 786 1472 792 1546 L 917 1546 Z" unicode="ğ" />
<glyph horiz-adv-x="1350" d="M 1237 571 C 1237 473 1223 386 1196 312 C 1169 237 1132 175 1085 126 C 1038 76 982 39 917 14 C 852 -10 782 -23 707 -23 C 619 -23 540 -4 468 33 C 396 71 335 122 285 188 C 235 254 196 332 168 422 C 140 512 127 610 127 715 C 127 821 141 919 170 1010 C 198 1101 238 1179 290 1245 C 341 1311 403 1362 475 1400 C 547 1437 627 1456 713 1456 C 810 1456 896 1437 972 1399 C 1047 1361 1113 1304 1169 1227 L 1042 1130 C 996 1192 948 1237 899 1267 C 849 1296 786 1311 709 1311 C 647 1311 591 1296 539 1267 C 487 1237 443 1197 406 1145 C 368 1093 339 1031 318 958 C 297 885 287 805 287 719 C 287 631 297 551 319 478 C 341 404 371 341 409 289 C 447 237 491 196 543 167 C 595 137 651 123 711 123 C 829 123 921 159 985 232 C 1049 304 1081 411 1081 551 L 1081 563 L 823 563 L 823 711 L 1237 711 L 1237 571 Z M 715 1542 C 684 1542 657 1553 635 1575 C 613 1597 602 1624 602 1655 C 602 1685 613 1712 635 1735 C 657 1757 684 1769 715 1769 C 745 1769 772 1757 794 1735 C 816 1712 828 1685 828 1655 C 828 1624 816 1597 794 1575 C 772 1553 745 1542 715 1542 Z" unicode="Ġ" />
<glyph horiz-adv-x="1145" d="M 975 96 C 975 -64 933 -185 851 -265 C 769 -345 628 -389 430 -395 L 381 -279 C 470 -276 543 -268 601 -254 C 658 -240 703 -219 735 -191 C 767 -163 790 -127 802 -83 C 814 -39 821 14 821 76 L 821 131 C 783 90 737 54 685 23 C 632 -7 570 -23 498 -23 C 444 -23 394 -12 347 8 C 300 29 259 62 225 106 C 190 150 163 206 143 275 C 123 344 113 426 113 520 C 113 614 123 698 145 771 C 166 843 195 904 231 952 C 267 1000 310 1036 360 1061 C 409 1085 462 1098 518 1098 C 585 1098 643 1084 691 1058 C 739 1031 783 996 821 954 L 821 1075 L 975 1075 L 975 96 Z M 821 803 C 791 847 751 885 701 917 C 650 949 593 965 530 965 C 441 965 374 927 330 851 C 286 775 264 666 264 522 C 264 388 288 286 337 216 C 385 146 452 111 537 111 C 593 111 645 125 693 153 C 740 181 783 219 821 266 L 821 803 Z M 547 1235 C 516 1235 489 1246 467 1268 C 445 1290 434 1317 434 1348 C 434 1378 445 1405 467 1428 C 489 1450 516 1462 547 1462 C 577 1462 604 1450 626 1428 C 648 1405 660 1378 660 1348 C 660 1317 648 1290 626 1268 C 604 1246 577 1235 547 1235 Z" unicode="ġ" />
<glyph horiz-adv-x="1350" d="M 1237 571 C 1237 473 1223 386 1196 312 C 1169 237 1132 175 1085 126 C 1038 76 982 39 917 14 C 852 -10 782 -23 707 -23 C 619 -23 540 -4 468 33 C 396 71 335 122 285 188 C 235 254 196 332 168 422 C 140 512 127 610 127 715 C 127 821 141 919 170 1010 C 198 1101 238 1179 290 1245 C 341 1311 403 1362 475 1400 C 547 1437 627 1456 713 1456 C 810 1456 896 1437 972 1399 C 1047 1361 1113 1304 1169 1227 L 1042 1130 C 996 1192 948 1237 899 1267 C 849 1296 786 1311 709 1311 C 647 1311 591 1296 539 1267 C 487 1237 443 1197 406 1145 C 368 1093 339 1031 318 958 C 297 885 287 805 287 719 C 287 631 297 551 319 478 C 341 404 371 341 409 289 C 447 237 491 196 543 167 C 595 137 651 123 711 123 C 829 123 921 159 985 232 C 1049 304 1081 411 1081 551 L 1081 563 L 823 563 L 823 711 L 1237 711 L 1237 571 Z M 570 -492 L 594 -106 L 764 -106 L 654 -492 L 570 -492 Z" unicode="Ģ" />
<glyph horiz-adv-x="1145" d="M 975 96 C 975 -64 933 -185 851 -265 C 769 -345 628 -389 430 -395 L 381 -279 C 470 -276 543 -268 601 -254 C 658 -240 703 -219 735 -191 C 767 -163 790 -127 802 -83 C 814 -39 821 14 821 76 L 821 131 C 783 90 737 54 685 23 C 632 -7 570 -23 498 -23 C 444 -23 394 -12 347 8 C 300 29 259 62 225 106 C 190 150 163 206 143 275 C 123 344 113 426 113 520 C 113 614 123 698 145 771 C 166 843 195 904 231 952 C 267 1000 310 1036 360 1061 C 409 1085 462 1098 518 1098 C 585 1098 643 1084 691 1058 C 739 1031 783 996 821 954 L 821 1075 L 975 1075 L 975 96 Z M 821 803 C 791 847 751 885 701 917 C 650 949 593 965 530 965 C 441 965 374 927 330 851 C 286 775 264 666 264 522 C 264 388 288 286 337 216 C 385 146 452 111 537 111 C 593 111 645 125 693 153 C 740 181 783 219 821 266 L 821 803 Z" unicode="ģ" />
<glyph horiz-adv-x="1409" d="M 188 1434 L 348 1434 L 348 821 L 1061 821 L 1061 1434 L 1221 1434 L 1221 0 L 1061 0 L 1061 676 L 348 676 L 348 0 L 188 0 L 188 1434 Z M 1043 1526 L 910 1526 L 703 1737 L 496 1526 L 367 1526 L 619 1853 L 791 1853 L 1043 1526 Z" unicode="Ĥ" />
<glyph horiz-adv-x="1161" d="M 997 0 L 844 0 L 844 629 C 844 743 823 828 781 883 C 739 937 675 965 590 965 C 515 965 452 938 401 884 C 349 830 324 745 324 629 L 324 0 L 170 0 L 170 1407 L 324 1493 L 324 944 C 354 988 395 1025 445 1054 C 495 1083 553 1098 621 1098 C 733 1098 824 1062 893 992 C 962 921 997 809 997 655 L 997 0 Z M 924 1512 L 791 1512 L 584 1723 L 377 1512 L 248 1512 L 500 1839 L 672 1839 L 924 1512 Z" unicode="ĥ" />
<glyph horiz-adv-x="1409" d="M 1061 821 L 1061 1079 L 348 1079 L 348 821 L 1061 821 Z M 1221 0 L 1061 0 L 1061 676 L 348 676 L 348 0 L 188 0 L 188 1079 L 86 1079 L 86 1225 L 188 1225 L 188 1434 L 348 1434 L 348 1225 L 1061 1225 L 1061 1434 L 1221 1434 L 1221 1225 L 1323 1225 L 1323 1079 L 1221 1079 L 1221 0 Z" unicode="Ħ" />
<glyph horiz-adv-x="1161" d="M 170 0 L 170 1167 L -12 1167 L -12 1294 L 170 1294 L 170 1407 L 324 1493 L 324 1294 L 524 1294 L 524 1167 L 324 1167 L 324 944 C 353 990 393 1027 444 1055 C 495 1083 554 1098 621 1098 C 747 1098 841 1059 903 981 C 965 903 997 795 997 655 L 997 0 L 844 0 L 844 629 C 844 739 824 823 784 880 C 744 936 679 965 590 965 C 508 965 444 936 396 878 C 348 820 324 737 324 629 L 324 0 L 170 0 Z" unicode="ħ" />
<glyph horiz-adv-x="557" d="M 358 0 L 199 0 L 199 1434 L 358 1434 L 358 0 Z M 646 1806 C 646 1715 624 1648 582 1605 C 540 1561 491 1540 437 1540 C 410 1540 384 1544 360 1552 C 335 1560 310 1573 285 1593 C 235 1631 200 1655 182 1666 C 164 1677 144 1683 123 1683 C 103 1683 87 1673 73 1654 C 59 1634 49 1598 43 1546 L -84 1546 C -84 1636 -62 1703 -20 1747 C 21 1790 70 1812 125 1812 C 151 1812 177 1808 202 1800 C 226 1792 251 1778 277 1759 C 325 1721 360 1696 380 1685 C 400 1674 419 1669 439 1669 C 460 1669 477 1679 490 1701 C 502 1723 512 1758 519 1806 L 646 1806 Z" unicode="Ĩ" />
<glyph horiz-adv-x="514" d="M 334 0 L 180 0 L 180 1075 L 334 1075 L 334 0 Z M 621 1491 C 621 1400 599 1333 557 1290 C 515 1246 466 1225 412 1225 C 385 1225 359 1229 335 1237 C 310 1245 285 1258 260 1278 C 210 1316 175 1340 157 1351 C 139 1362 119 1368 98 1368 C 78 1368 62 1358 48 1339 C 34 1319 24 1283 18 1231 L -109 1231 C -109 1321 -87 1388 -45 1432 C -3 1475 45 1497 100 1497 C 126 1497 152 1493 177 1485 C 201 1477 226 1463 252 1444 C 300 1406 335 1381 355 1370 C 375 1359 394 1354 414 1354 C 435 1354 452 1364 465 1386 C 477 1408 487 1443 494 1491 L 621 1491 Z" unicode="ĩ" />
<glyph horiz-adv-x="557" d="M 358 0 L 199 0 L 199 1434 L 358 1434 L 358 0 Z M 560 1573 L 2 1573 L 2 1716 L 560 1716 L 560 1573 Z" unicode="Ī" />
<glyph horiz-adv-x="514" d="M 334 0 L 180 0 L 180 1075 L 334 1075 L 334 0 Z M 535 1266 L -23 1266 L -23 1409 L 535 1409 L 535 1266 Z" unicode="ī" />
<glyph horiz-adv-x="557" d="M 358 0 L 199 0 L 199 1434 L 358 1434 L 358 0 Z M 627 1853 C 622 1751 589 1671 529 1613 C 468 1555 385 1526 279 1526 C 179 1526 98 1555 36 1613 C -26 1671 -60 1751 -65 1853 L 62 1853 C 66 1781 87 1728 125 1693 C 162 1657 215 1640 283 1640 C 345 1640 395 1657 434 1691 C 473 1725 496 1779 502 1853 L 627 1853 Z" unicode="Ĭ" />
<glyph horiz-adv-x="514" d="M 334 0 L 180 0 L 180 1075 L 334 1075 L 334 0 Z M 602 1546 C 597 1444 564 1364 504 1306 C 443 1248 360 1219 254 1219 C 154 1219 73 1248 11 1306 C -51 1364 -85 1444 -90 1546 L 37 1546 C 41 1474 62 1421 100 1386 C 137 1350 190 1333 258 1333 C 320 1333 370 1350 409 1384 C 448 1418 471 1472 477 1546 L 602 1546 Z" unicode="ĭ" />
<glyph horiz-adv-x="557" d="M 199 0 L 199 1434 L 358 1434 L 358 -10 C 358 -10 349 -15 331 -26 C 313 -36 294 -51 274 -69 C 253 -87 234 -109 216 -133 C 198 -157 190 -183 190 -211 C 190 -233 196 -249 208 -258 C 220 -267 234 -272 252 -272 C 272 -272 290 -267 305 -257 C 320 -247 328 -242 328 -242 L 397 -344 C 397 -344 393 -347 386 -354 C 379 -361 368 -369 354 -377 C 339 -385 320 -392 297 -399 C 273 -406 246 -410 215 -410 C 166 -410 122 -395 83 -366 C 44 -337 25 -298 25 -250 C 25 -212 33 -179 50 -149 C 66 -119 85 -93 106 -72 C 126 -51 146 -34 165 -22 C 183 -10 195 -2 199 0 Z" unicode="Į" />
<glyph horiz-adv-x="514" d="M 367 1376 C 367 1346 356 1321 335 1300 C 313 1278 288 1268 260 1268 C 228 1268 202 1278 180 1300 C 158 1321 147 1346 147 1376 C 147 1406 158 1432 180 1454 C 202 1476 228 1487 260 1487 C 288 1487 313 1476 335 1454 C 356 1432 367 1406 367 1376 Z M 180 0 L 180 1075 L 334 1075 L 334 -18 C 334 -18 325 -22 307 -31 C 289 -39 270 -52 249 -69 C 227 -85 208 -106 190 -130 C 172 -154 164 -181 164 -211 C 164 -233 169 -249 181 -258 C 193 -267 207 -272 225 -272 C 245 -272 263 -267 278 -257 C 293 -247 301 -242 301 -242 L 371 -344 C 371 -344 367 -347 360 -354 C 352 -361 341 -369 327 -377 C 312 -385 293 -392 270 -399 C 246 -406 219 -410 188 -410 C 139 -410 95 -395 56 -366 C 17 -337 -2 -298 -2 -250 C -2 -208 7 -172 26 -141 C 45 -109 66 -83 89 -63 C 111 -42 132 -26 151 -16 C 170 -5 180 0 180 0 Z" unicode="į" />
<glyph horiz-adv-x="557" d="M 358 0 L 199 0 L 199 1434 L 358 1434 L 358 0 Z M 281 1542 C 250 1542 223 1553 201 1575 C 179 1597 168 1624 168 1655 C 168 1685 179 1712 201 1735 C 223 1757 250 1769 281 1769 C 311 1769 338 1757 360 1735 C 382 1712 394 1685 394 1655 C 394 1624 382 1597 360 1575 C 338 1553 311 1542 281 1542 Z" unicode="İ" />
<glyph horiz-adv-x="514" d="M 334 0 L 180 0 L 180 1075 L 334 1075 L 334 0 Z" unicode="ı" />
<glyph horiz-adv-x="1741" d="M 358 0 L 199 0 L 199 1434 L 358 1434 L 358 0 Z M 1563 549 C 1563 358 1522 215 1441 120 C 1359 24 1237 -23 1073 -23 C 952 -23 855 7 783 67 C 711 127 656 212 618 324 L 770 375 C 798 297 836 236 882 191 C 928 145 994 123 1079 123 C 1193 123 1276 157 1327 226 C 1377 295 1403 405 1403 555 L 1403 1434 L 1563 1434 L 1563 549 Z" unicode="Ĳ" />
<glyph horiz-adv-x="1028" d="M 367 1376 C 367 1346 356 1321 335 1300 C 313 1278 288 1268 260 1268 C 228 1268 202 1278 180 1300 C 158 1321 147 1346 147 1376 C 147 1406 158 1432 180 1454 C 202 1476 228 1487 260 1487 C 288 1487 313 1476 335 1454 C 356 1432 367 1406 367 1376 Z M 334 0 L 180 0 L 180 1075 L 334 1075 L 334 0 Z M 881 1376 C 881 1346 870 1321 849 1300 C 827 1278 802 1268 774 1268 C 742 1268 716 1278 694 1300 C 672 1321 661 1346 661 1376 C 661 1406 672 1432 694 1454 C 716 1476 742 1487 774 1487 C 802 1487 827 1476 849 1454 C 870 1432 881 1406 881 1376 Z M 848 25 C 848 -36 844 -89 836 -135 C 828 -180 813 -219 791 -252 C 768 -284 736 -312 694 -335 C 652 -358 597 -378 530 -395 L 479 -281 C 527 -266 566 -251 595 -235 C 623 -219 645 -200 660 -178 C 674 -156 684 -128 688 -96 C 692 -63 694 -22 694 27 L 694 1075 L 848 1075 L 848 25 Z" unicode="ĳ" />
<glyph horiz-adv-x="1184" d="M 1006 549 C 1006 358 965 215 884 120 C 802 24 680 -23 516 -23 C 395 -23 298 7 226 67 C 154 127 99 212 61 324 L 213 375 C 241 297 279 236 325 191 C 371 145 437 123 522 123 C 636 123 719 157 770 226 C 820 295 846 405 846 555 L 846 1434 L 1006 1434 L 1006 549 Z M 1258 1516 L 1125 1516 L 918 1727 L 711 1516 L 582 1516 L 834 1843 L 1006 1843 L 1258 1516 Z" unicode="Ĵ" />
<glyph horiz-adv-x="514" d="M 594 1219 L 461 1219 L 254 1430 L 47 1219 L -82 1219 L 170 1546 L 342 1546 L 594 1219 Z M 334 1075 L 334 25 C 334 -35 330 -88 322 -134 C 314 -180 299 -219 277 -252 C 254 -285 222 -313 180 -336 C 138 -359 83 -379 16 -395 L -35 -281 C 14 -266 53 -251 82 -235 C 110 -219 132 -201 146 -179 C 160 -157 170 -129 174 -96 C 178 -63 180 -22 180 27 L 180 1075 L 334 1075 Z" unicode="ĵ" />
<glyph horiz-adv-x="1315" d="M 348 412 L 348 0 L 188 0 L 188 1434 L 348 1434 L 348 616 C 357 629 370 648 388 672 C 406 696 425 722 445 749 C 465 775 485 802 505 829 C 525 855 543 878 557 897 L 973 1434 L 1147 1434 L 727 895 L 1227 0 L 1044 0 L 621 764 L 348 412 Z M 553 -492 L 577 -106 L 747 -106 L 637 -492 L 553 -492 Z" unicode="Ķ" />
<glyph horiz-adv-x="1034" d="M 324 309 L 324 0 L 170 0 L 170 1407 L 324 1493 L 324 510 L 367 575 L 719 1075 L 891 1075 L 608 694 L 948 0 L 782 0 L 510 565 L 324 309 Z M 412 -492 L 436 -106 L 606 -106 L 496 -492 L 412 -492 Z" unicode="ķ" />
<glyph horiz-adv-x="1034" d="M 170 0 L 170 1075 L 324 1075 L 324 514 L 719 1075 L 891 1075 L 608 694 L 948 0 L 782 0 L 510 565 L 324 309 L 324 0 L 170 0 Z" unicode="ĸ" />
<glyph horiz-adv-x="1178" d="M 1057 0 L 188 0 L 188 1434 L 348 1434 L 348 145 L 1057 145 L 1057 0 Z M 626 1853 L 317 1526 L 196 1526 L 407 1853 L 626 1853 Z" unicode="Ĺ" />
<glyph horiz-adv-x="514" d="M 334 0 L 180 0 L 180 1407 L 334 1493 L 334 0 Z M 614 1925 L 305 1598 L 184 1598 L 395 1925 L 614 1925 Z" unicode="ĺ" />
<glyph horiz-adv-x="1178" d="M 1057 0 L 188 0 L 188 1434 L 348 1434 L 348 145 L 1057 145 L 1057 0 Z M 484 -492 L 508 -106 L 678 -106 L 568 -492 L 484 -492 Z" unicode="Ļ" />
<glyph horiz-adv-x="514" d="M 334 0 L 180 0 L 180 1407 L 334 1493 L 334 0 Z M 152 -492 L 176 -106 L 346 -106 L 236 -492 L 152 -492 Z" unicode="ļ" />
<glyph horiz-adv-x="1178" d="M 1057 0 L 188 0 L 188 1434 L 348 1434 L 348 145 L 1057 145 L 1057 0 Z M 960 1639 L 827 1182 L 721 1182 L 751 1639 L 960 1639 Z" unicode="Ľ" />
<glyph horiz-adv-x="590" d="M 334 0 L 180 0 L 180 1407 L 334 1493 L 334 0 Z M 698 1434 L 565 977 L 459 977 L 489 1434 L 698 1434 Z" unicode="ľ" />
<glyph horiz-adv-x="1178" d="M 1057 0 L 188 0 L 188 1434 L 348 1434 L 348 145 L 1057 145 L 1057 0 Z M 975 752 C 975 716 961 685 935 659 C 908 633 878 621 844 621 C 808 621 777 633 751 659 C 725 685 713 716 713 752 C 713 787 725 818 751 846 C 777 873 808 887 844 887 C 878 887 908 873 935 846 C 961 818 975 787 975 752 Z" unicode="Ŀ" />
<glyph horiz-adv-x="1006" d="M 334 0 L 180 0 L 180 1407 L 334 1493 L 334 0 Z M 891 752 C 891 716 877 685 851 659 C 824 633 794 621 760 621 C 724 621 693 633 667 659 C 641 685 629 716 629 752 C 629 787 641 818 667 846 C 693 873 724 887 760 887 C 794 887 824 873 851 846 C 877 818 891 787 891 752 Z" unicode="ŀ" />
<glyph horiz-adv-x="1198" d="M 1077 0 L 209 0 L 209 487 L 82 377 L 82 559 L 209 670 L 209 1434 L 369 1434 L 369 795 L 698 1075 L 698 893 L 369 612 L 369 145 L 1077 145 L 1077 0 Z" unicode="Ł" />
<glyph horiz-adv-x="535" d="M 444 735 L 344 647 L 344 0 L 190 0 L 190 524 L 90 436 L 90 623 L 190 711 L 190 1407 L 344 1493 L 344 831 L 444 922 L 444 735 Z" unicode="ł" />
<glyph horiz-adv-x="1409" d="M 342 1161 L 342 0 L 188 0 L 188 1434 L 344 1434 L 965 434 C 972 422 981 407 991 390 C 1001 373 1010 356 1020 339 C 1030 322 1039 306 1047 291 C 1055 275 1062 263 1067 254 L 1067 1434 L 1221 1434 L 1221 0 L 1071 0 L 444 981 C 436 993 428 1007 418 1024 C 408 1041 398 1058 388 1075 C 378 1092 369 1108 361 1124 C 353 1139 346 1151 342 1161 Z M 979 1853 L 670 1526 L 549 1526 L 760 1853 L 979 1853 Z" unicode="Ń" />
<glyph horiz-adv-x="1161" d="M 997 0 L 844 0 L 844 629 C 844 743 823 828 781 883 C 739 937 675 965 590 965 C 515 965 452 938 401 884 C 349 830 324 745 324 629 L 324 0 L 170 0 L 170 1075 L 324 1075 L 324 944 C 354 988 395 1025 445 1054 C 495 1083 553 1098 621 1098 C 733 1098 824 1062 893 992 C 962 921 997 809 997 655 L 997 0 Z M 944 1546 L 635 1219 L 514 1219 L 725 1546 L 944 1546 Z" unicode="ń" />
<glyph horiz-adv-x="1409" d="M 342 1161 L 342 0 L 188 0 L 188 1434 L 344 1434 L 965 434 C 972 422 981 407 991 390 C 1001 373 1010 356 1020 339 C 1030 322 1039 306 1047 291 C 1055 275 1062 263 1067 254 L 1067 1434 L 1221 1434 L 1221 0 L 1071 0 L 444 981 C 436 993 428 1007 418 1024 C 408 1041 398 1058 388 1075 C 378 1092 369 1108 361 1124 C 353 1139 346 1151 342 1161 Z M 601 -492 L 625 -106 L 795 -106 L 685 -492 L 601 -492 Z" unicode="Ņ" />
<glyph horiz-adv-x="1161" d="M 997 0 L 844 0 L 844 629 C 844 743 823 828 781 883 C 739 937 675 965 590 965 C 515 965 452 938 401 884 C 349 830 324 745 324 629 L 324 0 L 170 0 L 170 1075 L 324 1075 L 324 944 C 354 988 395 1025 445 1054 C 495 1083 553 1098 621 1098 C 733 1098 824 1062 893 992 C 962 921 997 809 997 655 L 997 0 Z M 476 -492 L 500 -106 L 670 -106 L 560 -492 L 476 -492 Z" unicode="ņ" />
<glyph horiz-adv-x="1409" d="M 342 1161 L 342 0 L 188 0 L 188 1434 L 344 1434 L 965 434 C 972 422 981 407 991 390 C 1001 373 1010 356 1020 339 C 1030 322 1039 306 1047 291 C 1055 275 1062 263 1067 254 L 1067 1434 L 1221 1434 L 1221 0 L 1071 0 L 444 981 C 436 993 428 1007 418 1024 C 408 1041 398 1058 388 1075 C 378 1092 369 1108 361 1124 C 353 1139 346 1151 342 1161 Z M 1043 1853 L 791 1526 L 619 1526 L 367 1853 L 500 1853 L 707 1642 L 914 1853 L 1043 1853 Z" unicode="Ň" />
<glyph horiz-adv-x="1161" d="M 997 0 L 844 0 L 844 629 C 844 743 823 828 781 883 C 739 937 675 965 590 965 C 515 965 452 938 401 884 C 349 830 324 745 324 629 L 324 0 L 170 0 L 170 1075 L 324 1075 L 324 944 C 354 988 395 1025 445 1054 C 495 1083 553 1098 621 1098 C 733 1098 824 1062 893 992 C 962 921 997 809 997 655 L 997 0 Z M 918 1546 L 666 1219 L 494 1219 L 242 1546 L 375 1546 L 582 1335 L 789 1546 L 918 1546 Z" unicode="ň" />
<glyph horiz-adv-x="1628" d="M 1460 0 L 1307 0 L 1307 629 C 1307 743 1286 828 1244 883 C 1202 937 1138 965 1053 965 C 978 965 915 938 864 884 C 812 830 787 745 787 629 L 787 0 L 633 0 L 633 1075 L 787 1075 L 787 944 C 817 988 858 1025 908 1054 C 958 1083 1016 1098 1084 1098 C 1196 1098 1287 1062 1356 992 C 1425 921 1460 809 1460 655 L 1460 0 Z M 393 1434 L 260 977 L 154 977 L 184 1434 L 393 1434 Z" unicode="ŉ" />
<glyph horiz-adv-x="1409" d="M 903 -395 L 852 -281 C 898 -266 935 -251 963 -236 C 991 -221 1013 -203 1028 -182 C 1043 -161 1053 -136 1059 -106 C 1064 -76 1067 -38 1067 6 L 342 1141 L 342 0 L 188 0 L 188 1434 L 344 1434 L 1067 270 L 1067 1434 L 1221 1434 L 1221 0 C 1221 -56 1216 -106 1207 -149 C 1198 -191 1182 -228 1158 -259 C 1134 -289 1102 -316 1061 -338 C 1019 -360 967 -379 903 -395 Z" unicode="Ŋ" />
<glyph horiz-adv-x="1165" d="M 324 629 L 324 0 L 170 0 L 170 1075 L 324 1075 L 324 944 C 353 990 393 1027 444 1055 C 495 1083 554 1098 621 1098 C 733 1098 824 1062 893 991 C 962 920 997 808 997 655 L 997 25 C 997 -35 993 -88 985 -134 C 977 -180 962 -219 940 -252 C 917 -285 885 -313 843 -336 C 801 -359 747 -379 680 -395 L 629 -281 C 675 -266 712 -251 740 -236 C 768 -221 790 -204 805 -184 C 820 -164 830 -139 836 -110 C 841 -80 844 -44 844 0 L 844 629 C 844 743 823 828 782 883 C 740 937 676 965 590 965 C 515 965 452 938 401 884 C 349 830 324 745 324 629 Z" unicode="ŋ" />
<glyph horiz-adv-x="1444" d="M 127 715 C 127 822 141 921 170 1013 C 199 1104 239 1182 291 1247 C 343 1312 405 1363 479 1400 C 553 1437 634 1456 723 1456 C 811 1456 892 1437 966 1401 C 1039 1365 1101 1314 1153 1249 C 1205 1184 1245 1106 1274 1016 C 1302 925 1317 826 1317 719 C 1317 611 1302 512 1273 421 C 1244 329 1203 251 1151 186 C 1099 120 1036 69 962 32 C 888 -4 807 -23 719 -23 C 630 -23 549 -4 476 32 C 402 68 340 119 289 184 C 237 248 197 326 169 417 C 141 508 127 607 127 715 Z M 1157 715 C 1157 804 1145 885 1123 959 C 1101 1033 1070 1096 1031 1148 C 991 1200 945 1240 891 1268 C 837 1296 779 1311 717 1311 C 655 1311 597 1297 545 1269 C 492 1241 447 1201 409 1150 C 371 1098 341 1036 319 963 C 297 889 287 808 287 719 C 287 629 298 547 320 473 C 342 399 373 337 412 285 C 451 233 497 193 551 165 C 605 137 663 123 725 123 C 787 123 844 137 897 165 C 950 193 996 232 1034 283 C 1072 334 1102 396 1124 470 C 1146 543 1157 625 1157 715 Z M 1000 1573 L 442 1573 L 442 1716 L 1000 1716 L 1000 1573 Z" unicode="Ō" />
<glyph horiz-adv-x="1159" d="M 575 -23 C 509 -23 448 -10 392 13 C 336 37 287 73 246 120 C 204 167 172 226 148 296 C 124 366 113 446 113 537 C 113 627 125 708 150 778 C 174 848 208 906 250 954 C 292 1001 342 1037 400 1061 C 457 1085 518 1098 584 1098 C 649 1098 710 1086 767 1062 C 823 1038 872 1004 914 958 C 955 912 987 854 1011 785 C 1035 715 1047 635 1047 545 C 1047 454 1034 373 1010 302 C 985 231 951 172 909 124 C 867 76 817 39 759 14 C 701 -10 640 -23 575 -23 Z M 580 965 C 486 965 411 929 354 858 C 296 786 268 681 268 541 C 268 400 296 293 354 220 C 411 147 486 111 580 111 C 672 111 748 147 806 220 C 864 293 893 400 893 541 C 893 681 864 786 806 858 C 748 929 672 965 580 965 Z M 859 1266 L 301 1266 L 301 1409 L 859 1409 L 859 1266 Z" unicode="ō" />
<glyph horiz-adv-x="1444" d="M 127 715 C 127 822 141 921 170 1013 C 199 1104 239 1182 291 1247 C 343 1312 405 1363 479 1400 C 553 1437 634 1456 723 1456 C 811 1456 892 1437 966 1401 C 1039 1365 1101 1314 1153 1249 C 1205 1184 1245 1106 1274 1016 C 1302 925 1317 826 1317 719 C 1317 611 1302 512 1273 421 C 1244 329 1203 251 1151 186 C 1099 120 1036 69 962 32 C 888 -4 807 -23 719 -23 C 630 -23 549 -4 476 32 C 402 68 340 119 289 184 C 237 248 197 326 169 417 C 141 508 127 607 127 715 Z M 1157 715 C 1157 804 1145 885 1123 959 C 1101 1033 1070 1096 1031 1148 C 991 1200 945 1240 891 1268 C 837 1296 779 1311 717 1311 C 655 1311 597 1297 545 1269 C 492 1241 447 1201 409 1150 C 371 1098 341 1036 319 963 C 297 889 287 808 287 719 C 287 629 298 547 320 473 C 342 399 373 337 412 285 C 451 233 497 193 551 165 C 605 137 663 123 725 123 C 787 123 844 137 897 165 C 950 193 996 232 1034 283 C 1072 334 1102 396 1124 470 C 1146 543 1157 625 1157 715 Z M 1065 1843 C 1060 1741 1027 1661 967 1603 C 906 1545 823 1516 717 1516 C 617 1516 536 1545 474 1603 C 411 1661 377 1741 373 1843 L 500 1843 C 504 1771 525 1718 563 1683 C 600 1647 653 1630 721 1630 C 783 1630 833 1647 872 1681 C 911 1715 934 1769 940 1843 L 1065 1843 Z" unicode="Ŏ" />
<glyph horiz-adv-x="1159" d="M 575 -23 C 509 -23 448 -10 392 13 C 336 37 287 73 246 120 C 204 167 172 226 148 296 C 124 366 113 446 113 537 C 113 627 125 708 150 778 C 174 848 208 906 250 954 C 292 1001 342 1037 400 1061 C 457 1085 518 1098 584 1098 C 649 1098 710 1086 767 1062 C 823 1038 872 1004 914 958 C 955 912 987 854 1011 785 C 1035 715 1047 635 1047 545 C 1047 454 1034 373 1010 302 C 985 231 951 172 909 124 C 867 76 817 39 759 14 C 701 -10 640 -23 575 -23 Z M 580 965 C 486 965 411 929 354 858 C 296 786 268 681 268 541 C 268 400 296 293 354 220 C 411 147 486 111 580 111 C 672 111 748 147 806 220 C 864 293 893 400 893 541 C 893 681 864 786 806 858 C 748 929 672 965 580 965 Z M 926 1546 C 921 1444 888 1364 828 1306 C 767 1248 684 1219 578 1219 C 478 1219 397 1248 335 1306 C 272 1364 238 1444 234 1546 L 361 1546 C 365 1474 386 1421 424 1386 C 461 1350 514 1333 582 1333 C 644 1333 694 1350 733 1384 C 772 1418 795 1472 801 1546 L 926 1546 Z" unicode="ŏ" />
<glyph horiz-adv-x="1444" d="M 127 715 C 127 822 141 921 170 1013 C 199 1104 239 1182 291 1247 C 343 1312 405 1363 479 1400 C 553 1437 634 1456 723 1456 C 811 1456 892 1437 966 1401 C 1039 1365 1101 1314 1153 1249 C 1205 1184 1245 1106 1274 1016 C 1302 925 1317 826 1317 719 C 1317 611 1302 512 1273 421 C 1244 329 1203 251 1151 186 C 1099 120 1036 69 962 32 C 888 -4 807 -23 719 -23 C 630 -23 549 -4 476 32 C 402 68 340 119 289 184 C 237 248 197 326 169 417 C 141 508 127 607 127 715 Z M 1157 715 C 1157 804 1145 885 1123 959 C 1101 1033 1070 1096 1031 1148 C 991 1200 945 1240 891 1268 C 837 1296 779 1311 717 1311 C 655 1311 597 1297 545 1269 C 492 1241 447 1201 409 1150 C 371 1098 341 1036 319 963 C 297 889 287 808 287 719 C 287 629 298 547 320 473 C 342 399 373 337 412 285 C 451 233 497 193 551 165 C 605 137 663 123 725 123 C 787 123 844 137 897 165 C 950 193 996 232 1034 283 C 1072 334 1102 396 1124 470 C 1146 543 1157 625 1157 715 Z M 856 1853 L 575 1526 L 461 1526 L 651 1853 L 856 1853 Z M 1218 1853 L 938 1526 L 823 1526 L 1014 1853 L 1218 1853 Z" unicode="Ő" />
<glyph horiz-adv-x="1159" d="M 575 -23 C 509 -23 448 -10 392 13 C 336 37 287 73 246 120 C 204 167 172 226 148 296 C 124 366 113 446 113 537 C 113 627 125 708 150 778 C 174 848 208 906 250 954 C 292 1001 342 1037 400 1061 C 457 1085 518 1098 584 1098 C 649 1098 710 1086 767 1062 C 823 1038 872 1004 914 958 C 955 912 987 854 1011 785 C 1035 715 1047 635 1047 545 C 1047 454 1034 373 1010 302 C 985 231 951 172 909 124 C 867 76 817 39 759 14 C 701 -10 640 -23 575 -23 Z M 580 965 C 486 965 411 929 354 858 C 296 786 268 681 268 541 C 268 400 296 293 354 220 C 411 147 486 111 580 111 C 672 111 748 147 806 220 C 864 293 893 400 893 541 C 893 681 864 786 806 858 C 748 929 672 965 580 965 Z M 676 1546 L 395 1219 L 281 1219 L 471 1546 L 676 1546 Z M 1038 1546 L 758 1219 L 643 1219 L 834 1546 L 1038 1546 Z" unicode="ő" />
<glyph horiz-adv-x="2136" d="M 1145 715 C 1145 804 1134 885 1112 959 C 1090 1033 1059 1096 1021 1148 C 983 1200 937 1240 884 1268 C 830 1296 773 1311 711 1311 C 649 1311 592 1297 540 1269 C 488 1241 443 1201 406 1150 C 368 1098 339 1036 318 963 C 297 889 287 808 287 719 C 287 629 297 547 319 473 C 341 399 371 337 409 285 C 447 233 493 193 546 165 C 599 137 657 123 719 123 C 781 123 838 137 890 165 C 942 193 987 232 1025 283 C 1062 334 1091 396 1113 470 C 1134 543 1145 625 1145 715 Z M 2019 0 L 1145 0 L 1145 238 C 1101 163 1047 101 983 51 C 919 1 829 -23 715 -23 C 627 -23 546 -4 473 32 C 400 68 338 119 287 185 C 236 250 197 328 169 419 C 141 510 127 609 127 717 C 127 824 141 923 169 1014 C 197 1105 236 1183 287 1248 C 338 1313 400 1364 473 1401 C 546 1437 627 1456 715 1456 C 821 1456 909 1431 979 1381 C 1049 1331 1105 1271 1145 1202 L 1145 1434 L 1989 1434 L 1989 1288 L 1288 1288 L 1288 838 L 1692 838 L 1692 692 L 1288 692 L 1288 145 L 2019 145 L 2019 0 Z" unicode="Œ" />
<glyph horiz-adv-x="1835" d="M 1712 485 L 1016 485 C 1022 371 1051 280 1103 212 C 1154 144 1221 111 1305 111 C 1363 111 1413 119 1455 137 C 1497 155 1542 180 1591 213 L 1663 102 C 1599 61 1539 30 1485 9 C 1430 -12 1364 -23 1288 -23 C 1248 -23 1209 -16 1173 -2 C 1136 11 1102 29 1072 53 C 1042 76 1015 103 992 134 C 969 165 951 198 938 233 C 909 163 864 102 802 52 C 740 2 661 -23 565 -23 C 503 -23 444 -10 389 13 C 334 37 286 73 246 120 C 205 167 173 226 149 296 C 125 366 113 446 113 537 C 113 627 125 708 150 778 C 174 848 207 906 249 954 C 291 1001 340 1037 396 1061 C 452 1085 511 1098 573 1098 C 619 1098 662 1091 702 1077 C 741 1063 776 1045 807 1022 C 838 999 865 972 888 941 C 910 910 928 878 942 844 C 970 913 1015 973 1075 1023 C 1135 1073 1209 1098 1296 1098 C 1362 1098 1422 1084 1474 1058 C 1526 1032 1571 995 1607 949 C 1643 902 1670 846 1689 781 C 1708 716 1718 645 1718 569 C 1718 550 1717 534 1716 522 C 1715 510 1714 497 1712 485 Z M 569 965 C 481 965 409 929 353 858 C 296 786 268 681 268 541 C 268 400 296 293 353 220 C 409 147 481 111 569 111 C 656 111 728 147 786 220 C 843 293 872 400 872 541 C 872 681 843 786 786 858 C 728 929 656 965 569 965 Z M 1575 610 C 1569 714 1543 799 1497 865 C 1451 931 1383 965 1294 965 C 1218 965 1155 935 1105 877 C 1054 818 1024 729 1016 610 L 1575 610 Z" unicode="œ" />
<glyph horiz-adv-x="1331" d="M 750 1288 L 348 1288 L 348 754 L 729 754 C 835 754 913 776 965 821 C 1016 865 1042 932 1042 1022 C 1042 1109 1017 1175 967 1220 C 917 1265 844 1288 750 1288 Z M 864 623 L 1180 0 L 995 0 L 688 610 L 348 610 L 348 0 L 188 0 L 188 1434 L 756 1434 C 818 1434 877 1425 932 1409 C 986 1393 1033 1368 1073 1335 C 1113 1301 1144 1259 1167 1208 C 1190 1156 1202 1096 1202 1028 C 1202 917 1171 827 1109 758 C 1047 689 966 644 864 623 Z M 940 1853 L 631 1526 L 510 1526 L 721 1853 L 940 1853 Z" unicode="Ŕ" />
<glyph horiz-adv-x="834" d="M 719 915 C 697 927 674 937 649 945 C 623 952 593 956 557 956 C 483 956 425 927 385 870 C 344 812 324 733 324 631 L 324 0 L 170 0 L 170 1075 L 324 1075 L 324 942 C 348 984 384 1021 432 1052 C 480 1082 532 1098 590 1098 C 630 1098 663 1095 690 1090 C 716 1085 739 1079 758 1071 L 719 915 Z M 753 1546 L 444 1219 L 323 1219 L 534 1546 L 753 1546 Z" unicode="ŕ" />
<glyph horiz-adv-x="1331" d="M 750 1288 L 348 1288 L 348 754 L 729 754 C 835 754 913 776 965 821 C 1016 865 1042 932 1042 1022 C 1042 1109 1017 1175 967 1220 C 917 1265 844 1288 750 1288 Z M 864 623 L 1180 0 L 995 0 L 688 610 L 348 610 L 348 0 L 188 0 L 188 1434 L 756 1434 C 818 1434 877 1425 932 1409 C 986 1393 1033 1368 1073 1335 C 1113 1301 1144 1259 1167 1208 C 1190 1156 1202 1096 1202 1028 C 1202 917 1171 827 1109 758 C 1047 689 966 644 864 623 Z M 562 -492 L 586 -106 L 756 -106 L 646 -492 L 562 -492 Z" unicode="Ŗ" />
<glyph horiz-adv-x="834" d="M 719 915 C 697 927 674 937 649 945 C 623 952 593 956 557 956 C 483 956 425 927 385 870 C 344 812 324 733 324 631 L 324 0 L 170 0 L 170 1075 L 324 1075 L 324 942 C 348 984 384 1021 432 1052 C 480 1082 532 1098 590 1098 C 630 1098 663 1095 690 1090 C 716 1085 739 1079 758 1071 L 719 915 Z M 140 -492 L 164 -106 L 334 -106 L 224 -492 L 140 -492 Z" unicode="ŗ" />
<glyph horiz-adv-x="1331" d="M 750 1288 L 348 1288 L 348 754 L 729 754 C 835 754 913 776 965 821 C 1016 865 1042 932 1042 1022 C 1042 1109 1017 1175 967 1220 C 917 1265 844 1288 750 1288 Z M 864 623 L 1180 0 L 995 0 L 688 610 L 348 610 L 348 0 L 188 0 L 188 1434 L 756 1434 C 818 1434 877 1425 932 1409 C 986 1393 1033 1368 1073 1335 C 1113 1301 1144 1259 1167 1208 C 1190 1156 1202 1096 1202 1028 C 1202 917 1171 827 1109 758 C 1047 689 966 644 864 623 Z M 1004 1853 L 752 1526 L 580 1526 L 328 1853 L 461 1853 L 668 1642 L 875 1853 L 1004 1853 Z" unicode="Ř" />
<glyph horiz-adv-x="834" d="M 719 915 C 697 927 674 937 649 945 C 623 952 593 956 557 956 C 483 956 425 927 385 870 C 344 812 324 733 324 631 L 324 0 L 170 0 L 170 1075 L 324 1075 L 324 942 C 348 984 384 1021 432 1052 C 480 1082 532 1098 590 1098 C 630 1098 663 1095 690 1090 C 716 1085 739 1079 758 1071 L 719 915 Z M 756 1546 L 504 1219 L 332 1219 L 80 1546 L 213 1546 L 420 1335 L 627 1546 L 756 1546 Z" unicode="ř" />
<glyph horiz-adv-x="1212" d="M 1069 377 C 1069 321 1058 268 1036 219 C 1014 170 983 128 943 92 C 903 56 853 28 794 8 C 735 -12 668 -23 594 -23 C 496 -23 406 -4 322 33 C 238 71 169 118 113 176 L 219 295 C 273 243 331 201 395 170 C 458 138 526 123 600 123 C 695 123 770 145 826 189 C 881 233 909 293 909 369 C 909 435 884 490 836 535 C 787 579 697 625 567 672 C 413 726 305 784 245 845 C 184 905 154 987 154 1090 C 154 1146 164 1197 186 1243 C 208 1289 238 1327 277 1359 C 316 1390 363 1414 419 1431 C 474 1447 535 1456 602 1456 C 698 1456 779 1442 847 1415 C 914 1388 978 1351 1038 1303 L 936 1178 C 884 1220 831 1253 778 1276 C 725 1299 663 1311 592 1311 C 494 1311 423 1289 379 1247 C 335 1205 313 1156 313 1100 C 313 1070 317 1043 326 1019 C 334 994 351 971 376 949 C 400 927 435 904 479 882 C 523 860 581 836 653 811 C 732 782 798 753 852 724 C 905 695 948 664 980 630 C 1012 596 1034 559 1048 518 C 1062 476 1069 429 1069 377 Z M 880 1853 L 571 1526 L 450 1526 L 661 1853 L 880 1853 Z" unicode="Ś" />
<glyph horiz-adv-x="956" d="M 467 -23 C 393 -23 324 -10 260 15 C 196 41 138 74 88 115 L 178 227 C 220 189 267 160 317 140 C 367 119 418 109 471 109 C 544 109 598 123 634 152 C 670 181 688 222 688 274 C 688 318 669 355 632 386 C 595 417 529 453 434 494 C 380 516 334 538 296 560 C 257 581 225 604 201 628 C 176 652 158 680 146 712 C 134 743 129 780 129 823 C 129 904 160 970 224 1021 C 287 1072 367 1098 465 1098 C 538 1098 603 1087 661 1066 C 719 1044 768 1017 809 983 L 723 870 C 681 902 640 927 600 943 C 560 959 511 967 455 967 C 399 967 355 954 323 929 C 291 903 276 872 276 834 C 276 788 293 752 327 726 C 361 699 423 665 514 625 C 564 601 610 579 650 559 C 690 538 723 515 751 490 C 778 465 799 436 814 403 C 828 369 836 329 836 281 C 836 228 825 182 804 144 C 783 106 755 74 721 50 C 687 25 647 7 603 -5 C 558 -17 513 -23 467 -23 Z M 751 1546 L 442 1219 L 321 1219 L 532 1546 L 751 1546 Z" unicode="ś" />
<glyph horiz-adv-x="1212" d="M 1069 377 C 1069 321 1058 268 1036 219 C 1014 170 983 128 943 92 C 903 56 853 28 794 8 C 735 -12 668 -23 594 -23 C 496 -23 406 -4 322 33 C 238 71 169 118 113 176 L 219 295 C 273 243 331 201 395 170 C 458 138 526 123 600 123 C 695 123 770 145 826 189 C 881 233 909 293 909 369 C 909 435 884 490 836 535 C 787 579 697 625 567 672 C 413 726 305 784 245 845 C 184 905 154 987 154 1090 C 154 1146 164 1197 186 1243 C 208 1289 238 1327 277 1359 C 316 1390 363 1414 419 1431 C 474 1447 535 1456 602 1456 C 698 1456 779 1442 847 1415 C 914 1388 978 1351 1038 1303 L 936 1178 C 884 1220 831 1253 778 1276 C 725 1299 663 1311 592 1311 C 494 1311 423 1289 379 1247 C 335 1205 313 1156 313 1100 C 313 1070 317 1043 326 1019 C 334 994 351 971 376 949 C 400 927 435 904 479 882 C 523 860 581 836 653 811 C 732 782 798 753 852 724 C 905 695 948 664 980 630 C 1012 596 1034 559 1048 518 C 1062 476 1069 429 1069 377 Z M 950 1516 L 817 1516 L 610 1727 L 403 1516 L 274 1516 L 526 1843 L 698 1843 L 950 1516 Z" unicode="Ŝ" />
<glyph horiz-adv-x="956" d="M 467 -23 C 393 -23 324 -10 260 15 C 196 41 138 74 88 115 L 178 227 C 220 189 267 160 317 140 C 367 119 418 109 471 109 C 544 109 598 123 634 152 C 670 181 688 222 688 274 C 688 318 669 355 632 386 C 595 417 529 453 434 494 C 380 516 334 538 296 560 C 257 581 225 604 201 628 C 176 652 158 680 146 712 C 134 743 129 780 129 823 C 129 904 160 970 224 1021 C 287 1072 367 1098 465 1098 C 538 1098 603 1087 661 1066 C 719 1044 768 1017 809 983 L 723 870 C 681 902 640 927 600 943 C 560 959 511 967 455 967 C 399 967 355 954 323 929 C 291 903 276 872 276 834 C 276 788 293 752 327 726 C 361 699 423 665 514 625 C 564 601 610 579 650 559 C 690 538 723 515 751 490 C 778 465 799 436 814 403 C 828 369 836 329 836 281 C 836 228 825 182 804 144 C 783 106 755 74 721 50 C 687 25 647 7 603 -5 C 558 -17 513 -23 467 -23 Z M 815 1201 L 682 1201 L 475 1412 L 268 1201 L 139 1201 L 391 1528 L 563 1528 L 815 1201 Z" unicode="ŝ" />
<glyph horiz-adv-x="1212" d="M 1069 377 C 1069 321 1058 268 1036 219 C 1014 170 983 128 943 92 C 903 56 853 28 794 8 C 735 -12 668 -23 594 -23 C 496 -23 406 -4 322 33 C 238 71 169 118 113 176 L 219 295 C 273 243 331 201 395 170 C 458 138 526 123 600 123 C 695 123 770 145 826 189 C 881 233 909 293 909 369 C 909 435 884 490 836 535 C 787 579 697 625 567 672 C 413 726 305 784 245 845 C 184 905 154 987 154 1090 C 154 1146 164 1197 186 1243 C 208 1289 238 1327 277 1359 C 316 1390 363 1414 419 1431 C 474 1447 535 1456 602 1456 C 698 1456 779 1442 847 1415 C 914 1388 978 1351 1038 1303 L 936 1178 C 884 1220 831 1253 778 1276 C 725 1299 663 1311 592 1311 C 494 1311 423 1289 379 1247 C 335 1205 313 1156 313 1100 C 313 1070 317 1043 326 1019 C 334 994 351 971 376 949 C 400 927 435 904 479 882 C 523 860 581 836 653 811 C 732 782 798 753 852 724 C 905 695 948 664 980 630 C 1012 596 1034 559 1048 518 C 1062 476 1069 429 1069 377 Z M 614 -395 C 572 -395 530 -388 488 -376 C 446 -363 408 -345 373 -322 L 411 -256 C 439 -274 469 -288 501 -297 C 533 -306 566 -311 600 -311 C 652 -311 688 -302 708 -284 C 727 -266 737 -246 737 -223 C 737 -202 731 -186 720 -174 C 709 -162 693 -156 672 -156 C 652 -156 634 -159 618 -165 C 601 -171 586 -180 573 -193 L 500 -164 L 551 0 L 643 0 L 608 -104 C 622 -95 639 -88 657 -83 C 675 -78 696 -76 721 -76 C 735 -76 750 -78 766 -83 C 782 -88 796 -96 810 -107 C 824 -118 835 -133 844 -151 C 853 -169 858 -191 858 -217 C 858 -250 851 -278 838 -301 C 824 -323 807 -342 785 -356 C 763 -370 737 -380 707 -386 C 677 -392 646 -395 614 -395 Z" unicode="Ş" />
<glyph horiz-adv-x="956" d="M 467 -23 C 393 -23 324 -10 260 15 C 196 41 138 74 88 115 L 178 227 C 220 189 267 160 317 140 C 367 119 418 109 471 109 C 544 109 598 123 634 152 C 670 181 688 222 688 274 C 688 318 669 355 632 386 C 595 417 529 453 434 494 C 380 516 334 538 296 560 C 257 581 225 604 201 628 C 176 652 158 680 146 712 C 134 743 129 780 129 823 C 129 904 160 970 224 1021 C 287 1072 367 1098 465 1098 C 538 1098 603 1087 661 1066 C 719 1044 768 1017 809 983 L 723 870 C 681 902 640 927 600 943 C 560 959 511 967 455 967 C 399 967 355 954 323 929 C 291 903 276 872 276 834 C 276 788 293 752 327 726 C 361 699 423 665 514 625 C 564 601 610 579 650 559 C 690 538 723 515 751 490 C 778 465 799 436 814 403 C 828 369 836 329 836 281 C 836 228 825 182 804 144 C 783 106 755 74 721 50 C 687 25 647 7 603 -5 C 558 -17 513 -23 467 -23 Z M 485 -395 C 443 -395 401 -388 359 -376 C 317 -363 279 -345 244 -322 L 282 -256 C 310 -274 340 -288 372 -297 C 404 -306 437 -311 471 -311 C 523 -311 559 -302 579 -284 C 598 -266 608 -246 608 -223 C 608 -202 602 -186 591 -174 C 580 -162 564 -156 543 -156 C 523 -156 505 -159 489 -165 C 472 -171 457 -180 444 -193 L 371 -164 L 422 0 L 514 0 L 479 -104 C 493 -95 510 -88 528 -83 C 546 -78 567 -76 592 -76 C 606 -76 621 -78 637 -83 C 653 -88 667 -96 681 -107 C 695 -118 706 -133 715 -151 C 724 -169 729 -191 729 -217 C 729 -250 722 -278 709 -301 C 695 -323 678 -342 656 -356 C 634 -370 608 -380 578 -386 C 548 -392 517 -395 485 -395 Z" unicode="ş" />
<glyph horiz-adv-x="1212" d="M 1069 377 C 1069 321 1058 268 1036 219 C 1014 170 983 128 943 92 C 903 56 853 28 794 8 C 735 -12 668 -23 594 -23 C 496 -23 406 -4 322 33 C 238 71 169 118 113 176 L 219 295 C 273 243 331 201 395 170 C 458 138 526 123 600 123 C 695 123 770 145 826 189 C 881 233 909 293 909 369 C 909 435 884 490 836 535 C 787 579 697 625 567 672 C 413 726 305 784 245 845 C 184 905 154 987 154 1090 C 154 1146 164 1197 186 1243 C 208 1289 238 1327 277 1359 C 316 1390 363 1414 419 1431 C 474 1447 535 1456 602 1456 C 698 1456 779 1442 847 1415 C 914 1388 978 1351 1038 1303 L 936 1178 C 884 1220 831 1253 778 1276 C 725 1299 663 1311 592 1311 C 494 1311 423 1289 379 1247 C 335 1205 313 1156 313 1100 C 313 1070 317 1043 326 1019 C 334 994 351 971 376 949 C 400 927 435 904 479 882 C 523 860 581 836 653 811 C 732 782 798 753 852 724 C 905 695 948 664 980 630 C 1012 596 1034 559 1048 518 C 1062 476 1069 429 1069 377 Z M 936 1872 L 684 1545 L 512 1545 L 260 1872 L 393 1872 L 600 1661 L 807 1872 L 936 1872 Z" unicode="Š" />
<glyph horiz-adv-x="956" d="M 467 -23 C 393 -23 324 -10 260 15 C 196 41 138 74 88 115 L 178 227 C 220 189 267 160 317 140 C 367 119 418 109 471 109 C 544 109 598 123 634 152 C 670 181 688 222 688 274 C 688 318 669 355 632 386 C 595 417 529 453 434 494 C 380 516 334 538 296 560 C 257 581 225 604 201 628 C 176 652 158 680 146 712 C 134 743 129 780 129 823 C 129 904 160 970 224 1021 C 287 1072 367 1098 465 1098 C 538 1098 603 1087 661 1066 C 719 1044 768 1017 809 983 L 723 870 C 681 902 640 927 600 943 C 560 959 511 967 455 967 C 399 967 355 954 323 929 C 291 903 276 872 276 834 C 276 788 293 752 327 726 C 361 699 423 665 514 625 C 564 601 610 579 650 559 C 690 538 723 515 751 490 C 778 465 799 436 814 403 C 828 369 836 329 836 281 C 836 228 825 182 804 144 C 783 106 755 74 721 50 C 687 25 647 7 603 -5 C 558 -17 513 -23 467 -23 Z M 805 1546 L 553 1219 L 381 1219 L 129 1546 L 262 1546 L 469 1335 L 676 1546 L 805 1546 Z" unicode="š" />
<glyph horiz-adv-x="1204" d="M 1104 1288 L 682 1288 L 682 0 L 522 0 L 522 1288 L 100 1288 L 100 1434 L 1104 1434 L 1104 1288 Z M 940 1853 L 688 1526 L 516 1526 L 264 1853 L 397 1853 L 604 1642 L 811 1853 L 940 1853 Z" unicode="Ť" />
<glyph horiz-adv-x="762" d="M 745 1546 L 635 1176 L 551 1176 L 575 1546 L 745 1546 Z M 633 946 L 367 946 L 367 246 C 367 198 374 164 390 145 C 406 126 434 117 475 117 C 505 117 532 119 555 124 C 578 129 602 137 627 147 L 616 14 C 586 2 556 -7 525 -13 C 494 -19 458 -23 418 -23 C 352 -23 301 -4 266 32 C 230 69 213 132 213 221 L 213 946 L 80 946 L 80 1075 L 213 1075 L 213 1407 L 367 1493 L 367 1075 L 633 1075 L 633 946 Z" unicode="ť" />
<glyph horiz-adv-x="1204" d="M 522 0 L 522 664 L 195 664 L 195 809 L 522 809 L 522 1288 L 100 1288 L 100 1434 L 1104 1434 L 1104 1288 L 682 1288 L 682 809 L 1012 809 L 1012 664 L 682 664 L 682 0 L 522 0 Z" unicode="Ŧ" />
<glyph horiz-adv-x="762" d="M 80 573 L 80 702 L 213 702 L 213 946 L 80 946 L 80 1075 L 213 1075 L 213 1407 L 367 1493 L 367 1075 L 633 1075 L 633 946 L 367 946 L 367 702 L 633 702 L 633 573 L 367 573 L 367 246 C 367 199 375 166 391 146 C 407 126 435 117 475 117 C 507 117 534 119 556 124 C 578 128 602 136 627 147 L 616 14 C 586 2 556 -7 525 -13 C 494 -19 458 -23 418 -23 C 352 -23 302 -4 266 32 C 230 68 213 131 213 221 L 213 573 L 80 573 Z" unicode="ŧ" />
<glyph horiz-adv-x="1389" d="M 1210 586 C 1210 388 1167 237 1081 133 C 995 29 867 -23 696 -23 C 526 -23 397 28 309 131 C 221 233 178 384 178 582 L 178 1434 L 338 1434 L 338 586 C 338 432 368 316 429 239 C 489 161 581 123 705 123 C 827 123 916 161 970 237 C 1024 313 1051 428 1051 582 L 1051 1434 L 1210 1434 L 1210 586 Z M 1059 1806 C 1059 1715 1037 1648 995 1605 C 953 1561 904 1540 850 1540 C 823 1540 797 1544 773 1552 C 748 1560 723 1573 698 1593 C 648 1631 613 1655 595 1666 C 577 1677 557 1683 536 1683 C 516 1683 500 1673 486 1654 C 472 1634 462 1598 456 1546 L 329 1546 C 329 1636 350 1703 392 1747 C 434 1790 483 1812 538 1812 C 564 1812 590 1808 615 1800 C 639 1792 664 1778 690 1759 C 738 1721 773 1696 793 1685 C 813 1674 832 1669 852 1669 C 873 1669 890 1679 903 1701 C 915 1723 925 1758 932 1806 L 1059 1806 Z" unicode="Ũ" />
<glyph horiz-adv-x="1161" d="M 991 0 L 838 0 L 838 131 C 807 86 767 49 717 20 C 667 -8 608 -23 541 -23 C 427 -23 336 12 267 83 C 198 153 164 266 164 420 L 164 1075 L 317 1075 L 317 446 C 317 331 338 246 380 192 C 422 138 485 111 571 111 C 645 111 708 137 760 191 C 812 244 838 329 838 446 L 838 1075 L 991 1075 L 991 0 Z M 945 1491 C 945 1400 923 1333 881 1290 C 839 1246 790 1225 736 1225 C 709 1225 683 1229 659 1237 C 634 1245 609 1258 584 1278 C 534 1316 499 1340 481 1351 C 463 1362 443 1368 422 1368 C 402 1368 386 1358 372 1339 C 358 1319 348 1283 342 1231 L 215 1231 C 215 1321 236 1388 278 1432 C 320 1475 369 1497 424 1497 C 450 1497 476 1493 501 1485 C 525 1477 550 1463 576 1444 C 624 1406 659 1381 679 1370 C 699 1359 718 1354 738 1354 C 759 1354 776 1364 789 1386 C 801 1408 811 1443 818 1491 L 945 1491 Z" unicode="ũ" />
<glyph horiz-adv-x="1389" d="M 1210 586 C 1210 388 1167 237 1081 133 C 995 29 867 -23 696 -23 C 526 -23 397 28 309 131 C 221 233 178 384 178 582 L 178 1434 L 338 1434 L 338 586 C 338 432 368 316 429 239 C 489 161 581 123 705 123 C 827 123 916 161 970 237 C 1024 313 1051 428 1051 582 L 1051 1434 L 1210 1434 L 1210 586 Z M 973 1573 L 415 1573 L 415 1716 L 973 1716 L 973 1573 Z" unicode="Ū" />
<glyph horiz-adv-x="1161" d="M 991 0 L 838 0 L 838 131 C 807 86 767 49 717 20 C 667 -8 608 -23 541 -23 C 427 -23 336 12 267 83 C 198 153 164 266 164 420 L 164 1075 L 317 1075 L 317 446 C 317 331 338 246 380 192 C 422 138 485 111 571 111 C 645 111 708 137 760 191 C 812 244 838 329 838 446 L 838 1075 L 991 1075 L 991 0 Z M 859 1266 L 301 1266 L 301 1409 L 859 1409 L 859 1266 Z" unicode="ū" />
<glyph horiz-adv-x="1389" d="M 1210 586 C 1210 388 1167 237 1081 133 C 995 29 867 -23 696 -23 C 526 -23 397 28 309 131 C 221 233 178 384 178 582 L 178 1434 L 338 1434 L 338 586 C 338 432 368 316 429 239 C 489 161 581 123 705 123 C 827 123 916 161 970 237 C 1024 313 1051 428 1051 582 L 1051 1434 L 1210 1434 L 1210 586 Z M 1040 1843 C 1035 1741 1002 1661 942 1603 C 881 1545 798 1516 692 1516 C 592 1516 511 1545 449 1603 C 386 1661 352 1741 348 1843 L 475 1843 C 479 1771 500 1718 538 1683 C 575 1647 628 1630 696 1630 C 758 1630 808 1647 847 1681 C 886 1715 909 1769 915 1843 L 1040 1843 Z" unicode="Ŭ" />
<glyph horiz-adv-x="1161" d="M 991 0 L 838 0 L 838 131 C 807 86 767 49 717 20 C 667 -8 608 -23 541 -23 C 427 -23 336 12 267 83 C 198 153 164 266 164 420 L 164 1075 L 317 1075 L 317 446 C 317 331 338 246 380 192 C 422 138 485 111 571 111 C 645 111 708 137 760 191 C 812 244 838 329 838 446 L 838 1075 L 991 1075 L 991 0 Z M 926 1546 C 921 1444 888 1364 828 1306 C 767 1248 684 1219 578 1219 C 478 1219 397 1248 335 1306 C 272 1364 238 1444 234 1546 L 361 1546 C 365 1474 386 1421 424 1386 C 461 1350 514 1333 582 1333 C 644 1333 694 1350 733 1384 C 772 1418 795 1472 801 1546 L 926 1546 Z" unicode="ŭ" />
<glyph horiz-adv-x="1389" d="M 1210 586 C 1210 388 1167 237 1081 133 C 995 29 867 -23 696 -23 C 526 -23 397 28 309 131 C 221 233 178 384 178 582 L 178 1434 L 338 1434 L 338 586 C 338 432 368 316 429 239 C 489 161 581 123 705 123 C 827 123 916 161 970 237 C 1024 313 1051 428 1051 582 L 1051 1434 L 1210 1434 L 1210 586 Z M 694 1487 C 624 1487 567 1510 522 1557 C 476 1603 454 1660 454 1726 C 454 1792 476 1848 522 1894 C 567 1940 624 1964 694 1964 C 763 1964 820 1940 866 1894 C 911 1848 934 1792 934 1726 C 934 1660 911 1603 866 1557 C 820 1510 763 1487 694 1487 Z M 694 1579 C 738 1579 772 1592 798 1620 C 824 1648 837 1683 837 1726 C 837 1768 824 1802 798 1830 C 772 1858 738 1872 694 1872 C 650 1872 615 1858 589 1830 C 563 1802 551 1768 551 1726 C 551 1683 563 1648 589 1620 C 615 1592 650 1579 694 1579 Z" unicode="Ů" />
<glyph horiz-adv-x="1161" d="M 991 0 L 838 0 L 838 131 C 807 86 767 49 717 20 C 667 -8 608 -23 541 -23 C 427 -23 336 12 267 83 C 198 153 164 266 164 420 L 164 1075 L 317 1075 L 317 446 C 317 331 338 246 380 192 C 422 138 485 111 571 111 C 645 111 708 137 760 191 C 812 244 838 329 838 446 L 838 1075 L 991 1075 L 991 0 Z M 580 1227 C 510 1227 453 1250 408 1297 C 362 1343 340 1400 340 1466 C 340 1532 362 1588 408 1634 C 453 1680 510 1704 580 1704 C 649 1704 706 1680 752 1634 C 797 1588 820 1532 820 1466 C 820 1400 797 1343 752 1297 C 706 1250 649 1227 580 1227 Z M 580 1319 C 624 1319 658 1332 684 1360 C 710 1388 723 1423 723 1466 C 723 1508 710 1542 684 1570 C 658 1598 624 1612 580 1612 C 536 1612 501 1598 475 1570 C 449 1542 437 1508 437 1466 C 437 1423 449 1388 475 1360 C 501 1332 536 1319 580 1319 Z" unicode="ů" />
<glyph horiz-adv-x="1389" d="M 1210 586 C 1210 388 1167 237 1081 133 C 995 29 867 -23 696 -23 C 526 -23 397 28 309 131 C 221 233 178 384 178 582 L 178 1434 L 338 1434 L 338 586 C 338 432 368 316 429 239 C 489 161 581 123 705 123 C 827 123 916 161 970 237 C 1024 313 1051 428 1051 582 L 1051 1434 L 1210 1434 L 1210 586 Z M 801 1853 L 520 1526 L 406 1526 L 596 1853 L 801 1853 Z M 1163 1853 L 883 1526 L 768 1526 L 959 1853 L 1163 1853 Z" unicode="Ű" />
<glyph horiz-adv-x="1161" d="M 991 0 L 838 0 L 838 131 C 807 86 767 49 717 20 C 667 -8 608 -23 541 -23 C 427 -23 336 12 267 83 C 198 153 164 266 164 420 L 164 1075 L 317 1075 L 317 446 C 317 331 338 246 380 192 C 422 138 485 111 571 111 C 645 111 708 137 760 191 C 812 244 838 329 838 446 L 838 1075 L 991 1075 L 991 0 Z M 709 1546 L 428 1219 L 314 1219 L 504 1546 L 709 1546 Z M 1071 1546 L 791 1219 L 676 1219 L 867 1546 L 1071 1546 Z" unicode="ű" />
<glyph horiz-adv-x="1389" d="M 729 -410 C 680 -410 636 -395 597 -366 C 558 -337 539 -298 539 -250 C 539 -220 545 -194 557 -170 C 569 -146 583 -124 601 -105 C 618 -86 637 -70 657 -56 C 677 -42 695 -31 711 -23 L 696 -23 C 526 -23 397 28 309 131 C 221 233 178 384 178 582 L 178 1434 L 338 1434 L 338 586 C 338 432 368 316 429 239 C 489 161 581 123 705 123 C 827 123 916 161 970 237 C 1024 313 1051 428 1051 582 L 1051 1434 L 1210 1434 L 1210 586 C 1210 500 1202 426 1188 363 C 1173 300 1153 246 1128 201 C 1103 156 1074 118 1040 87 C 1006 55 969 28 930 6 C 862 -32 807 -68 766 -102 C 725 -136 705 -172 705 -211 C 705 -233 710 -249 722 -258 C 734 -267 748 -272 766 -272 C 786 -272 804 -267 819 -257 C 834 -247 842 -242 842 -242 L 911 -344 C 911 -344 907 -347 900 -354 C 893 -361 882 -369 868 -377 C 853 -385 834 -392 811 -399 C 787 -406 760 -410 729 -410 Z" unicode="Ų" />
<glyph horiz-adv-x="1161" d="M 784 -211 C 784 -233 790 -249 802 -258 C 814 -267 828 -272 846 -272 C 866 -272 884 -267 899 -257 C 914 -247 922 -242 922 -242 L 991 -344 C 991 -344 987 -347 980 -354 C 973 -361 962 -369 948 -377 C 933 -385 914 -392 891 -399 C 867 -406 840 -410 809 -410 C 760 -410 716 -395 677 -366 C 637 -337 618 -298 618 -250 C 618 -208 629 -172 652 -141 C 675 -109 700 -83 728 -63 C 755 -42 780 -26 803 -16 C 826 -5 838 0 838 0 L 838 131 C 807 86 767 49 717 20 C 667 -8 608 -23 541 -23 C 427 -23 336 12 267 83 C 198 153 164 266 164 420 L 164 1075 L 317 1075 L 317 446 C 317 331 338 246 380 192 C 422 138 485 111 571 111 C 645 111 708 137 760 191 C 812 244 838 329 838 446 L 838 1075 L 991 1075 L 991 -20 C 991 -20 980 -24 958 -33 C 936 -41 913 -54 887 -70 C 861 -86 838 -107 816 -131 C 794 -155 784 -181 784 -211 Z" unicode="ų" />
<glyph horiz-adv-x="1753" d="M 1636 1434 L 1350 0 L 1169 0 L 944 918 C 938 941 932 967 926 995 C 920 1023 913 1052 907 1081 C 901 1110 895 1138 889 1166 C 883 1194 878 1219 874 1241 C 866 1197 855 1144 842 1083 C 829 1021 817 966 805 918 L 580 0 L 403 0 L 117 1434 L 276 1434 L 444 512 C 448 488 452 462 457 432 C 462 402 467 372 472 343 C 477 313 482 285 486 259 C 490 232 494 210 498 193 C 500 210 504 232 510 258 C 515 284 521 312 527 342 C 533 371 540 400 547 430 C 553 459 559 485 565 508 L 793 1434 L 965 1434 L 1192 508 C 1197 485 1203 459 1210 430 C 1216 400 1223 371 1229 342 C 1235 312 1241 284 1247 258 C 1252 232 1256 210 1260 193 C 1262 210 1266 232 1270 259 C 1274 285 1279 313 1284 343 C 1289 372 1294 402 1299 432 C 1304 462 1309 488 1313 512 L 1481 1434 L 1636 1434 Z M 1217 1485 L 1084 1485 L 877 1696 L 670 1485 L 541 1485 L 793 1812 L 965 1812 L 1217 1485 Z" unicode="Ŵ" />
<glyph horiz-adv-x="1495" d="M 1399 1075 L 1114 0 L 973 0 L 778 721 C 773 739 767 764 760 796 C 753 828 748 853 745 872 C 742 853 737 828 730 796 C 723 764 717 739 713 721 L 518 0 L 381 0 L 96 1075 L 254 1075 L 422 365 C 426 346 431 321 437 289 C 443 257 448 232 453 213 C 457 232 462 257 469 289 C 476 321 482 346 487 365 L 680 1075 L 819 1075 L 1012 365 C 1016 346 1022 321 1029 289 C 1036 257 1042 232 1047 213 C 1051 232 1056 257 1062 289 C 1068 321 1073 346 1077 365 L 1245 1075 L 1399 1075 Z M 1086 1211 L 953 1211 L 746 1422 L 539 1211 L 410 1211 L 662 1538 L 834 1538 L 1086 1211 Z" unicode="ŵ" />
<glyph horiz-adv-x="1335" d="M 1239 1434 L 748 569 L 748 0 L 588 0 L 588 567 L 96 1434 L 279 1434 L 508 1022 C 536 970 565 916 595 861 C 624 805 649 757 670 715 C 690 757 715 806 744 862 C 773 918 802 971 831 1022 L 1061 1434 L 1239 1434 Z M 1006 1526 L 873 1526 L 666 1737 L 459 1526 L 330 1526 L 582 1853 L 754 1853 L 1006 1526 Z" unicode="Ŷ" />
<glyph horiz-adv-x="1087" d="M 1006 1075 L 471 -379 L 317 -379 L 465 12 L 82 1075 L 244 1075 L 506 295 L 543 184 L 580 293 L 844 1075 L 1006 1075 Z M 881 1219 L 748 1219 L 541 1430 L 334 1219 L 205 1219 L 457 1546 L 629 1546 L 881 1219 Z" unicode="ŷ" />
<glyph horiz-adv-x="1335" d="M 1239 1434 L 748 569 L 748 0 L 588 0 L 588 567 L 96 1434 L 279 1434 L 508 1022 C 536 970 565 916 595 861 C 624 805 649 757 670 715 C 690 757 715 806 744 862 C 773 918 802 971 831 1022 L 1061 1434 L 1239 1434 Z M 469 1522 C 437 1522 410 1533 388 1555 C 366 1577 355 1604 355 1635 C 355 1665 366 1692 388 1715 C 410 1737 437 1749 469 1749 C 499 1749 525 1737 547 1715 C 569 1692 580 1665 580 1635 C 580 1604 569 1577 547 1555 C 525 1533 499 1522 469 1522 Z M 865 1522 C 834 1522 807 1533 785 1555 C 763 1577 752 1604 752 1635 C 752 1665 763 1692 785 1715 C 807 1737 834 1749 865 1749 C 895 1749 922 1737 944 1715 C 966 1692 977 1665 977 1635 C 977 1604 966 1577 944 1555 C 922 1533 895 1522 865 1522 Z" unicode="Ÿ" />
<glyph horiz-adv-x="1286" d="M 1149 0 L 125 0 L 125 139 L 803 1063 C 831 1101 861 1141 891 1182 C 921 1222 950 1260 977 1294 L 166 1294 L 166 1434 L 1149 1434 L 1149 1294 L 471 371 C 442 332 412 292 382 252 C 352 211 323 173 297 139 L 1149 139 L 1149 0 Z M 917 1853 L 608 1526 L 487 1526 L 698 1853 L 917 1853 Z" unicode="Ź" />
<glyph horiz-adv-x="1008" d="M 872 0 L 111 0 L 111 113 L 698 946 L 158 946 L 158 1075 L 872 1075 L 872 963 L 285 129 L 872 129 L 872 0 Z M 780 1546 L 471 1219 L 350 1219 L 561 1546 L 780 1546 Z" unicode="ź" />
<glyph horiz-adv-x="1286" d="M 1149 0 L 125 0 L 125 139 L 803 1063 C 831 1101 861 1141 891 1182 C 921 1222 950 1260 977 1294 L 166 1294 L 166 1434 L 1149 1434 L 1149 1294 L 471 371 C 442 332 412 292 382 252 C 352 211 323 173 297 139 L 1149 139 L 1149 0 Z M 643 1542 C 612 1542 585 1553 563 1575 C 541 1597 530 1624 530 1655 C 530 1685 541 1712 563 1735 C 585 1757 612 1769 643 1769 C 673 1769 700 1757 722 1735 C 744 1712 756 1685 756 1655 C 756 1624 744 1597 722 1575 C 700 1553 673 1542 643 1542 Z" unicode="Ż" />
<glyph horiz-adv-x="1008" d="M 872 0 L 111 0 L 111 113 L 698 946 L 158 946 L 158 1075 L 872 1075 L 872 963 L 285 129 L 872 129 L 872 0 Z M 506 1235 C 475 1235 448 1246 426 1268 C 404 1290 393 1317 393 1348 C 393 1378 404 1405 426 1428 C 448 1450 475 1462 506 1462 C 536 1462 563 1450 585 1428 C 607 1405 619 1378 619 1348 C 619 1317 607 1290 585 1268 C 563 1246 536 1235 506 1235 Z" unicode="ż" />
<glyph horiz-adv-x="1286" d="M 1149 0 L 125 0 L 125 139 L 803 1063 C 831 1101 861 1141 891 1182 C 921 1222 950 1260 977 1294 L 166 1294 L 166 1434 L 1149 1434 L 1149 1294 L 471 371 C 442 332 412 292 382 252 C 352 211 323 173 297 139 L 1149 139 L 1149 0 Z M 985 1853 L 733 1526 L 561 1526 L 309 1853 L 442 1853 L 649 1642 L 856 1853 L 985 1853 Z" unicode="Ž" />
<glyph horiz-adv-x="1008" d="M 872 0 L 111 0 L 111 113 L 698 946 L 158 946 L 158 1075 L 872 1075 L 872 963 L 285 129 L 872 129 L 872 0 Z M 850 1546 L 598 1219 L 426 1219 L 174 1546 L 307 1546 L 514 1335 L 721 1546 L 850 1546 Z" unicode="ž" />
<glyph horiz-adv-x="729" d="M 244 0 L 244 1223 C 244 1317 267 1385 315 1426 C 362 1466 423 1487 498 1487 C 529 1487 554 1485 574 1483 C 594 1480 613 1475 633 1468 L 633 1323 C 615 1331 596 1337 576 1341 C 555 1345 532 1348 508 1348 C 475 1348 448 1340 428 1325 C 407 1309 397 1279 397 1235 L 397 0 L 244 0 Z" unicode="ſ" />
<glyph horiz-adv-x="1411" d="M 705 -23 C 621 -23 542 -8 470 21 C 397 50 334 94 282 152 C 229 210 188 282 158 370 C 128 457 113 558 113 674 L 113 813 L 1120 813 C 1113 887 1098 954 1074 1016 C 1050 1077 1020 1129 984 1173 C 948 1217 906 1251 858 1275 C 810 1299 758 1311 702 1311 C 624 1311 561 1296 512 1267 C 462 1237 415 1192 369 1130 L 242 1227 C 298 1304 363 1361 439 1399 C 514 1437 600 1456 698 1456 C 788 1456 869 1437 942 1400 C 1014 1362 1076 1311 1126 1245 C 1176 1179 1215 1101 1243 1010 C 1270 919 1284 821 1284 715 C 1284 610 1270 512 1242 422 C 1214 332 1175 254 1125 188 C 1075 122 1014 71 943 33 C 871 -4 792 -23 705 -23 Z M 700 123 C 762 123 818 136 868 162 C 918 188 962 225 998 273 C 1034 321 1062 378 1084 445 C 1105 512 1118 586 1122 666 L 268 666 L 268 653 C 268 576 277 505 296 440 C 315 375 343 319 379 273 C 415 226 461 189 515 163 C 569 136 630 123 700 123 Z" unicode="Ə" />
<glyph horiz-adv-x="805" d="M 682 1292 C 664 1300 643 1307 618 1311 C 592 1315 567 1317 543 1317 C 505 1317 474 1308 452 1291 C 429 1273 418 1242 418 1198 L 418 1075 L 637 1075 L 637 946 L 418 946 L 418 -309 L 264 -395 L 264 946 L 117 946 L 117 1075 L 264 1075 L 264 1192 C 264 1287 290 1355 342 1395 C 394 1435 458 1456 532 1456 C 562 1456 590 1454 616 1451 C 641 1448 663 1444 682 1438 L 682 1292 Z" unicode="ƒ" />
<glyph horiz-adv-x="1384" d="M 692 1708 C 648 1708 613 1694 587 1667 C 561 1639 549 1605 549 1563 C 549 1520 561 1485 587 1457 C 613 1429 648 1415 692 1415 C 736 1415 771 1429 797 1457 C 823 1485 836 1520 836 1563 C 836 1605 823 1639 797 1667 C 771 1694 736 1708 692 1708 Z M 940 510 L 782 981 C 774 1004 766 1029 758 1056 C 749 1083 740 1109 732 1135 C 724 1161 716 1185 710 1208 C 703 1230 698 1249 694 1264 C 690 1249 685 1230 679 1208 C 672 1186 665 1162 657 1136 C 649 1110 640 1083 631 1055 C 621 1027 612 1001 604 977 L 446 510 L 940 510 Z M 1280 0 L 1112 0 L 989 365 L 397 365 L 272 0 L 109 0 L 580 1348 C 541 1368 510 1397 487 1435 C 464 1473 453 1515 453 1563 C 453 1629 475 1685 520 1731 C 565 1777 622 1800 692 1800 C 761 1800 818 1777 864 1731 C 909 1685 932 1629 932 1563 C 932 1517 920 1475 898 1437 C 875 1399 845 1370 807 1350 L 1280 0 Z M 956 2181 L 647 1854 L 526 1854 L 737 2181 L 956 2181 Z" unicode="Ǻ" />
<glyph horiz-adv-x="1104" d="M 786 481 C 752 500 713 515 671 526 C 629 537 575 543 510 543 C 431 543 369 524 325 488 C 280 451 258 399 258 332 C 258 252 278 194 318 157 C 358 120 411 102 477 102 C 546 102 607 117 659 149 C 711 181 753 219 786 264 L 786 481 Z M 940 0 L 786 0 L 786 131 C 748 90 702 54 647 23 C 592 -7 527 -23 451 -23 C 409 -23 367 -17 326 -5 C 284 6 247 25 215 52 C 183 78 156 114 136 158 C 116 202 106 257 106 322 C 106 382 117 433 140 477 C 163 521 194 556 232 584 C 270 612 314 632 364 646 C 414 659 465 666 518 666 C 572 666 622 660 669 648 C 715 636 754 621 786 604 L 786 731 C 786 810 766 869 728 909 C 690 949 631 969 553 969 C 497 969 445 961 397 947 C 349 932 304 912 260 887 L 203 1012 C 249 1037 304 1058 366 1074 C 428 1090 493 1098 563 1098 C 678 1098 770 1071 838 1017 C 906 963 940 874 940 750 L 940 0 Z M 555 1227 C 485 1227 428 1250 383 1297 C 337 1343 315 1400 315 1466 C 315 1532 337 1588 383 1634 C 428 1680 485 1704 555 1704 C 624 1704 681 1680 727 1634 C 772 1588 795 1532 795 1466 C 795 1400 772 1343 727 1297 C 681 1250 624 1227 555 1227 Z M 555 1319 C 599 1319 633 1332 659 1360 C 685 1388 698 1423 698 1466 C 698 1508 685 1542 659 1570 C 633 1598 599 1612 555 1612 C 511 1612 476 1598 450 1570 C 424 1542 412 1508 412 1466 C 412 1423 424 1388 450 1360 C 476 1332 511 1319 555 1319 Z M 817 2130 L 508 1803 L 387 1803 L 598 2130 L 817 2130 Z" unicode="ǻ" />
<glyph horiz-adv-x="2044" d="M 1034 1229 C 1021 1206 1001 1174 974 1133 C 946 1091 922 1054 901 1022 L 565 510 L 1030 510 L 1030 965 C 1030 1009 1030 1056 1032 1108 C 1033 1160 1034 1200 1034 1229 Z M 1927 0 L 1030 0 L 1030 365 L 471 365 L 231 0 L 49 0 L 1012 1434 L 1896 1434 L 1896 1288 L 1182 1288 L 1182 838 L 1599 838 L 1599 692 L 1182 692 L 1182 145 L 1927 145 L 1927 0 Z M 1374 1853 L 1065 1526 L 944 1526 L 1155 1853 L 1374 1853 Z" unicode="Ǽ" />
<glyph horiz-adv-x="1716" d="M 1456 610 C 1450 714 1425 799 1383 865 C 1341 931 1273 965 1180 965 C 1100 965 1037 935 990 877 C 942 818 914 729 905 610 L 1456 610 Z M 1593 485 L 905 485 C 912 371 939 280 987 212 C 1035 144 1102 111 1190 111 C 1252 111 1302 119 1341 137 C 1379 155 1423 180 1473 213 L 1544 102 C 1512 81 1482 63 1454 47 C 1426 31 1399 18 1371 8 C 1343 -1 1313 -9 1281 -15 C 1249 -20 1214 -23 1174 -23 C 1114 -23 1055 -8 995 20 C 935 48 884 96 842 164 C 784 98 725 51 664 21 C 602 -8 526 -23 436 -23 C 394 -23 353 -17 313 -5 C 273 6 238 25 208 52 C 177 78 152 114 134 158 C 115 202 106 257 106 322 C 106 382 116 433 138 477 C 160 521 189 556 225 584 C 261 612 304 632 352 646 C 400 659 451 666 504 666 C 558 666 605 660 647 648 C 689 636 726 621 758 604 L 758 731 C 758 810 741 869 707 909 C 673 949 617 969 539 969 C 483 969 433 961 390 947 C 347 932 304 912 260 887 L 203 1012 C 249 1037 301 1058 359 1074 C 416 1090 479 1098 549 1098 C 643 1098 716 1080 767 1045 C 818 1010 850 963 862 903 C 894 964 937 1012 991 1046 C 1045 1080 1108 1098 1182 1098 C 1251 1098 1312 1084 1365 1058 C 1417 1032 1461 995 1495 949 C 1529 902 1555 846 1573 781 C 1590 716 1599 645 1599 569 C 1599 550 1598 534 1597 522 C 1596 510 1595 497 1593 485 Z M 754 483 C 720 501 684 516 647 527 C 610 537 560 543 496 543 C 417 543 358 524 318 488 C 278 451 258 399 258 332 C 258 252 275 194 311 157 C 347 120 397 102 463 102 C 511 102 564 115 622 142 C 679 168 734 216 786 285 C 777 313 770 344 765 377 C 759 410 756 445 754 483 Z M 1146 1546 L 837 1219 L 716 1219 L 927 1546 L 1146 1546 Z" unicode="ǽ" />
<glyph horiz-adv-x="1444" d="M 889 1276 C 862 1289 834 1299 806 1306 C 777 1313 747 1317 717 1317 C 655 1317 597 1302 543 1274 C 489 1246 443 1206 405 1154 C 366 1102 336 1040 314 966 C 292 892 281 809 281 719 C 281 621 294 533 320 455 C 346 377 381 312 426 260 L 889 1276 Z M 995 1198 L 526 172 C 556 153 587 139 621 130 C 654 121 689 117 725 117 C 787 117 844 131 898 159 C 952 187 998 227 1037 279 C 1076 331 1107 394 1129 468 C 1151 542 1163 624 1163 715 C 1163 819 1147 913 1117 996 C 1087 1078 1046 1146 995 1198 Z M 719 -23 C 672 -23 627 -17 584 -7 C 541 2 501 17 465 37 L 401 -102 L 260 -102 L 358 111 C 284 176 227 261 187 365 C 147 469 127 585 127 715 C 127 822 141 921 170 1013 C 199 1104 239 1182 291 1247 C 343 1312 405 1363 479 1400 C 553 1437 634 1456 723 1456 C 763 1456 803 1452 841 1444 C 879 1436 916 1424 950 1409 L 1008 1536 L 1149 1536 L 1061 1341 C 1140 1279 1202 1193 1248 1085 C 1294 977 1317 855 1317 719 C 1317 611 1302 512 1273 421 C 1244 329 1203 251 1151 186 C 1099 120 1036 69 962 32 C 888 -4 807 -23 719 -23 Z M 1052 1853 L 743 1526 L 622 1526 L 833 1853 L 1052 1853 Z" unicode="Ǿ" />
<glyph horiz-adv-x="1159" d="M 709 942 C 689 951 669 958 647 962 C 625 966 603 969 580 969 C 486 969 409 933 351 861 C 293 789 264 682 264 541 C 264 466 272 401 289 345 C 305 289 328 243 358 207 L 709 942 Z M 897 541 C 897 612 889 675 873 729 C 857 783 835 828 807 864 L 457 131 C 475 123 495 116 515 112 C 535 108 557 106 580 106 C 673 106 749 143 808 217 C 867 291 897 399 897 541 Z M 1047 545 C 1047 454 1034 373 1010 302 C 985 231 951 172 909 124 C 867 76 817 39 759 14 C 701 -10 640 -23 575 -23 C 543 -23 513 -20 483 -14 C 453 -8 425 0 399 10 L 346 -102 L 211 -102 L 295 74 C 239 118 194 180 162 259 C 129 337 113 430 113 537 C 113 627 125 708 150 778 C 174 848 208 906 250 954 C 292 1001 342 1037 400 1061 C 457 1085 518 1098 584 1098 C 616 1098 648 1094 679 1088 C 709 1082 738 1073 766 1063 L 821 1178 L 956 1178 L 870 999 C 924 954 967 893 999 817 C 1031 740 1047 649 1047 545 Z M 911 1546 L 602 1219 L 481 1219 L 692 1546 L 911 1546 Z" unicode="ǿ" />
<glyph horiz-adv-x="1212" d="M 1069 377 C 1069 321 1058 268 1036 219 C 1014 170 983 128 943 92 C 903 56 853 28 794 8 C 735 -12 668 -23 594 -23 C 496 -23 406 -4 322 33 C 238 71 169 118 113 176 L 219 295 C 273 243 331 201 395 170 C 458 138 526 123 600 123 C 695 123 770 145 826 189 C 881 233 909 293 909 369 C 909 435 884 490 836 535 C 787 579 697 625 567 672 C 413 726 305 784 245 845 C 184 905 154 987 154 1090 C 154 1146 164 1197 186 1243 C 208 1289 238 1327 277 1359 C 316 1390 363 1414 419 1431 C 474 1447 535 1456 602 1456 C 698 1456 779 1442 847 1415 C 914 1388 978 1351 1038 1303 L 936 1178 C 884 1220 831 1253 778 1276 C 725 1299 663 1311 592 1311 C 494 1311 423 1289 379 1247 C 335 1205 313 1156 313 1100 C 313 1070 317 1043 326 1019 C 334 994 351 971 376 949 C 400 927 435 904 479 882 C 523 860 581 836 653 811 C 732 782 798 753 852 724 C 905 695 948 664 980 630 C 1012 596 1034 559 1048 518 C 1062 476 1069 429 1069 377 Z M 502 -492 L 526 -106 L 696 -106 L 586 -492 L 502 -492 Z" unicode="Ș" />
<glyph horiz-adv-x="956" d="M 467 -23 C 393 -23 324 -10 260 15 C 196 41 138 74 88 115 L 178 227 C 220 189 267 160 317 140 C 367 119 418 109 471 109 C 544 109 598 123 634 152 C 670 181 688 222 688 274 C 688 318 669 355 632 386 C 595 417 529 453 434 494 C 380 516 334 538 296 560 C 257 581 225 604 201 628 C 176 652 158 680 146 712 C 134 743 129 780 129 823 C 129 904 160 970 224 1021 C 287 1072 367 1098 465 1098 C 538 1098 603 1087 661 1066 C 719 1044 768 1017 809 983 L 723 870 C 681 902 640 927 600 943 C 560 959 511 967 455 967 C 399 967 355 954 323 929 C 291 903 276 872 276 834 C 276 788 293 752 327 726 C 361 699 423 665 514 625 C 564 601 610 579 650 559 C 690 538 723 515 751 490 C 778 465 799 436 814 403 C 828 369 836 329 836 281 C 836 228 825 182 804 144 C 783 106 755 74 721 50 C 687 25 647 7 603 -5 C 558 -17 513 -23 467 -23 Z M 373 -492 L 397 -106 L 567 -106 L 457 -492 L 373 -492 Z" unicode="ș" />
<glyph horiz-adv-x="1204" d="M 1104 1288 L 682 1288 L 682 0 L 522 0 L 522 1288 L 100 1288 L 100 1434 L 1104 1434 L 1104 1288 Z M 498 -492 L 522 -106 L 692 -106 L 582 -492 L 498 -492 Z" unicode="Ț" />
<glyph horiz-adv-x="762" d="M 633 946 L 367 946 L 367 246 C 367 198 374 164 390 145 C 406 126 434 117 475 117 C 505 117 532 119 555 124 C 578 129 602 137 627 147 L 616 14 C 586 2 556 -7 525 -13 C 494 -19 458 -23 418 -23 C 352 -23 301 -4 266 32 C 230 69 213 132 213 221 L 213 946 L 80 946 L 80 1075 L 213 1075 L 213 1407 L 367 1493 L 367 1075 L 633 1075 L 633 946 Z M 277 -492 L 301 -106 L 471 -106 L 361 -492 L 277 -492 Z" unicode="ț" />
<glyph horiz-adv-x="1106" d="M 123 590 L 840 590 C 832 704 802 795 750 863 C 698 931 628 965 541 965 C 479 965 426 956 382 938 C 338 920 292 894 244 862 L 172 973 C 236 1013 296 1044 352 1066 C 408 1087 476 1098 557 1098 C 606 1098 656 1088 708 1068 C 760 1048 807 1017 849 973 C 891 929 925 870 952 798 C 979 725 993 636 993 532 C 993 446 981 369 959 301 C 937 232 906 174 867 126 C 827 78 780 42 726 16 C 672 -10 613 -23 549 -23 C 479 -23 417 -9 363 16 C 309 42 263 79 227 126 C 191 172 163 228 145 293 C 126 358 117 429 117 506 C 117 524 117 540 118 552 C 119 564 121 577 123 590 Z M 260 465 C 266 361 292 276 339 210 C 386 144 457 111 551 111 C 630 111 696 140 748 198 C 800 256 830 345 840 465 L 260 465 Z" unicode="ə" />
<glyph horiz-adv-x="516" d="M 362 1434 L 332 977 L 123 977 L 256 1434 L 362 1434 Z" unicode="ʻ" />
<glyph horiz-adv-x="1024" d="M 850 1219 L 717 1219 L 510 1430 L 303 1219 L 174 1219 L 426 1546 L 598 1546 L 850 1219 Z" unicode="ˆ" />
<glyph horiz-adv-x="1024" d="M 850 1546 L 598 1219 L 426 1219 L 174 1546 L 307 1546 L 514 1335 L 721 1546 L 850 1546 Z" unicode="ˇ" />
<glyph horiz-adv-x="1024" d="M 791 1266 L 233 1266 L 233 1409 L 791 1409 L 791 1266 Z" unicode="ˉ" />
<glyph horiz-adv-x="1024" d="M 858 1546 C 853 1444 820 1364 760 1306 C 699 1248 616 1219 510 1219 C 410 1219 329 1248 267 1306 C 204 1364 170 1444 166 1546 L 293 1546 C 297 1474 318 1421 356 1386 C 393 1350 446 1333 514 1333 C 576 1333 626 1350 665 1384 C 704 1418 727 1472 733 1546 L 858 1546 Z" unicode="˘" />
<glyph horiz-adv-x="1024" d="M 512 1235 C 481 1235 454 1246 432 1268 C 410 1290 399 1317 399 1348 C 399 1378 410 1405 432 1428 C 454 1450 481 1462 512 1462 C 542 1462 569 1450 591 1428 C 613 1405 625 1378 625 1348 C 625 1317 613 1290 591 1268 C 569 1246 542 1235 512 1235 Z" unicode="˙" />
<glyph horiz-adv-x="1024" d="M 512 1227 C 442 1227 385 1250 340 1297 C 294 1343 272 1400 272 1466 C 272 1532 294 1588 340 1634 C 385 1680 442 1704 512 1704 C 581 1704 638 1680 684 1634 C 729 1588 752 1532 752 1466 C 752 1400 729 1343 684 1297 C 638 1250 581 1227 512 1227 Z M 512 1319 C 556 1319 590 1332 616 1360 C 642 1388 655 1423 655 1466 C 655 1508 642 1542 616 1570 C 590 1598 556 1612 512 1612 C 468 1612 433 1598 407 1570 C 381 1542 369 1508 369 1466 C 369 1423 381 1388 407 1360 C 433 1332 468 1319 512 1319 Z" unicode="˚" />
</font>
</defs>
</svg>
