<?xml version="1.0" encoding="UTF-8" standalone="no"?>
<svg width="10px" height="54px" viewBox="0 0 10 54" version="1.1" xmlns="http://www.w3.org/2000/svg" xmlns:xlink="http://www.w3.org/1999/xlink">
    <!-- Generator: Sketch 43.1 (39012) - http://www.bohemiancoding.com/sketch -->
    <title>ic_arrows_sorting_sprite</title>
    <desc>Created with Sketch.</desc>
    <defs></defs>
    <g id="Stylesheet" stroke="none" stroke-width="1" fill="none" fill-rule="evenodd">
        <g id="Assets" transform="translate(-342.000000, -750.000000)">
            <g id="ic_arrows_sorting_sprite" transform="translate(342.000000, 750.000000)">
                <polygon id="up" fill="#B7C9D3" transform="translate(5.000000, 3.000000) scale(-1, 1) rotate(-90.000000) translate(-5.000000, -3.000000) " points="2 8 2 -2 8 3"></polygon>
                <polygon id="up-copy" fill="#B7C9D3" transform="translate(5.000000, 15.000000) scale(-1, -1) rotate(-90.000000) translate(-5.000000, -15.000000) " points="2 20 2 10 8 15"></polygon>
                <polygon id="up" fill="#2A7CC7" transform="translate(5.000000, 21.000000) scale(-1, 1) rotate(-90.000000) translate(-5.000000, -21.000000) " points="2 26 2 16 8 21"></polygon>
                <polygon id="up-copy" fill="#B7C9D3" transform="translate(5.000000, 33.000000) scale(-1, -1) rotate(-90.000000) translate(-5.000000, -33.000000) " points="2 38 2 28 8 33"></polygon>
                <polygon id="up" fill="#B7C9D3" transform="translate(5.000000, 39.000000) scale(-1, 1) rotate(-90.000000) translate(-5.000000, -39.000000) " points="2 44 2 34 8 39"></polygon>
                <polygon id="up-copy" fill="#2A7CC7" transform="translate(5.000000, 51.000000) scale(-1, -1) rotate(-90.000000) translate(-5.000000, -51.000000) " points="2 56 2 46 8 51"></polygon>
            </g>
        </g>
    </g>
</svg>