<?xml version="1.0" encoding="UTF-8"?>
<svg width="436px" height="220px" viewBox="0 0 436 220" version="1.1" xmlns="http://www.w3.org/2000/svg" xmlns:xlink="http://www.w3.org/1999/xlink">
    <!-- Generator: sketchtool 40.3 (33839) - http://www.bohemiancoding.com/sketch -->
    <title>028048F0-4129-4243-B2FE-28C78C9682AD</title>
    <desc>Created with sketchtool.</desc>
    <defs>
        <path d="M305,0 C299.477153,0 295,4.48536629 295,10.0035039 L295,41 L292.009369,41 C291.45191,41 291,41.4438648 291,42 L291,42 C291,42.5522847 291.443353,43 292.009369,43 L295,43 L295,53 L292.009369,53 C291.45191,53 291,53.4438648 291,54 L291,54 C291,54.5522847 291.443353,55 292.009369,55 L295,55 L295,122.004985 C295,124.211371 293.203479,126 291.004174,126 L286.995826,126 C284.788992,126 283,124.214787 283,121.998116 L283,84.9999148 C283,79.4771143 278.524062,75 273,75 L273,75 C267.477153,75 263,79.4725657 263,85.0001134 L263,93 L260.009369,93 C259.45191,93 259,93.4438648 259,94 L259,94 C259,94.5522847 259.443353,95 260.009369,95 L263,95 L263,111 L260.009369,111 C259.45191,111 259,111.443865 259,112 L259,112 C259,112.552285 259.443353,113 260.009369,113 L263,113 L263,130.996704 C263,139.282796 269.708249,146 277.99278,146 L290.995742,146 C293.207233,146 295,147.789136 295,150.001728 L295,187.998272 C295,190.208365 296.792468,192 298.99923,192 L311.00077,192 C313.209484,192 315,190.216227 315,188.002107 L315,157 L317.990631,157 C318.54809,157 319,156.556135 319,156 L319,156 C319,155.447715 318.556647,155 317.990631,155 L315,155 L315,119 L317.990631,119 C318.54809,119 319,118.556135 319,118 L319,118 C319,117.447715 318.556647,117 317.990631,117 L315,117 L315,102.006195 C315,99.7936345 316.789028,98 319.004258,98 L332.00722,98 C340.287504,98 347,91.2919874 347,82.9934412 L347,62 L349.990631,62 C350.54809,62 351,61.5561352 351,61 L351,61 C351,60.4477153 350.556647,60 349.990631,60 L347,60 L347,55.0052172 C347,49.4794883 342.524062,45 337,45 L337,45 C331.477153,45 327,49.4798689 327,54.9943015 L327,74.9997876 C327,77.2090439 325.203479,79 323.004174,79 L318.995826,79 C316.788992,79 315,77.2005746 315,74.9905414 L315,21 L317.990631,21 C318.54809,21 319,20.5561352 319,20 L319,20 C319,19.4477153 318.556647,19 317.990631,19 L315,19 L315,10.0007702 C315,4.47749732 310.524062,0 305,0 L305,0 Z" id="path-1"></path>
        <mask id="mask-2" maskContentUnits="userSpaceOnUse" maskUnits="objectBoundingBox" x="0" y="0" width="92" height="192" fill="white">
            <use xlink:href="#path-1"></use>
        </mask>
    </defs>
    <g id="6.x-Events---Responsive" stroke="none" stroke-width="1" fill="none" fill-rule="evenodd">
        <g id="6.3.1-Events---No-events" transform="translate(-502.000000, -594.000000)" stroke="#B7C9D3">
            <g id="img_not_found" transform="translate(502.000000, 594.000000)">
                <g id="cactus" transform="translate(0.000000, 7.000000)">
                    <use id="Path" mask="url(#mask-2)" stroke-width="2" xlink:href="#path-1"></use>
                    <path d="M295.524759,168.5 L0.524759067,168.5" id="Line" stroke-linecap="round"></path>
                    <path d="M315.49587,168.5 L435.49587,168.5" id="Line" stroke-linecap="round"></path>
                    <path d="M295.426519,197.5 L315.426519,197.5" id="Line" stroke-linecap="round"></path>
                    <path d="M295.426519,205.5 L315.426519,205.5" id="Line-Copy" stroke-linecap="round"></path>
                </g>
            </g>
        </g>
    </g>
</svg>