<?xml version="1.0" encoding="UTF-8" standalone="no"?>
<svg width="300px" height="40px" viewBox="0 0 300 40" version="1.1" xmlns="http://www.w3.org/2000/svg" xmlns:xlink="http://www.w3.org/1999/xlink">
    <!-- Generator: sketchtool 3.6.1 (26313) - http://www.bohemiancoding.com/sketch -->
    <title>Barcode</title>
    <desc>Created with sketchtool.</desc>
    <defs></defs>
    <g id="13.x-Widget" stroke="none" stroke-width="1" fill="none" fill-rule="evenodd">
        <g id="13.1.2-Widgets-Oldschool-Desktop" transform="translate(-919.000000, -1212.000000)" fill="#000000">
            <g id="OLDSCHOOL-Widget" transform="translate(889.000000, 796.000000)">
                <path d="M327.156398,455.810427 L329.999526,455.810427 L329.999526,416 L327.156398,416 L327.156398,455.810427 Z M324.312796,455.810427 L325.734597,455.810427 L325.734597,416 L324.312796,416 L324.312796,455.810427 Z M318.625592,455.810427 L322.890995,455.810427 L322.890995,416 L318.625592,416 L318.625592,455.810427 Z M311.516588,455.810427 L314.36019,455.810427 L314.36019,416 L311.516588,416 L311.516588,455.810427 Z M307.251185,455.810427 L310.094787,455.810427 L310.094787,416 L307.251185,416 L307.251185,455.810427 Z M300.14218,455.810427 L302.985782,455.810427 L302.985782,416 L300.14218,416 L300.14218,455.810427 Z M295.876777,455.810427 L298.720379,455.810427 L298.720379,416 L295.876777,416 L295.876777,455.810427 Z M293.033175,455.810427 L294.454976,455.810427 L294.454976,416 L293.033175,416 L293.033175,455.810427 Z M287.345972,455.810427 L291.611374,455.810427 L291.611374,416 L287.345972,416 L287.345972,455.810427 Z M280.236967,455.810427 L285.924171,455.810427 L285.924171,416 L280.236967,416 L280.236967,455.810427 Z M277.393365,455.810427 L278.815166,455.810427 L278.815166,416 L277.393365,416 L277.393365,455.810427 Z M270.28436,455.810427 L275.972038,455.810427 L275.972038,416 L270.28436,416 L270.28436,455.810427 Z M264.597156,455.810427 L266.018957,455.810427 L266.018957,416 L264.597156,416 L264.597156,455.810427 Z M258.909953,455.810427 L261.753081,455.810427 L261.753081,416 L258.909953,416 L258.909953,455.810427 Z M256.066351,455.810427 L257.488152,455.810427 L257.488152,416 L256.066351,416 L256.066351,455.810427 Z M248.957346,455.810427 L250.379621,455.810427 L250.379621,416 L248.957346,416 L248.957346,455.810427 Z M243.270142,455.810427 L247.535545,455.810427 L247.535545,416 L243.270142,416 L243.270142,455.810427 Z M237.582938,455.810427 L240.426066,455.810427 L240.426066,416 L237.582938,416 L237.582938,455.810427 Z M233.317536,455.810427 L234.739336,455.810427 L234.739336,416 L233.317536,416 L233.317536,455.810427 Z M226.208531,455.810427 L231.895735,455.810427 L231.895735,416 L226.208531,416 L226.208531,455.810427 Z M221.943128,455.810427 L223.364929,455.810427 L223.364929,416 L221.943128,416 L221.943128,455.810427 Z M217.677725,455.810427 L219.099526,455.810427 L219.099526,416 L217.677725,416 L217.677725,455.810427 Z M210.56872,455.810427 L211.990995,455.810427 L211.990995,416 L210.56872,416 L210.56872,455.810427 Z M204.881517,455.810427 L207.725118,455.810427 L207.725118,416 L204.881517,416 L204.881517,455.810427 Z M202.037915,455.810427 L203.46019,455.810427 L203.46019,416 L202.037915,416 L202.037915,455.810427 Z M197.772512,455.810427 L199.194787,455.810427 L199.194787,416 L197.772512,416 L197.772512,455.810427 Z M190.663507,455.810427 L196.350711,455.810427 L196.350711,416 L190.663507,416 L190.663507,455.810427 Z M186.398104,455.810427 L187.819905,455.810427 L187.819905,416 L186.398104,416 L186.398104,455.810427 Z M182.132701,455.810427 L183.554502,455.810427 L183.554502,416 L182.132701,416 L182.132701,455.810427 Z M173.601896,455.810427 L179.2891,455.810427 L179.2891,416 L173.601896,416 L173.601896,455.810427 Z M170.758294,455.810427 L172.180095,455.810427 L172.180095,416 L170.758294,416 L170.758294,455.810427 Z M162.227488,455.810427 L165.07109,455.810427 L165.07109,416 L162.227488,416 L162.227488,455.810427 Z M159.383886,455.810427 L160.806161,455.810427 L160.806161,416 L159.383886,416 L159.383886,455.810427 Z M155.118483,455.810427 L156.540758,455.810427 L156.540758,416 L155.118483,416 L155.118483,455.810427 Z M152.274882,455.810427 L153.696682,455.810427 L153.696682,416 L152.274882,416 L152.274882,455.810427 Z M146.587678,455.810427 L150.853081,455.810427 L150.853081,416 L146.587678,416 L146.587678,455.810427 Z M139.478673,455.810427 L145.165877,455.810427 L145.165877,416 L139.478673,416 L139.478673,455.810427 Z M135.21327,455.810427 L136.635071,455.810427 L136.635071,416 L135.21327,416 L135.21327,455.810427 Z M128.104265,455.810427 L133.791469,455.810427 L133.791469,416 L128.104265,416 L128.104265,455.810427 Z M123.838863,455.810427 L125.260664,455.810427 L125.260664,416 L123.838863,416 L123.838863,455.810427 Z M116.729858,455.810427 L118.152133,455.810427 L118.152133,416 L116.729858,416 L116.729858,455.810427 Z M111.042654,455.810427 L113.886256,455.810427 L113.886256,416 L111.042654,416 L111.042654,455.810427 Z M108.199052,455.810427 L109.621327,455.810427 L109.621327,416 L108.199052,416 L108.199052,455.810427 Z M105.35545,455.810427 L106.777251,455.810427 L106.777251,416 L105.35545,416 L105.35545,455.810427 Z M101.090047,455.810427 L102.511848,455.810427 L102.511848,416 L101.090047,416 L101.090047,455.810427 Z M92.5592417,455.810427 L95.4023697,455.810427 L95.4023697,416 L92.5592417,416 L92.5592417,455.810427 Z M86.8720379,455.810427 L89.7156398,455.810427 L89.7156398,416 L86.8720379,416 L86.8720379,455.810427 Z M84.028436,455.810427 L85.450237,455.810427 L85.450237,416 L84.028436,416 L84.028436,455.810427 Z M76.9194313,455.810427 L78.3412322,455.810427 L78.3412322,416 L76.9194313,416 L76.9194313,455.810427 Z M72.6540284,455.810427 L74.0758294,455.810427 L74.0758294,416 L72.6540284,416 L72.6540284,455.810427 Z M68.3886256,455.810427 L71.2322275,455.810427 L71.2322275,416 L68.3886256,416 L68.3886256,455.810427 Z M61.2796209,455.810427 L62.7018957,455.810427 L62.7018957,416 L61.2796209,416 L61.2796209,455.810427 Z M57.014218,455.810427 L58.4364929,455.810427 L58.4364929,416 L57.014218,416 L57.014218,455.810427 Z M49.9052133,455.810427 L55.5924171,455.810427 L55.5924171,416 L49.9052133,416 L49.9052133,455.810427 Z M45.6398104,455.810427 L47.0616114,455.810427 L47.0616114,416 L45.6398104,416 L45.6398104,455.810427 Z M38.5308057,455.810427 L39.9526066,455.810427 L39.9526066,416 L38.5308057,416 L38.5308057,455.810427 Z M34.2654028,455.810427 L35.6872038,455.810427 L35.6872038,416 L34.2654028,416 L34.2654028,455.810427 Z M30,455.810427 L32.8436019,455.810427 L32.8436019,416 L30,416 L30,455.810427 Z" id="Barcode"></path>
            </g>
        </g>
    </g>
</svg>