<?xml version="1.0" encoding="UTF-8" standalone="no"?>
<svg width="15px" height="16px" viewBox="0 0 15 16" version="1.1" xmlns="http://www.w3.org/2000/svg" xmlns:xlink="http://www.w3.org/1999/xlink">
    <!-- Generator: sketchtool 3.6.1 (26313) - http://www.bohemiancoding.com/sketch -->
    <title>question_ic</title>
    <desc>Created with sketchtool.</desc>
    <defs></defs>
    <g id="13.x-Widget" stroke="none" stroke-width="1" fill="none" fill-rule="evenodd" opacity="1">
        <g id="13.1.2-Widgets-Oldschool-Desktop" transform="translate(-1224.000000, -806.000000)" fill="#414141">
            <g id="OLDSCHOOL-Widget" transform="translate(889.000000, 796.000000)">
                <g id="question_ic" transform="translate(335.000000, 10.147395)">
                    <path d="M7.5,15 C11.6421356,15 15,11.6421356 15,7.5 C15,3.35786438 11.6421356,0 7.5,0 C3.35786438,0 0,3.35786438 0,7.5 C0,11.6421356 3.35786438,15 7.5,15 Z M8.564,8.136 C9.433,7.41 9.73,6.827 9.73,6.068 C9.73,4.88 8.795,4 7.376,4 C5.891,4 5.033,4.891 5,6.354 L6.606,6.354 C6.606,5.771 6.914,5.474 7.332,5.474 C7.706,5.474 7.992,5.771 7.992,6.134 C7.992,6.629 7.849,6.871 7.277,7.476 C6.76,8.026 6.617,8.488 6.617,9.346 L8.08,9.346 C8.08,8.763 8.234,8.433 8.564,8.136 Z M6.485,11.744 L8.212,11.744 L8.212,10.204 L6.485,10.204 L6.485,11.744 Z"></path>
                </g>
            </g>
        </g>
    </g>
</svg>