<?xml version="1.0" encoding="UTF-8"?>
<svg width="25" height="159" xmlns="http://www.w3.org/2000/svg">
 <!-- Generator: sketchtool 3.6.1 (26313) - http://www.bohemiancoding.com/sketch -->
 <title>66589A6D-D514-4733-8210-6AEB339ABA12</title>
 <desc>Created with sketchtool.</desc>
 <g>
  <title>Layer 1</title>
  <g transform="rotate(-90, 12.4199, 79.404)" fill-rule="evenodd" fill="none" id="13.x-Widget">
   <g id="13.1-Widget-Color-Block-300x600">
    <g id="NEWSCHOOL-dark-widget">
     <g id="ticketmaster_verified_logo">
      <path fill="#414141" id="Fill-1" d="m9.620667,83.518158c1.497681,0 1.95929,-1.039673 2.272156,-2.288818l-0.700104,0c-0.972809,0 -2.584167,0.165527 -2.584167,1.47583c0,0.538818 0.509476,0.812988 1.012115,0.812988m1.95929,0.104248l-0.029053,0c-0.686447,0.871582 -1.373734,1.368164 -2.479034,1.368164c-1.391693,0 -2.374756,-0.781128 -2.374756,-2.212158c0,-2.561157 2.836365,-2.75769 4.720428,-2.75769l0.700104,0c0.062408,-0.211304 0.062408,-0.436279 0.062408,-0.663818c0,-0.781006 -0.839447,-1.006958 -1.538696,-1.006958c-0.88562,0 -1.733627,0.225952 -2.526917,0.600098l0.282959,-1.608643c0.85141,-0.301758 1.71994,-0.46814 2.614944,-0.46814c1.540421,0 2.985947,0.572388 2.985947,2.394897c0,1.040405 -0.761658,4.081787 -0.938599,5.543945l-1.688324,0l0.208588,-1.189697"/>
      <path fill="#414141" id="Fill-3" d="m-40.309174,77.044769l1.445526,0l0.344498,-1.594727l2.150772,-0.709473l-0.491531,2.304199l1.790039,0l-0.311157,1.475952l-1.795166,0l-0.730881,3.390503c-0.046173,0.181885 -0.088913,0.450806 -0.088913,0.754272c0,0.467285 0.312881,0.752563 0.763382,0.752563c0.356461,0 0.716339,-0.075806 0.967667,-0.176636l-0.34108,1.561157c-0.347061,0.077637 -0.733444,0.180176 -1.077087,0.180176c-1.356628,0 -2.315765,-0.5354 -2.315765,-2.031006c0,-0.601807 0.120529,-1.188843 0.253891,-1.807739l0.568466,-2.623291l-1.453232,0l0.320572,-1.475952"/>
      <path fill="#414141" id="Fill-5" d="m-33.511932,73.700897l1.997772,0l-0.415466,1.929321l-2.003738,0l0.421432,-1.929321zm-0.733444,3.343872l1.997757,0l-1.638733,7.757813l-2.002884,0l1.64386,-7.757813z"/>
      <path fill="#414141" id="Fill-7" d="m-26.19664,78.822845c-0.391525,-0.255127 -0.915543,-0.391357 -1.467758,-0.391357c-1.598557,0 -2.49527,1.508545 -2.49527,2.967163c0,1.010376 0.331665,2.019897 1.706253,2.019897c0.489822,0 1.102737,-0.13623 1.6259,-0.393066l-0.223114,1.598267c-0.61377,0.301636 -1.271149,0.358521 -1.925949,0.358521c-1.988358,0 -3.273178,-1.337036 -3.273178,-3.340454c0,-2.712891 1.776352,-4.776733 4.539185,-4.776733c0.746277,0 1.465195,0.132813 2.005463,0.302612l-0.491531,1.655151"/>
      <path fill="#414141" id="Fill-9" d="m-24.006546,73.509491l2.002884,0l-1.329269,6.355103l0.031631,0l2.790192,-2.819824l2.600418,0l-3.688629,3.542236l2.314041,4.215576l-2.252502,0l-1.990051,-4.109497l-0.027359,0l-0.866806,4.109497l-1.956726,0l2.372177,-11.293091z"/>
      <path fill="#414141" id="Fill-11" d="m-10.692871,77.044769l1.44725,0l0.345352,-1.594727l2.150772,-0.709473l-0.494095,2.304199l1.793457,0l-0.309448,1.475952l-1.797729,0l-0.733459,3.390503c-0.041031,0.181885 -0.087189,0.450806 -0.087189,0.754272c0,0.467285 0.312866,0.752563 0.761658,0.752563c0.356476,0 0.7155,-0.075806 0.967682,-0.176636l-0.341934,1.561157c-0.34108,0.077637 -0.730881,0.180176 -1.074539,0.180176c-1.359192,0 -2.314896,-0.5354 -2.314896,-2.031006c0,-0.601807 0.119675,-1.188843 0.252182,-1.807739l0.569321,-2.623291l-1.450668,0l0.316284,-1.475952"/>
      <path fill="#414141" id="Fill-13" d="m-11.36348,79.81723c0,-1.974121 -1.25148,-2.95166 -3.151794,-2.95166c-2.523483,0 -4.379333,2.320679 -4.379333,4.730103c0,2.30603 1.492538,3.38623 3.707428,3.38623c0.821503,0 1.672073,-0.19397 2.446548,-0.431885l0.256454,-1.598267c-0.747986,0.347412 -1.538712,0.55603 -2.360214,0.55603c-1.280548,0 -2.026825,-0.456909 -2.125122,-1.677612l-0.002563,0c0,-0.070679 -0.010254,-0.140503 -0.010254,-0.215576l0,-0.06897l0.005981,0c0.004272,-0.525757 0.121384,-1.049927 0.324829,-1.532715c0.382965,-0.989624 0.926651,-1.6698 2.107178,-1.6698c0.836029,0 1.267731,0.465454 1.267731,1.293091c0,0.18103 -0.014526,0.346558 -0.04274,0.529297l-2.738907,0c-0.180374,0.606934 -0.210297,1.014648 -0.213715,1.380127l4.714447,0c0.117966,-0.568848 0.194046,-1.140503 0.194046,-1.728394"/>
      <path fill="#414141" id="Fill-15" d="m-4.584183,77.904755c0.055557,-0.302612 0.117111,-0.612915 0.16156,-0.859497l1.868683,0l-0.181229,1.038818l0.029907,0c0.541122,-0.792236 1.418182,-1.217285 2.361938,-1.217285c0.9104,0 1.852417,0.541382 1.955017,1.477661l0.030762,0c0.505219,-1.01123 1.628479,-1.477661 2.703003,-1.477661c1.151459,0 2.138809,0.950073 2.138809,2.125854c0,0.688843 -0.177811,1.472412 -0.343643,2.105225l-0.806122,3.706055l-2.002884,0l0.805252,-3.780273c0.103455,-0.468018 0.252182,-1.187866 0.252182,-1.656006c0,-0.574097 -0.429123,-0.935303 -0.938614,-0.935303c-1.38739,0 -1.731903,1.626709 -1.987488,2.683594l-0.790741,3.687988l-2.000305,0l0.802673,-3.780273c0.107727,-0.468018 0.25647,-1.187866 0.25647,-1.656006c0,-0.574097 -0.43512,-0.935303 -0.941193,-0.935303c-1.356628,0 -1.735321,1.641357 -1.987488,2.683594l-0.789871,3.687988l-2.004593,0l1.407913,-6.89917"/>
      <path fill="#414141" id="Fill-17" d="m19.946686,78.627533c-0.216263,-0.118042 -0.767639,-0.282715 -1.33696,-0.282715c-0.594971,0 -1.338669,0.164673 -1.338669,0.780151c0,0.97937 2.597839,1.340576 2.597839,3.237915c0,2.019043 -1.750702,2.619873 -3.472351,2.619873c-0.799271,0 -1.610504,-0.115479 -2.340546,-0.463745l0.432556,-1.611206c0.566742,0.317139 1.131805,0.601685 1.90799,0.601685c0.675323,0 1.378006,-0.224976 1.378006,-0.856934c0,-1.252563 -2.601273,-1.371582 -2.601273,-3.313721c0,-1.825928 1.748993,-2.472412 3.33728,-2.472412c0.728333,0 1.477173,0.13269 1.870392,0.240479l-0.434265,1.52063"/>
      <path fill="#414141" id="Fill-19" d="m21.225098,77.044769l1.451523,0l0.34108,-1.594727l2.150772,-0.709473l-0.49324,2.304199l1.794312,0l-0.313728,1.475952l-1.797729,0l-0.72747,3.390503c-0.047867,0.181885 -0.090607,0.450806 -0.090607,0.754272c0,0.467285 0.316284,0.752563 0.764229,0.752563c0.354752,0 0.7155,-0.075806 0.969383,-0.176636l-0.34108,1.561157c-0.348778,0.077637 -0.735161,0.180176 -1.076248,0.180176c-1.359192,0 -2.31575,-0.5354 -2.31575,-2.031006c0,-0.601807 0.117966,-1.188843 0.248764,-1.807739l0.568451,-2.623291l-1.446381,0l0.313721,-1.475952"/>
      <path fill="#414141" id="Fill-21" d="m34.797806,78.084442c0.063263,-0.331909 0.120537,-0.676636 0.178665,-1.037842l1.911415,0l-0.271835,1.462891l0.035904,0c0.355614,-0.846558 1.342949,-1.643066 2.268738,-1.643066c0.2556,0 0.523163,0.015503 0.759094,0.074097l-0.41716,1.974121c-0.223114,-0.075806 -0.505211,-0.121582 -0.759949,-0.121582c-1.419029,0 -2.107178,1.279297 -2.363632,2.531982l-0.712936,3.478394l-2.005447,0l1.377144,-6.718994"/>
      <path fill="#414141" id="Fill-23" d="m33.407837,79.81723c0,-1.974121 -1.254044,-2.95166 -3.151787,-2.95166c-2.526047,0 -4.377632,2.320679 -4.377632,4.730103c0,2.30603 1.495972,3.38623 3.704018,3.38623c0.820648,0 1.673775,-0.19397 2.450821,-0.431885l0.249611,-1.598267c-0.741997,0.347412 -1.532722,0.55603 -2.35508,0.55603c-1.284821,0 -2.028526,-0.456909 -2.123413,-1.677612l-0.002571,0c-0.006836,-0.070679 -0.010254,-0.140503 -0.010254,-0.215576c0,-0.012817 0.000854,-0.025757 0.000854,-0.043091l0,-0.025879c0.009399,-0.525757 0.124809,-1.049927 0.328255,-1.532715c0.379547,-0.989624 0.923225,-1.6698 2.107178,-1.6698c0.836891,0 1.26944,0.465454 1.26944,1.293091c0,0.18103 -0.020515,0.346558 -0.04702,0.529297l-2.734627,0c-0.182938,0.606934 -0.215424,1.014648 -0.216278,1.380127l4.714439,0c0.120529,-0.568848 0.194046,-1.140503 0.194046,-1.728394"/>
      <path fill="#009CDE" id="Fill-25" d="m41.360405,76.962006l2.070419,0l0.784744,5.76123l0.030769,0l3.068871,-5.76123l2.144791,0l-4.547745,7.849243l-2.237961,0l-1.313889,-7.849243z"/>
      <path fill="#009CDE" id="Fill-27" d="m54.147079,80.117279c0.030777,-0.183716 0.044449,-0.350098 0.044449,-0.533691c0,-0.837891 -0.436821,-1.310303 -1.283112,-1.310303c-1.254044,0 -1.798576,0.762085 -2.190948,1.843994l3.429611,0zm-3.702309,1.401733c0,1.448242 0.771065,1.980957 2.161034,1.980957c0.830902,0 1.631889,-0.213745 2.387566,-0.563721l-0.258163,1.616333c-0.784737,0.243042 -1.646416,0.441406 -2.477318,0.441406c-2.236259,0 -3.747612,-1.096558 -3.747612,-3.428467c0,-2.438843 1.873802,-4.7854 4.427208,-4.7854c1.919968,0 3.1894,0.989746 3.1894,2.987061c0,0.59314 -0.07608,1.172485 -0.195755,1.751831l-5.486359,0z"/>
      <path fill="#009CDE" id="Fill-29" d="m57.691238,78.014618c0.059845,-0.335327 0.120537,-0.685303 0.182083,-1.050781l1.933647,0l-0.271843,1.477539l0.029068,0c0.363304,-0.853394 1.360901,-1.661255 2.29866,-1.661255c0.256454,0 0.527435,0.014648 0.770218,0.075928l-0.423157,1.996582c-0.226532,-0.076782 -0.513748,-0.121582 -0.770203,-0.121582c-1.436989,0 -2.131973,1.295654 -2.387566,2.560303l-0.725761,3.519897l-2.025108,0l1.389961,-6.796631"/>
      <path fill="#009CDE" id="Fill-31" d="m64.014053,73.579315l2.024261,0l-0.422287,1.95166l-2.025116,0l0.423141,-1.95166zm-0.739426,3.38269l2.024246,0l-1.663513,7.849243l-2.024261,0l1.663528,-7.849243z"/>
      <path fill="#009CDE" id="Fill-33" d="m67.251755,78.456879l-1.572052,0l0.318008,-1.493042l1.570343,0c0.409454,-1.997437 1.073669,-3.764648 3.43132,-3.764648c0.468445,0 0.922363,0.091309 1.254898,0.197388l-0.468445,1.525024c-0.182083,-0.092285 -0.407761,-0.137085 -0.619766,-0.137085c-1.118973,0 -1.375427,1.355957 -1.572052,2.179321l1.813126,0l-0.316299,1.493042l-1.814819,0l-1.329269,6.355225l-2.025116,0l1.330124,-6.355225"/>
      <path fill="#009CDE" id="Fill-35" d="m72.89241,73.579315l2.024261,0l-0.422287,1.95166l-2.025116,0l0.423141,-1.95166zm-0.74115,3.38269l2.02597,0l-1.663513,7.849243l-2.024261,0l1.661804,-7.849243z"/>
      <path fill="#009CDE" id="Fill-37" d="m79.917908,80.117279c0.029922,-0.183716 0.044449,-0.350098 0.044449,-0.533691c0,-0.837891 -0.436829,-1.310303 -1.283112,-1.310303c-1.255768,0 -1.799438,0.762085 -2.191803,1.843994l3.430466,0zm-3.702316,1.401733c0,1.448242 0.771072,1.980957 2.161041,1.980957c0.830902,0 1.631882,-0.213745 2.387558,-0.563721l-0.256454,1.616333c-0.786453,0.243042 -1.648117,0.441406 -2.479019,0.441406c-2.236267,0 -3.74762,-1.096558 -3.74762,-3.428467c0,-2.438843 1.872955,-4.7854 4.427216,-4.7854c1.919968,0 3.189392,0.989746 3.189392,2.987061c0,0.59314 -0.07608,1.172485 -0.195755,1.751831l-5.486359,0z"/>
      <path fill="#009CDE" id="Fill-39" d="m84.504547,81.550018c0,0.792236 0.242767,1.859497 1.238647,1.859497c1.481445,0 2.358505,-1.737915 2.358505,-3.18457c0,-0.914551 -0.438538,-1.860352 -1.466049,-1.860352c-1.451508,0 -2.131104,2.012085 -2.131104,3.185425l0,0zm7.208847,-8.168091l-2.100342,9.693115c-0.122238,0.6698 -0.241913,1.340454 -0.287216,1.736206l-1.89006,0l0.197479,-1.156982l-0.030777,0c-0.60437,0.851807 -1.360046,1.340576 -2.538879,1.340576c-1.843887,0 -2.674789,-1.55603 -2.674789,-3.26123c0,-2.346558 1.26944,-4.953491 3.913452,-4.953491c0.997604,0 1.769516,0.381104 2.402954,1.112061l0.982208,-4.510254l2.02597,0z"/>
      <path d="m-66.875,81.871918l0.051285,0.023315l-0.04274,-0.043091l-0.008545,0.019775z" fill="#424343" id="Fill-42"/>
      <path d="m-66.875,81.844818l0.008545,0.009521l0.014542,-0.032837l-0.023087,0.023315z" fill="#424343" id="Fill-44"/>
      <path d="m-60.616302,83.119843c0.011978,0.023315 0.01796,0.047363 0.028214,0.071533c0.011108,-0.006958 0.022232,-0.012939 0.03334,-0.019775c-0.020523,-0.018188 -0.041031,-0.034546 -0.061554,-0.051758" fill="#424343" id="Fill-46"/>
      <path fill="#414141" id="Fill-48" d="m-58.837799,69.220306c-0.035904,1.163696 0.564178,2.296509 1.614777,2.893066l-7.103699,7.163818l4.754608,-10.398315l0.734314,0.341431zm10.711975,5.125c-0.438538,0.442139 -1.012985,0.662842 -1.587433,0.662842c-0.575302,0 -1.149765,-0.220703 -1.588287,-0.662842c-0.877075,-0.884521 -0.877075,-2.31897 0,-3.203491l-2.479034,-2.500854l-2.51152,2.533569c-0.063263,-0.02063 -0.124802,-0.045654 -0.184647,-0.074097c-0.973663,-0.450928 -1.397659,-1.61377 -0.948868,-2.594849l-2.75087,-1.279297l-6.673721,14.595703l-0.015396,0.03186l2.47049,2.49231c0.438538,-0.442261 1.012985,-0.663818 1.589142,-0.663818c0.400925,0 0.80098,0.110352 1.156601,0.325806c0.159851,-0.162842 0.33168,-0.313721 0.513748,-0.453369c0.173538,-0.133667 0.356476,-0.25354 0.547958,-0.363892c-0.010254,-0.023193 -0.01709,-0.047363 -0.027359,-0.070679c-0.624023,-0.493896 -1.387405,-0.764648 -2.190948,-0.764648c-0.258163,0 -0.51033,0.029297 -0.756531,0.082764c-0.225677,0.049194 -0.445374,0.119019 -0.655655,0.209473l-0.416306,-0.418945l-0.379562,-0.383545l9.922974,-10.007813l1.310471,-1.319824l0.794998,0.801758c-0.189774,0.444824 -0.288086,0.926636 -0.288086,1.424927c0,0.17334 0.015396,0.344849 0.039322,0.514648c0.047882,0.333618 0.140198,0.654297 0.274414,0.956909c0.176086,0.391357 0.418015,0.75354 0.728317,1.066406c0.673615,0.679321 1.566925,1.052612 2.518356,1.052612c0.492386,0 0.971954,-0.10083 1.410477,-0.292236l0.797577,0.803467l-7.170395,7.229248c0.151306,0.162109 0.292358,0.331055 0.422287,0.512085c0.131653,0.182739 0.251328,0.375 0.35733,0.576782l8.250046,-8.318115l-2.479889,-2.500854z"/>
      <path fill="#009CDE" id="Fill-50" d="m-54.481979,85.753876c-0.094879,-0.210327 -0.205154,-0.412964 -0.332535,-0.602539c-0.123947,-0.18457 -0.264999,-0.355225 -0.416306,-0.517334c-0.744553,-0.792236 -1.796005,-1.290527 -2.964569,-1.290527c-0.643692,0 -1.248932,0.154419 -1.790039,0.420776c-0.153015,0.074951 -0.300049,0.157715 -0.441956,0.250854c-0.04274,0.028442 -0.08548,0.057739 -0.127365,0.087891c-0.177811,0.127563 -0.347061,0.268066 -0.503494,0.424194c-0.754837,0.747314 -1.222427,1.785278 -1.222427,2.936157c0,2.275024 1.828506,4.119873 4.085281,4.119873c2.255905,0 4.085266,-1.844849 4.085266,-4.119873c0,-0.610352 -0.13591,-1.187866 -0.371857,-1.709473"/>
      <path fill="#FFFFFF" id="Fill-52" d="m-58.653168,89.965546l-2.15419,-2.176758l0.932632,-0.944824l1.220703,1.237061l2.580765,-2.606934l0.935196,0.943115l-3.515106,3.54834z"/>
      <path fill="#414141" id="Fill-54" d="m38.94976,83.162445l0.376984,0c0.247047,0 0.407753,-0.055176 0.407753,-0.310303c0,-0.22583 -0.197464,-0.292236 -0.407753,-0.292236l-0.376984,0l0,0.602539zm-0.325699,-0.858521l0.756538,0c0.457336,0 0.674461,0.185303 0.674461,0.558594c0,0.320679 -0.200027,0.550781 -0.506058,0.550781l0.559914,0.875977l-0.340225,0l-0.552223,-0.875977l-0.266708,0l0,0.875977l-0.325699,0l0,-1.985352zm0.652245,2.436157c0.768501,0 1.354065,-0.625 1.354065,-1.440552c0,-0.810303 -0.585564,-1.44043 -1.354065,-1.44043c-0.783035,0 -1.367744,0.630127 -1.367744,1.44043c0,0.815552 0.584709,1.440552 1.367744,1.440552l0,0zm-0.008545,-3.130127c0.92408,0 1.683174,0.755981 1.683174,1.689575c0,0.937988 -0.759094,1.695679 -1.683174,1.695679c-0.924942,0 -1.677193,-0.75769 -1.677193,-1.695679c0,-0.933594 0.752251,-1.689575 1.677193,-1.689575l0,0z"/>
     </g>
    </g>
   </g>
  </g>
 </g>
</svg>