<?xml version="1.0" encoding="UTF-8" standalone="no"?>
<svg width="144px" height="20px" viewBox="0 0 144 20" version="1.1" xmlns="http://www.w3.org/2000/svg" xmlns:xlink="http://www.w3.org/1999/xlink">
    <!-- Generator: sketchtool 3.6.1 (26313) - http://www.bohemiancoding.com/sketch -->
    <title>TM-GrayLogo + shape Copy 8</title>
    <desc>Created with sketchtool.</desc>
    <defs></defs>
    <g id="13.x-Widget" stroke="none" stroke-width="1" fill="none" fill-rule="evenodd">
        <g id="13.1.2-Widgets-Desktop_simple_dark" transform="translate(-1080.000000, -1207.000000)" fill="#009CDE">
            <g id="TM-GrayLogo-+-shape-Copy-8" transform="translate(1080.000000, 1207.000000)">
                <path d="M85.0917273,16.8416457 C87.6215455,16.8416457 88.4061818,15.1285276 88.9363636,13.0672441 L87.7479545,13.0672441 C86.1038182,13.0672441 83.3719091,13.3407165 83.3719091,15.5007874 C83.3719091,16.3946929 84.2314091,16.8416457 85.0917273,16.8416457 L85.0917273,16.8416457 Z M88.4061818,17.0155276 L88.3550455,17.0155276 C87.1915909,18.4559764 86.0277273,19.2755906 84.1557273,19.2755906 C81.8042727,19.2755906 80.1351818,17.9837244 80.1351818,15.6252756 C80.1351818,11.4035197 84.9403636,11.0810551 88.1275909,11.0810551 L89.3164091,11.0810551 C89.4174545,10.7328898 89.4174545,10.3606299 89.4174545,9.9879685 C89.4174545,8.69730709 88.0011818,8.32464567 86.8123636,8.32464567 C85.3195909,8.32464567 83.8775455,8.69730709 82.5369545,9.31774016 L83.0172273,6.66092126 C84.4592727,6.16497638 85.9266818,5.89110236 87.4448182,5.89110236 C90.0499091,5.89110236 92.5036364,6.83480315 92.5036364,9.83898425 C92.5036364,11.5525039 91.2137727,16.5689764 90.9102273,18.977622 L88.0515,18.977622 L88.4061818,17.0155276 L88.4061818,17.0155276 Z" id="Fill-1"></path>
                <path d="M0.531,6.1774252 L2.98513636,6.1774252 L3.56686364,3.54550394 L7.20940909,2.37812598 L6.37445455,6.1774252 L9.41031818,6.1774252 L8.87890909,8.6109685 L5.84304545,8.6109685 L4.60390909,14.1980787 C4.52781818,14.4960472 4.45213636,14.9434016 4.45213636,15.4393465 C4.45213636,16.2095669 4.98354545,16.6810157 5.74240909,16.6810157 C6.3495,16.6810157 6.95659091,16.5569291 7.38695455,16.3830472 L6.80481818,18.9655748 C6.22268182,19.0896614 5.56527273,19.2639449 4.98354545,19.2639449 C2.68159091,19.2639449 1.06240909,18.3700394 1.06240909,15.9111969 C1.06240909,14.9185039 1.26490909,13.9499055 1.49236364,12.932315 L2.45372727,8.6109685 L0,8.6109685 L0.531,6.1774252" id="Fill-3"></path>
                <path d="M12.042,0.664606299 L15.4313182,0.664606299 L14.7231818,3.84347244 L11.3334545,3.84347244 L12.042,0.664606299 L12.042,0.664606299 Z M10.8020455,6.1774252 L14.1917727,6.1774252 L11.4095455,18.9655748 L8.01981818,18.9655748 L10.8020455,6.1774252 L10.8020455,6.1774252 Z" id="Fill-4"></path>
                <path d="M24.4288636,9.10811811 C23.7702273,8.68566142 22.8853636,8.46198425 21.9493636,8.46198425 C19.2424091,8.46198425 17.7246818,10.9453228 17.7246818,13.3543701 C17.7246818,15.0168898 18.2810455,16.6810157 20.6087727,16.6810157 C21.4437273,16.6810157 22.4807727,16.4573386 23.3656364,16.035685 L22.9864091,18.6680079 C21.9493636,19.1643543 20.8366364,19.2639449 19.7235,19.2639449 C16.3587273,19.2639449 14.1831818,17.0544803 14.1831818,13.7515276 C14.1831818,9.28159843 17.1936818,5.88025984 21.8736818,5.88025984 C23.1385909,5.88025984 24.3523636,6.10353543 25.2638182,6.37620472 L24.4288636,9.10811811" id="Fill-5"></path>
                <path d="M28.1462727,0.342141732 L31.536,0.342141732 L29.2843636,10.8212362 L29.3355,10.8212362 L34.0658182,6.1774252 L38.4672273,6.1774252 L32.2191818,12.0131102 L36.1399091,18.9655748 L32.3202273,18.9655748 L28.9554545,12.1873937 L28.9047273,12.1873937 L27.4377273,18.9655748 L24.1240909,18.9655748 L28.1462727,0.342141732" id="Fill-6"></path>
                <path d="M50.6863636,6.1774252 L53.1400909,6.1774252 L53.7218182,3.54550394 L57.3647727,2.37812598 L56.5298182,6.1774252 L59.5656818,6.1774252 L59.0346818,8.6109685 L55.9984091,8.6109685 L54.7588636,14.1980787 C54.6831818,14.4960472 54.6070909,14.9434016 54.6070909,15.4393465 C54.6070909,16.2095669 55.1385,16.6810157 55.8977727,16.6810157 C56.5048636,16.6810157 57.1119545,16.5569291 57.5415,16.3830472 L56.9593636,18.9655748 C56.3780455,19.0896614 55.7202273,19.2639449 55.1385,19.2639449 C52.8365455,19.2639449 51.2173636,18.3700394 51.2173636,15.9111969 C51.2173636,14.9185039 51.4198636,13.9499055 51.6477273,12.932315 L52.6090909,8.6109685 L50.1549545,8.6109685 L50.6863636,6.1774252" id="Fill-7"></path>
                <path d="M49.5527727,10.7469449 C49.5527727,7.49338583 47.4275455,5.88025984 44.2153636,5.88025984 C39.9399545,5.88025984 36.8030455,9.70445669 36.8030455,13.6772362 C36.8030455,17.4765354 39.3328636,19.2639449 43.0768636,19.2639449 C44.4677727,19.2639449 45.9102273,18.9414803 47.2250455,18.5443228 L47.6558182,15.9111969 C46.3900909,16.4830394 45.0495,16.8304016 43.6585909,16.8304016 C41.4904091,16.8304016 40.2234545,16.0742362 40.0606364,14.0635512 L40.0577727,14.0635512 C40.0516364,13.9466929 40.0405909,13.8330472 40.0405909,13.7105669 C40.0405909,13.686874 40.0422273,13.6627795 40.0422273,13.6394882 C40.0422273,13.6270394 40.0414091,13.6153937 40.0414091,13.6021417 L40.0438636,13.6021417 C40.059,12.7263071 40.2545455,11.8625197 40.5945,11.0653937 C41.2457727,9.43781102 42.1670455,8.31340157 44.1642273,8.31340157 C45.5809091,8.31340157 46.3148182,9.0828189 46.3148182,10.4489764 C46.3148182,10.7469449 46.2890455,11.0196142 46.2387273,11.3179843 L41.6004545,11.3179843 C41.2997727,12.3227244 41.247,12.9961654 41.2408636,13.6021417 L49.2238636,13.6021417 C49.4255455,12.6584409 49.5527727,11.7151417 49.5527727,10.7469449" id="Fill-8"></path>
                <path d="M61.0281818,7.59297638 C61.1292273,7.09662992 61.2302727,6.57498425 61.3063636,6.1774252 L64.4686364,6.1774252 L64.1650909,7.89094488 L64.2154091,7.89094488 C65.1260455,6.57498425 66.6184091,5.88025984 68.2118182,5.88025984 C69.7553182,5.88025984 71.3487273,6.77376378 71.5258636,8.31340157 L71.5765909,8.31340157 C72.4365,6.64967717 74.3338636,5.88025984 76.1551364,5.88025984 C78.1028182,5.88025984 79.7723182,7.44399213 79.7723182,9.38118898 C79.7723182,10.5232677 79.4691818,11.8151339 79.191,12.857622 L77.8246364,18.9655748 L74.4349091,18.9655748 L75.8012727,12.7327323 C75.978,11.963315 76.2312273,10.7710394 76.2312273,10.001622 C76.2312273,9.05832283 75.4977273,8.46198425 74.6374091,8.46198425 C72.2843182,8.46198425 71.7025909,11.1437008 71.2730455,12.8825197 L69.9320455,18.9655748 L66.5427273,18.9655748 L67.9086818,12.7327323 C68.0858182,11.963315 68.3390455,10.7710394 68.3390455,10.001622 C68.3390455,9.05832283 67.6051364,8.46198425 66.7448182,8.46198425 C64.4428636,8.46198425 63.81,11.1685984 63.3804545,12.8825197 L62.0394545,18.9655748 L58.6501364,18.9655748 L61.0281818,7.59297638" id="Fill-9"></path>
                <path d="M102.573,8.78123622 C102.208909,8.58687402 101.272909,8.31340157 100.311545,8.31340157 C99.2998636,8.31340157 98.0353636,8.58687402 98.0353636,9.60406299 C98.0353636,11.2179921 102.436364,11.8151339 102.436364,14.9434016 C102.436364,18.2708504 99.477,19.2639449 96.5679545,19.2639449 C95.202,19.2639449 93.8356364,19.0659685 92.5960909,18.4945276 L93.33,15.8373071 C94.2909545,16.3585512 95.2523182,16.8304016 96.5679545,16.8304016 C97.7064545,16.8304016 98.8952727,16.4573386 98.8952727,15.4156535 C98.8952727,13.3543701 94.4938636,13.1547874 94.4938636,9.95222835 C94.4938636,6.94764567 97.4532273,5.88025984 100.134818,5.88025984 C101.374364,5.88025984 102.638864,6.10353543 103.306909,6.273 L102.573,8.78123622" id="Fill-10"></path>
                <path d="M104.737909,6.1774252 L107.192045,6.1774252 L107.773773,3.54550394 L111.416727,2.37812598 L110.581773,6.1774252 L113.617227,6.1774252 L113.086227,8.6109685 L110.050364,8.6109685 L108.810818,14.1980787 C108.735136,14.4960472 108.659455,14.9434016 108.659455,15.4393465 C108.659455,16.2095669 109.190864,16.6810157 109.949727,16.6810157 C110.556409,16.6810157 111.1635,16.5569291 111.593455,16.3830472 L111.012136,18.9655748 C110.43,19.0896614 109.772591,19.2639449 109.190864,19.2639449 C106.8885,19.2639449 105.269727,18.3700394 105.269727,15.9111969 C105.269727,14.9185039 105.472227,13.9499055 105.699273,12.932315 L106.661455,8.6109685 L104.207318,8.6109685 L104.737909,6.1774252" id="Fill-11"></path>
                <path d="M127.720227,7.89094488 C127.821273,7.34480315 127.922727,6.77376378 128.023773,6.1774252 L131.262136,6.1774252 L130.806409,8.58687402 L130.857545,8.58687402 C131.464636,7.1958189 133.133727,5.88025984 134.702182,5.88025984 C135.132545,5.88025984 135.588273,5.90395276 135.992455,6.00394488 L135.284318,9.25710236 C134.904682,9.13261417 134.424,9.05832283 133.994455,9.05832283 C131.591045,9.05832283 130.427182,11.1685984 129.997227,13.2298819 L128.783045,18.9655748 L125.393318,18.9655748 L127.720227,7.89094488" id="Fill-12"></path>
                <path d="M125.367955,10.7469449 C125.367955,7.49338583 123.243136,5.88025984 120.030136,5.88025984 C115.755545,5.88025984 112.618227,9.70445669 112.618227,13.6772362 C112.618227,17.4765354 115.147636,19.2639449 118.892045,19.2639449 C120.282955,19.2639449 121.725409,18.9414803 123.040636,18.5443228 L123.470591,15.9111969 C122.205682,16.4830394 120.865091,16.8304016 119.474182,16.8304016 C117.305182,16.8304016 116.038636,16.0742362 115.875409,14.0635512 L115.872955,14.0635512 C115.866818,13.9466929 115.855773,13.8330472 115.855773,13.7105669 C115.855773,13.686874 115.857,13.6627795 115.857818,13.6394882 C115.857818,13.6270394 115.856591,13.6153937 115.856591,13.6021417 L115.859045,13.6021417 C115.873773,12.7263071 116.069727,11.8625197 116.410091,11.0653937 C117.060545,9.43781102 117.981818,8.31340157 119.979409,8.31340157 C121.395682,8.31340157 122.129591,9.0828189 122.129591,10.4489764 C122.129591,10.7469449 122.104227,11.0196142 122.053909,11.3179843 L117.415636,11.3179843 C117.114955,12.3227244 117.061773,12.9961654 117.056045,13.6021417 L125.039045,13.6021417 C125.241136,12.6584409 125.367955,11.7151417 125.367955,10.7469449" id="Fill-13"></path>
                <path d="M140.624621,8.26953133 L141.266853,8.26953133 C141.683137,8.26953133 141.952613,8.18281707 141.952613,7.75122554 C141.952613,7.37467182 141.614284,7.26420023 141.266853,7.26420023 L140.624621,7.26420023 L140.624621,8.26953133 L140.624621,8.26953133 Z M140.083294,6.8397359 L141.353909,6.8397359 C142.116831,6.8397359 142.492357,7.14739335 142.492357,7.77617074 C142.492357,8.30873093 142.155215,8.69399566 141.635256,8.69399566 L142.5806,10.1633867 L142.005638,10.1633867 L141.078101,8.69399566 L140.624621,8.69399566 L140.624621,10.1633867 L140.083294,10.1633867 L140.083294,6.8397359 L140.083294,6.8397359 Z M141.175049,10.9164941 C142.476133,10.9164941 143.458277,9.86364831 143.458277,8.50591679 C143.458277,7.14739335 142.476133,6.09415163 141.175049,6.09415163 C139.856554,6.09415163 138.872431,7.14739335 138.872431,8.50591679 C138.872431,9.86364831 139.856554,10.9164941 141.175049,10.9164941 L141.175049,10.9164941 Z M141.165948,5.66929134 C142.72622,5.66929134 144,6.94070456 144,8.50591679 C144,10.0675654 142.72622,11.3385827 141.165948,11.3385827 C139.604885,11.3385827 138.330709,10.0675654 138.330709,8.50591679 C138.330709,6.94070456 139.604885,5.66929134 141.165948,5.66929134 L141.165948,5.66929134 Z" id="Fill-15"></path>
            </g>
        </g>
    </g>
</svg>