<?xml version="1.0" encoding="UTF-8" standalone="no"?>
<svg width="24px" height="24px" viewBox="0 0 24 24" version="1.1" xmlns="http://www.w3.org/2000/svg" xmlns:xlink="http://www.w3.org/1999/xlink">
    <!-- Generator: sketchtool 40.3 (33839) - http://www.bohemiancoding.com/sketch -->
    <title>1610AC21-7264-4F94-B9F5-F44B1134B4E6</title>
    <desc>Created with sketchtool.</desc>
    <defs></defs>
    <g id="Stylesheet-+-Mobile" stroke="none" stroke-width="1" fill="none" fill-rule="evenodd">
        <g id="Assets" transform="translate(-43.000000, -375.000000)" fill="#D0011B">
            <g id="ic_allert_red" transform="translate(43.000000, 375.000000)">
                <path d="M13,16.7421875 L13,15.2578125 C13,15.1848955 12.9752607,15.1236982 12.9257812,15.0742188 C12.8763018,15.0247393 12.8177087,15 12.75,15 L11.25,15 C11.1822913,15 11.1236982,15.0247393 11.0742188,15.0742188 C11.0247393,15.1236982 11,15.1848955 11,15.2578125 L11,16.7421875 C11,16.8151045 11.0247393,16.8763018 11.0742188,16.9257812 C11.1236982,16.9752607 11.1822913,17 11.25,17 L12.75,17 C12.8177087,17 12.8763018,16.9752607 12.9257812,16.9257812 C12.9752607,16.8763018 13,16.8151045 13,16.7421875 L13,16.7421875 Z M13.1237283,13.7753906 L13.2842609,9.29296875 C13.2842609,9.21484336 13.254533,9.15299502 13.1950761,9.10742188 C13.1177823,9.03580693 13.0464352,9 12.9810326,9 L11.0189674,9 C10.9535648,9 10.8822177,9.03580693 10.8049239,9.10742188 C10.745467,9.15299502 10.7157391,9.22135371 10.7157391,9.3125 L10.8673532,13.7753906 C10.8673532,13.8404951 10.8970812,13.8942055 10.956538,13.9365234 C11.0159948,13.9788414 11.0873419,14 11.1705815,14 L12.8205,14 C12.9037396,14 12.9736003,13.9788414 13.0300843,13.9365234 C13.0865683,13.8942055 13.1177826,13.8404951 13.1237283,13.7753906 L13.1237283,13.7753906 Z M12.9988696,5.56370192 L19.8482612,17.4098558 C20.0563601,17.7632229 20.0504145,18.1165848 19.8304242,18.4699519 C19.7293476,18.632613 19.5911126,18.7616181 19.415715,18.8569712 C19.2403174,18.9523242 19.0515448,19 18.8493916,19 L5.15060841,19 C4.94845522,19 4.75968264,18.9523242 4.58428502,18.8569712 C4.4088874,18.7616181 4.27065236,18.632613 4.16957576,18.4699519 C3.94958552,18.1165848 3.94363993,17.7632229 4.15173881,17.4098558 L11.0011304,5.56370192 C11.102207,5.38982285 11.2419284,5.25240435 11.4202989,5.15144231 C11.5986694,5.05048026 11.7919011,5 12,5 C12.2080989,5 12.4013306,5.05048026 12.5797011,5.15144231 C12.7580716,5.25240435 12.897793,5.38982285 12.9988696,5.56370192 L12.9988696,5.56370192 Z" id="allert"></path>
            </g>
        </g>
    </g>
</svg>