<?xml version="1.0" encoding="UTF-8"?>
<svg width="28px" height="28px" viewBox="0 0 28 28" version="1.1" xmlns="http://www.w3.org/2000/svg" xmlns:xlink="http://www.w3.org/1999/xlink">
    <!-- Generator: sketchtool 40.3 (33839) - http://www.bohemiancoding.com/sketch -->
    <title>C976E38C-D51B-4A7B-9EAC-E05486534A44</title>
    <desc>Created with sketchtool.</desc>
    <defs></defs>
    <g id="Stylesheet-+-Mobile" stroke="none" stroke-width="1" fill="none" fill-rule="evenodd">
        <g id="Assets" transform="translate(-342.000000, -630.000000)" fill="#FFFFFF">
            <g id="ic_like_white" transform="translate(342.000000, 630.000000)">
                <path d="M8,20.1538462 C8,19.9455118 7.92578199,19.7652251 7.77734375,19.6129808 C7.62890551,19.4607364 7.45312602,19.3846154 7.25,19.3846154 C7.04687398,19.3846154 6.87109449,19.4607364 6.72265625,19.6129808 C6.57421801,19.7652251 6.5,19.9455118 6.5,20.1538462 C6.5,20.3621805 6.57421801,20.5424672 6.72265625,20.6947115 C6.87109449,20.8469559 7.04687398,20.9230769 7.25,20.9230769 C7.45312602,20.9230769 7.62890551,20.8469559 7.77734375,20.6947115 C7.92578199,20.5424672 8,20.3621805 8,20.1538462 L8,20.1538462 Z M21.5,13.2307692 C21.5,12.8221133 21.3476578,12.4635432 21.0429688,12.1550481 C20.7382797,11.8465529 20.390627,11.6923077 20,11.6923077 L15.875,11.6923077 C15.875,11.2275618 16.0624981,10.5885457 16.4375,9.77524038 C16.8125019,8.96193504 17,8.31891262 17,7.84615385 C17,7.06089351 16.8750013,6.47996983 16.625,6.10336538 C16.3749988,5.72676094 15.8750038,5.53846154 15.125,5.53846154 C14.921874,5.74679591 14.773438,6.08733738 14.6796875,6.56009615 C14.585937,7.03285493 14.4667976,7.53565439 14.3222656,8.06850962 C14.1777337,8.60136484 13.9453141,9.04006238 13.625,9.38461538 C13.4531241,9.56891118 13.1523459,9.93349087 12.7226563,10.4783654 C12.6914061,10.5184297 12.6015632,10.6386208 12.453125,10.8389423 C12.3046868,11.0392638 12.1816411,11.203525 12.0839844,11.3317308 C11.9863276,11.4599365 11.8515634,11.6302073 11.6796875,11.8425481 C11.5078116,12.0548889 11.3515632,12.2311692 11.2109375,12.3713942 C11.0703118,12.5116193 10.9199227,12.6538454 10.7597656,12.7980769 C10.5996086,12.9423084 10.4433601,13.0504804 10.2910156,13.1225962 C10.1386711,13.1947119 10.0000006,13.2307692 9.875,13.2307692 L9.5,13.2307692 L9.5,20.9230769 L9.875,20.9230769 C9.97656301,20.9230769 10.0996087,20.935096 10.2441406,20.9591346 C10.3886726,20.9831732 10.5175776,21.0092146 10.6308594,21.0372596 C10.7441412,21.0653046 10.8925772,21.1093747 11.0761719,21.1694712 C11.2597665,21.2295676 11.3964839,21.2756409 11.4863281,21.3076923 C11.5761723,21.3397437 11.7148428,21.3898234 11.9023438,21.4579327 C12.0898447,21.526042 12.2031248,21.5681089 12.2421875,21.5841346 C13.8906332,22.1690734 15.2265574,22.4615385 16.25,22.4615385 L17.6679688,22.4615385 C19.1679763,22.4615385 19.9179688,21.7924746 19.9179688,20.4543269 C19.9179688,20.2459925 19.8984377,20.0216358 19.859375,19.78125 C20.0937512,19.6530442 20.2792962,19.4427098 20.4160156,19.1502404 C20.5527351,18.857771 20.6210938,18.5633028 20.6210938,18.2668269 C20.6210938,17.9703511 20.550782,17.6939115 20.4101563,17.4375 C20.8242208,17.036857 21.03125,16.5600989 21.03125,16.0072115 C21.03125,15.80689 20.9921879,15.5845365 20.9140625,15.3401442 C20.8359371,15.095752 20.7382818,14.9054494 20.6210938,14.7692308 C20.871095,14.7612179 21.0800773,14.5729185 21.2480469,14.2043269 C21.4160165,13.8357353 21.5,13.5112194 21.5,13.2307692 L21.5,13.2307692 Z M23,13.21875 C23,13.9318946 22.8085957,14.5849329 22.4257812,15.1778846 C22.4960941,15.442309 22.53125,15.7187486 22.53125,16.0072115 C22.53125,16.6242018 22.382814,17.2011191 22.0859375,17.7379808 C22.1093751,17.9062508 22.1210937,18.0785248 22.1210937,18.2548077 C22.1210937,19.0641066 21.8867211,19.7772405 21.4179687,20.3942308 C21.4257813,21.5080184 21.0937534,22.3874166 20.421875,23.0324519 C19.7499966,23.6774872 18.8632868,24 17.7617187,24 L17.3398437,24 L16.25,24 C15.4999962,24 14.7597693,23.9098567 14.0292969,23.7295673 C13.2988245,23.5492779 12.4531298,23.2868607 11.4921875,22.9423077 C10.585933,22.6217933 10.0468759,22.4615385 9.875,22.4615385 L6.5,22.4615385 C6.08593543,22.4615385 5.73242334,22.3112996 5.43945312,22.0108173 C5.14648291,21.710335 5,21.3477585 5,20.9230769 L5,13.2307692 C5,12.8060876 5.14648291,12.4435111 5.43945312,12.1430288 C5.73242334,11.8425466 6.08593543,11.6923077 6.5,11.6923077 L9.7109375,11.6923077 C9.99218891,11.499999 10.5273398,10.8790117 11.3164062,9.82932692 C11.7695335,9.22836238 12.1874981,8.715547 12.5703125,8.29086538 C12.7578134,8.09054387 12.8964839,7.74799922 12.9863281,7.26322115 C13.0761723,6.77844309 13.1953118,6.27163726 13.34375,5.74278846 C13.4921882,5.21393966 13.7343733,4.78125168 14.0703125,4.44471154 C14.3750015,4.1482357 14.7265605,4 15.125,4 C15.7812533,4 16.3710911,4.13020703 16.8945312,4.390625 C17.4179714,4.65104297 17.8164049,5.05768954 18.0898437,5.61057692 C18.3632826,6.1634643 18.5,6.90864916 18.5,7.84615385 C18.5,8.59134988 18.3125019,9.36057296 17.9375,10.1538462 L20,10.1538462 C20.8125041,10.1538462 21.515622,10.4583303 22.109375,11.0673077 C22.703128,11.6762851 23,12.3934254 23,13.21875 L23,13.21875 Z" transform="translate(14.000000, 14.000000) scale(-1, 1) translate(-14.000000, -14.000000) "></path>
            </g>
        </g>
    </g>
</svg>