<?xml version="1.0" encoding="UTF-8" standalone="no"?>
<svg width="28px" height="28px" viewBox="0 0 28 28" version="1.1" xmlns="http://www.w3.org/2000/svg" xmlns:xlink="http://www.w3.org/1999/xlink" xmlns:sketch="http://www.bohemiancoding.com/sketch/ns">
    <!-- Generator: sketchtool 3.5.1 (25234) - http://www.bohemiancoding.com/sketch -->
    <title>ic_map</title>
    <desc>Created with sketchtool.</desc>
    <defs></defs>
    <g id="12.x-API-Eplorer" stroke="none" stroke-width="1" fill="none" fill-rule="evenodd" sketch:type="MSPage">
        <g id="12.1.1-API-Explorer-Desktop" sketch:type="MSArtboardGroup" transform="translate(-667.000000, -1715.000000)" fill="#FFFFFF">
            <g id="Group-2-Copy" sketch:type="MSLayerGroup" transform="translate(442.000000, 1697.000000)">
                <g id="ic_map" transform="translate(225.000000, 18.000000)" sketch:type="MSShapeGroup">
                    <path d="M17,11 C17,10.1718709 16.7070342,9.46484668 16.1210938,8.87890625 C15.5351533,8.29296582 14.8281291,8 14,8 C13.1718709,8 12.4648467,8.29296582 11.8789062,8.87890625 C11.2929658,9.46484668 11,10.1718709 11,11 C11,11.8281291 11.2929658,12.5351533 11.8789062,13.1210937 C12.4648467,13.7070342 13.1718709,14 14,14 C14.8281291,14 15.5351533,13.7070342 16.1210938,13.1210937 C16.7070342,12.5351533 17,11.8281291 17,11 L17,11 Z M20,11 C20,11.8515668 19.871095,12.5507785 19.6132813,13.0976562 L15.3476563,22.1679688 C15.2226556,22.4257825 15.0371106,22.6289055 14.7910156,22.7773438 C14.5449206,22.925782 14.2812514,23 14,23 C13.7187486,23 13.4550794,22.925782 13.2089844,22.7773438 C12.9628894,22.6289055 12.7812506,22.4257825 12.6640625,22.1679688 L8.38671875,13.0976562 C8.12890496,12.5507785 8,11.8515668 8,11 C8,9.34374172 8.58593164,7.92969336 9.7578125,6.7578125 C10.9296934,5.58593164 12.3437417,5 14,5 C15.6562583,5 17.0703066,5.58593164 18.2421875,6.7578125 C19.4140684,7.92969336 20,9.34374172 20,11 L20,11 Z"></path>
                </g>
            </g>
        </g>
    </g>
</svg>