<?xml version="1.0" encoding="UTF-8" standalone="no"?>
<svg width="28px" height="28px" viewBox="0 0 28 28" version="1.1" xmlns="http://www.w3.org/2000/svg" xmlns:xlink="http://www.w3.org/1999/xlink" xmlns:sketch="http://www.bohemiancoding.com/sketch/ns">
    <!-- Generator: sketchtool 3.5.1 (25234) - http://www.bohemiancoding.com/sketch -->
    <title>ic_more</title>
    <desc>Created with sketchtool.</desc>
    <defs></defs>
    <g id="-Stylesheet-+-Mobile" stroke="none" stroke-width="1" fill="none" fill-rule="evenodd" sketch:type="MSPage">
        <g id="Assets" sketch:type="MSArtboardGroup" transform="translate(-348.000000, -972.000000)" fill="#FFFFFF">
            <g id="ic_more-copy" sketch:type="MSLayerGroup" transform="translate(348.000000, 972.000000)">
                <path d="M16,19 L16,21 C16,21.2777792 15.9027787,21.5138879 15.7083333,21.7083333 C15.5138879,21.9027787 15.2777792,22 15,22 L13,22 C12.7222208,22 12.4861121,21.9027787 12.2916667,21.7083333 C12.0972213,21.5138879 12,21.2777792 12,21 L12,19 C12,18.7222208 12.0972213,18.4861121 12.2916667,18.2916667 C12.4861121,18.0972213 12.7222208,18 13,18 L15,18 C15.2777792,18 15.5138879,18.0972213 15.7083333,18.2916667 C15.9027787,18.4861121 16,18.7222208 16,19 L16,19 Z M16,13 L16,15 C16,15.2777792 15.9027787,15.5138879 15.7083333,15.7083333 C15.5138879,15.9027787 15.2777792,16 15,16 L13,16 C12.7222208,16 12.4861121,15.9027787 12.2916667,15.7083333 C12.0972213,15.5138879 12,15.2777792 12,15 L12,13 C12,12.7222208 12.0972213,12.4861121 12.2916667,12.2916667 C12.4861121,12.0972213 12.7222208,12 13,12 L15,12 C15.2777792,12 15.5138879,12.0972213 15.7083333,12.2916667 C15.9027787,12.4861121 16,12.7222208 16,13 L16,13 Z M16,7 L16,9 C16,9.27777917 15.9027787,9.51388792 15.7083333,9.70833333 C15.5138879,9.90277875 15.2777792,10 15,10 L13,10 C12.7222208,10 12.4861121,9.90277875 12.2916667,9.70833333 C12.0972213,9.51388792 12,9.27777917 12,9 L12,7 C12,6.72222083 12.0972213,6.48611208 12.2916667,6.29166667 C12.4861121,6.09722125 12.7222208,6 13,6 L15,6 C15.2777792,6 15.5138879,6.09722125 15.7083333,6.29166667 C15.9027787,6.48611208 16,6.72222083 16,7 L16,7 Z" id="ic_more" sketch:type="MSShapeGroup"></path>
            </g>
        </g>
    </g>
</svg>