<?xml version="1.0" encoding="UTF-8" standalone="no"?>
<svg width="28px" height="28px" viewBox="0 0 28 28" version="1.1" xmlns="http://www.w3.org/2000/svg" xmlns:xlink="http://www.w3.org/1999/xlink">
    <!-- Generator: sketchtool 40.3 (33839) - http://www.bohemiancoding.com/sketch -->
    <title>CE6171C4-F935-4A07-B5C4-5B700D9B3FE1</title>
    <desc>Created with sketchtool.</desc>
    <defs></defs>
    <g id="Stylesheet-+-Mobile" stroke="none" stroke-width="1" fill="none" fill-rule="evenodd">
        <g id="Assets" transform="translate(-190.000000, -487.000000)">
            <g id="ic_parameters-copy" transform="translate(190.000000, 487.000000)">
                <g id="ic_parameters-3" transform="translate(5.000000, 5.000000)">
                    <path d="M11,0 L7,0 L7,2.294 C6.165,2.542 5.399,2.945 4.727,3.464 L2.459,2 L0,5.964 L2.196,7.382 C2.072,7.902 2,8.442 2,9 C2,9.558 2.072,10.098 2.196,10.618 L0,12.036 L2.459,16 L4.727,14.536 C5.399,15.055 6.165,15.458 7,15.706 L7,18 L11,18 L11,15.706 C11.835,15.458 12.601,15.055 13.273,14.536 L15.541,16 L18,12.036 L15.804,10.618 C15.928,10.098 16,9.558 16,9 C16,8.442 15.928,7.902 15.804,7.382 L18,5.964 L15.541,2 L13.273,3.464 C12.601,2.945 11.835,2.542 11,2.294 L11,0 Z M10,1 L10,2.294 L10,3.039 L10.715,3.252 C11.415,3.461 12.07,3.798 12.662,4.255 L13.221,4.688 L13.816,4.304 L15.228,3.392 L16.633,5.656 L15.262,6.542 L14.668,6.925 L14.831,7.612 C14.943,8.084 15,8.551 15,9 C15,9.449 14.943,9.916 14.831,10.388 L14.668,11.075 L15.262,11.458 L16.633,12.344 L15.228,14.608 L13.816,13.696 L13.221,13.312 L12.662,13.745 C12.071,14.202 11.415,14.539 10.715,14.748 L10,14.961 L10,15.706 L10,17 L8,17 L8,15.706 L8,14.961 L7.285,14.748 C6.585,14.539 5.929,14.202 5.338,13.745 L4.779,13.312 L4.184,13.696 L2.772,14.608 L1.367,12.344 L2.738,11.458 L3.332,11.075 L3.169,10.388 C3.057,9.916 3,9.449 3,9 C3,8.551 3.057,8.084 3.169,7.612 L3.332,6.925 L2.738,6.542 L1.367,5.656 L2.772,3.392 L4.184,4.304 L4.779,4.688 L5.338,4.255 C5.93,3.798 6.585,3.461 7.285,3.252 L8,3.039 L8,2.294 L8,1 L10,1 L10,1 Z"
                          id="Fill-1"
                          fill="#FFF"></path>
                    <polyline id="Stroke-3" stroke="#FFF" points="6 9 8 11 12 7"></polyline>
                </g>
            </g>
        </g>
    </g>
</svg>
