<?xml version="1.0" encoding="UTF-8"?>
<svg width="28px" height="28px" viewBox="0 0 28 28" version="1.1" xmlns="http://www.w3.org/2000/svg" xmlns:xlink="http://www.w3.org/1999/xlink">
    <!-- Generator: sketchtool 40.3 (33839) - http://www.bohemiancoding.com/sketch -->
    <title>092ECCA7-6106-42C1-AB30-E4C632BD7742</title>
    <desc>Created with sketchtool.</desc>
    <defs></defs>
    <g id="Stylesheet-+-Mobile" stroke="none" stroke-width="1" fill="none" fill-rule="evenodd">
        <g id="Assets" transform="translate(-380.000000, -630.000000)" fill="#FFFFFF">
            <g id="ic_share_partners_white" transform="translate(380.000000, 630.000000)">
                <path d="M20.2307692,16.9459635 L20.2307692,19.8125 C20.2307692,20.6905426 19.9260848,21.4412946 19.3167067,22.0647786 C18.7073287,22.6882627 17.973562,23 17.1153846,23 L8.11538462,23 C7.25720725,23 6.52344055,22.6882627 5.9140625,22.0647786 C5.30468445,21.4412946 5,20.6905426 5,19.8125 L5,10.6041667 C5,9.72612408 5.30468445,8.97537204 5.9140625,8.35188802 C6.52344055,7.728404 7.25720725,7.41666667 8.11538462,7.41666667 L10.8737981,7.41666667 C10.9675485,7.41666667 11.0486775,7.45171406 11.1171875,7.5218099 C11.1856975,7.59190573 11.2199519,7.67491271 11.2199519,7.77083333 C11.2199519,7.97005308 11.1262029,8.08810745 10.9387019,8.125 C10.3834107,8.31684124 9.90384817,8.53819319 9.5,8.7890625 C9.42788425,8.81857654 9.37019252,8.83333333 9.32692308,8.83333333 L8.11538462,8.83333333 C7.6394207,8.83333333 7.23197285,9.0067257 6.89302885,9.35351562 C6.55408484,9.70030555 6.38461538,10.1171851 6.38461538,10.6041667 L6.38461538,19.8125 C6.38461538,20.2994816 6.55408484,20.7163611 6.89302885,21.063151 C7.23197285,21.409941 7.6394207,21.5833333 8.11538462,21.5833333 L17.1153846,21.5833333 C17.5913485,21.5833333 17.9987964,21.409941 18.3377404,21.063151 C18.6766844,20.7163611 18.8461538,20.2994816 18.8461538,19.8125 L18.8461538,17.4440104 C18.8461538,17.3038187 18.911057,17.196832 19.0408654,17.1230469 C19.2427895,17.0271263 19.4374991,16.8906259 19.625,16.7135417 C19.7403852,16.5954855 19.8665859,16.5659719 20.0036058,16.625 C20.1550488,16.6914066 20.2307692,16.7983934 20.2307692,16.9459635 L20.2307692,16.9459635 Z M22.7944712,11.4563802 L18.640625,15.7063802 C18.5108167,15.8465719 18.3485587,15.9166667 18.1538462,15.9166667 C18.0673073,15.9166667 17.9771639,15.8982207 17.8834135,15.8613281 C17.6021621,15.7358935 17.4615385,15.5182307 17.4615385,15.2083333 L17.4615385,13.0833333 L15.7307692,13.0833333 C13.4014307,13.0833333 11.8221195,13.5666184 10.9927885,14.5332031 C10.1346111,15.5440589 9.86778684,17.2890501 10.1923077,19.7682292 C10.2139424,19.9379349 10.1418278,20.0633676 9.97596154,20.1445313 C9.91826894,20.1592883 9.87500014,20.1666667 9.84615385,20.1666667 C9.73076865,20.1666667 9.63701959,20.1187071 9.56490385,20.0227865 C9.4927881,19.9194873 9.4170677,19.8051222 9.33774038,19.6796875 C9.25841306,19.5542528 9.1159866,19.3015427 8.91045673,18.9215495 C8.70492686,18.5415563 8.52644306,18.1744809 8.375,17.8203125 C8.22355694,17.4661441 8.08473621,17.0455754 7.95853365,16.5585938 C7.8323311,16.0716121 7.76923077,15.6215298 7.76923077,15.2083333 C7.76923077,14.8467864 7.78185084,14.5110693 7.80709135,14.2011719 C7.83233186,13.8912745 7.88281212,13.5592466 7.95853365,13.2050781 C8.03425519,12.8509097 8.13521572,12.5262602 8.26141827,12.2311198 C8.38762082,11.9359794 8.55709028,11.6353097 8.76983173,11.3291016 C8.98257318,11.0228934 9.2295659,10.7498927 9.51081731,10.5100911 C9.79206871,10.2702896 10.1328105,10.0434038 10.5330529,9.82942708 C10.9332953,9.61545032 11.3822091,9.43652416 11.8798077,9.29264323 C12.3774063,9.1487623 12.9525208,9.03624173 13.6051683,8.95507813 C14.2578158,8.87391452 14.9663423,8.83333333 15.7307692,8.83333333 L17.4615385,8.83333333 L17.4615385,6.70833333 C17.4615385,6.39843595 17.6021621,6.1807732 17.8834135,6.05533854 C17.9771639,6.018446 18.0673073,6 18.1538462,6 C18.3413471,6 18.5036051,6.07009479 18.640625,6.21028646 L22.7944712,10.4602865 C22.9314911,10.6004781 23,10.7664921 23,10.9583333 C23,11.1501746 22.9314911,11.3161885 22.7944712,11.4563802 L22.7944712,11.4563802 Z"></path>
            </g>
        </g>
    </g>
</svg>