<?xml version="1.0" encoding="UTF-8" standalone="no"?>
<svg width="24px" height="20px" viewBox="0 0 24 20" version="1.1" xmlns="http://www.w3.org/2000/svg" xmlns:xlink="http://www.w3.org/1999/xlink" xmlns:sketch="http://www.bohemiancoding.com/sketch/ns">
    <!-- Generator: sketchtool 3.4 (381) - http://www.bohemiancoding.com/sketch -->
    <title>ic_twitter</title>
    <desc>Created with sketchtool.</desc>
    <defs>
        <path id="path-1" d="M0,0 L24,0 L24,24 L0,24"></path>
    </defs>
    <g id="0.x-Landing" stroke="none" stroke-width="1" fill="none" fill-rule="evenodd" sketch:type="MSPage">
        <g id="0.1.1-Interim-Landing" sketch:type="MSArtboardGroup" transform="translate(-1027.000000, -1108.000000)">
            <g id="Feature-blocks" sketch:type="MSLayerGroup" transform="translate(150.000000, 817.000000)">
                <g id="Social" transform="translate(877.000000, 0.500000)">
                    <g id="Logos" transform="translate(0.000000, 288.500000)">
                        <g id="ic_twitter">
                            <mask id="mask-2" sketch:name="Bounds" fill="white">
                                <use xlink:href="#path-1"></use>
                            </mask>
                            <g id="Bounds"></g>
                            <path d="M24,4.31185382 C23.1169538,4.70397503 22.1679798,4.96899306 21.1719522,5.08818525 C22.1886097,4.47798453 22.9692966,3.51178943 23.3369472,2.36056516 C22.385603,2.92549747 21.3318117,3.33581394 20.2102491,3.55696995 C19.3120158,2.59877374 18.0323494,2 16.6161747,2 C13.8968068,2 11.6921321,4.20742881 11.6921321,6.93012651 C11.6921321,7.31653423 11.7357621,7.69283346 11.8196862,8.05366233 C7.72742236,7.84806459 4.09928673,5.88526105 1.67075606,2.90246771 C1.24692198,3.63063002 1.00410403,4.47754503 1.00410403,5.38106754 C1.00410403,7.09151062 1.8734555,8.60057516 3.19464501,9.4846718 C2.3874465,9.45909295 1.62826731,9.23732164 0.964336662,8.86805439 C0.963985515,8.88862295 0.963985515,8.90927942 0.963985515,8.93002378 C0.963985515,11.31879 2.66125315,13.3114795 4.91377154,13.7643395 C4.50055964,13.8770271 4.06557665,13.9372385 3.61646,13.9372385 C3.29919895,13.9372385 2.99071656,13.9063856 2.69013497,13.8488112 C3.3166685,15.8075714 5.13508175,17.2329552 7.28971799,17.2727739 C5.60456491,18.5950512 3.48144409,19.3832491 1.17458576,19.3832491 C0.777175464,19.3832491 0.385207945,19.3599557 0,19.3144236 C2.17904093,20.7132617 4.76725557,21.5294118 7.54789861,21.5294118 C16.6046746,21.5294118 21.5572479,14.0168757 21.5572479,7.5018271 C21.5572479,7.28805468 21.5525074,7.07542495 21.5430264,6.86402582 C22.5049929,6.16891385 23.3398442,5.30055128 24,4.31185382" id="Bird" fill="#55ACEE" sketch:type="MSShapeGroup" mask="url(#mask-2)"></path>
                        </g>
                    </g>
                </g>
            </g>
        </g>
    </g>
</svg>