<?xml version="1.0" encoding="UTF-8" standalone="no"?>
<svg width="28px" height="28px" viewBox="0 0 28 28" version="1.1" xmlns="http://www.w3.org/2000/svg" xmlns:xlink="http://www.w3.org/1999/xlink" xmlns:sketch="http://www.bohemiancoding.com/sketch/ns">
    <!-- Generator: Sketch 3.5.2 (25235) - http://www.bohemiancoding.com/sketch -->
    <title>ic_console</title>
    <desc>Created with Sketch.</desc>
    <defs></defs>
    <g id="-Stylesheet-+-Mobile" stroke="none" stroke-width="1" fill="none" fill-rule="evenodd" sketch:type="MSPage">
        <g id="Assets" sketch:type="MSArtboardGroup" transform="translate(-221.000000, -594.000000)" fill="#FFFFFF">
            <g id="ic_console_v2_hover" sketch:type="MSLayerGroup" transform="translate(221.000000, 594.000000)">
                <g id="ic_console" sketch:type="MSShapeGroup">
                    <path d="M8.16833667,19.8897796 C8.09485601,19.9632602 8.01035452,20 7.91482966,20 C7.8193048,20 7.73480331,19.9632602 7.66132265,19.8897796 L7.11022044,19.3386774 C7.03673978,19.2651967 7,19.1806952 7,19.0851703 C7,18.9896455 7.03673978,18.905144 7.11022044,18.8316633 L11.4418838,14.5 L7.11022044,10.1683367 C7.03673978,10.094856 7,10.0103545 7,9.91482966 C7,9.8193048 7.03673978,9.73480331 7.11022044,9.66132265 L7.66132265,9.11022044 C7.73480331,9.03673978 7.8193048,9 7.91482966,9 C8.01035452,9 8.09485601,9.03673978 8.16833667,9.11022044 L13.3046092,14.246493 C13.3780899,14.3199736 13.4148297,14.4044751 13.4148297,14.5 C13.4148297,14.5955249 13.3780899,14.6800264 13.3046092,14.753507 L8.16833667,19.8897796 Z M14.033187,18.8721037 C14.033187,18.5989873 14.261541,18.3775827 14.526778,18.3775827 L20.4028876,18.3775827 C20.6754904,18.3775827 20.8964786,18.5949015 20.8964786,18.8721037 L20.8964786,19.4459922 C20.8964786,19.7191086 20.6681246,19.9405132 20.4028876,19.9405132 L14.526778,19.9405132 C14.2541753,19.9405132 14.033187,19.7231944 14.033187,19.4459922 L14.033187,18.8721037 Z" id="Path"></path>
                </g>
            </g>
        </g>
    </g>
</svg>