<?xml version="1.0" encoding="UTF-8" standalone="no"?>
<svg width="28px" height="28px" viewBox="0 0 28 28" version="1.1" xmlns="http://www.w3.org/2000/svg" xmlns:xlink="http://www.w3.org/1999/xlink" xmlns:sketch="http://www.bohemiancoding.com/sketch/ns">
    <!-- Generator: Sketch 3.5.1 (25234) - http://www.bohemiancoding.com/sketch -->
    <title>ic_doc</title>
    <desc>Created with Sketch.</desc>
    <defs></defs>
    <g id="12.x-API-Eplorer" stroke="none" stroke-width="1" fill="none" fill-rule="evenodd" sketch:type="MSPage">
        <g id="12.1.1-API-Explorer_Scroll-Desktop" sketch:type="MSArtboardGroup" transform="translate(-404.000000, -522.000000)" fill="#009CDE">
            <g id="ic_doc-copy" sketch:type="MSLayerGroup" transform="translate(404.000000, 522.000000)">
                <path d="M19.46875,9.96875 C19.6145841,10.1145841 19.7395828,10.3124987 19.84375,10.5625 C19.9479172,10.8125013 20,11.0416656 20,11.25 L20,20.25 C20,20.4583344 19.9270841,20.6354159 19.78125,20.78125 C19.6354159,20.9270841 19.4583344,21 19.25,21 L8.75,21 C8.54166563,21 8.36458406,20.9270841 8.21875,20.78125 C8.07291594,20.6354159 8,20.4583344 8,20.25 L8,7.75 C8,7.54166563 8.07291594,7.36458406 8.21875,7.21875 C8.36458406,7.07291594 8.54166563,7 8.75,7 L15.75,7 C15.9583344,7 16.1874987,7.05208281 16.4375,7.15625 C16.6875013,7.26041719 16.8854159,7.38541594 17.03125,7.53125 L19.46875,9.96875 Z M16,8.0625 L16,11 L18.9375,11 C18.8854164,10.8489576 18.8281253,10.7421878 18.765625,10.6796875 L16.3203125,8.234375 C16.2578122,8.17187469 16.1510424,8.11458359 16,8.0625 L16,8.0625 Z M19,20 L19,12 L15.75,12 C15.5416656,12 15.3645841,11.9270841 15.21875,11.78125 C15.0729159,11.6354159 15,11.4583344 15,11.25 L15,8 L9,8 L9,20 L19,20 Z M11,13.25 C11,13.177083 11.0234373,13.1171877 11.0703125,13.0703125 C11.1171877,13.0234373 11.177083,13 11.25,13 L16.75,13 C16.822917,13 16.8828123,13.0234373 16.9296875,13.0703125 C16.9765627,13.1171877 17,13.177083 17,13.25 L17,13.75 C17,13.822917 16.9765627,13.8828123 16.9296875,13.9296875 C16.8828123,13.9765627 16.822917,14 16.75,14 L11.25,14 C11.177083,14 11.1171877,13.9765627 11.0703125,13.9296875 C11.0234373,13.8828123 11,13.822917 11,13.75 L11,13.25 Z M16.75,15 C16.822917,15 16.8828123,15.0234373 16.9296875,15.0703125 C16.9765627,15.1171877 17,15.177083 17,15.25 L17,15.75 C17,15.822917 16.9765627,15.8828123 16.9296875,15.9296875 C16.8828123,15.9765627 16.822917,16 16.75,16 L11.25,16 C11.177083,16 11.1171877,15.9765627 11.0703125,15.9296875 C11.0234373,15.8828123 11,15.822917 11,15.75 L11,15.25 C11,15.177083 11.0234373,15.1171877 11.0703125,15.0703125 C11.1171877,15.0234373 11.177083,15 11.25,15 L16.75,15 Z M16.75,17 C16.822917,17 16.8828123,17.0234373 16.9296875,17.0703125 C16.9765627,17.1171877 17,17.177083 17,17.25 L17,17.75 C17,17.822917 16.9765627,17.8828123 16.9296875,17.9296875 C16.8828123,17.9765627 16.822917,18 16.75,18 L11.25,18 C11.177083,18 11.1171877,17.9765627 11.0703125,17.9296875 C11.0234373,17.8828123 11,17.822917 11,17.75 L11,17.25 C11,17.177083 11.0234373,17.1171877 11.0703125,17.0703125 C11.1171877,17.0234373 11.177083,17 11.25,17 L16.75,17 Z" id="ic_doc" sketch:type="MSShapeGroup"></path>
            </g>
        </g>
    </g>
</svg>