<svg xmlns="http://www.w3.org/2000/svg" xmlns:xlink="http://www.w3.org/1999/xlink" width="140" height="180" viewBox="0 0 140 180">
    <defs>
        <path id="a" d="M39 27V6a6 6 0 0 0 6-6h51a6 6 0 0 0 6 6v21a6 6 0 0 0-6 6H45a6 6 0 0 0-6-6z"/>
        <path id="b" d="M1.272 10.042h68v19h-68z"/>
    </defs>
    <g fill="none" fill-rule="evenodd">
        <path stroke="#B7C9D3" stroke-width="2" d="M1 36.005c0-.775.576-1.854 1.221-2.284l26.667-17.778c.756-.504 2.204-.943 3.107-.943H107.996c.911 0 2.357.437 3.116.943l26.667 17.778c.645.43 1.221 1.506 1.221 2.284v121.99c0 .775-.576 1.854-1.221 2.284l-26.667 17.778c-.755.503-2.207.943-3.11.943H31.998c-.907 0-2.35-.437-3.109-.943L2.221 160.279c-.645-.43-1.221-1.506-1.221-2.284V36.005z"/>
        <path stroke="#B7C9D3" stroke-linecap="round" stroke-width="2" d="M30 24v147M111 24v147"/>
        <path stroke="#B7C9D3" stroke-width="2" d="M1 60.535L30.303 41h79.394L139 60.535V125H1V60.535z"/>
        <path stroke="#B7C9D3" stroke-linecap="round" stroke-width="2" d="M84 124c0-7.18-5.82-13-13-13s-13 5.82-13 13"/>
        <g transform="translate(0 2)">
            <use fill="#FFF" xlink:href="#a"/>
            <path stroke="#B7C9D3" stroke-width="2" d="M40 26.07V6.93A7.005 7.005 0 0 0 45.93 1h49.14A7.005 7.005 0 0 0 101 6.93v19.14A7.005 7.005 0 0 0 95.07 32H45.93A7.005 7.005 0 0 0 40 26.07z"/>
            <path stroke="#FFF" stroke-width="2" d="M38 27v1h1a5 5 0 0 1 5 5v1h53v-1a5 5 0 0 1 5-5h1V5h-1a5 5 0 0 1-5-5v-1H44v1a5 5 0 0 1-5 5h-1v22z"/>
        </g>
        <path fill="#B7C9D3" d="M47.802 22h3.396v-1.228h-1.005v-5.58h1.495v1.264H53V14h-7v2.456h1.312V15.19h1.495v5.581h-1.005V22zM54 22h3v-1.228h-.88v-5.544H57V14h-3v1.228h.88v5.544H54V22zm7.98 0c1.201 0 2.288-.504 3.02-1.337l-.858-.915c-.56.622-1.28 1.02-2.162 1.02-1.59 0-2.642-1.231-2.642-2.78 0-1.607 1.121-2.756 2.585-2.756.686 0 1.121.176 1.338.352a.98.98 0 0 0-.08.398c0 .505.355.833.87.833.469 0 .823-.387.823-.95 0-.927-1.166-1.865-2.916-1.865C59.76 14 58 15.677 58 18c0 2.405 1.658 4 3.98 4zM66 22h3.029v-1.228h-.92v-1.289l1.066-1.13L71.228 22H73v-1.228h-.976l-1.885-3.343 2.065-2.201H73V14h-3.253v1.204h.841l-2.479 2.71v-2.71h.92V14H66v1.228h.841v5.544H66V22zm8 0h6v-2.286h-1.317v1.07h-2.39v-2.261h2.427v-1.167h-2.427v-2.14h2.378v1.07h1.317V14H74v1.228h.915v5.544H74V22zm8.802 0h3.396v-1.228h-1.005v-5.58h1.495v1.264H88V14h-7v2.456h1.312V15.19h1.495v5.581h-1.005V22zm8.217 0C92.754 22 94 21.167 94 19.7c0-1.43-1.143-1.911-2.66-2.404-.847-.281-1.554-.563-1.554-1.196 0-.563.488-.95 1.323-.95.527 0 .887.105 1.118.234a.644.644 0 0 0-.09.364c0 .387.334.786.925.786.488 0 .86-.317.86-.868 0-.927-1.22-1.666-2.8-1.666-1.709 0-2.8.962-2.8 2.194 0 1.43 1.104 1.888 2.672 2.404.848.27 1.554.575 1.554 1.208 0 .67-.59 1.044-1.516 1.044-.552 0-1.028-.129-1.336-.328a.919.919 0 0 0 .116-.47c0-.375-.36-.762-.925-.762-.527 0-.887.364-.887.915C88 21.144 89.349 22 91.02 22z"/>
        <path stroke="#B7C9D3" stroke-linecap="square" d="M120.5 69.5l13 17M10.5 82.5l13 17M9.5 71.5l6 8M124.5 88.5l6 8M51.5 62.5l37 47"/>
        <g transform="rotate(18 -161.396 167.19)">
            <use fill="#B7C9D3" xlink:href="#b"/>
            <path stroke="#FFF" stroke-width="2" d="M.272 9.042h70v21h-70z"/>
        </g>
        <text fill="#FFF" font-family="InterstateWGL-Black, InterstateWGL" font-size="10" font-weight="700" transform="rotate(18 -161.282 166.624)">
            <tspan x="5.011" y="22.977">404 ERROR</tspan>
        </text>
        <path stroke="#B7C9D3" stroke-linecap="square" d="M85.5 54.5l9 12M77.5 51.5l18 23"/>
    </g>
</svg>
