<?xml version="1.0" encoding="UTF-8" standalone="no"?>
<svg width="140px" height="180px" viewBox="0 0 140 180" version="1.1" xmlns="http://www.w3.org/2000/svg" xmlns:xlink="http://www.w3.org/1999/xlink">
    <!-- Generator: sketchtool 40.3 (33839) - http://www.bohemiancoding.com/sketch -->
    <title>C72FCB81-EA72-4EFF-A5DF-BFE60DF22A06</title>
    <desc>Created with sketchtool.</desc>
    <defs>
        <path d="M0,34.0045996 C0,32.8974898 0.741577148,31.5056152 1.66642273,30.8890515 L28.3335773,13.1109485 C29.2539171,12.4973886 30.8984375,12 31.9974983,12 L108.002502,12 C109.10569,12 110.741577,12.4943848 111.666423,13.1109485 L138.333577,30.8890515 C139.253917,31.5026114 140,32.8891112 140,34.0045996 L140,155.9954 C140,157.10251 139.258423,158.494385 138.333577,159.110948 L111.666423,176.889052 C110.746083,177.502611 109.101562,178 108.002502,178 L31.9974983,178 C30.8943104,178 29.2584229,177.505615 28.3335773,176.889052 L1.66642273,159.110948 C0.74608287,158.497389 0,157.110889 0,155.9954 L0,34.0045996 Z" id="path-1"></path>
        <mask id="mask-2" maskContentUnits="userSpaceOnUse" maskUnits="objectBoundingBox" x="0" y="0" width="140" height="166" fill="white">
            <use xlink:href="#path-1"></use>
        </mask>
        <polygon id="path-3" points="0 58 30 38 110 38 140 58 140 124 110 124 30 124 0 124"></polygon>
        <mask id="mask-4" maskContentUnits="userSpaceOnUse" maskUnits="objectBoundingBox" x="0" y="0" width="140" height="86" fill="white">
            <use xlink:href="#path-3"></use>
        </mask>
        <path d="M39,27 L39,6 C42.3137085,6 45,3.3137085 45,0 L96,0 C96,3.3137085 98.6862915,6 102,6 L102,27 C98.6862915,27 96,29.6862915 96,33 L45,33 C45,29.6862915 42.3137085,27 39,27 Z" id="path-5"></path>
        <mask id="mask-6" maskContentUnits="userSpaceOnUse" maskUnits="objectBoundingBox" x="0" y="0" width="63" height="33" fill="white">
            <use xlink:href="#path-5"></use>
        </mask>
        <mask id="mask-7" maskContentUnits="userSpaceOnUse" maskUnits="objectBoundingBox" x="-2" y="-2" width="67" height="37">
            <rect x="37" y="-2" width="67" height="37" fill="white"></rect>
            <use xlink:href="#path-5" fill="black"></use>
        </mask>
        <rect id="path-8" x="1.271583" y="10.0416147" width="68" height="19"></rect>
        <mask id="mask-9" maskContentUnits="userSpaceOnUse" maskUnits="objectBoundingBox" x="-2" y="-2" width="72" height="23">
            <rect x="-0.728416999" y="8.04161471" width="72" height="23" fill="white"></rect>
            <use xlink:href="#path-8" fill="black"></use>
        </mask>
    </defs>
    <g id="8.x-Under-Development-&amp;-So-on" stroke="none" stroke-width="1" fill="none" fill-rule="evenodd">
        <g id="8.3.1-Page-Not-Found" transform="translate(-650.000000, -230.000000)">
            <g id="ticket_box_img" transform="translate(650.000000, 232.000000)">
                <use id="Rectangle" stroke="#B7C9D3" mask="url(#mask-2)" stroke-width="4" xlink:href="#path-1"></use>
                <path d="M30,22 L30,169" id="Line" stroke="#B7C9D3" stroke-width="2" stroke-linecap="round"></path>
                <path d="M111,22 L111,169" id="Line-Copy" stroke="#B7C9D3" stroke-width="2" stroke-linecap="round"></path>
                <use id="Rectangle-Copy" stroke="#B7C9D3" mask="url(#mask-4)" stroke-width="4" xlink:href="#path-3"></use>
                <path d="M84,122 C84,114.820298 78.1797017,109 71,109 C63.8202983,109 58,114.820298 58,122" id="Oval-2" stroke="#B7C9D3" stroke-width="2" stroke-linecap="round"></path>
                <g id="Combined-Shape" stroke-width="4">
                    <use stroke="#B7C9D3" mask="url(#mask-6)" fill="#FFFFFF" fill-rule="evenodd" xlink:href="#path-5"></use>
                    <use stroke="#FFFFFF" mask="url(#mask-7)" xlink:href="#path-5"></use>
                </g>
                <path d="M47.8021016,20 L51.1978984,20 L51.1978984,18.7720365 L50.1926445,18.7720365 L50.1926445,13.1914894 L51.6882662,13.1914894 L51.6882662,14.4559271 L53,14.4559271 L53,12 L46,12 L46,14.4559271 L47.3117338,14.4559271 L47.3117338,13.1914894 L48.8073555,13.1914894 L48.8073555,18.7720365 L47.8021016,18.7720365 L47.8021016,20 Z M54,20 L57,20 L57,18.7720365 L56.1208791,18.7720365 L56.1208791,13.2279635 L57,13.2279635 L57,12 L54,12 L54,13.2279635 L54.8791209,13.2279635 L54.8791209,18.7720365 L54,18.7720365 L54,20 Z M61.9803922,20 C63.1813725,20 64.2679739,19.4956012 65,18.6627566 L64.1421569,17.7478006 C63.5816993,18.3695015 62.8611111,18.7683284 61.9803922,18.7683284 C60.3905229,18.7683284 59.3382353,17.5366569 59.3382353,15.9882698 C59.3382353,14.3812317 60.4591503,13.2316716 61.9232026,13.2316716 C62.6094771,13.2316716 63.0441176,13.4076246 63.2614379,13.5835777 C63.2156863,13.6774194 63.1813725,13.829912 63.1813725,13.9824047 C63.1813725,14.4868035 63.5359477,14.8152493 64.0506536,14.8152493 C64.5196078,14.8152493 64.874183,14.4281525 64.874183,13.8651026 C64.874183,12.9384164 63.7075163,12 61.9575163,12 C59.7614379,12 58,13.6774194 58,16 C58,18.4046921 59.6584967,20 61.9803922,20 L61.9803922,20 Z M66,20 L69.0288462,20 L69.0288462,18.7720365 L68.1089744,18.7720365 L68.1089744,17.4832827 L69.1746795,16.3525836 L71.2275641,20 L73,20 L73,18.7720365 L72.0240385,18.7720365 L70.1394231,15.4285714 L72.2035256,13.2279635 L73,13.2279635 L73,12 L69.7467949,12 L69.7467949,13.2036474 L70.588141,13.2036474 L68.1089744,15.9148936 L68.1089744,13.2036474 L69.0288462,13.2036474 L69.0288462,12 L66,12 L66,13.2279635 L66.8413462,13.2279635 L66.8413462,18.7720365 L66,18.7720365 L66,20 Z M74,20 L80,20 L80,17.7142857 L78.6829268,17.7142857 L78.6829268,18.7841945 L76.2926829,18.7841945 L76.2926829,16.5227964 L78.7195122,16.5227964 L78.7195122,15.3556231 L76.2926829,15.3556231 L76.2926829,13.2158055 L78.6707317,13.2158055 L78.6707317,14.2857143 L79.9878049,14.2857143 L79.9878049,12 L74,12 L74,13.2279635 L74.9146341,13.2279635 L74.9146341,18.7720365 L74,18.7720365 L74,20 Z M82.8021016,20 L86.1978984,20 L86.1978984,18.7720365 L85.1926445,18.7720365 L85.1926445,13.1914894 L86.6882662,13.1914894 L86.6882662,14.4559271 L88,14.4559271 L88,12 L81,12 L81,14.4559271 L82.3117338,14.4559271 L82.3117338,13.1914894 L83.8073555,13.1914894 L83.8073555,18.7720365 L82.8021016,18.7720365 L82.8021016,20 Z M91.0192719,20 C92.7537473,20 94,19.1671554 94,17.7008798 C94,16.2697947 92.856531,15.7888563 91.3404711,15.2961877 C90.4925054,15.0146628 89.7858672,14.7331378 89.7858672,14.0997067 C89.7858672,13.5366569 90.2740899,13.1495601 91.1092077,13.1495601 C91.6359743,13.1495601 91.9957173,13.255132 92.2269807,13.3841642 C92.1755889,13.4780059 92.137045,13.5601173 92.137045,13.7478006 C92.137045,14.1348974 92.4710921,14.5337243 93.0620985,14.5337243 C93.5503212,14.5337243 93.9229122,14.2170088 93.9229122,13.6656891 C93.9229122,12.7390029 92.7023555,12 91.1220557,12 C89.4132762,12 88.3211991,12.9618768 88.3211991,14.1935484 C88.3211991,15.6246334 89.4261242,16.0821114 90.993576,16.5982405 C91.8415418,16.8680352 92.5481799,17.1730205 92.5481799,17.8064516 C92.5481799,18.4750733 91.9571734,18.8504399 91.0321199,18.8504399 C90.4796574,18.8504399 90.0042827,18.7214076 89.6959315,18.5219941 C89.7730193,18.3812317 89.8115632,18.2404692 89.8115632,18.0527859 C89.8115632,17.6774194 89.4518201,17.2903226 88.8865096,17.2903226 C88.359743,17.2903226 88,17.6539589 88,18.2052786 C88,19.143695 89.3490364,20 91.0192719,20 L91.0192719,20 Z" id="TICKETS" fill="#B7C9D3"></path>
                <path d="M120.5,67.5 L133.5,84.5" id="Line-Copy-5" stroke="#B7C9D3" stroke-linecap="square"></path>
                <path d="M10.5,80.5 L23.5,97.5" id="Line-Copy-6" stroke="#B7C9D3" stroke-linecap="square"></path>
                <path d="M9.5,69.5 L15.5,77.5" id="Line-Copy-8" stroke="#B7C9D3" stroke-linecap="square"></path>
                <path d="M124.5,86.5 L130.5,94.5" id="Line-Copy-9" stroke="#B7C9D3" stroke-linecap="square"></path>
                <path d="M51.5,60.5 L88.5,107.5" id="Line-Copy-4" stroke="#B7C9D3" stroke-linecap="square"></path>
                <g id="Group" transform="translate(36.000000, 66.000000)">
                    <g id="Rectangle-3" transform="translate(35.271583, 19.541615) rotate(18.000000) translate(-35.271583, -19.541615) ">
                        <use fill="#B7C9D3" fill-rule="evenodd" xlink:href="#path-8"></use>
                        <use stroke="#FFFFFF" mask="url(#mask-9)" stroke-width="4" xlink:href="#path-8"></use>
                    </g>
                    <text id="NO-EVENTS" transform="translate(35.385797, 18.976849) rotate(18.000000) translate(-35.385797, -18.976849) " font-family="InterstateWGL-Black, InterstateWGL" font-size="10" font-weight="700" fill="#FFFFFF">
                        <tspan x="5.60079746" y="22.9768489">NO EVENTS</tspan>
                    </text>
                </g>
                <path d="M85.5,52.5 L94.5,64.5" id="Line-Copy-7" stroke="#B7C9D3" stroke-linecap="square"></path>
                <path d="M77.5,49.5 L95.5,72.5" id="Line" stroke="#B7C9D3" stroke-linecap="square"></path>
            </g>
        </g>
    </g>
</svg>