<?xml version="1.0" encoding="UTF-8" standalone="no"?>
<svg width="10px" height="7px" viewBox="0 0 10 7" version="1.1" xmlns="http://www.w3.org/2000/svg" xmlns:xlink="http://www.w3.org/1999/xlink">
    <!-- Generator: sketchtool 39.1 (31720) - http://www.bohemiancoding.com/sketch -->
    <title>3382B550-1387-422B-813F-4AC6B0795171</title>
    <desc>Created with sketchtool.</desc>
    <defs></defs>
    <g id="12.2.x-API-Eplorer-V2.0" stroke="none" stroke-width="1" fill="none" fill-rule="evenodd">
        <g id="12.5.3-API-Explorer-V2.0-Request4-Desktop" transform="translate(-442.000000, -912.000000)" fill="#B7C9D3">
            <g id="Parameters-Opened" transform="translate(442.000000, 901.000000)">
                <path d="M9.35957697,12.6157462 L5,16.9694477 C4.92557738,17.0438703 4.83744665,17.0810811 4.73560517,17.0810811 C4.63376369,17.0810811 4.54563296,17.0438703 4.47121034,16.9694477 L0.111633373,12.6157462 C0.0372107521,12.5413236 0,12.4522136 0,12.3484136 C0,12.2446137 0.0372107521,12.1555037 0.111633373,12.0810811 L1.08695652,11.1116334 C1.16137914,11.0372108 1.24950987,11 1.35135135,11 C1.45319283,11 1.54132356,11.0372108 1.61574618,11.1116334 L4.73560517,14.2314924 L7.85546416,11.1116334 C7.92988678,11.0372108 8.01801751,11 8.11985899,11 C8.22170047,11 8.3098312,11.0372108 8.38425382,11.1116334 L9.35957697,12.0810811 C9.43399959,12.1555037 9.47121034,12.2446137 9.47121034,12.3484136 C9.47121034,12.4522136 9.43399959,12.5413236 9.35957697,12.6157462 L9.35957697,12.6157462 Z" id="Chevron-Copy-6" transform="translate(4.735605, 14.040541) scale(1, -1) translate(-4.735605, -14.040541) "></path>
            </g>
        </g>
    </g>
</svg>