<?xml version="1.0" encoding="UTF-8" standalone="no"?>
<svg width="28px" height="28px" viewBox="0 0 28 28" version="1.1" xmlns="http://www.w3.org/2000/svg" xmlns:xlink="http://www.w3.org/1999/xlink">
    <!-- Generator: sketchtool 40.3 (33839) - http://www.bohemiancoding.com/sketch -->
    <title>AED5FB4D-3CAE-4D16-B3EA-369AFC5CE51B</title>
    <desc>Created with sketchtool.</desc>
    <defs></defs>
    <g id="Stylesheet-+-Mobile" stroke="none" stroke-width="1" fill="none" fill-rule="evenodd">
        <g id="UI-Elements" transform="translate(-314.000000, -3294.000000)">
            <g id="DATE-DROPDOWN-Opened" transform="translate(90.000000, 3252.000000)">
                <g id="ic_calendar_hover" transform="translate(224.000000, 42.000000)">
                    <rect id="Rectangle-554" fill="#2A7CC7" x="0" y="0" width="28" height="28" rx="2"></rect>
                    <path d="M11,17 L14,17 L14,16 L11,16 L11,17 Z M11,15 L17,15 L17,14 L11,14 L11,15 Z M11,13 L17,13 L17,12 L11,12 L11,13 Z M17,9 L17,8 L18,8 L18,9 L19,9 L19,7.764 C19,7.342 18.658,7 18.236,7 L16.764,7 C16.342,7 16,7.342 16,7.564 L16,9 L17,9 Z M10,9 L10,8 L11,8 L11,9 L12,9 L12,7.764 C12,7.342 11.658,7 11.236,7 L9.764,7 C9.342,7 9,7.342 9,7.564 L9,9 L10,9 Z M9.764,20 L18.236,20 C18.658,20 19,19.658 19,19.236 L19,10.764 C19,10.342 18.658,10 18.236,10 L9.764,10 C9.342,10 9,10.342 9,10.764 L9,19.236 C9,19.658 9.342,20 9.764,20 L9.764,20 Z M8.764,21 C8.342,21 8,20.658 8,20.236 L8,9.764 C8,9.342 8.342,9 8.764,9 L19.236,9 C19.658,9 20,9.342 20,9.764 L20,20.236 C20,20.658 19.658,21 19.236,21 L8.764,21 Z" id="ic_calendar" fill="#FFFFFF"></path>
                </g>
            </g>
        </g>
    </g>
</svg>