<?xml version="1.0" encoding="UTF-8" standalone="no"?>
<svg width="28px" height="28px" viewBox="0 0 28 28" version="1.1" xmlns="http://www.w3.org/2000/svg" xmlns:xlink="http://www.w3.org/1999/xlink">
    <!-- Generator: sketchtool 39.1 (31720) - http://www.bohemiancoding.com/sketch -->
    <title>D364124A-51EE-415F-8594-2D63A1673418</title>
    <desc>Created with sketchtool.</desc>
    <defs></defs>
    <g id="12.2.x-API-Eplorer-V2.0" stroke="none" stroke-width="1" fill="none" fill-rule="evenodd">
        <g id="12.3.3-API-Explorer-V2.0-Parameters-more-Request-Desktop" transform="translate(-1189.000000, -1408.000000)" fill="#fff">
            <g id="Reqests" transform="translate(151.000000, 1338.000000)">
                <g id="Request-1" transform="translate(2.000000, 52.000000)">
                    <g id="Group-5" transform="translate(1036.000000, 18.000000)">
                        <g id="ic_share">
                            <path d="M18.5134691,9 C15.786072,10.8972083 13.7978628,13.7163318 12.95263,16.9558422 L13.9202368,17.2083041 C14.6960769,14.2347541 16.5103521,11.6414322 19,9.88020571 L19,13 L20,13 L20,8.5 L20,8 L15,8 L15,9 L18.5134691,9 Z M20,20 L8,20 L8,8 L12,8 L12,9 L9,9 L9,19 L19,19 L19,16 L20,16 L20,20 Z"></path>
                        </g>
                    </g>
                </g>
            </g>
        </g>
    </g>
</svg>
