<?xml version="1.0" encoding="UTF-8" standalone="no"?>
<svg width="16px" height="16px" viewBox="0 0 16 16" version="1.1" xmlns="http://www.w3.org/2000/svg" xmlns:xlink="http://www.w3.org/1999/xlink">
    <!-- Generator: sketchtool 39.1 (31720) - http://www.bohemiancoding.com/sketch -->
    <title>8AFF42DC-A8B3-4BDA-A305-A99E74B1B900</title>
    <desc>Created with sketchtool.</desc>
    <defs></defs>
    <g id="12.2.x-API-Eplorer-V2.0" stroke="none" stroke-width="1" fill="none" fill-rule="evenodd">
        <g id="12.3.3-API-Explorer-V2.0-Parameters-more-Request-Desktop" transform="translate(-1273.000000, -1416.000000)" fill="#FFF">
            <g id="Reqests" transform="translate(151.000000, 1338.000000)">
                <g id="Request-1" transform="translate(2.000000, 52.000000)">
                    <g id="Group-5" transform="translate(1036.000000, 18.000000)">
                        <g id="ic_view_in_raw" transform="translate(76.000000, 0.000000)">
                            <path d="M18.2061,14.499 L15.3531,11.646 L14.6461,12.353 L16.2931,14 L8.0001,14 L8.0001,15 L16.2931,15 L14.6461,16.646 L15.3531,17.353 L18.2061,14.499 Z M20.0001,9 L20.0001,20 L9.0001,20 L9.0001,18 L8.0001,18 L8.0001,20 C8.0001,20.552 8.4471,21 8.9991,21 L20.0001,21 C20.5521,21 21.0001,20.552 21.0001,20 L21.0001,9 C21.0001,8.448 20.5521,8 20.0001,8 L8.9991,8 C8.4471,8 8.0001,8.447 8.0001,8.999 L8.0001,11 L9.0001,11 L9.0001,9 L20.0001,9 L20.0001,9 Z"></path>
                        </g>
                    </g>
                </g>
            </g>
        </g>
    </g>
</svg>
