<?xml version="1.0" encoding="UTF-8"?>
<svg width="28px" height="28px" viewBox="0 0 28 28" version="1.1" xmlns="http://www.w3.org/2000/svg" xmlns:xlink="http://www.w3.org/1999/xlink">
    <!-- Generator: sketchtool 40.3 (33839) - http://www.bohemiancoding.com/sketch -->
    <title>2B2D3815-0353-462D-A507-9077AB67D00D</title>
    <desc>Created with sketchtool.</desc>
    <defs></defs>
    <g id="Stylesheet-+-Mobile" stroke="none" stroke-width="1" fill="none" fill-rule="evenodd">
        <g id="Assets" transform="translate(-762.000000, -293.000000)" fill="#B7C9D3">
            <g id="menu_dots_mobile" transform="translate(762.000000, 293.000000)">
                <path d="M14,8 C15.1045695,8 16,7.1045695 16,6 C16,4.8954305 15.1045695,4 14,4 C12.8954305,4 12,4.8954305 12,6 C12,7.1045695 12.8954305,8 14,8 Z M14,16 C15.1045695,16 16,15.1045695 16,14 C16,12.8954305 15.1045695,12 14,12 C12.8954305,12 12,12.8954305 12,14 C12,15.1045695 12.8954305,16 14,16 Z M14,24 C15.1045695,24 16,23.1045695 16,22 C16,20.8954305 15.1045695,20 14,20 C12.8954305,20 12,20.8954305 12,22 C12,23.1045695 12.8954305,24 14,24 Z"></path>
            </g>
        </g>
    </g>
</svg>