<?xml version="1.0" encoding="UTF-8" standalone="no"?>
<svg width="16px" height="16px" viewBox="0 0 16 16" version="1.1" xmlns="http://www.w3.org/2000/svg" xmlns:xlink="http://www.w3.org/1999/xlink">
    <!-- Generator: sketchtool 39.1 (31720) - http://www.bohemiancoding.com/sketch -->
    <title>072F2937-32E4-4A4F-9864-5D87E056C42D</title>
    <desc>Created with sketchtool.</desc>
    <defs></defs>
    <g id="Stylesheet-+-Mobile" stroke="none" stroke-width="1" fill="none" fill-rule="evenodd">
        <g id="Assets" transform="translate(-279.000000, -348.000000)" fill="#009CDE">
            <g id="question_ic_blue" transform="translate(279.000000, 348.000000)">
                <path d="M8,16 C12.418278,16 16,12.418278 16,8 C16,3.581722 12.418278,0 8,0 C3.581722,0 0,3.581722 0,8 C0,12.418278 3.581722,16 8,16 Z M9.13493333,8.6784 C10.0618667,7.904 10.3786667,7.28213333 10.3786667,6.47253333 C10.3786667,5.20533333 9.38133333,4.26666667 7.86773333,4.26666667 C6.28373333,4.26666667 5.36853333,5.21706667 5.33333333,6.7776 L7.0464,6.7776 C7.0464,6.15573333 7.37493333,5.83893333 7.8208,5.83893333 C8.21973333,5.83893333 8.5248,6.15573333 8.5248,6.54293333 C8.5248,7.07093333 8.37226667,7.32906667 7.76213333,7.9744 C7.21066667,8.56106667 7.05813333,9.05386667 7.05813333,9.96906667 L8.61866667,9.96906667 C8.61866667,9.3472 8.78293333,8.9952 9.13493333,8.6784 Z M6.91733333,12.5269333 L8.75946667,12.5269333 L8.75946667,10.8842667 L6.91733333,10.8842667 L6.91733333,12.5269333 Z"></path>
            </g>
        </g>
    </g>
</svg>