<?xml version="1.0" encoding="UTF-8" standalone="no"?>
<svg width="16px" height="16px" viewBox="0 0 16 16" version="1.1" xmlns="http://www.w3.org/2000/svg" xmlns:xlink="http://www.w3.org/1999/xlink">
    <!-- Generator: sketchtool 39.1 (31720) - http://www.bohemiancoding.com/sketch -->
    <title>6DF25472-9F47-405A-9874-6A1D1B2B42C0</title>
    <desc>Created with sketchtool.</desc>
    <defs></defs>
    <g id="12.2.x-API-Eplorer-V2.0" stroke="none" stroke-width="1" fill="none" fill-rule="evenodd">
        <g id="12.1.3-API-Explorer-V2.0-First-more-Desktop" transform="translate(-1027.000000, -636.000000)" fill="#B7C9D3">
            <g id="Info-About" transform="translate(1027.000000, 636.000000)">
                <g id="question_ic_grey">
                    <path d="M8,16 C12.418278,16 16,12.418278 16,8 C16,3.581722 12.418278,0 8,0 C3.581722,0 0,3.581722 0,8 C0,12.418278 3.581722,16 8,16 Z M9.21674419,8.33251029 C10.0986047,7.57201646 10.4,6.96131687 10.4,6.16625514 C10.4,4.9218107 9.45116279,4 8.01116279,4 C6.50418605,4 5.63348837,4.93333333 5.6,6.46584362 L7.22976744,6.46584362 C7.22976744,5.85514403 7.54232558,5.54403292 7.96651163,5.54403292 C8.34604651,5.54403292 8.63627907,5.85514403 8.63627907,6.23539095 C8.63627907,6.75390947 8.49116279,7.00740741 7.91069767,7.64115226 C7.38604651,8.21728395 7.24093023,8.70123457 7.24093023,9.6 L8.7255814,9.6 C8.7255814,8.98930041 8.88186047,8.6436214 9.21674419,8.33251029 Z M7.13386667,11.9074133 L8.73386667,11.9074133 L8.73386667,10.3074133 L7.13386667,10.3074133 L7.13386667,11.9074133 Z"></path>
                </g>
            </g>
        </g>
    </g>
</svg>