<?xml version="1.0" encoding="UTF-8" standalone="no"?>
<svg
   xmlns:dc="http://purl.org/dc/elements/1.1/"
   xmlns:cc="http://creativecommons.org/ns#"
   xmlns:rdf="http://www.w3.org/1999/02/22-rdf-syntax-ns#"
   xmlns:svg="http://www.w3.org/2000/svg"
   xmlns="http://www.w3.org/2000/svg"
   xmlns:sodipodi="http://sodipodi.sourceforge.net/DTD/sodipodi-0.dtd"
   xmlns:inkscape="http://www.inkscape.org/namespaces/inkscape"
   width="28"
   height="56"
   viewBox="0 0 28 56"
   version="1.1"
   id="svg4165"
   inkscape:version="0.91 r13725"
   sodipodi:docname="ic-near-me.svg">
  <metadata
     id="metadata4182">
    <rdf:RDF>
      <cc:Work
         rdf:about="">
        <dc:format>image/svg+xml</dc:format>
        <dc:type
           rdf:resource="http://purl.org/dc/dcmitype/StillImage" />
        <dc:title>E905217A-A35E-4268-A19B-911AC09AB27C</dc:title>
      </cc:Work>
    </rdf:RDF>
  </metadata>
  <sodipodi:namedview
     pagecolor="#ffffff"
     bordercolor="#666666"
     borderopacity="1"
     objecttolerance="10"
     gridtolerance="10"
     guidetolerance="10"
     inkscape:pageopacity="0"
     inkscape:pageshadow="2"
     inkscape:window-width="1920"
     inkscape:window-height="1017"
     id="namedview4180"
     showgrid="false"
     inkscape:zoom="9.3691649"
     inkscape:cx="23.434376"
     inkscape:cy="19.556529"
     inkscape:window-x="-8"
     inkscape:window-y="-8"
     inkscape:window-maximized="1"
     inkscape:current-layer="svg4165" />
  <!-- Generator: sketchtool 40.3 (33839) - http://www.bohemiancoding.com/sketch -->
  <title
     id="title4167">E905217A-A35E-4268-A19B-911AC09AB27C</title>
  <desc
     id="desc4169">Created with sketchtool.</desc>
  <defs
     id="defs4171" />
  <g
     id="13.5-x-Widget-Map-3"
     style="fill:#666666;fill-opacity:1;fill-rule:evenodd;stroke:none;stroke-width:1"
     transform="translate(6.4089682,5.9471591)">
    <g
       id="13.5-Widget-Map-Concept-8"
       transform="translate(-838,-441)"
       style="fill:#666666;fill-opacity:1">
      <g
         id="Map-Widget-300x560-Copy-6"
         transform="translate(568,123)"
         style="fill:#666666;fill-opacity:1">
        <g
           id="near_me_v2-3"
           transform="translate(266,314)"
           style="fill:#666666;fill-opacity:1">
          <g
             id="near_me_ic-5"
             transform="translate(4,4)"
             style="fill:#666666;fill-opacity:1">
            <path
               d="M 9,2.0829584 9,0.4963932 C 9,0.22618103 8.7740451,0 8.4953156,0 L 7.5046844,0 C 7.214035,0 7,0.22224281 7,0.4963932 L 7,2.0829584 C 4.4874951,2.5044769 2.5044769,4.4874951 2.0829584,7 L 0.4963932,7 C 0.22618103,7 0,7.2259549 0,7.5046844 L 0,8.4953156 C 0,8.785965 0.22224281,9 0.4963932,9 L 2.0829584,9 C 2.5044769,11.512505 4.4874951,13.495523 7,13.917042 l 0,1.586565 C 7,15.773819 7.2259549,16 7.5046844,16 l 0.9906312,0 C 8.785965,16 9,15.777757 9,15.503607 L 9,13.917042 C 11.512505,13.495523 13.495523,11.512505 13.917042,9 l 1.586565,0 C 15.773819,9 16,8.7740451 16,8.4953156 L 16,7.5046844 C 16,7.214035 15.777757,7 15.503607,7 L 13.917042,7 C 13.495523,4.4874951 11.512505,2.5044769 9,2.0829584 Z M 12,8 C 12,5.790861 10.209139,4 8,4 5.790861,4 4,5.790861 4,8 c 0,2.209139 1.790861,4 4,4 2.209139,0 4,-1.790861 4,-4 z"
               id="Combined-Shape-7"
               style="fill:#666666;fill-opacity:1"
               inkscape:connector-curvature="0" />
            <path
               d="M 5.5,8 C 5.5,6.6192881 6.6192881,5.5 8,5.5 9.3807119,5.5 10.5,6.6192881 10.5,8 10.5,9.3807119 9.3807119,10.5 8,10.5 6.6192881,10.5 5.5,9.3807119 5.5,8 Z"
               id="Path-3"
               style="fill:#666666;fill-opacity:1"
               inkscape:connector-curvature="0" />
          </g>
        </g>
      </g>
    </g>
  </g>
  <g
     id="13.5-x-Widget-Map-3-3"
     style="fill:#333333;fill-opacity:1;fill-rule:evenodd;stroke:none;stroke-width:1"
     transform="translate(6.4089678,33.94716)">
    <g
       id="13.5-Widget-Map-Concept-8-3"
       transform="translate(-838,-441)"
       style="fill:#333333;fill-opacity:1">
      <g
         id="Map-Widget-300x560-Copy-6-3"
         transform="translate(568,123)"
         style="fill:#333333;fill-opacity:1">
        <g
           id="near_me_v2-3-6"
           transform="translate(266,314)"
           style="fill:#333333;fill-opacity:1">
          <g
             id="near_me_ic-5-0"
             transform="translate(4,4)"
             style="fill:#333333;fill-opacity:1">
            <path
               d="M 9,2.0829584 9,0.4963932 C 9,0.22618103 8.7740451,0 8.4953156,0 L 7.5046844,0 C 7.214035,0 7,0.22224281 7,0.4963932 L 7,2.0829584 C 4.4874951,2.5044769 2.5044769,4.4874951 2.0829584,7 L 0.4963932,7 C 0.22618103,7 0,7.2259549 0,7.5046844 L 0,8.4953156 C 0,8.785965 0.22224281,9 0.4963932,9 L 2.0829584,9 C 2.5044769,11.512505 4.4874951,13.495523 7,13.917042 l 0,1.586565 C 7,15.773819 7.2259549,16 7.5046844,16 l 0.9906312,0 C 8.785965,16 9,15.777757 9,15.503607 L 9,13.917042 C 11.512505,13.495523 13.495523,11.512505 13.917042,9 l 1.586565,0 C 15.773819,9 16,8.7740451 16,8.4953156 L 16,7.5046844 C 16,7.214035 15.777757,7 15.503607,7 L 13.917042,7 C 13.495523,4.4874951 11.512505,2.5044769 9,2.0829584 Z M 12,8 C 12,5.790861 10.209139,4 8,4 5.790861,4 4,5.790861 4,8 c 0,2.209139 1.790861,4 4,4 2.209139,0 4,-1.790861 4,-4 z"
               id="Combined-Shape-7-4"
               style="fill:#333333;fill-opacity:1"
               inkscape:connector-curvature="0" />
            <path
               d="M 5.5,8 C 5.5,6.6192881 6.6192881,5.5 8,5.5 9.3807119,5.5 10.5,6.6192881 10.5,8 10.5,9.3807119 9.3807119,10.5 8,10.5 6.6192881,10.5 5.5,9.3807119 5.5,8 Z"
               id="Path-3-5"
               style="fill:#333333;fill-opacity:1"
               inkscape:connector-curvature="0" />
          </g>
        </g>
      </g>
    </g>
  </g>
</svg>
