<?xml version="1.0" encoding="UTF-8" standalone="no"?>
<svg width="28px" height="56px" viewBox="0 0 28 56" version="1.1" xmlns="http://www.w3.org/2000/svg" xmlns:xlink="http://www.w3.org/1999/xlink">
    <!-- Generator: sketchtool 40.3 (33839) - http://www.bohemiancoding.com/sketch -->
    <title>1BE103D7-D6FD-4CEC-9E74-D83A8CB38D54</title>
    <desc>Created with sketchtool.</desc>
    <defs></defs>
    <g id="Stylesheet-+-Mobile" stroke="none" stroke-width="1" fill="none" fill-rule="evenodd">
        <g id="Assets" transform="translate(-418.000000, -798.000000)">
            <g id="ic_show_map_sprite" transform="translate(418.000000, 798.000000)">
                <rect id="Rectangle-554-Copy" fill="#2A7CC7" x="0" y="28" width="28" height="28" rx="2"></rect>
                <path d="M17,39 C17,38.1718709 16.7070342,37.4648467 16.1210938,36.8789062 C15.5351533,36.2929658 14.8281291,36 14,36 C13.1718709,36 12.4648467,36.2929658 11.8789062,36.8789062 C11.2929658,37.4648467 11,38.1718709 11,39 C11,39.8281291 11.2929658,40.5351533 11.8789062,41.1210938 C12.4648467,41.7070342 13.1718709,42 14,42 C14.8281291,42 15.5351533,41.7070342 16.1210938,41.1210938 C16.7070342,40.5351533 17,39.8281291 17,39 L17,39 Z M20,39 C20,39.8515668 19.871095,40.5507785 19.6132813,41.0976562 L15.3476563,50.1679688 C15.2226556,50.4257825 15.0371106,50.6289055 14.7910156,50.7773438 C14.5449206,50.925782 14.2812514,51 14,51 C13.7187486,51 13.4550794,50.925782 13.2089844,50.7773438 C12.9628894,50.6289055 12.7812506,50.4257825 12.6640625,50.1679688 L8.38671875,41.0976562 C8.12890496,40.5507785 8,39.8515668 8,39 C8,37.3437417 8.58593164,35.9296934 9.7578125,34.7578125 C10.9296934,33.5859316 12.3437417,33 14,33 C15.6562583,33 17.0703066,33.5859316 18.2421875,34.7578125 C19.4140684,35.9296934 20,37.3437417 20,39 L20,39 Z" id="ic_map" stroke="#FFFFFF"></path>
                <rect id="Rectangle-2" fill="#FFFFFF" x="19" y="49" width="4" height="1"></rect>
                <rect id="Rectangle-2-Copy" fill="#FFFFFF" x="5" y="49" width="4" height="1"></rect>
                <path d="M17,11 C17,10.1718709 16.7070342,9.46484668 16.1210938,8.87890625 C15.5351533,8.29296582 14.8281291,8 14,8 C13.1718709,8 12.4648467,8.29296582 11.8789062,8.87890625 C11.2929658,9.46484668 11,10.1718709 11,11 C11,11.8281291 11.2929658,12.5351533 11.8789062,13.1210937 C12.4648467,13.7070342 13.1718709,14 14,14 C14.8281291,14 15.5351533,13.7070342 16.1210938,13.1210937 C16.7070342,12.5351533 17,11.8281291 17,11 L17,11 Z M20,11 C20,11.8515668 19.871095,12.5507785 19.6132813,13.0976562 L15.3476563,22.1679688 C15.2226556,22.4257825 15.0371106,22.6289055 14.7910156,22.7773438 C14.5449206,22.925782 14.2812514,23 14,23 C13.7187486,23 13.4550794,22.925782 13.2089844,22.7773438 C12.9628894,22.6289055 12.7812506,22.4257825 12.6640625,22.1679688 L8.38671875,13.0976562 C8.12890496,12.5507785 8,11.8515668 8,11 C8,9.34374172 8.58593164,7.92969336 9.7578125,6.7578125 C10.9296934,5.58593164 12.3437417,5 14,5 C15.6562583,5 17.0703066,5.58593164 18.2421875,6.7578125 C19.4140684,7.92969336 20,9.34374172 20,11 L20,11 Z" id="ic_map" stroke="#B7C9D3"></path>
                <rect id="Rectangle-2" fill="#B7C9D3" x="19" y="21" width="4" height="1"></rect>
                <rect id="Rectangle-2-Copy" fill="#B7C9D3" x="5" y="21" width="4" height="1"></rect>
            </g>
        </g>
    </g>
</svg>