<?xml version="1.0" encoding="UTF-8" standalone="no"?>
<svg width="22px" height="33px" viewBox="0 0 22 33" version="1.1" xmlns="http://www.w3.org/2000/svg" xmlns:xlink="http://www.w3.org/1999/xlink">
    <!-- Generator: sketchtool 3.8.2 (29753) - http://www.bohemiancoding.com/sketch -->
    <title>7280EC9B-ED3B-4D32-99C1-7268420F915B</title>
    <desc>Created with sketchtool.</desc>
    <defs>
        <path d="M210,87 C210,87 220,72.1853943 220,66.7826087 C220,61.3798231 215.522847,57 210,57 C204.477153,57 200,61.3798231 200,66.7826087 C200,72.1853943 210,87 210,87 Z M210,70.6956522 C212.209139,70.6956522 214,68.9437229 214,66.7826087 C214,64.6214945 212.209139,62.8695652 210,62.8695652 C207.790861,62.8695652 206,64.6214945 206,66.7826087 C206,68.9437229 207.790861,70.6956522 210,70.6956522 Z" id="path-1"></path>
        <mask id="mask-2" maskContentUnits="userSpaceOnUse" maskUnits="objectBoundingBox" x="-1" y="-1" width="22" height="32">
            <rect x="199" y="56" width="22" height="32" fill="white"></rect>
            <use xlink:href="#path-1" fill="black"></use>
        </mask>
    </defs>
    <g id="13.5-x-Widget-Map" stroke="none" stroke-width="1" fill="none" fill-rule="evenodd">
        <g id="13.5-Widget-Map-Concept" transform="translate(-758.000000, -205.000000)">
            <g id="Map-Widget-300x560" transform="translate(559.000000, 149.000000)">
                <g id="pin_ic">
                    <g>
                        <use fill="#009CDE" fill-rule="evenodd" xlink:href="#path-1"></use>
                        <use stroke="#FFFFFF" mask="url(#mask-2)" stroke-width="2" xlink:href="#path-1"></use>
                    </g>
                </g>
            </g>
        </g>
    </g>
</svg>