<?xml version="1.0" encoding="UTF-8" standalone="no"?>
<svg width="254px" height="35px" viewBox="0 0 254 35" version="1.1" xmlns="http://www.w3.org/2000/svg" xmlns:xlink="http://www.w3.org/1999/xlink">
    <!-- Generator: sketchtool 3.6.1 (26313) - http://www.bohemiancoding.com/sketch -->
    <title>TM-Logo_watermark</title>
    <desc>Created with sketchtool.</desc>
    <defs>
        <path id="path-1" d="M0.0432954545,0.61585348 L253.502102,0.61585348 L253.502102,34.6526007 L0.0432954545,34.6526007 L0.0432954545,0.61585348 Z"></path>
    </defs>
    <g id="13.x-Widget" stroke="none" stroke-width="1" fill="none" fill-rule="evenodd" opacity="0.3">
        <g id="13.1.2-Widgets-Oldschool-Desktop" transform="translate(-942.000000, -992.000000)">
            <g id="OLDSCHOOL-Widget" transform="translate(889.000000, 796.000000)">
                <g id="TM-Logo_watermark" transform="translate(53.000000, 196.000000)">
                    <g id="grey">
                        <mask id="mask-2" fill="white">
                            <use xlink:href="#path-1"></use>
                        </mask>
                        <g id="Clip-2"></g>
                        <path d="M150.092352,30.3148816 C154.55467,30.3148816 155.938682,27.2312772 156.873864,23.5209768 L154.777642,23.5209768 C151.877568,23.5209768 147.058784,24.0132259 147.058784,27.9013431 C147.058784,29.5103687 148.574847,30.3148816 150.092352,30.3148816 L150.092352,30.3148816 Z M155.938682,30.6278681 L155.848483,30.6278681 C153.796278,33.2206691 151.743352,34.6959707 148.441352,34.6959707 C144.293648,34.6959707 141.349557,32.3706178 141.349557,28.1254212 C141.349557,20.5262808 149.825364,19.9458462 155.447278,19.9458462 L157.544222,19.9458462 C157.722455,19.3191502 157.722455,18.6490842 157.722455,17.9782955 C157.722455,15.6551111 155.224307,14.9843223 153.127364,14.9843223 C150.494278,14.9843223 147.95067,15.6551111 145.586017,16.7718877 L146.433165,11.9896264 C148.976773,11.096928 151.565119,10.603956 154.242943,10.603956 C158.838034,10.603956 163.166136,12.3026129 163.166136,17.7101245 C163.166136,20.7944518 160.89096,29.8240781 160.35554,34.1596288 L155.313063,34.1596288 L155.938682,30.6278681 L155.938682,30.6278681 Z" id="Fill-1" fill="#B7C9D3" mask="url(#mask-2)"></path>
                        <path d="M0.936625,11.1193358 L5.26544886,11.1193358 L6.29155114,6.38189011 L12.7165966,4.28061538 L11.2438295,11.1193358 L16.5987557,11.1193358 L15.6614091,15.4997021 L10.306483,15.4997021 L8.12078409,25.5564737 C7.98656818,26.0928156 7.85307386,26.8980513 7.85307386,27.7907497 C7.85307386,29.1771429 8.79042045,30.0257485 10.1289716,30.0257485 C11.1998125,30.0257485 12.2706534,29.8023932 13.029767,29.4894066 L12.0029432,34.1379438 C10.9761193,34.3612991 9.81652273,34.6750085 8.79042045,34.6750085 C4.73002841,34.6750085 1.87397159,33.0659829 1.87397159,28.6400781 C1.87397159,26.8532357 2.23115909,25.1097631 2.63236364,23.278105 L4.32810227,15.4997021 L0,15.4997021 L0.936625,11.1193358" id="Fill-3" fill="#B7C9D3" mask="url(#mask-2)"></path>
                        <path d="M21.24075,1.19628816 L27.2191307,1.19628816 L25.9700568,6.91823199 L19.9909545,6.91823199 L21.24075,1.19628816 L21.24075,1.19628816 Z M19.053608,11.1193358 L25.0327102,11.1193358 L20.1251705,34.1379438 L14.1460682,34.1379438 L19.053608,11.1193358 L19.053608,11.1193358 Z" id="Fill-4" fill="#B7C9D3" mask="url(#mask-2)"></path>
                        <path d="M43.0898011,16.394569 C41.9280398,15.634149 40.3672386,15.2315311 38.7162386,15.2315311 C33.9414716,15.2315311 31.2643693,19.7015287 31.2643693,24.0378022 C31.2643693,27.0303297 32.245733,30.0257485 36.3515852,30.0257485 C37.8243523,30.0257485 39.6535852,29.6231306 41.2143864,28.8641563 L40.5454716,33.6023248 C38.7162386,34.495746 36.7535114,34.6750085 34.7900625,34.6750085 C28.8549773,34.6750085 25.0175568,30.6979829 25.0175568,24.7526838 C25.0175568,16.7068327 30.3277443,10.5844396 38.5827443,10.5844396 C40.8139034,10.5844396 42.9548636,10.9863346 44.5625682,11.477138 L43.0898011,16.394569" id="Fill-5" fill="#B7C9D3" mask="url(#mask-2)"></path>
                        <path d="M49.6468977,0.61585348 L55.626,0.61585348 L51.6543636,19.4781734 L51.7445625,19.4781734 L60.0883182,11.1193358 L67.8519148,11.1193358 L56.8310568,21.6235409 L63.7467841,34.1379438 L57.0092898,34.1379438 L51.0742045,21.9372503 L50.9847273,21.9372503 L48.3971023,34.1379438 L42.5522159,34.1379438 L49.6468977,0.61585348" id="Fill-6" fill="#B7C9D3" mask="url(#mask-2)"></path>
                        <path d="M89.4051136,11.1193358 L93.7332159,11.1193358 L94.7593182,6.38189011 L101.185085,4.28061538 L99.7123182,11.1193358 L105.067244,11.1193358 L104.130619,15.4997021 L98.7749716,15.4997021 L96.5885511,25.5564737 C96.4550568,26.0928156 96.3208409,26.8980513 96.3208409,27.7907497 C96.3208409,29.1771429 97.2581875,30.0257485 98.5974602,30.0257485 C99.6683011,30.0257485 100.739142,29.8023932 101.496812,29.4894066 L100.469989,34.1379438 C99.444608,34.3612991 98.2842898,34.6750085 97.2581875,34.6750085 C93.1977955,34.6750085 90.3417386,33.0659829 90.3417386,28.6400781 C90.3417386,26.8532357 90.6989261,25.1097631 91.1008523,23.278105 L92.7965909,15.4997021 L88.467767,15.4997021 L89.4051136,11.1193358" id="Fill-7" fill="#B7C9D3" mask="url(#mask-2)"></path>
                        <path d="M87.4055852,19.3444493 C87.4055852,13.4880586 83.6569205,10.5844396 77.9909886,10.5844396 C70.449642,10.5844396 64.916483,17.4679756 64.916483,24.6189597 C64.916483,31.4576801 69.3788011,34.6750085 75.9828011,34.6750085 C78.4362102,34.6750085 80.9805398,34.0945739 83.299733,33.3796923 L84.0595682,28.6400781 C81.8269659,29.6693919 79.4623125,30.2946422 77.0089034,30.2946422 C73.1844716,30.2946422 70.9497045,28.9335482 70.6625114,25.3143248 L70.6574602,25.3143248 C70.6466364,25.1039805 70.6271534,24.8994188 70.6271534,24.6789548 C70.6271534,24.6363077 70.6300398,24.5929377 70.6300398,24.5510134 C70.6300398,24.5286056 70.6285966,24.5076435 70.6285966,24.48379 L70.6329261,24.48379 C70.659625,22.9072918 71.0045455,21.3524786 71.6041875,19.9176557 C72.7529602,16.9880147 74.377983,14.964083 77.9007898,14.964083 C80.3996591,14.964083 81.6941932,16.3490305 81.6941932,18.8081074 C81.6941932,19.3444493 81.648733,19.8352527 81.5599773,20.3723175 L73.3785795,20.3723175 C72.8482102,22.1808449 72.755125,23.3930354 72.7443011,24.48379 L86.8254261,24.48379 C87.1811705,22.7851331 87.4055852,21.087199 87.4055852,19.3444493" id="Fill-8" fill="#B7C9D3" mask="url(#mask-2)"></path>
                        <path d="M107.646932,13.6673211 C107.825165,12.7738999 108.003398,11.8349402 108.137614,11.1193358 L113.715511,11.1193358 L113.180091,14.203663 L113.268847,14.203663 C114.875108,11.8349402 117.507472,10.5844396 120.318068,10.5844396 C123.040631,10.5844396 125.851227,12.1927424 126.163676,14.964083 L126.253153,14.964083 C127.769937,11.9693871 131.116676,10.5844396 134.329199,10.5844396 C137.764693,10.5844396 140.709506,13.3991502 140.709506,16.8860952 C140.709506,18.9418315 140.174807,21.2671844 139.684125,23.1436581 L137.274011,34.1379438 L131.294909,34.1379438 L133.705023,22.9188571 C134.01675,21.5339096 134.463415,19.3878193 134.463415,18.0028718 C134.463415,16.3049377 133.169602,15.2315311 131.652097,15.2315311 C127.501506,15.2315311 126.475403,20.0586081 125.717733,23.1884737 L123.352358,34.1379438 L117.373977,34.1379438 L119.783369,22.9188571 C120.095818,21.5339096 120.542483,19.3878193 120.542483,18.0028718 C120.542483,16.3049377 119.247949,15.2315311 117.730443,15.2315311 C113.670051,15.2315311 112.55375,20.1034237 111.79608,23.1884737 L109.430705,34.1379438 L103.452324,34.1379438 L107.646932,13.6673211" id="Fill-9" fill="#B7C9D3" mask="url(#mask-2)"></path>
                        <path d="M180.927375,15.8061832 C180.285159,15.4563321 178.634159,14.964083 176.93842,14.964083 C175.153926,14.964083 172.923489,15.4563321 172.923489,17.2872674 C172.923489,20.1923321 180.686364,21.2671844 180.686364,26.8980513 C180.686364,32.8874432 175.466375,34.6750085 170.335142,34.6750085 C167.92575,34.6750085 165.515636,34.318652 163.329216,33.2900611 L164.62375,28.5070769 C166.318767,29.4453138 168.014506,30.2946422 170.335142,30.2946422 C172.34333,30.2946422 174.440273,29.6231306 174.440273,27.7481026 C174.440273,24.0378022 166.676676,23.6785543 166.676676,17.9139634 C166.676676,12.5057289 171.896665,10.5844396 176.626693,10.5844396 C178.813114,10.5844396 181.043551,10.9863346 182.221909,11.29137 L180.927375,15.8061832" id="Fill-10" fill="#B7C9D3" mask="url(#mask-2)"></path>
                        <path d="M184.746034,11.1193358 L189.074858,11.1193358 L190.10096,6.38189011 L196.526727,4.28061538 L195.05396,11.1193358 L200.408165,11.1193358 L199.47154,15.4997021 L194.116614,15.4997021 L191.930193,25.5564737 C191.796699,26.0928156 191.663205,26.8980513 191.663205,27.7907497 C191.663205,29.1771429 192.600551,30.0257485 193.939102,30.0257485 C195.009222,30.0257485 196.080063,29.8023932 196.838455,29.4894066 L195.813074,34.1379438 C194.78625,34.3612991 193.626653,34.6750085 192.600551,34.6750085 C188.539438,34.6750085 185.684102,33.0659829 185.684102,28.6400781 C185.684102,26.8532357 186.04129,25.1097631 186.441773,23.278105 L188.138955,15.4997021 L183.810131,15.4997021 L184.746034,11.1193358" id="Fill-11" fill="#B7C9D3" mask="url(#mask-2)"></path>
                        <path d="M225.28429,14.203663 C225.462523,13.2206105 225.641477,12.1927424 225.81971,11.1193358 L231.531824,11.1193358 L230.727972,15.4563321 L230.81817,15.4563321 C231.889011,12.9524396 234.833102,10.5844396 237.599682,10.5844396 C238.358795,10.5844396 239.162648,10.6270867 239.87558,10.807072 L238.626506,16.6627399 C237.956869,16.4386618 237.109,16.3049377 236.35133,16.3049377 C232.111983,16.3049377 230.059057,20.1034237 229.300665,23.8137241 L227.158983,34.1379438 L221.179881,34.1379438 L225.28429,14.203663" id="Fill-12" fill="#B7C9D3" mask="url(#mask-2)"></path>
                        <path d="M221.135142,19.3444493 C221.135142,13.4880586 217.387199,10.5844396 211.719824,10.5844396 C204.17992,10.5844396 198.64604,17.4679756 198.64604,24.6189597 C198.64604,31.4576801 203.107636,34.6750085 209.712358,34.6750085 C212.165767,34.6750085 214.710097,34.0945739 217.030011,33.3796923 L217.788403,28.6400781 C215.557244,29.6693919 213.192591,30.2946422 210.739182,30.2946422 C206.913307,30.2946422 204.679261,28.9335482 204.391347,25.3143248 L204.387017,25.3143248 C204.376193,25.1039805 204.35671,24.8994188 204.35671,24.6789548 C204.35671,24.6363077 204.358875,24.5929377 204.360318,24.5510134 C204.360318,24.5286056 204.358153,24.5076435 204.358153,24.48379 L204.362483,24.48379 C204.38846,22.9072918 204.734102,21.3524786 205.334466,19.9176557 C206.481795,16.9880147 208.106818,14.964083 211.630347,14.964083 C214.128494,14.964083 215.423028,16.3490305 215.423028,18.8081074 C215.423028,19.3444493 215.37829,19.8352527 215.289534,20.3723175 L207.108136,20.3723175 C206.577767,22.1808449 206.48396,23.3930354 206.473858,24.48379 L220.554983,24.48379 C220.911449,22.7851331 221.135142,21.087199 221.135142,19.3444493" id="Fill-13" fill="#B7C9D3" mask="url(#mask-2)"></path>
                        <path d="M248.046206,14.8851168 L249.179033,14.8851168 C249.913311,14.8851168 250.388637,14.7290315 250.388637,13.9521689 C250.388637,13.274374 249.791862,13.0755256 249.179033,13.0755256 L248.046206,13.0755256 L248.046206,14.8851168 L248.046206,14.8851168 Z M247.091366,12.3114919 L249.332589,12.3114919 C250.6783,12.3114919 251.340685,12.8652738 251.340685,13.9970701 C251.340685,14.9556759 250.746004,15.6491506 249.828855,15.6491506 L251.496336,18.2940473 L250.482167,18.2940473 L248.846095,15.6491506 L248.046206,15.6491506 L248.046206,18.2940473 L247.091366,18.2940473 L247.091366,12.3114919 L247.091366,12.3114919 Z M249.017101,19.6496371 C251.312068,19.6496371 253.044462,17.7545197 253.044462,15.3106095 C253.044462,12.8652738 251.312068,10.9694437 249.017101,10.9694437 C246.691422,10.9694437 244.955538,12.8652738 244.955538,15.3106095 C244.955538,17.7545197 246.691422,19.6496371 249.017101,19.6496371 L249.017101,19.6496371 Z M249.001047,10.2046973 C251.753193,10.2046973 254,12.493235 254,15.3106095 C254,18.1215695 251.753193,20.4093945 249.001047,20.4093945 C246.247505,20.4093945 244,18.1215695 244,15.3106095 C244,12.493235 246.247505,10.2046973 249.001047,10.2046973 L249.001047,10.2046973 Z" id="Fill-15" fill="#B7C9D3" mask="url(#mask-2)"></path>
                    </g>
                </g>
            </g>
        </g>
    </g>
</svg>