<?xml version="1.0" encoding="UTF-8" standalone="no"?>
<svg width="159px" height="25px" viewBox="0 0 159 25" version="1.1" xmlns="http://www.w3.org/2000/svg" xmlns:xlink="http://www.w3.org/1999/xlink">
    <!-- Generator: sketchtool 3.6.1 (26313) - http://www.bohemiancoding.com/sketch -->
    <title>66589A6D-D514-4733-8210-6AEB339ABA12</title>
    <desc>Created with sketchtool.</desc>
    <defs></defs>
    <g id="13.x-Widget" stroke="none" stroke-width="1" fill="none" fill-rule="evenodd">
        <g id="13.1-Widget-Color-Block-300x600" transform="translate(-219.000000, -1397.000000)">
            <g id="NEWSCHOOL-dark-widget" transform="translate(148.000000, 890.000000)">
                <g id="ticketmaster_verified_logo" transform="translate(71.000000, 507.000000)">
                    <path d="M76.4956694,16.2918103 C77.9933468,16.2918103 78.4549597,15.2521552 78.7678306,14.0030172 L78.0677177,14.0030172 C77.0949113,14.0030172 75.4835403,14.1685345 75.4835403,15.4788793 C75.4835403,16.0176724 75.9930242,16.2918103 76.4956694,16.2918103 M78.4549597,16.3961207 L78.4258952,16.3961207 C77.7394597,17.2676724 77.0521694,17.7642241 75.9468629,17.7642241 C74.5551855,17.7642241 73.572121,16.9831897 73.572121,15.5521552 C73.572121,12.9909483 76.4084758,12.7943966 78.2925403,12.7943966 L78.9926532,12.7943966 C79.0550565,12.5831897 79.0550565,12.3581897 79.0550565,12.1306034 C79.0550565,11.349569 78.2156048,11.1237069 77.5163468,11.1237069 C76.6307339,11.1237069 75.7827339,11.349569 74.9894435,11.7237069 L75.2723952,10.1150862 C76.1238145,9.81336207 76.9923306,9.64698276 77.8873468,9.64698276 C79.4277661,9.64698276 80.8732984,10.2193966 80.8732984,12.0418103 C80.8732984,13.0823276 80.1116371,16.1237069 79.9346855,17.5857759 L78.246379,17.5857759 L78.4549597,16.3961207" id="Fill-1" fill="#414141"></path>
                    <path d="M26.5658226,9.81853448 L28.0113548,9.81853448 L28.3558548,8.2237069 L30.506629,7.51422414 L30.0150968,9.81853448 L31.805129,9.81853448 L31.4939677,11.2943966 L29.6988065,11.2943966 L28.9679194,14.6849138 C28.9217581,14.8668103 28.8790161,15.1357759 28.8790161,15.4392241 C28.8790161,15.9064655 29.1918871,16.1918103 29.6423871,16.1918103 C29.9988548,16.1918103 30.3587419,16.1159483 30.6100645,16.0150862 L30.2689839,17.5762931 C29.9219194,17.6538793 29.5355323,17.7564655 29.1918871,17.7564655 C27.8352581,17.7564655 26.876129,17.2211207 26.876129,15.725431 C26.876129,15.1237069 26.9966613,14.5366379 27.1300161,13.9176724 L27.6984839,11.2943966 L26.2452581,11.2943966 L26.5658226,9.81853448" id="Fill-3" fill="#414141"></path>
                    <path d="M33.3630726,6.47456897 L35.3608306,6.47456897 L34.945379,8.40387931 L32.9416371,8.40387931 L33.3630726,6.47456897 Z M32.629621,9.81853448 L34.627379,9.81853448 L32.9886532,17.5762931 L30.9857661,17.5762931 L32.629621,9.81853448 Z" id="Fill-5" fill="#414141"></path>
                    <path d="M40.6783548,11.5965517 C40.2868387,11.3413793 39.7628226,11.2051724 39.2105968,11.2051724 C37.6120484,11.2051724 36.7153226,12.7137931 36.7153226,14.1724138 C36.7153226,15.1827586 37.047,16.1922414 38.4215806,16.1922414 C38.9114032,16.1922414 39.5243226,16.0560345 40.0474839,15.7991379 L39.824371,17.3974138 C39.2105968,17.6991379 38.5532258,17.7560345 37.8984194,17.7560345 C35.9100645,17.7560345 34.6252419,16.4189655 34.6252419,14.4155172 C34.6252419,11.7025862 36.4015968,9.6387931 39.1644355,9.6387931 C39.9107097,9.6387931 40.629629,9.77155172 41.1698871,9.94137931 L40.6783548,11.5965517" id="Fill-7" fill="#414141"></path>
                    <path d="M42.8684516,6.28318966 L44.8713387,6.28318966 L43.5420645,12.6383621 L43.5736935,12.6383621 L46.3638871,9.81853448 L48.9643065,9.81853448 L45.2756774,13.3607759 L47.5897258,17.5762931 L45.3372258,17.5762931 L43.3471613,13.4668103 L43.3198065,13.4668103 L42.453,17.5762931 L40.4962742,17.5762931 L42.8684516,6.28318966 Z" id="Fill-9" fill="#414141"></path>
                    <path d="M56.1821371,9.81853448 L57.629379,9.81853448 L57.9747339,8.2237069 L60.1255081,7.51422414 L59.6314113,9.81853448 L61.4248629,9.81853448 L61.1154113,11.2943966 L59.3176855,11.2943966 L58.5842339,14.6849138 C58.5432016,14.8668103 58.4970403,15.1357759 58.4970403,15.4392241 C58.4970403,15.9064655 58.8099113,16.1918103 59.2587016,16.1918103 C59.6151694,16.1918103 59.9742016,16.1159483 60.226379,16.0150862 L59.8844435,17.5762931 C59.5433629,17.6538793 59.1535565,17.7564655 58.8099113,17.7564655 C57.4507177,17.7564655 56.4950081,17.2211207 56.4950081,15.725431 C56.4950081,15.1237069 56.6146855,14.5366379 56.7471855,13.9176724 L57.3165081,11.2943966 L55.8658468,11.2943966 L56.1821371,9.81853448" id="Fill-11" fill="#414141"></path>
                    <path d="M55.5115161,12.5909483 C55.5115161,10.6168103 54.2600323,9.63922414 52.3597258,9.63922414 C49.8362419,9.63922414 47.9803871,11.9599138 47.9803871,14.3693966 C47.9803871,16.675431 49.4729355,17.7556034 51.6878226,17.7556034 C52.5093226,17.7556034 53.3598871,17.5616379 54.134371,17.3237069 L54.3908226,15.725431 C53.6428387,16.0728448 52.8521129,16.2814655 52.0306129,16.2814655 C50.7500645,16.2814655 50.0037903,15.824569 49.9054839,14.6038793 L49.9029194,14.6038793 C49.9029194,14.5331897 49.8926613,14.4633621 49.8926613,14.3883621 L49.8926613,14.3193966 L49.8986452,14.3193966 C49.9029194,13.7935345 50.0200323,13.2693966 50.2234839,12.7866379 C50.6064516,11.7969828 51.150129,11.1168103 52.3306613,11.1168103 C53.1666935,11.1168103 53.5983871,11.5823276 53.5983871,12.4099138 C53.5983871,12.5909483 53.5838548,12.7564655 53.5556452,12.9392241 L50.8167419,12.9392241 C50.636371,13.5461207 50.6064516,13.9538793 50.6030323,14.3193966 L55.3174677,14.3193966 C55.4354355,13.750431 55.5115161,13.1788793 55.5115161,12.5909483" id="Fill-13" fill="#414141"></path>
                    <path d="M62.2908145,10.6784483 C62.346379,10.3758621 62.4079274,10.0655172 62.452379,9.81896552 L64.3210565,9.81896552 L64.1398306,10.8577586 L64.16975,10.8577586 C64.7108629,10.0655172 65.5879274,9.64051724 66.5316694,9.64051724 C67.4420726,9.64051724 68.3841048,10.1818966 68.4866855,11.1181034 L68.5174597,11.1181034 C69.0226694,10.1068966 70.1459274,9.64051724 71.2204597,9.64051724 C72.3719274,9.64051724 73.3592661,10.5905172 73.3592661,11.7663793 C73.3592661,12.4551724 73.1814597,13.2387931 73.015621,13.8715517 L72.2095081,17.5775862 L70.206621,17.5775862 L71.011879,13.7974138 C71.1153145,13.3293103 71.2640565,12.6094828 71.2640565,12.1413793 C71.2640565,11.5672414 70.8349274,11.2060345 70.3254435,11.2060345 C68.9380403,11.2060345 68.5935403,12.8327586 68.3379435,13.8896552 L67.5472177,17.5775862 L65.5468952,17.5775862 L66.3495887,13.7974138 C66.4572984,13.3293103 66.6060403,12.6094828 66.6060403,12.1413793 C66.6060403,11.5672414 66.1709274,11.2060345 65.6648629,11.2060345 C64.3082339,11.2060345 63.9295403,12.8474138 63.6773629,13.8896552 L62.8874919,17.5775862 L60.8828952,17.5775862 L62.2908145,10.6784483" id="Fill-15" fill="#414141"></path>
                    <path d="M86.8216935,11.4012931 C86.6054194,11.2831897 86.0540484,11.1185345 85.4847258,11.1185345 C84.8897581,11.1185345 84.1460484,11.2831897 84.1460484,11.8987069 C84.1460484,12.8780172 86.7439032,13.2392241 86.7439032,15.1366379 C86.7439032,17.1556034 84.9931935,17.7564655 83.2715484,17.7564655 C82.4722742,17.7564655 81.6610323,17.6409483 80.931,17.2926724 L81.3635484,15.6814655 C81.9303065,15.9987069 82.4953548,16.2831897 83.2715484,16.2831897 C83.946871,16.2831897 84.6495484,16.0581897 84.6495484,15.4262931 C84.6495484,14.1737069 82.0482742,14.0547414 82.0482742,12.1125 C82.0482742,10.2866379 83.7972742,9.64008621 85.3855645,9.64008621 C86.1138871,9.64008621 86.8627258,9.77284483 87.2559516,9.88060345 L86.8216935,11.4012931" id="Fill-17" fill="#414141"></path>
                    <path d="M88.1001048,9.81853448 L89.551621,9.81853448 L89.8927016,8.2237069 L92.0434758,7.51422414 L91.5502339,9.81853448 L93.3445403,9.81853448 L93.0308145,11.2943966 L91.2330887,11.2943966 L90.505621,14.6849138 C90.45775,14.8668103 90.4150081,15.1357759 90.4150081,15.4392241 C90.4150081,15.9064655 90.7312984,16.1918103 91.1792339,16.1918103 C91.5339919,16.1918103 91.8947339,16.1159483 92.148621,16.0150862 L91.8075403,17.5762931 C91.4587661,17.6538793 91.072379,17.7564655 90.7312984,17.7564655 C89.3721048,17.7564655 88.4155403,17.2211207 88.4155403,15.725431 C88.4155403,15.1237069 88.5335081,14.5366379 88.6642984,13.9176724 L89.2327661,11.2943966 L87.786379,11.2943966 L88.1001048,9.81853448" id="Fill-19" fill="#414141"></path>
                    <path d="M101.672806,10.8581897 C101.736065,10.5262931 101.793339,10.1814655 101.851468,9.82025862 L103.762887,9.82025862 L103.491048,11.2831897 L103.526952,11.2831897 C103.882565,10.4366379 104.869903,9.64008621 105.795694,9.64008621 C106.05129,9.64008621 106.318855,9.65560345 106.55479,9.71422414 L106.137629,11.6883621 C105.914516,11.6125 105.632419,11.5668103 105.377677,11.5668103 C103.958645,11.5668103 103.2705,12.8461207 103.014048,14.0987069 L102.301113,17.5771552 L100.295661,17.5771552 L101.672806,10.8581897" id="Fill-21" fill="#414141"></path>
                    <path d="M100.282839,12.5909483 C100.282839,10.6168103 99.0287903,9.63922414 97.1310484,9.63922414 C94.605,9.63922414 92.7534194,11.9599138 92.7534194,14.3693966 C92.7534194,16.675431 94.2493871,17.7556034 96.4574355,17.7556034 C97.2780806,17.7556034 98.1312097,17.5616379 98.9082581,17.3237069 L99.157871,15.725431 C98.415871,16.0728448 97.6251452,16.2814655 96.8027903,16.2814655 C95.5179677,16.2814655 94.7742581,15.824569 94.679371,14.6038793 L94.6768065,14.6038793 C94.6699677,14.5331897 94.6665484,14.4633621 94.6665484,14.3883621 C94.6665484,14.375431 94.6674032,14.3625 94.6674032,14.3452586 L94.6674032,14.3193966 C94.6768065,13.7935345 94.7922097,13.2693966 94.9956613,12.7866379 C95.3752097,11.7969828 95.9188871,11.1168103 97.1028387,11.1168103 C97.9397258,11.1168103 98.3722742,11.5823276 98.3722742,12.4099138 C98.3722742,12.5909483 98.3517581,12.7564655 98.3252581,12.9392241 L95.590629,12.9392241 C95.4076935,13.5461207 95.3752097,13.9538793 95.3743548,14.3193966 L100.08879,14.3193966 C100.209323,13.750431 100.282839,13.1788793 100.282839,12.5909483" id="Fill-23" fill="#414141"></path>
                    <path d="M108.235403,9.73577586 L110.305823,9.73577586 L111.090565,15.4969828 L111.121339,15.4969828 L114.19021,9.73577586 L116.335,9.73577586 L111.787258,17.5849138 L109.54929,17.5849138 L108.235403,9.73577586 Z" id="Fill-25" fill="#009CDE"></path>
                    <path d="M121.022081,12.8909483 C121.052855,12.7073276 121.066532,12.5409483 121.066532,12.3573276 C121.066532,11.5193966 120.62971,11.0469828 119.783419,11.0469828 C118.529371,11.0469828 117.984839,11.8090517 117.592468,12.8909483 L121.022081,12.8909483 Z M117.319774,14.2926724 C117.319774,15.7409483 118.090839,16.2737069 119.480806,16.2737069 C120.31171,16.2737069 121.112694,16.0599138 121.868371,15.7099138 L121.61021,17.3262931 C120.825468,17.5693966 119.96379,17.7676724 119.132887,17.7676724 C116.896629,17.7676724 115.385274,16.6711207 115.385274,14.3392241 C115.385274,11.900431 117.259081,9.55387931 119.812484,9.55387931 C121.732452,9.55387931 123.001887,10.5435345 123.001887,12.5409483 C123.001887,13.1340517 122.925806,13.7133621 122.806129,14.2926724 L117.319774,14.2926724 Z" id="Fill-27" fill="#009CDE"></path>
                    <path d="M124.566242,10.7883621 C124.626081,10.4530172 124.686774,10.1030172 124.748323,9.7375 L126.681968,9.7375 L126.410129,11.2150862 L126.439194,11.2150862 C126.8025,10.3616379 127.800097,9.55387931 128.737855,9.55387931 C128.994306,9.55387931 129.26529,9.56853448 129.508065,9.62974138 L129.084919,11.6262931 C128.858387,11.549569 128.571161,11.5047414 128.31471,11.5047414 C126.877726,11.5047414 126.182742,12.800431 125.927145,14.0650862 L125.201387,17.5849138 L123.176274,17.5849138 L124.566242,10.7883621" id="Fill-29" fill="#009CDE"></path>
                    <path d="M130.889056,6.35301724 L132.913315,6.35301724 L132.491024,8.30474138 L130.465911,8.30474138 L130.889056,6.35301724 Z M130.149621,9.73577586 L132.173879,9.73577586 L130.510363,17.5849138 L128.486105,17.5849138 L130.149621,9.73577586 Z" id="Fill-31" fill="#009CDE"></path>
                    <path d="M134.126758,11.2306034 L132.55471,11.2306034 L132.87271,9.7375 L134.443048,9.7375 C134.852516,7.74008621 135.516726,5.97284483 137.874371,5.97284483 C138.342823,5.97284483 138.796742,6.06422414 139.129274,6.17025862 L138.660823,7.69525862 C138.478742,7.60301724 138.253065,7.55818966 138.041065,7.55818966 C136.922081,7.55818966 136.665629,8.91422414 136.469016,9.7375 L138.282129,9.7375 L137.965839,11.2306034 L136.151016,11.2306034 L134.821742,17.5857759 L132.796629,17.5857759 L134.126758,11.2306034" id="Fill-33" fill="#009CDE"></path>
                    <path d="M139.767411,6.35301724 L141.791669,6.35301724 L141.369379,8.30474138 L139.344266,8.30474138 L139.767411,6.35301724 Z M139.026266,9.73577586 L141.052234,9.73577586 L139.388718,17.5849138 L137.36446,17.5849138 L139.026266,9.73577586 Z" id="Fill-35" fill="#009CDE"></path>
                    <path d="M146.792903,12.8909483 C146.822823,12.7073276 146.837355,12.5409483 146.837355,12.3573276 C146.837355,11.5193966 146.400532,11.0469828 145.554242,11.0469828 C144.298484,11.0469828 143.754806,11.8090517 143.362435,12.8909483 L146.792903,12.8909483 Z M143.090597,14.2926724 C143.090597,15.7409483 143.861661,16.2737069 145.251629,16.2737069 C146.082532,16.2737069 146.883516,16.0599138 147.639194,15.7099138 L147.382742,17.3262931 C146.59629,17.5693966 145.734613,17.7676724 144.90371,17.7676724 C142.667452,17.7676724 141.156097,16.6711207 141.156097,14.3392241 C141.156097,11.900431 143.029048,9.55387931 145.583306,9.55387931 C147.503274,9.55387931 148.77271,10.5435345 148.77271,12.5409483 C148.77271,13.1340517 148.696629,13.7133621 148.576952,14.2926724 L143.090597,14.2926724 Z" id="Fill-37" fill="#009CDE"></path>
                    <path d="M151.37954,14.3237069 C151.37954,15.1159483 151.622315,16.1831897 152.618202,16.1831897 C154.099637,16.1831897 154.976702,14.4452586 154.976702,12.9987069 C154.976702,12.0840517 154.538169,11.1383621 153.510653,11.1383621 C152.059137,11.1383621 151.37954,13.150431 151.37954,14.3237069 L151.37954,14.3237069 Z M158.588395,6.15560345 L156.488056,15.8487069 C156.365815,16.5185345 156.246137,17.1892241 156.200831,17.5849138 L154.310782,17.5849138 L154.50825,16.4280172 L154.477476,16.4280172 C153.873105,17.2797414 153.117427,17.7685345 151.938605,17.7685345 C150.094718,17.7685345 149.263815,16.2125 149.263815,14.5073276 C149.263815,12.1607759 150.53325,9.55387931 153.177266,9.55387931 C154.174863,9.55387931 154.946782,9.93491379 155.580218,10.6659483 L156.562427,6.15560345 L158.588395,6.15560345 Z" id="Fill-39" fill="#009CDE"></path>
                    <path id="Fill-42" fill="#424343" d="M0,14.6456897 L0.0512903226,14.6689655 L0.0085483871,14.6258621 L0,14.6456897 Z"></path>
                    <path id="Fill-44" fill="#424343" d="M0,14.6185345 L0.0085483871,14.6280172 L0.0230806452,14.5952586 L0,14.6185345 Z"></path>
                    <path id="Fill-46" fill="#424343" d="M6.25870161,15.8935345 C6.27066935,15.9168103 6.27665323,15.9409483 6.28691129,15.9650862 C6.29802419,15.9581897 6.3091371,15.9521552 6.32025,15.9452586 C6.29973387,15.9271552 6.27921774,15.9107759 6.25870161,15.8935345"></path>
                    <path d="M8.03719355,1.99396552 C8.00129032,3.15775862 8.6013871,4.29051724 9.65198387,4.88706897 L2.54827419,12.0508621 L7.3028871,1.65258621 L8.03719355,1.99396552 Z M18.7491774,7.11896552 C18.3106452,7.5612069 17.7361935,7.78189655 17.1617419,7.78189655 C16.5864355,7.78189655 16.0119839,7.5612069 15.5734516,7.11896552 C14.6963871,6.23448276 14.6963871,4.8 15.5734516,3.91551724 L13.0944194,1.41465517 L10.5829032,3.94827586 C10.5196452,3.92758621 10.4580968,3.90258621 10.3982581,3.87413793 C9.42459677,3.42327586 9.00059677,2.26034483 9.4493871,1.27931034 L6.69851613,0 L0.0247903226,14.5956897 L0.00940322581,14.6275862 L2.4798871,17.1198276 C2.91841935,16.6775862 3.49287097,16.4560345 4.06903226,16.4560345 C4.46995161,16.4560345 4.87001613,16.5663793 5.22562903,16.7818966 C5.38548387,16.6189655 5.55730645,16.4681034 5.7393871,16.3284483 C5.91291935,16.1948276 6.09585484,16.075 6.28733871,15.9646552 C6.27708065,15.9413793 6.27024194,15.9172414 6.25998387,15.8939655 C5.63595161,15.4 4.87258065,15.1293103 4.06903226,15.1293103 C3.81087097,15.1293103 3.55869355,15.1586207 3.3125,15.212069 C3.08682258,15.2612069 2.86712903,15.3310345 2.65683871,15.4215517 L2.24053226,15.0025862 L1.86098387,14.6189655 L11.7839516,4.6112069 L13.0944194,3.29137931 L13.8894194,4.09310345 C13.6996452,4.53793103 13.6013387,5.01982759 13.6013387,5.51810345 C13.6013387,5.69137931 13.6167258,5.86293103 13.6406613,6.03275862 C13.6885323,6.36637931 13.7808548,6.68706897 13.9150645,6.98965517 C14.0911613,7.38103448 14.3330806,7.74310345 14.6433871,8.05603448 C15.317,8.73534483 16.2103065,9.10862069 17.1617419,9.10862069 C17.654129,9.10862069 18.1336935,9.00775862 18.5722258,8.81637931 L19.3697903,9.61982759 L12.1994032,16.8491379 C12.3507097,17.0112069 12.4917581,17.1801724 12.6216935,17.3612069 C12.7533387,17.5439655 12.8730161,17.7362069 12.9790161,17.937931 L21.2290645,9.61982759 L18.7491774,7.11896552 Z" id="Fill-48" fill="#414141"></path>
                    <path d="M12.3930242,18.5275862 C12.2981371,18.3172414 12.1878629,18.1146552 12.0604919,17.925 C11.9365403,17.7405172 11.7954919,17.5698276 11.6441855,17.4077586 C10.899621,16.6155172 9.84816935,16.1172414 8.67960484,16.1172414 C8.03591129,16.1172414 7.43068548,16.2715517 6.88957258,16.537931 C6.73655645,16.612931 6.58952419,16.6956897 6.44762097,16.7887931 C6.40487903,16.8172414 6.3621371,16.8465517 6.32025,16.8767241 C6.14244355,17.0043103 5.97318548,17.1448276 5.81675,17.3008621 C5.06192742,18.0482759 4.59433065,19.0862069 4.59433065,20.237069 C4.59433065,22.512069 6.42283065,24.3568966 8.67960484,24.3568966 C10.9355242,24.3568966 12.764879,22.512069 12.764879,20.237069 C12.764879,19.6267241 12.6289597,19.0491379 12.3930242,18.5275862" id="Fill-50" fill="#009CDE"></path>
                    <path d="M8.22183871,22.7392241 L6.06764516,20.5625 L7.00027419,19.6176724 L8.22098387,20.8547414 L10.8017419,18.2478448 L11.7369355,19.1909483 L8.22183871,22.7392241 Z" id="Fill-52" fill="#FFFFFF"></path>
                    <path d="M105.824758,15.9362069 L106.201742,15.9362069 C106.44879,15.9362069 106.6095,15.8810345 106.6095,15.6258621 C106.6095,15.4 106.412032,15.3336207 106.201742,15.3336207 L105.824758,15.3336207 L105.824758,15.9362069 Z M105.499065,15.0775862 L106.255597,15.0775862 C106.712935,15.0775862 106.930065,15.262931 106.930065,15.6362069 C106.930065,15.9568966 106.730032,16.187069 106.424,16.187069 L106.983919,17.062931 L106.643694,17.062931 L106.091468,16.187069 L105.824758,16.187069 L105.824758,17.062931 L105.499065,17.062931 L105.499065,15.0775862 Z M106.151306,17.5137931 C106.919806,17.5137931 107.505371,16.8887931 107.505371,16.0732759 C107.505371,15.262931 106.919806,14.6327586 106.151306,14.6327586 C105.368274,14.6327586 104.783565,15.262931 104.783565,16.0732759 C104.783565,16.8887931 105.368274,17.5137931 106.151306,17.5137931 L106.151306,17.5137931 Z M106.142758,14.3836207 C107.066839,14.3836207 107.825935,15.1396552 107.825935,16.0732759 C107.825935,17.0112069 107.066839,17.7689655 106.142758,17.7689655 C105.217823,17.7689655 104.465565,17.0112069 104.465565,16.0732759 C104.465565,15.1396552 105.217823,14.3836207 106.142758,14.3836207 L106.142758,14.3836207 Z" id="Fill-54" fill="#414141"></path>
                </g>
            </g>
        </g>
    </g>
</svg>