<?xml version="1.0" encoding="UTF-8" standalone="no"?>
<svg width="129px" height="18px" viewBox="0 0 129 18" version="1.1" xmlns="http://www.w3.org/2000/svg" xmlns:xlink="http://www.w3.org/1999/xlink">
    <!-- Generator: sketchtool 3.6.1 (26313) - http://www.bohemiancoding.com/sketch -->
    <title>TM-BlueLogo + shape</title>
    <desc>Created with sketchtool.</desc>
    <defs></defs>
    <g id="13.x-Widget" stroke="none" stroke-width="1" fill="none" fill-rule="evenodd">
        <g id="13.1.2-Widgets-Oldschool-Desktop" transform="translate(-1093.000000, -1311.000000)" fill="#009CDE">
            <g id="TM-BlueLogo-+-shape" transform="translate(1093.000000, 1311.000000)">
                <path d="M76.2280057,15.0873076 C78.4943011,15.0873076 79.1972045,13.5526393 79.6721591,11.7060728 L78.6075426,11.7060728 C77.1346705,11.7060728 74.6873352,11.9510586 74.6873352,13.886122 C74.6873352,14.6869124 75.457304,15.0873076 76.2280057,15.0873076 L76.2280057,15.0873076 Z M79.1972045,15.2430768 L79.1513949,15.2430768 C78.1091335,16.5334788 77.0665057,17.2677165 75.3895057,17.2677165 C73.2829943,17.2677165 71.787767,16.1104198 71.787767,13.9976427 C71.787767,10.2156531 76.0924091,9.92677854 78.9476335,9.92677854 L80.0126165,9.92677854 C80.1031364,9.61488041 80.1031364,9.28139764 80.1031364,8.94755512 C80.1031364,7.7913376 78.834392,7.45749508 77.7694091,7.45749508 C76.4321335,7.45749508 75.1403011,7.7913376 73.9393551,8.34714222 L74.3695994,5.9670753 C75.6614318,5.52279134 76.9759858,5.27744587 78.335983,5.27744587 C80.6697102,5.27744587 82.8678409,6.12284449 82.8678409,8.81409006 C82.8678409,10.3491181 81.7123381,14.8430413 81.4404119,17.0007864 L78.8794688,17.0007864 L79.1972045,15.2430768 L79.1972045,15.2430768 Z" id="Fill-1"></path>
                <path d="M0.4756875,5.53394341 L2.67418466,5.53394341 L3.19531534,3.17618061 L6.45842898,2.13040453 L5.71044886,5.53394341 L8.4300767,5.53394341 L7.95402273,7.71399262 L5.23439489,7.71399262 L4.12433523,12.7191122 C4.05617045,12.9860423 3.98837216,13.3867972 3.98837216,13.8310812 C3.98837216,14.5210704 4.46442614,14.9434099 5.14424148,14.9434099 C5.68809375,14.9434099 6.23194602,14.832249 6.61748011,14.6764798 L6.09598295,16.9899941 C5.5744858,17.101155 4.98555682,17.257284 4.46442614,17.257284 C2.40225852,17.257284 0.951741477,16.4564936 0.951741477,14.2537805 C0.951741477,13.3644931 1.13314773,12.4967904 1.33690909,11.5851988 L2.19813068,7.71399262 L0,7.71399262 L0.4756875,5.53394341" id="Fill-3"></path>
                <path d="M10.787625,0.595376476 L13.8238892,0.595376476 L13.189517,3.44311073 L10.1528864,3.44311073 L10.787625,0.595376476 L10.787625,0.595376476 Z M9.67683239,5.53394341 L12.7134631,5.53394341 L10.2210511,16.9899941 L7.18442045,16.9899941 L9.67683239,5.53394341 L9.67683239,5.53394341 Z" id="Fill-4"></path>
                <path d="M21.8841903,8.15935581 C21.2941619,7.78090502 20.5014716,7.58052756 19.6629716,7.58052756 C17.2379915,7.58052756 15.8783608,9.80518504 15.8783608,11.9632899 C15.8783608,13.4526304 16.3767699,14.9434099 18.4620256,14.9434099 C19.2100057,14.9434099 20.1390256,14.7430325 20.9317159,14.3653012 L20.5919915,16.7234237 C19.6629716,17.1680674 18.6661534,17.257284 17.6689687,17.257284 C14.6546932,17.257284 12.705767,15.2779719 12.705767,12.3190768 C12.705767,8.31476526 15.4026733,5.26773278 19.5951733,5.26773278 C20.728321,5.26773278 21.8156591,5.46775049 22.6321705,5.71201673 L21.8841903,8.15935581" id="Fill-5"></path>
                <path d="M25.2143693,0.306501969 L28.251,0.306501969 L26.2339091,9.69402411 L26.2797187,9.69402411 L30.5172955,5.53394341 L34.4602244,5.53394341 L28.863017,10.7617446 L32.3753352,16.9899941 L28.9535369,16.9899941 L25.9392614,10.9178735 L25.8938182,10.9178735 L24.5796307,16.9899941 L21.6111648,16.9899941 L25.2143693,0.306501969" id="Fill-6"></path>
                <path d="M45.4065341,5.53394341 L47.6046648,5.53394341 L48.1257955,3.17618061 L51.3892756,2.13040453 L50.6412955,5.53394341 L53.3609233,5.53394341 L52.8852358,7.71399262 L50.1652415,7.71399262 L49.0548153,12.7191122 C48.987017,12.9860423 48.9188523,13.3867972 48.9188523,13.8310812 C48.9188523,14.5210704 49.3949063,14.9434099 50.0750881,14.9434099 C50.6189403,14.9434099 51.1627926,14.832249 51.5475938,14.6764798 L51.0260966,16.9899941 C50.5053324,17.101155 49.9160369,17.257284 49.3949063,17.257284 C47.3327386,17.257284 45.8822216,16.4564936 45.8822216,14.2537805 C45.8822216,13.3644931 46.0636278,12.4967904 46.2677557,11.5851988 L47.1289773,7.71399262 L44.9304801,7.71399262 L45.4065341,5.53394341" id="Fill-7"></path>
                <path d="M44.3910256,9.62747146 C44.3910256,6.7128248 42.4871761,5.26773278 39.6095966,5.26773278 C35.7795426,5.26773278 32.9693949,8.69357579 32.9693949,12.2525241 C32.9693949,15.656063 35.2356903,17.257284 38.5896903,17.257284 C39.8357131,17.257284 41.1279119,16.9684094 42.3057699,16.6126225 L42.6916705,14.2537805 C41.5577898,14.7660561 40.3568438,15.0772347 39.110821,15.0772347 C37.1684915,15.0772347 36.0335114,14.3998366 35.8876534,12.5985979 L35.8850881,12.5985979 C35.8795909,12.4939124 35.869696,12.3921048 35.869696,12.2823829 C35.869696,12.261158 35.8711619,12.2395733 35.8711619,12.2187082 C35.8711619,12.2075561 35.870429,12.1971235 35.870429,12.185252 L35.8726278,12.185252 C35.8861875,11.4006501 36.0613636,10.6268406 36.3659063,9.91274852 C36.9493381,8.45470571 37.7746449,7.44742224 39.5637869,7.44742224 C40.8328977,7.44742224 41.490358,8.13669193 41.490358,9.36054134 C41.490358,9.62747146 41.4672699,9.8717377 41.4221932,10.1390276 L37.2670739,10.1390276 C36.9977131,11.0391073 36.9504375,11.6423981 36.9449403,12.185252 L44.0963778,12.185252 C44.2770511,11.3398533 44.3910256,10.4948145 44.3910256,9.62747146" id="Fill-8"></path>
                <path d="M54.6710795,6.80204134 C54.7615994,6.35739764 54.8521193,5.89009006 54.9202841,5.53394341 L57.7531534,5.53394341 L57.4812273,7.06897146 L57.526304,7.06897146 C58.3420824,5.89009006 59.6789915,5.26773278 61.1064205,5.26773278 C62.4891392,5.26773278 63.9165682,6.06816339 64.0752528,7.44742224 L64.120696,7.44742224 C64.8910312,5.95700246 66.5907528,5.26773278 68.2223097,5.26773278 C69.967108,5.26773278 71.4627017,6.66857628 71.4627017,8.40398179 C71.4627017,9.427094 71.191142,10.5843907 70.9419375,11.5182864 L69.7179034,16.9899941 L66.6812727,16.9899941 L67.9053068,11.406406 C68.063625,10.7171363 68.2904744,9.6490561 68.2904744,8.95978642 C68.2904744,8.11474754 67.6333807,7.58052756 66.862679,7.58052756 C64.7547017,7.58052756 64.233571,9.98289862 63.8487699,11.5405906 L62.6474574,16.9899941 L59.6111932,16.9899941 L60.8348608,11.406406 C60.9935455,10.7171363 61.2203949,9.6490561 61.2203949,8.95978642 C61.2203949,8.11474754 60.5629347,7.58052756 59.792233,7.58052756 C57.7300653,7.58052756 57.163125,10.0052028 56.7783239,11.5405906 L55.5770114,16.9899941 L52.5407472,16.9899941 L54.6710795,6.80204134" id="Fill-9"></path>
                <path d="M91.8883125,7.86652411 C91.5621477,7.69240797 90.7236477,7.44742224 89.8624261,7.44742224 C88.9561278,7.44742224 87.8233466,7.69240797 87.8233466,8.60363976 C87.8233466,10.0494513 91.7659091,10.5843907 91.7659091,13.3867972 C91.7659091,16.3676368 89.1148125,17.257284 86.5087926,17.257284 C85.285125,17.257284 84.0610909,17.0799301 82.9506648,16.5680143 L83.608125,14.1875876 C84.4689801,14.6545354 85.3302017,15.0772347 86.5087926,15.0772347 C87.5286989,15.0772347 88.5936818,14.7430325 88.5936818,13.8098563 C88.5936818,11.9632899 84.6507528,11.784497 84.6507528,8.91553789 C84.6507528,6.22393258 87.3018494,5.26773278 89.704108,5.26773278 C90.8145341,5.26773278 91.9473153,5.46775049 92.5457727,5.6195625 L91.8883125,7.86652411" id="Fill-10"></path>
                <path d="M93.8277102,5.53394341 L96.0262074,5.53394341 L96.5473381,3.17618061 L99.8108182,2.13040453 L99.0628381,5.53394341 L101.782099,5.53394341 L101.306412,7.71399262 L98.5867841,7.71399262 L97.476358,12.7191122 C97.4085597,12.9860423 97.3407614,13.3867972 97.3407614,13.8310812 C97.3407614,14.5210704 97.8168153,14.9434099 98.4966307,14.9434099 C99.0401165,14.9434099 99.5839688,14.832249 99.9691364,14.6764798 L99.4483722,16.9899941 C98.926875,17.101155 98.337946,17.257284 97.8168153,17.257284 C95.7542813,17.257284 94.3041307,16.4564936 94.3041307,14.2537805 C94.3041307,13.3644931 94.4855369,12.4967904 94.6889318,11.5851988 L95.5508864,7.71399262 L93.3523892,7.71399262 L93.8277102,5.53394341" id="Fill-11"></path>
                <path d="M114.416037,7.06897146 C114.506557,6.57971949 114.597443,6.06816339 114.687963,5.53394341 L117.588997,5.53394341 L117.180741,7.69240797 L117.226551,7.69240797 C117.770403,6.44625443 119.265631,5.26773278 120.670705,5.26773278 C121.056239,5.26773278 121.464494,5.28895768 121.826574,5.37853396 L121.192202,8.29282087 C120.852111,8.1813002 120.4215,8.11474754 120.036699,8.11474754 C117.883645,8.11474754 116.841017,10.0052028 116.455849,11.8517692 L115.368145,16.9899941 L112.331514,16.9899941 L114.416037,7.06897146" id="Fill-12"></path>
                <path d="M112.308793,9.62747146 C112.308793,6.7128248 110.40531,5.26773278 107.526997,5.26773278 C103.697676,5.26773278 100.887162,8.69357579 100.887162,12.2525241 C100.887162,15.656063 103.153091,17.257284 106.507457,17.257284 C107.75348,17.257284 109.045679,16.9684094 110.223903,16.6126225 L110.609071,14.2537805 C109.475923,14.7660561 108.274977,15.0772347 107.028955,15.0772347 C105.085892,15.0772347 103.951278,14.3998366 103.805054,12.5985979 L103.802855,12.5985979 C103.797358,12.4939124 103.787463,12.3921048 103.787463,12.2823829 C103.787463,12.261158 103.788562,12.2395733 103.789295,12.2187082 C103.789295,12.2075561 103.788196,12.1971235 103.788196,12.185252 L103.790395,12.185252 C103.803588,11.4006501 103.979131,10.6268406 104.28404,9.91274852 C104.866739,8.45470571 105.692045,7.44742224 107.481554,7.44742224 C108.750298,7.44742224 109.407759,8.13669193 109.407759,9.36054134 C109.407759,9.62747146 109.385037,9.8717377 109.33996,10.1390276 L105.184841,10.1390276 C104.91548,11.0391073 104.867838,11.6423981 104.862707,12.185252 L112.014145,12.185252 C112.195185,11.3398533 112.308793,10.4948145 112.308793,9.62747146" id="Fill-13"></path>
                <path d="M125.976223,7.40812182 L126.551556,7.40812182 C126.924477,7.40812182 127.165882,7.33044029 127.165882,6.94380621 C127.165882,6.60647684 126.862796,6.50751271 126.551556,6.50751271 L125.976223,6.50751271 L125.976223,7.40812182 L125.976223,7.40812182 Z M125.491284,6.12726341 L126.629543,6.12726341 C127.312995,6.12726341 127.649403,6.40287321 127.649403,6.96615295 C127.649403,7.44323812 127.34738,7.78837112 126.881584,7.78837112 L127.728454,9.10470054 L127.213384,9.10470054 L126.382465,7.78837112 L125.976223,7.78837112 L125.976223,9.10470054 L125.491284,9.10470054 L125.491284,6.12726341 L125.491284,6.12726341 Z M126.469315,9.77935928 C127.634869,9.77935928 128.514707,8.83618495 128.514707,7.61988379 C128.514707,6.40287321 127.634869,5.45934417 126.469315,5.45934417 C125.288163,5.45934417 124.406553,6.40287321 124.406553,7.61988379 C124.406553,8.83618495 125.288163,9.77935928 126.469315,9.77935928 L126.469315,9.77935928 Z M126.461162,5.07874016 C127.858905,5.07874016 129,6.2177145 129,7.61988379 C129,9.01886068 127.858905,10.1574803 126.461162,10.1574803 C125.062709,10.1574803 123.92126,9.01886068 123.92126,7.61988379 C123.92126,6.2177145 125.062709,5.07874016 126.461162,5.07874016 L126.461162,5.07874016 Z" id="Fill-15"></path>
            </g>
        </g>
    </g>
</svg>