<?xml version="1.0" encoding="UTF-8" standalone="no"?>
<svg width="34px" height="123px" viewBox="0 0 34 123" version="1.1" xmlns="http://www.w3.org/2000/svg" xmlns:xlink="http://www.w3.org/1999/xlink">
    <!-- Generator: sketchtool 3.6.1 (26313) - http://www.bohemiancoding.com/sketch -->
    <title>98D2E366-11C6-4410-B6B4-404ED3F97BF0</title>
    <desc>Created with sketchtool.</desc>
    <defs>
        <path id="path-1" d="M121.688343,0.23425 L-7.53061227e-05,0.23425 L-7.53061227e-05,33.55345 L121.688343,33.55345 L121.688343,0.23425 L121.688343,0.23425 Z"></path>
        <path id="path-3" d="M0.118506735,12.75 L12.7157149,12.75 L12.7157149,0.203825 L0.118506735,0.203825 L0.118506735,12.75 L0.118506735,12.75 Z"></path>
        <path id="path-5" d="M0,33.76575 L123,33.76575 L123,0.25 L0,0.25 L0,33.76575 Z"></path>
    </defs>
    <g id="13.x-Widget" stroke="none" stroke-width="1" fill="none" fill-rule="evenodd">
        <g id="13.1-Widget-Color-Block-300x600" transform="translate(-1198.000000, -979.000000)">
            <g id="Newskool-Horizontal-Copy" transform="translate(637.000000, 890.000000)">
                <g id="ticketmaster_verified_logo" transform="translate(578.500000, 150.500000) rotate(-90.000000) translate(-578.500000, -150.500000) translate(517.000000, 133.000000)">
                    <g id="Group-3" transform="translate(0.251020, 0.015750)">
                        <mask id="mask-2" fill="white">
                            <use xlink:href="#path-1"></use>
                        </mask>
                        <g id="Clip-2"></g>
                        <path d="M121.523925,14.10795 C121.523925,6.58945 117.6065,3.3557 110.057312,3.3557 L21.9852961,3.24995 L21.2621063,2.5312 L20.6568961,1.9167 L19.7522186,2.82295 L17.2575778,5.3072 C16.7698451,4.88095 16.6154676,4.38545 16.9006267,3.76945 L17.3753063,2.7382 L11.8528573,0.2342 L10.3899104,3.40995 C2.88239204,3.4392 -7.53061227e-05,9.52495 -7.53061227e-05,17.0257 L-7.53061227e-05,17.18795 C-7.53061227e-05,24.62195 2.31307776,30.79695 9.66320633,30.9347 C10.7649349,32.5157 12.586088,33.55345 14.6605206,33.55345 C16.7176329,33.55345 18.5320084,32.53245 19.6367492,30.9737 L110.054802,31.2747 C117.60399,31.2747 121.688343,28.5432 121.688343,21.0247 L121.523925,14.10795 Z" id="Fill-1" fill="#FFFFFF" mask="url(#mask-2)"></path>
                    </g>
                    <g id="Group-6" transform="translate(8.785714, 21.015750)">
                        <mask id="mask-4" fill="white">
                            <use xlink:href="#path-3"></use>
                        </mask>
                        <g id="Clip-5"></g>
                        <path d="M12.1428863,3.874075 C11.9957884,3.553825 11.8273537,3.245575 11.6305537,2.957075 C11.4390251,2.676075 11.2213904,2.415075 10.9879414,2.169325 C9.83977408,0.961325 8.21893531,0.203825 6.41711082,0.203825 C5.42608224,0.203825 4.49203531,0.438075 3.65789449,0.844325 C3.42268837,0.958825 3.19400878,1.084325 2.97637408,1.226325 C2.90960265,1.269575 2.84509041,1.315075 2.78057816,1.360825 C2.50470673,1.555575 2.24389653,1.769325 2.00341898,2.004575 C0.840943469,3.142825 0.118506735,4.725325 0.118506735,6.476825 C0.118506735,9.941325 2.93847,12.750075 6.41711082,12.750075 C9.89575163,12.750075 12.7157149,9.941325 12.7157149,6.476825 C12.7157149,5.547325 12.5071169,4.667825 12.1428863,3.874075" id="Fill-4" fill="#FFFFFF" mask="url(#mask-4)"></path>
                    </g>
                    <path d="M9.66428571,30.484425 C4.9594102,30.196925 1.25510204,26.337175 1.25510204,21.580175 L1.25510204,12.915175 C1.25510204,8.138925 5.0455102,4.226175 9.77875102,3.967675 C9.90576735,3.960675 10.0917735,3.949175 10.3912408,3.953175 L10.9585469,2.730425 L10.2976102,2.703175 C4.64237143,2.703175 0,7.282925 0,12.915175 L0,21.580175 C0,27.212675 4.64237143,31.703175 10.0192286,31.703175 L10.5350755,31.703175 C9.9740449,31.089925 9.66428571,30.484425 9.66428571,30.484425" id="Fill-7" fill="#009CDE"></path>
                    <path d="M85.1303835,16.144375 C86.5800263,16.144375 87.0265916,15.151375 87.3293222,13.956875 L86.6520692,13.956875 C85.7102406,13.956875 84.1516549,14.115125 84.1516549,15.366875 C84.1516549,15.882625 84.644408,16.144375 85.1303835,16.144375 M87.0265916,16.244375 L86.9979753,16.244375 C86.3337753,17.078125 85.6690733,17.552125 84.5992243,17.552125 C83.2527508,17.552125 82.3006304,16.805625 82.3006304,15.437875 C82.3006304,12.988625 85.0457896,12.801625 86.8694529,12.801625 L87.5467059,12.801625 C87.6072018,12.599625 87.6072018,12.384125 87.6072018,12.166875 C87.6072018,11.420375 86.7943978,11.204875 86.1178978,11.204875 C85.2609141,11.204875 84.4400773,11.420375 83.672708,11.777625 L83.9463202,10.240125 C84.7709222,9.952875 85.6108365,9.793375 86.477108,9.793375 C87.9684202,9.793375 89.3668549,10.340875 89.3668549,12.081625 C89.3668549,13.076875 88.630612,15.984375 88.4589141,17.382125 L86.8247712,17.382125 L87.0265916,16.244375" id="Fill-9" fill="#53565A"></path>
                    <path d="M36.8076747,9.95805 L38.2061094,9.95805 L38.5394645,8.4343 L40.6214278,7.75605 L40.1464971,9.95805 L41.8782869,9.95805 L41.5763094,11.3688 L39.8387461,11.3688 L39.1323747,14.6093 C39.0876931,14.7833 39.0457727,15.04055 39.0457727,15.33105 C39.0457727,15.77655 39.3495073,16.0498 39.7852788,16.0498 C40.1294278,16.0498 40.4780951,15.97705 40.7218359,15.88055 L40.3917441,17.37255 C40.0558788,17.44705 39.6816073,17.54505 39.3495073,17.54505 C38.0359176,17.54505 37.1083971,17.0333 37.1083971,15.60405 C37.1083971,15.0293 37.2248706,14.46755 37.3541461,13.87655 L37.9036298,11.3688 L36.4979155,11.3688 L36.8076747,9.95805 Z" id="Fill-11" fill="#53565A"></path>
                    <path d="M43.3852378,6.762 L45.31935,6.762 L44.9164622,8.60625 L42.9770786,8.60625 L43.3852378,6.762 Z M42.67485,9.95775 L44.6084602,9.95775 L43.0230153,17.3725 L41.0841337,17.3725 L42.67485,9.95775 Z" id="Fill-13" fill="#53565A"></path>
                    <path d="M50.4662222,11.657975 C50.0876835,11.414725 49.5796182,11.283475 49.0454467,11.283475 C47.49891,11.283475 46.6296263,12.725225 46.6296263,14.119975 C46.6296263,15.084475 46.9519365,16.050225 48.2813406,16.050225 C48.7557692,16.050225 49.3489304,15.919975 49.8557406,15.674725 L49.6398631,17.202725 C49.0454467,17.489725 48.4098631,17.545225 47.7752835,17.545225 C45.85071,17.545225 44.6074059,16.266475 44.6074059,14.351975 C44.6074059,11.758725 46.3271467,9.786975 49.0005141,9.786975 C49.7224488,9.786975 50.4185284,9.913475 50.9411529,10.076225 L50.4662222,11.657975 Z" id="Fill-15" fill="#53565A"></path>
                    <path d="M52.5858135,6.57885 L54.5244441,6.57885 L53.2369604,12.6531 L53.2680869,12.6531 L55.9690665,9.95835 L58.4847931,9.95835 L54.9145298,13.34285 L57.1546359,17.3726 L54.9745237,17.3726 L53.0481931,13.4441 L53.0218359,13.4441 L52.1839298,17.3726 L50.2904829,17.3726 L52.5858135,6.57885 Z" id="Fill-17" fill="#53565A"></path>
                    <path d="M65.4708667,9.95805 L66.8715606,9.95805 L67.2054178,8.4343 L69.28713,7.75605 L68.8084341,9.95805 L70.5447422,9.95805 L70.2445218,11.3688 L68.5049504,11.3688 L67.7950647,14.6093 C67.7554035,14.7833 67.7107218,15.04055 67.7107218,15.33105 C67.7107218,15.77655 68.0142055,16.0498 68.4479688,16.0498 C68.7926198,16.0498 69.139781,15.97705 69.38553,15.88055 L69.05343,17.37255 C68.7230871,17.44705 68.3460545,17.54505 68.0142055,17.54505 C66.6988586,17.54505 65.7738484,17.0333 65.7738484,15.60405 C65.7738484,15.0293 65.8888157,14.46755 66.0185933,13.87655 L66.569081,11.3688 L65.1638688,11.3688 L65.4708667,9.95805 Z" id="Fill-19" fill="#53565A"></path>
                    <path d="M64.8210251,12.6084 C64.8210251,10.7209 63.6093496,9.78715 61.7706251,9.78715 C59.3284476,9.78715 57.5331496,12.0049 57.5331496,14.3084 C57.5331496,16.51215 58.977772,17.54515 61.1202312,17.54515 C61.9154639,17.54515 62.7388108,17.3599 63.4888598,17.1314 L63.7363659,15.60415 C63.0129251,15.9369 62.2475639,16.1354 61.4523312,16.1354 C60.2135455,16.1354 59.4913598,15.6994 59.395219,14.5324 L59.3934618,14.5324 C59.3934618,14.4649 59.38317,14.39765 59.38317,14.3269 L59.38317,14.2854 L59.38317,14.26015 L59.3891945,14.26015 C59.3934618,13.75765 59.505919,13.2574 59.70297,12.7954 C60.0739782,11.84915 60.601121,11.1999 61.7420088,11.1999 C62.5507965,11.1999 62.9700006,11.64465 62.9700006,12.43565 C62.9700006,12.6084 62.9559435,12.76715 62.9280802,12.94115 L60.2773047,12.94115 C60.1025945,13.52215 60.0739782,13.91115 60.0709659,14.26015 L64.6332618,14.26015 C64.7474761,13.71665 64.8210251,13.17015 64.8210251,12.6084" id="Fill-21" fill="#53565A"></path>
                    <path d="M71.382071,10.77955 C71.4357894,10.4903 71.4945282,10.19305 71.5387078,9.9578 L73.3463057,9.9578 L73.1720976,10.9513 L73.2007139,10.9513 C73.7233384,10.19305 74.5727914,9.78705 75.4862547,9.78705 C76.3663322,9.78705 77.2792935,10.30505 77.3789486,11.1998 L77.4078159,11.1998 C77.8973057,10.23305 78.983722,9.78705 80.0242016,9.78705 C81.1382302,9.78705 82.0938649,10.69505 82.0938649,11.81905 C82.0938649,12.47805 81.9221669,13.2268 81.7617649,13.83155 L80.9810914,17.3728 L79.0422098,17.3728 L79.8218792,13.7608 C79.9222873,13.31255 80.0666241,12.6243 80.0666241,12.1778 C80.0666241,11.62855 79.6509343,11.2833 79.1576792,11.2833 C77.814971,11.2833 77.4808629,12.83805 77.2343608,13.84805 L76.4684976,17.3728 L74.5331302,17.3728 L75.3092853,13.7608 C75.4142118,13.31255 75.5577955,12.6243 75.5577955,12.1778 C75.5577955,11.62855 75.1378384,11.2833 74.6468424,11.2833 C73.3347588,11.2833 72.9675159,12.85155 72.7237751,13.84805 L71.9591669,17.3728 L70.0190302,17.3728 L71.382071,10.77955 Z" id="Fill-23" fill="#53565A"></path>
                    <path d="M95.1235812,11.470225 C94.9144812,11.357975 94.3803098,11.199475 93.828818,11.199475 C93.2539812,11.199475 92.5333016,11.357975 92.5333016,11.945475 C92.5333016,12.882475 95.0485261,13.226975 95.0485261,15.040725 C95.0485261,16.969975 93.3533853,17.545225 91.6871118,17.545225 C90.913969,17.545225 90.1282751,17.433225 89.4224057,17.101225 L89.8406057,15.560725 C90.3893363,15.864725 90.9370629,16.135225 91.6871118,16.135225 C92.340769,16.135225 93.0217873,15.920475 93.0217873,15.317725 C93.0217873,14.119725 90.5038016,14.005975 90.5038016,12.150225 C90.5038016,10.404975 92.1964322,9.787475 93.7341833,9.787475 C94.4390486,9.787475 95.1629914,9.913725 95.5445424,10.016975 L95.1235812,11.470225 Z" id="Fill-25" fill="#53565A"></path>
                    <path d="M96.3614633,9.95805 L97.7666755,9.95805 L98.0960143,8.4343 L100.177727,7.75605 L99.7007878,9.95805 L101.437598,9.95805 L101.132608,11.3688 L99.3932878,11.3688 L98.6896776,14.6093 C98.6434898,14.7833 98.6008163,15.04055 98.6008163,15.33105 C98.6008163,15.77655 98.9083163,16.0498 99.3408245,16.0498 C99.6847224,16.0498 100.033139,15.97705 100.278888,15.88055 L99.9490469,17.37255 C99.6114245,17.44705 99.2374041,17.54505 98.9083163,17.54505 C97.5919653,17.54505 96.6672061,17.0333 96.6672061,15.60405 C96.6672061,15.0293 96.7814204,14.46755 96.9074327,13.87655 L97.4579204,11.3688 L96.0574776,11.3688 L96.3614633,9.95805 Z" id="Fill-27" fill="#53565A"></path>
                    <path d="M109.496332,10.9513 C109.55733,10.6343 109.613057,10.30505 109.668783,9.9583 L111.519054,9.9583 L111.256738,11.3578 L111.290877,11.3578 C111.635026,10.5488 112.59041,9.7873 113.486552,9.7873 C113.73431,9.7873 113.992108,9.8023 114.221289,9.85755 L113.816895,11.74505 C113.602022,11.6723 113.32841,11.6288 113.082159,11.6288 C111.709077,11.6288 111.042618,12.8513 110.794108,14.0488 L110.105057,17.3728 L108.164167,17.3728 L109.496332,10.9513 Z" id="Fill-29" fill="#53565A"></path>
                    <path d="M108.151716,12.6084 C108.151716,10.7209 106.93753,9.78715 105.100814,9.78715 C102.656628,9.78715 100.865096,12.0049 100.865096,14.3084 C100.865096,16.51215 102.313483,17.54515 104.449165,17.54515 C105.243896,17.54515 106.069502,17.3599 106.82181,17.1314 L107.063292,15.60415 C106.345373,15.9369 105.579259,16.1354 104.783273,16.1354 C103.539969,16.1354 102.820043,15.6994 102.729173,14.5324 L102.725659,14.5324 C102.720137,14.4649 102.715618,14.39765 102.715618,14.3269 C102.715618,14.3139 102.717375,14.30115 102.717375,14.2854 L102.717375,14.26015 C102.725659,13.75765 102.837112,13.2574 103.034916,12.7954 C103.402912,11.84915 103.929051,11.1999 105.073453,11.1999 C105.883998,11.1999 106.302449,11.64465 106.302449,12.43565 C106.302449,12.6084 106.28312,12.76715 106.256512,12.94115 L103.610255,12.94115 C103.433286,13.52215 103.402912,13.91115 103.400653,14.26015 L107.964706,14.26015 C108.081179,13.71665 108.151716,13.17015 108.151716,12.6084" id="Fill-31" fill="#53565A"></path>
                    <path id="Fill-33" fill="#231F1F" d="M3.98213755,20.354075 L4.04738755,20.384325 L3.99313755,20.330075 L3.98213755,20.354075 Z"></path>
                    <path id="Fill-35" fill="#231F1F" d="M3.98213755,20.31885 L3.99313755,20.3301 L4.01238755,20.28885 L3.98213755,20.31885 Z"></path>
                    <path id="Fill-37" fill="#231F1F" d="M12.0734039,21.946075 C12.0876539,21.975575 12.0964039,22.007075 12.1094039,22.037075 C12.1239039,22.028575 12.1384039,22.019825 12.1531539,22.011825 C12.1264039,21.990075 12.1004039,21.967325 12.0734039,21.946075"></path>
                    <path d="M7.27517388,17.039225 L13.4224127,3.763475 L14.3715208,4.199475 C14.325082,5.686225 15.1004841,7.131975 16.4585045,7.893225 L7.27517388,17.039225 Z M26.1674718,11.589725 C25.4242004,11.589725 24.68118,11.307225 24.1141249,10.742725 C22.9802657,9.613225 22.9802657,7.782225 24.1141249,6.652975 L20.9090963,3.460725 L17.6616453,6.694975 C17.5818208,6.667725 17.5022473,6.636975 17.423678,6.600975 C16.1658147,6.023225 15.616331,4.539475 16.1964392,3.286725 L12.6409861,1.653725 L4.01241061,20.288725 L3.99333306,20.329975 L4.04780449,20.384225 L7.18731673,23.510975 C7.75412082,22.946225 8.49739224,22.663975 9.24041265,22.663975 C9.75952286,22.663975 10.2771269,22.804975 10.7362433,23.080475 C10.9435861,22.872225 11.1654882,22.678975 11.4001922,22.501475 C11.6251065,22.330975 11.8623208,22.176475 12.1095759,22.036975 C12.0962718,22.007225 12.0877371,21.975475 12.073429,21.945975 C11.2671514,21.315975 10.2811433,20.970975 9.24041265,20.970975 C8.90781061,20.970975 8.58098204,21.007725 8.2631902,21.075725 C7.97175551,21.138475 7.68760041,21.226975 7.41549429,21.343975 L6.87755755,20.808475 L6.38605959,20.318725 L6.80626776,19.900225 L18.3394004,8.414225 L19.2157127,7.541475 L20.9090963,5.854975 L21.7876678,6.729975 L21.938531,6.879975 C21.692782,7.446475 21.5640086,8.062225 21.5640086,8.697725 C21.5640086,8.920725 21.5850943,9.139975 21.6164718,9.356725 C21.6774698,9.781225 21.7962024,10.190975 21.9709127,10.577475 C22.1973331,11.077975 22.5111086,11.540225 22.9122392,11.939725 C23.7817739,12.805725 24.9377229,13.282475 26.1674718,13.282475 C26.8055657,13.282475 27.423829,13.154225 27.9926412,12.909475 L29.0220759,13.934725 L19.7521433,23.166975 C19.9486922,23.371975 20.1314351,23.589725 20.2986147,23.819725 C20.4690576,24.053725 20.6236861,24.299475 20.7607433,24.556475 L31.4258473,13.934725 L28.2205678,10.742725 C27.6537637,11.307225 26.9104922,11.589725 26.1674718,11.589725 L26.1674718,11.589725 Z" id="Fill-39" fill="#53565A"></path>
                    <path d="M20.0538698,25.28745 C19.9293637,25.0162 19.7865331,24.75495 19.6198555,24.51045 C19.4574453,24.27245 19.2731963,24.05145 19.0753922,23.8432 C18.1026882,22.8197 16.7293555,22.17795 15.2029004,22.17795 C14.3632371,22.17795 13.5717698,22.37645 12.8651473,22.72045 C12.6658371,22.8177 12.4720494,22.92395 12.2875494,23.0442 C12.2313208,23.08095 12.1765984,23.11945 12.1218759,23.15795 C11.8881759,23.3232 11.6670269,23.5042 11.4634494,23.7037 C10.4784453,24.66795 9.86645755,26.0087 9.86645755,27.4927 C9.86645755,30.42795 12.2556698,32.80745 15.2029004,32.80745 C18.14988,32.80745 20.5390922,30.42795 20.5390922,27.4927 C20.5390922,26.70495 20.3626249,25.95995 20.0538698,25.28745" id="Fill-41" fill="#009CDE"></path>
                    <path d="M14.6108186,30.687675 L11.8254961,27.908175 L13.0316492,26.701925 L14.6083084,28.282675 L17.9453737,24.953425 L19.1540369,26.156925 L14.6108186,30.687675 Z" id="Fill-43" fill="#FFFFFF"></path>
                    <path d="M39.2157386,26.249475 L38.0429712,26.249475 L35.8952406,20.236475 L37.2321753,20.236475 L38.3705529,23.715475 C38.482759,24.050475 38.6034998,24.488475 38.65521,24.703225 C38.7069202,24.479725 38.8191263,24.067725 38.9313324,23.715475 L40.0438549,20.236475 L41.3634692,20.236475 L39.2157386,26.249475 Z" id="Fill-45" fill="#009CDE"></path>
                    <path d="M39.2157386,26.249475 L38.0429712,26.249475 L35.8952406,20.236475 L37.2321753,20.236475 L38.3705529,23.715475 C38.482759,24.050475 38.6034998,24.488475 38.65521,24.703225 C38.7069202,24.479725 38.8191263,24.067725 38.9313324,23.715475 L40.0438549,20.236475 L41.3634692,20.236475 L39.2157386,26.249475 L39.2157386,26.249475 Z" id="Stroke-47" stroke="#009CDE" stroke-width="0.5"></path>
                    <path d="M42.1653037,26.2624 L42.1653037,20.2249 L46.3741629,20.2249 L46.3741629,21.4064 L43.3774812,21.4064 L43.3774812,22.45015 L45.1183078,22.45015 L45.1183078,23.62315 L43.3774812,23.62315 L43.3774812,25.08065 L46.5039404,25.08065 L46.5039404,26.2624 L42.1653037,26.2624 Z" id="Fill-49" fill="#009CDE"></path>
                    <path d="M50.2452741,21.3979 L48.6603312,21.3979 L48.6603312,22.9504 L50.2452741,22.9504 C50.8080618,22.9504 51.1110435,22.69165 51.1110435,22.1654 C51.1110435,21.6219 50.7822067,21.3979 50.2452741,21.3979 L50.2452741,21.3979 Z M50.9639455,26.2624 L49.8815455,24.0889 L48.6603312,24.0889 L48.6603312,26.2624 L47.4479027,26.2624 L47.4479027,20.2249 L50.2711292,20.2249 C51.4142761,20.2249 52.3583639,20.8544 52.3583639,22.13965 C52.3583639,23.0454 51.9685292,23.6144 51.1978965,23.9164 L52.3583639,26.2624 L50.9639455,26.2624 Z" id="Fill-51" fill="#009CDE"></path>
                    <mask id="mask-6" fill="white">
                        <use xlink:href="#path-5"></use>
                    </mask>
                    <g id="Clip-54"></g>
                    <path d="M53.3714571,26.26225 L54.5838857,26.26225 L54.5838857,20.22475 L53.3714571,20.22475 L53.3714571,26.26225 Z" id="Fill-53" fill="#009CDE" mask="url(#mask-6)"></path>
                    <path d="M57.095119,21.40645 L57.095119,22.5452 L58.9225476,22.5452 L58.9225476,23.71795 L57.095119,23.71795 L57.095119,26.26245 L55.8829414,26.26245 L55.8829414,20.2247 L60.2215782,20.2247 L60.2215782,21.40645 L57.095119,21.40645 Z" id="Fill-55" fill="#009CDE" mask="url(#mask-6)"></path>
                    <path d="M61.0353612,26.26225 L62.2477898,26.26225 L62.2477898,20.22475 L61.0353612,20.22475 L61.0353612,26.26225 Z" id="Fill-56" fill="#009CDE" mask="url(#mask-6)"></path>
                    <path d="M63.5468957,26.2624 L63.5468957,20.2249 L67.7557549,20.2249 L67.7557549,21.4064 L64.7590733,21.4064 L64.7590733,22.45015 L66.4998998,22.45015 L66.4998998,23.62315 L64.7590733,23.62315 L64.7590733,25.08065 L67.8855324,25.08065 L67.8855324,26.2624 L63.5468957,26.2624 Z" id="Fill-57" fill="#009CDE" mask="url(#mask-6)"></path>
                    <path d="M70.6828286,21.3979 L70.0417224,21.3979 L70.0417224,25.0894 L70.639402,25.0894 C71.9123265,25.0894 72.4926857,24.34765 72.4926857,23.24365 C72.4926857,22.01015 71.9642878,21.3979 70.6828286,21.3979 M70.639402,26.2624 L68.8295449,26.2624 L68.8295449,20.2249 L70.7260041,20.2249 C72.4580449,20.2249 73.7400061,21.03565 73.7400061,23.24365 C73.7400061,25.3654 72.1982388,26.2624 70.639402,26.2624" id="Fill-58" fill="#009CDE" mask="url(#mask-6)"></path>
                    <path d="M79.3342218,21.41525 L79.3342218,26.2625 L78.1217933,26.2625 L78.1217933,21.41525 L76.3809667,21.41525 L76.3809667,20.22475 L81.0750484,20.22475 L81.0750484,21.41525 L79.3342218,21.41525 Z" id="Fill-59" fill="#009CDE" mask="url(#mask-6)"></path>
                    <path d="M81.9842694,26.26225 L83.196698,26.26225 L83.196698,20.22475 L81.9842694,20.22475 L81.9842694,26.26225 Z" id="Fill-60" fill="#009CDE" mask="url(#mask-6)"></path>
                    <path d="M87.9596094,21.984325 C87.7432298,21.570575 87.3965706,21.328825 86.8511033,21.328825 C85.9416563,21.328825 85.4222951,22.122325 85.4222951,23.243575 C85.4222951,24.330325 85.950442,25.158325 86.859638,25.158325 C87.4053563,25.158325 87.7256584,24.925575 88.0462114,24.390825 L89.0681155,24.994575 C88.6524257,25.848325 87.9247176,26.357325 86.8249971,26.357325 C85.2403053,26.357325 84.1749747,25.149825 84.1749747,23.243575 C84.1749747,21.406325 85.2834808,20.130075 86.8681727,20.130075 C88.0115706,20.130075 88.7043869,20.682075 89.0851849,21.467075 L87.9596094,21.984325 Z" id="Fill-61" fill="#009CDE" mask="url(#mask-6)"></path>
                    <path d="M93.7794171,26.2624 L92.1337273,23.34715 L91.1637845,24.48565 L91.1637845,26.2624 L89.9516069,26.2624 L89.9516069,20.2249 L91.1637845,20.2249 L91.1637845,21.9414 C91.1637845,22.1654 91.1552498,22.7089 91.1467151,22.89865 C91.2330661,22.76065 91.4584824,22.48465 91.6229008,22.2864 L93.3203008,20.2249 L94.7840008,20.2249 L93.0085335,22.31215 L95.2343314,26.2624 L93.7794171,26.2624 Z" id="Fill-62" fill="#009CDE" mask="url(#mask-6)"></path>
                    <path d="M95.8402696,26.2624 L95.8402696,20.2249 L100.049129,20.2249 L100.049129,21.4064 L97.0524471,21.4064 L97.0524471,22.45015 L98.7932737,22.45015 L98.7932737,23.62315 L97.0524471,23.62315 L97.0524471,25.08065 L100.178906,25.08065 L100.178906,26.2624 L95.8402696,26.2624 Z" id="Fill-63" fill="#009CDE" mask="url(#mask-6)"></path>
                    <path d="M103.686389,21.41525 L103.686389,26.2625 L102.473961,26.2625 L102.473961,21.41525 L100.733134,21.41525 L100.733134,20.22475 L105.427216,20.22475 L105.427216,21.41525 L103.686389,21.41525 Z" id="Fill-64" fill="#009CDE" mask="url(#mask-6)"></path>
                    <path d="M108.086827,26.357375 C107.073458,26.357375 106.190117,25.934875 105.731001,25.261875 L106.606058,24.485625 C107.030282,24.977125 107.57575,25.175625 108.155858,25.175625 C108.87478,25.175625 109.212403,24.977125 109.212403,24.520125 C109.212403,24.132125 109.004558,23.959375 107.861662,23.700875 C106.74437,23.442125 105.964952,23.088375 105.964952,21.898125 C105.964952,20.802625 106.934895,20.130125 108.130003,20.130125 C109.074091,20.130125 109.766656,20.483625 110.33848,21.078875 L109.463674,21.924125 C109.074091,21.527375 108.64108,21.302875 108.086827,21.302875 C107.437187,21.302875 107.220807,21.579125 107.220807,21.846375 C107.220807,22.225875 107.480613,22.346625 108.44177,22.570875 C109.402927,22.795125 110.468258,23.122875 110.468258,24.433875 C110.468258,25.581125 109.740801,26.357375 108.086827,26.357375" id="Fill-65" fill="#009CDE" mask="url(#mask-6)"></path>
                    <path d="M116.642532,11.04995 L117.020066,11.04995 C117.266317,11.04995 117.426217,10.9957 117.426217,10.7447 C117.426217,10.5222 117.229166,10.45645 117.020066,10.45645 L116.642532,10.45645 L116.642532,11.04995 Z M116.319217,10.2057 L117.072279,10.2057 C117.527379,10.2057 117.744009,10.3867 117.744009,10.75545 C117.744009,11.0702 117.545954,11.29745 117.240211,11.29745 L117.79823,12.15745 L117.460607,12.15745 L116.908864,11.29745 L116.642532,11.29745 L116.642532,12.15745 L116.319217,12.15745 L116.319217,10.2057 Z M116.968105,12.60245 C117.734721,12.60245 118.317089,11.98745 118.317089,11.1852 C118.317089,10.3867 117.734721,9.7677 116.968105,9.7677 C116.187934,9.7677 115.607323,10.3867 115.607323,11.1852 C115.607323,11.98745 116.187934,12.60245 116.968105,12.60245 L116.968105,12.60245 Z M116.960826,9.5222 C117.881066,9.5222 118.637642,10.2657 118.637642,11.1852 C118.637642,12.10695 117.881066,12.8517 116.960826,12.8517 C116.037823,12.8517 115.288026,12.10695 115.288026,11.1852 C115.288026,10.2657 116.037823,9.5222 116.960826,9.5222 L116.960826,9.5222 Z" id="Fill-66" fill="#53565A" mask="url(#mask-6)"></path>
                    <path d="M112.702289,2.703175 L21.6702404,2.703175 L22.9095282,3.957175 L112.702289,3.953175 C117.665465,3.953175 121.744798,7.972175 121.744798,12.915175 L121.744798,21.580175 C121.744798,26.523425 117.665465,30.453175 112.702289,30.453175 C112.702289,30.453175 20.7620486,30.445675 20.7602914,30.449175 C20.5484302,30.863425 20.1247078,31.445425 19.88172,31.691425 L112.702289,31.703175 C118.357528,31.703175 122.9999,27.212675 122.9999,21.580175 L122.9999,12.915175 C122.9999,7.282925 118.357528,2.703175 112.702289,2.703175" id="Fill-67" fill="#009CDE" mask="url(#mask-6)"></path>
                </g>
            </g>
        </g>
    </g>
</svg>