<?xml version="1.0" encoding="UTF-8" standalone="no"?>
<svg width="105px" height="135px" viewBox="0 0 105 135" version="1.1" xmlns="http://www.w3.org/2000/svg" xmlns:xlink="http://www.w3.org/1999/xlink">
    <!-- Generator: sketchtool 40.3 (33839) - http://www.bohemiancoding.com/sketch -->
    <title>ED2F871E-DEA4-413D-9231-38314B024965</title>
    <desc>Created with sketchtool.</desc>
    <defs>
        <path d="M0,25.9491424 C0,24.8393906 0.736589317,23.4426865 1.66398974,22.816849 L20.4745645,10.1229101 C21.3935606,9.50274397 23.0403573,9 24.1383744,9 L27.055279,9 L78.0743601,9 L80.8590276,9 C81.9649326,9 83.5980351,9.49707252 84.5254355,10.1229101 L103.33601,22.816849 C104.255006,23.4370151 105,24.8411201 105,25.9491424 L105,116.050858 C105,117.160609 104.263411,118.557313 103.33601,119.183151 L84.5254355,131.87709 C83.6064394,132.497256 81.9678253,133 80.8583821,133 L24.1416179,133 C23.0353564,133 21.4019649,132.502927 20.4745645,131.87709 L1.66398974,119.183151 C0.744993585,118.562985 0,117.15888 0,116.050858 L0,25.9491424 Z" id="path-1"></path>
        <mask id="mask-2" maskContentUnits="userSpaceOnUse" maskUnits="objectBoundingBox" x="0" y="0" width="105" height="124" fill="white">
            <use xlink:href="#path-1"></use>
        </mask>
        <polygon id="path-3" points="0 44.1162791 22.3404255 29 82.6595745 29 105 44.1162791 105 94 82.6595745 94 22.3404255 94 0 94"></polygon>
        <mask id="mask-4" maskContentUnits="userSpaceOnUse" maskUnits="objectBoundingBox" x="0" y="0" width="105" height="65" fill="white">
            <use xlink:href="#path-3"></use>
        </mask>
        <path d="M29,19.5555556 L29,4.44444444 C31.4959022,4.44444444 33.5192308,2.45459889 33.5192308,5.51188541e-13 L71.4807692,2.85993451e-13 C71.4807692,2.45459889 73.5040978,4.44444444 76,4.44444444 L76,19.5555556 C73.5040978,19.5555556 71.4807692,21.5454011 71.4807692,24 L33.5192308,24 C33.5192308,21.5454011 31.4959022,19.5555556 29,19.5555556 Z" id="path-5"></path>
        <mask id="mask-6" maskContentUnits="userSpaceOnUse" maskUnits="objectBoundingBox" x="0" y="0" width="47" height="24" fill="white">
            <use xlink:href="#path-5"></use>
        </mask>
        <mask id="mask-7" maskContentUnits="userSpaceOnUse" maskUnits="objectBoundingBox" x="-2" y="-2" width="51" height="28">
            <rect x="27" y="-2" width="51" height="28" fill="white"></rect>
            <use xlink:href="#path-5" fill="black"></use>
        </mask>
        <rect id="path-8" x="1.83501445" y="7.51053223" width="50.4" height="14.5454545"></rect>
        <mask id="mask-9" maskContentUnits="userSpaceOnUse" maskUnits="objectBoundingBox" x="-2" y="-2" width="54.4" height="18.5454545">
            <rect x="-0.164985548" y="5.51053223" width="54.4" height="18.5454545" fill="white"></rect>
            <use xlink:href="#path-8" fill="black"></use>
        </mask>
    </defs>
    <g id="13.2.x-Widget-Countdown" stroke="none" stroke-width="1" fill="none" fill-rule="evenodd">
        <g id="13.1-Widget-Countdown" transform="translate(-645.000000, -935.000000)">
            <g id="ticket_box_img_small_white" transform="translate(645.000000, 937.000000)">
                <use id="Rectangle" stroke="#FFFFFF" mask="url(#mask-2)" stroke-width="4" xlink:href="#path-1"></use>
                <path d="M23,16 L23,126" id="Line" stroke="#FFFFFF" stroke-width="2" stroke-linecap="round"></path>
                <path d="M83,16 L83,126" id="Line-Copy" stroke="#FFFFFF" stroke-width="2" stroke-linecap="round"></path>
                <use id="Rectangle-Copy" stroke="#FFFFFF" mask="url(#mask-4)" stroke-width="4" xlink:href="#path-3"></use>
                <path d="M63,92 C63,86.4771525 58.5228475,82 53,82 C47.4771525,82 43,86.4771525 43,92" id="Oval-2" stroke="#FFFFFF" stroke-width="2" stroke-linecap="round"></path>
                <g id="Combined-Shape" stroke-width="4">
                    <use stroke="#FFFFFF" mask="url(#mask-6)" fill="#B7C9D3" fill-rule="evenodd" xlink:href="#path-5"></use>
                    <use stroke="#B7C9D3" mask="url(#mask-7)" xlink:href="#path-5"></use>
                </g>
                <path d="M35.3901926,15 L38.0098074,15 L38.0098074,14.0790274 L37.2343257,14.0790274 L37.2343257,9.89361702 L38.3880911,9.89361702 L38.3880911,10.8419453 L39.4,10.8419453 L39.4,9 L34,9 L34,10.8419453 L35.0119089,10.8419453 L35.0119089,9.89361702 L36.1656743,9.89361702 L36.1656743,14.0790274 L35.3901926,14.0790274 L35.3901926,15 Z M40.3,15 L43,15 L43,14.0790274 L42.2087912,14.0790274 L42.2087912,9.92097264 L43,9.92097264 L43,9 L40.3,9 L40.3,9.92097264 L41.0912088,9.92097264 L41.0912088,14.0790274 L40.3,14.0790274 L40.3,15 Z M46.0705882,15 C46.9970588,15 47.8352941,14.6217009 48.4,13.9970674 L47.7382353,13.3108504 C47.3058824,13.7771261 46.75,14.0762463 46.0705882,14.0762463 C44.8441176,14.0762463 44.0323529,13.1524927 44.0323529,11.9912023 C44.0323529,10.7859238 44.8970588,9.92375367 46.0264706,9.92375367 C46.5558824,9.92375367 46.8911765,10.0557185 47.0588235,10.1876833 C47.0235294,10.2580645 46.9970588,10.372434 46.9970588,10.4868035 C46.9970588,10.8651026 47.2705882,11.111437 47.6676471,11.111437 C48.0294118,11.111437 48.3029412,10.8211144 48.3029412,10.398827 C48.3029412,9.70381232 47.4029412,9 46.0529412,9 C44.3588235,9 43,10.2580645 43,12 C43,13.8035191 44.2794118,15 46.0705882,15 L46.0705882,15 Z M49.3,15 L51.6365385,15 L51.6365385,14.0790274 L50.9269231,14.0790274 L50.9269231,13.112462 L51.7490385,12.2644377 L53.3326923,15 L54.7,15 L54.7,14.0790274 L53.9471154,14.0790274 L52.4932692,11.5714286 L54.0855769,9.92097264 L54.7,9.92097264 L54.7,9 L52.1903846,9 L52.1903846,9.90273556 L52.8394231,9.90273556 L50.9269231,11.9361702 L50.9269231,9.90273556 L51.6365385,9.90273556 L51.6365385,9 L49.3,9 L49.3,9.92097264 L49.9490385,9.92097264 L49.9490385,14.0790274 L49.3,14.0790274 L49.3,15 Z M55.7,15 L60.2,15 L60.2,13.2857143 L59.2121951,13.2857143 L59.2121951,14.0881459 L57.4195122,14.0881459 L57.4195122,12.3920973 L59.2396341,12.3920973 L59.2396341,11.5167173 L57.4195122,11.5167173 L57.4195122,9.9118541 L59.2030488,9.9118541 L59.2030488,10.7142857 L60.1908537,10.7142857 L60.1908537,9 L55.7,9 L55.7,9.92097264 L56.3859756,9.92097264 L56.3859756,14.0790274 L55.7,14.0790274 L55.7,15 Z M62.4901926,15 L65.1098074,15 L65.1098074,14.0790274 L64.3343257,14.0790274 L64.3343257,9.89361702 L65.4880911,9.89361702 L65.4880911,10.8419453 L66.5,10.8419453 L66.5,9 L61.1,9 L61.1,10.8419453 L62.1119089,10.8419453 L62.1119089,9.89361702 L63.2656743,9.89361702 L63.2656743,14.0790274 L62.4901926,14.0790274 L62.4901926,15 Z M68.764454,15 C70.0653105,15 71,14.3753666 71,13.2756598 C71,12.202346 70.1423983,11.8416422 69.0053533,11.4721408 C68.369379,11.2609971 67.8394004,11.0498534 67.8394004,10.5747801 C67.8394004,10.1524927 68.2055675,9.86217009 68.8319058,9.86217009 C69.2269807,9.86217009 69.496788,9.94134897 69.6702355,10.0381232 C69.6316916,10.1085044 69.6027837,10.170088 69.6027837,10.3108504 C69.6027837,10.601173 69.8533191,10.9002933 70.2965739,10.9002933 C70.6627409,10.9002933 70.9421842,10.6627566 70.9421842,10.2492669 C70.9421842,9.5542522 70.0267666,9 68.8415418,9 C67.5599572,9 66.7408994,9.72140762 66.7408994,10.6451613 C66.7408994,11.7184751 67.5695931,12.0615836 68.745182,12.4486804 C69.3811563,12.6510264 69.9111349,12.8797654 69.9111349,13.3548387 C69.9111349,13.856305 69.4678801,14.1378299 68.7740899,14.1378299 C68.359743,14.1378299 68.003212,14.0410557 67.7719486,13.8914956 C67.8297645,13.7859238 67.8586724,13.6803519 67.8586724,13.5395894 C67.8586724,13.2580645 67.5888651,12.9677419 67.1648822,12.9677419 C66.7698073,12.9677419 66.5,13.2404692 66.5,13.6539589 C66.5,14.3577713 67.5117773,15 68.764454,15 L68.764454,15 Z" id="TICKETS" fill="#FFFFFF"></path>
                <path d="M90.3928571,50.3611111 L100.607143,62.6388889" id="Line-Copy-5" stroke="#FFFFFF" stroke-linecap="square"></path>
                <path d="M7.39285714,60.3611111 L17.6071429,72.6388889" id="Line-Copy-6" stroke="#FFFFFF" stroke-linecap="square"></path>
                <path d="M6.35714286,51.3333333 L10.6428571,56.6666667" id="Line-Copy-8" stroke="#FFFFFF" stroke-linecap="square"></path>
                <path d="M92.3571429,65.3333333 L96.6428571,70.6666667" id="Line-Copy-9" stroke="#FFFFFF" stroke-linecap="square"></path>
                <path d="M38.3815789,45.375 L66.6184211,80.625" id="Line-Copy-4" stroke="#FFFFFF" stroke-linecap="square"></path>
                <g id="Group" transform="translate(26.000000, 49.000000)">
                    <g id="Rectangle-3" transform="translate(27.035014, 14.783260) rotate(18.000000) translate(-27.035014, -14.783260) ">
                        <use fill="#FFFFFF" fill-rule="evenodd" xlink:href="#path-8"></use>
                        <use stroke="#B7C9D3" mask="url(#mask-9)" stroke-width="4" xlink:href="#path-8"></use>
                    </g>
                    <path d="M10.5560828,17.6019556 L10.5560828,12.1474102 L9.19289058,12.1474102 L9.19289058,13.6357219 C9.19289058,14.0798777 9.20021957,14.804553 9.23686452,15.0461115 C9.12692967,14.8201375 8.67253228,14.0954621 8.43800459,13.7603972 L7.30934009,12.1474102 L6.05608277,12.1474102 L6.05608277,17.6019556 L7.41927495,17.6019556 L7.41927495,15.9344232 C7.41927495,15.4902673 7.41194596,14.765592 7.37530101,14.5240336 C7.50722283,14.765592 7.94696224,15.4668907 8.17416094,15.8019556 L9.39810231,17.6019556 L10.5560828,17.6019556 Z M16.2964019,14.8948951 C16.2964019,13.1346332 15.3727907,12.1751771 14.0533463,12.1751771 C12.7339019,12.1751771 11.7964019,13.1497427 11.7964019,14.9100046 C11.7964019,16.6702665 12.720013,17.6297226 14.0394574,17.6297226 C15.3589019,17.6297226 16.2964019,16.655157 16.2964019,14.8948951 L16.2964019,14.8948951 Z M15.1211906,14.957227 C15.1211906,15.8521134 14.7992393,16.3137611 14.2285076,16.3137611 C13.6577759,16.3137611 13.3211906,15.8379088 13.3211906,14.9430224 C13.3211906,14.0481361 13.6431418,13.5864884 14.2138735,13.5864884 C14.7846052,13.5864884 15.1211906,14.0623406 15.1211906,14.957227 L15.1211906,14.957227 Z M23.5560828,17.3079288 L23.5560828,16.037799 L20.647243,16.037799 L20.647243,15.102734 L22.3627126,15.102734 L22.3627126,13.8481886 L20.647243,13.8481886 L20.647243,13.1235132 L23.4980717,13.1235132 L23.4980717,11.8533834 L19.0560828,11.8533834 L19.0560828,17.3079288 L23.5560828,17.3079288 Z M29.387841,11.9974249 L27.667487,11.9974249 L27.2612923,13.46236 C27.0701418,14.1480743 26.7993454,15.2467756 26.6958056,15.7688535 C26.5922657,15.2467756 26.3214693,14.1402821 26.1303188,13.46236 L25.7241241,11.9974249 L23.987841,11.9974249 L25.90731,17.4519704 L27.4683719,17.4519704 L29.387841,11.9974249 Z M34.1797767,17.4956168 L34.1797767,16.2254869 L31.270937,16.2254869 L31.270937,15.290422 L32.9864066,15.290422 L32.9864066,14.0358765 L31.270937,14.0358765 L31.270937,13.3112012 L34.1217657,13.3112012 L34.1217657,12.0410713 L29.6797767,12.0410713 L29.6797767,17.4956168 L34.1797767,17.4956168 Z M39.8717125,17.5392632 L39.8717125,12.0847178 L38.5085203,12.0847178 L38.5085203,13.5730295 C38.5085203,14.0171853 38.5158493,14.7418606 38.5524943,14.9834191 C38.4425594,14.757445 37.988162,14.0327697 37.7536343,13.6977048 L36.6249698,12.0847178 L35.3717125,12.0847178 L35.3717125,17.5392632 L36.7349047,17.5392632 L36.7349047,15.8717308 C36.7349047,15.4275749 36.7275757,14.7028996 36.6909308,14.4613411 C36.8228526,14.7028996 37.262592,15.4041983 37.4897907,15.7392632 L38.7137321,17.5392632 L39.8717125,17.5392632 Z M44.9489018,13.3058683 L44.9489018,11.9889851 L40.4489018,11.9889851 L40.4489018,13.3058683 L41.9540212,13.3058683 L41.9540212,17.4435306 L43.4437823,17.4435306 L43.4437823,13.3058683 L44.9489018,13.3058683 Z M49.7538151,15.6469818 C49.7538151,14.6573067 49.1527877,14.249349 47.7966233,13.9320485 C47.1031302,13.7733983 46.9104932,13.6827411 46.9104932,13.486317 C46.9104932,13.2974477 47.0183699,13.1614618 47.4652877,13.1614618 C48.0123767,13.1614618 48.4901165,13.3427763 48.9678562,13.6600768 L49.6921713,12.5117514 C49.1219658,12.1189032 48.4592946,11.8998149 47.5423425,11.8998149 C46.2401165,11.8998149 45.4156302,12.5721896 45.4156302,13.5694195 C45.4156302,14.6270876 46.039774,14.9746071 47.342,15.2692432 C48.0663151,15.4354482 48.2589521,15.5563245 48.2589521,15.7527486 C48.2589521,16.0020561 48.0894315,16.0927134 47.5577535,16.0927134 C47.0568973,16.0927134 46.3711096,15.8282963 45.9781302,15.5638793 L45.2538151,16.7122047 C45.8163151,17.0748337 46.6562124,17.3543603 47.5269315,17.3543603 C48.8214521,17.3543603 49.7538151,16.8557453 49.7538151,15.6469818 L49.7538151,15.6469818 Z" id="NO-EVENTS" fill="#B7C9D3" transform="translate(27.904949, 14.741553) rotate(18.000000) translate(-27.904949, -14.741553) "></path>
                </g>
                <path d="M64.35,39.3846154 L70.65,48.6153846" id="Line-Copy-7" stroke="#FFFFFF" stroke-linecap="square"></path>
                <path d="M57.3684211,37.375 L70.6315789,54.625" id="Line" stroke="#FFFFFF" stroke-linecap="square"></path>
            </g>
        </g>
    </g>
</svg>