<svg width="70" height="40" viewBox="0 0 70 40" xmlns="http://www.w3.org/2000/svg"><title>3F87FB5D-68B1-4B25-A274-39A0AA7BD7C1</title><g fill="#B7C9D3" fill-rule="evenodd" opacity=".4"><path d="M1.41 9.244H6.8l1.26-6.07L16.042.5l-1.82 8.744h6.65l-1.19 5.564h-6.65l-2.73 12.863c-.14.723-.35 1.734-.35 2.89 0 1.807 1.19 2.891 2.87 2.891 1.33 0 2.66-.289 3.57-.65l-1.26 5.925c-1.26.29-2.73.723-3.99.723-5.04 0-8.61-2.023-8.61-7.732 0-2.313.42-4.553.91-6.865l2.1-9.973H.15l1.26-5.636M26.429 13.608c.223-1.136.445-2.272.667-3.195h7.262l-.741 3.905h.147c2.15-2.982 5.558-4.544 9.262-4.544 3.558 0 7.263 2.059 7.707 5.537h.148c2.001-3.762 6.373-5.537 10.595-5.537 4.52 0 8.374 3.55 8.374 7.951 0 2.556-.667 5.467-1.334 7.88L65.33 39.45h-7.854l3.187-14.128c.37-1.775.963-4.473.963-6.177 0-2.13-1.704-3.479-3.705-3.479-5.483 0-6.816 6.106-7.78 10.01L47.028 39.45h-7.854l3.186-14.128c.445-1.775 1.038-4.473 1.038-6.177 0-2.13-1.705-3.479-3.706-3.479-5.334 0-6.816 6.106-7.78 10.01L28.801 39.45h-7.93l5.558-25.842"/></g></svg>