<?xml version="1.0" encoding="UTF-8" standalone="no"?>
<svg width="64px" height="9px" viewBox="0 0 64 9" version="1.1" xmlns="http://www.w3.org/2000/svg" xmlns:xlink="http://www.w3.org/1999/xlink">
    <!-- Generator: sketchtool 3.7.2 (28276) - http://www.bohemiancoding.com/sketch -->
    <title>9A3D9532-3CC5-4915-94BA-CBAE0467DAAA</title>
    <desc>Created with sketchtool.</desc>
    <defs>
        <polygon id="path-1" points="0.0109090909 0.153569196 63.8745455 0.153569196 63.8745455 8.64097098 0.0109090909 8.64097098"></polygon>
    </defs>
    <g id="13.x-Widget" stroke="none" stroke-width="1" fill="none" fill-rule="evenodd">
        <g id="13.1-Widget-Color-Block" transform="translate(-1157.000000, -1815.000000)">
            <g id="List-widget-vertical" transform="translate(1077.000000, 1689.000000)">
                <g id="Group" transform="translate(34.000000, 126.000000)">
                    <g id="TM-GrayLogo-+-shape" transform="translate(46.000000, 0.000000)">
                        <g id="TM-GrayLogo">
                            <g id="Group-14">
                                <mask id="mask-2" fill="white">
                                    <use xlink:href="#path-1"></use>
                                </mask>
                                <g id="Clip-2"></g>
                                <path d="M37.8185455,7.55931752 C38.9429091,7.55931752 39.2916364,6.79039007 39.5272727,5.86518973 L38.9990909,5.86518973 C38.2683636,5.86518973 37.0541818,5.98793694 37.0541818,6.95747768 C37.0541818,7.35870424 37.4361818,7.55931752 37.8185455,7.55931752 L37.8185455,7.55931752 Z M39.2916364,7.63736384 L39.2689091,7.63736384 C38.7518182,8.28390458 38.2345455,8.65178571 37.4025455,8.65178571 C36.3574545,8.65178571 35.6156364,8.07193583 35.6156364,7.01335379 C35.6156364,5.11843248 37.7512727,4.97369531 39.1678182,4.97369531 L39.6961818,4.97369531 C39.7410909,4.81742243 39.7410909,4.65033482 39.7410909,4.48306696 C39.7410909,3.90375781 39.1116364,3.73648996 38.5832727,3.73648996 C37.9198182,3.73648996 37.2789091,3.90375781 36.6830909,4.18223717 L36.8965455,2.9897327 C37.5374545,2.76712946 38.1896364,2.64420201 38.8643636,2.64420201 C40.0221818,2.64420201 41.1127273,3.06777902 41.1127273,4.41619587 C41.1127273,5.18530357 40.5394545,7.4369308 40.4045455,8.51804353 L39.134,8.51804353 L39.2916364,7.63736384 L39.2916364,7.63736384 Z" id="Fill-1" fill="#FFFFFF" mask="url(#mask-2)"></path>
                                <path d="M0.236,2.77271708 L1.32672727,2.77271708 L1.58527273,1.59138783 L3.20418182,1.06741406 L2.83309091,2.77271708 L4.18236364,2.77271708 L3.94618182,3.86500502 L2.59690909,3.86500502 L2.04618182,6.37276116 C2.01236364,6.50650335 1.97872727,6.70729687 1.97872727,6.92990011 C1.97872727,7.27561105 2.21490909,7.48721931 2.55218182,7.48721931 C2.822,7.48721931 3.09181818,7.43152344 3.28309091,7.35347712 L3.02436364,8.51263616 C2.76563636,8.56833203 2.47345455,8.64655859 2.21490909,8.64655859 C1.19181818,8.64655859 0.472181818,8.24533203 0.472181818,7.14168862 C0.472181818,6.69612165 0.562181818,6.26136942 0.663272727,5.80462723 L1.09054545,3.86500502 L0,3.86500502 L0.236,2.77271708" id="Fill-3" fill="#FFFFFF" mask="url(#mask-2)"></path>
                                <path d="M5.352,0.298306362 L6.85836364,0.298306362 L6.54363636,1.72513002 L5.03709091,1.72513002 L5.352,0.298306362 L5.352,0.298306362 Z M4.80090909,2.77271708 L6.30745455,2.77271708 L5.07090909,8.51263616 L3.56436364,8.51263616 L4.80090909,2.77271708 L4.80090909,2.77271708 Z" id="Fill-4" fill="#FFFFFF" mask="url(#mask-2)"></path>
                                <path d="M10.8572727,4.088149 C10.5645455,3.89853069 10.1712727,3.79813393 9.75527273,3.79813393 C8.55218182,3.79813393 7.87763636,4.91277232 7.87763636,5.99406529 C7.87763636,6.74028181 8.12490909,7.48721931 9.15945455,7.48721931 C9.53054545,7.48721931 9.99145455,7.38682254 10.3847273,7.19756473 L10.2161818,8.37907422 C9.75527273,8.6018577 9.26072727,8.64655859 8.766,8.64655859 C7.27054545,8.64655859 6.30363636,7.65484766 6.30363636,6.17232813 C6.30363636,4.16601507 7.64163636,2.63933538 9.72163636,2.63933538 C10.2838182,2.63933538 10.8232727,2.7395519 11.2283636,2.86193862 L10.8572727,4.088149" id="Fill-5" fill="#FFFFFF" mask="url(#mask-2)"></path>
                                <polyline id="Fill-6" fill="#FFFFFF" mask="url(#mask-2)" points="12.5094545 0.153569196 14.016 0.153569196 13.0152727 4.85707645 13.038 4.85707645 15.1403636 2.77271708 17.0965455 2.77271708 14.3196364 5.3920452 16.0621818 8.51263616 14.3645455 8.51263616 12.8690909 5.47027176 12.8465455 5.47027176 12.1945455 8.51263616 10.7218182 8.51263616 12.5094545 0.153569196"></polyline>
                                <path d="M22.5272727,2.77271708 L23.6178182,2.77271708 L23.8763636,1.59138783 L25.4954545,1.06741406 L25.1243636,2.77271708 L26.4736364,2.77271708 L26.2376364,3.86500502 L24.8881818,3.86500502 L24.3372727,6.37276116 C24.3036364,6.50650335 24.2698182,6.70729687 24.2698182,6.92990011 C24.2698182,7.27561105 24.506,7.48721931 24.8434545,7.48721931 C25.1132727,7.48721931 25.3830909,7.43152344 25.574,7.35347712 L25.3152727,8.51263616 C25.0569091,8.56833203 24.7645455,8.64655859 24.506,8.64655859 C23.4829091,8.64655859 22.7632727,8.24533203 22.7632727,7.14168862 C22.7632727,6.69612165 22.8532727,6.26136942 22.9545455,5.80462723 L23.3818182,3.86500502 L22.2910909,3.86500502 L22.5272727,2.77271708" id="Fill-7" fill="#FFFFFF" mask="url(#mask-2)"></path>
                                <path d="M22.0234545,4.82373103 C22.0234545,3.3633817 21.0789091,2.63933538 19.6512727,2.63933538 C17.7510909,2.63933538 16.3569091,4.35581362 16.3569091,6.1389827 C16.3569091,7.84428571 17.4812727,8.64655859 19.1452727,8.64655859 C19.7634545,8.64655859 20.4045455,8.50182143 20.9889091,8.32355859 L21.1803636,7.14168862 C20.6178182,7.39835826 20.022,7.55427065 19.4038182,7.55427065 C18.4401818,7.55427065 17.8770909,7.2148683 17.8047273,6.31237891 L17.8034545,6.31237891 C17.8007273,6.25992746 17.7958182,6.20891797 17.7958182,6.15394308 C17.7958182,6.14330859 17.7965455,6.13249386 17.7965455,6.12203962 C17.7965455,6.11645201 17.7961818,6.11122489 17.7961818,6.10527679 L17.7972727,6.10527679 C17.804,5.71216127 17.8909091,5.32445313 18.042,4.96666574 C18.3314545,4.23613058 18.7409091,3.73144308 19.6285455,3.73144308 C20.2581818,3.73144308 20.5843636,4.07679353 20.5843636,4.68998884 C20.5843636,4.82373103 20.5729091,4.94611775 20.5505455,5.08004018 L18.4890909,5.08004018 C18.3554545,5.53101451 18.332,5.83328627 18.3292727,6.10527679 L21.8772727,6.10527679 C21.9669091,5.68169978 22.0234545,5.25830301 22.0234545,4.82373103" id="Fill-8" fill="#FFFFFF" mask="url(#mask-2)"></path>
                                <path d="M27.1236364,3.40808259 C27.1685455,3.18529911 27.2134545,2.95116016 27.2472727,2.77271708 L28.6527273,2.77271708 L28.5178182,3.54182478 L28.5401818,3.54182478 C28.9449091,2.95116016 29.6081818,2.63933538 30.3163636,2.63933538 C31.0023636,2.63933538 31.7105455,3.0403817 31.7892727,3.73144308 L31.8118182,3.73144308 C32.194,2.98468583 33.0372727,2.63933538 33.8467273,2.63933538 C34.7123636,2.63933538 35.4543636,3.3412115 35.4543636,4.21071596 C35.4543636,4.72333426 35.3196364,5.30318415 35.196,5.77110156 L34.5887273,8.51263616 L33.0821818,8.51263616 L33.6894545,5.7150452 C33.768,5.36969475 33.8805455,4.83454576 33.8805455,4.48919531 C33.8805455,4.06579855 33.5545455,3.79813393 33.1721818,3.79813393 C32.1263636,3.79813393 31.8678182,5.00181362 31.6769091,5.78227679 L31.0809091,8.51263616 L29.5745455,8.51263616 L30.1816364,5.7150452 C30.2603636,5.36969475 30.3729091,4.83454576 30.3729091,4.48919531 C30.3729091,4.06579855 30.0467273,3.79813393 29.6643636,3.79813393 C28.6412727,3.79813393 28.36,5.01298884 28.1690909,5.78227679 L27.5730909,8.51263616 L26.0667273,8.51263616 L27.1236364,3.40808259" id="Fill-9" fill="#FFFFFF" mask="url(#mask-2)"></path>
                                <path d="M45.588,3.94142913 C45.4261818,3.85419029 45.0101818,3.73144308 44.5829091,3.73144308 C44.1332727,3.73144308 43.5712727,3.85419029 43.5712727,4.31075223 C43.5712727,5.03515904 45.5272727,5.30318415 45.5272727,6.70729688 C45.5272727,8.20081138 44.212,8.64655859 42.9190909,8.64655859 C42.312,8.64655859 41.7047273,8.55769754 41.1538182,8.30120815 L41.48,7.10852344 C41.9070909,7.34248214 42.3343636,7.55427065 42.9190909,7.55427065 C43.4250909,7.55427065 43.9534545,7.38682254 43.9534545,6.91926563 C43.9534545,5.99406529 41.9972727,5.90448326 41.9972727,4.46702511 C41.9972727,3.11842801 43.3125455,2.63933538 44.5043636,2.63933538 C45.0552727,2.63933538 45.6172727,2.7395519 45.9141818,2.81561551 L45.588,3.94142913" id="Fill-10" fill="#FFFFFF" mask="url(#mask-2)"></path>
                                <path d="M46.5501818,2.77271708 L47.6409091,2.77271708 L47.8994545,1.59138783 L49.5185455,1.06741406 L49.1474545,2.77271708 L50.4965455,2.77271708 L50.2605455,3.86500502 L48.9112727,3.86500502 L48.3603636,6.37276116 C48.3267273,6.50650335 48.2930909,6.70729687 48.2930909,6.92990011 C48.2930909,7.27561105 48.5292727,7.48721931 48.8665455,7.48721931 C49.1361818,7.48721931 49.406,7.43152344 49.5970909,7.35347712 L49.3387273,8.51263616 C49.08,8.56833203 48.7878182,8.64655859 48.5292727,8.64655859 C47.506,8.64655859 46.7865455,8.24533203 46.7865455,7.14168862 C46.7865455,6.69612165 46.8765455,6.26136942 46.9774545,5.80462723 L47.4050909,3.86500502 L46.3143636,3.86500502 L46.5501818,2.77271708" id="Fill-11" fill="#FFFFFF" mask="url(#mask-2)"></path>
                                <path d="M56.7645455,3.54182478 C56.8094545,3.29669085 56.8545455,3.0403817 56.8994545,2.77271708 L58.3387273,2.77271708 L58.1361818,3.85419029 L58.1589091,3.85419029 C58.4287273,3.22981975 59.1705455,2.63933538 59.8676364,2.63933538 C60.0589091,2.63933538 60.2614545,2.64996987 60.4410909,2.694851 L60.1263636,4.15502009 C59.9576364,4.09914397 59.744,4.06579855 59.5530909,4.06579855 C58.4849091,4.06579855 57.9676364,5.01298884 57.7765455,5.93818917 L57.2369091,8.51263616 L55.7303636,8.51263616 L56.7645455,3.54182478" id="Fill-12" fill="#FFFFFF" mask="url(#mask-2)"></path>
                                <path d="M55.7190909,4.82373103 C55.7190909,3.3633817 54.7747273,2.63933538 53.3467273,2.63933538 C51.4469091,2.63933538 50.0525455,4.35581362 50.0525455,6.1389827 C50.0525455,7.84428571 51.1767273,8.64655859 52.8409091,8.64655859 C53.4590909,8.64655859 54.1001818,8.50182143 54.6847273,8.32355859 L54.8758182,7.14168862 C54.3136364,7.39835826 53.7178182,7.55427065 53.0996364,7.55427065 C52.1356364,7.55427065 51.5727273,7.2148683 51.5001818,6.31237891 L51.4990909,6.31237891 C51.4963636,6.25992746 51.4914545,6.20891797 51.4914545,6.15394308 C51.4914545,6.14330859 51.492,6.13249386 51.4923636,6.12203962 C51.4923636,6.11645201 51.4918182,6.11122489 51.4918182,6.10527679 L51.4929091,6.10527679 C51.4994545,5.71216127 51.5865455,5.32445313 51.7378182,4.96666574 C52.0269091,4.23613058 52.4363636,3.73144308 53.3241818,3.73144308 C53.9536364,3.73144308 54.2798182,4.07679353 54.2798182,4.68998884 C54.2798182,4.82373103 54.2685455,4.94611775 54.2461818,5.08004018 L52.1847273,5.08004018 C52.0510909,5.53101451 52.0274545,5.83328627 52.0249091,6.10527679 L55.5729091,6.10527679 C55.6627273,5.68169978 55.7190909,5.25830301 55.7190909,4.82373103" id="Fill-13" fill="#FFFFFF" mask="url(#mask-2)"></path>
                            </g>
                            <path d="M62.4998315,3.71175207 L62.7852681,3.71175207 C62.970283,3.71175207 63.0900502,3.67283065 63.0900502,3.47911221 C63.0900502,3.31009731 62.9396816,3.26051249 62.7852681,3.26051249 L62.4998315,3.26051249 L62.4998315,3.71175207 L62.4998315,3.71175207 Z M62.2592418,3.06999307 L62.8239594,3.06999307 C63.1630361,3.06999307 63.3299365,3.2080841 63.3299365,3.49030878 C63.3299365,3.72934668 63.1800955,3.90227149 62.9490027,3.90227149 L63.3691554,4.56180283 L63.1136168,4.56180283 L62.7013782,3.90227149 L62.4998315,3.90227149 L62.4998315,4.56180283 L62.2592418,4.56180283 L62.2592418,3.06999307 L62.2592418,3.06999307 Z M62.7444663,4.89983263 C63.3227258,4.89983263 63.7592344,4.42726625 63.7592344,3.8178529 C63.7592344,3.2080841 63.3227258,2.73534001 62.7444663,2.73534001 C62.1584685,2.73534001 61.7210806,3.2080841 61.7210806,3.8178529 C61.7210806,4.42726625 62.1584685,4.89983263 62.7444663,4.89983263 L62.7444663,4.89983263 Z M62.7404213,2.54464286 C63.4338755,2.54464286 64,3.11531252 64,3.8178529 C64,4.51879378 63.4338755,5.08928571 62.7404213,5.08928571 C62.0466154,5.08928571 61.480315,4.51879378 61.480315,3.8178529 C61.480315,3.11531252 62.0466154,2.54464286 62.7404213,2.54464286 L62.7404213,2.54464286 Z" id="Fill-15" fill="#FFFFFF"></path>
                        </g>
                    </g>
                </g>
            </g>
        </g>
    </g>
</svg>