<?xml version="1.0" encoding="UTF-8" standalone="no"?>
<svg width="82px" height="103px" viewBox="0 0 82 103" version="1.1" xmlns="http://www.w3.org/2000/svg" xmlns:xlink="http://www.w3.org/1999/xlink">
    <!-- Generator: sketchtool 3.6.1 (26313) - http://www.bohemiancoding.com/sketch -->
    <title>certified_ic</title>
    <desc>Created with sketchtool.</desc>
    <defs></defs>
    <g id="3.x-Partners" stroke="none" stroke-width="1" fill="none" fill-rule="evenodd" stroke-linecap="round" stroke-linejoin="round">
        <g id="3.1.3-Partners-Desktop" transform="translate(-679.000000, -667.000000)" stroke="#85489A" stroke-width="2">
            <g id="Certif-part" transform="translate(588.000000, 668.000000)">
                <g id="certified_ic" transform="translate(92.000000, 0.000000)">
                    <path d="M66.8004082,39.5628571 C66.8004082,54.8869388 54.377551,67.3097959 39.0534694,67.3097959 C23.7293878,67.3097959 11.3073469,54.8869388 11.3073469,39.5628571 C11.3073469,24.2387755 23.7293878,11.8159184 39.0534694,11.8159184 C54.377551,11.8159184 66.8004082,24.2387755 66.8004082,39.5628571 L66.8004082,39.5628571 Z" id="Stroke-1"></path>
                    <path d="M31.8680816,78.2577959 L20.3080816,100.172082 L14.1644082,87.2365714 L0.000326530612,89.3475918 L11.7897143,66.6373878" id="Stroke-3"></path>
                    <path d="M47.7786122,78.2577959 L59.3386122,100.172082 L65.4822857,87.2365714 L79.6463673,89.3475918 L67.8569796,66.6373878" id="Stroke-5"></path>
                    <path d="M28.6495652,39.7023283 L38.4446673,48.2133487 L50.9695652,30.5496752" id="Stroke-7"></path>
                    <path d="M39.8233469,8.16326519e-05 L48.4127347,7.7682449 L59.7351837,5.33559184 L63.2894694,16.3576327 L74.3115102,19.9119184 L71.8788571,31.2343673 L79.6470204,39.8237551 L71.8788571,48.4123265 L74.3115102,59.7347755 L63.2894694,63.2898776 L59.7351837,74.311102 L48.4127347,71.878449 L39.8233469,79.6466122 L31.2339592,71.878449 L19.9115102,74.311102 L16.3572245,63.2898776 L5.33518367,59.7347755 L7.76783673,48.4123265 L-0.000326530612,39.8237551 L7.76783673,31.2343673 L5.33518367,19.9119184 L16.3572245,16.3576327 L19.9115102,5.33559184 L31.2339592,7.7682449 L39.8233469,8.16326519e-05 L39.8233469,8.16326519e-05 Z" id="Stroke-9"></path>
                </g>
            </g>
        </g>
    </g>
</svg>