<?xml version="1.0" encoding="UTF-8" standalone="no"?>
<svg width="98px" height="102px" viewBox="0 0 98 102" version="1.1" xmlns="http://www.w3.org/2000/svg" xmlns:xlink="http://www.w3.org/1999/xlink">
    <!-- Generator: sketchtool 3.6.1 (26313) - http://www.bohemiancoding.com/sketch -->
    <title>distribution_ic</title>
    <desc>Created with sketchtool.</desc>
    <defs></defs>
    <g id="3.x-Partners" stroke="none" stroke-width="1" fill="none" fill-rule="evenodd" stroke-linecap="round" stroke-linejoin="round">
        <g id="3.1.3-Partners-Desktop" transform="translate(-329.000000, -669.000000)" stroke="#6165B0" stroke-width="2">
            <g id="Distribut-part" transform="translate(247.000000, 670.000000)">
                <path d="M119.167241,98.8171494 C124.156241,96.2441494 126.114241,90.1141494 123.541241,85.1251494 C120.968241,80.1361494 114.837241,78.1781494 109.849241,80.7511494 C104.860241,83.3251494 102.902241,89.4551494 105.475241,94.4431494 C108.048241,99.4321494 114.178241,101.390149 119.167241,98.8171494 L119.167241,98.8171494 Z M127.520241,55.4341494 L119.719241,76.0271494 L127.520241,55.4341494 Z M90.9302408,68.4911494 C96.4062408,69.7261494 101.845241,66.2881494 103.080241,60.8131494 C104.315241,55.3371494 100.877241,49.8971494 95.4022408,48.6621494 C89.9262408,47.4271494 84.4862408,50.8651494 83.2512408,56.3411494 C82.0162408,61.8171494 85.4542408,67.2571494 90.9302408,68.4911494 L90.9302408,68.4911494 Z M118.501241,46.9971494 L106.384241,52.5351494 L118.501241,46.9971494 Z M178.476241,64.1781494 C178.155241,58.5741494 173.352241,54.2911494 167.748241,54.6121494 C162.144241,54.9341494 157.861241,59.7371494 158.182241,65.3411494 C158.504241,70.9451494 163.307241,75.2271494 168.911241,74.9061494 C174.515241,74.5851494 178.797241,69.7821494 178.476241,64.1781494 L178.476241,64.1781494 Z M156.496241,56.4851494 L146.582241,49.5521494 L156.496241,56.4851494 Z M93.5162408,15.0011494 C93.2872408,20.6101494 97.6472408,25.3421494 103.256241,25.5721494 C108.864241,25.8011494 113.597241,21.4401494 113.826241,15.8321494 C114.055241,10.2231494 109.695241,5.49114935 104.086241,5.26214935 C98.4782408,5.03214935 93.7452408,9.39314935 93.5162408,15.0011494 L93.5162408,15.0011494 Z M114.488241,24.4891494 L120.832241,29.8111494 L114.488241,24.4891494 Z M167.494241,0.00214935393 C161.882241,0.109149354 157.420241,4.74614935 157.528241,10.3581494 C157.635241,15.9701494 162.272241,20.4331494 167.884241,20.3251494 C173.496241,20.2171494 177.959241,15.5811494 177.851241,9.96814935 C177.743241,4.35614935 173.106241,-0.105850646 167.494241,0.00214935393 L167.494241,0.00214935393 Z M156.788241,19.5521494 L145.714241,29.8111494 L156.788241,19.5521494 Z M149.513241,40.2451494 C149.513241,49.2141494 142.242241,56.4851494 133.274241,56.4851494 C124.305241,56.4851494 117.035241,49.2141494 117.035241,40.2451494 C117.035241,31.2771494 124.305241,24.0061494 133.274241,24.0061494 C142.242241,24.0061494 149.513241,31.2771494 149.513241,40.2451494 L149.513241,40.2451494 Z" id="distribution_ic"></path>
            </g>
        </g>
    </g>
</svg>