<?xml version="1.0" encoding="UTF-8" standalone="no"?>
<svg width="100px" height="90px" viewBox="0 0 100 90" version="1.1" xmlns="http://www.w3.org/2000/svg" xmlns:xlink="http://www.w3.org/1999/xlink" xmlns:sketch="http://www.bohemiancoding.com/sketch/ns">
    <!-- Generator: sketchtool 3.5.2 (25235) - http://www.bohemiancoding.com/sketch -->
    <title>ic_hands</title>
    <desc>Created with sketchtool.</desc>
    <defs></defs>
    <g id="3.x-Partners" stroke="none" stroke-width="1" fill="none" fill-rule="evenodd" sketch:type="MSPage">
        <g id="3.1.1-Partners-Extended-Desktop" sketch:type="MSArtboardGroup" transform="translate(-914.000000, -1643.000000)" fill="#4F72B9">
            <g id="Get-Affiliated" sketch:type="MSLayerGroup" transform="translate(0.000000, 1349.000000)">
                <g id="Icon" transform="translate(832.000000, 207.000000)" sketch:type="MSShapeGroup">
                    <path d="M84.0128332,114.972442 C83.499594,114.972442 82.9853486,114.777169 82.5928716,114.385615 C81.8048985,113.601501 81.8018795,112.32719 82.5868335,111.539049 L104.832228,89.1842461 C105.616175,88.3961057 106.890216,88.3940926 107.679195,89.1782067 C108.466162,89.9623209 108.469181,91.2366323 107.685234,92.0257792 L85.4388329,114.379576 C85.0463559,114.775156 84.5290914,114.972442 84.0128332,114.972442 L84.0128332,114.972442 Z M181.407507,114.385615 C181.014024,114.777169 180.500784,114.972442 179.987545,114.972442 C179.470281,114.972442 178.954022,114.775156 178.560539,114.379576 L156.315145,92.0257792 C155.530191,91.2366323 155.53321,89.9623209 156.321183,89.1782067 C157.110162,88.3940926 158.384203,88.3961057 159.168151,89.1842461 L181.413545,111.539049 C182.197493,112.32719 182.19548,113.601501 181.407507,114.385615 L181.407507,114.385615 Z M175.519346,126.51573 L162.037258,140.001689 L135.859043,112.699619 C134.912067,111.721237 133.643058,110.939136 132.28549,110.939136 L132.255299,110.939136 C130.908801,110.939136 129.644824,111.69708 128.693822,112.657343 L115.962473,125.623914 C114.719629,126.878094 112.559999,126.936475 111.318162,125.681288 C110.022988,124.37376 110.022988,122.275072 111.318162,120.967544 L140.714688,91.3070918 C141.09207,90.9266102 141.74016,90.9326496 142.117541,91.3141378 L175.523371,125.039099 C175.926918,125.445752 175.924905,126.110085 175.519346,126.51573 L175.519346,126.51573 Z M162.206325,147.437185 L158.937696,150.735698 C158.570378,151.107121 157.713973,151.104101 157.343636,150.732679 L146.280817,139.56484 C145.497875,138.774686 144.223835,138.768647 143.433849,139.551754 C142.64487,140.334862 142.674054,141.609173 143.456995,142.399327 L156.103811,155.025679 C156.495282,155.431324 156.491256,156.175176 156.09576,156.574782 L152.827131,159.917585 C152.458807,160.288001 151.979784,160.238679 151.579256,159.83404 L138.88011,147.0255 C138.097168,146.23434 136.823128,146.23434 136.033142,147.017447 C135.243156,147.800555 135.237118,149.077886 136.020059,149.867033 L148.703104,162.671547 C149.094575,163.077192 149.090549,163.732466 148.695053,164.133079 L145.425418,167.431593 C145.049043,167.812074 144.348622,167.758726 144.075901,167.485947 L140.013261,163.065114 C140.242709,160.923143 139.550339,158.698634 137.928101,157.059947 C136.925775,156.048349 135.680919,155.371937 134.327376,155.071981 C135.365931,152.424715 134.828539,149.287251 132.71017,147.149307 C131.326437,145.753201 129.485821,144.983179 127.527461,144.983179 C127.480163,144.983179 127.43387,144.989219 127.386572,144.990225 C127.426826,143.053594 126.72238,141.104884 125.261158,139.630266 C123.878431,138.233154 122.037815,137.464138 120.078449,137.464138 C119.152606,137.464138 118.255947,137.6423 117.418663,137.970441 C117.125815,136.658886 116.48175,135.410746 115.47238,134.391095 C114.088647,132.99499 112.24803,132.225974 110.289671,132.225974 C108.331311,132.225974 106.489688,132.99499 105.106962,134.391095 L100.085269,139.461163 L87.914457,127.161945 C87.5129228,126.757306 87.5129228,126.096999 87.914457,125.69236 L121.311229,91.9784707 C121.56483,91.7228032 121.858685,91.6835471 122.013663,91.6835471 C122.130399,91.6946194 122.464508,91.7217966 122.721128,91.9845101 L128.507647,97.9232438 L108.458111,118.162247 C105.615169,121.032971 105.615169,125.702426 108.458111,128.573149 C109.841844,129.969255 111.682461,130.738271 113.64082,130.738271 C115.59918,130.738271 117.439796,129.969255 118.822523,128.573149 L131.552866,115.721327 C131.807473,115.465659 132.100321,115.426403 132.255299,115.426403 C132.421347,115.425397 132.709164,115.464653 132.965783,115.729379 L162.214376,145.976659 C162.605846,146.381298 162.602827,147.036572 162.206325,147.437185 L162.206325,147.437185 Z M139.253466,169.591681 L136.885521,171.925906 C136.696327,172.1091 136.291774,172.193652 135.801681,172.152383 C135.164661,172.097022 134.480342,171.841354 133.944963,171.490063 L137.928101,167.469842 C138.044838,167.352074 138.149498,167.22726 138.256172,167.103453 L139.312841,168.25295 C139.618771,168.659602 139.604682,169.23737 139.253466,169.591681 L139.253466,169.591681 Z M126.400348,172.97374 C126.135677,172.97374 125.887109,172.869057 125.697915,172.67781 L122.456457,169.405467 C122.054923,169.000828 122.054923,168.341528 122.456457,167.934875 C122.49973,167.891593 130.378454,159.938723 130.422734,159.894434 C131.666584,158.639247 133.825207,158.638241 135.068051,159.894434 C136.363225,161.201962 136.363225,163.328834 135.068051,164.636362 L127.101775,172.678816 C126.91258,172.869057 126.664012,172.97374 126.400348,172.97374 L126.400348,172.97374 Z M114.938007,161.816973 C114.603898,161.478767 114.564651,160.972465 114.788061,160.575878 C114.85448,160.515484 125.506708,149.772416 125.624451,149.634516 C126.177944,149.233903 126.834085,149.009439 127.527461,149.009439 C128.403993,149.009439 129.228195,149.355698 129.85012,149.982788 C131.145294,151.290316 131.145294,153.418194 129.85012,154.725722 L119.583324,165.089316 C119.206949,165.468791 118.556846,165.468791 118.180471,165.089316 L114.938007,161.816973 Z M107.490001,154.296926 C107.106582,153.911411 107.100543,153.29942 107.447735,152.891761 C107.465849,152.873643 107.487989,152.861564 107.506103,152.843446 C107.55944,152.789091 107.6007,152.727691 107.646992,152.668303 L117.75579,142.463747 C118.999641,141.20856 121.158264,141.20856 122.401108,142.463747 C123.567469,143.640421 123.674142,145.477403 122.740248,146.786944 C122.606403,146.904712 122.471552,147.021473 122.344752,147.149307 L112.077957,157.512901 C112.012544,157.579334 111.968264,157.65684 111.906877,157.725286 C111.760956,157.806818 111.603965,157.865199 111.433892,157.865199 L111.432886,157.865199 C111.169222,157.865199 110.919646,157.760516 110.731459,157.570275 L107.490001,154.296926 Z M99.9997291,146.736615 C99.5992013,146.33097 99.5992013,145.672676 100.000735,145.267031 L107.967012,137.225582 C109.209856,135.970396 111.369485,135.970396 112.612329,137.225582 C113.85316,138.477749 113.891402,140.476787 112.754225,141.792368 L104.629951,149.99386 C104.611837,150.011978 104.600767,150.034123 104.582653,150.052241 C104.402516,150.209265 104.182125,150.304889 103.944626,150.304889 L103.94362,150.304889 C103.679956,150.304889 103.43038,150.200206 103.242193,150.009965 L99.9997291,146.736615 Z M144.977592,88.4877031 C144.027596,87.5284466 142.762613,87 141.416115,87 C140.069617,87 138.804633,87.5284466 137.854638,88.4877031 L131.341532,95.062586 L125.604324,89.2396072 C124.656341,88.2672654 123.388338,87.7881404 122.034796,87.7881404 L122.012656,87.7881404 C120.667165,87.7881404 119.403187,88.2501538 118.452186,89.2104168 L85.0544067,122.89109 C83.1061107,124.859931 83.1061107,128.044703 85.0544067,130.011531 L97.2523902,142.329874 L97.1406852,142.437576 C95.1913828,144.405411 95.1913828,147.605281 97.1406852,149.573116 L100.383149,152.844452 C101.163071,153.631586 102.159359,154.108698 103.234142,154.261696 C103.379057,155.311543 103.831915,156.326161 104.629951,157.131413 L107.871409,160.403756 C108.64328,161.182837 109.625479,161.658942 110.687179,161.817979 C110.837126,162.854741 111.289984,163.854261 112.078963,164.650454 L115.32042,167.922796 C116.106381,168.716976 117.113738,169.195095 118.198585,169.34306 C118.339474,170.402973 118.792332,171.427656 119.597413,172.239954 L122.838871,175.51129 C123.788866,176.470547 125.052843,177 126.399341,177 L126.400348,177 C127.746846,177 129.010823,176.471553 129.961825,175.512297 L131.086925,174.375885 C132.278445,175.358292 133.864455,176.025645 135.456503,176.163544 C135.653747,176.180656 135.847973,176.188709 136.040186,176.188709 C137.481281,176.188709 138.759347,175.711597 139.69626,174.808708 L142.096408,172.442273 C142.411396,172.124199 142.655939,171.764855 142.869286,171.39142 C143.45297,171.624943 144.07892,171.753783 144.726004,171.753783 C146.071496,171.753783 147.336479,171.22433 148.285468,170.26608 L151.554097,166.967566 C152.331,166.183452 152.781846,165.195005 152.935817,164.167302 C153.964308,164.026383 154.92638,163.563363 155.687182,162.794348 L158.954804,159.496841 C160.254004,158.185286 160.663589,156.316095 160.217775,154.625066 C160.80951,154.373424 161.350926,154.02012 161.79674,153.569179 L165.065369,150.270665 C166.991525,148.326988 167.010646,145.14423 165.107636,143.177401 L164.835921,142.895563 L178.365307,129.362296 C180.332724,127.394462 180.340775,124.185532 178.382415,122.208639 L144.977592,88.4877031 Z" id="ic_hands"></path>
                </g>
            </g>
        </g>
    </g>
</svg>