<?xml version="1.0" encoding="UTF-8" standalone="no"?>
<svg width="92px" height="105px" viewBox="0 0 92 105" version="1.1" xmlns="http://www.w3.org/2000/svg" xmlns:xlink="http://www.w3.org/1999/xlink">
    <!-- Generator: sketchtool 3.6.1 (26313) - http://www.bohemiancoding.com/sketch -->
    <title>startups_ic</title>
    <desc>Created with sketchtool.</desc>
    <defs></defs>
    <g id="3.x-Partners" stroke="none" stroke-width="1" fill="none" fill-rule="evenodd" stroke-linecap="round">
        <g id="3.1.3-Partners-Desktop" transform="translate(-1016.000000, -666.000000)" stroke="#A61F84" stroke-width="2">
            <g id="Startups-part" transform="translate(930.000000, 667.000000)">
                <g id="startups_ic" transform="translate(87.000000, 0.000000)">
                    <path d="M44.7543864,71.9889432 C30.2737445,71.9889432 18.5343393,60.2025334 18.5343393,45.6639109 C18.5343393,31.1252885 30.2737445,19.3388787 44.7543864,19.3388787 C59.2350282,19.3388787 70.9744334,31.1252885 70.9744334,45.6639109 C70.9744334,60.2025334 59.2350282,71.9889432 44.7543864,71.9889432 Z" id="Stroke-1" stroke-linejoin="round"></path>
                    <path d="M56.0360286,76.8056539 L56.0360286,92.0871372 C56.0360286,97.9574727 51.2950243,102.71746 45.4480999,102.71746 L45.4480999,102.71746 C39.6011755,102.71746 34.8601712,97.9574727 34.8601712,92.0871372 L34.8601712,76.8056539" id="Stroke-3" stroke-linejoin="round"></path>
                    <path d="M52.5841041,61.3322183 L55.7259227,43.9830269 L49.5907645,50.2918238 L45.5150123,43.9830269 L41.43926,50.2918238 L35.3041018,43.9830269 L38.4459204,61.3322183" id="Stroke-5" stroke-linejoin="round"></path>
                    <path d="M45.8953324,8.38472419 L45.8953324,0.677728812" id="Line"></path>
                    <path d="M82.0820368,44.4243281 L90.0377083,44.4243281" id="Line-Copy"></path>
                    <path d="M75.903819,19.7114569 L81.4596602,14.1556158" id="Line-Copy-3"></path>
                    <path d="M0.121962298,44.4243281 L8.07763385,44.4243281" id="Line-Copy-2"></path>
                    <path d="M11.219043,12.3835978 L16.781697,17.9462518" id="Line-Copy-4"></path>
                </g>
            </g>
        </g>
    </g>
</svg>