<?xml version="1.0" encoding="UTF-8" standalone="no"?>
<svg width="252px" height="165px" viewBox="0 0 252 165" version="1.1" xmlns="http://www.w3.org/2000/svg" xmlns:xlink="http://www.w3.org/1999/xlink">
    <!-- Generator: sketchtool 40.3 (33839) - http://www.bohemiancoding.com/sketch -->
    <title>D7636425-9258-40E3-8767-6EE3CAA15E64</title>
    <desc>Created with sketchtool.</desc>
    <defs>
        <path d="M52.9886246,44.0319892 L52.9886246,37.0319892 L54.9886246,37.0319892 C55.2646246,37.0319892 55.4886246,36.8089892 55.4886246,36.5319892 C55.4886246,36.2559892 55.2646246,36.0319892 54.9886246,36.0319892 L52.9886246,36.0319892 L52.9886246,31.7169892 C52.9886246,28.6779892 50.5866246,26.1889892 47.5766246,26.0389892 C47.5496246,26.0349892 47.2906246,26.0319892 47.2906246,26.0319892 C44.2576246,26.1889892 41.9886246,28.6289892 41.9886246,31.7169892 L41.9886246,53.9869892 C41.9886246,55.8929892 40.2236246,57.0319892 38.5176246,57.0319892 C36.4816246,57.0319892 34.9886246,55.6949892 34.9886246,53.9869892 L34.9886246,31.0319892 L36.9886246,31.0319892 C37.2646246,31.0319892 37.4886246,30.8089892 37.4886246,30.5319892 C37.4886246,30.2559892 37.2646246,30.0319892 36.9886246,30.0319892 L34.9886246,30.0319892 L34.9886246,17.0319892 L36.9886246,17.0319892 C37.2646246,17.0319892 37.4886246,16.8079892 37.4886246,16.5319892 C37.4886246,16.2559892 37.2646246,16.0319892 36.9886246,16.0319892 L34.9886246,16.0319892 L34.9886246,11.0319892 L36.9886246,11.0319892 C37.2646246,11.0319892 37.4886246,10.8079892 37.4886246,10.5319892 C37.4886246,10.2559892 37.2646246,10.0319892 36.9886246,10.0319892 L34.9886246,10.0319892 L34.9886246,6.90798923 C34.9886246,3.11698923 31.9176246,0.0319892334 28.1426246,0.0319892334 C24.1346246,0.0319892334 20.9886246,3.11698923 20.9886246,6.90798923 L20.9886246,21.0319892 L18.9886246,21.0319892 C18.7126246,21.0319892 18.4886246,21.2559892 18.4886246,21.5319892 C18.4886246,21.8079892 18.7126246,22.0319892 18.9886246,22.0319892 L20.9886246,22.0319892 L20.9886246,37.0319892 L18.9886246,37.0319892 C18.7126246,37.0319892 18.4886246,37.2559892 18.4886246,37.5319892 C18.4886246,37.8089892 18.7126246,38.0319892 18.9886246,38.0319892 L20.9886246,38.0319892 L20.9886246,58.7696262 L20.9886246,75.4539892 C20.9886246,77.4269892 19.5306246,79.0319892 17.7376246,79.0319892 L17.5656246,79.0319892 C15.6936246,79.0319892 13.9886246,77.3269892 13.9886246,75.4539892 L13.9886246,62.0319892 L15.9886246,62.0319892 C16.2646246,62.0319892 16.4886246,61.8079892 16.4886246,61.5319892 C16.4886246,61.2559892 16.2646246,61.0319892 15.9886246,61.0319892 L13.9886246,61.0319892 L13.9886246,54.1869892 C13.9886246,51.2509892 11.8496246,48.1109892 8.65162457,48.0339892 C5.54662457,48.1109892 2.98862457,50.9529892 2.98862457,54.1869892 L2.98862457,57.0319892 L0.988624573,57.0319892 C0.712624573,57.0319892 0.488624573,57.2559892 0.488624573,57.5319892 C0.488624573,57.8079892 0.712624573,58.0319892 0.988624573,58.0319892 L2.98862457,58.0319892 L2.98862457,67.0319892 L0.988624573,67.0319892 C0.712624573,67.0319892 0.488624573,67.2559892 0.488624573,67.5319892 C0.488624573,67.8089892 0.712624573,68.0319892 0.988624573,68.0319892 L2.98862457,68.0319892 L2.98862457,78.8369892 C2.98862457,85.6759892 8.54562457,91.0319892 15.6376246,91.0319892 L18.8556246,91.0319892 C20.1736246,91.0319892 20.9886246,92.4909892 20.9886246,93.8429892 L20.9886246,113.031989 L18.9886246,113.031989 C18.7126246,113.031989 18.4886246,113.255989 18.4886246,113.531989 C18.4886246,113.808989 18.7126246,114.031989 18.9886246,114.031989 L20.9886246,114.031989 L20.9886246,145.531989 C20.9886246,145.808989 21.2126246,146.031989 21.4886246,146.031989 L34.4886246,146.031989 C34.7646246,146.031989 34.9886246,145.808989 34.9886246,145.531989 L34.9886246,99.0319892 L36.9886246,99.0319892 C37.2646246,99.0319892 37.4886246,98.8089892 37.4886246,98.5319892 C37.4886246,98.2559892 37.2646246,98.0319892 36.9886246,98.0319892 L34.9886246,98.0319892 L34.9886246,71.3229892 C34.9886246,70.0379892 36.0646246,69.0319892 37.4386246,69.0319892 L41.6936246,69.0319892 C47.9226246,69.0319892 52.9886246,63.9129892 52.9886246,57.6209892 L52.9886246,45.0319892 L54.9886246,45.0319892 C55.2646246,45.0319892 55.4886246,44.8079892 55.4886246,44.5319892 C55.4886246,44.2559892 55.2646246,44.0319892 54.9886246,44.0319892 L52.9886246,44.0319892 Z" id="path-1"></path>
        <mask id="mask-2" maskContentUnits="userSpaceOnUse" maskUnits="objectBoundingBox" x="0" y="0" width="55" height="146" fill="white">
            <use xlink:href="#path-1"></use>
        </mask>
    </defs>
    <g id="13.2.x-Widget-Countdown" stroke="none" stroke-width="1" fill="none" fill-rule="evenodd" opacity="0.5">
        <g id="13.1-Widget-Countdown" transform="translate(-571.000000, -1006.000000)">
            <g id="Countdown-Widget-Copy-2" transform="translate(547.000000, 841.000000)">
                <g id="image" transform="translate(24.000000, 165.000000)">
                    <g id="Image_cactus" transform="translate(0.000000, 0.147395)">
                        <path d="M0.959903777,123.5 L184.959904,123.5" id="Line" stroke="#FFFFFF"></path>
                        <path d="M198.469242,123.5 L251.469242,123.5" id="Line-Copy" stroke="#FFFFFF"></path>
                        <g id="cactus" transform="translate(164.000000, 0.000000)">
                            <path d="M35,150.852605 L21,150.852605 C21.2090667,150.852605 21,151.076605 21,151.852605 C21,151.628605 21.2090667,151.852605 21,151.852605 L35,151.852605 C34.7909333,151.852605 35,151.628605 35,151.852605 C35,151.076605 34.7909333,150.852605 35,150.852605" id="Fill-1" fill="#FFFFFF"></path>
                            <path d="M35,157.852605 L21,157.852605 C21.2090667,157.852605 21,158.076605 21,158.852605 C21,158.628605 21.2090667,158.852605 21,158.852605 L35,158.852605 C34.7909333,158.852605 35,158.628605 35,158.852605 C35,158.076605 34.7909333,157.852605 35,157.852605" id="Fill-3" fill="#FFFFFF"></path>
                            <path d="M35,163.852605 L21,163.852605 C21.2090667,163.852605 21,164.076605 21,164.852605 C21,164.628605 21.2090667,164.852605 21,164.852605 L35,164.852605 C34.7909333,164.852605 35,164.628605 35,164.852605 C35,164.076605 34.7909333,163.852605 35,163.852605" id="Fill-5" fill="#FFFFFF"></path>
                            <use id="Fill-7" stroke="#FFFFFF" mask="url(#mask-2)" stroke-width="2" stroke-linecap="round" stroke-linejoin="round" xlink:href="#path-1"></use>
                        </g>
                    </g>
                </g>
            </g>
        </g>
    </g>
</svg>