<?xml version="1.0" encoding="UTF-8" standalone="no"?>
<svg width="12px" height="32px" viewBox="0 0 12 32" version="1.1" xmlns="http://www.w3.org/2000/svg" xmlns:xlink="http://www.w3.org/1999/xlink">
    <!-- Generator: Sketch 3.6.1 (26313) - http://www.bohemiancoding.com/sketch -->
    <title>arrow_close_sprite</title>
    <desc>Created with Sketch.</desc>
    <defs></defs>
    <g id="-Stylesheet-+-Mobile" stroke="none" stroke-width="1" fill="none" fill-rule="evenodd">
        <g id="Assets" transform="translate(-266.000000, -660.000000)" fill="#FFFFFF">
            <g id="arrow_close_sprite" transform="translate(262.000000, 656.000000)">
                <g id="close_ic_small_white-copy" transform="translate(10.000000, 30.000000) rotate(-315.000000) translate(-10.000000, -30.000000) translate(3.000000, 23.000000)">
                    <path d="M8,6 L8,0.498267412 C8,0.219906569 7.77404508,-8.52651283e-14 7.49531555,-8.52651283e-14 L6.50468445,-8.52651283e-14 C6.21403503,-8.52651283e-14 6,0.223081919 6,0.498267412 L6,6 L0.498267412,6 C0.219906569,6 -1.15463195e-13,6.22595492 -1.15463195e-13,6.50468445 L-1.15463195e-13,7.49531555 C-1.15463195e-13,7.78596497 0.223081919,8 0.498267412,8 L6,8 L6,13.5017326 C6,13.7800934 6.22595492,14 6.50468445,14 L7.49531555,14 C7.78596497,14 8,13.7769181 8,13.5017326 L8,8 L13.5017326,8 C13.7800934,8 14,7.77404508 14,7.49531555 L14,6.50468445 C14,6.21403503 13.7769181,6 13.5017326,6 L8,6 Z" id="close_ic_small_wwhite"></path>
                </g>
                <g id="small_shevron_white-copy" transform="translate(10.000000, 6.000000) rotate(-315.000000) translate(-10.000000, -6.000000) translate(6.000000, 2.000000)">
                    <path d="M7.85796197,7.85209949 C7.94701142,7.76164515 8,7.63708236 8,7.49956417 L8,0.500435829 C8,0.230796814 7.77404508,1.13686838e-13 7.49531555,1.13686838e-13 L6.50468445,1.13686838e-13 C6.21403503,1.13686838e-13 6,0.224052752 6,0.500435829 L6,6 L0.500435829,6 C0.230796814,6 -1.70530257e-13,6.22595492 -1.70530257e-13,6.50468445 L-1.70530257e-13,7.49531555 C-1.70530257e-13,7.78596497 0.224052752,8 0.500435829,8 L7.49956417,8 C7.63369996,8 7.75822345,7.94408276 7.8495035,7.85356815 Z" id="small_shevron_white"></path>
                </g>
            </g>
        </g>
    </g>
</svg>