<?xml version="1.0" encoding="UTF-8" standalone="no"?>
<svg width="27px" height="27px" viewBox="0 0 27 27" version="1.1" xmlns="http://www.w3.org/2000/svg" xmlns:xlink="http://www.w3.org/1999/xlink" xmlns:sketch="http://www.bohemiancoding.com/sketch/ns">
    <!-- Generator: sketchtool 3.5.2 (25235) - http://www.bohemiancoding.com/sketch -->
    <title>ic_user</title>
    <desc>Created with sketchtool.</desc>
    <defs></defs>
    <g id="-Stylesheet-+-Mobile" stroke="none" stroke-width="1" fill="none" fill-rule="evenodd" sketch:type="MSPage">
        <g id="Assets" sketch:type="MSArtboardGroup" transform="translate(-463.000000, -994.000000)" stroke="#FFFFFF" stroke-width="2" stroke-linejoin="round">
            <g id="ic_user" sketch:type="MSLayerGroup" transform="translate(463.000000, 994.000000)">
                <path d="M11.4166667,16.625 C11.4166667,16.625 9.85416667,16.1041667 9.85416667,13.5 C8.99375,13.5 8.99375,11.4166667 9.85416667,11.4166667 C9.85416667,11.0677083 8.29166667,7.25 10.8958333,7.77083333 C11.4166667,5.6875 17.1458333,5.6875 17.6666667,7.77083333 C18.028125,9.21666667 17.1458333,11.1604167 17.1458333,11.4166667 C18.00625,11.4166667 18.00625,13.5 17.1458333,13.5 C17.1458333,16.1041667 15.5833333,16.625 15.5833333,16.625 L15.5833333,19.2291667 C18.1635417,20.196875 20.71875,20.996875 22.0270833,21.9114583 C24.1604167,19.7489583 25.4791667,16.7791667 25.4791667,13.5 C25.4791667,6.88333333 20.1166667,1.52083333 13.5,1.52083333 C6.88333333,1.52083333 1.52083333,6.88333333 1.52083333,13.5 C1.52083333,16.784375 2.84375,19.759375 4.984375,21.9239583 C6.36979167,20.965625 9.10104167,20.1052083 11.4166667,19.2291667 L11.4166667,16.625 L11.4166667,16.625 Z" id="Stroke-528" sketch:type="MSShapeGroup"></path>
                <path d="M4.98458333,21.9238542 C7.15645833,24.1186458 10.1689583,25.4790625 13.5002083,25.4790625 C16.8366667,25.4790625 19.8533333,24.1144792 22.02625,21.9113542" id="Stroke-529" sketch:type="MSShapeGroup"></path>
            </g>
        </g>
    </g>
</svg>