<?xml version="1.0" encoding="UTF-8" standalone="no"?>
<svg width="48px" height="48px" viewBox="0 0 48 48" version="1.1" xmlns="http://www.w3.org/2000/svg" xmlns:xlink="http://www.w3.org/1999/xlink" xmlns:sketch="http://www.bohemiancoding.com/sketch/ns">
    <!-- Generator: sketchtool 3.4.4 (395) - http://www.bohemiancoding.com/sketch -->
    <title>ic_commerce_api</title>
    <desc>Created with sketchtool.</desc>
    <defs></defs>
    <g id="2.x-Products-Getting-Started---Responsive" stroke="none" stroke-width="1" fill="none" fill-rule="evenodd" sketch:type="MSPage">
        <g id="2.4.1-Products+API-Getting-Started-Tablet" sketch:type="MSArtboardGroup" transform="translate(-83.000000, -2236.000000)" stroke="#009CDE" stroke-width="2" stroke-linecap="round" stroke-linejoin="round">
            <g id="Table-2" sketch:type="MSLayerGroup" transform="translate(26.000000, 1692.000000)">
                <g id="ic_commerce_api" transform="translate(58.000000, 545.000000)" sketch:type="MSShapeGroup">
                    <path d="M46,23 C46,35.704 35.704,46 23,46 C10.296,46 0,35.704 0,23 C0,10.296 10.296,0 23,0 C35.704,0 46,10.296 46,23 L46,23 Z" id="Stroke-5276" stroke-dasharray="7.505,2.814"></path>
                    <path d="M19.125,27.876 C19.125,30.57 21.309,32.75 24.001,32.75 C26.691,32.75 28.875,30.57 28.875,27.876 C28.875,25.186 26.691,23 24.001,23 C21.309,23 19.125,20.818 19.125,18.126 C19.125,15.436 21.309,13.252 24.001,13.252 C26.691,13.252 28.875,15.436 28.875,18.126" id="Stroke-5277"></path>
                    <path d="M24,32.75 L24,36" id="Stroke-5278"></path>
                    <path d="M24,10 L24,13.252" id="Stroke-5279"></path>
                </g>
            </g>
        </g>
    </g>
</svg>