<?xml version="1.0" encoding="UTF-8" standalone="no"?>
<svg width="264px" height="264px" viewBox="0 0 264 264" version="1.1" xmlns="http://www.w3.org/2000/svg" xmlns:xlink="http://www.w3.org/1999/xlink" xmlns:sketch="http://www.bohemiancoding.com/sketch/ns">
    <!-- Generator: sketchtool 3.5.2 (25235) - http://www.bohemiancoding.com/sketch -->
    <title>croped</title>
    <desc>Created with sketchtool.</desc>
    <defs>
        <rect id="path-1" x="0" y="0" width="262" height="262"></rect>
        <path id="path-3" d="M0.0546776702,0.760347909 L320.146872,0.760347909 L320.146872,42.7829563 L0.0546776702,42.7829563 L0.0546776702,0.760347909 Z"></path>
    </defs>
    <g id="4.x-Support---Responsive" stroke="none" stroke-width="1" fill="none" fill-rule="evenodd" sketch:type="MSPage">
        <g id="4.5.1-Branding-Guide-Desktop" sketch:type="MSArtboardGroup" transform="translate(-733.000000, -1718.000000)">
            <g id="croped" sketch:type="MSLayerGroup" transform="translate(734.000000, 1719.000000)">
                <g id="Rectangle-90-+-ticketmaster_logo_white">
                    <mask id="mask-2" sketch:name="Mask" fill="white">
                        <use xlink:href="#path-1"></use>
                    </mask>
                    <g id="Mask">
                        <use stroke="#FFFFFF" stroke-width="1" fill="#FFFFFF" fill-rule="evenodd" sketch:type="MSShapeGroup" xlink:href="#path-1"></use>
                        <use stroke-opacity="0.200000003" stroke="#768692" stroke-width="2" fill="none" xlink:href="#path-1"></use>
                    </g>
                    <g id="ticketmaster_logo_white" mask="url(#mask-2)">
                        <g transform="translate(-29.885932, 100.615970)">
                            <g id="TM-GrayLogo" stroke-width="1" fill-rule="evenodd" sketch:type="MSLayerGroup">
                                <mask id="mask-4" sketch:name="Clip 2" fill="white">
                                    <use xlink:href="#path-3"></use>
                                </mask>
                                <g id="Clip-2"></g>
                                <path d="M189.551079,37.4275011 C195.186525,37.4275011 196.934387,33.620407 198.115425,29.0395786 L195.468115,29.0395786 C191.805622,29.0395786 185.719997,29.6473215 185.719997,34.4476869 C185.719997,36.4342297 187.634627,37.4275011 189.551079,37.4275011 L189.551079,37.4275011 Z M196.934387,37.8139221 L196.820476,37.8139221 C194.228754,41.0150581 191.636121,42.8365019 187.466038,42.8365019 C182.227917,42.8365019 178.509835,39.9655638 178.509835,34.7243394 C178.509835,25.342253 189.2139,24.625634 196.313796,24.625634 L198.962018,24.625634 C199.187108,23.8518997 199.187108,23.0246198 199.187108,22.1964474 C199.187108,19.3281866 196.032206,18.5000143 193.383984,18.5000143 C190.05867,18.5000143 186.846357,19.3281866 183.860045,20.7069865 L184.929905,14.8026887 C188.142218,13.7005412 191.411031,13.0919059 194.792845,13.0919059 C200.595969,13.0919059 206.061913,15.1891096 206.061913,21.8653569 C206.061913,25.6733435 203.188602,36.8215431 202.512421,42.174321 L196.144295,42.174321 L196.934387,37.8139221 L196.934387,37.8139221 Z" id="Fill-1" fill="#009CDE" sketch:type="MSShapeGroup" mask="url(#mask-4)"></path>
                                <path d="M26.824865,1.47696689 L34.37494,1.47696689 L32.7974892,8.54141999 L25.2465029,8.54141999 L26.824865,1.47696689 L26.824865,1.47696689 Z M24.0627314,13.7282064 L31.6137176,13.7282064 L25.4160037,42.1475482 L17.8650175,42.1475482 L24.0627314,13.7282064 L24.0627314,13.7282064 Z" id="Fill-4" fill="#009CDE" sketch:type="MSShapeGroup" mask="url(#mask-4)"></path>
                                <path d="M54.4179513,20.2411396 C52.9507672,19.3023062 50.9796371,18.8052243 48.8945953,18.8052243 C42.8645596,18.8052243 39.483657,24.3239937 39.483657,29.677664 C39.483657,33.3723123 40.7230175,37.0705303 45.9082832,37.0705303 C47.7682353,37.0705303 50.0783669,36.5734484 52.0494969,35.6363999 L51.2047269,41.4862597 C48.8945953,42.5892996 46.4158743,42.8106215 43.9362419,42.8106215 C36.4408446,42.8106215 31.5945805,37.9004875 31.5945805,30.5602744 C31.5945805,20.6266681 38.3007967,13.0678104 48.7260058,13.0678104 C51.5437284,13.0678104 54.2475392,13.5639998 56.2779034,14.1699579 L54.4179513,20.2411396" id="Fill-5" fill="#009CDE" sketch:type="MSShapeGroup" mask="url(#mask-4)"></path>
                                <path d="M62.6988845,0.760347909 L70.2498707,0.760347909 L65.2341058,24.0482337 L65.3480176,24.0482337 L75.8853159,13.7282064 L85.6899335,13.7282064 L71.7717325,26.6969574 L80.5055791,42.1475482 L71.9968223,42.1475482 L64.501425,27.0842708 L64.3884245,27.0842708 L61.1205224,42.1475482 L53.7390369,42.1475482 L62.6988845,0.760347909" id="Fill-6" fill="#009CDE" sketch:type="MSShapeGroup" mask="url(#mask-4)"></path>
                                <path d="M112.909389,13.7282064 L118.375333,13.7282064 L119.671194,7.87923907 L127.786272,5.28495342 L125.92632,13.7282064 L132.689036,13.7282064 L131.506176,19.1363148 L124.742548,19.1363148 L121.981326,31.5526534 C121.812736,32.2148343 121.643236,33.2089981 121.643236,34.3111456 C121.643236,36.0228208 122.827007,37.0705303 124.51837,37.0705303 C125.870731,37.0705303 127.223092,36.7947703 128.179951,36.4083493 L126.883179,42.1475482 C125.588229,42.4233081 124.122868,42.8106215 122.827007,42.8106215 C117.699153,42.8106215 114.092249,40.8240787 114.092249,35.3597475 C114.092249,33.1536676 114.54334,31.0011334 115.050931,28.7397231 L117.192473,19.1363148 L111.725617,19.1363148 L112.909389,13.7282064" id="Fill-7" fill="#009CDE" sketch:type="MSShapeGroup" mask="url(#mask-4)"></path>
                                <path d="M110.384192,23.8831347 C110.384192,16.6526901 105.650017,13.0678104 98.4945326,13.0678104 C88.9705937,13.0678104 81.9827875,21.5663939 81.9827875,30.3951754 C81.9827875,38.8384284 87.6182327,42.8106215 95.9584,42.8106215 C99.0568013,42.8106215 102.270026,42.0940025 105.198926,41.2113921 L106.158519,35.3597475 C103.338974,36.6305637 100.352662,37.4025131 97.2542608,37.4025131 C92.4243999,37.4025131 89.6021208,35.7220729 89.2394256,31.2536903 L89.2330465,31.2536903 C89.2193771,30.993994 89.1947722,30.7414371 89.1947722,30.4692468 C89.1947722,30.4165936 89.1984173,30.363048 89.1984173,30.3112872 C89.1984173,30.283622 89.1965948,30.2577416 89.1965948,30.2282915 L89.2020625,30.2282915 C89.2357804,28.281908 89.6713792,26.3622972 90.4286649,24.5908294 C91.8794458,20.9738222 93.931681,18.4750263 98.3806208,18.4750263 C101.536434,18.4750263 103.171296,20.1849167 103.171296,23.2209537 C103.171296,23.8831347 103.113884,24.4890927 103.001795,25.152166 L92.6695381,25.152166 C91.9997366,27.3850187 91.8821797,28.881619 91.8685102,30.2282915 L109.651511,30.2282915 C110.100779,28.1310878 110.384192,26.0347765 110.384192,23.8831347" id="Fill-8" fill="#009CDE" sketch:type="MSShapeGroup" mask="url(#mask-4)"></path>
                                <path d="M135.946914,16.874012 C136.172004,15.7709721 136.397094,14.6117093 136.566594,13.7282064 L143.610901,13.7282064 L142.93472,17.536193 L143.04681,17.536193 C145.075351,14.6117093 148.399753,13.0678104 151.949246,13.0678104 C155.38756,13.0678104 158.937052,15.0534607 159.331642,18.4750263 L159.444643,18.4750263 C161.360184,14.7777007 165.586768,13.0678104 169.643851,13.0678104 C173.982524,13.0678104 177.701517,16.5429216 177.701517,20.84799 C177.701517,23.3860528 177.026248,26.2569908 176.406567,28.5737316 L173.362844,42.1475482 L165.811858,42.1475482 L168.855581,28.2961868 C169.24926,26.5862964 169.813352,23.9366803 169.813352,22.2267899 C169.813352,20.1304786 168.179401,18.8052243 166.262948,18.8052243 C161.021182,18.8052243 159.725322,24.7648527 158.768462,28.6290621 L155.781239,42.1475482 L148.231164,42.1475482 L151.273976,28.2961868 C151.668567,26.5862964 152.232658,23.9366803 152.232658,22.2267899 C152.232658,20.1304786 150.597796,18.8052243 148.681344,18.8052243 C143.553489,18.8052243 142.143717,24.8201831 141.186858,28.6290621 L138.199634,42.1475482 L130.649559,42.1475482 L135.946914,16.874012" id="Fill-9" fill="#009CDE" sketch:type="MSShapeGroup" mask="url(#mask-4)"></path>
                                <path d="M228.492516,19.5147039 C227.681464,19.0827692 225.596422,18.4750263 223.45488,18.4750263 C221.201249,18.4750263 218.384438,19.0827692 218.384438,21.3432871 C218.384438,24.9299517 228.188144,26.2569908 228.188144,33.2089981 C228.188144,40.6036492 221.595839,42.8106215 215.115624,42.8106215 C212.072812,42.8106215 209.029088,42.3706549 206.267866,41.1007311 L207.902728,35.1955409 C210.043359,36.3539113 212.184901,37.4025131 215.115624,37.4025131 C217.651757,37.4025131 220.299979,36.5734484 220.299979,34.2584924 C220.299979,29.677664 210.495361,29.2341277 210.495361,22.1170214 C210.495361,15.4398817 217.087665,13.0678104 223.061201,13.0678104 C225.822423,13.0678104 228.639235,13.5639998 230.127378,13.9406041 L228.492516,19.5147039" id="Fill-10" fill="#009CDE" sketch:type="MSShapeGroup" mask="url(#mask-4)"></path>
                                <path d="M233.315087,13.7282064 L238.781942,13.7282064 L240.077803,7.87923907 L248.192881,5.28495342 L246.332929,13.7282064 L253.094734,13.7282064 L251.911874,19.1363148 L245.149157,19.1363148 L242.387935,31.5526534 C242.219345,32.2148343 242.050756,33.2089981 242.050756,34.3111456 C242.050756,36.0228208 243.234527,37.0705303 244.924979,37.0705303 C246.276428,37.0705303 247.628789,36.7947703 248.58656,36.4083493 L247.29161,42.1475482 C245.994838,42.4233081 244.530388,42.8106215 243.234527,42.8106215 C238.105762,42.8106215 234.49977,40.8240787 234.49977,35.3597475 C234.49977,33.1536676 234.95086,31.0011334 235.456629,28.7397231 L237.599993,19.1363148 L232.133138,19.1363148 L233.315087,13.7282064" id="Fill-11" fill="#009CDE" sketch:type="MSShapeGroup" mask="url(#mask-4)"></path>
                                <path d="M284.510701,17.536193 C284.73579,16.3224921 284.961791,15.0534607 285.186881,13.7282064 L292.400688,13.7282064 L291.385506,19.0827692 L291.499418,19.0827692 C292.851779,15.9914016 296.569861,13.0678104 300.063764,13.0678104 C301.022446,13.0678104 302.037628,13.1204636 302.937987,13.3426779 L301.360536,20.57223 C300.514855,20.2955776 299.444084,20.1304786 298.487224,20.1304786 C293.133369,20.1304786 290.540736,24.8201831 289.582966,29.4010116 L286.878244,42.1475482 L279.327257,42.1475482 L284.510701,17.536193" id="Fill-12" fill="#009CDE" sketch:type="MSShapeGroup" mask="url(#mask-4)"></path>
                                <path d="M279.270757,23.8831347 C279.270757,16.6526901 274.537494,13.0678104 267.380187,13.0678104 C257.85807,13.0678104 250.869353,21.5663939 250.869353,30.3951754 C250.869353,38.8384284 256.503887,42.8106215 264.844965,42.8106215 C267.943367,42.8106215 271.156591,42.0940025 274.086403,41.2113921 L275.044173,35.3597475 C272.226451,36.6305637 269.240139,37.4025131 266.141737,37.4025131 C261.310054,37.4025131 258.488686,35.7220729 258.12508,31.2536903 L258.119612,31.2536903 C258.105942,30.993994 258.081337,30.7414371 258.081337,30.4692468 C258.081337,30.4165936 258.084071,30.363048 258.085894,30.3112872 C258.085894,30.283622 258.08316,30.2577416 258.08316,30.2282915 L258.088628,30.2282915 C258.121434,28.281908 258.557944,26.3622972 259.316141,24.5908294 C260.7651,20.9738222 262.817335,18.4750263 267.267186,18.4750263 C270.422088,18.4750263 272.05695,20.1849167 272.05695,23.2209537 C272.05695,23.8831347 272.00045,24.4890927 271.88836,25.152166 L261.556103,25.152166 C260.886302,27.3850187 260.767834,28.881619 260.755075,30.2282915 L278.538076,30.2282915 C278.988256,28.1310878 279.270757,26.0347765 279.270757,23.8831347" id="Fill-13" fill="#009CDE" sketch:type="MSShapeGroup" mask="url(#mask-4)"></path>
                            </g>
                            <rect id="shape" sketch:type="MSShapeGroup" x="0" y="0" width="320.775665" height="59.7718631"></rect>
                        </g>
                    </g>
                </g>
                <path d="M52.3003802,205.714829 L202.061734,55.9534734" id="Line" stroke="#D0011B" stroke-width="4" stroke-linecap="square" sketch:type="MSShapeGroup"></path>
            </g>
        </g>
    </g>
</svg>