<?xml version="1.0" encoding="UTF-8" standalone="no"?>
<svg width="264px" height="264px" viewBox="0 0 264 264" version="1.1" xmlns="http://www.w3.org/2000/svg" xmlns:xlink="http://www.w3.org/1999/xlink" xmlns:sketch="http://www.bohemiancoding.com/sketch/ns">
    <!-- Generator: sketchtool 3.5.2 (25235) - http://www.bohemiancoding.com/sketch -->
    <title>distorted</title>
    <desc>Created with sketchtool.</desc>
    <defs>
        <rect id="path-1" x="0" y="0" width="262" height="262"></rect>
        <path id="path-2" d="M0.0283576737,0.495110266 L166.038906,0.495110266 L166.038906,27.8586692 L0.0283576737,27.8586692 L0.0283576737,0.495110266 Z"></path>
    </defs>
    <g id="4.x-Support---Responsive" stroke="none" stroke-width="1" fill="none" fill-rule="evenodd" sketch:type="MSPage">
        <g id="4.5.1-Branding-Guide-Desktop" sketch:type="MSArtboardGroup" transform="translate(-441.000000, -1718.000000)">
            <g id="distorted" sketch:type="MSLayerGroup" transform="translate(442.000000, 1719.000000)">
                <g id="Rectangle-90">
                    <use stroke="#FFFFFF" stroke-width="1" fill="#FFFFFF" fill-rule="evenodd" sketch:type="MSShapeGroup" xlink:href="#path-1"></use>
                    <use stroke-opacity="0.200000003" stroke="#768692" stroke-width="2" fill="none" xlink:href="#path-1"></use>
                </g>
                <g id="ticketmaster_logo_white" transform="translate(47.817490, 111.574144)">
                    <g id="TM-GrayLogo">
                        <mask id="mask-3" sketch:name="Clip 2" fill="white">
                            <use xlink:href="#path-2"></use>
                        </mask>
                        <g id="Clip-2"></g>
                        <path d="M98.3075474,24.3713961 C101.230278,24.3713961 102.136779,21.892358 102.749304,18.909493 L101.37632,18.909493 C99.4768288,18.909493 96.3206197,19.3052326 96.3206197,22.431052 C96.3206197,23.7246147 97.3136109,24.3713961 98.3075474,24.3713961 L98.3075474,24.3713961 Z M102.136779,24.623019 L102.0777,24.623019 C100.733546,26.7074797 99.38892,27.8935361 97.2261748,27.8935361 C94.5095096,27.8935361 92.5811878,26.0240881 92.5811878,22.6111977 C92.5811878,16.5019322 98.1326751,16.0352966 101.814919,16.0352966 L103.188376,16.0352966 C103.305115,15.5314696 103.305115,14.9927757 103.305115,14.4535006 C103.305115,12.5857959 101.668877,12.0465209 100.29542,12.0465209 C98.5708011,12.0465209 96.9047878,12.5857959 95.3559862,13.4836191 L95.9108513,9.63896008 C97.5768647,8.92128264 99.2721809,8.52496198 101.026103,8.52496198 C104.035797,8.52496198 106.87062,9.89058302 106.87062,14.2379068 C106.87062,16.717526 105.380424,23.9768188 105.029734,27.4623485 L101.72701,27.4623485 L102.136779,24.623019 L102.136779,24.623019 Z" id="Fill-1" fill="#009CDE" sketch:type="MSShapeGroup" mask="url(#mask-3)"></path>
                        <path d="M0.613471008,8.93929721 L3.44876575,8.93929721 L4.12084262,5.1306673 L8.32912139,3.44136502 L7.36448786,8.93929721 L10.8718595,8.93929721 L10.2579158,12.4608561 L6.75054422,12.4608561 L5.31895433,20.5459138 C5.23104554,20.9771014 5.14360938,21.6244639 5.14360938,22.3421413 C5.14360938,23.4567205 5.75755302,24.1389499 6.63427776,24.1389499 C7.33565756,24.1389499 8.03703735,23.9593853 8.5342419,23.7077624 L7.8616924,27.4449151 C7.18914291,27.6244797 6.42962988,27.8766838 5.75755302,27.8766838 C3.09807585,27.8766838 1.22741464,26.583121 1.22741464,23.0249518 C1.22741464,21.5884347 1.46136545,20.1867845 1.72414656,18.7142383 L2.83482211,12.4608561 L0,12.4608561 L0.613471008,8.93929721" id="Fill-3" fill="#009CDE" sketch:type="MSShapeGroup" mask="url(#mask-3)"></path>
                        <path d="M13.9122747,0.961745881 L17.8279968,0.961745881 L17.0098779,5.56185488 L13.0936832,5.56185488 L13.9122747,0.961745881 L13.9122747,0.961745881 Z M12.4797396,8.93929721 L16.3959343,8.93929721 L13.181592,27.4449151 L9.26539725,27.4449151 L12.4797396,8.93929721 L12.4797396,8.93929721 Z" id="Fill-4" fill="#009CDE" sketch:type="MSShapeGroup" mask="url(#mask-3)"></path>
                        <path d="M28.2229747,13.1802769 C27.4620438,12.5689436 26.4397497,12.2452624 25.3583771,12.2452624 C22.2309983,12.2452624 20.4775488,15.8388796 20.4775488,19.3249905 C20.4775488,21.730808 21.1203227,24.1389499 23.8095755,24.1389499 C24.774209,24.1389499 25.9723207,23.8152687 26.9946148,23.2050976 L26.5564888,27.0143086 C25.3583771,27.7325672 24.0728292,27.8766838 22.7868087,27.8766838 C18.8994443,27.8766838 16.3860091,24.6793872 16.3860091,19.8997136 C16.3860091,13.4313188 19.8640778,8.50927186 25.2709409,8.50927186 C26.7323064,8.50927186 28.1345933,8.83237199 29.1876083,9.2269493 L28.2229747,13.1802769" id="Fill-5" fill="#009CDE" sketch:type="MSShapeGroup" mask="url(#mask-3)"></path>
                        <path d="M32.5177444,0.495110266 L36.4339392,0.495110266 L33.8325952,15.659315 L33.8916737,15.659315 L39.3566701,8.93929721 L44.4416736,8.93929721 L37.2232277,17.3840653 L41.7528935,27.4449151 L37.3399668,27.4449151 L33.4526024,17.6362693 L33.3939965,17.6362693 L31.6991529,27.4449151 L27.870867,27.4449151 L32.5177444,0.495110266" id="Fill-6" fill="#009CDE" sketch:type="MSShapeGroup" mask="url(#mask-3)"></path>
                        <path d="M58.5585962,8.93929721 L61.3934183,8.93929721 L62.0654952,5.1306673 L66.2742466,3.44136502 L65.309613,8.93929721 L68.8169846,8.93929721 L68.2035136,12.4608561 L64.6956694,12.4608561 L63.2636069,20.5459138 C63.1761707,20.9771014 63.0882619,21.6244639 63.0882619,22.3421413 C63.0882619,23.4567205 63.7022056,24.1389499 64.5794029,24.1389499 C65.2807827,24.1389499 65.9821625,23.9593853 66.4784218,23.7077624 L65.8058723,27.4449151 C65.1342681,27.6244797 64.3742824,27.8766838 63.7022056,27.8766838 C61.0427284,27.8766838 59.1720672,26.583121 59.1720672,23.0249518 C59.1720672,21.5884347 59.406018,20.1867845 59.6692717,18.7142383 L60.7799473,12.4608561 L57.9446525,12.4608561 L58.5585962,8.93929721" id="Fill-7" fill="#009CDE" sketch:type="MSShapeGroup" mask="url(#mask-3)"></path>
                        <path d="M57.2489443,15.5518086 C57.2489443,10.8436122 54.7936424,8.50927186 51.0825681,8.50927186 C46.143134,8.50927186 42.5190233,14.0432332 42.5190233,19.7922072 C42.5190233,25.2901394 45.4417542,27.8766838 49.7672447,27.8766838 C51.3741795,27.8766838 53.0406655,27.4100482 54.5596916,26.8353251 L55.0573687,23.0249518 C53.595058,23.8524601 52.0462564,24.3551248 50.4393216,24.3551248 C47.9343937,24.3551248 46.4706651,23.2608847 46.2825592,20.3512402 L46.2792508,20.3512402 C46.2721614,20.1821356 46.2594005,20.01768 46.2594005,19.8404398 C46.2594005,19.806154 46.261291,19.7712871 46.261291,19.7375824 C46.261291,19.7195678 46.2603457,19.7027155 46.2603457,19.6835387 L46.2631815,19.6835387 C46.2806687,18.4161261 46.5065849,17.166147 46.8993386,16.0126331 C47.6517622,13.6573726 48.7161203,12.0302497 51.0234897,12.0302497 C52.6602001,12.0302497 53.5080945,13.1436667 53.5080945,15.120621 C53.5080945,15.5518086 53.4783189,15.9463859 53.4201857,16.3781546 L48.0615306,16.3781546 C47.7141491,17.8321052 47.6531801,18.8066356 47.6460907,19.6835387 L56.8689515,19.6835387 C57.101957,18.3179176 57.2489443,16.9528777 57.2489443,15.5518086" id="Fill-8" fill="#009CDE" sketch:type="MSShapeGroup" mask="url(#mask-3)"></path>
                        <path d="M70.5066294,10.9877288 C70.6233685,10.2694702 70.7401075,9.51460139 70.8280163,8.93929721 L74.48143,8.93929721 L74.1307401,11.4189163 L74.1888733,11.4189163 C75.240943,9.51460139 76.9650895,8.50927186 78.8059752,8.50927186 C80.5892002,8.50927186 82.4300859,9.80225349 82.6347338,12.0302497 L82.6933396,12.0302497 C83.6868035,9.62268885 85.8788516,8.50927186 87.982991,8.50927186 C90.2331724,8.50927186 92.1619669,10.772135 92.1619669,13.5754354 C92.1619669,15.2281274 91.8117496,17.0975754 91.4903626,18.6061508 L89.9117855,27.4449151 L85.9955907,27.4449151 L87.5741679,18.425424 C87.7783432,17.312007 88.0708998,15.5866755 88.0708998,14.4732586 C88.0708998,13.1082186 87.223478,12.2452624 86.2295415,12.2452624 C83.5109859,12.2452624 82.838909,16.1259506 82.3426497,18.64218 L80.7933755,27.4449151 L76.8776534,27.4449151 L78.4557579,18.425424 C78.6604058,17.312007 78.9529625,15.5866755 78.9529625,14.4732586 C78.9529625,13.1082186 78.105068,12.2452624 77.1111316,12.2452624 C74.4516544,12.2452624 73.720499,16.1619797 73.2242398,18.64218 L71.6749655,27.4449151 L67.7592434,27.4449151 L70.5066294,10.9877288" id="Fill-9" fill="#009CDE" sketch:type="MSShapeGroup" mask="url(#mask-3)"></path>
                        <path d="M118.503883,12.707249 C118.083244,12.4259892 117.001871,12.0302497 115.891196,12.0302497 C114.722387,12.0302497 113.261494,12.4259892 113.261494,13.8979544 C113.261494,16.2334569 118.346025,17.0975754 118.346025,21.6244639 C118.346025,26.4395856 114.927035,27.8766838 111.566178,27.8766838 C109.988073,27.8766838 108.409496,27.5901939 106.977434,26.7632668 L107.825328,22.9180266 C108.935531,23.6723143 110.046206,24.3551248 111.566178,24.3551248 C112.881501,24.3551248 114.254958,23.8152687 114.254958,22.3078555 C114.254958,19.3249905 109.169954,19.0361762 109.169954,14.4017814 C109.169954,10.0538764 112.588944,8.50927186 115.68702,8.50927186 C117.119083,8.50927186 118.579976,8.83237199 119.351777,9.07760266 L118.503883,12.707249" id="Fill-10" fill="#009CDE" sketch:type="MSShapeGroup" mask="url(#mask-3)"></path>
                        <path d="M121.005029,8.93929721 L123.840324,8.93929721 L124.512401,5.1306673 L128.721152,3.44136502 L127.756519,8.93929721 L131.263418,8.93929721 L130.649947,12.4608561 L127.142575,12.4608561 L125.710513,20.5459138 C125.623077,20.9771014 125.53564,21.6244639 125.53564,22.3421413 C125.53564,23.4567205 126.149584,24.1389499 127.026309,24.1389499 C127.727216,24.1389499 128.428596,23.9593853 128.925328,23.7077624 L128.253723,27.4449151 C127.581174,27.6244797 126.821661,27.8766838 126.149584,27.8766838 C123.489634,27.8766838 121.619446,26.583121 121.619446,23.0249518 C121.619446,21.5884347 121.853396,20.1867845 122.115705,18.7142383 L123.227326,12.4608561 L120.392031,12.4608561 L121.005029,8.93929721" id="Fill-11" fill="#009CDE" sketch:type="MSShapeGroup" mask="url(#mask-3)"></path>
                        <path d="M147.556792,11.4189163 C147.673531,10.6285995 147.790743,9.80225349 147.907482,8.93929721 L151.648804,8.93929721 L151.122297,12.4259892 L151.181375,12.4259892 C151.882755,10.4130057 153.811077,8.50927186 155.623132,8.50927186 C156.120337,8.50927186 156.646844,8.54355767 157.113801,8.68825539 L156.295682,13.3958707 C155.857083,13.215725 155.301745,13.1082186 154.805486,13.1082186 C152.028797,13.1082186 150.684171,16.1619797 150.187439,19.1448447 L148.784679,27.4449151 L144.868484,27.4449151 L147.556792,11.4189163" id="Fill-12" fill="#009CDE" sketch:type="MSShapeGroup" mask="url(#mask-3)"></path>
                        <path d="M144.839182,15.5518086 C144.839182,10.8436122 142.384352,8.50927186 138.672333,8.50927186 C133.733844,8.50927186 130.109261,14.0432332 130.109261,19.7922072 C130.109261,25.2901394 133.031519,27.8766838 137.357482,27.8766838 C138.964417,27.8766838 140.630903,27.4100482 142.150401,26.8353251 L142.647133,23.0249518 C141.185768,23.8524601 139.636966,24.3551248 138.030031,24.3551248 C135.524158,24.3551248 134.060902,23.2608847 133.872324,20.3512402 L133.869488,20.3512402 C133.862399,20.1821356 133.849638,20.01768 133.849638,19.8404398 C133.849638,19.806154 133.851056,19.7712871 133.852001,19.7375824 C133.852001,19.7195678 133.850583,19.7027155 133.850583,19.6835387 L133.853419,19.6835387 C133.870433,18.4161261 134.096822,17.166147 134.490049,16.0126331 C135.241527,13.6573726 136.305885,12.0302497 138.613727,12.0302497 C140.249965,12.0302497 141.097859,13.1436667 141.097859,15.120621 C141.097859,15.5518086 141.068556,15.9463859 141.010423,16.3781546 L135.651768,16.3781546 C135.304386,17.8321052 135.242945,18.8066356 135.236328,19.6835387 L144.459189,19.6835387 C144.692667,18.3179176 144.839182,16.9528777 144.839182,15.5518086" id="Fill-13" fill="#009CDE" sketch:type="MSShapeGroup" mask="url(#mask-3)"></path>
                        <path d="M162.465401,11.9667654 L163.20738,11.9667654 C163.688318,11.9667654 163.999647,11.841282 163.999647,11.2167297 C163.999647,10.6718222 163.608771,10.5119597 163.20738,10.5119597 L162.465401,10.5119597 L162.465401,11.9667654 L162.465401,11.9667654 Z M161.839999,9.89772115 L163.307956,9.89772115 C164.18937,9.89772115 164.62322,10.3429295 164.62322,11.2528277 C164.62322,12.0234908 164.233715,12.581004 163.633001,12.581004 L164.725168,14.7073467 L164.060907,14.7073467 L162.989312,12.581004 L162.465401,12.581004 L162.465401,14.7073467 L161.839999,14.7073467 L161.839999,9.89772115 L161.839999,9.89772115 Z M163.101318,15.7971618 C164.604476,15.7971618 165.73916,14.273598 165.73916,12.3088367 C165.73916,10.3429295 164.604476,8.81879277 163.101318,8.81879277 C161.578044,8.81879277 160.441074,10.3429295 160.441074,12.3088367 C160.441074,14.273598 161.578044,15.7971618 163.101318,15.7971618 L163.101318,15.7971618 Z M163.090803,8.20398121 C164.893405,8.20398121 166.365019,10.043832 166.365019,12.3088367 C166.365019,14.5686846 164.893405,16.4079624 163.090803,16.4079624 C161.287287,16.4079624 159.815215,14.5686846 159.815215,12.3088367 C159.815215,10.043832 161.287287,8.20398121 163.090803,8.20398121 L163.090803,8.20398121 Z" id="Fill-15" fill="#009CDE" sketch:type="MSShapeGroup" mask="url(#mask-3)"></path>
                    </g>
                    <rect id="shape" sketch:type="MSShapeGroup" x="0" y="0" width="166.365019" height="38.851711"></rect>
                </g>
                <path d="M56.2851711,205.714829 L206.046525,55.9534734" id="Line" stroke="#D0011B" stroke-width="4" stroke-linecap="square" sketch:type="MSShapeGroup"></path>
            </g>
        </g>
    </g>
</svg>