<?xml version="1.0" encoding="UTF-8" standalone="no"?>
<!DOCTYPE svg  PUBLIC '-//W3C//DTD SVG 1.1//EN'  'http://www.w3.org/Graphics/SVG/1.1/DTD/svg11.dtd'>
<svg xmlns="http://www.w3.org/2000/svg">
<defs>
<font id="TMSans-Regular" horiz-adv-x="589">
<font-face underline-position="-50" font-weight="400" descent="-200" panose-1="2 11 5 2 3 4 2 2 2 4" units-per-em="1000" unicode-range="U+0020-2215" bbox="-170 -257 1161 959" x-height="465" underline-thickness="50" font-family="TMSans" ascent="800" cap-height="682"/>
<missing-glyph horiz-adv-x="1000"/>
<glyph glyph-name="IJ" horiz-adv-x="553" unicode="IJ" d="M408 175v507h82v-507q0 -97 -46.5 -146t-131.5 -49q-55 0 -98 24l26 70q31 -20 72 -20q50 0 73 27.5t23 93.5zM74 0v682h83v-682h-83z"/>
<glyph glyph-name="ij" horiz-adv-x="425" unicode="ij" d="M270 575v92h97v-92h-97zM358 465v-524q0 -94 -40.5 -140t-113.5 -46q-42 0 -93 18l18 62q28 -14 68 -14q82 0 82 121v523h79zM58 575v92h97v-92h-97zM67 0v465h79v-465h-79z"/>
<glyph glyph-name="napostrophe" horiz-adv-x="597" unicode="&apos;n" d="M-22 601v97h99v-48q0 -92 -47 -168h-50q27 41 33 119h-35zM128 0v465h79v-57h2q55 72 144 72q34 0 64.5 -11t58 -34.5t44 -65.5t16.5 -99v-270h-79v266q0 68 -31 105.5t-85 37.5q-63 0 -98.5 -41t-35.5 -121v-247h-79z"/>
<glyph glyph-name=".notdef" horiz-adv-x="1000"/>
<glyph glyph-name=".null" horiz-adv-x="0"/>
<glyph glyph-name="nonmarkingreturn" horiz-adv-x="333"/>
<glyph glyph-name="space" horiz-adv-x="250" unicode=" "/>
<glyph glyph-name="exclam" horiz-adv-x="229" unicode="!" d="M71 88h88v-88h-88v88zM79 189l-8 493h88l-8 -493h-72z"/>
<glyph glyph-name="quotedbl" horiz-adv-x="359" unicode='&quot;' d="M220 721h79l-10 -217h-61zM60 721h79l-10 -217h-60z"/>
<glyph glyph-name="numbersign" horiz-adv-x="590" unicode="#" d="M380 424h-135l-38 -170h136zM448 476h128l-12 -52h-127l-37 -170h129l-10 -54h-130l-43 -200h-58l44 200h-134l-45 -200h-56l43 200h-126l11 54h126l38 170h-129l10 52h130l43 206h58l-45 -206h134l45 206h57z"/>
<glyph glyph-name="dollar" horiz-adv-x="562" unicode="$" d="M160 510q0 -37 19.5 -56t71.5 -37v180q-43 -7 -67 -30t-24 -57zM417 198q0 47 -23 74.5t-76 45.5v-230q48 8 73.5 40t25.5 70zM461 580l-61 -45q-30 48 -82 61v-199q98 -31 139 -78t41 -117q0 -65 -47.5 -117.5t-132.5 -62.5v-74h-67v73q-122 11 -173 101l64 43 q35 -67 109 -78v251q-93 25 -132 65.5t-39 106.5q0 59 47.5 102t123.5 50v61h67v-61q90 -13 143 -82z"/>
<glyph glyph-name="percent" horiz-adv-x="753" unicode="%" d="M566 682h77l-453 -682h-77zM635 165q0 118 -76 118q-33 0 -54 -28.5t-21 -88.5q0 -123 76 -123q33 0 54 29t21 93zM414 165q0 92 44 137.5t105 45.5q59 0 100.5 -43t41.5 -138q0 -55 -14 -94t-37.5 -58.5t-46.5 -28t-47 -8.5q-61 0 -103.5 44t-42.5 143zM269 519 q0 119 -75 119q-33 0 -54.5 -29t-21.5 -89q0 -123 77 -123q32 0 53 29.5t21 92.5zM48 519q0 92 44.5 138t105.5 46q58 0 99.5 -43.5t41.5 -138.5q0 -54 -14 -93.5t-37.5 -59t-46 -28t-46.5 -8.5q-60 0 -103.5 44t-43.5 143z"/>
<glyph glyph-name="ampersand" horiz-adv-x="655" unicode="&amp;" d="M208 546q0 -32 11.5 -56.5t38.5 -63.5q63 30 95 59.5t32 69.5q0 33 -22.5 55.5t-65.5 22.5q-44 0 -66.5 -25.5t-22.5 -61.5zM255 54q97 0 153 56l-176 230q-118 -61 -118 -153q0 -56 39.5 -94.5t101.5 -38.5zM489 326v12h76v-9q0 -57 -20.5 -116.5t-49.5 -97.5 q29 -36 47.5 -49.5t37.5 -13.5q16 0 29 5l11 -62q-20 -10 -52 -10q-31 0 -58 16t-62 59q-86 -78 -194 -78q-102 0 -159 60.5t-57 144.5q0 128 156 205q-62 92 -62 159q0 64 44 107.5t122 43.5q68 0 115.5 -39.5t47.5 -107.5q0 -26 -9.5 -49t-22 -39t-38.5 -34.5t-43 -28.5 t-52 -29l157 -208q36 68 36 159z"/>
<glyph glyph-name="quotesingle" horiz-adv-x="199" unicode="&apos;" d="M60 721h79l-10 -217h-60z"/>
<glyph glyph-name="parenleft" horiz-adv-x="320" unicode="(" d="M304 -215h-79q-78 97 -116 223.5t-38 254.5q0 130 37.5 255.5t116.5 224.5h79q-79 -99 -116.5 -224.5t-37.5 -255.5q0 -128 38 -254.5t116 -223.5z"/>
<glyph glyph-name="parenright" horiz-adv-x="320" unicode=")" d="M95 -215h-79q78 98 116 224t38 255t-38 255t-116 224h79q78 -98 116 -224t38 -255t-38 -255t-116 -224z"/>
<glyph glyph-name="asterisk" horiz-adv-x="398" unicode="*" d="M10 557l24 71l134 -51l-7 144h76l-7 -144l134 51l24 -71l-140 -38l90 -112l-60 -44l-79 121l-79 -121l-60 44l90 112z"/>
<glyph glyph-name="plus" horiz-adv-x="672" unicode="+" d="M593 227h-221v-227h-74v227h-220v74h220v229h74v-229h221v-74z"/>
<glyph glyph-name="comma" horiz-adv-x="229" unicode="," d="M60 0v110h110v-60q0 -95 -54 -185h-55q32 49 40 135h-41z"/>
<glyph glyph-name="hyphen" horiz-adv-x="471" unicode="-" d="M400 224h-322v80h322v-80z"/>
<glyph glyph-name="period" horiz-adv-x="229" unicode="." d="M60 0v110h110v-110h-110z"/>
<glyph glyph-name="slash" horiz-adv-x="359" unicode="/" d="M263 720h80l-284 -834h-79z"/>
<glyph glyph-name="zero" horiz-adv-x="562" unicode="0" d="M441 345q0 142 -41.5 213.5t-118.5 71.5q-70 0 -114.5 -68.5t-44.5 -213.5q0 -296 162 -296q68 0 112.5 71t44.5 222zM36 345q0 181 73 270t174 89q46 0 86.5 -18t77 -57t58 -111t21.5 -169q0 -87 -16.5 -154.5t-41.5 -107t-59 -65.5t-64.5 -35t-62.5 -9q-46 0 -87 18 t-78 57.5t-59 114.5t-22 177z"/>
<glyph glyph-name="one" horiz-adv-x="562" unicode="1" d="M242 0v606h-92v76h174v-682h-82z"/>
<glyph glyph-name="two" horiz-adv-x="562" unicode="2" d="M82 0v76l219 243q51 57 76.5 102.5t25.5 94.5t-30.5 81.5t-84.5 32.5q-85 0 -126 -100l-75 38q62 136 201 136q96 0 148.5 -52.5t52.5 -127.5q0 -66 -32 -122.5t-97 -128.5l-179 -197h320v-76h-419z"/>
<glyph glyph-name="three" horiz-adv-x="562" unicode="3" d="M169 543l-75 38q31 63 78.5 94t122.5 31q88 0 141.5 -50t53.5 -126q0 -60 -36 -99.5t-91 -55.5v-2q66 -10 109 -58t43 -125q0 -89 -58.5 -150t-165.5 -61q-158 0 -214 145l80 36q20 -56 52.5 -81.5t86.5 -25.5q58 0 96 39t38 96q0 60 -38.5 100.5t-118.5 40.5h-38v76h33 q61 0 98.5 32t37.5 89q0 43 -27.5 74.5t-81.5 31.5q-47 0 -76 -20.5t-50 -68.5z"/>
<glyph glyph-name="four" horiz-adv-x="562" unicode="4" d="M304 491l-177 -251h226v247q0 22 0.5 42.5t0.5 33.5h-3q-31 -50 -47 -72zM522 164h-87v-164h-82v164h-314v71l318 447h78v-442h87v-76z"/>
<glyph glyph-name="five" horiz-adv-x="562" unicode="5" d="M196 606l-33 -202q47 30 111 30q109 0 174 -60.5t65 -167.5q0 -100 -66.5 -164t-167.5 -64q-172 0 -223 133l78 36q36 -94 145 -94q63 0 105.5 42t42.5 109q0 74 -40.5 113.5t-112.5 39.5q-89 0 -129 -64h-82l63 389h340v-76h-270z"/>
<glyph glyph-name="six" horiz-adv-x="562" unicode="6" d="M118 222q0 -73 46 -121.5t116 -48.5t116.5 48.5t46.5 121.5t-45 122.5t-118 49.5q-72 0 -117 -48t-45 -124zM389 682l-163 -225q30 10 72 10q99 0 165 -70.5t66 -173.5q0 -102 -72 -173.5t-177 -71.5q-106 0 -177 70t-71 175q0 94 72 193l193 266h92z"/>
<glyph glyph-name="seven" horiz-adv-x="562" unicode="7" d="M501 682v-70l-296 -612h-90l299 606h-332v76h419z"/>
<glyph glyph-name="eight" horiz-adv-x="562" unicode="8" d="M505 187q0 -89 -57.5 -148.5t-165.5 -59.5t-166.5 59t-58.5 144q0 132 125 182v2q-104 43 -104 156q0 76 57 129t147 53q89 0 145.5 -53t56.5 -129q0 -58 -27.5 -99t-73.5 -57v-2q122 -44 122 -177zM142 188q0 -60 38.5 -97.5t101.5 -37.5q62 0 100 34.5t38 100.5 q0 61 -38.5 99t-98.5 38q-62 0 -101.5 -38.5t-39.5 -98.5zM164 517q0 -51 34.5 -84.5t81.5 -33.5q54 0 86 32.5t32 85.5q0 50 -32.5 80.5t-84.5 30.5q-49 0 -83 -30.5t-34 -80.5z"/>
<glyph glyph-name="nine" horiz-adv-x="562" unicode="9" d="M444 460q0 73 -46 121.5t-116 48.5t-116.5 -48.5t-46.5 -121.5t45 -122.5t118 -49.5q72 0 117 48t45 124zM530 459q0 -94 -72 -193l-193 -266h-92l168 227q-29 -12 -77 -12q-99 0 -165 70.5t-66 173.5q0 102 72 173.5t177 71.5q106 0 177 -70t71 -175z"/>
<glyph glyph-name="colon" horiz-adv-x="229" unicode=":" d="M60 0v110h110v-110h-110zM60 352v110h110v-110h-110z"/>
<glyph glyph-name="semicolon" horiz-adv-x="229" unicode=";" d="M60 352v110h110v-110h-110zM60 0v110h110v-60q0 -95 -54 -185h-55q32 49 40 135h-41z"/>
<glyph glyph-name="less" horiz-adv-x="672" unicode="&lt;" d="M592 0l-513 234v63l513 233v-82l-410 -182v-2l410 -181v-83z"/>
<glyph glyph-name="equal" horiz-adv-x="672" unicode="=" d="M595 114h-519v74h519v-74zM595 343h-519v73h519v-73z"/>
<glyph glyph-name="greater" horiz-adv-x="672" unicode="&gt;" d="M592 233l-513 -233v83l410 180v3l-410 182v82l513 -234v-63z"/>
<glyph glyph-name="question" horiz-adv-x="435" unicode="?" d="M174 0v88h88v-88h-88zM255 189h-73q0 55 14.5 94t51.5 79q51 54 68 86.5t17 75.5q0 44 -31 75t-85 31q-48 0 -81 -32.5t-33 -87.5h-87q2 86 60 140t144 54q95 0 147 -52.5t52 -127.5q0 -55 -23.5 -99t-82.5 -103q-32 -32 -45 -61.5t-13 -71.5z"/>
<glyph glyph-name="at" horiz-adv-x="949" unicode="@" d="M581 341q0 60 -26.5 93.5t-74.5 33.5q-65 0 -101 -57.5t-36 -133.5q0 -59 26 -95t73 -36q60 0 99.5 60.5t39.5 134.5zM879 356q0 -116 -55 -191t-135 -75q-49 0 -78.5 23t-34.5 64h-5q-21 -39 -62 -63t-79 -24q-71 0 -114 52t-43 137q0 99 57 172t144 73q79 0 122 -74h1 l11 63h67l-40 -259q-4 -17 -4 -47q0 -28 16 -44.5t48 -16.5q49 0 81.5 58.5t32.5 146.5q0 140 -84.5 218.5t-241.5 78.5q-152 0 -248 -105t-96 -255q0 -145 91.5 -234t246.5 -89q127 0 202 36l22 -49q-89 -43 -232 -43q-178 0 -289 103.5t-111 276.5q0 175 117.5 295 t300.5 120q103 0 181.5 -30.5t122.5 -81.5t66 -110.5t22 -125.5z"/>
<glyph glyph-name="A" horiz-adv-x="636" unicode="A" d="M268 449l-70 -181h239l-69 182q-32 84 -47 138h-4q-23 -73 -49 -139zM538 0l-73 194h-296l-74 -194h-88l278 682h74l270 -682h-91z"/>
<glyph glyph-name="B" horiz-adv-x="540" unicode="B" d="M373 501q0 53 -38 79t-100 26h-78v-215h84q61 0 96.5 30t35.5 80zM411 194q0 57 -38.5 89t-110.5 32h-105v-239h113q69 0 105 31.5t36 86.5zM74 0v682h161q105 0 164 -46.5t59 -127.5q0 -105 -111 -145v-2q73 -12 111.5 -59t38.5 -114q0 -92 -63.5 -140t-163.5 -48h-196z "/>
<glyph glyph-name="C" horiz-adv-x="684" unicode="C" d="M593 149l61 -55q-97 -116 -264 -116q-156 0 -254 103.5t-98 261.5q0 156 101 258.5t251 102.5q168 0 263 -114l-61 -55q-31 43 -83.5 69t-119.5 26q-109 0 -187 -77t-78 -211q0 -123 75.5 -206.5t190.5 -83.5q131 0 203 97z"/>
<glyph glyph-name="D" horiz-adv-x="705" unicode="D" d="M157 76h135q138 0 213.5 75t75.5 190q0 120 -76 192.5t-211 72.5h-137v-530zM74 682h221q177 0 274.5 -97t97.5 -244q0 -144 -100.5 -242.5t-273.5 -98.5h-219v682z"/>
<glyph glyph-name="E" horiz-adv-x="523" unicode="E" d="M448 682v-76h-291v-215h280v-76h-280v-239h302v-76h-385v682h374z"/>
<glyph glyph-name="F" horiz-adv-x="495" unicode="F" d="M448 682v-76h-291v-226h280v-76h-280v-304h-83v682h374z"/>
<glyph glyph-name="G" horiz-adv-x="776" unicode="G" d="M378 364h360v-9q0 -165 -94.5 -271t-252.5 -106q-154 0 -253.5 107.5t-99.5 255.5q0 150 102 256.5t252 106.5q214 0 309 -162l-73 -46q-70 134 -236 134q-121 0 -194.5 -82.5t-73.5 -202.5q0 -132 78 -212.5t196 -80.5q104 0 173 66.5t79 169.5h-272v76z"/>
<glyph glyph-name="H" horiz-adv-x="689" unicode="H" d="M532 0v315h-375v-315h-83v682h83v-291h375v291h83v-682h-83z"/>
<glyph glyph-name="I" horiz-adv-x="231" unicode="I" d="M74 0v682h83v-682h-83z"/>
<glyph glyph-name="J" horiz-adv-x="345" unicode="J" d="M200 175v507h82v-507q0 -97 -46.5 -146t-131.5 -49q-55 0 -98 24l26 70q31 -20 72 -20q50 0 73 27.5t23 93.5z"/>
<glyph glyph-name="K" horiz-adv-x="577" unicode="K" d="M157 682v-294l287 294h110l-316 -323l350 -359h-110l-321 329v-329h-83v682h83z"/>
<glyph glyph-name="L" horiz-adv-x="473" unicode="L" d="M74 0v682h83v-606h302v-76h-385z"/>
<glyph glyph-name="M" horiz-adv-x="815" unicode="M" d="M698 682l75 -682h-81l-39 398q-14 147 -16 181h-3q-30 -100 -58 -182l-133 -397h-72l-133 408q-49 150 -55 171h-4q-7 -94 -15 -170l-42 -409h-80l79 682h101l148 -439q23 -66 37 -125h4q12 49 38 125l149 439h100z"/>
<glyph glyph-name="N" horiz-adv-x="670" unicode="N" d="M152 551h-2q2 -74 2 -143v-408h-78v682h78l222 -328q102 -149 144 -224h2q-2 78 -2 145v407h78v-682h-78l-222 328q-113 165 -144 223z"/>
<glyph glyph-name="O" horiz-adv-x="799" unicode="O" d="M38 341q0 149 103.5 256t258.5 107q162 0 261.5 -107t99.5 -256q0 -151 -104 -257t-257 -106q-89 0 -160.5 32.5t-114.5 86t-65 116t-22 128.5zM124 341q0 -124 79 -206.5t196 -82.5t196.5 83t79.5 206q0 124 -77 206.5t-199 82.5q-118 0 -196.5 -82t-78.5 -207z"/>
<glyph glyph-name="P" horiz-adv-x="540" unicode="P" d="M74 0v682h198q115 0 182.5 -53t67.5 -157q0 -101 -63 -156.5t-194 -55.5h-108v-260h-83zM437 470q0 63 -41 99.5t-125 36.5h-114v-271h107q173 0 173 135z"/>
<glyph glyph-name="Q" horiz-adv-x="799" unicode="Q" d="M489 241l96 -117q90 84 90 217q0 124 -77 206.5t-199 82.5q-118 0 -196.5 -82t-78.5 -207q0 -124 79 -206.5t196 -82.5q64 0 118 26l-92 110zM38 341q0 149 103.5 256t258.5 107q162 0 261.5 -107t99.5 -256q0 -82 -33.5 -154.5t-92.5 -122.5l92 -110l-64 -53l-97 117 q-75 -40 -166 -40q-89 0 -160.5 32.5t-114.5 86t-65 116t-22 128.5z"/>
<glyph glyph-name="R" horiz-adv-x="565" unicode="R" d="M416 482q0 60 -37.5 92t-108.5 32h-113v-245h124q65 0 100 34t35 87zM344 293l215 -293h-105l-206 285h-91v-285h-83v682h197q118 0 174.5 -59.5t56.5 -140.5q0 -70 -46 -123.5t-112 -65.5z"/>
<glyph glyph-name="S" horiz-adv-x="506" unicode="S" d="M435 609l-66 -50q-42 73 -119 73q-49 0 -78 -29t-29 -76q0 -43 25 -69.5t92 -53.5q111 -44 156 -95.5t45 -130.5t-56 -139.5t-154 -60.5q-146 0 -206 115l70 48q42 -91 137 -91q59 0 92 37.5t33 85.5q0 52 -30 86.5t-114 66.5q-91 35 -132.5 81t-41.5 120q0 75 54 126 t137 51q63 0 106 -23t79 -72z"/>
<glyph glyph-name="T" horiz-adv-x="509" unicode="T" d="M213 0v606h-199v76h481v-76h-199v-606h-83z"/>
<glyph glyph-name="U" horiz-adv-x="625" unicode="U" d="M313 -22q-104 0 -176.5 71.5t-72.5 222.5v410h83v-422q0 -93 44.5 -150.5t121.5 -57.5q86 0 126 56t40 152v422h82v-408q0 -154 -68.5 -225t-179.5 -71z"/>
<glyph glyph-name="V" horiz-adv-x="598" unicode="V" d="M593 682l-255 -682h-78l-255 682h90l161 -456q26 -76 44 -131h2q19 62 45 132l163 455h83z"/>
<glyph glyph-name="W" horiz-adv-x="833" unicode="W" d="M557 0l-107 434q-20 81 -27 145h-4q-8 -59 -29 -145l-105 -434h-83l-186 682h85l112 -440q19 -76 30 -133h4q25 132 27 142l107 431h82l107 -438q17 -70 27 -135h4q11 76 26 134l105 439h85l-171 -682h-89z"/>
<glyph glyph-name="X" horiz-adv-x="564" unicode="X" d="M115 682l121 -187q31 -47 48 -78h3q22 39 48 80l119 185h91l-219 -328l229 -354h-97l-123 193q-28 44 -56 92h-2l-57 -92l-119 -193h-92l225 349l-217 333h98z"/>
<glyph glyph-name="Y" horiz-adv-x="561" unicode="Y" d="M240 0v278l-228 404h92l137 -250q27 -47 40 -77h2q15 35 38 76l136 251h92l-226 -403v-279h-83z"/>
<glyph glyph-name="Z" horiz-adv-x="601" unicode="Z" d="M58 606v76h485v-72l-403 -534h419v-76h-518v71l403 535h-386z"/>
<glyph glyph-name="bracketleft" horiz-adv-x="353" unicode="[" d="M281 728v-70h-106v-788h106v-70h-182v928h182z"/>
<glyph glyph-name="backslash" horiz-adv-x="404" unicode="\" d="M398 -114h-80l-313 834h79z"/>
<glyph glyph-name="bracketright" horiz-adv-x="353" unicode="]" d="M72 658v70h182v-928h-182v70h106v788h-106z"/>
<glyph glyph-name="asciicircum" horiz-adv-x="672" unicode="^" d="M608 326h-86l-185 298h-3l-184 -298h-86l236 378h72z"/>
<glyph glyph-name="underscore" horiz-adv-x="550" unicode="_" d="M0 -238v74h550v-74h-550z"/>
<glyph glyph-name="grave" horiz-adv-x="328" unicode="`" d="M43 695l58 55l132 -150l-44 -42z"/>
<glyph glyph-name="a" d="M117 233q0 -73 44 -127t123 -54q67 0 116.5 51t49.5 127q0 80 -48 130.5t-116 50.5q-80 0 -124.5 -53t-44.5 -125zM522 465v-465h-79v66h-2q-55 -82 -174 -82q-96 0 -164 69.5t-68 179.5q0 107 68 177t170 70q114 0 169 -81h1v66h79z" unicode="a"/>
<glyph glyph-name="b" d="M472 233q0 72 -44.5 125t-124.5 53q-68 0 -116 -50.5t-48 -130.5q0 -76 49.5 -127t116.5 -51q79 0 123 54.5t44 126.5zM67 0v721h79v-322h1q55 81 169 81q102 0 170 -70t68 -177q0 -110 -68.5 -179.5t-163.5 -69.5q-119 0 -174 82h-2v-66h-79z" unicode="b"/>
<glyph glyph-name="c" horiz-adv-x="478" unicode="c" d="M407 109l52 -54q-64 -71 -176 -71q-108 0 -178 70t-70 180q0 105 67 175.5t177 70.5q116 0 179 -70l-53 -55q-43 56 -126 56q-69 0 -115.5 -46.5t-46.5 -131.5q0 -78 47.5 -129t119.5 -51q75 0 123 56z"/>
<glyph glyph-name="d" d="M117 233q0 -73 44 -127t123 -54q67 0 116.5 51t49.5 127q0 80 -48 130.5t-116 50.5q-80 0 -124.5 -53t-44.5 -125zM522 721v-721h-79v66h-2q-55 -82 -174 -82q-96 0 -164 69.5t-68 179.5q0 107 68 177t170 70q114 0 169 -81h1v322h79z" unicode="d"/>
<glyph glyph-name="e" horiz-adv-x="531" unicode="e" d="M266 411q-63 0 -102.5 -39.5t-45.5 -95.5h295q-6 56 -46.5 95.5t-100.5 39.5zM266 480q60 0 107 -23.5t72.5 -60.5t38 -77t12.5 -80q0 -18 -2 -30h-377q0 -61 46 -108t106 -47q92 0 147 80l61 -44q-32 -49 -85.5 -77.5t-120.5 -28.5q-105 0 -170.5 72.5t-65.5 182.5 q0 99 64.5 170t166.5 71z"/>
<glyph glyph-name="f" horiz-adv-x="291" unicode="f" d="M27 399v66h66v104q0 76 37.5 116t109.5 40q32 0 64 -10l-12 -64q-22 8 -47 8q-36 0 -54 -21.5t-18 -58.5v-114h105v-66h-105v-399h-80v399h-66z"/>
<glyph glyph-name="g" d="M117 233q0 -73 44 -127t123 -54q67 0 116.5 51t49.5 127q0 80 -48 130.5t-116 50.5q-80 0 -124.5 -53t-44.5 -125zM522 465v-459q0 -263 -250 -263q-104 0 -180 43l35 68q60 -42 148 -42q168 0 168 194v60h-2q-55 -82 -174 -82q-96 0 -164 69.5t-68 179.5q0 107 68 177 t170 70q109 0 170 -80v65h79z" unicode="g"/>
<glyph glyph-name="h" horiz-adv-x="536" unicode="h" d="M67 0v721h79v-317h2q53 76 145 76q73 0 127.5 -50.5t54.5 -159.5v-270h-79v267q0 68 -30.5 105t-85.5 37q-64 0 -99 -40.5t-35 -120.5v-248h-79z"/>
<glyph glyph-name="i" horiz-adv-x="213" unicode="i" d="M58 575v92h97v-92h-97zM67 0v465h79v-465h-79z"/>
<glyph glyph-name="j" horiz-adv-x="213" unicode="j" d="M58 575v92h97v-92h-97zM146 465v-524q0 -94 -40.5 -140t-113.5 -46q-42 0 -93 18l18 62q28 -14 68 -14q82 0 82 121v523h79z"/>
<glyph glyph-name="k" horiz-adv-x="424" unicode="k" d="M336 0l-190 237v-237h-79v721h79v-451l179 195h100l-197 -209l207 -256h-99z"/>
<glyph glyph-name="l" horiz-adv-x="213" unicode="l" d="M67 0v721h79v-721h-79z"/>
<glyph glyph-name="m" horiz-adv-x="834" unicode="m" d="M67 0v465h79v-57h2q54 72 137 72q55 0 95.5 -27t55.5 -68q20 38 62 66.5t98 28.5q81 0 129 -55t48 -155v-270h-79v267q0 64 -29 103t-80 39q-52 0 -88.5 -38.5t-36.5 -113.5v-257h-80v277q0 57 -29.5 94.5t-79.5 37.5q-58 0 -91.5 -39.5t-33.5 -110.5v-259h-79z"/>
<glyph glyph-name="n" horiz-adv-x="536" unicode="n" d="M67 0v465h79v-61h2q53 76 145 76q73 0 127.5 -50.5t54.5 -159.5v-270h-79v267q0 68 -30.5 105t-85.5 37q-64 0 -99 -40.5t-35 -120.5v-248h-79z"/>
<glyph glyph-name="o" horiz-adv-x="567" unicode="o" d="M117 233q0 -77 49 -127.5t117 -50.5q72 0 119.5 51t47.5 127q0 74 -46.5 125t-120.5 51q-72 0 -119 -50t-47 -126zM35 233q0 107 71 177t177 70q108 0 178.5 -70.5t70.5 -176.5q0 -103 -71 -176t-178 -73q-105 0 -176.5 72t-71.5 177z"/>
<glyph glyph-name="p" d="M472 233q0 72 -44.5 125t-124.5 53q-68 0 -116 -50.5t-48 -130.5q0 -76 49.5 -127t116.5 -51q79 0 123 54.5t44 126.5zM67 -235v700h79v-66h1q55 81 169 81q102 0 170 -70t68 -177q0 -110 -68 -179.5t-164 -69.5q-119 0 -174 82h-2v-301h-79z" unicode="p"/>
<glyph glyph-name="q" d="M117 233q0 -73 44 -127t123 -54q67 0 116.5 51t49.5 127q0 80 -48 130.5t-116 50.5q-80 0 -124.5 -53t-44.5 -125zM522 465v-700h-79v301h-2q-55 -82 -174 -82q-96 0 -164 69.5t-68 179.5q0 107 68 177t170 70q114 0 169 -81h1v66h79z" unicode="q"/>
<glyph glyph-name="r" horiz-adv-x="330" unicode="r" d="M315 474l-14 -80q-15 5 -36 5q-54 0 -86.5 -37.5t-32.5 -115.5v-246h-79v465h79v-68h2q14 35 46.5 59t76.5 24q23 0 44 -6z"/>
<glyph glyph-name="s" horiz-adv-x="416" unicode="s" d="M45 76l64 41q25 -65 103 -65q40 0 61 18.5t21 48.5q0 31 -21.5 52t-83.5 41q-66 22 -96.5 56t-30.5 86q0 53 39.5 89.5t112.5 36.5q97 0 142 -69l-60 -44q-25 46 -79 46q-36 0 -56.5 -17.5t-20.5 -42.5q0 -23 19.5 -42t76.5 -37q137 -43 137 -149q0 -65 -44.5 -103 t-119.5 -38q-117 0 -164 92z"/>
<glyph glyph-name="t" horiz-adv-x="310" unicode="t" d="M16 399v66h60v148h79v-148h123v-66h-123v-239q0 -57 16.5 -78t55.5 -21q26 0 48 8l14 -63q-33 -12 -78 -12q-70 0 -102.5 38t-32.5 127v240h-60z"/>
<glyph glyph-name="u" horiz-adv-x="524" unicode="u" d="M457 465v-465h-79v55h-2q-56 -72 -139 -72q-71 0 -123.5 51t-52.5 159v272h79v-266q0 -69 29.5 -106.5t80.5 -37.5q60 0 94 41t34 120v249h79z"/>
<glyph glyph-name="v" horiz-adv-x="419" unicode="v" d="M417 465l-170 -465h-76l-170 465h81l96 -270q21 -58 31 -106h4q9 49 29 105l95 271h80z"/>
<glyph glyph-name="w" horiz-adv-x="673" unicode="w" d="M424 0l-66 272q-12 53 -21 101h-4q-6 -50 -18 -101l-66 -272h-103l-120 465h80l71 -305q11 -52 19 -93h3q8 40 23 98l71 300h87l74 -304q7 -27 20 -94h3q7 49 17 93l73 305h79l-121 -465h-101z"/>
<glyph glyph-name="x" horiz-adv-x="473" unicode="x" d="M23 0l171 239l-160 226h92l80 -114q15 -21 31 -49h2q25 35 34 49l76 114h92l-162 -224l172 -241h-93l-88 127l-34 48h-3l-34 -48l-86 -127h-90z"/>
<glyph glyph-name="y" horiz-adv-x="420" unicode="y" d="M418 465l-259 -700h-76l87 235l-169 465h81l97 -270q23 -66 30 -96h1q8 29 31 96l96 270h81z"/>
<glyph glyph-name="z" horiz-adv-x="469" unicode="z" d="M52 399v66h365v-62l-277 -336h289v-67h-389v63l278 336h-266z"/>
<glyph glyph-name="braceleft" horiz-adv-x="380" unicode="{" d="M306 741v-58q-63 -4 -63 -83v-208q0 -94 -79 -129v-2q79 -31 79 -141v-195q0 -39 14.5 -59.5t48.5 -22.5v-58q-67 1 -104.5 42t-37.5 116v209q0 35 -21.5 57.5t-61.5 27.5v51q40 5 61.5 27.5t21.5 56.5v210q0 75 37.5 116t104.5 43z"/>
<glyph glyph-name="bar" horiz-adv-x="380" unicode="|" d="M225 -210h-72v1000h72v-1000z"/>
<glyph glyph-name="braceright" horiz-adv-x="380" unicode="}" d="M74 683v58q67 -2 104.5 -43t37.5 -116v-210q0 -34 21.5 -56.5t61.5 -27.5v-51q-40 -5 -61.5 -27.5t-21.5 -57.5v-209q0 -75 -37.5 -116t-104.5 -42v58q34 2 48.5 22.5t14.5 59.5v195q0 110 79 141v2q-79 35 -79 129v208q0 79 -63 83z"/>
<glyph glyph-name="asciitilde" horiz-adv-x="672" unicode="~" d="M561 330l53 -37q-33 -53 -71 -78t-91 -25q-62 0 -125 37q-66 39 -107 39q-34 0 -59 -17.5t-51 -55.5l-52 37q63 104 160 104q56 0 125 -38q68 -39 109 -39q64 0 109 73z"/>
<glyph glyph-name="uni00A0" horiz-adv-x="250" unicode=" "/>
<glyph glyph-name="exclamdown" horiz-adv-x="229" unicode="¡" d="M159 0h-88l8 493h72zM159 682v-88h-88v88h88z"/>
<glyph glyph-name="cent" horiz-adv-x="562" unicode="¢" d="M137 347q0 -69 35.5 -118.5t94.5 -64.5v366q-57 -13 -93.5 -61t-36.5 -122zM267 0v93q-92 15 -152 83t-60 172q0 96 58 166.5t154 84.5v83h67v-81q113 -9 169 -94l-62 -42q-34 57 -107 68v-373q74 9 114 78l62 -43q-64 -95 -176 -104v-91h-67z"/>
<glyph glyph-name="sterling" horiz-adv-x="562" unicode="£" d="M415 389v-71h-199q9 -56 9 -91q0 -79 -51 -121q35 0 96.5 -26.5t99.5 -26.5q39 0 59.5 19t29.5 66l76 -20q-16 -71 -54.5 -105.5t-110.5 -34.5q-45 0 -110 27.5t-100 27.5q-53 0 -107 -31l-29 58q126 57 126 153q0 56 -11 105h-86v71h67q-14 70 -14 128q0 81 51 134.5 t145 53.5q151 0 204 -143l-81 -30q-31 101 -123 101q-53 0 -83 -34.5t-30 -89.5q0 -57 12 -120h214z"/>
<glyph glyph-name="currency" horiz-adv-x="618" unicode="¤" d="M444 355q0 58 -41 96.5t-94 38.5q-58 0 -97.5 -40t-39.5 -95q0 -57 39.5 -97t96.5 -40t96.5 40t39.5 97zM535 174l-43 -44l-67 67q-51 -39 -117 -39q-65 0 -117 39l-67 -67l-42 44l68 65q-39 54 -39 115q0 66 39 115l-68 66l42 44l67 -67q54 38 117 38q70 0 116 -38 l68 67l43 -44l-68 -66q38 -51 38 -115q0 -62 -38 -115z"/>
<glyph glyph-name="yen" horiz-adv-x="562" unicode="¥" d="M58 283v67h146l-176 332h89l126 -247q23 -43 39 -84h2q14 35 37 83l124 248h89l-177 -332h147v-67h-182v-91h182v-67h-182v-125h-82v125h-182v67h182v91h-182z"/>
<glyph glyph-name="brokenbar" horiz-adv-x="380" unicode="¦" d="M225 -110h-72v300h72v-300zM225 390h-72v300h72v-300z"/>
<glyph glyph-name="section" horiz-adv-x="430" unicode="§" d="M302 328q0 33 -24 52.5t-83 43.5q-28 -4 -47 -23t-19 -47q0 -35 23 -56t90 -52q60 24 60 82zM128 81q21 -59 79 -59q37 0 57.5 21t20.5 52t-19 53t-67 41q-70 29 -107 66.5t-37 93.5q0 37 21.5 66.5t59.5 41.5q-65 45 -65 116q0 56 40.5 93.5t109.5 37.5q108 0 143 -96 l-65 -26q-20 57 -80 57q-36 0 -55 -17.5t-19 -45.5q0 -31 22 -52t89 -50q121 -53 121 -143q0 -80 -78 -117q61 -41 61 -114q0 -58 -40 -99.5t-114 -41.5q-108 0 -143 96z"/>
<glyph glyph-name="dieresis" horiz-adv-x="328" unicode="¨" d="M205 596v88h92v-88h-92zM31 596v88h92v-88h-92z"/>
<glyph glyph-name="copyright" horiz-adv-x="826" unicode="©" d="M99 341q0 -130 92 -222t222 -92t222 92t92 222t-92 222t-222 92t-222 -92t-92 -222zM50 341q0 150 106.5 256.5t256.5 106.5q151 0 257 -106.5t106 -256.5t-106 -256.5t-257 -106.5q-150 0 -256.5 106.5t-106.5 256.5zM415 143q-87 0 -140 58t-53 147q0 86 55 144t138 58 q118 0 164 -103l-61 -30q-27 69 -103 69q-54 0 -88.5 -36.5t-34.5 -103.5q0 -61 34.5 -100.5t91.5 -39.5q73 0 100 70l61 -30q-46 -103 -164 -103z"/>
<glyph glyph-name="ordfeminine" horiz-adv-x="376" unicode="ª" d="M250 475v21q-30 4 -60 4q-45 0 -67.5 -18t-22.5 -50q0 -52 61 -52q42 0 65.5 25.5t23.5 69.5zM350 388l12 -52q-20 -11 -48 -11q-49 0 -58 55q-36 -58 -110 -58q-50 0 -82.5 28.5t-32.5 81.5q0 58 41.5 91t117.5 33q35 0 60 -5v17q0 79 -74 79q-55 0 -79 -52l-55 28 q43 81 134 81q66 0 103.5 -34.5t37.5 -101.5v-141q0 -42 20 -42q5 0 13 3z"/>
<glyph glyph-name="guillemotleft" horiz-adv-x="455" unicode="«" d="M58 242l122 197l54 -29l-87 -168l87 -168l-54 -31zM226 242l122 197l54 -29l-87 -168l87 -168l-54 -31z"/>
<glyph glyph-name="logicalnot" horiz-adv-x="672" unicode="¬" d="M595 111h-76v194h-443v72h519v-266z"/>
<glyph glyph-name="uni00AD" horiz-adv-x="471" unicode="­" d="M405 224h-322v80h322v-80z"/>
<glyph glyph-name="registered" horiz-adv-x="485" unicode="®" d="M287 542q0 35 -43 35h-35v-69h34q44 0 44 34zM284 478l66 -90h-54l-61 85h-26v-85h-47v226h88q44 0 65.5 -20.5t21.5 -49.5q0 -26 -14.5 -43.5t-38.5 -22.5zM76 498q0 -69 49 -117.5t118 -48.5t117.5 48.5t48.5 117.5t-48.5 117.5t-117.5 48.5t-118 -48.5t-49 -117.5z M37 498q0 84 61 145t145 61t144.5 -61t60.5 -145q0 -86 -60 -145.5t-145 -59.5t-145.5 59.5t-60.5 145.5z"/>
<glyph glyph-name="macron" horiz-adv-x="328" unicode="¯" d="M298 604h-268v65h268v-65z"/>
<glyph glyph-name="degree" horiz-adv-x="361" unicode="°" d="M106 570q0 -32 21.5 -53t53.5 -21q31 0 52.5 21t21.5 53t-21.5 54t-52.5 22q-32 0 -53.5 -22t-21.5 -54zM55 571q0 51 37 88t89 37q51 0 88 -37t37 -88t-37 -88t-88 -37q-52 0 -89 37t-37 88z"/>
<glyph glyph-name="plusminus" horiz-adv-x="672" unicode="±" d="M593 328h-221v-187h-74v187h-220v74h220v189h74v-189h221v-74zM593 0h-515v74h515v-74z"/>
<glyph glyph-name="twosuperior" horiz-adv-x="398" unicode="²" d="M59 425v52l143 152q25 28 35.5 40.5t21.5 34.5t11 42q0 29 -18.5 46.5t-50.5 17.5q-54 0 -74 -70l-69 20q34 112 146 112q64 0 103.5 -35.5t39.5 -87.5q0 -39 -22 -74.5t-73 -87.5l-93 -98h194v-64h-294z"/>
<glyph glyph-name="threesuperior" horiz-adv-x="398" unicode="³" d="M124 757l-66 27q36 88 139 88q67 0 104 -31t37 -81q0 -36 -22 -61.5t-56 -34.5v-2q43 -9 68 -38.5t25 -75.5q0 -57 -41.5 -97t-115.5 -40q-121 0 -153 100l69 24q19 -64 85 -64q38 0 60 23t22 59q0 33 -23.5 55t-71.5 22h-29v57h25q38 0 60.5 17.5t22.5 46.5q0 28 -17 45 t-49 17q-55 0 -73 -56z"/>
<glyph glyph-name="acute" horiz-adv-x="328" unicode="´" d="M95 600l132 150l58 -55l-146 -137z"/>
<glyph glyph-name="mu" horiz-adv-x="534" unicode="µ" d="M67 -235v700h79v-266q0 -67 28.5 -105.5t83.5 -38.5q62 0 93.5 43t31.5 120v247h79v-334q0 -74 39 -74q8 0 20 2l11 -61q-20 -8 -46 -8q-74 0 -92 74h-2q-50 -81 -140 -81q-37 0 -66.5 16.5t-43.5 45.5h-3q7 -48 7 -125v-155h-79z"/>
<glyph glyph-name="paragraph" horiz-adv-x="560" unicode="¶" d="M483 621h-65v-621h-65v621h-80v-621h-64v369q-80 2 -126.5 45.5t-46.5 112.5q0 74 48 114.5t128 40.5h271v-61z"/>
<glyph glyph-name="periodcentered" horiz-adv-x="229" unicode="·" d="M60 289v110h110v-110h-110z"/>
<glyph glyph-name="cedilla" horiz-adv-x="328" unicode="¸" d="M140 0h62l-16 -39q36 -8 58 -33t22 -60q0 -46 -29.5 -74.5t-84.5 -28.5q-53 0 -98 15l20 56q24 -11 67 -11q57 0 57 39q0 47 -95 47z"/>
<glyph glyph-name="onesuperior" horiz-adv-x="398" unicode="¹" d="M170 425v372h-67v62h140v-434h-73z"/>
<glyph glyph-name="ordmasculine" horiz-adv-x="448" unicode="º" d="M107 514q0 -52 33 -87.5t84 -35.5t84 34.5t33 88.5q0 52 -33 87.5t-84 35.5q-50 0 -83.5 -32.5t-33.5 -90.5zM32 515q0 84 55 136.5t137 52.5q84 0 138 -55t54 -134q0 -82 -53.5 -136.5t-138.5 -54.5q-83 0 -137.5 53t-54.5 138z"/>
<glyph glyph-name="guillemotright" horiz-adv-x="455" unicode="»" d="M397 241l-122 -198l-54 30l87 168l-87 168l54 30zM229 241l-122 -198l-54 30l87 168l-87 168l54 30z"/>
<glyph glyph-name="onequarter" horiz-adv-x="906" unicode="¼" d="M706 281l-98 -137h130v139q0 15 1.5 29.5t1.5 19.5h-3q-12 -23 -32 -51zM876 85h-65v-85h-73v85h-203v56l209 293h67v-290h65v-59zM651 682h77l-453 -682h-77zM170 250v372h-67v62h140v-434h-73z"/>
<glyph glyph-name="onehalf" horiz-adv-x="956" unicode="½" d="M617 0v52l143 152q25 28 35.5 40.5t21.5 34.5t11 42q0 29 -18.5 46.5t-50.5 17.5q-54 0 -74 -70l-69 20q34 112 146 112q64 0 103.5 -35.5t39.5 -87.5q0 -39 -22 -74.5t-73 -87.5l-93 -98h194v-64h-294zM651 682h77l-453 -682h-77zM170 250v372h-67v62h140v-434h-73z"/>
<glyph glyph-name="threequarters" horiz-adv-x="936" unicode="¾" d="M124 582l-66 27q36 88 139 88q67 0 104 -31t37 -81q0 -36 -22 -61.5t-56 -34.5v-2q43 -9 68 -38.5t25 -75.5q0 -57 -41.5 -97t-115.5 -40q-121 0 -153 100l69 24q19 -64 85 -64q38 0 60 23t22 59q0 33 -23.5 55t-71.5 22h-29v57h25q38 0 60.5 17.5t22.5 46.5q0 28 -17 45 t-49 17q-55 0 -73 -56zM736 281l-98 -137h130v139q0 15 1.5 29.5t1.5 19.5h-3q-12 -23 -32 -51zM906 85h-65v-85h-73v85h-203v56l209 293h67v-290h65v-59zM681 682h77l-453 -682h-77z"/>
<glyph glyph-name="questiondown" horiz-adv-x="435" unicode="¿" d="M261 682v-88h-88v88h88zM122 360q31 31 44.5 61t13.5 72h73q0 -58 -11 -94.5t-45 -74.5q-8 -10 -30 -34t-28.5 -32t-18 -25.5t-15 -32.5t-3.5 -34q0 -49 31 -81.5t85 -32.5q48 0 81 32.5t33 87.5h87q-2 -86 -60 -140t-144 -54q-95 0 -147 52.5t-52 127.5q0 45 19.5 87 t37 62.5t49.5 52.5z"/>
<glyph glyph-name="Agrave" horiz-adv-x="636" unicode="À" d="M199 819l38 71l173 -100l-29 -54zM268 449l-70 -181h239l-69 182q-32 84 -47 138h-4q-23 -73 -49 -139zM538 0l-73 194h-296l-74 -194h-88l278 682h74l270 -682h-91z"/>
<glyph glyph-name="Aacute" horiz-adv-x="636" unicode="Á" d="M413 890l38 -71l-182 -83l-29 54zM268 449l-70 -181h239l-69 182q-32 84 -47 138h-4q-23 -73 -49 -139zM538 0l-73 194h-296l-74 -194h-88l278 682h74l270 -682h-91z"/>
<glyph glyph-name="Acircumflex" horiz-adv-x="636" unicode="Â" d="M325 885l140 -98l-27 -49l-113 58l-113 -58l-27 49zM268 449l-70 -181h239l-69 182q-32 84 -47 138h-4q-23 -73 -49 -139zM538 0l-73 194h-296l-74 -194h-88l278 682h74l270 -682h-91z"/>
<glyph glyph-name="Atilde" horiz-adv-x="636" unicode="Ã" d="M225 773h-60q6 116 93 116q37 0 76 -33q36 -30 60 -30q30 0 31 55h60q-5 -116 -95 -116q-43 0 -81 32q-36 31 -53 31q-28 0 -31 -55zM268 449l-70 -181h239l-69 182q-32 84 -47 138h-4q-23 -73 -49 -139zM538 0l-73 194h-296l-74 -194h-88l278 682h74l270 -682h-91z"/>
<glyph glyph-name="Adieresis" horiz-adv-x="636" unicode="Ä" d="M366 776v88h92v-88h-92zM192 776v88h92v-88h-92zM268 449l-70 -181h239l-69 182q-32 84 -47 138h-4q-23 -73 -49 -139zM538 0l-73 194h-296l-74 -194h-88l278 682h74l270 -682h-91z"/>
<glyph glyph-name="Aring" horiz-adv-x="636" unicode="Å" d="M203 838q0 50 35.5 85.5t87.5 35.5q50 0 85.5 -35.5t35.5 -85.5q0 -51 -35.5 -87t-85.5 -36q-52 0 -87.5 36t-35.5 87zM258 838q0 -28 20 -48t48 -20t47 20t19 48t-19 47t-47 19t-48 -19t-20 -47zM268 449l-70 -181h239l-69 182q-32 84 -47 138h-4q-23 -73 -49 -139z M538 0l-73 194h-296l-74 -194h-88l278 682h74l270 -682h-91z"/>
<glyph glyph-name="AE" horiz-adv-x="863" unicode="Æ" d="M413 606l-189 -348h212v348h-23zM788 682v-76h-269v-215h258v-76h-258v-239h280v-76h-363v184h-251l-98 -184h-92l375 682h418z"/>
<glyph glyph-name="Ccedilla" horiz-adv-x="684" unicode="Ç" d="M593 149l61 -55q-87 -107 -236 -115l-7 -18q36 -8 58 -33t22 -60q0 -46 -29.5 -74.5t-84.5 -28.5q-53 0 -98 15l20 56q24 -11 67 -11q57 0 57 39q0 47 -95 47l28 69q-143 12 -230.5 113t-87.5 250q0 156 101 258.5t251 102.5q168 0 263 -114l-61 -55q-31 43 -83.5 69 t-119.5 26q-109 0 -187 -77t-78 -211q0 -123 75.5 -206.5t190.5 -83.5q131 0 203 97z"/>
<glyph glyph-name="Egrave" horiz-adv-x="523" unicode="È" d="M140 819l38 71l173 -100l-29 -54zM448 682v-76h-291v-215h280v-76h-280v-239h302v-76h-385v682h374z"/>
<glyph glyph-name="Eacute" horiz-adv-x="523" unicode="É" d="M354 890l38 -71l-182 -83l-29 54zM448 682v-76h-291v-215h280v-76h-280v-239h302v-76h-385v682h374z"/>
<glyph glyph-name="Ecircumflex" horiz-adv-x="523" unicode="Ê" d="M266 885l140 -98l-27 -49l-113 58l-113 -58l-27 49zM448 682v-76h-291v-215h280v-76h-280v-239h302v-76h-385v682h374z"/>
<glyph glyph-name="Edieresis" horiz-adv-x="523" unicode="Ë" d="M307 776v88h92v-88h-92zM133 776v88h92v-88h-92zM448 682v-76h-291v-215h280v-76h-280v-239h302v-76h-385v682h374z"/>
<glyph glyph-name="Igrave" horiz-adv-x="231" unicode="Ì" d="M-6 819l38 71l173 -100l-29 -54zM74 0v682h83v-682h-83z"/>
<glyph glyph-name="Iacute" horiz-adv-x="231" unicode="Í" d="M208 890l38 -71l-182 -83l-29 54zM74 0v682h83v-682h-83z"/>
<glyph glyph-name="Icircumflex" horiz-adv-x="231" unicode="Î" d="M120 885l140 -98l-27 -49l-113 58l-113 -58l-27 49zM74 0v682h83v-682h-83z"/>
<glyph glyph-name="Idieresis" horiz-adv-x="231" unicode="Ï" d="M161 776v88h92v-88h-92zM-13 776v88h92v-88h-92zM74 0v682h83v-682h-83z"/>
<glyph glyph-name="Eth" horiz-adv-x="727" unicode="Ð" d="M179 76h141q136 0 209.5 75t73.5 190q0 120 -74.5 192.5t-208.5 72.5h-141v-214h198v-76h-198v-240zM15 316v76h81v290h221q177 0 274.5 -97t97.5 -244q0 -144 -100.5 -242.5t-273.5 -98.5h-219v316h-81z"/>
<glyph glyph-name="Ntilde" horiz-adv-x="670" unicode="Ñ" d="M240 773h-60q6 116 93 116q37 0 76 -33q36 -30 60 -30q30 0 31 55h60q-5 -116 -95 -116q-43 0 -81 32q-36 31 -53 31q-28 0 -31 -55zM152 551h-2q2 -74 2 -143v-408h-78v682h78l222 -328q102 -149 144 -224h2q-2 78 -2 145v407h78v-682h-78l-222 328q-113 165 -144 223z "/>
<glyph glyph-name="Ograve" horiz-adv-x="799" unicode="Ò" d="M278 819l38 71l173 -100l-29 -54zM38 341q0 149 103.5 256t258.5 107q162 0 261.5 -107t99.5 -256q0 -151 -104 -257t-257 -106q-89 0 -160.5 32.5t-114.5 86t-65 116t-22 128.5zM124 341q0 -124 79 -206.5t196 -82.5t196.5 83t79.5 206q0 124 -77 206.5t-199 82.5 q-118 0 -196.5 -82t-78.5 -207z"/>
<glyph glyph-name="Oacute" horiz-adv-x="799" unicode="Ó" d="M492 890l38 -71l-182 -83l-29 54zM38 341q0 149 103.5 256t258.5 107q162 0 261.5 -107t99.5 -256q0 -151 -104 -257t-257 -106q-89 0 -160.5 32.5t-114.5 86t-65 116t-22 128.5zM124 341q0 -124 79 -206.5t196 -82.5t196.5 83t79.5 206q0 124 -77 206.5t-199 82.5 q-118 0 -196.5 -82t-78.5 -207z"/>
<glyph glyph-name="Ocircumflex" horiz-adv-x="799" unicode="Ô" d="M404 885l140 -98l-27 -49l-113 58l-113 -58l-27 49zM38 341q0 149 103.5 256t258.5 107q162 0 261.5 -107t99.5 -256q0 -151 -104 -257t-257 -106q-89 0 -160.5 32.5t-114.5 86t-65 116t-22 128.5zM124 341q0 -124 79 -206.5t196 -82.5t196.5 83t79.5 206 q0 124 -77 206.5t-199 82.5q-118 0 -196.5 -82t-78.5 -207z"/>
<glyph glyph-name="Otilde" horiz-adv-x="799" unicode="Õ" d="M304 773h-60q6 116 93 116q37 0 76 -33q36 -30 60 -30q30 0 31 55h60q-5 -116 -95 -116q-43 0 -81 32q-36 31 -53 31q-28 0 -31 -55zM38 341q0 149 103.5 256t258.5 107q162 0 261.5 -107t99.5 -256q0 -151 -104 -257t-257 -106q-89 0 -160.5 32.5t-114.5 86t-65 116 t-22 128.5zM124 341q0 -124 79 -206.5t196 -82.5t196.5 83t79.5 206q0 124 -77 206.5t-199 82.5q-118 0 -196.5 -82t-78.5 -207z"/>
<glyph glyph-name="Odieresis" horiz-adv-x="799" unicode="Ö" d="M445 776v88h92v-88h-92zM271 776v88h92v-88h-92zM38 341q0 149 103.5 256t258.5 107q162 0 261.5 -107t99.5 -256q0 -151 -104 -257t-257 -106q-89 0 -160.5 32.5t-114.5 86t-65 116t-22 128.5zM124 341q0 -124 79 -206.5t196 -82.5t196.5 83t79.5 206q0 124 -77 206.5 t-199 82.5q-118 0 -196.5 -82t-78.5 -207z"/>
<glyph glyph-name="multiply" horiz-adv-x="672" unicode="×" d="M581 59l-52 -52l-194 198l-195 -198l-52 52l195 196l-196 197l52 52l194 -196l195 194l52 -52l-194 -195z"/>
<glyph glyph-name="Oslash" horiz-adv-x="799" unicode="Ø" d="M675 341q0 108 -60 186l-384 -418q74 -57 168 -57q117 0 196.5 83t79.5 206zM124 341q0 -110 60 -185l385 417q-74 57 -170 57q-118 0 -196.5 -82t-78.5 -207zM38 341q0 149 103.5 256t258.5 107q125 0 222 -72l88 95l48 -45l-88 -95q91 -102 91 -246q0 -151 -104 -257 t-257 -106q-133 0 -225 71l-89 -97l-49 44l90 98q-89 105 -89 247z"/>
<glyph glyph-name="Ugrave" horiz-adv-x="625" unicode="Ù" d="M187 819l38 71l173 -100l-29 -54zM313 -22q-104 0 -176.5 71.5t-72.5 222.5v410h83v-422q0 -93 44.5 -150.5t121.5 -57.5q86 0 126 56t40 152v422h82v-408q0 -154 -68.5 -225t-179.5 -71z"/>
<glyph glyph-name="Uacute" horiz-adv-x="625" unicode="Ú" d="M401 890l38 -71l-182 -83l-29 54zM313 -22q-104 0 -176.5 71.5t-72.5 222.5v410h83v-422q0 -93 44.5 -150.5t121.5 -57.5q86 0 126 56t40 152v422h82v-408q0 -154 -68.5 -225t-179.5 -71z"/>
<glyph glyph-name="Ucircumflex" horiz-adv-x="625" unicode="Û" d="M313 885l140 -98l-27 -49l-113 58l-113 -58l-27 49zM313 -22q-104 0 -176.5 71.5t-72.5 222.5v410h83v-422q0 -93 44.5 -150.5t121.5 -57.5q86 0 126 56t40 152v422h82v-408q0 -154 -68.5 -225t-179.5 -71z"/>
<glyph glyph-name="Udieresis" horiz-adv-x="625" unicode="Ü" d="M354 776v88h92v-88h-92zM180 776v88h92v-88h-92zM313 -22q-104 0 -176.5 71.5t-72.5 222.5v410h83v-422q0 -93 44.5 -150.5t121.5 -57.5q86 0 126 56t40 152v422h82v-408q0 -154 -68.5 -225t-179.5 -71z"/>
<glyph glyph-name="Yacute" horiz-adv-x="561" unicode="Ý" d="M376 890l38 -71l-182 -83l-29 54zM240 0v278l-228 404h92l137 -250q27 -47 40 -77h2q15 35 38 76l136 251h92l-226 -403v-279h-83z"/>
<glyph glyph-name="Thorn" horiz-adv-x="532" unicode="Þ" d="M412 358q0 57 -37 86.5t-106 29.5h-112v-241h109q146 0 146 125zM74 0v682h83v-132h105q110 0 172.5 -49.5t62.5 -140.5q0 -98 -60.5 -150t-181.5 -52h-98v-158h-83z"/>
<glyph glyph-name="germandbls" horiz-adv-x="586" unicode="ß" d="M383 -16q-117 0 -164 92l64 41q25 -65 103 -65q38 0 58 18.5t20 49.5q0 32 -20 54t-79 47q-69 30 -97 64t-28 84q0 39 15 64t52 46q42 24 55 42t13 47q0 39 -26.5 65t-79.5 26q-123 0 -123 -154v-505h-79v507q0 110 54 164t148 54q87 0 136 -45.5t49 -110.5 q0 -91 -77 -131q-58 -30 -58 -66q0 -25 18 -43.5t68 -40.5q77 -34 107.5 -70.5t30.5 -92.5q0 -63 -41.5 -102t-118.5 -39z"/>
<glyph glyph-name="agrave" d="M164 677l58 55l132 -150l-44 -42zM117 233q0 -73 44 -127t123 -54q67 0 116.5 51t49.5 127q0 80 -48 130.5t-116 50.5q-80 0 -124.5 -53t-44.5 -125zM522 465v-465h-79v66h-2q-55 -82 -174 -82q-96 0 -164 69.5t-68 179.5q0 107 68 177t170 70q114 0 169 -81h1v66h79z " unicode="à"/>
<glyph glyph-name="aacute" d="M213 582l132 150l58 -55l-146 -137zM117 233q0 -73 44 -127t123 -54q67 0 116.5 51t49.5 127q0 80 -48 130.5t-116 50.5q-80 0 -124.5 -53t-44.5 -125zM522 465v-465h-79v66h-2q-55 -82 -174 -82q-96 0 -164 69.5t-68 179.5q0 107 68 177t170 70q114 0 169 -81h1v66h79z " unicode="á"/>
<glyph glyph-name="acircumflex" d="M283 712l140 -127l-41 -45l-99 81l-99 -81l-41 45zM117 233q0 -73 44 -127t123 -54q67 0 116.5 51t49.5 127q0 80 -48 130.5t-116 50.5q-80 0 -124.5 -53t-44.5 -125zM522 465v-465h-79v66h-2q-55 -82 -174 -82q-96 0 -164 69.5t-68 179.5q0 107 68 177t170 70 q114 0 169 -81h1v66h79z" unicode="â"/>
<glyph glyph-name="atilde" d="M194 576h-60q6 116 93 116q37 0 76 -33q36 -30 60 -30q30 0 31 55h60q-5 -116 -95 -116q-43 0 -81 32q-36 31 -53 31q-28 0 -31 -55zM117 233q0 -73 44 -127t123 -54q67 0 116.5 51t49.5 127q0 80 -48 130.5t-116 50.5q-80 0 -124.5 -53t-44.5 -125zM522 465v-465h-79v66 h-2q-55 -82 -174 -82q-96 0 -164 69.5t-68 179.5q0 107 68 177t170 70q114 0 169 -81h1v66h79z" unicode="ã"/>
<glyph glyph-name="adieresis" d="M325 577v88h92v-88h-92zM151 577v88h92v-88h-92zM117 233q0 -73 44 -127t123 -54q67 0 116.5 51t49.5 127q0 80 -48 130.5t-116 50.5q-80 0 -124.5 -53t-44.5 -125zM522 465v-465h-79v66h-2q-55 -82 -174 -82q-96 0 -164 69.5t-68 179.5q0 107 68 177t170 70 q114 0 169 -81h1v66h79z" unicode="ä"/>
<glyph glyph-name="aring" d="M161 635q0 50 35.5 85.5t87.5 35.5q50 0 85.5 -35.5t35.5 -85.5q0 -51 -35.5 -87t-85.5 -36q-52 0 -87.5 36t-35.5 87zM216 635q0 -28 20 -48t48 -20t47 20t19 48t-19 47t-47 19t-48 -19t-20 -47zM117 233q0 -73 44 -127t123 -54q67 0 116.5 51t49.5 127q0 80 -48 130.5 t-116 50.5q-80 0 -124.5 -53t-44.5 -125zM522 465v-465h-79v66h-2q-55 -82 -174 -82q-96 0 -164 69.5t-68 179.5q0 107 68 177t170 70q114 0 169 -81h1v66h79z" unicode="å"/>
<glyph glyph-name="ae" horiz-adv-x="816" unicode="æ" d="M354 216h-77q-156 0 -156 -87q0 -39 24 -57t61 -18q68 0 106 49t42 113zM564 411q-60 0 -93 -38t-39 -95h266q-6 59 -41 96t-93 37zM576 54q78 0 127 80l61 -44q-63 -106 -186 -106q-139 0 -192 110q-69 -110 -188 -110q-84 0 -121.5 41.5t-37.5 101.5q0 75 61.5 113 t176.5 38h77v29q0 47 -28.5 75.5t-78.5 28.5q-89 0 -112 -76l-78 30q48 115 187 115q120 0 159 -81q60 81 161 81q58 0 102.5 -23t68 -60t35 -77t11.5 -81q0 -13 -2 -23h-349q0 -71 40 -116.5t106 -45.5z"/>
<glyph glyph-name="ccedilla" horiz-adv-x="478" unicode="ç" d="M407 109l52 -54q-60 -66 -157 -70l-8 -22q35 -9 55.5 -33.5t20.5 -57.5q0 -46 -28.5 -73.5t-82.5 -27.5q-53 0 -96 15l20 56q22 -11 65 -11q55 0 55 37q0 45 -92 45l30 74q-92 14 -149 81t-57 166q0 105 67 175.5t177 70.5q116 0 179 -70l-53 -55q-43 56 -126 56 q-69 0 -115.5 -46.5t-46.5 -131.5q0 -78 47.5 -129t119.5 -51q75 0 123 56z"/>
<glyph glyph-name="egrave" horiz-adv-x="531" unicode="è" d="M151 677l58 55l132 -150l-44 -42zM266 411q-63 0 -102.5 -39.5t-45.5 -95.5h295q-6 56 -46.5 95.5t-100.5 39.5zM266 480q60 0 107 -23.5t72.5 -60.5t38 -77t12.5 -80q0 -18 -2 -30h-377q0 -61 46 -108t106 -47q92 0 147 80l61 -44q-32 -49 -85.5 -77.5t-120.5 -28.5 q-105 0 -170.5 72.5t-65.5 182.5q0 99 64.5 170t166.5 71z"/>
<glyph glyph-name="eacute" horiz-adv-x="531" unicode="é" d="M200 582l132 150l58 -55l-146 -137zM266 411q-63 0 -102.5 -39.5t-45.5 -95.5h295q-6 56 -46.5 95.5t-100.5 39.5zM266 480q60 0 107 -23.5t72.5 -60.5t38 -77t12.5 -80q0 -18 -2 -30h-377q0 -61 46 -108t106 -47q92 0 147 80l61 -44q-32 -49 -85.5 -77.5t-120.5 -28.5 q-105 0 -170.5 72.5t-65.5 182.5q0 99 64.5 170t166.5 71z"/>
<glyph glyph-name="ecircumflex" horiz-adv-x="531" unicode="ê" d="M270 712l140 -127l-41 -45l-99 81l-99 -81l-41 45zM266 411q-63 0 -102.5 -39.5t-45.5 -95.5h295q-6 56 -46.5 95.5t-100.5 39.5zM266 480q60 0 107 -23.5t72.5 -60.5t38 -77t12.5 -80q0 -18 -2 -30h-377q0 -61 46 -108t106 -47q92 0 147 80l61 -44q-32 -49 -85.5 -77.5 t-120.5 -28.5q-105 0 -170.5 72.5t-65.5 182.5q0 99 64.5 170t166.5 71z"/>
<glyph glyph-name="edieresis" horiz-adv-x="531" unicode="ë" d="M312 577v88h92v-88h-92zM138 577v88h92v-88h-92zM266 411q-63 0 -102.5 -39.5t-45.5 -95.5h295q-6 56 -46.5 95.5t-100.5 39.5zM266 480q60 0 107 -23.5t72.5 -60.5t38 -77t12.5 -80q0 -18 -2 -30h-377q0 -61 46 -108t106 -47q92 0 147 80l61 -44q-32 -49 -85.5 -77.5 t-120.5 -28.5q-105 0 -170.5 72.5t-65.5 182.5q0 99 64.5 170t166.5 71z"/>
<glyph glyph-name="igrave" horiz-adv-x="213" unicode="ì" d="M67 0v465h79v-465h-79zM-9 677l58 55l132 -150l-44 -42z"/>
<glyph glyph-name="iacute" horiz-adv-x="213" unicode="í" d="M67 0v465h79v-465h-79zM41 582l132 150l58 -55l-146 -137z"/>
<glyph glyph-name="icircumflex" horiz-adv-x="213" unicode="î" d="M111 712l140 -127l-41 -45l-99 81l-99 -81l-41 45zM67 0v465h79v-465h-79z"/>
<glyph glyph-name="idieresis" horiz-adv-x="213" unicode="ï" d="M67 0v465h79v-465h-79zM152 577v88h92v-88h-92zM-22 577v88h92v-88h-92z"/>
<glyph glyph-name="eth" horiz-adv-x="567" unicode="ð" d="M117 233q0 -77 49 -127.5t117 -50.5q72 0 119.5 51t47.5 127q0 74 -46.5 125t-120.5 51q-72 0 -119 -50t-47 -126zM191 505l-36 54l88 58q-39 31 -74 51l38 60q56 -35 101 -75l79 52l36 -54l-65 -43q174 -163 174 -370q0 -104 -71.5 -179t-177.5 -75q-105 0 -176.5 72 t-71.5 177q0 107 71 177t177 70q67 0 117 -35l2 2q-40 62 -110 125z"/>
<glyph glyph-name="ntilde" horiz-adv-x="536" unicode="ñ" d="M188 576h-60q6 116 93 116q37 0 76 -33q36 -30 60 -30q30 0 31 55h60q-5 -116 -95 -116q-43 0 -81 32q-36 31 -53 31q-28 0 -31 -55zM67 0v465h79v-61h2q53 76 145 76q73 0 127.5 -50.5t54.5 -159.5v-270h-79v267q0 68 -30.5 105t-85.5 37q-64 0 -99 -40.5t-35 -120.5 v-248h-79z"/>
<glyph glyph-name="ograve" horiz-adv-x="567" unicode="ò" d="M174 677l58 55l132 -150l-44 -42zM117 233q0 -77 49 -127.5t117 -50.5q72 0 119.5 51t47.5 127q0 74 -46.5 125t-120.5 51q-72 0 -119 -50t-47 -126zM35 233q0 107 71 177t177 70q108 0 178.5 -70.5t70.5 -176.5q0 -103 -71 -176t-178 -73q-105 0 -176.5 72t-71.5 177z "/>
<glyph glyph-name="oacute" horiz-adv-x="567" unicode="ó" d="M213 582l132 150l58 -55l-146 -137zM117 233q0 -77 49 -127.5t117 -50.5q72 0 119.5 51t47.5 127q0 74 -46.5 125t-120.5 51q-72 0 -119 -50t-47 -126zM35 233q0 107 71 177t177 70q108 0 178.5 -70.5t70.5 -176.5q0 -103 -71 -176t-178 -73q-105 0 -176.5 72t-71.5 177z "/>
<glyph glyph-name="ocircumflex" horiz-adv-x="567" unicode="ô" d="M289 712l140 -127l-41 -45l-99 81l-99 -81l-41 45zM117 233q0 -77 49 -127.5t117 -50.5q72 0 119.5 51t47.5 127q0 74 -46.5 125t-120.5 51q-72 0 -119 -50t-47 -126zM35 233q0 107 71 177t177 70q108 0 178.5 -70.5t70.5 -176.5q0 -103 -71 -176t-178 -73 q-105 0 -176.5 72t-71.5 177z"/>
<glyph glyph-name="otilde" horiz-adv-x="567" unicode="õ" d="M188 576h-60q6 116 93 116q37 0 76 -33q36 -30 60 -30q30 0 31 55h60q-5 -116 -95 -116q-43 0 -81 32q-36 31 -53 31q-28 0 -31 -55zM117 233q0 -77 49 -127.5t117 -50.5q72 0 119.5 51t47.5 127q0 74 -46.5 125t-120.5 51q-72 0 -119 -50t-47 -126zM35 233q0 107 71 177 t177 70q108 0 178.5 -70.5t70.5 -176.5q0 -103 -71 -176t-178 -73q-105 0 -176.5 72t-71.5 177z"/>
<glyph glyph-name="odieresis" horiz-adv-x="567" unicode="ö" d="M330 577v88h92v-88h-92zM156 577v88h92v-88h-92zM117 233q0 -77 49 -127.5t117 -50.5q72 0 119.5 51t47.5 127q0 74 -46.5 125t-120.5 51q-72 0 -119 -50t-47 -126zM35 233q0 107 71 177t177 70q108 0 178.5 -70.5t70.5 -176.5q0 -103 -71 -176t-178 -73 q-105 0 -176.5 72t-71.5 177z"/>
<glyph glyph-name="divide" horiz-adv-x="672" unicode="÷" d="M390 75q0 -24 -15.5 -40t-37.5 -16q-23 0 -39 16.5t-16 38.5t15.5 38t38.5 16q24 0 39 -15.5t15 -37.5zM390 455q0 -24 -16 -39t-38 -15t-38 16t-16 37q0 23 15.5 39t38.5 16q24 0 39 -15.5t15 -38.5zM593 227h-515v74h515v-74z"/>
<glyph glyph-name="oslash" horiz-adv-x="567" unicode="ø" d="M117 233q0 -60 31 -107l226 257q-38 26 -91 26q-72 0 -119 -50t-47 -126zM450 233q0 61 -31 106l-226 -257q39 -27 90 -27q72 0 119.5 51t47.5 127zM35 233q0 107 71 177t177 70q79 0 140 -41l61 69l46 -42l-60 -68q62 -68 62 -165q0 -103 -71 -176t-178 -73 q-74 0 -139 42l-59 -68l-49 41l61 69q-62 70 -62 165z"/>
<glyph glyph-name="ugrave" horiz-adv-x="524" unicode="ù" d="M148 677l58 55l132 -150l-44 -42zM457 465v-465h-79v55h-2q-56 -72 -139 -72q-71 0 -123.5 51t-52.5 159v272h79v-266q0 -69 29.5 -106.5t80.5 -37.5q60 0 94 41t34 120v249h79z"/>
<glyph glyph-name="uacute" horiz-adv-x="524" unicode="ú" d="M197 582l132 150l58 -55l-146 -137zM457 465v-465h-79v55h-2q-56 -72 -139 -72q-71 0 -123.5 51t-52.5 159v272h79v-266q0 -69 29.5 -106.5t80.5 -37.5q60 0 94 41t34 120v249h79z"/>
<glyph glyph-name="ucircumflex" horiz-adv-x="524" unicode="û" d="M267 712l140 -127l-41 -45l-99 81l-99 -81l-41 45zM457 465v-465h-79v55h-2q-56 -72 -139 -72q-71 0 -123.5 51t-52.5 159v272h79v-266q0 -69 29.5 -106.5t80.5 -37.5q60 0 94 41t34 120v249h79z"/>
<glyph glyph-name="udieresis" horiz-adv-x="524" unicode="ü" d="M309 577v88h92v-88h-92zM135 577v88h92v-88h-92zM457 465v-465h-79v55h-2q-56 -72 -139 -72q-71 0 -123.5 51t-52.5 159v272h79v-266q0 -69 29.5 -106.5t80.5 -37.5q60 0 94 41t34 120v249h79z"/>
<glyph glyph-name="yacute" horiz-adv-x="420" unicode="ý" d="M145 582l132 150l58 -55l-146 -137zM418 465l-259 -700h-76l87 235l-169 465h81l97 -270q23 -66 30 -96h1q8 29 31 96l96 270h81z"/>
<glyph glyph-name="thorn" d="M472 233q0 72 -44.5 125t-124.5 53q-68 0 -116 -50.5t-48 -130.5q0 -76 49.5 -127t116.5 -51q79 0 123 54.5t44 126.5zM67 -235v956h79v-322h1q55 81 169 81q102 0 170 -70t68 -177q0 -110 -68 -179.5t-164 -69.5q-119 0 -174 82h-2v-301h-79z" unicode="þ"/>
<glyph glyph-name="ydieresis" horiz-adv-x="420" unicode="ÿ" d="M256 577v88h92v-88h-92zM82 577v88h92v-88h-92zM418 465l-259 -700h-76l87 235l-169 465h81l97 -270q23 -66 30 -96h1q8 29 31 96l96 270h81z"/>
<glyph glyph-name="Amacron" horiz-adv-x="636" unicode="Ā" d="M465 784h-268v65h268v-65zM268 449l-70 -181h239l-69 182q-32 84 -47 138h-4q-23 -73 -49 -139zM538 0l-73 194h-296l-74 -194h-88l278 682h74l270 -682h-91z"/>
<glyph glyph-name="amacron" d="M413 585h-268v65h268v-65zM117 233q0 -73 44 -127t123 -54q67 0 116.5 51t49.5 127q0 80 -48 130.5t-116 50.5q-80 0 -124.5 -53t-44.5 -125zM522 465v-465h-79v66h-2q-55 -82 -174 -82q-96 0 -164 69.5t-68 179.5q0 107 68 177t170 70q114 0 169 -81h1v66h79z" unicode="ā"/>
<glyph glyph-name="Abreve" horiz-adv-x="636" unicode="Ă" d="M412 879h66q-3 -59 -45.5 -95.5t-110.5 -36.5q-73 0 -113.5 37.5t-42.5 94.5h66q2 -30 25.5 -47.5t64.5 -17.5q43 0 65.5 18.5t24.5 46.5zM268 449l-70 -181h239l-69 182q-32 84 -47 138h-4q-23 -73 -49 -139zM538 0l-73 194h-296l-74 -194h-88l278 682h74l270 -682h-91z "/>
<glyph glyph-name="abreve" d="M369 696h66q-4 -63 -48 -105t-108 -42q-65 0 -109.5 42t-46.5 105h66q2 -37 27 -58.5t63 -21.5t63 21.5t27 58.5zM117 233q0 -73 44 -127t123 -54q67 0 116.5 51t49.5 127q0 80 -48 130.5t-116 50.5q-80 0 -124.5 -53t-44.5 -125zM522 465v-465h-79v66h-2 q-55 -82 -174 -82q-96 0 -164 69.5t-68 179.5q0 107 68 177t170 70q114 0 169 -81h1v66h79z" unicode="ă"/>
<glyph glyph-name="Aogonek" horiz-adv-x="636" unicode="Ą" d="M268 449l-70 -181h239l-69 182q-32 84 -47 138h-4q-23 -73 -49 -139zM538 0l-73 194h-296l-74 -194h-88l278 682h74l270 -682h-4q-32 -2 -56 -29.5t-24 -68.5q0 -49 50 -49q19 0 38 4l8 -65q-26 -7 -55 -7q-59 0 -87 29.5t-28 75.5q0 70 70 110h-3z"/>
<glyph glyph-name="aogonek" d="M117 233q0 -73 44 -127t123 -54q67 0 116.5 51t49.5 127q0 80 -48 130.5t-116 50.5q-80 0 -124.5 -53t-44.5 -125zM522 465v-465q-20 0 -43.5 -26.5t-23.5 -67.5q0 -47 48 -47q19 0 38 4l8 -65q-26 -7 -55 -7q-58 0 -85.5 28.5t-27.5 74.5q0 28 17.5 58t50.5 48h-6v66h-2 q-55 -82 -174 -82q-96 0 -164 69.5t-68 179.5q0 107 68 177t170 70q114 0 169 -81h1v66h79z" unicode="ą"/>
<glyph glyph-name="Cacute" horiz-adv-x="684" unicode="Ć" d="M477 890l38 -71l-182 -83l-29 54zM593 149l61 -55q-97 -116 -264 -116q-156 0 -254 103.5t-98 261.5q0 156 101 258.5t251 102.5q168 0 263 -114l-61 -55q-31 43 -83.5 69t-119.5 26q-109 0 -187 -77t-78 -211q0 -123 75.5 -206.5t190.5 -83.5q131 0 203 97z"/>
<glyph glyph-name="cacute" horiz-adv-x="478" unicode="ć" d="M188 582l132 150l58 -55l-146 -137zM407 109l52 -54q-64 -71 -176 -71q-108 0 -178 70t-70 180q0 105 67 175.5t177 70.5q116 0 179 -70l-53 -55q-43 56 -126 56q-69 0 -115.5 -46.5t-46.5 -131.5q0 -78 47.5 -129t119.5 -51q75 0 123 56z"/>
<glyph glyph-name="Ccircumflex" horiz-adv-x="684" unicode="Ĉ" d="M389 885l140 -98l-27 -49l-113 58l-113 -58l-27 49zM593 149l61 -55q-97 -116 -264 -116q-156 0 -254 103.5t-98 261.5q0 156 101 258.5t251 102.5q168 0 263 -114l-61 -55q-31 43 -83.5 69t-119.5 26q-109 0 -187 -77t-78 -211q0 -123 75.5 -206.5t190.5 -83.5 q131 0 203 97z"/>
<glyph glyph-name="ccircumflex" horiz-adv-x="478" unicode="ĉ" d="M279 712l140 -127l-41 -45l-99 81l-99 -81l-41 45zM407 109l52 -54q-64 -71 -176 -71q-108 0 -178 70t-70 180q0 105 67 175.5t177 70.5q116 0 179 -70l-53 -55q-43 56 -126 56q-69 0 -115.5 -46.5t-46.5 -131.5q0 -78 47.5 -129t119.5 -51q75 0 123 56z"/>
<glyph glyph-name="Cdotaccent" horiz-adv-x="684" unicode="Ċ" d="M342 776v89h94v-89h-94zM593 149l61 -55q-97 -116 -264 -116q-156 0 -254 103.5t-98 261.5q0 156 101 258.5t251 102.5q168 0 263 -114l-61 -55q-31 43 -83.5 69t-119.5 26q-109 0 -187 -77t-78 -211q0 -123 75.5 -206.5t190.5 -83.5q131 0 203 97z"/>
<glyph glyph-name="cdotaccent" horiz-adv-x="478" unicode="ċ" d="M231 577v89h94v-89h-94zM407 109l52 -54q-64 -71 -176 -71q-108 0 -178 70t-70 180q0 105 67 175.5t177 70.5q116 0 179 -70l-53 -55q-43 56 -126 56q-69 0 -115.5 -46.5t-46.5 -131.5q0 -78 47.5 -129t119.5 -51q75 0 123 56z"/>
<glyph glyph-name="Ccaron" horiz-adv-x="684" unicode="Č" d="M389 738l-140 98l27 49l113 -58l113 58l27 -49zM593 149l61 -55q-97 -116 -264 -116q-156 0 -254 103.5t-98 261.5q0 156 101 258.5t251 102.5q168 0 263 -114l-61 -55q-31 43 -83.5 69t-119.5 26q-109 0 -187 -77t-78 -211q0 -123 75.5 -206.5t190.5 -83.5q131 0 203 97 z"/>
<glyph glyph-name="ccaron" horiz-adv-x="478" unicode="č" d="M279 540l-140 127l41 45l99 -81l99 81l41 -45zM407 109l52 -54q-64 -71 -176 -71q-108 0 -178 70t-70 180q0 105 67 175.5t177 70.5q116 0 179 -70l-53 -55q-43 56 -126 56q-69 0 -115.5 -46.5t-46.5 -131.5q0 -78 47.5 -129t119.5 -51q75 0 123 56z"/>
<glyph glyph-name="Dcaron" horiz-adv-x="705" unicode="Ď" d="M298 738l-140 98l27 49l113 -58l113 58l27 -49zM134 76h135q138 0 213.5 75t75.5 190q0 120 -76 192.5t-211 72.5h-137v-530zM51 682h221q177 0 274.5 -97t97.5 -244q0 -144 -100.5 -242.5t-273.5 -98.5h-219v682z"/>
<glyph glyph-name="dcaron" horiz-adv-x="677" unicode="ď" d="M585 638v83h92v-46q0 -68 -29 -116h-49q22 29 24 79h-38zM117 233q0 -73 44 -127t123 -54q67 0 116.5 51t49.5 127q0 80 -48 130.5t-116 50.5q-80 0 -124.5 -53t-44.5 -125zM522 721v-721h-79v66h-2q-55 -82 -174 -82q-96 0 -164 69.5t-68 179.5q0 107 68 177t170 70 q114 0 169 -81h1v322h79z"/>
<glyph glyph-name="Dcroat" horiz-adv-x="727" unicode="Đ" d="M179 76h141q136 0 209.5 75t73.5 190q0 120 -74.5 192.5t-208.5 72.5h-141v-214h198v-76h-198v-240zM15 316v76h81v290h221q177 0 274.5 -97t97.5 -244q0 -144 -100.5 -242.5t-273.5 -98.5h-219v316h-81z"/>
<glyph glyph-name="dcroat" d="M117 233q0 -73 44 -127t123 -54q67 0 116.5 51t49.5 127q0 80 -48 130.5t-116 50.5q-80 0 -124.5 -53t-44.5 -125zM522 721v-81h67v-65h-67v-575h-79v66h-2q-55 -82 -174 -82q-96 0 -164 69.5t-68 179.5q0 107 68 177t170 70q114 0 169 -81h1v176h-201v65h201v81h79z" unicode="đ"/>
<glyph glyph-name="Emacron" horiz-adv-x="523" unicode="Ē" d="M406 784h-268v65h268v-65zM448 682v-76h-291v-215h280v-76h-280v-239h302v-76h-385v682h374z"/>
<glyph glyph-name="emacron" horiz-adv-x="531" unicode="ē" d="M399 585h-268v65h268v-65zM266 411q-63 0 -102.5 -39.5t-45.5 -95.5h295q-6 56 -46.5 95.5t-100.5 39.5zM266 480q60 0 107 -23.5t72.5 -60.5t38 -77t12.5 -80q0 -18 -2 -30h-377q0 -61 46 -108t106 -47q92 0 147 80l61 -44q-32 -49 -85.5 -77.5t-120.5 -28.5 q-105 0 -170.5 72.5t-65.5 182.5q0 99 64.5 170t166.5 71z"/>
<glyph glyph-name="Ebreve" horiz-adv-x="523" unicode="Ĕ" d="M351 879h66q-3 -59 -45.5 -95.5t-110.5 -36.5q-73 0 -113.5 37.5t-42.5 94.5h66q2 -30 25.5 -47.5t64.5 -17.5q43 0 65.5 18.5t24.5 46.5zM448 682v-76h-291v-215h280v-76h-280v-239h302v-76h-385v682h374z"/>
<glyph glyph-name="ebreve" horiz-adv-x="531" unicode="ĕ" d="M355 696h66q-4 -63 -48 -105t-108 -42q-65 0 -109.5 42t-46.5 105h66q2 -37 27 -58.5t63 -21.5t63 21.5t27 58.5zM266 411q-63 0 -102.5 -39.5t-45.5 -95.5h295q-6 56 -46.5 95.5t-100.5 39.5zM266 480q60 0 107 -23.5t72.5 -60.5t38 -77t12.5 -80q0 -18 -2 -30h-377 q0 -61 46 -108t106 -47q92 0 147 80l61 -44q-32 -49 -85.5 -77.5t-120.5 -28.5q-105 0 -170.5 72.5t-65.5 182.5q0 99 64.5 170t166.5 71z"/>
<glyph glyph-name="Edotaccent" horiz-adv-x="523" unicode="Ė" d="M214 776v89h94v-89h-94zM448 682v-76h-291v-215h280v-76h-280v-239h302v-76h-385v682h374z"/>
<glyph glyph-name="edotaccent" horiz-adv-x="531" unicode="ė" d="M217 577v89h94v-89h-94zM266 411q-63 0 -102.5 -39.5t-45.5 -95.5h295q-6 56 -46.5 95.5t-100.5 39.5zM266 480q60 0 107 -23.5t72.5 -60.5t38 -77t12.5 -80q0 -18 -2 -30h-377q0 -61 46 -108t106 -47q92 0 147 80l61 -44q-32 -49 -85.5 -77.5t-120.5 -28.5 q-105 0 -170.5 72.5t-65.5 182.5q0 99 64.5 170t166.5 71z"/>
<glyph glyph-name="Eogonek" horiz-adv-x="523" unicode="Ę" d="M437 -143v-65q-28 -7 -51 -7q-59 0 -87 29.5t-28 75.5q0 30 18 60.5t52 49.5h-267v682h374v-76h-291v-215h280v-76h-280v-239h302v-76h-28q-33 0 -59.5 -28.5t-26.5 -69.5q0 -49 50 -49q21 0 42 4z"/>
<glyph glyph-name="eogonek" horiz-adv-x="531" unicode="ę" d="M400 13q-68 -47 -68 -108q0 -46 47 -46q19 0 38 4l8 -65q-26 -7 -55 -7q-57 0 -84.5 28.5t-27.5 73.5q0 55 48 93q-18 -2 -35 -2q-105 0 -170.5 72.5t-65.5 182.5q0 99 64.5 170t166.5 71q60 0 107 -23.5t72.5 -60.5t38 -77t12.5 -80q0 -20 -2 -30h-377q0 -61 46 -108 t106 -47q92 0 147 80l61 -44q-30 -44 -77 -77zM266 411q-63 0 -102.5 -39.5t-45.5 -95.5h295q-6 56 -46.5 95.5t-100.5 39.5z"/>
<glyph glyph-name="Ecaron" horiz-adv-x="523" unicode="Ě" d="M261 738l-140 98l27 49l113 -58l113 58l27 -49zM448 682v-76h-291v-215h280v-76h-280v-239h302v-76h-385v682h374z"/>
<glyph glyph-name="ecaron" horiz-adv-x="531" unicode="ě" d="M265 540l-140 127l41 45l99 -81l99 81l41 -45zM266 411q-63 0 -102.5 -39.5t-45.5 -95.5h295q-6 56 -46.5 95.5t-100.5 39.5zM266 480q60 0 107 -23.5t72.5 -60.5t38 -77t12.5 -80q0 -18 -2 -30h-377q0 -61 46 -108t106 -47q92 0 147 80l61 -44q-32 -49 -85.5 -77.5 t-120.5 -28.5q-105 0 -170.5 72.5t-65.5 182.5q0 99 64.5 170t166.5 71z"/>
<glyph glyph-name="Gcircumflex" horiz-adv-x="776" unicode="Ĝ" d="M393 885l140 -98l-27 -49l-113 58l-113 -58l-27 49zM378 364h360v-9q0 -165 -94.5 -271t-252.5 -106q-154 0 -253.5 107.5t-99.5 255.5q0 150 102 256.5t252 106.5q214 0 309 -162l-73 -46q-70 134 -236 134q-121 0 -194.5 -82.5t-73.5 -202.5q0 -132 78 -212.5 t196 -80.5q104 0 173 66.5t79 169.5h-272v76z"/>
<glyph glyph-name="gcircumflex" d="M276 712l140 -127l-41 -45l-99 81l-99 -81l-41 45zM117 233q0 -73 44 -127t123 -54q67 0 116.5 51t49.5 127q0 80 -48 130.5t-116 50.5q-80 0 -124.5 -53t-44.5 -125zM522 465v-459q0 -263 -250 -263q-104 0 -180 43l35 68q60 -42 148 -42q168 0 168 194v60h-2 q-55 -82 -174 -82q-96 0 -164 69.5t-68 179.5q0 107 68 177t170 70q109 0 170 -80v65h79z" unicode="ĝ"/>
<glyph glyph-name="Gbreve" horiz-adv-x="776" unicode="Ğ" d="M483 879h66q-3 -59 -45.5 -95.5t-110.5 -36.5q-73 0 -113.5 37.5t-42.5 94.5h66q2 -30 25.5 -47.5t64.5 -17.5q43 0 65.5 18.5t24.5 46.5zM378 364h360v-9q0 -165 -94.5 -271t-252.5 -106q-154 0 -253.5 107.5t-99.5 255.5q0 150 102 256.5t252 106.5q214 0 309 -162 l-73 -46q-70 134 -236 134q-121 0 -194.5 -82.5t-73.5 -202.5q0 -132 78 -212.5t196 -80.5q104 0 173 66.5t79 169.5h-272v76z"/>
<glyph glyph-name="gbreve" d="M366 696h66q-4 -63 -48 -105t-108 -42q-65 0 -109.5 42t-46.5 105h66q2 -37 27 -58.5t63 -21.5t63 21.5t27 58.5zM117 233q0 -73 44 -127t123 -54q67 0 116.5 51t49.5 127q0 80 -48 130.5t-116 50.5q-80 0 -124.5 -53t-44.5 -125zM522 465v-459q0 -263 -250 -263 q-104 0 -180 43l35 68q60 -42 148 -42q168 0 168 194v60h-2q-55 -82 -174 -82q-96 0 -164 69.5t-68 179.5q0 107 68 177t170 70q109 0 170 -80v65h79z" unicode="ğ"/>
<glyph glyph-name="Gdotaccent" horiz-adv-x="776" unicode="Ġ" d="M345 776v89h94v-89h-94zM378 364h360v-9q0 -165 -94.5 -271t-252.5 -106q-154 0 -253.5 107.5t-99.5 255.5q0 150 102 256.5t252 106.5q214 0 309 -162l-73 -46q-70 134 -236 134q-121 0 -194.5 -82.5t-73.5 -202.5q0 -132 78 -212.5t196 -80.5q104 0 173 66.5t79 169.5 h-272v76z"/>
<glyph glyph-name="gdotaccent" d="M229 577v89h94v-89h-94zM117 233q0 -73 44 -127t123 -54q67 0 116.5 51t49.5 127q0 80 -48 130.5t-116 50.5q-80 0 -124.5 -53t-44.5 -125zM522 465v-459q0 -263 -250 -263q-104 0 -180 43l35 68q60 -42 148 -42q168 0 168 194v60h-2q-55 -82 -174 -82q-96 0 -164 69.5 t-68 179.5q0 107 68 177t170 70q109 0 170 -80v65h79z" unicode="ġ"/>
<glyph glyph-name="Gcommaaccent" horiz-adv-x="776" unicode="Ģ" d="M340 -151v83h92v-46q0 -68 -29 -116h-49q22 29 24 79h-38zM378 364h360v-9q0 -165 -94.5 -271t-252.5 -106q-154 0 -253.5 107.5t-99.5 255.5q0 150 102 256.5t252 106.5q214 0 309 -162l-73 -46q-70 134 -236 134q-121 0 -194.5 -82.5t-73.5 -202.5q0 -132 78 -212.5 t196 -80.5q104 0 173 66.5t79 169.5h-272v76z"/>
<glyph glyph-name="gcommaaccent" d="M334 637v-83h-92v46q0 68 29 116h49q-22 -29 -24 -79h38zM117 233q0 -73 44 -127t123 -54q67 0 116.5 51t49.5 127q0 80 -48 130.5t-116 50.5q-80 0 -124.5 -53t-44.5 -125zM522 465v-459q0 -263 -250 -263q-104 0 -180 43l35 68q60 -42 148 -42q168 0 168 194v60h-2 q-55 -82 -174 -82q-96 0 -164 69.5t-68 179.5q0 107 68 177t170 70q109 0 170 -80v65h79z" unicode="ģ"/>
<glyph glyph-name="Hcircumflex" horiz-adv-x="689" unicode="Ĥ" d="M344 885l140 -98l-27 -49l-113 58l-113 -58l-27 49zM532 0v315h-375v-315h-83v682h83v-291h375v291h83v-682h-83z"/>
<glyph glyph-name="hcircumflex" horiz-adv-x="536" unicode="ĥ" d="M106 921l140 -127l-41 -45l-99 81l-99 -81l-41 45zM67 0v721h79v-317h2q53 76 145 76q73 0 127.5 -50.5t54.5 -159.5v-270h-79v267q0 68 -30.5 105t-85.5 37q-64 0 -99 -40.5t-35 -120.5v-248h-79z"/>
<glyph glyph-name="Hbar" horiz-adv-x="689" unicode="Ħ" d="M157 391h375v131h-375v-131zM679 522h-64v-522h-83v315h-375v-315h-83v522h-64v65h64v95h83v-95h375v95h83v-95h64v-65z"/>
<glyph glyph-name="hbar" horiz-adv-x="536" unicode="ħ" d="M67 0v575h-67v65h67v81h79v-81h165v-65h-165v-171h2q53 76 145 76q73 0 127.5 -50.5t54.5 -159.5v-270h-79v267q0 68 -30.5 105t-85.5 37q-64 0 -99 -40.5t-35 -120.5v-248h-79z"/>
<glyph glyph-name="Itilde" horiz-adv-x="231" unicode="Ĩ" d="M15 773h-60q6 116 93 116q37 0 76 -33q36 -30 60 -30q30 0 31 55h60q-5 -116 -95 -116q-43 0 -81 32q-36 31 -53 31q-28 0 -31 -55zM74 0v682h83v-682h-83z"/>
<glyph glyph-name="itilde" horiz-adv-x="213" unicode="ĩ" d="M67 0v465h79v-465h-79zM6 576h-60q6 116 93 116q37 0 76 -33q36 -30 60 -30q30 0 31 55h60q-5 -116 -95 -116q-43 0 -81 32q-36 31 -53 31q-28 0 -31 -55z"/>
<glyph glyph-name="Imacron" horiz-adv-x="231" unicode="Ī" d="M260 784h-268v65h268v-65zM74 0v682h83v-682h-83z"/>
<glyph glyph-name="imacron" horiz-adv-x="213" unicode="ī" d="M67 0v465h79v-465h-79zM240 585h-268v65h268v-65z"/>
<glyph glyph-name="Ibreve" horiz-adv-x="231" unicode="Ĭ" d="M205 879h66q-3 -59 -45.5 -95.5t-110.5 -36.5q-73 0 -113.5 37.5t-42.5 94.5h66q2 -30 25.5 -47.5t64.5 -17.5q43 0 65.5 18.5t24.5 46.5zM74 0v682h83v-682h-83z"/>
<glyph glyph-name="ibreve" horiz-adv-x="213" unicode="ĭ" d="M67 0v465h79v-465h-79zM195 696h66q-4 -63 -48 -105t-108 -42q-65 0 -109.5 42t-46.5 105h66q2 -37 27 -58.5t63 -21.5t63 21.5t27 58.5z"/>
<glyph glyph-name="Iogonek" horiz-adv-x="231" unicode="Į" d="M144 -147q19 0 38 4l8 -65q-26 -7 -55 -7q-59 0 -87 29.5t-28 75.5q0 30 18 60.5t52 49.5h-16v682h83v-682q-21 -5 -42 -31.5t-21 -66.5q0 -49 50 -49z"/>
<glyph glyph-name="iogonek" horiz-adv-x="213" unicode="į" d="M58 575v92h97v-92h-97zM67 0v465h79v-465h-2q-20 -3 -41.5 -30.5t-21.5 -64.5q0 -46 47 -46q19 0 36 4l8 -65q-25 -7 -53 -7q-57 0 -84.5 28.5t-27.5 73.5q0 29 17.5 58.5t49.5 48.5h-7z"/>
<glyph glyph-name="Idotaccent" horiz-adv-x="231" unicode="İ" d="M68 776v89h94v-89h-94zM74 0v682h83v-682h-83z"/>
<glyph glyph-name="dotlessi" horiz-adv-x="213" unicode="ı" d="M67 0v465h79v-465h-79z"/>
<glyph glyph-name="Jcircumflex" horiz-adv-x="345" unicode="Ĵ" d="M240 885l140 -98l-27 -49l-113 58l-113 -58l-27 49zM200 175v507h82v-507q0 -97 -46.5 -146t-131.5 -49q-55 0 -98 24l26 70q31 -20 72 -20q50 0 73 27.5t23 93.5z"/>
<glyph glyph-name="jcircumflex" horiz-adv-x="213" unicode="ĵ" d="M107 712l140 -127l-41 -45l-99 81l-99 -81l-41 45zM146 465v-524q0 -94 -40.5 -140t-113.5 -46q-42 0 -93 18l18 62q28 -14 68 -14q82 0 82 121v523h79z"/>
<glyph glyph-name="Kcommaaccent" horiz-adv-x="597" unicode="Ķ" d="M260 -151v83h92v-46q0 -68 -29 -116h-49q22 29 24 79h-38zM157 682v-294l287 294h110l-316 -323l350 -359h-110l-321 329v-329h-83v682h83z"/>
<glyph glyph-name="kcommaaccent" horiz-adv-x="424" unicode="ķ" d="M189 -151v83h92v-46q0 -68 -29 -116h-49q22 29 24 79h-38zM336 0l-190 237v-237h-79v721h79v-451l179 195h100l-197 -209l207 -256h-99z"/>
<glyph glyph-name="kgreenlandic" horiz-adv-x="441" unicode="ĸ" d="M452 0h-102l-204 229v-229h-79v465h79v-210l196 210h101l-211 -221z"/>
<glyph glyph-name="Lacute" horiz-adv-x="473" unicode="Ĺ" d="M203 890l38 -71l-182 -83l-29 54zM74 0v682h83v-606h302v-76h-385z"/>
<glyph glyph-name="lacute" horiz-adv-x="213" unicode="ĺ" d="M35 791l132 150l58 -55l-146 -137zM67 0v721h79v-721h-79z"/>
<glyph glyph-name="Lcommaaccent" horiz-adv-x="473" unicode="Ļ" d="M210 -151v83h92v-46q0 -68 -29 -116h-49q22 29 24 79h-38zM74 0v682h83v-606h302v-76h-385z"/>
<glyph glyph-name="lcommaaccent" horiz-adv-x="213" unicode="ļ" d="M58 -151v83h92v-46q0 -68 -29 -116h-49q22 29 24 79h-38zM67 0v721h79v-721h-79z"/>
<glyph glyph-name="Lcaron" horiz-adv-x="473" unicode="Ľ" d="M298 599v83h92v-46q0 -68 -29 -116h-49q22 29 24 79h-38zM74 0v682h83v-606h302v-76h-385z"/>
<glyph glyph-name="lcaron" horiz-adv-x="303" unicode="ľ" d="M211 639v82h92v-45q0 -66 -28 -114h-49q21 30 23 77h-38zM67 0v721h79v-721h-79z"/>
<glyph glyph-name="Ldot" horiz-adv-x="473" unicode="Ŀ" d="M302 313v89h94v-89h-94zM74 0v682h83v-606h302v-76h-385z"/>
<glyph glyph-name="ldot" horiz-adv-x="310" unicode="ŀ" d="M215 302v88h93v-88h-93zM67 0v721h79v-721h-79z"/>
<glyph glyph-name="Lslash" horiz-adv-x="473" unicode="Ł" d="M5 185v85l69 50v362h83v-306l121 89v-85l-121 -89v-215h302v-76h-385v235z"/>
<glyph glyph-name="lslash" horiz-adv-x="235" unicode="ł" d="M5 237v84l73 56v344h79v-287l73 56v-83l-73 -57v-350h-79v294z"/>
<glyph glyph-name="Nacute" horiz-adv-x="670" unicode="Ń" d="M423 890l38 -71l-182 -83l-29 54zM152 551h-2q2 -74 2 -143v-408h-78v682h78l222 -328q102 -149 144 -224h2q-2 78 -2 145v407h78v-682h-78l-222 328q-113 165 -144 223z"/>
<glyph glyph-name="nacute" horiz-adv-x="536" unicode="ń" d="M202 582l132 150l58 -55l-146 -137zM67 0v465h79v-61h2q53 76 145 76q73 0 127.5 -50.5t54.5 -159.5v-270h-79v267q0 68 -30.5 105t-85.5 37q-64 0 -99 -40.5t-35 -120.5v-248h-79z"/>
<glyph glyph-name="Ncommaaccent" horiz-adv-x="670" unicode="Ņ" d="M282 -151v83h92v-46q0 -68 -29 -116h-49q22 29 24 79h-38zM152 551h-2q2 -74 2 -143v-408h-78v682h78l222 -328q102 -149 144 -224h2q-2 78 -2 145v407h78v-682h-78l-222 328q-113 165 -144 223z"/>
<glyph glyph-name="ncommaaccent" horiz-adv-x="536" unicode="ņ" d="M219 -151v83h92v-46q0 -68 -29 -116h-49q22 29 24 79h-38zM67 0v465h79v-61h2q53 76 145 76q73 0 127.5 -50.5t54.5 -159.5v-270h-79v267q0 68 -30.5 105t-85.5 37q-64 0 -99 -40.5t-35 -120.5v-248h-79z"/>
<glyph glyph-name="Ncaron" horiz-adv-x="670" unicode="Ň" d="M335 738l-140 98l27 49l113 -58l113 58l27 -49zM152 551h-2q2 -74 2 -143v-408h-78v682h78l222 -328q102 -149 144 -224h2q-2 78 -2 145v407h78v-682h-78l-222 328q-113 165 -144 223z"/>
<glyph glyph-name="ncaron" horiz-adv-x="536" unicode="ň" d="M277 540l-140 127l41 45l99 -81l99 81l41 -45zM67 0v465h79v-61h2q53 76 145 76q73 0 127.5 -50.5t54.5 -159.5v-270h-79v267q0 68 -30.5 105t-85.5 37q-64 0 -99 -40.5t-35 -120.5v-248h-79z"/>
<glyph glyph-name="Eng" horiz-adv-x="670" unicode="Ŋ" d="M152 551h-2q0 -19 1 -72.5t1 -70.5v-408h-78v682h78l222 -328q102 -149 144 -224h2q-2 23 -2 90v55v407h78v-713q0 -95 -41 -142.5t-115 -47.5q-54 0 -94 17l17 64q29 -15 70 -15q85 0 85 117v38l-222 328q-113 165 -144 223z"/>
<glyph glyph-name="eng" horiz-adv-x="536" unicode="ŋ" d="M475 270v-329q0 -94 -40.5 -140t-113.5 -46q-42 0 -93 18l18 62q28 -14 68 -14q82 0 82 121v325q0 68 -30.5 105t-85.5 37q-64 0 -99 -40.5t-35 -120.5v-248h-79v465h79v-61h2q53 76 145 76q73 0 127.5 -50.5t54.5 -159.5z"/>
<glyph glyph-name="Omacron" horiz-adv-x="799" unicode="Ō" d="M544 784h-268v65h268v-65zM38 341q0 149 103.5 256t258.5 107q162 0 261.5 -107t99.5 -256q0 -151 -104 -257t-257 -106q-89 0 -160.5 32.5t-114.5 86t-65 116t-22 128.5zM124 341q0 -124 79 -206.5t196 -82.5t196.5 83t79.5 206q0 124 -77 206.5t-199 82.5 q-118 0 -196.5 -82t-78.5 -207z"/>
<glyph glyph-name="omacron" horiz-adv-x="567" unicode="ō" d="M418 585h-268v65h268v-65zM117 233q0 -77 49 -127.5t117 -50.5q72 0 119.5 51t47.5 127q0 74 -46.5 125t-120.5 51q-72 0 -119 -50t-47 -126zM35 233q0 107 71 177t177 70q108 0 178.5 -70.5t70.5 -176.5q0 -103 -71 -176t-178 -73q-105 0 -176.5 72t-71.5 177z"/>
<glyph glyph-name="Obreve" horiz-adv-x="799" unicode="Ŏ" d="M489 879h66q-3 -59 -45.5 -95.5t-110.5 -36.5q-73 0 -113.5 37.5t-42.5 94.5h66q2 -30 25.5 -47.5t64.5 -17.5q43 0 65.5 18.5t24.5 46.5zM38 341q0 149 103.5 256t258.5 107q162 0 261.5 -107t99.5 -256q0 -151 -104 -257t-257 -106q-89 0 -160.5 32.5t-114.5 86 t-65 116t-22 128.5zM124 341q0 -124 79 -206.5t196 -82.5t196.5 83t79.5 206q0 124 -77 206.5t-199 82.5q-118 0 -196.5 -82t-78.5 -207z"/>
<glyph glyph-name="obreve" horiz-adv-x="567" unicode="ŏ" d="M373 696h66q-4 -63 -48 -105t-108 -42q-65 0 -109.5 42t-46.5 105h66q2 -37 27 -58.5t63 -21.5t63 21.5t27 58.5zM117 233q0 -77 49 -127.5t117 -50.5q72 0 119.5 51t47.5 127q0 74 -46.5 125t-120.5 51q-72 0 -119 -50t-47 -126zM35 233q0 107 71 177t177 70 q108 0 178.5 -70.5t70.5 -176.5q0 -103 -71 -176t-178 -73q-105 0 -176.5 72t-71.5 177z"/>
<glyph glyph-name="Ohungarumlaut" horiz-adv-x="799" unicode="Ő" d="M607 894l46 -66l-160 -101l-35 50zM420 894l46 -66l-160 -101l-35 50zM38 341q0 149 103.5 256t258.5 107q162 0 261.5 -107t99.5 -256q0 -151 -104 -257t-257 -106q-89 0 -160.5 32.5t-114.5 86t-65 116t-22 128.5zM124 341q0 -124 79 -206.5t196 -82.5t196.5 83 t79.5 206q0 124 -77 206.5t-199 82.5q-118 0 -196.5 -82t-78.5 -207z"/>
<glyph glyph-name="ohungarumlaut" horiz-adv-x="567" unicode="ő" d="M411 736l66 -45l-114 -151l-50 34zM251 736l66 -45l-114 -151l-50 34zM117 233q0 -77 49 -127.5t117 -50.5q72 0 119.5 51t47.5 127q0 74 -46.5 125t-120.5 51q-72 0 -119 -50t-47 -126zM35 233q0 107 71 177t177 70q108 0 178.5 -70.5t70.5 -176.5q0 -103 -71 -176 t-178 -73q-105 0 -176.5 72t-71.5 177z"/>
<glyph glyph-name="OE" horiz-adv-x="1108" unicode="Œ" d="M124 341q0 -124 79 -206.5t196 -82.5q114 0 192 83t78 206q0 124 -75.5 206.5t-194.5 82.5q-118 0 -196.5 -82t-78.5 -207zM1033 682v-76h-291v-215h280v-76h-280v-239h302v-76h-380v117q-103 -139 -264 -139q-89 0 -160.5 32.5t-114.5 86t-65 116t-22 128.5 q0 149 103.5 256t258.5 107q166 0 264 -136v114h369z"/>
<glyph glyph-name="oe" horiz-adv-x="904" unicode="œ" d="M658 -16q-135 0 -190 111q-63 -111 -194 -111q-101 0 -170 72t-69 177q0 107 68.5 177t170.5 70q131 0 194 -109q58 109 181 109q58 0 102.5 -23.5t69 -60.5t36.5 -77t12 -80q0 -18 -2 -30h-358q0 -62 42 -108.5t104 -46.5q78 0 127 80l61 -44q-63 -106 -185 -106z M649 411q-58 0 -95.5 -39.5t-43.5 -95.5h276q-5 55 -43.5 95t-93.5 40zM117 233q0 -76 46.5 -127t110.5 -51q68 0 112.5 51t44.5 127q0 75 -43.5 125.5t-113.5 50.5q-69 0 -113 -50t-44 -126z"/>
<glyph glyph-name="Racute" horiz-adv-x="565" unicode="Ŕ" d="M355 890l38 -71l-182 -83l-29 54zM416 482q0 60 -37.5 92t-108.5 32h-113v-245h124q65 0 100 34t35 87zM344 293l215 -293h-105l-206 285h-91v-285h-83v682h197q118 0 174.5 -59.5t56.5 -140.5q0 -70 -46 -123.5t-112 -65.5z"/>
<glyph glyph-name="racute" horiz-adv-x="330" unicode="ŕ" d="M109 582l132 150l58 -55l-146 -137zM315 474l-14 -80q-15 5 -36 5q-54 0 -86.5 -37.5t-32.5 -115.5v-246h-79v465h79v-68h2q14 35 46.5 59t76.5 24q23 0 44 -6z"/>
<glyph glyph-name="Rcommaaccent" horiz-adv-x="565" unicode="Ŗ" d="M239 -151v83h92v-46q0 -68 -29 -116h-49q22 29 24 79h-38zM416 482q0 60 -37.5 92t-108.5 32h-113v-245h124q65 0 100 34t35 87zM344 293l215 -293h-105l-206 285h-91v-285h-83v682h197q118 0 174.5 -59.5t56.5 -140.5q0 -70 -46 -123.5t-112 -65.5z"/>
<glyph glyph-name="rcommaaccent" horiz-adv-x="330" unicode="ŗ" d="M57 -151v83h92v-46q0 -68 -29 -116h-49q22 29 24 79h-38zM315 474l-14 -80q-15 5 -36 5q-54 0 -86.5 -37.5t-32.5 -115.5v-246h-79v465h79v-68h2q14 35 46.5 59t76.5 24q23 0 44 -6z"/>
<glyph glyph-name="Rcaron" horiz-adv-x="565" unicode="Ř" d="M252 738l-140 98l27 49l113 -58l113 58l27 -49zM416 482q0 60 -37.5 92t-108.5 32h-113v-245h124q65 0 100 34t35 87zM344 293l215 -293h-105l-206 285h-91v-285h-83v682h197q118 0 174.5 -59.5t56.5 -140.5q0 -70 -46 -123.5t-112 -65.5z"/>
<glyph glyph-name="rcaron" horiz-adv-x="330" unicode="ř" d="M189 540l-140 127l41 45l99 -81l99 81l41 -45zM315 474l-14 -80q-15 5 -36 5q-54 0 -86.5 -37.5t-32.5 -115.5v-246h-79v465h79v-68h2q14 35 46.5 59t76.5 24q23 0 44 -6z"/>
<glyph glyph-name="Sacute" horiz-adv-x="506" unicode="Ś" d="M351 890l38 -71l-182 -83l-29 54zM435 609l-66 -50q-42 73 -119 73q-49 0 -78 -29t-29 -76q0 -43 25 -69.5t92 -53.5q111 -44 156 -95.5t45 -130.5t-56 -139.5t-154 -60.5q-146 0 -206 115l70 48q42 -91 137 -91q59 0 92 37.5t33 85.5q0 52 -30 86.5t-114 66.5 q-91 35 -132.5 81t-41.5 120q0 75 54 126t137 51q63 0 106 -23t79 -72z"/>
<glyph glyph-name="sacute" horiz-adv-x="416" unicode="ś" d="M136 582l132 150l58 -55l-146 -137zM45 76l64 41q25 -65 103 -65q40 0 61 18.5t21 48.5q0 31 -21.5 52t-83.5 41q-66 22 -96.5 56t-30.5 86q0 53 39.5 89.5t112.5 36.5q97 0 142 -69l-60 -44q-25 46 -79 46q-36 0 -56.5 -17.5t-20.5 -42.5q0 -23 19.5 -42t76.5 -37 q137 -43 137 -149q0 -65 -44.5 -103t-119.5 -38q-117 0 -164 92z"/>
<glyph glyph-name="Scircumflex" horiz-adv-x="506" unicode="Ŝ" d="M259 885l140 -98l-27 -49l-113 58l-113 -58l-27 49zM435 609l-66 -50q-42 73 -119 73q-49 0 -78 -29t-29 -76q0 -43 25 -69.5t92 -53.5q111 -44 156 -95.5t45 -130.5t-56 -139.5t-154 -60.5q-146 0 -206 115l70 48q42 -91 137 -91q59 0 92 37.5t33 85.5q0 52 -30 86.5 t-114 66.5q-91 35 -132.5 81t-41.5 120q0 75 54 126t137 51q63 0 106 -23t79 -72z"/>
<glyph glyph-name="scircumflex" horiz-adv-x="416" unicode="ŝ" d="M211 712l140 -127l-41 -45l-99 81l-99 -81l-41 45zM45 76l64 41q25 -65 103 -65q40 0 61 18.5t21 48.5q0 31 -21.5 52t-83.5 41q-66 22 -96.5 56t-30.5 86q0 53 39.5 89.5t112.5 36.5q97 0 142 -69l-60 -44q-25 46 -79 46q-36 0 -56.5 -17.5t-20.5 -42.5q0 -23 19.5 -42 t76.5 -37q137 -43 137 -149q0 -65 -44.5 -103t-119.5 -38q-117 0 -164 92z"/>
<glyph glyph-name="Scedilla" horiz-adv-x="506" unicode="Ş" d="M435 609l-66 -50q-42 73 -119 73q-49 0 -78 -29t-29 -76q0 -43 25 -69.5t92 -53.5q111 -44 156 -95.5t45 -130.5q0 -74 -49 -132t-136 -67l-7 -18q36 -8 58 -33t22 -60q0 -46 -29.5 -74.5t-84.5 -28.5q-53 0 -98 15l20 56q24 -11 67 -11q57 0 57 39q0 47 -95 47l28 69 q-118 12 -169 113l70 48q42 -91 137 -91q59 0 92 37.5t33 85.5q0 52 -30 86.5t-114 66.5q-91 35 -132.5 81t-41.5 120q0 75 54 126t137 51q63 0 106 -23t79 -72z"/>
<glyph glyph-name="scedilla" horiz-adv-x="416" unicode="ş" d="M45 76l64 41q25 -65 103 -65q40 0 61 18.5t21 48.5q0 31 -21.5 52t-83.5 41q-66 22 -96.5 56t-30.5 86q0 53 39.5 89.5t112.5 36.5q97 0 142 -69l-60 -44q-25 46 -79 46q-36 0 -56.5 -17.5t-20.5 -42.5q0 -23 19.5 -42t76.5 -37q137 -43 137 -149q0 -59 -36.5 -95.5 t-99.5 -43.5l-8 -23q35 -9 56 -33.5t21 -57.5q0 -46 -29 -73.5t-82 -27.5q-52 0 -97 15l20 56q24 -11 65 -11q55 0 55 37q0 45 -92 45l31 73q-91 10 -132 90z"/>
<glyph glyph-name="Scaron" horiz-adv-x="506" unicode="Š" d="M268 738l-140 98l27 49l113 -58l113 58l27 -49zM435 609l-66 -50q-42 73 -119 73q-49 0 -78 -29t-29 -76q0 -43 25 -69.5t92 -53.5q111 -44 156 -95.5t45 -130.5t-56 -139.5t-154 -60.5q-146 0 -206 115l70 48q42 -91 137 -91q59 0 92 37.5t33 85.5q0 52 -30 86.5 t-114 66.5q-91 35 -132.5 81t-41.5 120q0 75 54 126t137 51q63 0 106 -23t79 -72z"/>
<glyph glyph-name="scaron" horiz-adv-x="416" unicode="š" d="M211 540l-140 127l41 45l99 -81l99 81l41 -45zM45 76l64 41q25 -65 103 -65q40 0 61 18.5t21 48.5q0 31 -21.5 52t-83.5 41q-66 22 -96.5 56t-30.5 86q0 53 39.5 89.5t112.5 36.5q97 0 142 -69l-60 -44q-25 46 -79 46q-36 0 -56.5 -17.5t-20.5 -42.5q0 -23 19.5 -42 t76.5 -37q137 -43 137 -149q0 -65 -44.5 -103t-119.5 -38q-117 0 -164 92z"/>
<glyph glyph-name="uni0162" horiz-adv-x="509" unicode="Ţ" d="M209 -151v83h92v-46q0 -68 -29 -116h-49q22 29 24 79h-38zM213 0v606h-199v76h481v-76h-199v-606h-83z"/>
<glyph glyph-name="uni0163" horiz-adv-x="310" unicode="ţ" d="M133 -141v83h92v-46q0 -68 -29 -116h-49q22 29 24 79h-38zM16 399v66h60v148h79v-148h123v-66h-123v-239q0 -57 16.5 -78t55.5 -21q26 0 48 8l14 -63q-33 -12 -78 -12q-70 0 -102.5 38t-32.5 127v240h-60z"/>
<glyph glyph-name="Tcaron" horiz-adv-x="509" unicode="Ť" d="M234 738l-140 98l27 49l113 -58l113 58l27 -49zM213 0v606h-199v76h481v-76h-199v-606h-83z"/>
<glyph glyph-name="tcaron" horiz-adv-x="311" unicode="ť" d="M16 399v66h60v148h79v-148h123v-66h-123v-239q0 -57 16.5 -78t55.5 -21q26 0 48 8l14 -63q-33 -12 -78 -12q-70 0 -102.5 38t-32.5 127v240h-60zM218 639v82h92v-45q0 -66 -28 -114h-49q21 30 23 77h-38z"/>
<glyph glyph-name="Tbar" horiz-adv-x="509" unicode="Ŧ" d="M213 0v313h-125v76h125v217h-199v76h481v-76h-199v-217h125v-76h-125v-313h-83z"/>
<glyph glyph-name="tbar" horiz-adv-x="310" unicode="ŧ" d="M16 399v66h60v148h79v-148h123v-66h-123v-128h106v-65h-106v-46q0 -57 16.5 -78t55.5 -21q26 0 48 8l14 -63q-33 -12 -78 -12q-70 0 -102.5 38t-32.5 127v47h-47v65h47v128h-60z"/>
<glyph glyph-name="Utilde" horiz-adv-x="625" unicode="Ũ" d="M213 773h-60q6 116 93 116q37 0 76 -33q36 -30 60 -30q30 0 31 55h60q-5 -116 -95 -116q-43 0 -81 32q-36 31 -53 31q-28 0 -31 -55zM313 -22q-104 0 -176.5 71.5t-72.5 222.5v410h83v-422q0 -93 44.5 -150.5t121.5 -57.5q86 0 126 56t40 152v422h82v-408 q0 -154 -68.5 -225t-179.5 -71z"/>
<glyph glyph-name="utilde" horiz-adv-x="524" unicode="ũ" d="M162 576h-60q6 116 93 116q37 0 76 -33q36 -30 60 -30q30 0 31 55h60q-5 -116 -95 -116q-43 0 -81 32q-36 31 -53 31q-28 0 -31 -55zM457 465v-465h-79v55h-2q-56 -72 -139 -72q-71 0 -123.5 51t-52.5 159v272h79v-266q0 -69 29.5 -106.5t80.5 -37.5q60 0 94 41t34 120 v249h79z"/>
<glyph glyph-name="Umacron" horiz-adv-x="625" unicode="Ū" d="M458 784h-268v65h268v-65zM313 -22q-104 0 -176.5 71.5t-72.5 222.5v410h83v-422q0 -93 44.5 -150.5t121.5 -57.5q86 0 126 56t40 152v422h82v-408q0 -154 -68.5 -225t-179.5 -71z"/>
<glyph glyph-name="umacron" horiz-adv-x="524" unicode="ū" d="M396 585h-268v65h268v-65zM457 465v-465h-79v55h-2q-56 -72 -139 -72q-71 0 -123.5 51t-52.5 159v272h79v-266q0 -69 29.5 -106.5t80.5 -37.5q60 0 94 41t34 120v249h79z"/>
<glyph glyph-name="Ubreve" horiz-adv-x="625" unicode="Ŭ" d="M403 879h66q-3 -59 -45.5 -95.5t-110.5 -36.5q-73 0 -113.5 37.5t-42.5 94.5h66q2 -30 25.5 -47.5t64.5 -17.5q43 0 65.5 18.5t24.5 46.5zM313 -22q-104 0 -176.5 71.5t-72.5 222.5v410h83v-422q0 -93 44.5 -150.5t121.5 -57.5q86 0 126 56t40 152v422h82v-408 q0 -154 -68.5 -225t-179.5 -71z"/>
<glyph glyph-name="ubreve" horiz-adv-x="524" unicode="ŭ" d="M352 696h66q-4 -63 -48 -105t-108 -42q-65 0 -109.5 42t-46.5 105h66q2 -37 27 -58.5t63 -21.5t63 21.5t27 58.5zM457 465v-465h-79v55h-2q-56 -72 -139 -72q-71 0 -123.5 51t-52.5 159v272h79v-266q0 -69 29.5 -106.5t80.5 -37.5q60 0 94 41t34 120v249h79z"/>
<glyph glyph-name="Uring" horiz-adv-x="625" unicode="Ů" d="M191 838q0 50 35.5 85.5t87.5 35.5q50 0 85.5 -35.5t35.5 -85.5q0 -51 -35.5 -87t-85.5 -36q-52 0 -87.5 36t-35.5 87zM246 838q0 -28 20 -48t48 -20t47 20t19 48t-19 47t-47 19t-48 -19t-20 -47zM313 -22q-104 0 -176.5 71.5t-72.5 222.5v410h83v-422q0 -93 44.5 -150.5 t121.5 -57.5q86 0 126 56t40 152v422h82v-408q0 -154 -68.5 -225t-179.5 -71z"/>
<glyph glyph-name="uring" horiz-adv-x="524" unicode="ů" d="M140 635q0 50 35.5 85.5t87.5 35.5q50 0 85.5 -35.5t35.5 -85.5q0 -51 -35.5 -87t-85.5 -36q-52 0 -87.5 36t-35.5 87zM195 635q0 -28 20 -48t48 -20t47 20t19 48t-19 47t-47 19t-48 -19t-20 -47zM457 465v-465h-79v55h-2q-56 -72 -139 -72q-71 0 -123.5 51t-52.5 159 v272h79v-266q0 -69 29.5 -106.5t80.5 -37.5q60 0 94 41t34 120v249h79z"/>
<glyph glyph-name="Uhungarumlaut" horiz-adv-x="625" unicode="Ű" d="M511 894l46 -66l-160 -101l-35 50zM324 894l46 -66l-160 -101l-35 50zM313 -22q-104 0 -176.5 71.5t-72.5 222.5v410h83v-422q0 -93 44.5 -150.5t121.5 -57.5q86 0 126 56t40 152v422h82v-408q0 -154 -68.5 -225t-179.5 -71z"/>
<glyph glyph-name="uhungarumlaut" horiz-adv-x="524" unicode="ű" d="M389 736l66 -45l-114 -151l-50 34zM229 736l66 -45l-114 -151l-50 34zM457 465v-465h-79v55h-2q-56 -72 -139 -72q-71 0 -123.5 51t-52.5 159v272h79v-266q0 -69 29.5 -106.5t80.5 -37.5q60 0 94 41t34 120v249h79z"/>
<glyph glyph-name="Uogonek" horiz-adv-x="625" unicode="Ų" d="M415 -147q19 0 38 4l8 -65q-26 -7 -55 -7q-59 0 -87 29.5t-28 75.5q0 49 40 89q-3 -1 -18 -1q-104 0 -176.5 71.5t-72.5 222.5v410h83v-422q0 -93 44.5 -150.5t121.5 -57.5q86 0 126 56t40 152v422h82v-408q0 -186 -107 -258l-40 -27q-49 -34 -49 -87q0 -49 50 -49z"/>
<glyph glyph-name="uogonek" horiz-adv-x="525" unicode="ų" d="M457 465v-465q-22 -3 -44 -28t-22 -66q0 -47 48 -47q18 0 37 4l8 -65q-26 -7 -54 -7q-58 0 -85.5 28.5t-27.5 74.5q0 28 17.5 58t50.5 48h-7v55h-2q-56 -72 -139 -72q-71 0 -123.5 51t-52.5 159v272h79v-266q0 -69 29.5 -106.5t80.5 -37.5q60 0 94 41t34 120v249h79z"/>
<glyph glyph-name="Wcircumflex" horiz-adv-x="833" unicode="Ŵ" d="M421 885l140 -98l-27 -49l-113 58l-113 -58l-27 49zM557 0l-107 434q-20 81 -27 145h-4q-8 -59 -29 -145l-105 -434h-83l-186 682h85l112 -440q19 -76 30 -133h4q25 132 27 142l107 431h82l107 -438q17 -70 27 -135h4q11 76 26 134l105 439h85l-171 -682h-89z"/>
<glyph glyph-name="wcircumflex" horiz-adv-x="673" unicode="ŵ" d="M337 712l140 -127l-41 -45l-99 81l-99 -81l-41 45zM424 0l-66 272q-12 53 -21 101h-4q-6 -50 -18 -101l-66 -272h-103l-120 465h80l71 -305q11 -52 19 -93h3q8 40 23 98l71 300h87l74 -304q7 -27 20 -94h3q7 49 17 93l73 305h79l-121 -465h-101z"/>
<glyph glyph-name="Ycircumflex" horiz-adv-x="561" unicode="Ŷ" d="M283 885l140 -98l-27 -49l-113 58l-113 -58l-27 49zM240 0v278l-228 404h92l137 -250q27 -47 40 -77h2q15 35 38 76l136 251h92l-226 -403v-279h-83z"/>
<glyph glyph-name="ycircumflex" horiz-adv-x="420" unicode="ŷ" d="M210 712l140 -127l-41 -45l-99 81l-99 -81l-41 45zM418 465l-259 -700h-76l87 235l-169 465h81l97 -270q23 -66 30 -96h1q8 29 31 96l96 270h81z"/>
<glyph glyph-name="Ydieresis" horiz-adv-x="561" unicode="Ÿ" d="M329 776v88h92v-88h-92zM155 776v88h92v-88h-92zM240 0v278l-228 404h92l137 -250q27 -47 40 -77h2q15 35 38 76l136 251h92l-226 -403v-279h-83z"/>
<glyph glyph-name="Zacute" horiz-adv-x="601" unicode="Ź" d="M385 890l38 -71l-182 -83l-29 54zM58 606v76h485v-72l-403 -534h419v-76h-518v71l403 535h-386z"/>
<glyph glyph-name="zacute" horiz-adv-x="469" unicode="ź" d="M154 582l132 150l58 -55l-146 -137zM52 399v66h365v-62l-277 -336h289v-67h-389v63l278 336h-266z"/>
<glyph glyph-name="Zdotaccent" horiz-adv-x="601" unicode="Ż" d="M250 776v89h94v-89h-94zM58 606v76h485v-72l-403 -534h419v-76h-518v71l403 535h-386z"/>
<glyph glyph-name="zdotaccent" horiz-adv-x="469" unicode="ż" d="M176 577v89h94v-89h-94zM52 399v66h365v-62l-277 -336h289v-67h-389v63l278 336h-266z"/>
<glyph glyph-name="Zcaron" horiz-adv-x="601" unicode="Ž" d="M302 738l-140 98l27 49l113 -58l113 58l27 -49zM58 606v76h485v-72l-403 -534h419v-76h-518v71l403 535h-386z"/>
<glyph glyph-name="zcaron" horiz-adv-x="469" unicode="ž" d="M229 540l-140 127l41 45l99 -81l99 81l41 -45zM52 399v66h365v-62l-277 -336h289v-67h-389v63l278 336h-266z"/>
<glyph glyph-name="longs" horiz-adv-x="235" unicode="ſ" d="M284 715l-12 -64q-22 8 -47 8q-36 0 -54.5 -21.5t-18.5 -58.5v-579h-80v569q0 76 37.5 116t109.5 40q33 0 65 -10z"/>
<glyph glyph-name="florin" horiz-adv-x="562" unicode="ƒ" d="M143 -93l81 509h-85v66h95l10 64q14 83 51 120.5t100 37.5q33 0 63 -7l-10 -65q-21 6 -44 6q-66 0 -79 -83l-12 -73h92v-66h-102l-82 -515q-15 -88 -52 -123t-99 -35q-35 0 -60 7l10 64q18 -5 40 -5q36 0 55.5 23t27.5 75z"/>
<glyph glyph-name="Scommaaccent" horiz-adv-x="506" unicode="Ș" d="M215 -151v83h92v-46q0 -68 -29 -116h-49q22 29 24 79h-38zM435 609l-66 -50q-42 73 -119 73q-49 0 -78 -29t-29 -76q0 -43 25 -69.5t92 -53.5q111 -44 156 -95.5t45 -130.5t-56 -139.5t-154 -60.5q-146 0 -206 115l70 48q42 -91 137 -91q59 0 92 37.5t33 85.5 q0 52 -30 86.5t-114 66.5q-91 35 -132.5 81t-41.5 120q0 75 54 126t137 51q63 0 106 -23t79 -72z"/>
<glyph glyph-name="scommaaccent" horiz-adv-x="416" unicode="ș" d="M157 -151v83h92v-46q0 -68 -29 -116h-49q22 29 24 79h-38zM45 76l64 41q25 -65 103 -65q40 0 61 18.5t21 48.5q0 31 -21.5 52t-83.5 41q-66 22 -96.5 56t-30.5 86q0 53 39.5 89.5t112.5 36.5q97 0 142 -69l-60 -44q-25 46 -79 46q-36 0 -56.5 -17.5t-20.5 -42.5 q0 -23 19.5 -42t76.5 -37q137 -43 137 -149q0 -65 -44.5 -103t-119.5 -38q-117 0 -164 92z"/>
<glyph glyph-name="uni021A" horiz-adv-x="509" unicode="Ț" d="M209 -151v83h92v-46q0 -68 -29 -116h-49q22 29 24 79h-38zM213 0v606h-199v76h481v-76h-199v-606h-83z"/>
<glyph glyph-name="uni021B" horiz-adv-x="310" unicode="ț" d="M133 -141v83h92v-46q0 -68 -29 -116h-49q22 29 24 79h-38zM16 399v66h60v148h79v-148h123v-66h-123v-239q0 -57 16.5 -78t55.5 -21q26 0 48 8l14 -63q-33 -12 -78 -12q-70 0 -102.5 38t-32.5 127v240h-60z"/>
<glyph glyph-name="dotlessj" horiz-adv-x="213" unicode="ȷ" d="M146 465v-524q0 -94 -40.5 -140t-113.5 -46q-42 0 -93 18l18 62q28 -14 68 -14q82 0 82 121v523h79z"/>
<glyph glyph-name="circumflex" horiz-adv-x="328" unicode="ˆ" d="M164 730l140 -127l-41 -45l-99 81l-99 -81l-41 45z"/>
<glyph glyph-name="caron" horiz-adv-x="328" unicode="ˇ" d="M164 558l-140 127l41 45l99 -81l99 81l41 -45z"/>
<glyph glyph-name="uni02C9" horiz-adv-x="328" unicode="ˉ" d="M298 604h-268v65h268v-65z"/>
<glyph glyph-name="breve" horiz-adv-x="328" unicode="˘" d="M254 714h66q-4 -63 -48 -105t-108 -42q-65 0 -109.5 42t-46.5 105h66q2 -37 27 -58.5t63 -21.5t63 21.5t27 58.5z"/>
<glyph glyph-name="dotaccent" horiz-adv-x="328" unicode="˙" d="M117 596v89h94v-89h-94z"/>
<glyph glyph-name="ring" horiz-adv-x="328" unicode="˚" d="M42 653q0 50 35.5 85.5t87.5 35.5q50 0 85.5 -35.5t35.5 -85.5q0 -51 -35.5 -87t-85.5 -36q-52 0 -87.5 36t-35.5 87zM97 653q0 -28 20 -48t48 -20t47 20t19 48t-19 47t-47 19t-48 -19t-20 -47z"/>
<glyph glyph-name="ogonek" horiz-adv-x="328" unicode="˛" d="M240 -143l8 -65q-26 -7 -55 -7q-59 0 -87 29.5t-28 75.5q0 30 18 60.5t52 49.5h60q-56 -46 -56 -98q0 -49 50 -49q19 0 38 4z"/>
<glyph glyph-name="tilde" horiz-adv-x="328" unicode="˜" d="M64 593h-60q6 116 93 116q37 0 76 -33q36 -30 60 -30q30 0 31 55h60q-5 -116 -95 -116q-43 0 -81 32q-36 31 -53 31q-28 0 -31 -55z"/>
<glyph glyph-name="hungarumlaut" horiz-adv-x="328" unicode="˝" d="M292 754l66 -45l-114 -151l-50 34zM132 754l66 -45l-114 -151l-50 34z"/>
<glyph glyph-name="Wgrave" horiz-adv-x="833" unicode="Ẁ" d="M295 819l38 71l173 -100l-29 -54zM557 0l-107 434q-20 81 -27 145h-4q-8 -59 -29 -145l-105 -434h-83l-186 682h85l112 -440q19 -76 30 -133h4q25 132 27 142l107 431h82l107 -438q17 -70 27 -135h4q11 76 26 134l105 439h85l-171 -682h-89z"/>
<glyph glyph-name="wgrave" horiz-adv-x="673" unicode="ẁ" d="M228 677l58 55l132 -150l-44 -42zM424 0l-66 272q-12 53 -21 101h-4q-6 -50 -18 -101l-66 -272h-103l-120 465h80l71 -305q11 -52 19 -93h3q8 40 23 98l71 300h87l74 -304q7 -27 20 -94h3q7 49 17 93l73 305h79l-121 -465h-101z"/>
<glyph glyph-name="Wacute" horiz-adv-x="833" unicode="Ẃ" d="M509 890l38 -71l-182 -83l-29 54zM557 0l-107 434q-20 81 -27 145h-4q-8 -59 -29 -145l-105 -434h-83l-186 682h85l112 -440q19 -76 30 -133h4q25 132 27 142l107 431h82l107 -438q17 -70 27 -135h4q11 76 26 134l105 439h85l-171 -682h-89z"/>
<glyph glyph-name="wacute" horiz-adv-x="673" unicode="ẃ" d="M267 582l132 150l58 -55l-146 -137zM424 0l-66 272q-12 53 -21 101h-4q-6 -50 -18 -101l-66 -272h-103l-120 465h80l71 -305q11 -52 19 -93h3q8 40 23 98l71 300h87l74 -304q7 -27 20 -94h3q7 49 17 93l73 305h79l-121 -465h-101z"/>
<glyph glyph-name="Wdieresis" horiz-adv-x="833" unicode="Ẅ" d="M462 776v88h92v-88h-92zM288 776v88h92v-88h-92zM557 0l-107 434q-20 81 -27 145h-4q-8 -59 -29 -145l-105 -434h-83l-186 682h85l112 -440q19 -76 30 -133h4q25 132 27 142l107 431h82l107 -438q17 -70 27 -135h4q11 76 26 134l105 439h85l-171 -682h-89z"/>
<glyph glyph-name="wdieresis" horiz-adv-x="673" unicode="ẅ" d="M378 577v88h92v-88h-92zM204 577v88h92v-88h-92zM424 0l-66 272q-12 53 -21 101h-4q-6 -50 -18 -101l-66 -272h-103l-120 465h80l71 -305q11 -52 19 -93h3q8 40 23 98l71 300h87l74 -304q7 -27 20 -94h3q7 49 17 93l73 305h79l-121 -465h-101z"/>
<glyph glyph-name="Ygrave" horiz-adv-x="561" unicode="Ỳ" d="M157 819l38 71l173 -100l-29 -54zM240 0v278l-228 404h92l137 -250q27 -47 40 -77h2q15 35 38 76l136 251h92l-226 -403v-279h-83z"/>
<glyph glyph-name="ygrave" horiz-adv-x="420" unicode="ỳ" d="M101 677l58 55l132 -150l-44 -42zM418 465l-259 -700h-76l87 235l-169 465h81l97 -270q23 -66 30 -96h1q8 29 31 96l96 270h81z"/>
<glyph glyph-name="endash" horiz-adv-x="544" unicode="–" d="M468 216h-392v80h392v-80z"/>
<glyph glyph-name="emdash" horiz-adv-x="1077" unicode="—" d="M1001 216h-925v80h925v-80z"/>
<glyph glyph-name="quoteleft" horiz-adv-x="229" unicode="‘" d="M165 598v-99h-100v49q0 96 48 172h50q-29 -44 -34 -122h36z"/>
<glyph glyph-name="quoteright" horiz-adv-x="229" unicode="’" d="M64 621v99h100v-49q0 -96 -48 -172h-50q29 44 34 122h-36z"/>
<glyph glyph-name="quotesinglbase" horiz-adv-x="229" unicode="‚" d="M64 0v99h100v-49q0 -96 -48 -172h-50q29 44 34 122h-36z"/>
<glyph glyph-name="quotedblleft" horiz-adv-x="385" unicode="“" d="M321 598v-99h-100v49q0 96 48 172h50q-29 -44 -34 -122h36zM165 598v-99h-100v49q0 96 48 172h50q-29 -44 -34 -122h36z"/>
<glyph glyph-name="quotedblright" horiz-adv-x="385" unicode="”" d="M64 621v99h100v-49q0 -96 -48 -172h-50q29 44 34 122h-36zM220 621v99h100v-49q0 -96 -48 -172h-50q29 44 34 122h-36z"/>
<glyph glyph-name="quotedblbase" horiz-adv-x="385" unicode="„" d="M64 0v99h100v-49q0 -96 -48 -172h-50q29 44 34 122h-36zM220 0v99h100v-49q0 -96 -48 -172h-50q29 44 34 122h-36z"/>
<glyph glyph-name="bullet" horiz-adv-x="376" unicode="•" d="M66 295q0 50 35.5 86t85.5 36t86.5 -36t36.5 -86t-36.5 -86t-86.5 -36t-85.5 36t-35.5 86z"/>
<glyph glyph-name="guilsinglleft" horiz-adv-x="287" unicode="‹" d="M58 242l122 197l54 -29l-87 -168l87 -168l-54 -31z"/>
<glyph glyph-name="guilsinglright" horiz-adv-x="287" unicode="›" d="M229 241l-122 -198l-54 30l87 168l-87 168l54 30z"/>
<glyph glyph-name="fraction" horiz-adv-x="190" unicode="⁄" d="M283 682h77l-453 -682h-77z"/>
<glyph glyph-name="zero.superior" horiz-adv-x="398" unicode="⁰" d="M293 644q0 166 -94 166q-40 0 -66.5 -38.5t-26.5 -122.5q0 -176 94 -176q40 0 66.5 41t26.5 130zM30 647q0 115 50.5 170t122.5 55q68 0 117 -53.5t49 -172.5q0 -68 -16.5 -117t-43.5 -73.5t-54 -35t-56 -10.5q-69 0 -119 55.5t-50 181.5z"/>
<glyph glyph-name="four.superior" horiz-adv-x="398" unicode="⁴" d="M198 707l-99 -138h131v140q0 15 1.5 29.5t1.5 19.5h-3q-12 -23 -32 -51zM368 510h-65v-85h-73v85h-203v56l209 293h67v-290h65v-59z"/>
<glyph glyph-name="five.superior" horiz-adv-x="398" unicode="⁵" d="M153 796l-15 -96q19 8 49 8q75 0 117.5 -39.5t42.5 -106.5q0 -61 -42.5 -106t-114.5 -45q-60 0 -92.5 22.5t-50.5 70.5l69 27q9 -30 26.5 -43.5t47.5 -13.5q34 0 56.5 23t22.5 61q0 42 -23 66t-62 24q-41 0 -63 -25h-68l38 236h223v-63h-161z"/>
<glyph glyph-name="six.superior" horiz-adv-x="398" unicode="⁶" d="M103 568q0 -42 27 -69t69 -27t69 26.5t27 69.5q0 42 -27 70.5t-69 28.5q-43 0 -69.5 -27.5t-26.5 -71.5zM30 568q0 76 59 146q34 41 123 145h78l-116 -139q14 6 44 6q66 -2 108 -47t42 -111t-47.5 -111.5t-122.5 -45.5t-121.5 44.5t-46.5 112.5z"/>
<glyph glyph-name="seven.superior" horiz-adv-x="398" unicode="⁷" d="M347 859v-56l-184 -378h-81l187 371h-211v63h289z"/>
<glyph glyph-name="eight.superior" horiz-adv-x="398" unicode="⁸" d="M354 545q0 -58 -40.5 -96t-113.5 -38q-74 0 -115 37t-41 95q0 85 80 115v1q-67 25 -67 96q0 52 39 84.5t104 32.5q63 0 102 -32t39 -81q0 -74 -68 -98v-2q81 -28 81 -114zM115 549q0 -38 23 -60t62 -22q38 0 61.5 22t23.5 60q0 37 -23.5 59.5t-61.5 22.5q-37 0 -61 -22 t-24 -60zM125 750q0 -32 20.5 -51t53.5 -19t54 19t21 51q0 31 -21 49t-54 18t-53.5 -17.5t-20.5 -49.5z"/>
<glyph glyph-name="nine.superior" horiz-adv-x="398" unicode="⁹" d="M296 716q0 43 -27.5 69.5t-68.5 26.5q-43 0 -69.5 -26t-26.5 -70q0 -43 27 -71t69 -28q43 0 69.5 27t26.5 72zM369 715q0 -70 -60 -145l-123 -145h-78l116 139q-17 -7 -43 -7q-68 2 -109.5 46.5t-41.5 111.5q0 66 48 111.5t122 45.5q75 0 122 -43.5t47 -113.5z"/>
<glyph glyph-name="nsuperior" horiz-adv-x="435" unicode="ⁿ" d="M60 328v354h70v-44h1q40 56 107 56q57 0 99.5 -39t42.5 -121v-206h-70v195q0 51 -21.5 79t-59.5 28q-47 0 -73 -30.5t-26 -89.5v-182h-70z"/>
<glyph glyph-name="zero.inferior" horiz-adv-x="398" unicode="₀" d="M293 44q0 166 -94 166q-40 0 -66.5 -38.5t-26.5 -122.5q0 -176 94 -176q40 0 66.5 41t26.5 130zM30 47q0 115 50.5 170t122.5 55q68 0 117 -53.5t49 -172.5q0 -68 -16.5 -117t-43.5 -73.5t-54 -35t-56 -10.5q-69 0 -119 55.5t-50 181.5z"/>
<glyph glyph-name="one.inferior" horiz-adv-x="398" unicode="₁" d="M170 -175v372h-67v62h140v-434h-73z"/>
<glyph glyph-name="two.inferior" horiz-adv-x="398" unicode="₂" d="M59 -175v52l143 152q25 28 35.5 40.5t21.5 34.5t11 42q0 29 -18.5 46.5t-50.5 17.5q-54 0 -74 -70l-69 20q34 112 146 112q64 0 103.5 -35.5t39.5 -87.5q0 -39 -22 -74.5t-73 -87.5l-93 -98h194v-64h-294z"/>
<glyph glyph-name="three.inferior" horiz-adv-x="398" unicode="₃" d="M124 157l-66 27q36 88 139 88q67 0 104 -31t37 -81q0 -36 -22 -61.5t-56 -34.5v-2q43 -9 68 -38.5t25 -75.5q0 -57 -41.5 -97t-115.5 -40q-121 0 -153 100l69 24q19 -64 85 -64q38 0 60 23t22 59q0 33 -23.5 55t-71.5 22h-29v57h25q38 0 60.5 17.5t22.5 46.5q0 28 -17 45 t-49 17q-55 0 -73 -56z"/>
<glyph glyph-name="four.inferior" horiz-adv-x="398" unicode="₄" d="M198 106l-98 -137h130v139q0 15 1.5 29.5t1.5 19.5h-3q-12 -23 -32 -51zM368 -90h-65v-85h-73v85h-203v56l209 293h67v-290h65v-59z"/>
<glyph glyph-name="five.inferior" horiz-adv-x="398" unicode="₅" d="M153 196l-15 -96q19 8 49 8q75 0 117.5 -39.5t42.5 -106.5q0 -61 -42.5 -106t-114.5 -45q-60 0 -92.5 22.5t-50.5 70.5l69 27q9 -30 26.5 -43.5t47.5 -13.5q34 0 56.5 23t22.5 61q0 42 -23 66t-62 24q-41 0 -63 -25h-68l38 236h223v-63h-161z"/>
<glyph glyph-name="six.inferior" horiz-adv-x="398" unicode="₆" d="M103 -32q0 -42 27 -69t69 -27t69 26.5t27 69.5q0 42 -27 70.5t-69 28.5q-43 0 -69.5 -27.5t-26.5 -71.5zM30 -32q0 76 59 146q34 41 123 145h78l-116 -139q14 6 44 6q66 -2 108 -47t42 -111t-47.5 -111.5t-122.5 -45.5t-121.5 44.5t-46.5 112.5z"/>
<glyph glyph-name="seven.inferior" horiz-adv-x="398" unicode="₇" d="M347 259v-56l-184 -378h-81l187 371h-211v63h289z"/>
<glyph glyph-name="eight.inferior" horiz-adv-x="398" unicode="₈" d="M354 -55q0 -58 -40.5 -96t-113.5 -38q-74 0 -115 37t-41 95q0 85 80 115v1q-67 25 -67 96q0 52 39 84.5t104 32.5q63 0 102 -32t39 -81q0 -74 -68 -98v-2q81 -28 81 -114zM115 -51q0 -38 23 -60t62 -22q38 0 61.5 22t23.5 60q0 37 -23.5 59.5t-61.5 22.5q-37 0 -61 -22 t-24 -60zM125 150q0 -32 20.5 -51t53.5 -19t54 19t21 51q0 31 -21 49t-54 18t-53.5 -17.5t-20.5 -49.5z"/>
<glyph glyph-name="nine.inferior" horiz-adv-x="398" unicode="₉" d="M296 116q0 43 -27.5 69.5t-68.5 26.5q-43 0 -69.5 -26t-26.5 -70q0 -43 27 -71t69 -28q43 0 69.5 27t26.5 72zM369 115q0 -70 -60 -145l-123 -145h-78l116 139q-17 -7 -43 -7q-68 2 -109.5 46.5t-41.5 111.5q0 66 48 111.5t122 45.5q75 0 122 -43.5t47 -113.5z"/>
<glyph glyph-name="franc" horiz-adv-x="562" unicode="₣" d="M338 128h-142v-128h-82v128h-84v71h84v483h374v-76h-292v-216h281v-76h-281v-115h142v-71z"/>
<glyph glyph-name="lira" horiz-adv-x="562" unicode="₤" d="M189 509q0 -33 3 -62h171v-67h-161q2 -12 7 -33t6 -27h148v-67h-139q0 -5 0.5 -13t0.5 -13q0 -79 -51 -121q35 0 96.5 -26.5t99.5 -26.5q39 0 59.5 19t29.5 66l76 -20q-16 -71 -54.5 -105.5t-110.5 -34.5q-45 0 -110 27.5t-100 27.5q-53 0 -107 -31l-29 58 q126 57 126 153q0 14 -2 40h-113v67h101q-9 35 -14 60h-87v67h75q-4 28 -4 70q0 81 51 134.5t145 53.5q151 0 204 -143l-81 -30q-31 101 -123 101q-53 0 -83 -34.5t-30 -89.5z"/>
<glyph glyph-name="peseta" horiz-adv-x="1205" unicode="₧" d="M417 470q0 63 -39 99.5t-119 36.5h-102v-271h99q161 0 161 135zM1154 364h-80q-6 28 -27 46t-50 18q-35 0 -55.5 -18.5t-20.5 -45.5q0 -25 20.5 -44.5t80.5 -38.5q139 -43 139 -153q0 -66 -44 -105.5t-118 -39.5q-146 0 -174 145h80q16 -77 97 -77q38 0 59 20t21 51 q0 32 -22 54t-85 43q-69 23 -100.5 57.5t-31.5 88.5q0 55 39.5 92.5t110.5 37.5q131 0 161 -131zM777 69l14 -63q-33 -12 -78 -12q-80 0 -109 44.5t-29 124.5v250h-80q-33 -153 -250 -153h-88v-260h-83v682h178q112 0 179 -50.5t71 -152.5h73v153h79v-153h128v-66h-128v-253 q0 -56 17.5 -77.5t57.5 -21.5q26 0 48 8z"/>
<glyph glyph-name="Euro" horiz-adv-x="562" unicode="€" d="M517 77l25 -72q-59 -27 -134 -27q-125 0 -199.5 69.5t-100.5 184.5h-87l20 66h56q-1 13 -1 43q0 25 4 59h-68l20 67h59q30 110 108 173.5t189 63.5q63 0 122 -22l-19 -70q-47 19 -106 19q-67 0 -124 -41.5t-82 -122.5h274l-20 -67h-268q-3 -26 -3 -58q0 -18 2 -44h245 l-20 -66h-213q22 -83 78.5 -131.5t140.5 -48.5q55 0 102 25z"/>
<glyph glyph-name="uni2215" horiz-adv-x="190" unicode="∕" d="M283 682h77l-453 -682h-77z"/>
</font>
</defs>
</svg>
